<svg xmlns="http://www.w3.org/2000/svg" viewBox="0 0 24 24" width="24" height="24"><path d="M10.5 10A3.5 3.5 0 1 0 10.5 17 3.5 3.5 0 1 0 10.5 10z"/><path d="m17.73,2.05c-1.13-.16-2.24.05-3.22.61-2.05,1.19-4.15,2.07-6.33,2.66-3.17.89-5.55,3.55-6.07,6.76-.45,2.76.42,5.47,2.38,7.42,1.62,1.62,3.75,2.49,6,2.49.47,0,.94-.04,1.42-.12,3.22-.52,5.87-2.9,6.76-6.06l.03-.11c.56-2.09,1.45-4.18,2.63-6.23.56-.97.77-2.08.61-3.22-.31-2.17-2.04-3.9-4.21-4.21Zm1.87,6.43c-1.27,2.2-2.22,4.46-2.85,6.79-.67,2.39-2.75,4.25-5.16,4.64-2.12.34-4.19-.32-5.69-1.82-1.5-1.5-2.16-3.57-1.81-5.69.39-2.41,2.26-4.49,4.72-5.18,2.25-.61,4.51-1.56,6.71-2.83.45-.26.96-.4,1.48-.4.15,0,.3.01.45.03,1.28.18,2.33,1.24,2.52,2.52.1.68-.03,1.35-.36,1.93Z"/></svg>