<svg xmlns="http://www.w3.org/2000/svg" viewBox="0 0 24 24" width="24" height="24"><path d="M18.5 10H22V12H18.5z"/><path d="M18.55 8.83 20.05 7.83 21.55 6.83 21 6 20.45 5.17 18.95 6.17 17.45 7.17 18 8 18.55 8.83z"/><path d="M18.55 13.17 18 14 17.45 14.83 18.95 15.83 20.45 16.83 21 16 21.55 15.17 20.05 14.17 18.55 13.17z"/><path d="m15,8.18v-4.18c0-.37-.2-.71-.53-.88-.32-.17-.72-.16-1.03.05l-5.75,3.83h-1.7c-2.21,0-4,1.79-4,4,0,1.52.86,2.82,2.1,3.5l1.94,6.77,1.92-.55-1.64-5.73h1.37l5.75,3.83c.17.11.36.17.55.17.16,0,.32-.04.47-.12.33-.17.53-.51.53-.88v-4.18c1.16-.41,2-1.51,2-2.82s-.84-2.4-2-2.82Z"/></svg>