<svg xmlns="http://www.w3.org/2000/svg" viewBox="0 0 24 24" width="24" height="24"><path d="M20.29 6.71 21 6 21.71 5.29 20.2 3.79 18.7 2.29 17.99 3 17.28 3.71 18.79 5.21 20.29 6.71z"/><path d="m21,13c0-4.88-4.12-9-9-9-1.84,0-3.56.59-5,1.59l-1.09-1.09.79-.79-.71-.71-.71-.71-.79.79-1.79-1.79-1.41,1.41,20,20,1.41-1.41-3.29-3.29c.99-1.44,1.59-3.16,1.59-5Zm-9-7c3.79,0,7,3.21,7,7,0,1.29-.38,2.51-1.02,3.56l-2.56-2.56h1.59v-2h-3.59l-.41-.41v-3.59h-2v1.59l-2.56-2.56c1.05-.64,2.27-1.02,3.56-1.02Z"/><path d="m12,20c-3.79,0-7-3.21-7-7,0-1.08.27-2.11.73-3.03l-1.47-1.47c-.79,1.33-1.26,2.87-1.26,4.5,0,4.88,4.12,9,9,9,1.63,0,3.17-.47,4.5-1.26l-1.47-1.47c-.92.46-1.95.73-3.03.73Z"/></svg>