<svg xmlns="http://www.w3.org/2000/svg" viewBox="0 0 24 24" width="24" height="24"><path d="M6.71 18.71 12.21 13.21 15 16 15 9 8 9 10.79 11.79 5.29 17.29 6.71 18.71z"/><path d="m12,2c-2.67,0-5.18,1.04-7.07,2.93-1.89,1.89-2.93,4.4-2.93,7.07h2c0-2.14.83-4.15,2.34-5.66,1.51-1.51,3.52-2.34,5.66-2.34s4.15.83,5.66,2.34c1.51,1.51,2.34,3.52,2.34,5.66s-.83,4.15-2.34,5.66c-1.51,1.51-3.52,2.34-5.66,2.34v2c2.67,0,5.18-1.04,7.07-2.93,1.89-1.89,2.93-4.4,2.93-7.07s-1.04-5.18-2.93-7.07c-1.89-1.89-4.4-2.93-7.07-2.93Z"/></svg>