<svg xmlns="http://www.w3.org/2000/svg" viewBox="0 0 24 24" width="24" height="24"><path d="m10.5,22h2c0-.21.04-.26.26-.52.29-.34.74-.86.74-1.82s-.45-1.47-.74-1.82c-.22-.25-.26-.31-.26-.52s.04-.26.26-.51c.29-.34.74-.86.74-1.82h-2c0,.21-.04.26-.26.51-.29.34-.74.86-.74,1.82s.45,1.47.74,1.82c.22.25.26.31.26.52s-.04.26-.26.52c-.29.34-.74.86-.74,1.82Z"/><path d="m14.5,22h2c0-.21.04-.26.26-.52.29-.34.74-.86.74-1.82s-.45-1.47-.74-1.82c-.22-.25-.26-.31-.26-.52s.04-.26.26-.51c.29-.34.74-.86.74-1.82h-2c0,.21-.04.26-.26.51-.29.34-.74.86-.74,1.82s.45,1.47.74,1.82c.22.25.26.31.26.52s-.04.26-.26.52c-.29.34-.74.86-.74,1.82Z"/><path d="m6.5,22h2c0-.21.04-.26.26-.52.29-.34.74-.86.74-1.82s-.45-1.47-.74-1.82c-.22-.25-.26-.31-.26-.52s.04-.26.26-.51c.29-.34.74-.86.74-1.82h-2c0,.21-.04.26-.26.51-.29.34-.74.86-.74,1.82s.45,1.47.74,1.82c.22.25.26.31.26.52s-.04.26-.26.52c-.29.34-.74.86-.74,1.82Z"/><path d="m20,2H4c-1.1,0-2,.9-2,2v7c0,1.1.9,2,2,2h16c1.1,0,2-.9,2-2v-7c0-1.1-.9-2-2-2Zm-2,8H6v-1h12v1Zm-.5-3c-.28,0-.5-.22-.5-.5s.22-.5.5-.5.5.22.5.5-.22.5-.5.5Z"/></svg>