<svg xmlns="http://www.w3.org/2000/svg" viewBox="0 0 24 24" width="24" height="24"><path d="m18,6h-5.87c.51-1.86,2.44-1.99,2.88-2v-2c-1.58,0-4.42.87-4.92,4h-4.09c-2.21,0-4,1.79-4,4v1c0,.55.45,1,1,1v.67c0,3.05,1.69,5.79,4.42,7.16l3.68,1.84c.28.14.59.21.89.21s.61-.07.89-.21l3.68-1.84c2.73-1.36,4.42-4.11,4.42-7.16v-.67c.55,0,1-.45,1-1v-1c0-2.21-1.79-4-4-4Zm-12,2h12c1.1,0,2,.9,2,2H4c0-1.1.9-2,2-2Zm13,4.67c0,2.29-1.27,4.34-3.32,5.37l-3.68,1.84-3.68-1.84c-2.05-1.02-3.32-3.08-3.32-5.37v-.67h14v.67Z"/></svg>