<svg xmlns="http://www.w3.org/2000/svg" viewBox="0 0 24 24" width="24" height="24"><path d="M19 2A2 2 0 1 0 19 6 2 2 0 1 0 19 2z"/><path d="m17.67,12.21l-3.56.59,2.85-2.85c.52-.52.78-1.23.72-1.96-.06-.73-.43-1.4-1.02-1.83l-3.39-2.47c-.8-.58-1.89-.5-2.59.2l-3.4,3.4,1.41,1.41,3.4-3.4,1.84,1.34-3.53,3.53c-.45-.11-.92-.17-1.41-.17-1.29,0-2.49.42-3.47,1.12l1.45,1.45c.59-.35,1.28-.57,2.02-.57,2.21,0,4,1.79,4,4,0,.74-.22,1.42-.57,2.02l1.45,1.45c.7-.98,1.12-2.18,1.12-3.47,0-.45-.05-.88-.14-1.3l3.14-.52v5.82h2v-5.82c0-.59-.26-1.15-.71-1.53-.45-.38-1.04-.55-1.62-.45Z"/><path d="m9,20c-2.21,0-4-1.79-4-4,0-.74.22-1.42.57-2.02l-1.45-1.45c-.7.98-1.12,2.18-1.12,3.47,0,3.31,2.69,6,6,6,1.29,0,2.49-.42,3.47-1.12l-1.45-1.45c-.59.35-1.28.57-2.02.57Z"/></svg>