<svg xmlns="http://www.w3.org/2000/svg" viewBox="0 0 24 24" width="24" height="24"><path d="m21,12c0-4.88-4.12-9-9-9S3,7.12,3,12c0,2.58,1.16,4.95,2.98,6.61l-2.18,2.18,1.41,1.41,2.4-2.4c1.31.75,2.81,1.19,4.39,1.19s3.08-.44,4.39-1.19l2.4,2.4,1.41-1.41-2.18-2.18c1.81-1.66,2.98-4.02,2.98-6.61Zm-16,0c0-3.79,3.21-7,7-7s7,3.21,7,7-3.21,7-7,7-7-3.21-7-7Z"/><path d="M17 11 13 11 13 7 11 7 11 13 17 13 17 11z"/><path d="m8.31,2.74c-1.56-1.12-3.74-.98-5.14.42-1.4,1.4-1.53,3.58-.42,5.14,1.03-2.5,3.06-4.53,5.56-5.56Z"/><path d="m15.69,2.74c2.5,1.03,4.53,3.06,5.56,5.56,1.12-1.56.98-3.74-.42-5.14-1.4-1.4-3.58-1.53-5.14-.42Z"/></svg>