<svg xmlns="http://www.w3.org/2000/svg" viewBox="0 0 24 24" width="24" height="24"><path d="m20.66,7c-.74-1.29-2.41-1.86-4.67-1.63-.06,0-.12.02-.18.03-.9-2.11-2.25-3.4-3.81-3.4s-2.91,1.3-3.81,3.4c-.06,0-.12-.02-.18-.03-2.27-.24-3.92.34-4.67,1.63-.74,1.29-.42,3.01.93,4.86.04.05.08.1.11.14-.04.05-.08.1-.11.14-1.34,1.84-1.67,3.57-.93,4.86.63,1.1,1.93,1.68,3.7,1.68.31,0,.63-.02.97-.05.06,0,.12-.02.18-.03.9,2.11,2.25,3.4,3.81,3.4s2.91-1.3,3.81-3.4c.06,0,.12.02.18.03.34.04.66.05.97.05,1.77,0,3.07-.58,3.7-1.68.74-1.29.42-3.01-.93-4.86-.04-.05-.08-.1-.11-.14.04-.05.08-.1.11-.14,1.34-1.84,1.67-3.57.93-4.86Zm-5.66,5c0,.59-.03,1.15-.07,1.69-.45.32-.93.62-1.43.91-.5.29-1,.55-1.5.78-.5-.23-1-.49-1.5-.78-.5-.29-.97-.59-1.43-.91-.05-.54-.07-1.1-.07-1.69s.03-1.15.07-1.69c.45-.32.93-.62,1.43-.91.5-.29,1-.55,1.5-.78.5.23,1,.49,1.5.78.5.29.97.59,1.43.91.05.54.07,1.1.07,1.69Zm-3-8c.56,0,1.23.66,1.8,1.83-.59.17-1.19.38-1.8.63-.61-.25-1.21-.46-1.8-.63.57-1.18,1.24-1.83,1.8-1.83Zm-6.93,4c.25-.44.98-.68,1.98-.68.15,0,.32.02.49.03-.15.59-.27,1.21-.35,1.87-.52.4-1,.82-1.44,1.25-.7-1.03-.96-1.97-.67-2.47Zm0,8c-.29-.5-.03-1.44.67-2.47.44.43.92.85,1.44,1.25.09.66.21,1.29.36,1.87-1.24.09-2.18-.15-2.47-.66Zm6.93,4c-.56,0-1.23-.66-1.8-1.83.59-.17,1.19-.38,1.8-.63.61.25,1.21.46,1.8.63-.57,1.18-1.24,1.83-1.8,1.83Zm6.93-4c-.29.5-1.22.75-2.47.66.15-.59.27-1.22.36-1.87.52-.4,1-.82,1.44-1.25.7,1.03.96,1.97.67,2.47Zm-2.11-6.78c-.09-.66-.21-1.28-.35-1.87.17-.01.33-.03.49-.03,1,0,1.73.24,1.98.68.29.5.03,1.44-.67,2.47-.44-.43-.92-.85-1.44-1.25Z"/><path d="M12 10.5A1.5 1.5 0 1 0 12 13.5 1.5 1.5 0 1 0 12 10.5z"/></svg>