<svg xmlns="http://www.w3.org/2000/svg" viewBox="0 0 24 24" width="24" height="24"><path d="m19.1,7.8c-.38-.5-.97-.8-1.6-.8h-2.5v-1c0-1.1-.9-2-2-2H4c-1.1,0-2,.9-2,2v10c0,1.1.9,2,2,2,0,1.65,1.35,3,3,3s3-1.35,3-3h4c0,1.65,1.35,3,3,3s3-1.35,3-3c1.1,0,2-.9,2-2v-3.67c0-.43-.14-.86-.4-1.2l-2.5-3.33Zm-12.1,11.2c-.55,0-1-.45-1-1,0-.17.05-.35.13-.5.36-.62,1.33-.63,1.72-.02,0,0,.01.02.02.03.09.15.13.32.13.49,0,.55-.45,1-1,1Zm5-7.5h-2.5v2.5h-2v-2.5h-2.5v-2h2.5v-2.5h2v2.5h2.5v2Zm5,7.5c-.55,0-1-.45-1-1,0-.17.05-.35.13-.5.36-.62,1.33-.63,1.72-.02,0,0,.01.02.02.03.09.15.13.32.13.49,0,.55-.45,1-1,1Zm-2-7v-3h2.5l2.25,3h-4.75Z"/></svg>