<svg xmlns="http://www.w3.org/2000/svg" viewBox="0 0 24 24" width="24" height="24"><path d="m8.22,13.92l.52-.15c1.06-.31,1.92-1.1,2.32-2.13.62-1.61,1.98-2.85,3.63-3.33l.52-.15c1.06-.31,1.92-1.1,2.32-2.13l.74-1.91-2.16-1.87c-.25-.21-.58-.29-.9-.21-.32.08-.57.31-.69.61l-.69,1.8c-.32.84-1.03,1.49-1.89,1.73l-.45.13c-1.46.42-2.66,1.52-3.2,2.94-.32.84-1.03,1.48-1.89,1.73l-.45.13c-1.46.42-2.66,1.52-3.2,2.94l-.69,1.8c-.15.39-.04.84.28,1.11l1.77,1.53.48-1.24c.62-1.61,1.98-2.85,3.63-3.33Z"/><path d="m19.88,5.51l-.48,1.24c-.62,1.61-1.98,2.85-3.63,3.33l-.52.15c-1.06.31-1.92,1.1-2.32,2.13-.62,1.61-1.98,2.85-3.63,3.33l-.52.15c-1.06.31-1.92,1.1-2.32,2.13l-.74,1.91,2.16,1.87c.18.16.42.24.66.24.08,0,.16,0,.24-.03.32-.08.57-.31.69-.61l.69-1.8c.32-.84,1.03-1.49,1.89-1.73l.45-.13c1.46-.42,2.66-1.52,3.2-2.94.32-.84,1.03-1.48,1.89-1.73l.45-.13c1.46-.42,2.66-1.52,3.2-2.94l.69-1.8c.15-.39.04-.84-.28-1.11l-1.77-1.53Z"/></svg>