<svg xmlns="http://www.w3.org/2000/svg" viewBox="0 0 24 24" width="24" height="24"><path d="M2 13H22V15H2z"/><path d="m5,22h14c1.65,0,3-1.35,3-3v-2c0-.55-.45-1-1-1h-9c-.27,0-.52.11-.71.29l-2.29,2.29-2.29-2.29c-.19-.19-.44-.29-.71-.29h-3c-.55,0-1,.45-1,1v2c0,1.65,1.35,3,3,3Z"/><path d="m3,12h18c.55,0,1-.45,1-1v-2c0-3.93-4.39-7-10-7S2,5.07,2,9v2c0,.55.45,1,1,1Zm14.5-4c.28,0,.5.22.5.5s-.22.5-.5.5-.5-.22-.5-.5.22-.5.5-.5Zm-2.5-3c.55,0,1,.45,1,1s-.45,1-1,1-1-.45-1-1,.45-1,1-1Zm-2.5,2c.28,0,.5.22.5.5s-.22.5-.5.5-.5-.22-.5-.5.22-.5.5-.5Z"/></svg>