<svg xmlns="http://www.w3.org/2000/svg" viewBox="0 0 24 24" width="24" height="24"><path d="m21,16.28v-3.28c0-4.1-2.76-7.56-6.51-8.64-.08-1.31-1.16-2.36-2.49-2.36s-2.41,1.05-2.49,2.36c-3.76,1.08-6.51,4.54-6.51,8.64v3.28c-.59.35-1,.98-1,1.72v2c0,1.1.9,2,2,2h16c1.1,0,2-.9,2-2v-2c0-.74-.41-1.38-1-1.72Zm-15.95-4.1l3.44,1.97,3.5-2,3.5,2,3.45-1.97c.03.27.05.54.05.82v3H5v-3c0-.28.02-.55.05-.82Zm5.16-5.94c.45.47,1.09.76,1.79.76s1.33-.29,1.79-.76c2.07.55,3.77,2.02,4.62,3.95l-2.91,1.66-3.5-2-3.5,2-2.9-1.66c.85-1.93,2.55-3.4,4.62-3.95Zm-6.21,13.76v-2h16v2s-16,0-16,0Z"/></svg>