<svg xmlns="http://www.w3.org/2000/svg" viewBox="0 0 24 24" width="24" height="24"><path d="m19,22H5c-1.1,0-2-.9-2-2v-10.68c-.6-.75-.95-1.66-1-2.62-.05-1.14.36-2.22,1.15-3.05,1.02-1.07,2.59-1.66,4.42-1.66h9.73c1.29,0,2.55.54,3.45,1.48.85.89,1.29,2.04,1.24,3.23h0c-.04.96-.39,1.87-1,2.62v10.68c0,1.1-.9,2-2,2ZM7.58,4c-1.28,0-2.34.37-2.98,1.04-.42.44-.63.98-.6,1.58.03.61.28,1.19.71,1.63.18.19.28.44.28.7v11.06h14v-11.06c0-.26.1-.51.28-.7.43-.44.69-1.02.71-1.63h0c.03-.64-.21-1.26-.68-1.75-.52-.55-1.25-.86-2-.86H7.58Z"/><path d="M12 7A1 1 0 1 0 12 9 1 1 0 1 0 12 7z"/><path d="M15.5 10A.5.5 0 1 0 15.5 11 .5.5 0 1 0 15.5 10z"/><path d="M16 6A1 1 0 1 0 16 8 1 1 0 1 0 16 6z"/></svg>