<svg xmlns="http://www.w3.org/2000/svg" viewBox="0 0 24 24" width="24" height="24"><path d="m19.59,5.82l1.12-1.12-1.41-1.41-1.12,1.12c-.64-.43-1.38-.71-2.18-.83v-1.58h-2v1.65c-.73.17-1.4.5-1.98.95l-1.06-1.06-1.41,1.41,1.14,1.14c-.43.72-.69,1.55-.73,2.44l-1.25-1.25-1.41,1.41,1.25,1.25c-.89.04-1.72.3-2.44.73l-1.14-1.14-1.41,1.41,1.06,1.06c-.45.58-.78,1.25-.95,1.98h-1.65v2h1.58c.12.79.4,1.54.83,2.18l-1.12,1.12,1.41,1.41,1.12-1.12c.64.43,1.38.71,2.18.83v1.58h2v-1.56c1.01-.1,1.97-.35,2.88-.69l.76,1.27,1.71-1.03-.66-1.1c.78-.46,1.5-1,2.15-1.62l.94.94,1.41-1.41-1.03-1.03c.46-.61.85-1.27,1.18-1.96l1.19.6.89-1.79-1.38-.69c.17-.62.31-1.26.37-1.91h1.56v-2h-1.58c-.12-.79-.4-1.54-.83-2.18Zm-10.8,12.68c-1.81,0-3.29-1.47-3.29-3.29s1.47-3.29,3.29-3.29,3.14-1.41,3.14-3.14,1.47-3.29,3.29-3.29,3.29,1.47,3.29,3.29c0,5.36-4.36,9.71-9.71,9.71Z"/><path d="M9 13.5A1.5 1.5 0 1 0 9 16.5 1.5 1.5 0 1 0 9 13.5z"/><path d="M13 12A1 1 0 1 0 13 14 1 1 0 1 0 13 12z"/><path d="M12.5 15A.5.5 0 1 0 12.5 16 .5.5 0 1 0 12.5 15z"/><path d="M15 7.5A1.5 1.5 0 1 0 15 10.5 1.5 1.5 0 1 0 15 7.5z"/><path d="M15.5 12A.5.5 0 1 0 15.5 13 .5.5 0 1 0 15.5 12z"/></svg>