<svg xmlns="http://www.w3.org/2000/svg" viewBox="0 0 24 24" width="24" height="24"><path d="m21,10h-.61c-.37-1.8-1.7-3.26-3.47-3.79-.38-2.38-2.43-4.21-4.92-4.21s-4.48,1.77-4.91,4.09c-2,.37-3.59,1.92-3.99,3.91h-.1c-.55,0-1,.45-1,1,0,3.61,1.9,6.87,5,8.66v1.34c0,.55.45,1,1,1h8c.55,0,1-.45,1-1v-1.34c3.1-1.78,5-5.05,5-8.66,0-.55-.45-1-1-1Zm-2.67,0h-5.43c-.02-.11-.05-.21-.08-.32.01-.02.02-.05.03-.07.03-.06.07-.12.1-.18.04-.07.08-.13.13-.2.04-.05.08-.11.12-.16.05-.06.1-.12.16-.17.05-.05.09-.09.14-.14.06-.05.12-.1.18-.15.05-.04.1-.08.16-.11.07-.05.14-.09.21-.13.05-.03.11-.06.16-.09.08-.04.16-.07.24-.1.05-.02.11-.04.16-.06.09-.03.19-.05.29-.07.05,0,.09-.02.14-.03.15-.02.3-.03.45-.03.13,0,.26,0,.37.02,1.15.15,2.08.94,2.45,1.98Zm-6.33-6c1.32,0,2.44.86,2.84,2.04-.02,0-.03,0-.05.01-.28.04-.56.1-.82.19-.03,0-.05.02-.08.03-.24.08-.46.18-.68.29-.08.04-.16.1-.24.14-.16.09-.31.19-.46.3-.08.06-.16.13-.24.2-.13.11-.26.23-.38.36-.04.04-.09.08-.13.12-.05-.05-.1-.1-.15-.15-.09-.1-.18-.19-.28-.27-.09-.08-.19-.16-.28-.23-.1-.08-.21-.16-.32-.23-.1-.07-.21-.13-.32-.19-.12-.06-.23-.12-.35-.18-.11-.05-.23-.1-.34-.14-.13-.05-.25-.09-.38-.12-.06-.02-.12-.05-.19-.06.37-1.23,1.52-2.13,2.87-2.13Zm-4,4c.16,0,.31.01.47.04,1.07.17,1.98.9,2.35,1.94,0,0,0,.01,0,.02h-5.65c.41-1.16,1.53-2,2.83-2Z"/></svg>