<svg xmlns="http://www.w3.org/2000/svg" viewBox="0 0 24 24" width="24" height="24"><path d="m21,9h-9v-3c0-2.21-1.79-4-4-4s-4,1.79-4,4v.18c-1.16.41-2,1.51-2,2.82h2v2c0,3.52,2.04,6.57,5,8.05v2.95h2v-2.23c.64.15,1.31.23,2,.23v2h2v-2.23c3.81-.87,6.7-4.16,6.97-8.16.02-.2.03-.41.03-.61v-1c0-.55-.45-1-1-1Zm-1,2c0,2.21-1.79,4-4,4s-4-1.79-4-4h8Zm-14,0v-5c0-1.1.9-2,2-2s2,.9,2,2v5c0,3.31,2.69,6,6,6,.22,0,.43-.01.65-.04-1.06.65-2.31,1.04-3.65,1.04-3.86,0-7-3.14-7-7Z"/><path d="M8 6A1 1 0 1 0 8 8 1 1 0 1 0 8 6z"/></svg>