<svg xmlns="http://www.w3.org/2000/svg" viewBox="0 0 24 24" width="24" height="24"><path d="m18.29,4.29l-1.29,1.29-1.29-1.29c-.19-.19-.44-.29-.71-.29h0c-.27,0-.52.11-.71.29l-1.13,1.13c-.86-.29-1.75-.43-2.66-.43-4.69,0-8.5,3.81-8.5,8.5s3.81,8.5,8.5,8.5,8.5-3.81,8.5-8.5c0-.91-.14-1.8-.43-2.66l1.13-1.13c.39-.39.39-1.02,0-1.41l-1.29-1.29,1.3-1.3c.23-.23.84-.7,1.29-.7h1v-2h-1c-1.4,0-2.58,1.17-2.71,1.29Zm-1.8,6.69c.34.8.51,1.65.51,2.52,0,3.58-2.92,6.5-6.5,6.5s-6.5-2.92-6.5-6.5,2.92-6.5,6.5-6.5c.87,0,1.72.17,2.52.51.37.15.83.07,1.11-.22l.87-.88,2.58,2.58-.88.88c-.29.29-.37.72-.21,1.1Z"/><path d="m6,13.5h2c0-1.38,1.12-2.5,2.5-2.5v-2c-2.48,0-4.5,2.02-4.5,4.5Z"/></svg>