<svg xmlns="http://www.w3.org/2000/svg" viewBox="0 0 24 24" width="24" height="24"><path d="m19.51,5.85l-5.93-3.43c-.98-.56-2.18-.56-3.15,0l-5.94,3.43c-.98.56-1.58,1.6-1.58,2.73v6.85c0,1.13.6,2.17,1.58,2.73l5.93,3.43c.98.56,2.18.56,3.15,0l5.93-3.43c.98-.56,1.58-1.61,1.58-2.73v-6.85c0-1.13-.6-2.17-1.58-2.73Zm-2.33,3.74l-4.65,2.34v5.08c0,.09-.03.19-.07.27-.14.25-.47.34-.72.19l-4.28-2.43c-.29-.17-.46-.48-.46-.81v-4.73c0-.22.07-.43.19-.63h-.01c.13-.19.29-.33.48-.43l4.43-2.24c.28-.14.6-.12.87.03l4.26,2.43c.09.05.17.13.22.23.13.26.02.58-.24.69Z"/></svg>