<svg xmlns="http://www.w3.org/2000/svg" viewBox="0 0 24 24" width="24" height="24"><path d="M12 10A2 2 0 1 0 12 14 2 2 0 1 0 12 10z"/><path d="M12 5.5A1.5 1.5 0 1 0 12 8.5 1.5 1.5 0 1 0 12 5.5z"/><path d="M12 15.5A1.5 1.5 0 1 0 12 18.5 1.5 1.5 0 1 0 12 15.5z"/><path d="M17 10.5A1.5 1.5 0 1 0 17 13.5 1.5 1.5 0 1 0 17 10.5z"/><path d="M7 10.5A1.5 1.5 0 1 0 7 13.5 1.5 1.5 0 1 0 7 10.5z"/><path d="M12 2A1 1 0 1 0 12 4 1 1 0 1 0 12 2z"/><path d="M12 20A1 1 0 1 0 12 22 1 1 0 1 0 12 20z"/><path d="M21 11A1 1 0 1 0 21 13 1 1 0 1 0 21 11z"/><path d="M3 11A1 1 0 1 0 3 13 1 1 0 1 0 3 11z"/><path d="m16,7c0-.55.45-1,1-1s1,.45,1,1c0,.55-.45,1-1,1s-1-.45-1-1Z"/><path d="M7 16A1 1 0 1 0 7 18 1 1 0 1 0 7 16z"/><path d="M17 16A1 1 0 1 0 17 18 1 1 0 1 0 17 16z"/><path d="M7 6A1 1 0 1 0 7 8 1 1 0 1 0 7 6z"/><path d="M7.5 3A.5.5 0 1 0 7.5 4 .5.5 0 1 0 7.5 3z"/><path d="M3.5 7A.5.5 0 1 0 3.5 8 .5.5 0 1 0 3.5 7z"/><path d="M20.5 7A.5.5 0 1 0 20.5 8 .5.5 0 1 0 20.5 7z"/><path d="M16.5 3A.5.5 0 1 0 16.5 4 .5.5 0 1 0 16.5 3z"/><path d="M16.5 20A.5.5 0 1 0 16.5 21 .5.5 0 1 0 16.5 20z"/><path d="M20.5 16A.5.5 0 1 0 20.5 17 .5.5 0 1 0 20.5 16z"/><path d="M3.5 16A.5.5 0 1 0 3.5 17 .5.5 0 1 0 3.5 16z"/><path d="M7.5 20A.5.5 0 1 0 7.5 21 .5.5 0 1 0 7.5 20z"/></svg>