<svg xmlns="http://www.w3.org/2000/svg" viewBox="0 0 24 24" width="24" height="24"><path d="m18.5,3c-.19,0-4.06.07-6.5,5.15C9.56,3.07,5.69,3,5.5,3c-1.93,0-3.5,1.57-3.5,3.5v4c0,2.41,1.36,4.6,3.42,5.72-.28.55-.42,1.16-.42,1.78,0,2.21,1.79,4,4,4,1.26,0,2.3-.91,3-2.21.7,1.31,1.74,2.21,3,2.21,2.21,0,4-1.79,4-4,0-.62-.15-1.23-.42-1.78,2.07-1.12,3.42-3.31,3.42-5.72v-4c0-1.93-1.57-3.5-3.5-3.5Zm-9.5,17c-1.1,0-2-.9-2-2,0-.56.24-1.09.66-1.47.27-.24.38-.61.3-.97s-.35-.63-.7-.73c-1.92-.55-3.27-2.33-3.27-4.32v-4c0-.83.67-1.5,1.49-1.5.15,0,3.75.17,5.51,6.16v4.48c0,2.49-1.21,4.37-2,4.37Zm11-9.5c0,2-1.34,3.78-3.27,4.32-.35.1-.62.38-.7.73s.03.72.3.97c.43.39.66.91.66,1.47,0,1.1-.9,2-2,2-.79,0-2-1.88-2-4.37v-4.48c1.75-5.94,5.3-6.15,5.51-6.16.82,0,1.49.68,1.49,1.5v4Z"/></svg>