<svg xmlns="http://www.w3.org/2000/svg" viewBox="0 0 24 24" width="24" height="24"><path d="m20,10c-.74,0-1.38.4-1.72,1h-5.28v-2h4c.55,0,1-.45,1-1v-2.28c.6-.35,1-.98,1-1.72,0-1.1-.9-2-2-2s-2,.9-2,2c0,.74.4,1.38,1,1.72v1.28h-3v-2c0-1.65-1.35-3-3-3-1.3,0-2.41.83-2.83,2.01-1.78.17-3.17,1.67-3.17,3.49,0,.33.05.65.14.96-1.27.68-2.14,2.03-2.14,3.54,0,1.08.43,2.09,1.17,2.83-.11.38-.17.77-.17,1.17,0,1.96,1.41,3.59,3.31,3.93.55,1.23,1.8,2.07,3.19,2.07,1.93,0,3.5-1.57,3.5-3.5v-1.5h3v1.28c-.6.35-1,.98-1,1.72,0,1.1.9,2,2,2s2-.9,2-2c0-.74-.4-1.38-1-1.72v-2.28c0-.55-.45-1-1-1h-4v-2h5.28c.35.6.98,1,1.72,1,1.1,0,2-.9,2-2s-.9-2-2-2Z"/></svg>