<svg xmlns="http://www.w3.org/2000/svg" viewBox="0 0 24 24" width="24" height="24"><path d="m20,6h-1v-2c0-1.1-.9-2-2-2H7c-1.1,0-2,.9-2,2v2h-1c-1.1,0-2,.9-2,2v12c0,1.1.9,2,2,2h16c1.1,0,2-.9,2-2v-12c0-1.1-.9-2-2-2Zm-13-2h10v2H7v-2Zm-1,4h14v2s-16,0-16,0v-2h2Zm-2,12v-8h16v8s-16,0-16,0Z"/><path d="m8,13c-1.65,0-3,1.35-3,3s1.35,3,3,3,3-1.35,3-3-1.35-3-3-3Zm0,4c-.55,0-1-.45-1-1s.45-1,1-1,1,.45,1,1-.45,1-1,1Z"/><path d="m16,13c-1.65,0-3,1.35-3,3s1.35,3,3,3,3-1.35,3-3-1.35-3-3-3Zm0,4c-.55,0-1-.45-1-1s.45-1,1-1,1,.45,1,1-.45,1-1,1Z"/></svg>