<svg xmlns="http://www.w3.org/2000/svg" viewBox="0 0 24 24" width="24" height="24"><path d="m18.48,9.67c-1.32-.61-1.86-.86-1.52-2.63.36-1.93-.85-3.71-3.09-4.55-3.22-1.2-7.93-.25-10.31,3.86-2.03,3.5-2.08,7.93-.15,11.29,1.6,2.77,4.35,4.37,7.54,4.37,8.15,0,11.05-3.81,11.05-7.07,0-3.65-2.03-4.58-3.52-5.27Zm-7.53,10.33c-2.5,0-4.56-1.2-5.81-3.37-1.59-2.75-1.53-6.4.14-9.29,1.36-2.34,3.68-3.35,5.78-3.35.74,0,1.46.12,2.1.36.5.18,2.09.89,1.83,2.3-.63,3.31,1.27,4.19,2.65,4.82,1.32.61,2.35,1.08,2.35,3.45,0,2.52-2.8,5.07-9.05,5.07Z"/></svg>