<svg xmlns="http://www.w3.org/2000/svg" viewBox="0 0 24 24" width="24" height="24"><path class="b" d="m12,9c-2.17,0-4,1.83-4,4s1.83,4,4,4,4-1.83,4-4-1.83-4-4-4Zm0,6c-1.07,0-2-.93-2-2s.93-2,2-2,2,.93,2,2-.93,2-2,2Z"/><path class="b" d="m20,5h-3.15l-2.23-1.78c-.18-.14-.4-.22-.62-.22h-4c-.23,0-.45.08-.62.22l-2.23,1.78h-3.15c-1.1,0-2,.9-2,2v12c0,1.1.9,2,2,2h16c1.1,0,2-.9,2-2V7c0-1.1-.9-2-2-2Zm0,14H4V7h3.5c.23,0,.45-.08.62-.22l2.23-1.78h3.3l2.23,1.78c.18.14.4.22.62.22h3.5s0,12,0,12Z"/><path class="b" d="M18 8A1 1 0 1 0 18 10 1 1 0 1 0 18 8z"/></svg>