<svg xmlns="http://www.w3.org/2000/svg" viewBox="0 0 24 24" width="24" height="24"><path d="m21.98,9.34c-.19-2.85-5.11-4.34-9.98-4.34S2.21,6.49,2.02,9.34c.19,1.95,4.23,4.06,9.98,4.06s9.8-2.11,9.98-4.06Z"/><path d="m13,19c1.39-.06,2.76-.24,4-.54v-3.59c-1.23.28-2.57.45-4,.51v3.63Z"/><path d="m7,18.46c1.24.3,2.61.48,4,.54v-3.63c-1.43-.06-2.77-.23-4-.51v3.59Z"/><path d="m19,17.82c1.8-.76,3-1.86,3-3.3v-1.79c-.8.62-1.82,1.16-3,1.58v3.51Z"/><path d="m2,14.52c0,1.44,1.2,2.55,3,3.3v-3.51c-1.18-.43-2.2-.96-3-1.58v1.79Z"/></svg>