<svg xmlns="http://www.w3.org/2000/svg" viewBox="0 0 24 24" width="24" height="24"><path d="m20.55,15.17c-.13-.09-3.31-2.17-8.55-2.17s-8.42,2.08-8.55,2.17c-.28.19-.45.5-.45.83v2.18c0,.91.44,1.77,1.18,2.3.74.53,1.69.67,2.55.37,3.29-1.12,7.25-1.12,10.54,0,.3.1.6.15.91.15.58,0,1.16-.18,1.64-.52.74-.53,1.18-1.39,1.18-2.3v-2.18c0-.33-.17-.65-.45-.83Z"/><path d="m12,11c1.47,0,2.8.15,3.96.37-.2-3.59-1.26-6.34-2.49-7.6.02-.09.03-.18.03-.27,0-.83-.67-1.5-1.5-1.5s-1.5.67-1.5,1.5c0,.09.01.18.03.27-1.23,1.26-2.28,4.01-2.49,7.6,1.17-.22,2.49-.37,3.96-.37Z"/><path d="m8,3.84c-3.52,1.55-6,5.07-6,9.16v.79c.11-.1.21-.2.33-.29.22-.15,1.52-.97,3.69-1.63.1-3.26.83-6.08,1.98-8.03Z"/><path d="m16,3.84c1.15,1.95,1.88,4.76,1.98,8.03,2.17.66,3.46,1.48,3.68,1.63.13.08.23.19.34.29v-.79c0-4.09-2.47-7.61-6-9.16Z"/></svg>