<svg xmlns="http://www.w3.org/2000/svg" viewBox="0 0 24 24" width="24" height="24"><path d="m16.75,8.5c-.2,0-.4.01-.6.04-1.23-1.6-3.1-2.54-5.15-2.54-3.11,0-5.79,2.25-6.38,5.25-1.56.56-2.62,2.04-2.62,3.75,0,2.21,1.79,4,4,4h10.75c2.89,0,5.25-2.36,5.25-5.25s-2.36-5.25-5.25-5.25Z"/><path d="m21.61,6.05c-.13-.3-.28-.59-.46-.85-.18-.27-.39-.52-.61-.74-.23-.23-.48-.43-.74-.61-.27-.18-.55-.34-.85-.46-.3-.13-.62-.23-.94-.29-.66-.13-1.35-.13-2.01,0-.32.07-.64.17-.94.29-.3.12-.58.28-.85.46-.23.16-.45.34-.65.54,1.31.41,2.49,1.13,3.47,2.12,1.92.07,3.65.89,4.91,2.18.03-.23.07-.46.07-.69,0-.34-.03-.67-.1-1.01-.07-.32-.17-.64-.29-.94Z"/></svg>