<svg xmlns="http://www.w3.org/2000/svg" viewBox="0 0 24 24" width="24" height="24"><path d="m20.77,9.16l-1.37-4.11c-.42-1.22-1.56-2.05-2.85-2.05H7.44c-1.28,0-2.43.82-2.85,2.05l-1.36,4.1c-.72.3-1.23,1.02-1.23,1.84v5c0,.74.41,1.37,1,1.72v2.28c0,.55.45,1,1,1h1c.55,0,1-.45,1-1v-2h12v2c0,.55.45,1,1,1h1c.55,0,1-.45,1-1v-2.28c.59-.35,1-.98,1-1.72v-5c0-.83-.51-1.54-1.23-1.84Zm-3.27,2.84c.83,0,1.5.67,1.5,1.5s-.67,1.5-1.5,1.5-1.5-.67-1.5-1.5.67-1.5,1.5-1.5Zm-2.5-2.5l-4,5.5,1-3.5h-3l4-5.5-1,3.5h3Zm-7,4c0,.83-.67,1.5-1.5,1.5s-1.5-.67-1.5-1.5.67-1.5,1.5-1.5,1.5.67,1.5,1.5Z"/></svg>