<svg xmlns="http://www.w3.org/2000/svg" viewBox="0 0 24 24" width="24" height="24"><path d="m21.6,11.04c-.24-.19-.56-.25-.85-.17-.29.07-.52.11-.74.11-1.65,0-3-1.35-3-2.95,0-.03.02-.13.02-.17.01-.32-.13-.62-.37-.82-.25-.2-.57-.27-.88-.19-.29.08-.53.11-.76.11-1.65,0-3-1.35-3-3.01,0-.22.03-.45.1-.72.08-.31,0-.65-.21-.89-.21-.25-.53-.37-.85-.34C5.88,2.5,2,6.79,2,11.98c0,5.53,4.49,10.02,10,10.02s10-4.5,10-10.02v-.16c-.01-.31-.16-.59-.4-.78Zm-9.6,8.96c-4.41,0-8-3.6-8-8.02,0-3.73,2.51-6.88,6.01-7.77.13,2.68,2.36,4.85,5.09,4.76.46,2.27,2.45,3.98,4.84,4.01-.49,3.95-3.86,7.02-7.94,7.02Z"/><path d="M12.5 10A1.5 1.5 0 1 0 12.5 13 1.5 1.5 0 1 0 12.5 10z"/><path d="M15.5 2A1.5 1.5 0 1 0 15.5 5 1.5 1.5 0 1 0 15.5 2z"/><path d="M7.5 11A1.5 1.5 0 1 0 7.5 14 1.5 1.5 0 1 0 7.5 11z"/><path d="M9 8A1 1 0 1 0 9 10 1 1 0 1 0 9 8z"/><path d="M15 14A1 1 0 1 0 15 16 1 1 0 1 0 15 14z"/><path d="M21 5A1 1 0 1 0 21 7 1 1 0 1 0 21 5z"/><path d="M10.5 15A1.5 1.5 0 1 0 10.5 18 1.5 1.5 0 1 0 10.5 15z"/></svg>