<svg xmlns="http://www.w3.org/2000/svg" viewBox="0 0 24 24" width="24" height="24"><path d="m4.93,4.93c-1.89,1.89-2.93,4.4-2.93,7.07s1.04,5.18,2.93,7.07c1.95,1.95,4.51,2.92,7.07,2.92s5.12-.97,7.07-2.92,2.93-4.4,2.93-7.07-1.04-5.18-2.93-7.07c-3.9-3.9-10.24-3.9-14.14,0Zm7.07-.92c1.73,0,3.46.56,4.9,1.68l-4.9,4.9-4.9-4.9c1.44-1.12,3.17-1.68,4.9-1.68Zm-8,8c0-1.8.6-3.5,1.68-4.9l4.9,4.9-4.9,4.9c-1.09-1.4-1.68-3.1-1.68-4.9Zm3.1,6.32l4.9-4.9,4.9,4.9c-2.87,2.23-6.93,2.23-9.8,0Zm11.22-1.41l-4.9-4.9,4.9-4.9c1.09,1.4,1.68,3.1,1.68,4.9s-.6,3.5-1.68,4.9Z"/></svg>