<svg xmlns="http://www.w3.org/2000/svg" viewBox="0 0 24 24" width="24" height="24"><path d="m21,6h-2v-2c0-1.1-.9-2-2-2H7c-1.1,0-2,.9-2,2v6h-2c-1.1,0-2,.9-2,2v9c0,.55.45,1,1,1h20c.55,0,1-.45,1-1v-13c0-1.1-.9-2-2-2Zm0,14H3v-8h3c.55,0,1-.45,1-1v-7h10v3c0,.55.45,1,1,1h3v12Z"/><path d="M9 10H11V12H9z"/><path d="M9 14H11V16H9z"/><path d="M9 6H11V8H9z"/><path d="M5 14H7V16H5z"/><path d="M17 14H19V16H17z"/><path d="M17 10H19V12H17z"/><path d="M13 14H15V16H13z"/><path d="M13 6H15V8H13z"/><path d="M13 10H15V12H13z"/></svg>