<svg xmlns="http://www.w3.org/2000/svg" viewBox="0 0 24 24" width="24" height="24"><path d="m21.55,11.17l-1.26-.84c-.23-.15-.39-.38-.45-.65,0-.01,0-.02,0-.03-.06-.3,0-.59.15-.83l.84-1.26c.21-.31.22-.7.05-1.03-.17-.33-.51-.53-.88-.53h-2.07s0,0,0,0c-.21,0-.4-.06-.52-.15-.01,0-.02-.02-.04-.03-.17-.14-.28-.28-.34-.43l-1.1-2.76c-.11-.27-.33-.48-.61-.58-.28-.09-.58-.06-.83.09l-2.52,1.51c-.39.24-.78.38-1.18.43-1,.13-2.01-.15-2.79-.78l-1.36-1.09c-.3-.24-.71-.29-1.06-.12-.35.17-.57.52-.57.9v4.49c0,.1-.05.2-.09.27,0,0,0,.02-.01.02-.08.13-.23.22-.4.22h-1.5c-.4,0-.77.24-.92.62-.16.37-.07.8.22,1.09l1.42,1.42c.19.19.31.4.33.62.05.45-.1.89-.41,1.2l-1.34,1.34c-.29.29-.37.72-.22,1.09.15.37.52.62.92.62h3.09c.2,0,.39.06.54.18.24.19.37.45.37.72v4.09c0,.4.24.77.62.92.12.05.25.08.38.08.26,0,.52-.1.71-.29l2.76-2.76c.57-.57,1.28-.94,2.1-1.08.92-.16,1.88-.02,2.71.4l1.27.64c.34.17.75.13,1.05-.1.3-.23.45-.62.37-.99l-.45-2.23c-.05-.26,0-.54.17-.75,0,0,0,0,0,0,0,0,0,0,0,0,.08-.11.16-.19.25-.25l2.6-1.73c.28-.19.45-.5.45-.83s-.17-.65-.45-.83Z"/></svg>