<svg xmlns="http://www.w3.org/2000/svg" viewBox="0 0 24 24" width="24" height="24"><path d="M16 16A1 1 0 1 0 16 18 1 1 0 1 0 16 16z"/><path d="M20 16A1 1 0 1 0 20 18 1 1 0 1 0 20 16z"/><path d="M16 19A1 1 0 1 0 16 21 1 1 0 1 0 16 19z"/><path d="M12 17A1 1 0 1 0 12 19 1 1 0 1 0 12 17z"/><path d="M12 20A1 1 0 1 0 12 22 1 1 0 1 0 12 20z"/><path d="M8 19A1 1 0 1 0 8 21 1 1 0 1 0 8 19z"/><path d="M8 16A1 1 0 1 0 8 18 1 1 0 1 0 8 16z"/><path d="M4 16A1 1 0 1 0 4 18 1 1 0 1 0 4 16z"/><path d="m19.38,7.25c-.59-3-3.26-5.25-6.38-5.25-2.04,0-3.92.94-5.15,2.54-.21-.03-.4-.04-.6-.04-2.89,0-5.25,2.35-5.25,5.25s2.36,5.25,5.25,5.25h10.75c2.21,0,4-1.79,4-4,0-1.71-1.07-3.19-2.62-3.75Z"/></svg>