<svg xmlns="http://www.w3.org/2000/svg" viewBox="0 0 24 24" width="24" height="24"><path d="m13.44,3.12c-.17-.64-.75-1.12-1.44-1.12s-1.27.48-1.44,1.12C5.73,3.82,2,7.98,2,13v3c0,.55.45,1,1,1v2.18c0,.91.44,1.77,1.18,2.3.74.53,1.69.67,2.55.37,3.29-1.12,7.25-1.12,10.54,0,.3.1.6.15.91.15.58,0,1.16-.18,1.64-.52.74-.53,1.18-1.39,1.18-2.3v-2.18c.55,0,1-.45,1-1v-3c0-5.02-3.73-9.18-8.56-9.88Zm1.56,9.88v.24c-.91-.14-1.91-.24-3-.24s-2.09.09-3,.24v-.24c0-4.88,1.78-8,3-8s3,3.12,3,8Zm-11,1.85v-1.85c0-3.13,1.81-5.84,4.44-7.15-.9,1.79-1.44,4.29-1.44,7.15v.67c-1.4.39-2.42.87-3,1.18Zm15,4.33c0,.27-.12.51-.34.67-.22.15-.49.19-.74.11-1.85-.63-3.84-.95-5.92-.95s-4.06.32-5.92.95c-.26.09-.53.05-.74-.11-.22-.16-.34-.4-.34-.67v-2.59c.97-.5,3.45-1.58,7-1.58s6.03,1.08,7,1.58v2.59Zm1-4.33c-.58-.31-1.6-.78-3-1.18v-.67c0-2.86-.54-5.37-1.44-7.15,2.63,1.31,4.44,4.02,4.44,7.15v1.85Z"/></svg>