<svg xmlns="http://www.w3.org/2000/svg" viewBox="0 0 24 24" width="24" height="24"><path d="M6.5 12A1.5 1.5 0 1 0 6.5 15 1.5 1.5 0 1 0 6.5 12z"/><path d="M17.5 12A1.5 1.5 0 1 0 17.5 15 1.5 1.5 0 1 0 17.5 12z"/><path d="m20.77,9.16l-1.37-4.11c-.42-1.22-1.56-2.05-2.85-2.05H7.44c-1.28,0-2.43.82-2.85,2.05l-1.36,4.1c-.72.3-1.23,1.02-1.23,1.84v5c0,.74.41,1.38,1,1.72v2.28c0,.55.45,1,1,1h1c.55,0,1-.45,1-1v-2h12v2c0,.55.45,1,1,1h1c.55,0,1-.45,1-1v-2.28c.59-.35,1-.98,1-1.72v-5c0-.83-.51-1.54-1.23-1.84Zm-16.77,6.84v-5c.43,0,.81-.28.95-.68l1.54-4.62c.14-.41.52-.69.95-.69h9.12c.43,0,.81.28.95.69l1.54,4.63c.14.41.52.69.95.69v5H4Z"/><path d="M13 6 9 11.5 12 11.5 11 15 15 9.5 12 9.5 13 6z"/></svg>