<svg xmlns="http://www.w3.org/2000/svg" viewBox="0 0 24 24" width="24" height="24"><path d="M15.5 2A1.5 1.5 0 1 0 15.5 5 1.5 1.5 0 1 0 15.5 2z"/><path d="M21 5A1 1 0 1 0 21 7 1 1 0 1 0 21 5z"/><path d="m21.6,11.04c-.25-.19-.56-.25-.85-.17-.29.07-.52.11-.74.11-1.65,0-3-1.35-3-2.95,0-.03.02-.13.02-.17.01-.32-.13-.62-.37-.82-.25-.2-.58-.27-.88-.19-.29.08-.53.11-.76.11-1.65,0-3-1.35-3-3.01,0-.22.03-.45.1-.72.08-.31,0-.65-.21-.89-.21-.25-.53-.37-.85-.34C5.88,2.5,2,6.79,2,11.98c0,5.53,4.49,10.02,10,10.02s10-4.5,10-10.02v-.16c-.01-.31-.16-.59-.4-.78Zm-12.6-3.04c.55,0,1,.45,1,1s-.45,1-1,1-1-.45-1-1,.45-1,1-1Zm-1.5,6c-.83,0-1.5-.67-1.5-1.5s.67-1.5,1.5-1.5,1.5.67,1.5,1.5-.67,1.5-1.5,1.5Zm3,4c-.83,0-1.5-.67-1.5-1.5s.67-1.5,1.5-1.5,1.5.67,1.5,1.5-.67,1.5-1.5,1.5Zm2-5c-.83,0-1.5-.67-1.5-1.5s.67-1.5,1.5-1.5,1.5.67,1.5,1.5-.67,1.5-1.5,1.5Zm2.5,3c-.55,0-1-.45-1-1s.45-1,1-1,1,.45,1,1-.45,1-1,1Z"/></svg>