<svg xmlns="http://www.w3.org/2000/svg" viewBox="0 0 24 24" width="24" height="24"><path d="M6.5 12A1.5 1.5 0 1 0 6.5 15 1.5 1.5 0 1 0 6.5 12z"/><path d="M17.5 12A1.5 1.5 0 1 0 17.5 15 1.5 1.5 0 1 0 17.5 12z"/><path d="m20.77,9.16l-1.37-4.1c-.41-1.23-1.55-2.05-2.85-2.05H7.44c-1.29,0-2.44.82-2.85,2.05l-1.37,4.1c-.72.3-1.23,1.02-1.23,1.84v5c0,.74.41,1.38,1,1.72v2.28c0,.55.45,1,1,1h1c.55,0,1-.45,1-1v-2h12v2c0,.55.45,1,1,1h1c.55,0,1-.45,1-1v-2.28c.59-.35,1-.98,1-1.72v-5c0-.83-.51-1.54-1.23-1.84ZM7.44,5h9.12c.43,0,.81.27.95.68l1.11,3.32H5.39l1.11-3.32c.14-.41.52-.68.95-.68Zm-3.44,11v-5s0,0,0,0h16v5s-16,0-16,0Z"/></svg>