<svg xmlns="http://www.w3.org/2000/svg" viewBox="0 0 24 24" width="24" height="24"><path d="m20,9.8c-.1-4.53-3.64-7.8-8.5-7.8S2.01,5.24,2.01,10.67c0,2.71,1.03,5.05,2.99,6.79v4.54h2v-5.48l-.37-.3c-1.74-1.4-2.62-3.26-2.62-5.55,0-4.33,3.86-6.67,7.49-6.67,3.83,0,6.5,2.47,6.5,6v.19l1.52,3.81h-2.52v4h-4v4h2v-2h2c1.1,0,2-.9,2-2v-2h1.26c.5,0,.96-.25,1.24-.66s.34-.94.15-1.4l-1.66-4.14Z"/><path d="m11,10h-1v2h1c1.65,0,3-1.35,3-3s-1.35-3-3-3c-1.33,0-2.59.52-3.54,1.46-.94.94-1.46,2.2-1.46,3.54s.52,2.59,1.46,3.54c.94.94,2.2,1.46,3.54,1.46s2.59-.52,3.54-1.46l-1.41-1.42c-1.13,1.13-3.11,1.13-4.24,0-.57-.57-.88-1.32-.88-2.12s.31-1.55.88-2.12,1.32-.88,2.12-.88c.55,0,1,.45,1,1s-.45,1-1,1Z"/></svg>