<svg xmlns="http://www.w3.org/2000/svg" viewBox="0 0 24 24" width="24" height="24"><path d="m19.79,10.11c.14-.34.21-.72.21-1.11,0-1.33-.88-2.47-2.08-2.86.05-.21.08-.42.08-.64,0-1.38-1.12-2.5-2.5-2.5h-1.26c-1.31,0-2.62-.31-3.79-.89l-.55-.28-1.7,1.27c-.75.56-1.2,1.46-1.2,2.4,0,.17.02.34.05.5h-.05c-1.65,0-3,1.35-3,3,0,.39.07.76.21,1.11-1.27.35-2.21,1.51-2.21,2.89s.96,2.55,2.24,2.89l1.58,4.74c.27.82,1.04,1.37,1.9,1.37h8.56c.86,0,1.62-.55,1.9-1.37l1.58-4.74c1.29-.34,2.24-1.5,2.24-2.89s-.94-2.55-2.21-2.89Zm-3.51,9.89H7.72l-1.33-4h11.23l-1.33,4Zm2.72-6H5c-.55,0-1-.45-1-1s.45-1,1-1h7v-2h-5c-.55,0-1-.45-1-1s.45-1,1-1h3v-2h-.5c-.28,0-.5-.22-.5-.5,0-.31.15-.61.4-.8l.72-.54c1.3.55,2.71.84,4.11.84h1.26c.28,0,.5.22.5.5s-.22.5-.5.5h-2.5v2h4c.55,0,1,.45,1,1s-.45,1-1,1h-2v2h4c.55,0,1,.45,1,1s-.45,1-1,1Z"/></svg>