<svg xmlns="http://www.w3.org/2000/svg" viewBox="0 0 24 24" width="24" height="24"><path d="M5.5 2A3.5 3.5 0 1 0 5.5 9 3.5 3.5 0 1 0 5.5 2z"/><path d="m18,13.63v-4.07c.97.76,2.3,1.44,4,1.44v-2c-2.18,0-3.58-1.71-4-2.3v-1.14c.97.76,2.3,1.44,4,1.44v-2c-2.62,0-4.12-2.48-4.14-2.5-.18-.31-.51-.5-.86-.5h0c-.36,0-.69.2-.86.51-.01.02-1.41,2.49-4.13,2.49v2c1.72,0,3.04-.66,4-1.41v1.12c-.4.58-1.74,2.29-4,2.29v2c1.72,0,3.04-.66,4-1.41v2.41H7.5v.04c-.35,0-.69.16-.87.47l-4.5,8c-.17.31-.17.69,0,1s.51.5.86.5h18c.36,0,.68-.19.86-.5s.18-.69,0-1l-3.87-6.88Zm-13.29,6.37l2.79-4.96,2.79,4.96h-5.58Z"/></svg>