<svg xmlns="http://www.w3.org/2000/svg" viewBox="0 0 24 24" width="24" height="24"><path d="m12,10.5l4.1-3.89c.4-.49.65-1.1.65-1.78,0-1.56-1.28-2.83-2.85-2.83-.73,0-1.39.28-1.9.74-.51-.45-1.17-.74-1.9-.74-1.57,0-2.85,1.27-2.85,2.83,0,.68.25,1.29.65,1.78l4.1,3.89Z"/><path d="m12,13.5l-4.1,3.89c-.4.49-.65,1.1-.65,1.78,0,1.56,1.28,2.83,2.85,2.83.73,0,1.4-.28,1.9-.74.51.45,1.17.74,1.9.74,1.57,0,2.85-1.27,2.85-2.83,0-.68-.25-1.29-.65-1.78l-4.1-3.89Z"/><path d="m19.17,7.25c-.68,0-1.29.25-1.78.65l-3.89,4.1,3.89,4.1c.49.4,1.1.65,1.78.65,1.56,0,2.83-1.28,2.83-2.85,0-.73-.28-1.39-.74-1.9.45-.51.74-1.17.74-1.9,0-1.57-1.27-2.85-2.83-2.85Z"/><path d="m6.61,7.9c-.49-.4-1.1-.65-1.78-.65-1.56,0-2.83,1.28-2.83,2.85,0,.73.28,1.39.74,1.9-.45.51-.74,1.17-.74,1.9,0,1.57,1.27,2.85,2.83,2.85.68,0,1.29-.25,1.78-.65l3.89-4.1-3.89-4.1Z"/></svg>