<svg xmlns="http://www.w3.org/2000/svg" viewBox="0 0 24 24" width="24" height="24"><path d="M15.62 7.499999999999999A.62.62 0 1 0 15.62 8.739999999999998.62.62 0 1 0 15.62 7.499999999999999z"/><path d="M18.38 7.499999999999999A.62.62 0 1 0 18.38 8.739999999999998.62.62 0 1 0 18.38 7.499999999999999z"/><path d="m20,4h-6l-2-2v2s0,0,0,0v5c0,.34.04.68.1,1h-6.6c-.83,0-1.5-.67-1.5-1.5s.67-1.5,1.5-1.5c1.56,0,4.5-.84,4.5-4v-1h-2v1c0,1.88-2.09,2-2.5,2-1.93,0-3.5,1.57-3.5,3.5,0,1.42.85,2.63,2.06,3.18l.94,9.42c.05.51.48.9,1,.9h3c.55,0,1-.45,1-1v-3h4v3c0,.55.45,1,1,1h3c.51,0,.94-.38.99-.89l.89-8.04c1.27-.91,2.11-2.39,2.11-4.07v-5h0v-2s0,0-1.99,2Zm-2.9,16h-1.1v-3c0-.55-.45-1-1-1h-6c-.55,0-1,.45-1,1v3h-1.1l-.8-8h6.9v-.03c.91,1.23,2.36,2.03,4,2.03.27,0,.52-.04.78-.08l-.68,6.08Zm2.9-11c0,1.65-1.35,3-3,3s-3-1.35-3-3v-3h6v3Z"/></svg>