<svg xmlns="http://www.w3.org/2000/svg" viewBox="0 0 24 24" width="24" height="24"><path d="m12,13.04c2.76,0,5-2.24,5-5,0-1-.27-1.95-.81-2.83-.16-.27-.44-.44-.76-.47-.32-.03-.62.09-.83.32-.29.32-.68.49-1.1.49-.83,0-1.5-.67-1.5-1.5,0-.1.01-.21.04-.33.08-.39-.07-.79-.39-1.02-.32-.23-.75-.26-1.09-.06-1.33.77-3.56,2.49-3.56,5.41,0,2.76,2.24,5,5,5Zm-1.75-7.7c.52,1.29,1.78,2.21,3.26,2.21.49,0,.96-.1,1.4-.3.06.26.09.52.09.79,0,1.65-1.35,3-3,3s-3-1.35-3-3c0-1.14.55-2.03,1.25-2.7Z"/><path d="M19.55 12.11 12 15.88 4.45 12.11 3.55 13.89 9.76 17 3.55 20.11 4.45 21.89 12 18.12 19.55 21.89 20.45 20.11 14.24 17 20.45 13.89 19.55 12.11z"/></svg>