<svg xmlns="http://www.w3.org/2000/svg" viewBox="0 0 24 24" width="24" height="24"><path d="m21.03,12.74c.57-.14.97-.65.97-1.24s-.4-1.1-.97-1.24l-1.03-.26c0-1.11-.31-2.14-.83-3.03l.44-.66c.33-.49.28-1.14-.12-1.57s-1.04-.54-1.55-.27l-.79.43c-.92-.57-1.99-.9-3.14-.9l-.26-1.03c-.14-.57-.65-.97-1.24-.97s-1.1.4-1.24.97l-.26,1.03h-2.5c-3.58,0-6.5,2.92-6.5,6.5s2.92,6.5,6.5,6.5h.5v4c0,.55.45,1,1,1h9c.55,0,1-.45,1-1v-2l1.03-.26c.57-.14.97-.65.97-1.24s-.4-1.1-.97-1.24l-1.03-.26v-3l1.03-.26Zm-14.53-2.74c-.28,0-.5-.22-.5-.5s.22-.5.5-.5.5.22.5.5-.22.5-.5.5Zm6,1c-.83,0-1.5-.67-1.5-1.5s.67-1.5,1.5-1.5,1.5.67,1.5,1.5-.67,1.5-1.5,1.5Z"/></svg>