<svg xmlns="http://www.w3.org/2000/svg" viewBox="0 0 24 24" width="24" height="24"><path d="m21,6h-2l-1.2-1.6c-.19-.25-.48-.4-.8-.4h-3.42c-1.05-2-2.58-2-2.58-2v2.93s0,.04,0,.07v4h-5c-1.82,0-1.99-1.53-2-2v-1h-2v1c0,1.17.57,2.73,2,3.51v10.49c0,.55.45,1,1,1h3c.55,0,1-.45,1-1v-3h3v3c0,.55.45,1,1,1h3c.55,0,1-.45,1-1v-7.29c1.76-.65,3.38-1.68,4.71-3.01.19-.19.29-.44.29-.71v-3c0-.55-.45-1-1-1Zm-7,14v-3c0-.55-.45-1-1-1h-5c-.55,0-1,.45-1,1v3h-1v-9h5.61c.69,1.34,1.91,2.37,3.39,2.79v6.21h-1Zm6-10.43c-1.14,1.06-2.52,1.88-4,2.37h0c-1.69-.25-2.99-1.69-2.99-3.45v-2.5h3.5l1.2,1.6c.19.25.48.4.8.4h1.5v1.57Z"/><path d="M15.88 7.260000000000001A.87.87 0 1 0 15.88 9 .87.87 0 1 0 15.88 7.260000000000001z"/></svg>