<svg xmlns="http://www.w3.org/2000/svg" viewBox="0 0 24 24" width="24" height="24"><path d="m12,9c-3.58,0-6.5,2.92-6.5,6.5s2.92,6.5,6.5,6.5,6.5-2.92,6.5-6.5-2.92-6.5-6.5-6.5Zm.65,9.69v.71h-1.3v-.7c-1.52-.24-1.95-1.3-1.95-1.9h1.3c0,.09.1.65,1.3.65.9,0,1.3-.38,1.3-.65,0-.21,0-.65-1.3-.65-2.26,0-2.6-1.22-2.6-1.95,0-.84.67-1.68,1.95-1.89v-.71h1.3v.73c1.13.27,1.56,1.2,1.56,1.87h-1.3c0-.24-.14-.65-.91-.65-.84,0-1.3.33-1.3.65,0,.24,0,.65,1.3.65,2.26,0,2.6,1.22,2.6,1.95,0,.84-.67,1.68-1.95,1.89Z"/><path d="M9.88 8 12 6.59 14.12 8 13.41 5.71 15 4.12 12.96 3.94 12 2 11.04 3.94 9 4.12 10.59 5.71 9.88 8z"/><path d="M20.3 7.62 19.5 6 18.7 7.62 17 7.76 18.32 9.09 17.74 11 19.5 9.82 21.26 11 20.68 9.09 22 7.76 20.3 7.62z"/><path d="M5.68 9.09 7 7.76 5.3 7.62 4.5 6 3.7 7.62 2 7.76 3.32 9.09 2.74 11 4.5 9.82 6.26 11 5.68 9.09z"/></svg>