<svg xmlns="http://www.w3.org/2000/svg" viewBox="0 0 24 24" width="24" height="24"><path d="m21.38,10.08c-.37-.16-.8-.07-1.09.22l-.22.22c-.41.41-.83.72-1.24.93-1.7.85-3.69.7-5.2-.33,1.09-1.24,1.57-2.92,1.27-4.6-.39-2.18-2.09-3.94-4.24-4.39-1.66-.34-3.35.06-4.64,1.11-1.17.95-1.88,2.32-2.01,3.81l-.03-.04s-1,0-2,0c0,0,0,2.72,2.6,2.97.14.27.3.53.48.78-2.07,1.15-3.28,3.42-3.06,5.82.28,3.04,3,5.43,6.18,5.43h6.1c4.38,0,7.69-3.01,7.69-7v-4c0-.4-.24-.77-.62-.92Zm-12.38-2.08c-.55,0-1-.45-1-1s.45-1,1-1,1,.45,1,1-.45,1-1,1Z"/></svg>