<svg xmlns="http://www.w3.org/2000/svg" viewBox="0 0 24 24" width="24" height="24"><path d="m19,22H5c-1.1,0-2-.9-2-2V4c0-1.1.9-2,2-2h14c1.1,0,2,.9,2,2v16c0,1.1-.9,2-2,2ZM5,4v16h14V4H5Z"/><path d="M14 5A1 1 0 1 0 14 7 1 1 0 1 0 14 5z"/><path d="M17 5A1 1 0 1 0 17 7 1 1 0 1 0 17 5z"/><path d="m12,8c-2.76,0-5,2.24-5,5s2.24,5,5,5,5-2.24,5-5-2.24-5-5-5Zm-1.18,4.61c.33.27.78.65.78,1.38s-.45,1.11-.78,1.38c-.31.26-.42.37-.42.62h-1c0-.73.45-1.11.78-1.38.31-.26.42-.37.42-.62s-.11-.36-.42-.62c-.33-.27-.78-.65-.78-1.38s.45-1.11.78-1.38c.31-.26.42-.37.42-.61h1c0,.73-.45,1.11-.78,1.38-.31.26-.42.37-.42.61s.11.36.42.62Zm3,0c.33.27.78.65.78,1.38s-.45,1.11-.78,1.38c-.31.26-.42.37-.42.62h-1c0-.73.45-1.11.78-1.38.31-.26.42-.37.42-.62s-.11-.36-.42-.62c-.33-.27-.78-.65-.78-1.38s.45-1.11.78-1.38c.31-.26.42-.37.42-.61h1c0,.73-.45,1.11-.78,1.38-.31.26-.42.37-.42.61s.11.36.42.62Z"/></svg>