<svg xmlns="http://www.w3.org/2000/svg" viewBox="0 0 24 24" width="24" height="24"><path d="m12,8c-2.21,0-4,1.79-4,4s1.79,4,4,4,4-1.79,4-4-1.79-4-4-4Zm0,6c-1.1,0-2-.9-2-2s.9-2,2-2,2,.9,2,2-.9,2-2,2Z"/><path d="m20.31,7.96c-.1.02-.2.04-.31.04-1.1,0-2-.9-2-1.97,0-.03.02-.13.02-.16.02-.34-.13-.66-.4-.86-.27-.2-.62-.26-.94-.14-.24.09-.46.13-.68.13-1.08,0-1.97-.88-1.99-1.96-.01-.5-.39-.92-.89-.97-.37-.04-.74-.07-1.12-.07C6.49,2,2,6.49,2,12s4.49,10,10,10,10-4.49,10-10c0-1.14-.2-2.28-.6-3.39-.16-.45-.62-.72-1.09-.65Zm-8.31,12.04c-4.41,0-8-3.59-8-8S7.59,4,12,4c.04,0,.09,0,.13,0,.46,1.76,2.11,3.04,3.99,3,.42,1.64,1.87,2.88,3.61,2.99.17.66.26,1.34.26,2.01,0,4.41-3.59,8-8,8Z"/></svg>