<svg xmlns="http://www.w3.org/2000/svg" viewBox="0 0 24 24" width="24" height="24"><path d="m16.91,2.29c-.39-.39-1.02-.39-1.41,0l-1.59,1.59-1.09-1.09c-.39-.39-1.02-.39-1.41,0l-1.8,1.8c-.39.39-.39,1.02,0,1.41l3.49,3.49-3.59,3.59-3.49-3.49c-.39-.39-1.02-.39-1.41,0l-1.8,1.8c-.39.39-.39,1.02,0,1.41l1.09,1.09-1.59,1.59c-.39.39-.39,1.02,0,1.41l4.8,4.8c.2.2.45.29.71.29s.51-.1.71-.29l1.59-1.59,1.09,1.09c.2.2.45.29.71.29s.51-.1.71-.29l1.8-1.8c.39-.39.39-1.02,0-1.41l-3.49-3.49,3.59-3.59,3.49,3.49c.2.2.45.29.71.29s.51-.1.71-.29l1.8-1.8c.39-.39.39-1.02,0-1.41l-1.09-1.09,1.59-1.59c.39-.39.39-1.02,0-1.41l-4.8-4.8Z"/></svg>