<svg xmlns="http://www.w3.org/2000/svg" viewBox="0 0 24 24" width="24" height="24"><path d="m19.5,2c-1.38,0-2.5,1.12-2.5,2.5v4c0,.28-.22.5-.5.5s-.5-.22-.5-.5v-3c0-1.93-1.57-3.5-3.5-3.5s-3.5,1.57-3.5,3.5v6.5c0,.55-.45,1-1,1s-1-.45-1-1v-3.5c0-1.38-1.12-2.5-2.5-2.5s-2.5,1.12-2.5,2.5v4.16c0,2.95,2.4,5.34,5.34,5.34h1.66v2h-4v2h14v-2h-3v-6h.66c2.95,0,5.34-2.4,5.34-5.34v-4.16c0-1.38-1.12-2.5-2.5-2.5Zm.5,6.66c0,1.84-1.5,3.34-3.34,3.34h-1.66c-.55,0-1,.45-1,1v7h-3v-3c0-.55-.45-1-1-1h-2.66c-1.84,0-3.34-1.5-3.34-3.34v-4.16c0-.28.22-.5.5-.5s.5.22.5.5v3.5c0,1.65,1.35,3,3,3s3-1.35,3-3v-6.5c0-.83.67-1.5,1.5-1.5s1.5.67,1.5,1.5v3c0,1.38,1.12,2.5,2.5,2.5s2.5-1.12,2.5-2.5v-4c0-.28.22-.5.5-.5s.5.22.5.5v4.16Z"/></svg>