<svg xmlns="http://www.w3.org/2000/svg" viewBox="0 0 24 24" width="24" height="24"><path d="m21.24,5.69c-.25-1.01-.56-1.82-.9-2.41-.62-1.06-1.34-1.28-1.83-1.28-.96,0-2.83,2.06-3.79,3.53-1.83-.47-3.58-.47-5.41,0-.96-1.47-2.83-3.53-3.79-3.53-.49,0-1.21.22-1.83,1.28-.35.59-.65,1.4-.9,2.41-.25.98-.43,2.1-.56,3.32-.19,1.85-.2,4.07-.2,4.5,0,5.4,3.64,8.5,10,8.5s10-3.1,10-8.5c0-.43,0-2.65-.2-4.5-.13-1.22-.32-2.34-.56-3.32ZM4.97,9.77c.2-3.03.95-4.55.95-4.55l1.61,2.15c-1.06.61-1.94,1.43-2.57,2.4Zm2.03,1.23c0-.55.45-1,1-1s1,.45,1,1-.45,1-1,1-1-.45-1-1Zm7,7c-.36,0-.7-.1-1-.28v.28c0,.55-.45,1-1,1s-1-.45-1-1v-.28c-.3.18-.64.28-1,.28-.53,0-1.04-.21-1.41-.59l.71-.71c.38.38,1.04.38,1.41,0,.19-.19.29-.44.29-.71,0-.1-.03-.19-.06-.28-.85-.46-1.44-1.42-1.44-2.39,0-.74,1.12-1.33,2.5-1.33s2.5.6,2.5,1.33c0,.97-.59,1.93-1.44,2.39-.03.09-.06.18-.06.28,0,.27.1.52.29.71.38.38,1.04.38,1.41,0l.71.71c-.38.38-.88.59-1.41.59Zm2-6c-.55,0-1-.45-1-1s.45-1,1-1,1,.45,1,1-.45,1-1,1Zm.47-4.62l1.61-2.15s.76,1.52.95,4.55c-.63-.97-1.51-1.79-2.57-2.4Z"/></svg>