<svg xmlns="http://www.w3.org/2000/svg" viewBox="0 0 24 24" width="24" height="24"><path d="m14.5,11c1.93,0,3.5-1.57,3.5-3.5,0-2.04-2.3-4.67-2.76-5.17-.38-.42-1.1-.42-1.48,0-.46.51-2.76,3.13-2.76,5.17,0,1.93,1.57,3.5,3.5,3.5Zm0-6.43c.76,1,1.5,2.23,1.5,2.93,0,.83-.67,1.5-1.5,1.5s-1.5-.67-1.5-1.5c0-.71.74-1.93,1.5-2.93Z"/><path d="m21.32,12.05l-2.23-.74c-.81-.27-1.69-.11-2.35.42l-3.4,2.72-1.17-2.34c-.34-.68-1.03-1.11-1.79-1.11h-6.38c-1.1,0-2,.9-2,2v6c0,1.1.9,2,2,2h9.62c1.17,0,2.28-.51,3.04-1.4l5.1-5.95c.22-.25.29-.6.2-.92s-.33-.58-.65-.68Zm-6.18,6.25c-.38.44-.93.7-1.52.7H4v-6h6.38l1,2h-4.38v2h6c.23,0,.45-.08.63-.22l4.36-3.49c.13-.1.31-.14.47-.08l.81.27-4.13,4.82Z"/></svg>