<svg xmlns="http://www.w3.org/2000/svg" viewBox="0 0 24 24" width="24" height="24"><path d="m12,2c-4.41,0-8,3.59-8,8h2c0-3.31,2.69-6,6-6s6,2.69,6,6c0,1.77-.66,2.53-1.42,3.41-.74.86-1.58,1.83-1.58,3.59,0,2.44-2.61,3-3,3-1.65,0-3-1.35-3-3h-2c0,2.76,2.24,5,5,5,1.69,0,5-1.51,5-5,0-1.02.44-1.52,1.09-2.28.85-.98,1.91-2.2,1.91-4.72,0-4.41-3.59-8-8-8Z"/><path d="m14.83,12.83c.76-.76,1.17-1.76,1.17-2.83s-.42-2.07-1.17-2.83-1.76-1.17-2.83-1.17-2.07.42-2.83,1.17c-.76.76-1.17,1.76-1.17,2.83h2c0-.53.21-1.04.59-1.41.75-.76,2.07-.76,2.83,0,.38.38.59.88.59,1.41s-.21,1.04-.59,1.41l1.41,1.42Z"/></svg>