<svg xmlns="http://www.w3.org/2000/svg" viewBox="0 0 24 24" width="24" height="24"><path d="m22,11.96c-.02-.39-.26-.74-.63-.89l-3.93-1.57,3.43-6c.22-.39.16-.88-.16-1.2-.32-.32-.81-.39-1.2-.16l-6.34,3.62-3.46-3.46c-.29-.29-.71-.37-1.09-.22-.37.15-.62.52-.62.92v3.82l-4.84-.81c-.42-.07-.85.14-1.05.53-.2.39-.12.86.18,1.17l4.4,4.4-4.51,6.31c-.26.37-.25.86.03,1.21.28.35.76.47,1.17.29l5.87-2.51.76,3.79c.08.41.4.72.81.79.06,0,.11.01.17.01.35,0,.67-.18.86-.49l2.5-4.16,6.15,3.51c.4.23.91.15,1.23-.19.32-.34.36-.85.1-1.24l-3.37-5.06,2.99-1.49c.35-.18.57-.54.55-.94Z"/></svg>