<svg xmlns="http://www.w3.org/2000/svg" viewBox="0 0 24 24" width="24" height="24"><path d="M8.5 12A1.5 1.5 0 1 0 8.5 15 1.5 1.5 0 1 0 8.5 12z"/><path d="M15.5 12A1.5 1.5 0 1 0 15.5 15 1.5 1.5 0 1 0 15.5 12z"/><path d="m12,2C6.52,2,2.06,6.43,2,11.9l-1.12,10.1h22.23l-1.12-10.1c-.05-5.47-4.51-9.9-10-9.9Zm7.72,7.93c-4.96-.52-6.26-4.02-6.59-5.84,3.19.45,5.77,2.79,6.59,5.84Zm-8.84-5.84c-.34,1.82-1.64,5.32-6.59,5.84.82-3.06,3.41-5.39,6.59-5.84Zm-7.76,15.91l.32-2.86c.67,1.12,1.55,2.09,2.59,2.86h-2.91Zm.88-8s0-.02,0-.03c4.67-.31,6.92-2.74,8-5,1.08,2.26,3.32,4.69,8,5,0,.01,0,.02,0,.03,0,4.41-3.59,8-8,8s-8-3.59-8-8Zm13.97,8c1.04-.78,1.92-1.75,2.59-2.86l.32,2.86h-2.91Z"/></svg>