<svg xmlns="http://www.w3.org/2000/svg" viewBox="0 0 24 24" width="24" height="24"><path d="m19,8h-9.38l.29-.58c.79-1.58.28-3.5-1.19-4.48l-.33-.22c-.44-.3-.98-.4-1.5-.3s-.98.41-1.27.85l-3.45,5.17c-.11.16-.17.36-.17.55v12c0,.55.45,1,1,1h8.68c1.26,0,2.32-.94,2.48-2.19l.73-5.81h4.12c1.65,0,3-1.35,3-3s-1.35-3-3-3Zm0,4h-5c-.5,0-.93.38-.99.88l-.84,6.69c-.03.25-.24.44-.5.44h-7.68v-10.7l3.28-4.92.33.22c.63.42.85,1.24.51,1.92l-1.01,2.03c-.15.31-.14.68.04.97.18.29.5.47.85.47h11c.55,0,1,.45,1,1s-.45,1-1,1Z"/></svg>