<svg xmlns="http://www.w3.org/2000/svg" viewBox="0 0 24 24" width="24" height="24"><path d="m13,6.03v-3.03c0-.55-.45-1-1-1-3.16,0-5.68,3.88-5.97,9h-3.03c-.55,0-1,.45-1,1,0,3.16,3.88,5.68,9,5.97v3.03c0,.55.45,1,1,1,3.16,0,5.68-3.88,5.97-9h3.03c.55,0,1-.45,1-1,0-3.16-3.88-5.68-9-5.97Zm4,4.97c-.55,0-1,.45-1,1,0,3.89-1.44,6.81-3,7.71v-2.71c0-.55-.45-1-1-1-3.89,0-6.81-1.44-7.71-3h2.71c.55,0,1-.45,1-1,0-3.89,1.44-6.81,3-7.71v2.71c0,.55.45,1,1,1,3.89,0,6.81,1.44,7.71,3h-2.71Z"/><path d="M12 10.5A1.5 1.5 0 1 0 12 13.5 1.5 1.5 0 1 0 12 10.5z"/></svg>