<svg xmlns="http://www.w3.org/2000/svg" viewBox="0 0 24 24" width="24" height="24"><path d="M12 7A2 2 0 1 0 12 11 2 2 0 1 0 12 7z"/><path d="m21,11c-.87,0-1.72.12-2.53.34.13-.8-.01-1.63-.42-2.34.62-1.06.64-2.4.01-3.5h0c-.63-1.09-1.8-1.74-3.03-1.74h0c-.61-1.07-1.76-1.76-3.03-1.76s-2.41.69-3.03,1.76h0c-1.23,0-2.4.65-3.03,1.74-.63,1.1-.61,2.44.01,3.5-.41.71-.55,1.54-.42,2.34-.81-.21-1.65-.34-2.53-.34-.55,0-1,.45-1,1,0,5.51,4.49,10,10,10s10-4.49,10-10c0-.55-.45-1-1-1Zm-13.09-2.7c-.47-.48-.57-1.22-.24-1.8s1.02-.86,1.68-.69l.96.25.26-.95c.18-.65.77-1.11,1.44-1.11s1.26.45,1.44,1.11l.26.95.96-.25c.65-.17,1.34.11,1.68.69.33.58.23,1.32-.24,1.8l-.69.7.69.7c.47.48.57,1.22.24,1.8s-1.02.86-1.68.69l-.96-.25-.26.95c-.18.65-.77,1.11-1.44,1.11s-1.26-.46-1.44-1.11l-.26-.95-.96.25c-.65.17-1.34-.11-1.68-.69-.33-.58-.23-1.32.24-1.8l.69-.7-.69-.7Zm-3.84,4.77c3.56.48,6.38,3.3,6.86,6.86-3.56-.48-6.38-3.3-6.86-6.86Zm9,6.86c.48-3.56,3.3-6.38,6.86-6.86-.48,3.56-3.3,6.38-6.86,6.86Z"/></svg>