<svg xmlns="http://www.w3.org/2000/svg" viewBox="0 0 24 24" width="24" height="24"><path d="m22,7.5c0-3.03-2.47-5.5-5.5-5.5-1.86,0-3.5.93-4.5,2.35-1-1.42-2.64-2.35-4.5-2.35-3.03,0-5.5,2.47-5.5,5.5,0,1.86.93,3.5,2.35,4.5-1.42,1-2.35,2.64-2.35,4.5,0,3.03,2.47,5.5,5.5,5.5,1.86,0,3.5-.93,4.5-2.35,1,1.42,2.64,2.35,4.5,2.35,3.03,0,5.5-2.47,5.5-5.5,0-1.86-.93-3.5-2.35-4.5,1.42-1,2.35-2.64,2.35-4.5Zm-7,4.5v.02c-.02,1.66-1.32,2.96-3.02,2.98-1.65-.01-2.96-1.32-2.98-3.02.02-1.66,1.32-2.96,3.02-2.98,1.65.01,2.96,1.32,2.98,2.98v.02ZM7.5,4c1.8,0,3.28,1.36,3.48,3.1,0,0,0,0-.01,0-.01,0-.03,0-.04.01-.28.06-.55.15-.81.25-.07.03-.14.06-.21.09-.21.1-.42.21-.62.34-.05.03-.1.06-.15.1-.5.35-.94.79-1.28,1.3,0,0,0,.01-.01.02-.35.53-.61,1.12-.74,1.76-1.74-.2-3.1-1.68-3.1-3.48,0-1.93,1.57-3.5,3.5-3.5Zm0,16c-1.93,0-3.5-1.57-3.5-3.5,0-1.8,1.36-3.28,3.1-3.48,0,0,0,0,0,.01,0,.02.01.03.01.05.06.28.15.54.25.8.03.07.06.14.1.21.1.21.21.42.34.61.03.05.06.1.1.15.35.5.79.94,1.3,1.28,0,0,.01,0,.02.01.53.35,1.11.61,1.76.74-.2,1.74-1.68,3.1-3.48,3.1Zm9,0c-1.8,0-3.28-1.36-3.48-3.1,0,0,0,0,.01,0,.02,0,.03,0,.05-.01.28-.06.54-.15.8-.25.08-.03.16-.07.23-.11.2-.09.38-.19.56-.31.07-.04.14-.08.21-.13.47-.33.88-.74,1.21-1.21.04-.06.08-.13.12-.19.12-.19.23-.39.32-.59.03-.07.07-.14.09-.21.11-.28.21-.56.27-.86,1.74.2,3.1,1.68,3.1,3.48,0,1.93-1.57,3.5-3.5,3.5Zm.4-9.02s0,0,0-.01c0-.02-.01-.03-.01-.05-.06-.28-.15-.54-.25-.8-.03-.07-.06-.14-.1-.21-.1-.21-.21-.42-.34-.61-.03-.05-.06-.1-.1-.15-.35-.5-.79-.94-1.3-1.28,0,0-.01,0-.02-.01-.53-.35-1.11-.61-1.76-.74.2-1.74,1.68-3.1,3.48-3.1,1.93,0,3.5,1.57,3.5,3.5,0,1.8-1.36,3.28-3.1,3.48Z"/></svg>