<svg xmlns="http://www.w3.org/2000/svg" viewBox="0 0 24 24" width="24" height="24"><path d="m20.16,8.63c.3-1.32-.09-2.71-1.08-3.7-.99-1-2.38-1.39-3.7-1.09-.72-1.13-1.97-1.84-3.37-1.84s-2.65.71-3.37,1.84c-1.31-.3-2.71.09-3.7,1.08-1,.99-1.39,2.39-1.09,3.7-1.13.72-1.84,1.97-1.84,3.37s.71,2.65,1.84,3.37c-.3,1.32.09,2.71,1.08,3.7.99,1,2.38,1.39,3.7,1.09.72,1.13,1.97,1.84,3.37,1.84s2.65-.71,3.37-1.84c1.32.3,2.71-.09,3.7-1.08,1-.99,1.39-2.39,1.09-3.7,1.13-.72,1.84-1.97,1.84-3.37s-.71-2.65-1.84-3.37Zm-4.16,3.39c-.02,2.21-1.76,3.96-3.97,3.98-2.27-.02-4.01-1.76-4.03-3.97.02-2.27,1.76-4.01,3.97-4.03,2.27.02,4.01,1.76,4.03,3.97v.05Z"/></svg>