<svg xmlns="http://www.w3.org/2000/svg" viewBox="0 0 24 24" width="24" height="24"><path class="b" d="m11.21,21.95c.27.04.52.05.79.05s.52-.01.74-.04c4.14-.37,7.26-3.79,7.26-7.96,0-3.31-1.98-6.21-5-7.42v-2.58h1v-2h-8v2h1v2.58c-3.02,1.21-5,4.1-5,7.42,0,4.16,3.12,7.58,7.21,7.95Zm-.93-13.7l.71-.21v-4.04h2v4.04l.71.21c2.56.76,4.29,3.08,4.29,5.75,0,.26-.04.5-.07.75-2.65-.02-3.91-.85-5.38-1.83-1.37-.91-2.92-1.93-5.61-2.13.75-1.19,1.91-2.12,3.35-2.54Zm-4.14,4.51c2.59.03,3.86.86,5.3,1.83,1.41.94,3.02,1.99,5.88,2.14-.91,1.78-2.66,3.05-4.82,3.25-.35.05-.63.05-1.07,0-3.1-.28-5.44-2.84-5.44-5.96,0-.43.06-.84.14-1.24Z"/></svg>