<svg xmlns="http://www.w3.org/2000/svg" viewBox="0 0 24 24" width="24" height="24"><path d="m11.42,3.99l-5.43,5.43c-2.27,2.27-2.6,5.71-.93,8.11l-2.77,2.77,1.41,1.41,2.77-2.77c1,.7,2.19,1.06,3.4,1.06,1.67,0,3.39-.67,4.71-1.98l5.43-5.43c2.53-2.53,2.66-6.51.29-8.88-2.37-2.37-6.35-2.24-8.88.29Zm-4.02,6.84l5.43-5.43c1.48-1.48,3.64-1.79,5.24-.89l-11.56,11.56c-.9-1.6-.59-3.76.89-5.24Zm5.77,5.77c-1.48,1.48-3.64,1.79-5.24.89l3.49-3.49h4.35l-2.6,2.6Zm5.43-5.43l-.83.83h-4.35l6.07-6.07c.9,1.6.59,3.76-.89,5.24Z"/></svg>