<svg xmlns="http://www.w3.org/2000/svg" viewBox="0 0 24 24" width="24" height="24"><path d="m18.78,7.39c-.31-.03-.62.09-.83.32-.77.84-1.82,1.31-2.94,1.31-2.21,0-4.01-1.8-4.01-4.01,0-.27.03-.56.1-.87.09-.39-.07-.79-.39-1.02-.32-.23-.75-.26-1.09-.06-2.48,1.42-6.63,4.61-6.63,9.95,0,4.96,4.04,9,9,9s9-4.04,9-9c0-1.82-.49-3.55-1.47-5.14-.16-.27-.44-.44-.76-.47Zm-9.28,10.11c0-1.77,1.71-2.93,2.5-3.38.79.45,2.5,1.61,2.5,3.38,0,1.38-1.12,2.5-2.5,2.5s-2.5-1.12-2.5-2.5Zm6.9.94c.06-.3.1-.62.1-.94,0-3.62-3.94-5.35-4.11-5.42-.25-.11-.54-.11-.79,0-.17.07-4.11,1.8-4.11,5.42,0,.32.04.64.1.94-1.59-1.28-2.6-3.24-2.6-5.44,0-3.36,2.12-5.72,4.06-7.18.4,2.93,2.92,5.19,5.95,5.19,1.22,0,2.38-.37,3.37-1.05.41.97.62,1.98.62,3.04,0,2.19-1.02,4.15-2.6,5.44Z"/></svg>