<svg xmlns="http://www.w3.org/2000/svg" viewBox="0 0 24 24" width="24" height="24"><path d="M8.5 11A1.5 1.5 0 1 0 8.5 14 1.5 1.5 0 1 0 8.5 11z"/><path d="M15.5 11A1.5 1.5 0 1 0 15.5 14 1.5 1.5 0 1 0 15.5 11z"/><path d="m12,2C6.49,2,2,6.49,2,12s4.49,10,10,10,10-4.49,10-10S17.51,2,12,2Zm8,10c0,1.11-.23,2.17-.64,3.13-.98.24-3.83.87-7.36.87s-6.38-.62-7.36-.87c-.41-.96-.64-2.02-.64-3.13,0-.84.13-1.65.37-2.41.85.26,1.73.41,2.63.41.31,0,.62-.02.93-.05.11-.01.22-.03.33-.05.19-.03.37-.05.56-.08,0,0,.02,0,.03,0,.13-.03.25-.06.37-.1.16-.04.33-.08.49-.13.17-.05.33-.12.5-.18.1-.04.2-.07.3-.11.01,0,.02-.01.04-.02.16-.07.32-.15.48-.23.11-.05.21-.1.32-.16.15-.08.3-.18.44-.27.08-.05.17-.1.25-.15.02-.02.05-.04.07-.05.12-.09.24-.18.36-.27.12-.09.24-.19.36-.28.1-.08.19-.17.28-.25.09-.08.18-.15.26-.23.05-.05.09-.11.14-.16.03-.03.06-.06.09-.08,1.46,2.1,3.77,3.5,6.32,3.81.05.35.08.71.08,1.07Z"/></svg>