<svg xmlns="http://www.w3.org/2000/svg" viewBox="0 0 24 24" width="24" height="24"><path d="m22,12.5v-1h-1.03c-.04-.78-.18-1.54-.41-2.26l.95-.37-.36-.93-.95.37c-.38-.85-.89-1.62-1.5-2.3l.73-.73-.71-.71-.73.73c-.57-.51-1.2-.95-1.89-1.3l.42-.93-.91-.41-.42.94c-.84-.32-1.75-.52-2.69-.57v-1.03h-1v1.03c-.78.04-1.54.18-2.26.41l-.37-.95-.93.36.37.95c-.85.38-1.62.89-2.3,1.5l-.73-.73-.71.71.73.73c-.51.57-.95,1.2-1.3,1.89l-.93-.42-.41.91.94.42c-.32.84-.52,1.75-.57,2.69h-1.03v1h1.03c.04.78.18,1.54.41,2.26l-.95.37.36.93.95-.37c.38.85.89,1.62,1.5,2.3l-.73.73.71.71.73-.73c.57.51,1.2.95,1.89,1.3l-.42.93.91.41.42-.94c.84.32,1.75.52,2.69.57v1.03h1v-1.03c.78-.04,1.54-.18,2.26-.41l.37.95.93-.36-.37-.95c.85-.38,1.62-.89,2.3-1.5l.73.73.71-.71-.73-.73c.51-.57.95-1.2,1.3-1.89l.93.42.41-.91-.94-.42c.32-.84.52-1.75.57-2.69h1.03Zm-13.31,5.67l1.41-3.86c-.67-.55-1.1-1.37-1.1-2.3,0-.56.16-1.07.42-1.51l-2.64-3.14c.45-.5.96-.93,1.53-1.29l2.64,3.14c.33-.12.68-.2,1.05-.2,1.12,0,2.08.62,2.6,1.53l4.05-.71c.21.62.32,1.28.34,1.97l-4.04.71c-.24,1.42-1.46,2.5-2.95,2.5,0,0-.02,0-.03,0l-1.4,3.85c-.67-.14-1.3-.37-1.88-.69Z"/><path d="M12 11A1 1 0 1 0 12 13 1 1 0 1 0 12 11z"/></svg>