<svg xmlns="http://www.w3.org/2000/svg" viewBox="0 0 24 24" width="24" height="24"><path d="m9.95,17.97c.59,2.58,1.47,4.03,2.05,4.03s1.46-1.46,2.05-4.03c-1.36-.09-2.74-.09-4.1,0Z"/><path d="m9.59,15.98c1.6-.11,3.21-.11,4.81,0,.12-.91.21-1.9.24-2.98h-5.3c.03,1.08.12,2.07.24,2.98Z"/><path d="m12,8.11c-.81,0-1.61-.03-2.41-.09-.12.9-.21,1.9-.24,2.97h5.3c-.03-1.08-.12-2.07-.24-2.97-.8.06-1.6.09-2.41.09Z"/><path d="m19.32,5.21c-1.18-1.28-2.69-2.25-4.39-2.77.47.94.84,2.1,1.12,3.39,1.11-.14,2.2-.36,3.27-.62Z"/><path d="m16.39,16.19c1.44.19,2.85.49,4.22.86.72-1.21,1.19-2.59,1.34-4.06h-5.3c-.03,1.09-.12,2.16-.26,3.19Z"/><path d="m16.39,7.81c.14,1.03.22,2.1.26,3.19h5.3c-.15-1.47-.62-2.84-1.34-4.06-1.38.38-2.78.68-4.22.87Z"/><path d="m4.68,18.79c1.18,1.28,2.69,2.25,4.39,2.77-.47-.94-.84-2.1-1.12-3.39-1.11.14-2.2.36-3.27.62Z"/><path d="m14.93,21.56c1.7-.52,3.21-1.49,4.39-2.77-1.07-.26-2.16-.48-3.27-.62-.28,1.29-.66,2.45-1.12,3.39Z"/><path d="m7.61,7.81c-1.44-.19-2.84-.49-4.22-.87-.72,1.21-1.19,2.59-1.34,4.06h5.3c.03-1.08.12-2.16.26-3.19Z"/><path d="m14.05,6.03c-.59-2.58-1.47-4.03-2.05-4.03s-1.46,1.46-2.05,4.03c1.36.09,2.74.09,4.1,0Z"/><path d="m7.95,5.83c.28-1.29.66-2.45,1.12-3.39-1.7.52-3.21,1.49-4.39,2.77,1.07.26,2.16.48,3.27.62Z"/><path d="m7.35,13H2.05c.15,1.47.62,2.84,1.34,4.06,1.37-.38,2.78-.67,4.22-.86-.14-1.03-.22-2.11-.26-3.19Z"/></svg>