<svg xmlns="http://www.w3.org/2000/svg" viewBox="0 0 24 24" width="24" height="24"><path d="m12,2C6.49,2,2,6.49,2,12s4.49,10,10,10,10-4.49,10-10S17.51,2,12,2Zm7.5,7.24c-1.05-.45-2.36-.77-3.76-.97-.2-1.4-.52-2.71-.97-3.76,2.19.81,3.92,2.55,4.73,4.73Zm-3.55,4.44c.03-.56.05-1.12.05-1.68s-.02-1.12-.05-1.68c2.67.47,4.05,1.32,4.05,1.68s-1.39,1.21-4.05,1.68Zm-3.95,6.32c-.36,0-1.21-1.39-1.68-4.05.56.03,1.12.05,1.68.05s1.12-.02,1.68-.05c-.47,2.67-1.32,4.05-1.68,4.05Zm0-6c-.69,0-1.33-.03-1.93-.07-.05-.6-.07-1.24-.07-1.93s.03-1.33.07-1.93c.6-.05,1.24-.07,1.93-.07s1.33.03,1.93.07c.05.6.07,1.24.07,1.93s-.03,1.33-.07,1.93c-.6.05-1.24.07-1.93.07Zm-8-2c0-.36,1.39-1.21,4.05-1.68-.03.56-.05,1.12-.05,1.68s.02,1.12.05,1.68c-2.67-.47-4.05-1.32-4.05-1.68ZM12,4c.36,0,1.21,1.39,1.68,4.05-.56-.03-1.12-.05-1.68-.05s-1.12.02-1.68.05c.47-2.67,1.32-4.05,1.68-4.05Zm-2.76.5c-.45,1.05-.77,2.36-.97,3.76-1.4.2-2.71.52-3.76.97.81-2.19,2.55-3.92,4.73-4.73Zm-4.73,10.26c1.05.45,2.36.77,3.76.97.2,1.4.52,2.71.97,3.76-2.19-.81-3.92-2.55-4.73-4.73Zm10.26,4.73c.45-1.05.77-2.36.97-3.76,1.4-.2,2.71-.52,3.76-.97-.81,2.19-2.55,3.92-4.73,4.73Z"/></svg>