<svg xmlns="http://www.w3.org/2000/svg" viewBox="0 0 24 24" width="24" height="24"><path d="m21,8.91c-.05-.52-.48-.91-1-.91H3.99c-.52,0-.95.4-1,.91l-.99,11c-.05.59.41,1.09,1,1.09h17.99c.59,0,1.05-.5,1-1.09l-.99-11Zm-9,7.09c-2.76,0-5-2.24-5-5h2c0,1.65,1.35,3,3,3s3-1.35,3-3h2c0,2.76-2.24,5-5,5Z"/><path d="m12.95,6c-.25-2.24-2.14-4-4.45-4s-4.2,1.76-4.45,4h8.9Z"/><path d="m19.1,2.9c-1.16-1.16-3.19-1.16-4.35,0l-.53.53c.38.71.63,1.5.73,2.34l.03.22h4.88c.09-.3.15-.6.15-.92,0-.82-.32-1.6-.9-2.18Z"/></svg>