<svg xmlns="http://www.w3.org/2000/svg" viewBox="0 0 24 24" width="24" height="24"><path d="M11 5.86 11 2.42 4.99 5.85 8 7.52 11 5.86z"/><path d="M4.99 18.15 11 21.58 11 18.14 8 16.48 4.99 18.15z"/><path d="M7 9.25 4 7.59 4 16.41 7 14.75 7 9.25z"/><path d="M15 9.25 12 7.59 9 9.25 9 14.75 12 16.41 15 14.75 15 9.25z"/><path d="M17 14.75 20 16.41 20 7.59 17 9.25 17 14.75z"/><path d="M13 18.14 13 21.58 19.01 18.15 16 16.48 13 18.14z"/><path d="M19.01 5.85 13 2.42 13 5.86 16 7.52 19.01 5.85z"/></svg>