<svg xmlns="http://www.w3.org/2000/svg" viewBox="0 0 24 24" width="24" height="24"><path d="m12,2C6.49,2,2,6.49,2,12s4.49,10,10,10,10-4.49,10-10S17.51,2,12,2Zm5.66,4.35c-.72.17-1.45.3-2.19.4-.18-.83-.42-1.59-.7-2.25,1.1.41,2.08,1.04,2.89,1.85Zm-5.66,13.65c-.31,0-.97-1-1.45-2.94.96-.05,1.93-.05,2.9,0-.48,1.94-1.14,2.94-1.45,2.94Zm-1.81-4.93c-.08-.63-.14-1.32-.17-2.07h3.96c-.03.75-.09,1.44-.17,2.07-1.2-.08-2.42-.08-3.62,0Zm1.81-11.07c.31,0,.97,1,1.45,2.94-.96.05-1.93.05-2.9,0,.48-1.94,1.14-2.94,1.45-2.94Zm0,5c.61,0,1.21-.03,1.81-.06.08.63.14,1.32.17,2.06h-3.96c.03-.75.09-1.43.17-2.06.6.04,1.2.06,1.81.06Zm-3.98,2h-3.95c.13-1.05.47-2.04.97-2.92,1.03.28,2.09.51,3.16.66-.09.74-.15,1.5-.18,2.27Zm0,2c.03.77.09,1.53.18,2.27-1.08.15-2.13.38-3.16.65-.5-.88-.84-1.87-.97-2.93h3.95Zm7.96,0h3.95c-.13,1.05-.47,2.04-.97,2.93-1.03-.28-2.09-.5-3.16-.65.09-.74.15-1.51.18-2.27Zm0-2c-.03-.76-.09-1.53-.18-2.27,1.08-.15,2.13-.38,3.16-.66.5.88.83,1.87.97,2.92h-3.95Zm-6.74-6.5c-.28.66-.52,1.43-.7,2.25-.74-.1-1.47-.24-2.19-.4.81-.81,1.8-1.44,2.89-1.85Zm-2.89,13.15c.72-.17,1.45-.3,2.19-.4.18.83.42,1.59.7,2.25-1.1-.41-2.08-1.04-2.89-1.85Zm8.42,1.85c.28-.66.52-1.43.7-2.25.74.1,1.47.24,2.19.4-.81.81-1.8,1.44-2.89,1.85Z"/></svg>