<svg xmlns="http://www.w3.org/2000/svg" viewBox="0 0 24 24" width="24" height="24"><path class="b" d="m19,3H5c-1.1,0-2,.9-2,2v14c0,1.1.9,2,2,2h14c1.1,0,2-.9,2-2V5c0-1.1-.9-2-2-2Zm-7,16v-2h-2v2h-2v-2h2v-2h-2v-2h2v-2h-2v-2h2v-2h-2v-2h2v2h2v-2h7v14s-7,0-7,0Z"/><path class="b" d="M10 9H12V11H10z"/><path class="b" d="M12.5 11.5H13.5V12.5H12.5z"/><path class="b" d="M12.5 7.5H13.5V8.5H12.5z"/><path class="b" d="M12.5 15.5H13.5V16.5H12.5z"/><path class="b" d="M10 13H12V15H10z"/><path class="b" d="M14.5 5.5H15.5V6.5H14.5z"/><path class="b" d="M14.5 9.5H15.5V10.5H14.5z"/><path class="b" d="M14.5 13.5H15.5V14.5H14.5z"/><path class="b" d="M14.5 17.5H15.5V18.5H14.5z"/></svg>