<svg xmlns="http://www.w3.org/2000/svg" viewBox="0 0 24 24" width="24" height="24"><path class="b" d="m20,7h-.69c.44-.55.69-1.21.69-1.92,0-.82-.32-1.6-.9-2.18-1.16-1.16-3.19-1.16-4.35,0l-2.04,2.04c-.64-1.71-2.27-2.94-4.21-2.94-2.48,0-4.5,2.02-4.5,4.5,0,.17,0,.34.03.5h-.03c-.52,0-.95.4-1,.92l-.91,10.92c-.05.56.14,1.11.52,1.52.38.41.91.65,1.47.65h15.83c.56,0,1.09-.24,1.47-.65.38-.41.57-.96.52-1.52l-.91-10.92c-.04-.52-.48-.92-1-.92Zm-3.84-2.68c.41-.41,1.12-.41,1.53,0,.2.2.32.47.32.76s-.11.56-.32.76l-1.16,1.16h-3.05l2.68-2.68Zm-10.16,2.18c0-1.38,1.12-2.5,2.5-2.5s2.5,1.12,2.5,2.5c0,.14-.01.29-.05.46,0,.01-.01.03-.01.04h-4.89c-.03-.16-.05-.33-.05-.5Zm-1.91,12.5l.83-10h14.16l.83,10H4.09Z"/><path class="b" d="m12,14c-1.65,0-3-1.35-3-3h-2c0,2.76,2.24,5,5,5s5-2.24,5-5h-2c0,1.65-1.35,3-3,3Z"/></svg>