<svg xmlns="http://www.w3.org/2000/svg" viewBox="0 0 24 24" width="24" height="24"><path d="m20,6h-3v-2c0-1.1-.9-2-2-2h-6c-1.1,0-2,.9-2,2v2h-3c-1.1,0-2,.9-2,2v12c0,1.1.9,2,2,2h16c1.1,0,2-.9,2-2v-12c0-1.1-.9-2-2-2Zm-11-2h6v2h-6v-2Zm-5,16v-5h16v-2H4v-5h16v12s-16,0-16,0Z"/><path d="M13.5 9A1.5 1.5 0 1 0 13.5 12 1.5 1.5 0 1 0 13.5 9z"/><path d="M17.5 9A1.5 1.5 0 1 0 17.5 12 1.5 1.5 0 1 0 17.5 9z"/><path d="M10.5 18A.5.5 0 1 0 10.5 19 .5.5 0 1 0 10.5 18z"/><path d="M8.5 18A.5.5 0 1 0 8.5 19 .5.5 0 1 0 8.5 18z"/><path d="M6.5 18A.5.5 0 1 0 6.5 19 .5.5 0 1 0 6.5 18z"/><path d="M12.5 18A.5.5 0 1 0 12.5 19 .5.5 0 1 0 12.5 18z"/><path d="M14.5 18A.5.5 0 1 0 14.5 19 .5.5 0 1 0 14.5 18z"/><path d="M16.5 18A.5.5 0 1 0 16.5 19 .5.5 0 1 0 16.5 18z"/><path d="M18.5 18A.5.5 0 1 0 18.5 19 .5.5 0 1 0 18.5 18z"/><path d="M7.5 16A.5.5 0 1 0 7.5 17 .5.5 0 1 0 7.5 16z"/><path d="M5.5 16A.5.5 0 1 0 5.5 17 .5.5 0 1 0 5.5 16z"/><path d="M9.5 16A.5.5 0 1 0 9.5 17 .5.5 0 1 0 9.5 16z"/><path d="M11.5 16A.5.5 0 1 0 11.5 17 .5.5 0 1 0 11.5 16z"/><path d="M13.5 16A.5.5 0 1 0 13.5 17 .5.5 0 1 0 13.5 16z"/><path d="M15.5 16A.5.5 0 1 0 15.5 17 .5.5 0 1 0 15.5 16z"/><path d="M17.5 16A.5.5 0 1 0 17.5 17 .5.5 0 1 0 17.5 16z"/></svg>