<svg xmlns="http://www.w3.org/2000/svg" viewBox="0 0 24 24" width="24" height="24"><path d="m21.98,14.78l-1.65-7.43c-.31-1.38-1.51-2.35-2.93-2.35h-1.4v2h1.4c.47,0,.87.32.98.78l.79,3.54c-.51-.21-1.07-.33-1.66-.33-1.95,0-3.6,1.26-4.22,3h-2.55c-.62-1.74-2.27-3-4.22-3-.59,0-1.14.12-1.66.33l.79-3.54c.1-.46.5-.78.98-.78h1.4v-2h-1.4c-1.42,0-2.62.97-2.93,2.35l-1.65,7.43h.05c-.04.24-.07.47-.07.72,0,2.48,2.02,4.5,4.5,4.5,2.31,0,4.2-1.76,4.45-4h2.1c.25,2.24,2.14,4,4.45,4,2.48,0,4.5-2.02,4.5-4.5,0-.24-.03-.47-.07-.71h.05Z"/></svg>