<svg xmlns="http://www.w3.org/2000/svg" viewBox="0 0 24 24" width="24" height="24"><path class="b" d="m9.5,3h-5c-.83,0-1.5.67-1.5,1.5v5c0,.83.67,1.5,1.5,1.5h5c.83,0,1.5-.67,1.5-1.5v-5c0-.83-.67-1.5-1.5-1.5Zm-.5,6h-4v-4h4v4Z"/><path class="b" d="m19.5,3h-5c-.83,0-1.5.67-1.5,1.5v5c0,.83.67,1.5,1.5,1.5h5c.83,0,1.5-.67,1.5-1.5v-5c0-.83-.67-1.5-1.5-1.5Zm-.5,6h-4v-4h4v4Z"/><path class="b" d="m9.5,13h-5c-.83,0-1.5.67-1.5,1.5v5c0,.83.67,1.5,1.5,1.5h5c.83,0,1.5-.67,1.5-1.5v-5c0-.83-.67-1.5-1.5-1.5Zm-.5,6h-4v-4h4v4Z"/><path class="b" d="m20,16c0-1.93-1.57-3.5-3.5-3.5s-3.5,1.57-3.5,3.5,1.57,3.5,3.5,3.5c.47,0,.91-.1,1.32-.26l1.72,1.72,1.41-1.41-1.57-1.57c.39-.56.61-1.24.61-1.97Zm-5,0c0-.83.67-1.5,1.5-1.5s1.5.67,1.5,1.5-.67,1.5-1.5,1.5-1.5-.67-1.5-1.5Z"/></svg>