<svg xmlns="http://www.w3.org/2000/svg" viewBox="0 0 24 24" width="24" height="24"><path d="m19.5,6.13l-7-4c-.31-.18-.68-.18-.99,0l-7,4c-.31.18-.5.51-.5.87v10c0,.36.19.69.5.87l7,4c.15.09.32.13.5.13s.34-.04.5-.13l7-4c.31-.18.5-.51.5-.87V7c0-.36-.19-.69-.5-.87Zm-4,1.72l-2.5-1.43v-1.7l3.98,2.28-1.48.85Zm-3.5,8l-2.5-1.43v-4.84l2.5-1.43,2.5,1.43v4.84l-2.5,1.43Zm-1-9.43l-2.5,1.43-1.48-.85,3.98-2.28v1.7Zm-3.5,3.16v4.84l-1.5.86v-6.55l1.5.86Zm1,6.57l2.5,1.43v1.7l-3.98-2.28,1.48-.85Zm4.5,1.43l2.5-1.43,1.48.85-3.98,2.28v-1.7Zm3.5-3.16v-4.84l1.5-.86v6.55l-1.5-.86Z"/></svg>