<svg xmlns="http://www.w3.org/2000/svg" viewBox="0 0 24 24" width="24" height="24"><path d="m19.5,5h-.55c-.23-1.14-1.24-2-2.45-2h-1c-.46-.61-1.18-1-2-1s-1.54.39-2,1h-1c-1.38,0-2.5,1.12-2.5,2.5v8.66l-1.61-1.05c-.87-.56-1.99-.51-2.8.14-.53.42-.86,1.06-.89,1.74-.04.68.22,1.34.7,1.82l3.73,3.73c.94.94,2.2,1.46,3.54,1.46h6.34c2.76,0,5-2.24,5-5V7.5c0-1.38-1.12-2.5-2.5-2.5Zm.5,12c0,1.65-1.35,3-3,3h-6.34c-.79,0-1.56-.32-2.12-.88l-3.73-3.73c-.11-.11-.12-.23-.11-.3,0-.07.03-.19.15-.29.07-.06.16-.09.25-.09.07,0,.15.02.21.06l3.16,2.05c.31.2.7.21,1.02.04.32-.17.52-.51.52-.88V5.5c0-.28.22-.5.5-.5h.5v8h2V4.5c0-.28.22-.5.5-.5s.5.22.5.5v8.5h2V5h.5c.28,0,.5.22.5.5v7.5h2v-6h.5c.28,0,.5.22.5.5v9.5Z"/></svg>