<svg xmlns="http://www.w3.org/2000/svg" viewBox="0 0 24 24" width="24" height="24"><path d="m20.89,7.55l-2-4c-.17-.34-.52-.55-.89-.55h-5c-.38,0-.73.21-.89.55l-1.72,3.45h-4.38c-.38,0-.73.21-.89.55l-2,4c-.14.28-.14.61,0,.89l2,4c.17.34.52.55.89.55h4.38l1.72,3.45c.17.34.52.55.89.55h5c.38,0,.73-.21.89-.55l2-4c.14-.28.14-.61,0-.89l-1.78-3.55,1.78-3.55c.14-.28.14-.61,0-.89Zm-7.28-2.55h3.76l1.5,3-1.5,3h-3.76l-1.5-3,1.5-3Zm-8.5,7l1.5-3h3.76l1.5,3-1.5,3h-3.76l-1.5-3Zm12.26,7h-3.76l-1.5-3,1.5-3h3.76l1.5,3-1.5,3Z"/></svg>