<svg xmlns="http://www.w3.org/2000/svg" viewBox="0 0 24 24" width="24" height="24"><path d="m10.28,8.55c-.17-.34-.52-.55-.89-.55h-3.76c-.38,0-.73.21-.89.55l-1.5,3c-.14.28-.14.61,0,.89l1.5,3c.17.34.52.55.89.55h3.76c.38,0,.73-.21.89-.55l1.5-3c.14-.28.14-.61,0-.89l-1.5-3Z"/><path d="m19.28,3.55c-.17-.34-.52-.55-.89-.55h-3.76c-.38,0-.73.21-.89.55l-1.5,3c-.14.28-.14.61,0,.89l1.5,3c.17.34.52.55.89.55h3.76c.38,0,.73-.21.89-.55l1.5-3c.14-.28.14-.61,0-.89l-1.5-3Z"/><path d="m19.28,13.55c-.17-.34-.52-.55-.89-.55h-3.76c-.38,0-.73.21-.89.55l-1.5,3c-.14.28-.14.61,0,.89l1.5,3c.17.34.52.55.89.55h3.76c.38,0,.73-.21.89-.55l1.5-3c.14-.28.14-.61,0-.89l-1.5-3Z"/></svg>