<svg xmlns="http://www.w3.org/2000/svg" viewBox="0 0 24 24" width="24" height="24"><path d="m18.67,5H5.33c-2.39,0-4.33,1.92-4.33,4.27v5.45c0,2.36,1.94,4.27,4.33,4.27h13.33c2.39,0,4.33-1.92,4.33-4.27v-5.45c0-2.36-1.94-4.27-4.33-4.27Zm-13.33,12c-1.29,0-2.33-1.02-2.33-2.27v-5.45c0-1.25,1.05-2.27,2.33-2.27h1.67v10h-1.67Zm3.67,0V7h6v10h-6Zm12-2.27c0,1.25-1.05,2.27-2.33,2.27h-1.67V7h1.67c1.29,0,2.33,1.02,2.33,2.27v5.45Z"/><path d="M19 14A1 1 0 1 0 19 16 1 1 0 1 0 19 14z"/><path d="M5 8A1 1 0 1 0 5 10 1 1 0 1 0 5 8z"/></svg>