<svg xmlns="http://www.w3.org/2000/svg" viewBox="0 0 24 24" width="24" height="24"><path d="m16.64,5.16c-.74-1.89-2.57-3.16-4.64-3.16s-3.89,1.27-4.64,3.16c-1.96.51-3.36,2.27-3.36,4.34s1.4,3.78,3.29,4.31l3.82,7.63c.17.34.52.55.89.55s.72-.21.89-.55l3.82-7.63c1.89-.53,3.29-2.25,3.29-4.31s-1.41-3.83-3.36-4.34Zm-1.14,6.84h-7c-1.38,0-2.5-1.12-2.5-2.5,0-1.27.96-2.33,2.24-2.47.42-.04.76-.35.86-.75.33-1.34,1.53-2.28,2.9-2.28s2.57.94,2.9,2.28c.1.41.45.71.86.75,1.28.14,2.24,1.2,2.24,2.47,0,1.38-1.12,2.5-2.5,2.5Z"/></svg>