<svg xmlns="http://www.w3.org/2000/svg" viewBox="0 0 24 24" width="24" height="24"><path d="m20.87,6.74c-.18-.31-.51-.5-.87-.5h-4.96l-2.17-3.74c-.36-.62-1.37-.62-1.73,0l-2.17,3.74h-4.96c-.36,0-.69.19-.87.5-.18.31-.18.69,0,1l2.48,4.26-2.48,4.26c-.18.31-.18.69,0,1,.18.31.51.5.87.5h4.96l2.17,3.74c.18.31.51.5.86.5s.69-.19.86-.5l2.17-3.74h4.96c.36,0,.69-.19.87-.5.18-.31.18-.69,0-1l-2.48-4.26,2.48-4.26c.18-.31.18-.69,0-1Zm-8.87-1.75l.72,1.25h-1.45l.72-1.25Zm1.89,3.25l2.19,3.76-2.19,3.76h-3.77l-2.19-3.76,2.19-3.76h3.77Zm-8.15,0h2.06l-1.03,1.77-1.03-1.77Zm0,7.53l1.03-1.77,1.03,1.77h-2.06Zm6.26,3.25l-.72-1.25h1.45l-.72,1.25Zm6.26-3.25h-2.06l1.03-1.77,1.03,1.77Zm-2.06-7.53h2.06l-1.03,1.77-1.03-1.77Z"/></svg>