<svg xmlns="http://www.w3.org/2000/svg" viewBox="0 0 24 24" width="24" height="24"><path d="M20 4 20 2 18 2 18 4 16 4 16 6 18 6 18 8 20 8 20 6 22 6 22 4 20 4z"/><path d="m21.45,11.61l-8.55-4.28c-.56-.28-1.23-.28-1.79,0L2.55,11.61c-.34.17-.55.52-.55.89s.21.72.55.89l8.55,4.28c.28.14.59.21.89.21s.61-.07.89-.21l8.55-4.28c.34-.17.55-.52.55-.89s-.21-.73-.55-.89Z"/><path d="m21.47,15.62l-7.68,3.84c-.55.27-1.17.42-1.79.42s-1.24-.15-1.79-.42l-7.68-3.84c-.33.17-.53.51-.53.88s.21.72.55.89l8.55,4.28c.28.14.59.21.89.21s.61-.07.89-.21l8.55-4.28c.34-.17.55-.52.55-.89s-.21-.71-.53-.88Z"/></svg>