<svg xmlns="http://www.w3.org/2000/svg" viewBox="0 0 24 24" width="24" height="24"><path d="m6.29,14.29l2.29-2.29h-2.59v-2h4v-3c0-1.1-.9-2-2-2h-1c-2.76,0-5,2.24-5,5v8.82c0,.59.26,1.15.71,1.53.36.31.82.47,1.29.47.11,0,.22,0,.33-.03l4-.67c.97-.16,1.67-.99,1.67-1.97v-4.74l-2.29,2.29-1.41-1.41Z"/><path d="m17,5h-1c-1.1,0-2,.9-2,2v3h4v2h-2.59l2.29,2.29-1.41,1.41-2.29-2.29v4.74c0,.98.7,1.81,1.67,1.97l4,.67c.11.02.22.03.33.03.47,0,.93-.17,1.29-.47.45-.38.71-.94.71-1.53v-8.82c0-2.76-2.24-5-5-5Z"/><path d="M13.41 10 13 10 13 2 11 2 11 10 10.59 10 10 10 10 13.41 11.41 12 12.59 12 14 13.41 14 10 13.41 10z"/></svg>