<svg xmlns="http://www.w3.org/2000/svg" viewBox="0 0 24 24" width="24" height="24"><path d="m2.36,16.96c-.38.76-.46,1.61-.24,2.46.31,1.19,1.28,2.16,2.46,2.47.84.22,1.7.14,2.46-.24.43-.21,1.05-.42,1.61-.22,1.08.39,2.2.58,3.34.58.54,0,1.08-.04,1.63-.13,4.19-.67,7.59-4.06,8.26-8.26.27-1.7.12-3.37-.45-4.96-.2-.56,0-1.19.22-1.61.38-.76.46-1.61.24-2.46-.31-1.19-1.28-2.16-2.47-2.46-.85-.22-1.7-.14-2.46.24-.43.21-1.05.42-1.61.22-1.59-.57-3.27-.72-4.96-.45C6.19,2.79,2.79,6.19,2.13,10.38c-.27,1.7-.12,3.37.45,4.96.2.56,0,1.18-.22,1.61Zm1.75-6.26c.53-3.35,3.24-6.06,6.59-6.59,1.37-.22,2.7-.1,3.98.36.96.34,2.06.24,3.17-.31.33-.16.7-.2,1.07-.1.49.13.9.54,1.03,1.03.1.37.06.74-.1,1.07-.55,1.11-.65,2.2-.31,3.17.45,1.27.58,2.61.36,3.98-.53,3.35-3.24,6.06-6.59,6.59-1.36.22-2.7.1-3.98-.36-.37-.13-.76-.2-1.16-.2-.65,0-1.33.17-2.01.51-.33.16-.7.19-1.07.1-.49-.13-.9-.54-1.03-1.03-.1-.38-.06-.75.1-1.07.55-1.11.66-2.2.31-3.17-.46-1.27-.58-2.61-.36-3.98Z"/><path d="m12,8v-2c-3.31,0-6,2.69-6,6h2c0-2.21,1.79-4,4-4Z"/></svg>