<svg xmlns="http://www.w3.org/2000/svg" viewBox="0 0 24 24" width="24" height="24"><path d="m8,18.15l-4,.67v-8.82c0-1.65,1.35-3,3-3h1v2h2v-2c0-1.1-.9-2-2-2h-1c-2.76,0-5,2.24-5,5v8.82c0,.59.26,1.15.71,1.53.36.31.82.47,1.29.47.11,0,.22,0,.33-.03l4-.67c.97-.16,1.67-.99,1.67-1.97v-1.15h-2v1.15Z"/><path d="m17,5h-1c-1.1,0-2,.9-2,2v2h2v-2h1c1.65,0,3,1.35,3,3v8.82s-4-.67-4-.67v-1.15h-2v1.15c0,.98.7,1.81,1.67,1.97l4,.67c.11.02.22.03.33.03.47,0,.93-.17,1.29-.47.45-.38.71-.94.71-1.53v-8.82c0-2.76-2.24-5-5-5Z"/><path d="M17.71 14.29 15.41 12 18 12 18 10 13.41 10 13 10 13 2 11 2 11 10 10.59 10 6 10 6 12 8.59 12 6.29 14.29 7.71 15.71 11.41 12 12.59 12 16.29 15.71 17.71 14.29z"/></svg>