<svg xmlns="http://www.w3.org/2000/svg" viewBox="0 0 24 24" width="24" height="24"><path d="m14.82,4c-.41-1.16-1.51-2-2.82-2s-2.4.84-2.82,2H2v2h2.56l-2.49,6.65c-.04.11-.06.23-.06.35,0,2.21,1.79,4,4,4s4-1.79,4-4c0-.12-.02-.24-.06-.35l-2.49-6.65h1.74c.3.85.97,1.51,1.82,1.82v12.18H2v2h20v-2h-9V7.82c.85-.3,1.51-.97,1.82-1.82h1.74l-2.49,6.65c-.04.11-.06.23-.06.35,0,2.21,1.79,4,4,4s4-1.79,4-4c0-.12-.02-.24-.06-.35l-2.49-6.65h2.56v-2h-7.18ZM4.07,13l1.93-5.15,1.93,5.15h-3.86Zm12,0l1.93-5.15,1.93,5.15h-3.86Zm-4.07-7c-.55,0-1-.45-1-1s.45-1,1-1,1,.45,1,1-.45,1-1,1Z"/></svg>