<svg xmlns="http://www.w3.org/2000/svg" viewBox="0 0 24 24" width="24" height="24"><path d="M11 2 11 4.5 11 7 12 7 13 7 13 4.5 13 2 12 2 11 2z"/><path d="M11 17 11 19.5 11 22 12 22 13 22 13 19.5 13 17 12 17 11 17z"/><path d="M17 11 17 12 17 13 19.5 13 22 13 22 12 22 11 19.5 11 17 11z"/><path d="M7 13 7 12 7 11 4.5 11 2 11 2 12 2 13 4.5 13 7 13z"/><path d="M7.76 14.83 5.99 16.6 4.22 18.36 4.93 19.07 5.64 19.78 7.4 18.01 9.17 16.24 8.46 15.54 7.76 14.83z"/><path d="M16.24 14.83 15.54 15.54 14.83 16.24 16.6 18.01 18.36 19.78 19.07 19.07 19.78 18.36 18.01 16.6 16.24 14.83z"/><path d="M5.64 4.22 4.93 4.93 4.22 5.64 5.99 7.4 7.76 9.17 8.46 8.46 9.17 7.76 7.4 5.99 5.64 4.22z"/></svg>