<svg xmlns="http://www.w3.org/2000/svg" viewBox="0 0 24 24" width="24" height="24"><path d="M20 2 18 2 18 4 16 4 16 6 18 6 18 8 20 8 20 6 22 6 22 4 20 4 20 2z"/><path d="m22,12.5c0-.38-.21-.73-.55-.89l-8.55-4.28c-.56-.28-1.23-.28-1.79,0L2.55,11.61c-.34.17-.55.52-.55.89s.21.72.55.89l2.21,1.11-2.21,1.11c-.34.17-.55.52-.55.89s.21.72.55.89l8.55,4.28c.28.14.59.21.89.21s.61-.07.89-.21l8.55-4.28c.34-.17.55-.52.55-.89s-.21-.72-.55-.89l-2.21-1.11,2.21-1.11c.34-.17.55-.52.55-.89Zm-10-3.38l6.76,3.38-2.21,1.11s0,0,0,0l-4.55,2.28-4.55-2.28s0,0,0,0l-2.21-1.11,6.76-3.38Zm6.76,7.38l-6.76,3.38-6.76-3.38,1.76-.88,4.11,2.05c.28.14.59.21.89.21s.61-.07.89-.21l4.11-2.05,1.76.88Z"/></svg>