<svg xmlns="http://www.w3.org/2000/svg" viewBox="0 0 24 24" width="24" height="24"><path d="m21.33,2.53c-.37-.14-.79-.05-1.07.22-.07.07-1.86,1.77-4.84.27-2.05-1.03-5.6-1.64-8.88,0C2.28,5.16.77,10.49,3.03,15.22c.62-1.74,1.51-3.21,2.68-4.38,2.81-2.8,6.2-2.8,6.29-2.83v.34c-1.23.34-2.83,1.04-4.29,2.49-2.46,2.46-3.71,6.21-3.71,11.16h2c0-1.15.07-2.18.21-3.12.66.41,1.39.72,2.17.9.66.16,1.32.22,1.97.22,2.43,0,4.64-.96,5.72-1.77,1.82-1.37,3.32-2.67,4.8-5.89,1.4-3.07,1.12-8.7,1.1-8.94-.02-.39-.27-.73-.64-.87Z"/></svg>