<svg xmlns="http://www.w3.org/2000/svg" viewBox="0 0 24 24" width="24" height="24"><path d="m8.58,19c-.57,0-1.11-.17-1.58-.46v2.46c0,.35.18.67.47.85.29.18.66.2.97.04l3.55-1.78,3.55,1.78c.14.07.29.11.45.11.18,0,.37-.05.53-.15.29-.18.47-.5.47-.85v-2.46c-.47.29-1.01.46-1.58.46h-6.84Z"/><path d="m6.84,16.99c.35.62,1.02,1.01,1.74,1.01h6.84c.71,0,1.38-.39,1.74-1.01l3.43-6c.35-.61.35-1.37,0-1.98l-3.43-6c-.36-.62-1.02-1.01-1.74-1.01h-6.84c-.72,0-1.38.39-1.74,1.01l-3.43,6c-.35.61-.35,1.37,0,1.98l3.43,6Zm4.07-8.36l1.08-2.19,1.08,2.19,2.42.35-1.75,1.71.41,2.41-2.16-1.14-2.16,1.14.41-2.41-1.75-1.71,2.42-.35Z"/></svg>