<svg xmlns="http://www.w3.org/2000/svg" viewBox="0 0 24 24" width="24" height="24"><path d="m12,3C6.49,3,2,6.59,2,11c0,2.91,1.9,5.51,5,6.93v3.07c0,.38.21.72.55.89.14.07.29.11.45.11.21,0,.42-.07.6-.2l3.74-2.8c5.36-.14,9.66-3.67,9.66-8S17.51,3,12,3Zm0,14c-.22,0-.43.07-.6.2l-2.4,1.8v-1.73c0-.41-.25-.78-.64-.93-2.69-1.04-4.36-3.08-4.36-5.34,0-3.31,3.59-6,8-6s8,2.69,8,6-3.59,6-8,6Z"/><path d="M8.5 7A1.5 1.5 0 1 0 8.5 10 1.5 1.5 0 1 0 8.5 7z"/><path d="M11 12.5 9.5 11 7 14 17 14 14 9 11 12.5z"/></svg>