<svg xmlns="http://www.w3.org/2000/svg" viewBox="0 0 24 24" width="24" height="24"><path d="m8.82,14c1.18,0,1.73-.48,2.43-.97.76-.53,1.89-.91,2.75-.51.38.17,1.54.51,2,.51,1,0,2.12-.89,1.99-2.29-.25-2.65-2.84-4.74-5.99-4.74s-5.68,2.04-5.98,4.66c-.18,1.59.95,3.34,2.8,3.34Zm.68-5c.83,0,1.5.67,1.5,1.5s-.67,1.5-1.5,1.5-1.5-.67-1.5-1.5.67-1.5,1.5-1.5Z"/><path d="m21.97,12.01c.02-.27.02-.55,0-.82-.42-5.15-4.79-9.19-9.97-9.19S2.55,5.88,2.05,11.02c-.04.44-.04.87,0,1.3v2.7c-.33,3.41,1.89,6.45,5.05,6.91.31.05.61.07.92.07,1.38,0,2.7-.47,3.79-1.35.8-.66,1.89-.75,2.84-.24.72.39,1.54.59,2.36.59h.01c1.27,0,2.48-.56,3.41-1.56,1.1-1.2,1.68-2.89,1.55-4.43l.03-3h-.03Zm-17.93-.8c.4-4.11,3.82-7.21,7.96-7.21s7.64,3.23,7.97,7.35c.08,1-.26,2.02-.91,2.72-.39.42-1.06.93-2.06.93h0c-.5,0-.98-.12-1.42-.36-1.67-.9-3.61-.72-5.05.45-.88.72-2,1.03-3.14.86-2.11-.31-3.58-2.39-3.35-4.74Z"/></svg>