<svg xmlns="http://www.w3.org/2000/svg" viewBox="0 0 24 24" width="24" height="24"><path d="M14.29 8.29 12 10.59 9.71 8.29 8.29 9.71 10.59 12 8.29 14.29 9.71 15.71 12 13.41 14.29 15.71 15.71 14.29 13.41 12 15.71 9.71 14.29 8.29z"/><path d="m12,2C6.49,2,2,6.49,2,12c0,2.12.68,4.19,1.93,5.9l-1.75,2.53c-.21.31-.24.7-.06,1.03.17.33.51.54.89.54h9c5.51,0,10-4.49,10-10S17.51,2,12,2Zm0,18h-7.09l1.09-1.57c.26-.37.23-.88-.06-1.22-1.25-1.45-1.93-3.3-1.93-5.21,0-4.41,3.59-8,8-8s8,3.59,8,8-3.59,8-8,8Z"/></svg>