<svg xmlns="http://www.w3.org/2000/svg" viewBox="0 0 24 24" width="24" height="24"><path d="m15.5,2c-3.37,0-6.15,2.58-6.47,5.87-2.11.8-3.53,2.8-3.53,5.13,0,.04,0,.08,0,.12-2,.45-3.51,2.24-3.51,4.38,0,2.48,2.02,4.5,4.5,4.5,2.14,0,3.93-1.5,4.38-3.51.04,0,.08,0,.12,0,2.32,0,4.33-1.42,5.13-3.53,3.29-.32,5.87-3.1,5.87-6.47,0-3.58-2.92-6.5-6.5-6.5ZM6.5,20c-1.38,0-2.5-1.12-2.5-2.5,0-1.17.81-2.15,1.9-2.43.01.04.04.07.05.1.11.26.24.51.39.75.05.08.09.15.15.22.18.26.37.5.59.72.02.02.03.03.05.05.22.21.46.4.71.58.08.06.17.11.25.16.22.13.44.25.68.36.05.02.1.06.15.08-.27,1.09-1.26,1.9-2.43,1.9Zm3.72-3.58c-.16-.04-.32-.09-.48-.15-1.08-.41-1.88-1.33-2.15-2.47-.06-.28-.09-.54-.09-.79,0-1.26.65-2.38,1.68-2.99,0,.02.01.04.02.06.06.24.13.48.22.71.02.06.05.12.07.18.1.25.21.49.34.72,0,0,.01.02.02.03.13.22.27.44.42.64.04.05.07.1.11.15.33.42.7.79,1.12,1.12.05.04.1.07.15.11.21.15.42.3.65.42,0,0,.01,0,.02.01.23.13.48.24.73.34.06.02.12.05.18.07.23.08.46.16.7.22.02,0,.04.02.07.02-.75,1.24-2.25,1.92-3.78,1.59Zm5.31-3.42s-.08,0-.12,0c-2.42-.04-4.36-1.97-4.4-4.4,0-.04,0-.08,0-.12.02-2.47,2.03-4.47,4.5-4.47s4.5,2.02,4.5,4.5-2,4.48-4.47,4.5Z"/></svg>