<svg xmlns="http://www.w3.org/2000/svg" viewBox="0 0 24 24" width="24" height="24"><path d="M13.08 13.63 12 11.44 10.92 13.63 8.5 13.98 10.25 15.69 9.84 18.1 12 16.96 14.16 18.1 13.75 15.69 15.5 13.98 13.08 13.63z"/><path d="m17,2H7c-.55,0-1,.45-1,1v8.41c-.63,1.05-1,2.28-1,3.59,0,3.86,3.14,7,7,7s7-3.14,7-7c0-1.31-.37-2.54-1-3.59V3c0-.55-.45-1-1-1Zm-1,7.26c-.88-.61-1.9-1.02-3-1.18v-4.08h3v5.26Zm-5-5.26v4.08c-1.1.16-2.12.57-3,1.18v-5.26h3Zm1,16c-2.76,0-5-2.24-5-5s2.24-5,5-5,5,2.24,5,5-2.24,5-5,5Z"/></svg>