<svg xmlns="http://www.w3.org/2000/svg" viewBox="0 0 24 24" width="24" height="24"><path d="m21,8.59l-5.59-5.59c-.78-.78-2.05-.78-2.83,0L3,12.59c-.78.78-.78,2.05,0,2.83l5.59,5.59c.39.39.9.58,1.41.58s1.02-.19,1.41-.58l9.59-9.59c.78-.78.78-2.05,0-2.83Zm-11.29,7.12c-.39.39-1.02.39-1.41,0-.39-.39-.39-1.02,0-1.41.39-.39,1.02-.39,1.41,0,.39.39.39,1.02,0,1.41Z"/><path d="M14.29 20.29 15 21 15.71 21.71 18.71 18.71 21.71 15.71 21 15 20.29 14.29 17.29 17.29 14.29 20.29z"/><path d="M9.71 3.71 9 3 8.29 2.29 5.29 5.29 2.29 8.29 3 9 3.71 9.71 6.71 6.71 9.71 3.71z"/></svg>