<svg xmlns="http://www.w3.org/2000/svg" viewBox="0 0 24 24" width="24" height="24"><path d="M18 3A3 3 0 1 0 18 9 3 3 0 1 0 18 3z"/><path d="m19.87,10.63c.08.45.13.9.13,1.37,0,4.41-3.59,8-8,8h-7.09l1.09-1.57c.26-.37.23-.88-.06-1.22-1.25-1.45-1.93-3.3-1.93-5.21,0-4.41,3.59-8,8-8,.47,0,.92.05,1.37.13.28-.68.7-1.28,1.23-1.77-.83-.22-1.7-.36-2.6-.36C6.49,2,2,6.49,2,12c0,2.12.68,4.19,1.93,5.9l-1.75,2.53c-.21.31-.24.7-.06,1.03.17.33.51.54.89.54h9c5.51,0,10-4.49,10-10,0-.9-.13-1.77-.36-2.6-.49.53-1.09.95-1.77,1.23Z"/></svg>