<svg xmlns="http://www.w3.org/2000/svg" viewBox="0 0 24 24" width="24" height="24"><path d="M11 19H13V22H11z"/><path d="M11 2H13V5H11z"/><path d="M2 11H5V13H2z"/><path d="M19 11H22V13H19z"/><path d="M6.34 16.24 5.28 17.3 4.22 18.36 4.93 19.07 5.64 19.78 6.7 18.72 7.76 17.66 7.05 16.95 6.34 16.24z"/><path d="M17.66 7.76 18.72 6.7 19.78 5.64 19.07 4.93 18.36 4.22 17.3 5.28 16.24 6.34 16.95 7.05 17.66 7.76z"/><path d="M6.34 7.76 7.05 7.05 7.76 6.34 6.7 5.28 5.64 4.22 4.93 4.93 4.22 5.64 5.28 6.7 6.34 7.76z"/><path d="M17.66 16.24 16.95 16.95 16.24 17.66 17.3 18.72 18.36 19.78 19.07 19.07 19.78 18.36 18.72 17.3 17.66 16.24z"/><path d="m12,7c-.2,0-.4.04-.59.06h-.01s0,0,0,0c-2.47.3-4.39,2.39-4.39,4.94,0,2.76,2.24,5,5,5s5-2.24,5-5-2.24-5-5-5Zm0,8c-1.65,0-3-1.35-3-3,0-1.31.85-2.41,2.02-2.82.02.61.14,1.2.38,1.77.25.6.61,1.13,1.07,1.59.46.46.99.82,1.59,1.07.13.05.26.08.39.12-.54.77-1.43,1.27-2.44,1.27Z"/></svg>