<svg xmlns="http://www.w3.org/2000/svg" viewBox="0 0 24 24" width="24" height="24"><path d="m16,14.97c.62-.83,1-1.85,1-2.97,0-2.76-2.24-5-5-5s-5,2.24-5,5,2.24,5,5,5c1.63,0,3.06-.79,3.98-2,0,0,.02,0,.02,0v-.03Zm-1-2.97c0,.27-.05.53-.12.78-.02,0-.03,0-.05-.02-.36-.15-.68-.37-.95-.64-.28-.28-.49-.6-.64-.96-.16-.37-.24-.76-.24-1.17,0-.27.05-.53.12-.78,1.1.44,1.88,1.52,1.88,2.78Zm-6,0c0-1.33.88-2.45,2.08-2.84-.05.28-.08.56-.08.84,0,.67.13,1.33.39,1.95.25.59.61,1.13,1.07,1.59.37.37.81.66,1.27.9-.49.35-1.09.56-1.74.56-1.65,0-3-1.35-3-3Z"/><path d="M11 19H13V22H11z"/><path d="M11 2H13V5H11z"/><path d="M2 11H5V13H2z"/><path d="M19 11H22V13H19z"/><path d="M6.34 16.24 5.28 17.3 4.22 18.36 4.93 19.07 5.64 19.78 6.7 18.72 7.76 17.66 7.05 16.95 6.34 16.24z"/><path d="M17.66 7.76 18.72 6.7 19.78 5.64 19.07 4.93 18.36 4.22 17.3 5.28 16.24 6.34 16.95 7.05 17.66 7.76z"/><path d="M6.34 7.76 7.05 7.05 7.76 6.34 6.7 5.28 5.64 4.22 4.93 4.93 4.22 5.64 5.28 6.7 6.34 7.76z"/><path d="M17.66 16.24 16.95 16.95 16.24 17.66 17.3 18.72 18.36 19.78 19.07 19.07 19.78 18.36 18.72 17.3 17.66 16.24z"/></svg>