<svg xmlns="http://www.w3.org/2000/svg" viewBox="0 0 24 24" width="24" height="24"><path d="M10 10A1 1 0 1 0 10 12 1 1 0 1 0 10 10z"/><path d="M14 10A1 1 0 1 0 14 12 1 1 0 1 0 14 10z"/><path d="m9,15c0,4.92-5.76,5-6,5v2c2.77,0,8-1.46,8-7v-1h-2v1Z"/><path d="m15,15v-1h-2v1c0,2.88,1.42,5.02,4.11,6.17,1.92.82,3.81.83,3.89.83v-2c-.24,0-6-.08-6-5Z"/><path d="m20,15c0,.55-.45,1-1,1s-1-.45-1-1c0-1.48.35-2.89.62-4.02.07-.3.14-.59.2-.85.23-1.06.19-2.17-.14-3.21-.92-2.94-3.6-4.92-6.69-4.92s-5.77,1.98-6.69,4.92c-.32,1.04-.37,2.15-.14,3.21.06.26.13.54.2.85.28,1.13.62,2.54.62,4.02,0,.55-.45,1-1,1s-1-.45-1-1v-1h-2v1c0,1.65,1.35,3,3,3s3-1.35,3-3-.38-3.26-.68-4.5c-.07-.29-.14-.56-.19-.8-.16-.72-.13-1.48.1-2.19.65-2.1,2.57-3.51,4.78-3.51s4.12,1.41,4.78,3.51c.22.71.25,1.47.1,2.19-.05.25-.12.51-.19.8-.3,1.24-.68,2.78-.68,4.5s1.35,3,3,3,3-1.35,3-3v-1h-2v1Z"/></svg>