<svg xmlns="http://www.w3.org/2000/svg" viewBox="0 0 24 24" width="24" height="24"><path d="m3,13h18c.55,0,1-.45,1-1v-2c0-.55-.45-1-1-1h-8v-2.39c.78-.1,1.77-.36,2.53-1.02,1.46-1.28,1.47-3.57,1.47-3.57,0,0-2.35-.21-3.81,1.07-.79.69-1.15,1.67-1.32,2.43-.12-.57-.36-1.24-.87-1.74-1.1-1.06-3-.94-3-.94,0,0-.12,1.85.97,2.91.58.57,1.39.79,2.02.89v2.38H3c-.55,0-1,.45-1,1v2c0,.55.45,1,1,1Z"/><path d="m4.04,14.27l2,7c.12.43.52.73.96.73h10c.45,0,.84-.3.96-.73l2-7c.03-.09.01-.18.01-.27H4.03c0,.09-.01.18.01.27Z"/></svg>