<svg xmlns="http://www.w3.org/2000/svg" viewBox="0 0 24 24" width="24" height="24"><path d="m19.17,5.11c-.34-.68-1.03-1.11-1.79-1.11h-4.38c-.55,0-1,.45-1,1v5H3c-.55,0-1,.45-1,1v4c0,1.1.9,2,2,2,0,1.65,1.35,3,3,3s3-1.35,3-3h4c0,1.65,1.35,3,3,3s3-1.35,3-3c1.1,0,2-.9,2-2v-3.76c0-.31-.07-.62-.21-.89l-2.62-5.24Zm-5.17.89h3.38l2,4h-5.38v-4Zm-7,12c-.55,0-1-.45-1-1,0-.17.05-.35.13-.5.36-.62,1.33-.63,1.72-.02,0,0,.01.02.02.03.09.15.13.32.13.49,0,.55-.45,1-1,1Zm10,0c-.55,0-1-.45-1-1,0-.17.05-.35.13-.5.36-.62,1.33-.63,1.72-.02,0,0,.01.02.02.03.09.15.13.32.13.49,0,.55-.45,1-1,1Z"/></svg>