<svg xmlns="http://www.w3.org/2000/svg" viewBox="0 0 24 24" width="24" height="24"><path d="m20,2H4c-.55,0-1,.45-1,1v18c0,.55.45,1,1,1h5c.43,0,.81-.28.95-.68l2.05-6.15,2.05,6.15c.14.41.52.68.95.68h5c.55,0,1-.45,1-1V3c0-.55-.45-1-1-1Zm-15,2h14v2H5v-2Zm14,4v2.34c-1.12-.34-2-1.22-2.34-2.34h2.34Zm-11.66,0c-.34,1.12-1.22,2-2.34,2.34v-2.34h2.34Zm8.38,12l-2.77-8.32c-.14-.41-.52-.68-.95-.68s-.81.28-.95.68l-2.77,8.32h-3.28v-7.6c2.23-.41,3.99-2.17,4.4-4.4h5.19c.41,2.23,2.17,3.99,4.4,4.4v7.6h-3.28Z"/></svg>