<svg xmlns="http://www.w3.org/2000/svg" viewBox="0 0 24 24" width="24" height="24"><path d="m12,2v2c4.41,0,8,3.59,8,8s-3.59,8-8,8v2c5.51,0,10-4.49,10-10S17.51,2,12,2Z"/><path d="M16 12 9 8 9 16 16 12z"/><path d="m10.22,4.21l-.44-1.95c-1.64.37-3.18,1.17-4.44,2.3l1.33,1.49c1.01-.9,2.24-1.54,3.55-1.84Z"/><path d="m4.05,12.87l-1.99.21c.18,1.68.79,3.3,1.77,4.68l1.63-1.16c-.78-1.1-1.27-2.4-1.42-3.74Z"/><path d="m5.3,19.42c1.26,1.13,2.79,1.93,4.43,2.31l.45-1.95c-1.31-.3-2.54-.94-3.55-1.85l-1.34,1.49Z"/><path d="m5.48,7.36l-1.63-1.16c-.98,1.38-1.6,2.99-1.79,4.67l1.99.22c.15-1.34.65-2.63,1.43-3.73Z"/></svg>