<svg xmlns="http://www.w3.org/2000/svg" viewBox="0 0 24 24" width="24" height="24"><path d="m21.93,7.67c-.02-.06-.04-.11-.07-.17-.02-.03-.04-.05-.06-.08-.03-.04-.06-.09-.1-.13-.03-.03-.06-.04-.08-.07-.04-.03-.07-.06-.11-.09,0,0,0,0-.01,0,0,0,0,0,0,0L12.49,2.13c-.3-.17-.67-.17-.97,0L2.51,7.13s0,0,0,0c0,0,0,0-.01,0-.04.02-.08.06-.11.09-.03.02-.06.04-.08.07-.04.04-.07.08-.1.13-.02.03-.04.05-.06.08-.03.05-.05.11-.07.17,0,.02-.02.05-.03.07-.02.08-.04.17-.04.26v8c0,.36.2.7.51.87l9,5s.1.04.14.06c.03.01.06.03.09.03.08.02.17.03.25.03s.17-.01.25-.03c.03,0,.06-.02.09-.03.05-.02.1-.03.14-.06l9-5c.32-.18.51-.51.51-.87v-8c0-.09-.01-.18-.04-.26,0-.03-.02-.05-.03-.07Zm-9.93-3.52l6.94,3.86-2.44,1.36-6.94-3.86,2.44-1.36Zm-4.5,2.5l6.94,3.86-2.44,1.36-6.94-3.86,2.44-1.36Zm12.5,8.77l-7,3.89v-5.71l2.5-1.39v3.21l2-1.11v-3.21l2.5-1.39v5.71Z"/></svg>