<svg xmlns="http://www.w3.org/2000/svg" viewBox="0 0 24 24" width="24" height="24"><path d="m19,8.54v-1.54c0-1.1-.9-2-2-2h-2.55c-.3,0-.58.13-.77.37s-.27.54-.21.83c.05.27.04.54-.05.81-.15.46-.56.83-1.03.94-.48.12-.94.02-1.32-.27-.36-.29-.57-.72-.57-1.18,0-.1.01-.2.03-.3.06-.29-.02-.6-.21-.83-.19-.23-.47-.37-.77-.37h-2.55c-1.1,0-2,.9-2,2v1.54c-.22.03-.43.08-.64.15-1.11.37-1.98,1.31-2.25,2.45-.26,1.07-.02,2.17.64,3.02.56.72,1.37,1.18,2.25,1.3v1.54c0,1.1.9,2,2,2h2.55c.3,0,.58-.13.77-.37s.27-.54.21-.83c-.02-.1-.03-.2-.03-.3,0-.46.21-.89.57-1.18.37-.29.84-.39,1.32-.27.47.11.87.48,1.02.94.09.27.11.54.06.81-.06.29.02.6.21.83s.47.37.77.37h2.55c1.1,0,2-.9,2-2v-1.54c.22-.03.43-.08.64-.15,1.11-.37,1.98-1.31,2.25-2.45.26-1.07.02-2.17-.64-3.02-.56-.72-1.37-1.18-2.25-1.3Zm.95,3.85c-.11.47-.48.87-.94,1.03-.27.09-.54.11-.81.05-.29-.06-.6.02-.83.21-.23.19-.37.47-.37.77v2.55h-1.54c-.03-.21-.08-.43-.15-.64-.37-1.11-1.31-1.98-2.45-2.25-1.07-.26-2.17-.03-3.02.64-.72.56-1.18,1.37-1.3,2.25h-1.54v-2.55c0-.3-.14-.58-.37-.78-.23-.19-.54-.27-.83-.2-.55.12-1.13-.1-1.48-.54-.29-.37-.39-.84-.27-1.32.11-.47.48-.87.94-1.03.27-.09.54-.11.81-.05.3.06.6-.02.83-.21.23-.19.37-.47.37-.77v-2.55h1.54c.13.89.58,1.69,1.3,2.25.85.67,1.95.9,3.02.64,1.14-.28,2.08-1.14,2.45-2.25.07-.21.12-.43.15-.64h1.54v2.55c0,.3.14.58.37.78.23.19.54.26.83.2.55-.12,1.13.1,1.48.54.29.37.39.84.27,1.32Z"/></svg>