<svg xmlns="http://www.w3.org/2000/svg" viewBox="0 0 24 24" width="24" height="24"><path d="m11.9,18.99l-5.89-3.4c-.07-.04-.12-.12-.12-.21v-5.25c0-.09.1-.15.18-.1l6.84,3.95c.09.06.22-.01.22-.12v-2.56c0-.1-.06-.2-.14-.25L4.74,6.29c-.07-.04-.17-.04-.24,0l-1.08.62c-.07.04-.12.12-.12.21v9.76c0,.09.05.16.12.21l8.45,4.88c.07.04.17.04.24,0l7.1-4.1c.09-.06.09-.19,0-.25l-2.21-1.28c-.09-.05-.2-.05-.29,0l-4.58,2.65c-.07.04-.17.04-.24,0h0Z"/><path d="m20.57,6.91L12.12,2.03c-.07-.04-.17-.04-.24,0l-4.47,2.58c-.09.06-.09.19,0,.25l2.19,1.27c.09.05.2.05.29,0l2-1.15c.07-.04.17-.04.24,0l5.89,3.4c.07.04.12.12.12.21v5.28c0,.1.06.2.14.25l2.19,1.27c.09.06.22-.01.22-.12V7.12c0-.08-.05-.16-.12-.21h0Z"/></svg>