<svg xmlns="http://www.w3.org/2000/svg" viewBox="0 0 24 24" width="24" height="24"><path d="m19.85,8.14l-.46-2.32c-.33-1.63-1.77-2.81-3.43-2.81s-3,1.09-3.39,2.65l-3.05,12.21c-.17.67-.76,1.14-1.45,1.14s-1.33-.51-1.47-1.21l-.41-2.03c1.07-.46,1.83-1.52,1.83-2.76,0-1.65-1.35-3-3-3s-3,1.35-3,3c0,1.36.91,2.5,2.15,2.86l.46,2.32c.33,1.63,1.77,2.81,3.43,2.81s3-1.09,3.39-2.65l3.05-12.21c.17-.67.76-1.14,1.45-1.14s1.33.51,1.47,1.21l.41,2.03c-1.07.46-1.83,1.52-1.83,2.76,0,1.65,1.35,3,3,3s3-1.35,3-3c0-1.36-.91-2.5-2.15-2.86Zm-14.85,3.86c.55,0,1,.45,1,1s-.45,1-1,1-1-.45-1-1,.45-1,1-1Zm14,0c-.55,0-1-.45-1-1s.45-1,1-1,1,.45,1,1-.45,1-1,1Z"/></svg>