<svg xmlns="http://www.w3.org/2000/svg" viewBox="0 0 24 24" width="24" height="24"><path d="m19.1,2.8c-.38-.5-.97-.8-1.6-.8H6.5c-.63,0-1.23.3-1.6.8l-2.7,3.6c-.13.17-.2.38-.2.6v1c0,1.04.41,1.98,1.06,2.69-.03.1-.06.2-.06.31v9c0,1.1.9,2,2,2h14c1.1,0,2-.9,2-2v-9c0-.11-.03-.21-.06-.31.65-.71,1.06-1.65,1.06-2.69v-1c0-.22-.07-.43-.2-.6l-2.7-3.6Zm-1.6,1.2l2.5,3.33v.67c0,1.1-.9,2-2,2s-2-.9-2-2v-1c0-.08-.01-.16-.03-.24l-.69-2.76h2.22Zm-6.72,0h2.44l.78,3.12v.88c0,1.1-.9,2-2,2s-2-.9-2-2v-.88l.78-3.12Zm-6.78,3.33l2.5-3.33h2.22l-.69,2.76c-.02.08-.03.16-.03.24v1c0,1.1-.9,2-2,2s-2-.9-2-2v-.67Zm1,12.67v-8.14c.32.08.65.14,1,.14,1.2,0,2.27-.54,3-1.38.73.84,1.8,1.38,3,1.38s2.27-.54,3-1.38c.73.84,1.8,1.38,3,1.38.35,0,.68-.06,1-.14v8.14H5Z"/><path d="M13 13 11 13 11 15 9 15 9 17 11 17 11 19 13 19 13 17 15 17 15 15 13 15 13 13z"/></svg>