<svg xmlns="http://www.w3.org/2000/svg" viewBox="0 0 24 24" width="24" height="24"><path d="m12,2C6.49,2,2,6.49,2,12s4.49,10,10,10,10-4.49,10-10S17.51,2,12,2Zm-2.99,17.41c.03-2.58.67-5.13,1.87-7.41h2.24c1.2,2.28,1.84,4.83,1.87,7.41-.93.38-1.94.59-2.99.59s-2.07-.21-2.99-.59Zm7.94-1.14c-.2-2.73-1-5.39-2.36-7.77-.18-.31-.51-.5-.87-.5h-.4l-.97-2.59c-.12-.31-.56-.31-.68,0l-.97,2.59h-.4c-.36,0-.69.19-.87.5-1.36,2.38-2.17,5.04-2.36,7.77-1.86-1.47-3.05-3.73-3.05-6.27,0-4.41,3.59-8,8-8s8,3.59,8,8c0,2.54-1.2,4.81-3.05,6.27Z"/></svg>