<svg xmlns="http://www.w3.org/2000/svg" viewBox="0 0 24 24" width="24" height="24"><path d="m6.23,6.31c-.15-.26-.4-.44-.69-.49l-1.97-.35c-.31-.06-.63.04-.86.25-.23.21-.35.52-.31.83l.75,7.24c.05.44.38.8.82.88l13.79,2.43c.18.03.35.05.53.05.61,0,1.2-.19,1.71-.54.66-.46,1.09-1.15,1.23-1.94.29-1.63-.8-3.19-2.43-3.48h0l-1.96-.34-3.49-7.3c-.14-.29-.41-.5-.73-.55l-2.46-.43c-.32-.06-.65.04-.88.28-.23.23-.34.56-.28.88l1.01,5.93-2.08-.37-1.71-2.98Zm4.84,5.56c.32.06.65-.05.88-.28.23-.23.34-.56.28-.88l-1.01-5.93.56.1,3.49,7.3c.14.29.41.5.73.55l2.46.43c.54.1.91.62.81,1.16-.05.26-.19.49-.41.65-.22.15-.49.21-.75.17l-13.04-2.3-.54-5.17.2.04,1.71,2.98c.15.26.4.44.69.49l3.94.7Z"/><path d="M2 19H22V21H2z"/></svg>