<svg xmlns="http://www.w3.org/2000/svg" viewBox="0 0 24 24" width="24" height="24"><path d="m13.92,11.49c.05.16.08.33.08.51,0,1.08-.92,2-2,2s-2-.92-2-2,.92-2,2-2c.18,0,.34.03.51.08l2.29-2.29c-.79-.51-1.7-.79-2.65-.79-1.32,0-2.57.53-3.52,1.48s-1.48,2.21-1.48,3.52.53,2.56,1.48,3.52c.95.96,2.2,1.48,3.52,1.48s2.57-.53,3.52-1.48l1.41,1.41c-1.33,1.33-3.08,2.07-4.93,2.07s-3.6-.73-4.93-2.07c-1.33-1.33-2.07-3.08-2.07-4.93s.73-3.6,2.07-4.93c1.33-1.33,3.08-2.07,4.93-2.07,1.48,0,2.9.48,4.09,1.35l2.05-2.05c-1.73-1.43-3.93-2.3-6.29-2.3C6.58,2,2,6.58,2,12s4.58,10,10,10,10-4.58,10-10c0-2.36-.87-4.56-2.3-6.29l-5.78,5.78Z"/></svg>