<svg xmlns="http://www.w3.org/2000/svg" viewBox="0 0 24 24" width="24" height="24"><path d="M12 9A3 3 0 1 0 12 15 3 3 0 1 0 12 9z"/><path d="m17.37,19.29l-2.57-4.44c-.72.71-1.71,1.15-2.8,1.15s-2.08-.44-2.8-1.15l-2.57,4.44c-.28.48-.11,1.09.36,1.36,3.02,1.76,6.99,1.76,10.01,0,.48-.28.64-.89.36-1.36Z"/><path d="m3,13h5.14c-.08-.32-.14-.65-.14-1,0-1.84,1.25-3.37,2.94-3.84l-2.57-4.45c-.18-.32-.52-.5-.87-.5-.17,0-.34.04-.5.13-1.52.87-2.79,2.13-3.67,3.66-.88,1.53-1.34,3.26-1.34,5.01,0,.55.45,1,1,1Z"/><path d="m16,12c0,.35-.06.68-.14,1h5.14c.55,0,1-.44,1-.99,0-1.75-.45-3.48-1.34-5.01-.88-1.53-2.15-2.79-3.67-3.66-.16-.09-.33-.13-.5-.13-.35,0-.68.18-.87.5l-2.57,4.45c1.69.47,2.94,2,2.94,3.84Z"/></svg>