<svg xmlns="http://www.w3.org/2000/svg" viewBox="0 0 24 24" width="24" height="24"><path d="m19,20H5V4h5v-2h-5c-1.1,0-2,.9-2,2v16c0,1.1.9,2,2,2h14c1.1,0,2-.9,2-2v-7h-2v7Z"/><path d="M12 10A1 1 0 1 0 12 12 1 1 0 1 0 12 10z"/><path d="m15,11h2c0-2.76-2.24-5-5-5v2c1.65,0,3,1.35,3,3Z"/><path d="m12,2v2c3.86,0,7,3.14,7,7h2c0-4.96-4.04-9-9-9Z"/><path d="m9.27,16.21c.09-.14.14-.31.14-.5s-.05-.35-.14-.5c-.09-.14-.22-.26-.38-.34-.16-.08-.35-.12-.57-.12h-1.32v3.25h.72v-1.34h.08l.97,1.34h.86l-1.04-1.36c.11-.02.21-.05.31-.09.17-.08.29-.19.39-.33Zm-.7-.19c-.08.07-.19.11-.33.11h-.51v-.81h.52c.14,0,.25.04.33.11.08.08.11.17.11.29,0,.13-.04.23-.12.3Z"/><path d="M9.93 18 10.66 18 10.66 16.73 12.11 16.73 12.11 16.11 10.66 16.11 10.66 15.37 12.18 15.37 12.18 14.75 10.66 14.75 10.49 14.75 9.93 14.75 9.93 18z"/><path d="M12.65 14.75H13.370000000000001V18H12.65z"/><path d="m15.97,14.87c-.21-.08-.43-.12-.68-.12h-1.3v3.25h1.31c.24,0,.47-.04.67-.12.21-.08.39-.19.54-.34.15-.14.27-.32.36-.51.08-.2.13-.42.13-.65s-.04-.46-.13-.65c-.08-.2-.2-.37-.36-.51-.16-.15-.34-.26-.54-.34Zm.17,2.03c-.08.15-.19.26-.34.34-.15.08-.32.12-.52.12h-.57v-1.98h.57c.2,0,.37.04.51.12.15.08.26.19.34.34.08.15.12.32.12.53s-.04.38-.12.53Z"/></svg>