<svg xmlns="http://www.w3.org/2000/svg" viewBox="0 0 24 24" width="24" height="24"><path d="m19,2H5c-1.1,0-2,.9-2,2v16c0,1.1.9,2,2,2h14c1.1,0,2-.9,2-2V4c0-1.1-.9-2-2-2Zm-10.5,4c.83,0,1.5.67,1.5,1.5s-.67,1.5-1.5,1.5-1.5-.67-1.5-1.5.67-1.5,1.5-1.5Zm-3.5,7.5c.38,0,.52.1.82.31.41.29.96.69,1.98.69s1.58-.4,1.98-.69c.3-.21.44-.31.82-.31s.52.1.82.31c.41.29.96.69,1.98.69s1.58-.4,1.98-.69c.3-.22.44-.31.82-.31s.52.1.82.31c.41.29.96.69,1.98.69v2s0,0,0,0c-.38,0-.52-.1-.82-.31-.41-.29-.96-.69-1.98-.69s-1.58.4-1.98.69c-.3.22-.44.31-.82.31s-.52-.1-.82-.31c-.41-.29-.96-.69-1.98-.69s-1.58.4-1.98.69c-.3.21-.44.31-.82.31s-.52-.1-.82-.31c-.4-.29-.96-.69-1.98-.69v-2Zm0,6.5v-2.5c.38,0,.52.1.82.31.41.29.96.69,1.98.69s1.58-.4,1.98-.69c.3-.21.44-.31.82-.31s.52.1.82.31c.41.29.96.69,1.98.69s1.58-.4,1.98-.69c.3-.22.44-.31.82-.31s.52.1.82.31c.41.29.96.69,1.98.69h0s0,1.5,0,1.5H5Z"/></svg>