<svg xmlns="http://www.w3.org/2000/svg" viewBox="0 0 24 24" width="24" height="24"><path d="m2.01,11.89c.4.47,2.59,1.24,6.43,1.55-.02-.71-.03-1.23-.03-1.45,0-.87.05-6.5,1.31-9.73C5.34,3.3,2.06,7.21,2.01,11.89Z"/><path d="m12.11,2.01c-.6.51-1.7,3.93-1.7,9.99,0,.54.01,1.06.03,1.56.5.02,1.02.03,1.56.03,6.07,0,9.48-1.1,9.99-1.7-.06-5.43-4.46-9.83-9.89-9.89Z"/><path d="m2.27,14.28c.86,3.69,3.77,6.59,7.45,7.45-.69-1.77-1.02-4.25-1.17-6.28-2.03-.16-4.51-.48-6.28-1.17Z"/><path d="m10.55,15.56c.31,3.85,1.09,6.03,1.55,6.43,4.68-.05,8.6-3.33,9.62-7.72-3.23,1.26-8.86,1.31-9.73,1.31-.22,0-.74,0-1.45-.03Z"/></svg>