<svg xmlns="http://www.w3.org/2000/svg" viewBox="0 0 24 24" width="24" height="24"><path d="m21.11,11.11c.58-.93.89-2.01.89-3.13,0-1.6-.62-3.1-1.75-4.23s-2.63-1.75-4.23-1.75c-1.12,0-2.2.31-3.13.89l-.24-.24c-.39-.39-1.02-.39-1.41,0l-1.59,1.59c-.39.39-.39,1.02,0,1.41l.13.13-4,4-.13-.13c-.39-.39-1.02-.39-1.41,0l-1.59,1.59c-.39.39-.39,1.02,0,1.41l.24.24c-.58.93-.89,2.01-.89,3.13,0,1.6.62,3.1,1.75,4.23s2.63,1.75,4.23,1.75c1.12,0,2.2-.31,3.13-.89l.24.24c.39.39,1.02.39,1.41,0l1.59-1.59c.39-.39.39-1.02,0-1.41l-.13-.13,4-4,.13.13c.39.39,1.02.39,1.41,0l1.59-1.59c.39-.39.39-1.02,0-1.41l-.24-.24Zm-13.61,3.89c-.28,0-.5-.22-.5-.5s.22-.5.5-.5.5.22.5.5-.22.5-.5.5Zm1-2c0-.28.22-.5.5-.5s.5.22.5.5-.22.5-.5.5-.5-.22-.5-.5Zm1,4c-.28,0-.5-.22-.5-.5s.22-.5.5-.5.5.22.5.5-.22.5-.5.5Zm1.5-1.5c-.28,0-.5-.22-.5-.5s.22-.5.5-.5.5.22.5.5-.22.5-.5.5Zm3-7c-.28,0-.5-.22-.5-.5s.22-.5.5-.5.5.22.5.5-.22.5-.5.5Zm1-2c0-.28.22-.5.5-.5s.5.22.5.5-.22.5-.5.5-.5-.22-.5-.5Zm1,4c-.28,0-.5-.22-.5-.5s.22-.5.5-.5.5.22.5.5-.22.5-.5.5Zm1.5-1.5c-.28,0-.5-.22-.5-.5s.22-.5.5-.5.5.22.5.5-.22.5-.5.5Z"/></svg>