<svg xmlns="http://www.w3.org/2000/svg" viewBox="0 0 24 24" width="24" height="24"><path d="m12,7c-2.97,0-5.43,2.17-5.91,5H2v2h20v-2h-4.09c-.48-2.83-2.94-5-5.91-5Z"/><path d="M11 2H13V5H11z"/><path d="M17.29 5.29 16.29 6.29 17 7 17.71 7.71 18.71 6.71 19.71 5.71 19 5 18.29 4.29 17.29 5.29z"/><path d="M5 5 4.29 5.71 5.29 6.71 6.29 7.71 7 7 7.71 6.29 6.71 5.29 5.71 4.29 5 5z"/><path d="M16 16A1 1 0 1 0 16 18 1 1 0 1 0 16 16z"/><path d="M20 16A1 1 0 1 0 20 18 1 1 0 1 0 20 16z"/><path d="M16 19A1 1 0 1 0 16 21 1 1 0 1 0 16 19z"/><path d="M12 17A1 1 0 1 0 12 19 1 1 0 1 0 12 17z"/><path d="M12 20A1 1 0 1 0 12 22 1 1 0 1 0 12 20z"/><path d="M8 19A1 1 0 1 0 8 21 1 1 0 1 0 8 19z"/><path d="M8 16A1 1 0 1 0 8 18 1 1 0 1 0 8 16z"/><path d="M4 16A1 1 0 1 0 4 18 1 1 0 1 0 4 16z"/></svg>