<svg xmlns="http://www.w3.org/2000/svg" viewBox="0 0 24 24" width="24" height="24"><path class="b" d="m12,2C6.49,2,2,6.49,2,12s4.49,10,10,10,10-4.49,10-10S17.51,2,12,2Zm0,18c-4.41,0-8-3.59-8-8S7.59,4,12,4s8,3.59,8,8-3.59,8-8,8Z"/><path class="b" d="m16.24,7.76c-.36-.36-.77-.67-1.2-.92L6.83,15.04c.25.43.56.84.92,1.2.36.36.77.67,1.2.92l8.21-8.21c-.25-.43-.56-.84-.92-1.2Z"/><path class="b" d="m12,6c-1.6,0-3.11.62-4.24,1.76s-1.76,2.64-1.76,4.24c0,.33.03.65.08.97l6.88-6.88c-.32-.05-.64-.08-.97-.08Z"/><path class="b" d="m12,18c1.6,0,3.11-.62,4.24-1.76,1.13-1.13,1.76-2.64,1.76-4.24,0-.33-.03-.65-.08-.97l-6.88,6.88c.32.05.64.08.97.08Z"/></svg>