<svg xmlns="http://www.w3.org/2000/svg" viewBox="0 0 24 24" width="24" height="24"><path d="m21.88,10.48c.18-.32.16-.71-.04-1.02l-4.5-7c-.37-.57-1.31-.57-1.68,0l-4.5,7c-.2.31-.21.7-.04,1.02.18.32.51.52.88.52h9c.37,0,.7-.2.88-.52Zm-8.05-1.48l2.67-4.15,2.67,4.15h-5.34Z"/><path d="m17.5,13c-2.48,0-4.5,2.02-4.5,4.5s2.02,4.5,4.5,4.5,4.5-2.02,4.5-4.5-2.02-4.5-4.5-4.5Zm0,7c-1.38,0-2.5-1.12-2.5-2.5s1.12-2.5,2.5-2.5,2.5,1.12,2.5,2.5-1.12,2.5-2.5,2.5Z"/><path d="m10,13H3c-.55,0-1,.45-1,1v7c0,.55.45,1,1,1h7c.55,0,1-.45,1-1v-7c0-.55-.45-1-1-1Zm-1,7h-5v-5h5v5Z"/></svg>