<svg xmlns="http://www.w3.org/2000/svg" viewBox="0 0 24 24" width="24" height="24"><path d="m20,16.18v-3.18c0-1.1-.9-2-2-2h-5v-3.18c1.16-.41,2-1.51,2-2.82,0-1.65-1.35-3-3-3s-3,1.35-3,3c0,1.3.84,2.4,2,2.82v3.18h-5c-1.1,0-2,.9-2,2v3.18c-1.16.41-2,1.51-2,2.82,0,1.65,1.35,3,3,3s3-1.35,3-3c0-1.3-.84-2.4-2-2.82v-3.18h5v3.18c-1.16.41-2,1.51-2,2.82,0,1.65,1.35,3,3,3s3-1.35,3-3c0-1.3-.84-2.4-2-2.82v-3.18h5v3.18c-1.16.41-2,1.51-2,2.82,0,1.65,1.35,3,3,3s3-1.35,3-3c0-1.3-.84-2.4-2-2.82ZM12,6c-.55,0-1-.45-1-1s.45-1,1-1,1,.45,1,1-.45,1-1,1Z"/></svg>