<svg xmlns="http://www.w3.org/2000/svg" viewBox="0 0 24 24" width="24" height="24"><path d="m12,14c0,1.76-.41,2.59-.89,3.55-.52,1.04-1.11,2.21-1.11,4.45h2c0-1.76.41-2.59.89-3.55.52-1.04,1.11-2.21,1.11-4.45h-2Z"/><path d="m8,14c0,1.76-.41,2.59-.89,3.55-.52,1.04-1.11,2.21-1.11,4.45h2c0-1.76.41-2.59.89-3.55.52-1.04,1.11-2.21,1.11-4.45h-2Z"/><path d="m15.11,17.55c-.52,1.04-1.11,2.21-1.11,4.45h2c0-1.76.41-2.59.89-3.55.52-1.04,1.11-2.21,1.11-4.45h-2c0,1.76-.41,2.59-.89,3.55Z"/><path d="m5.84,10.48c.22.89,1.02,1.52,1.94,1.52h8.44c.92,0,1.72-.62,1.94-1.52l.87-3.48H4.97l.87,3.48Z"/><path d="m21,2H3c-.55,0-1,.45-1,1v2c0,.55.45,1,1,1h18c.55,0,1-.45,1-1v-2c0-.55-.45-1-1-1Z"/></svg>