<svg xmlns="http://www.w3.org/2000/svg" viewBox="0 0 24 24" width="24" height="24"><path d="m2,9.5c0,.86.15,1.71.44,2.53l1.88-.67c-.21-.6-.32-1.22-.32-1.86,0-.5.07-1,.2-1.47l-1.93-.54c-.18.65-.27,1.33-.27,2.01Z"/><path d="m15.16,4.58c-.34-.39-.73-.75-1.15-1.07-.82-.62-1.74-1.05-2.73-1.29l-.47,1.94c.73.18,1.4.5,2,.95.31.23.59.5.85.79l1.51-1.31Z"/><path d="m3.93,4.48l1.49,1.34c.76-.85,1.76-1.43,2.87-1.68l-.44-1.95c-1.52.34-2.88,1.14-3.92,2.29Z"/><path d="m21.85,12.99l-1.96.4c.07.37.11.74.11,1.11,0,.76-.15,1.5-.46,2.2l1.83.8c.42-.95.63-1.96.63-3,0-.51-.05-1.02-.15-1.51Z"/><path d="m7.39,12.11s0,.05-.02.07c-.11.32-.19.66-.25,1-.01.08-.03.16-.04.24-.05.32-.08.64-.08.97-.28-.14-.56-.3-.81-.5-.18-.14-.35-.28-.51-.44l-1.38,1.45c.22.21.44.4.69.58.69.52,1.47.91,2.29,1.16v.05s.66.13.66.13c.09.02.19.03.28.04.05,0,.1.03.15.03h0c.38.05.75.08,1.13.08.8,0,1.57-.13,2.29-.36h0s.04-.02.07-.02c.29-.1.58-.21.85-.35.09-.04.17-.08.25-.12.27-.14.53-.3.78-.47.09-.06.18-.13.27-.2.19-.14.37-.3.55-.46.07-.07.15-.13.22-.2.22-.22.43-.46.62-.71.03-.04.06-.07.09-.1h0c.42-.57.77-1.19,1.02-1.86h0c.03-.08.06-.17.08-.26.03-.08.06-.17.08-.25.04-.15.08-.3.11-.45.02-.08.04-.16.06-.25.03-.17.06-.34.08-.51,0-.07.02-.14.03-.21.02-.21.03-.41.03-.62.36.19.71.4,1.03.67.3.25.57.53.8.83l1.57-1.23c-.32-.41-.69-.79-1.09-1.13-.77-.64-1.65-1.12-2.6-1.41v-.04s-.65-.13-.65-.13c-.53-.11-1.04-.16-1.56-.16-.43,0-.86.04-1.27.12h0s-.05,0-.08.01c-.33.06-.66.14-.98.25-.07.02-.14.05-.21.08-.25.09-.5.2-.74.32-.08.04-.16.08-.24.12-.27.14-.53.31-.77.48-.09.07-.18.13-.27.2-.22.17-.44.35-.64.55-.03.03-.07.05-.1.08h0c-.81.81-1.43,1.81-1.8,2.92h0Zm7.58-3.09c.01.16.03.32.03.48,0,0,0,0,0,0,0,.3-.03.6-.08.89,0,.04-.01.09-.02.13-.05.28-.13.55-.23.82-.2.56-.49,1.07-.84,1.53-.14.18-.29.36-.45.52-.05.05-.11.1-.16.15-.13.12-.26.23-.39.33-.07.05-.13.1-.2.15-.18.12-.37.24-.57.34-.06.03-.13.06-.2.1-.19.09-.39.17-.6.24-.55.19-1.14.29-1.75.29-.16,0-.31,0-.46-.02-.01-.16-.03-.32-.04-.48,0,0,0,0,0,0,0-.26.03-.52.06-.78,0-.06.02-.12.03-.18.04-.25.1-.49.18-.73.28-.87.78-1.64,1.42-2.26.14-.14.29-.27.45-.39.07-.05.14-.11.21-.15.18-.13.37-.24.56-.35.06-.03.12-.06.19-.09.18-.09.36-.16.54-.23.05-.02.1-.04.15-.06.23-.08.48-.14.72-.18.32-.06.65-.09.99-.09.16,0,.31,0,.47.02Z"/><path d="m15.91,19.82l.51,1.93c1.51-.4,2.83-1.24,3.83-2.44l-1.53-1.28c-.73.88-1.71,1.5-2.81,1.79Z"/><path d="m10.49,18.26l-1.46,1.37c.21.22.42.43.66.62.95.8,2.09,1.35,3.3,1.6l.4-1.96c-.89-.18-1.72-.59-2.42-1.17-.17-.14-.33-.3-.49-.46Z"/></svg>