<svg xmlns="http://www.w3.org/2000/svg" viewBox="0 0 24 24" width="24" height="24"><path d="M11 2H13V5H11z"/><path d="M19 11H22V13H19z"/><path d="m17,12.76v-.76c0-2.76-2.24-5-5-5s-5,2.24-5,5H3c-.35,0-.67.18-.85.47s-.2.66-.04.97l4,8c.17.34.52.55.89.55h13c.35,0,.67-.18.85-.47s.2-.66.04-.97l-3.89-7.79Zm-1.62,1.24l1,2h-4.01l-1-2h4.01Zm-6.25,0l1,2h-4.51l-1-2h4.51Zm-2.51,4h4.51l1,2h-4.51l-1-2Zm7.75,2l-1-2h4.01l1,2h-4.01Z"/><path d="M16.24 6.34 16.95 7.05 17.66 7.76 18.72 6.7 19.78 5.64 19.07 4.93 18.36 4.22 17.3 5.28 16.24 6.34z"/><path d="M4.93 4.93 4.22 5.64 5.28 6.7 6.34 7.76 7.05 7.05 7.76 6.34 6.7 5.28 5.64 4.22 4.93 4.93z"/></svg>