<svg xmlns="http://www.w3.org/2000/svg" viewBox="0 0 24 24" width="24" height="24"><path d="m4,18.84v3.16h2v-3.16c1.44-.43,2.5-1.76,2.5-3.34s-1.06-2.9-2.5-3.34V2h-2v10.16c-1.44.43-2.5,1.76-2.5,3.34s1.06,2.9,2.5,3.34Z"/><path d="m20,12.16V2h-2v10.16c-1.44.43-2.5,1.76-2.5,3.34s1.06,2.9,2.5,3.34v3.16h2v-3.16c1.44-.43,2.5-1.76,2.5-3.34s-1.06-2.9-2.5-3.34Z"/><path d="m13,22v-11.16c1.44-.43,2.5-1.76,2.5-3.34s-1.06-2.9-2.5-3.34v-2.16h-2v2.16c-1.44.43-2.5,1.76-2.5,3.34s1.06,2.9,2.5,3.34v11.16h2Z"/></svg>