<svg xmlns="http://www.w3.org/2000/svg" viewBox="0 0 24 24" width="24" height="24"><path d="m16.68,7.32c-.95-3.12-3.87-5.32-7.18-5.32-4.14,0-7.5,3.36-7.5,7.5,0,3.3,2.2,6.22,5.32,7.18.95,3.12,3.87,5.32,7.18,5.32,4.14,0,7.5-3.36,7.5-7.5,0-3.3-2.2-6.23-5.32-7.18Zm-12.68,2.18c0-3.03,2.47-5.5,5.5-5.5,2.58,0,4.84,1.83,5.38,4.34.08.39.12.77.12,1.16,0,.2-.01.41-.04.61,0,.05-.01.09-.02.13-.02.16-.05.31-.08.47,0,.04-.02.07-.03.11-.04.17-.09.33-.15.5,0,.01,0,.03-.01.04-.82,2.26-3.1,3.83-5.64,3.63-.02,0-.04,0-.06,0-.21-.02-.42-.05-.63-.09-2.52-.54-4.35-2.8-4.35-5.38Z"/></svg>