<svg xmlns="http://www.w3.org/2000/svg" viewBox="0 0 24 24" width="24" height="24"><path d="m5,5h4v-2h-4c-1.1,0-2,.9-2,2v4h2v-4Z"/><path d="m5,21h4v-2h-4v-4h-2v4c0,1.1.9,2,2,2Z"/><path d="m21,15h-2v4h-4v2h4c1.1,0,2-.9,2-2v-4Z"/><path d="m21,5c0-1.1-.9-2-2-2h-4v2h4v4h2v-4Z"/><path d="m7,9.5v5c0,.38.21.72.55.89l4,2c.14.07.29.11.45.11s.31-.04.45-.11l4-2c.34-.17.55-.52.55-.89v-5c0-.38-.21-.72-.55-.89l-4-2c-.28-.14-.61-.14-.89,0l-4,2c-.34.17-.55.52-.55.89Zm2,1.62l2,1v2.76l-2-1v-2.76Zm4,3.76v-2.76l2-1v2.76l-2,1Zm.76-5.38l-1.76.88-1.76-.88,1.76-.88,1.76.88Z"/></svg>