<svg xmlns="http://www.w3.org/2000/svg" viewBox="0 0 24 24" width="24" height="24"><path d="m7.71,7.71c-2.79,2.79-4.78,5.94-5.45,8.63-.16.66.04,1.37.54,1.87l3.01,3.01c.38.38.9.59,1.42.59.15,0,.31-.02.46-.06,2.69-.67,5.83-2.66,8.63-5.45,5.11-5.11,7.11-10.81,4.66-13.25-2.45-2.45-8.15-.44-13.25,4.66Zm1.41,1.41c3.34-3.34,6.95-5.12,9.03-5.12.14,0,.28,0,.41.03l-13.57,13.57-.79-.78c.58-2.31,2.42-5.19,4.93-7.7Zm5.76,5.76c-2.51,2.51-5.38,4.35-7.67,4.92l-.8-.79,13.56-13.56c.26,2-1.51,5.86-5.09,9.44Z"/></svg>