<svg xmlns="http://www.w3.org/2000/svg" viewBox="0 0 24 24" width="24" height="24"><path d="m12.71,10.79l-4.5-4.5c-.39-.39-1.02-.39-1.41,0l-4.5,4.5c-.39.39-.39,1.02,0,1.41l4.5,4.5c.2.2.45.29.71.29s.51-.1.71-.29l4.5-4.5c.39-.39.39-1.02,0-1.41Z"/><path d="M17.25 12.5A4.75 4.75 0 1 0 17.25 22 4.75 4.75 0 1 0 17.25 12.5z"/><path d="m18.75,2c-.63,0-1.23.18-1.75.52-.52-.34-1.12-.52-1.75-.52-1.79,0-3.25,1.46-3.25,3.25,0,.77.29,1.53.87,2.19l3.44,3.28c.19.18.44.28.69.28s.5-.09.69-.28l3.5-3.35c.52-.6.8-1.35.8-2.13,0-1.79-1.46-3.25-3.25-3.25Z"/></svg>