<svg xmlns="http://www.w3.org/2000/svg" viewBox="0 0 24 24" width="24" height="24"><path d="m16.13,9.64c-.17-.95-1-1.64-1.97-1.64h-4.33c-.97,0-1.79.69-1.97,1.64l-1.7,9.36h-2.17v2h16v-2h-2.17l-1.7-9.36Zm-7.94,9.36l1.64-9h4.33l1.64,9h-7.6Z"/><path d="M11 4.5 11 6 12 6 13 6 13 4.5 13 3 12 3 11 3 11 4.5z"/><path d="M19 11 19 12 19 13 20.5 13 22 13 22 12 22 11 20.5 11 19 11z"/><path d="M5 12 5 11 3.5 11 2 11 2 12 2 13 3.5 13 5 13 5 12z"/><path d="M17.3 5.28 16.24 6.34 16.95 7.05 17.66 7.76 18.72 6.7 19.78 5.64 19.07 4.93 18.36 4.22 17.3 5.28z"/><path d="M5.64 4.22 4.93 4.93 4.22 5.64 5.28 6.7 6.34 7.76 7.05 7.05 7.76 6.34 6.7 5.28 5.64 4.22z"/></svg>