<svg xmlns="http://www.w3.org/2000/svg" viewBox="0 0 24 24" width="24" height="24"><path d="m21.8,6.4l-2.7-3.6c-.38-.5-.97-.8-1.6-.8H6.5c-.63,0-1.22.3-1.6.8l-2.7,3.6c-.13.17-.2.38-.2.6v1c0,1.01.39,1.91,1,2.62v9.38c0,1.1.9,2,2,2h14c1.1,0,2-.9,2-2v-9.38c.61-.7,1-1.61,1-2.62v-1c0-.22-.07-.43-.2-.6Zm-4.3-2.4l2.5,3.33v.67c0,1.1-.9,2-2,2s-2-.9-2-2v-1c0-.08,0-.16-.03-.24l-.69-2.76h2.22Zm-6.72,0h2.44l.78,3.12v.88c0,1.1-.9,2-2,2s-2-.9-2-2v-.88l.78-3.12Zm-6.78,3.33l2.5-3.33h2.22l-.69,2.76c-.02.08-.03.16-.03.24v1c0,1.1-.9,2-2,2s-2-.9-2-2v-.67Zm11,12.67h-6v-5c0-.55.45-1,1-1h4c.55,0,1,.45,1,1v5Z"/></svg>