<svg xmlns="http://www.w3.org/2000/svg" viewBox="0 0 24 24" width="24" height="24"><path d="m16.68,7.32c-.95-3.12-3.87-5.32-7.18-5.32-4.14,0-7.5,3.36-7.5,7.5,0,3.31,2.2,6.23,5.32,7.18.95,3.12,3.87,5.32,7.18,5.32,4.14,0,7.5-3.36,7.5-7.5,0-3.31-2.2-6.23-5.32-7.18Zm-2.18,12.68c-2.09,0-3.95-1.21-4.88-3.01.4,0,.79-.04,1.18-.11l-.35-1.97c-.47.08-.95.11-1.44.06-.01-.16-.02-.32-.02-.48,0-.32.03-.64.08-.96l-1.97-.34c-.07.39-.1.78-.11,1.18-1.8-.92-3.01-2.79-3.01-4.88,0-3.03,2.47-5.5,5.5-5.5,2.09,0,3.95,1.21,4.88,3.01-.4,0-.79.04-1.18.1l.35,1.97c.47-.08.96-.1,1.44-.06.01.16.02.32.02.48,0,.32-.03.64-.08.96l1.97.34c.07-.39.1-.78.11-1.18,1.8.92,3.01,2.79,3.01,4.88,0,3.03-2.47,5.5-5.5,5.5Z"/><path d="m7.94,10.85l1.75.97c.5-.89,1.23-1.63,2.13-2.13l-.98-1.75c-1.22.68-2.22,1.69-2.9,2.9Z"/><path d="m12.18,14.31l.98,1.75c1.22-.68,2.22-1.69,2.9-2.9l-1.75-.97c-.5.89-1.23,1.63-2.13,2.13Z"/></svg>