<svg xmlns="http://www.w3.org/2000/svg" viewBox="0 0 24 24" width="24" height="24"><path d="m20.39,2.21l-3.01,2.34c-1.55-1.54-3.56-2.44-5.66-2.54-2.15-.09-4.14.65-5.6,2.1-1.46,1.46-2.21,3.45-2.1,5.6.1,2.12,1.02,4.14,2.58,5.7.44.44.91.82,1.42,1.15v3.43h-3v2h8v-2h-3v-2.45c.74.25,1.5.4,2.29.44.13,0,.26,0,.39,0,2,0,3.84-.74,5.21-2.11,1.46-1.46,2.21-3.45,2.1-5.6-.07-1.48-.55-2.91-1.36-4.18l2.98-2.32-1.23-1.58Zm-2.39,8.17c.08,1.58-.46,3.04-1.52,4.09s-2.5,1.59-4.09,1.52c-1.62-.08-3.17-.78-4.38-1.99-1.21-1.21-1.91-2.76-1.99-4.38-.08-1.58.46-3.04,1.52-4.09.99-.99,2.33-1.53,3.8-1.53.1,0,.19,0,.29,0,1.52.07,2.99.71,4.16,1.79l-4.39,3.42,1.23,1.58,4.43-3.45c.56.93.89,1.97.94,3.04Z"/></svg>