<svg xmlns="http://www.w3.org/2000/svg" viewBox="0 0 24 24" width="24" height="24"><path d="m19,2H5c-1.1,0-2,.9-2,2v16c0,1.1.9,2,2,2h14c1.1,0,2-.9,2-2V4c0-1.1-.9-2-2-2ZM5,20v-2.5c.38,0,.52.1.82.31.41.29.96.69,1.98.69s1.58-.4,1.98-.69c.3-.21.44-.31.82-.31s.52.1.82.31c.41.29.96.69,1.98.69s1.58-.4,1.98-.69c.3-.22.44-.31.82-.31s.52.1.82.31c.41.29.96.69,1.98.69v-2c-.38,0-.52-.1-.82-.31-.41-.29-.96-.69-1.98-.69s-1.58.4-1.98.69c-.3.22-.44.31-.82.31s-.52-.1-.82-.31c-.41-.29-.96-.69-1.98-.69s-1.58.4-1.98.69c-.3.21-.44.31-.82.31s-.52-.1-.82-.31c-.41-.29-.96-.69-1.98-.69v-2c.38,0,.52.1.82.31.41.29.96.69,1.98.69s1.58-.4,1.98-.69c.3-.21.44-.31.82-.31s.52.1.82.31c.41.29.96.69,1.98.69s1.58-.4,1.98-.69c.3-.22.44-.31.82-.31s.52.1.82.31c.41.29.96.69,1.98.69v-2c-.38,0-.52-.1-.82-.31-.41-.29-.96-.69-1.98-.69s-1.58.4-1.98.69c-.3.22-.44.31-.82.31s-.52-.1-.82-.31c-.41-.29-.96-.69-1.98-.69s-1.58.4-1.98.69c-.3.22-.44.31-.82.31s-.52-.1-.82-.31c-.41-.29-.96-.69-1.98-.69v-7.5h14v16s-14,0-14,0Z"/><path d="M8.5 6A1.5 1.5 0 1 0 8.5 9 1.5 1.5 0 1 0 8.5 6z"/></svg>