<svg xmlns="http://www.w3.org/2000/svg" viewBox="0 0 24 24" width="24" height="24"><path d="m22,5l-5-2v4.42c-1.34-.24-2.75-.36-4-.4v-1.82l3-1.2-5-2v5.02c-1.25.04-2.66.16-4,.4v-1.22l3-1.2-5-2v4.89c-1.73.54-3,1.37-3,2.61v8c0,2.76,6.29,3.5,10,3.5s10-.74,10-3.5v-8c0-1.24-1.27-2.07-3-2.61v-1.69l3-1.2Zm-12,14.93v-1.93h4v1.93c-.62.04-1.28.07-2,.07s-1.38-.03-2-.07Zm6-.21v-2.72c0-.55-.45-1-1-1h-6c-.55,0-1,.45-1,1v2.72c-2.4-.35-3.76-.96-4-1.29v-5.69c2.16.95,5.61,1.26,8,1.26s5.84-.31,8-1.26v5.69c-.24.33-1.6.94-4,1.29Zm-4-7.72c-4.75,0-7.4-.99-7.94-1.5.54-.51,3.19-1.5,7.94-1.5s7.4.99,7.94,1.5c-.54.51-3.19,1.5-7.94,1.5Z"/></svg>