<svg xmlns="http://www.w3.org/2000/svg" viewBox="0 0 24 24" width="24" height="24"><path d="m3,19h1.05c.25,1.69,1.69,3,3.45,3s3.2-1.31,3.45-3h4.1c.25,1.69,1.69,3,3.45,3,1.93,0,3.5-1.57,3.5-3.5,0-1.24-.67-2.4-1.74-3.03-.03-.02-.07-.04-.1-.05-.4-.22-.84-.32-1.29-.37l-1.08-7.05h1.22c.55,0,1-.45,1-1v-2c0-.55-.45-1-1-1h-1.89c-.41-1.19-1.53-2-2.83-2h-2.28v2h2.28c.5,0,.91.36.99.85l1.62,10.54c-.46.24-.87.57-1.19,1-.14.19-.25.39-.36.6h-2.35v-8c0-.55-.45-1-1-1h-5c-2.76,0-5,2.24-5,5v5c0,.55.45,1,1,1Zm16.3-1.77c.43.28.7.76.7,1.27,0,.83-.67,1.5-1.5,1.5s-1.5-.67-1.5-1.5c0-.32.11-.64.3-.9.29-.38.73-.6,1.2-.6.26,0,.52.07.74.19.02.01.04.02.07.04Zm-11.8,2.77c-.83,0-1.5-.67-1.5-1.5,0-.11.01-.21.03-.29.05-.23.14-.45.27-.61.11-.15.25-.26.4-.36,0,0,.01,0,.02-.01.3-.18.65-.25.99-.21.02,0,.05,0,.07,0,.16.03.32.08.47.16.02.01.04.02.07.03.35.23.59.57.67.96.02.1.03.21.03.31,0,.83-.67,1.5-1.5,1.5Z"/></svg>