<svg xmlns="http://www.w3.org/2000/svg" viewBox="0 0 24 24" width="24" height="24"><path d="m20,2H4c-1.1,0-2,.9-2,2v4c0,1.04.41,1.98,1.06,2.69-.03.1-.06.2-.06.31v9c0,1.1.9,2,2,2h14c1.1,0,2-.9,2-2v-9c0-.11-.03-.21-.06-.31.65-.71,1.06-1.65,1.06-2.69v-4c0-1.1-.9-2-2-2Zm-4,2h4v4c0,1.1-.9,2-2,2s-2-.9-2-2v-4Zm-6,0h4v4c0,1.1-.9,2-2,2s-2-.9-2-2v-4Zm-6,0h4v4c0,1.1-.9,2-2,2s-2-.9-2-2v-4Zm6,16v-4h4v4h-4Zm6,0v-4c0-1.1-.9-2-2-2h-4c-1.1,0-2,.9-2,2v4h-3v-8.14c.32.08.65.14,1,.14,1.2,0,2.27-.54,3-1.38.73.84,1.8,1.38,3,1.38s2.27-.54,3-1.38c.73.84,1.8,1.38,3,1.38.35,0,.68-.06,1-.14v8.14h-3Z"/></svg>