<svg xmlns="http://www.w3.org/2000/svg" viewBox="0 0 24 24" width="24" height="24"><path d="M3 3H5V5H3z"/><path d="M3 7H5V9H3z"/><path d="M3 11H5V13H3z"/><path d="M3 15H5V17H3z"/><path d="M3 19H5V21H3z"/><path d="M7 3H9V5H7z"/><path d="M7 19H9V21H7z"/><path d="M11 3H13V5H11z"/><path d="M11 19H13V21H11z"/><path d="M15 3H17V5H15z"/><path d="M15 19H17V21H15z"/><path d="M19 3H21V5H19z"/><path d="M19 7H21V9H19z"/><path d="M19 11H21V13H19z"/><path d="M19 15H21V17H19z"/><path d="M19 19H21V21H19z"/><path d="m7,17h10V7H7v10Zm2-8h6v6h-6v-6Z"/></svg>