<svg xmlns="http://www.w3.org/2000/svg" viewBox="0 0 24 24" width="24" height="24"><path d="m12,7c-2.97,0-5.43,2.17-5.91,5H2v2h20v-2h-4.09c-.48-2.83-2.94-5-5.91-5Zm0,2c1.86,0,3.41,1.28,3.86,3h-7.72c.45-1.72,2-3,3.86-3Z"/><path d="M11 2H13V5H11z"/><path d="M18.29 4.29 17.29 5.29 16.29 6.29 17 7 17.71 7.71 18.71 6.71 19.71 5.71 19 5 18.29 4.29z"/><path d="M5.71 4.29 5 5 4.29 5.71 5.29 6.71 6.29 7.71 7 7 7.71 6.29 6.71 5.29 5.71 4.29z"/><path d="M3 22 5.24 22 8.24 16 6 16 3 22z"/><path d="M7 22 9.24 22 12.24 16 10 16 7 22z"/><path d="M11 22 13.24 22 16.24 16 14 16 11 22z"/><path d="M18 16 15 22 17.24 22 20.24 16 18 16z"/></svg>