<svg xmlns="http://www.w3.org/2000/svg" viewBox="0 0 24 24" width="24" height="24"><path d="m13.65,15.75c1.3-.86,2.28-2.08,2.85-3.54l-1.87-.72c-.41,1.07-1.13,1.96-2.09,2.6l1.1,1.67Z"/><path d="m5.02,12.69c-.66-.94-1.02-2.03-1.02-3.17H2c0,1.56.49,3.06,1.39,4.33l1.63-1.16Z"/><path d="m9.51,2c-.09,0-.19,0-.28,0l.07,2h.2c.68,0,1.35.12,1.99.37.36.14.7.32,1.02.52l1.09-1.68c-.44-.28-.9-.52-1.39-.71-.87-.34-1.78-.51-2.7-.51Z"/><path d="m5.92,2.91c-1.37.75-2.46,1.88-3.15,3.28l1.79.88c.5-1.02,1.3-1.85,2.31-2.4l-.95-1.76Z"/><path d="m16.66,7.32c-.17-.56-.4-1.1-.69-1.61l-1.73,1.01c.5.85.76,1.81.76,2.79,0,.15,0,.31-.02.46l1.99.17c.01-.17.02-.34.02-.51,1.79.93,3,2.79,3,4.88,0,3.03-2.47,5.5-5.5,5.5-2.09,0-3.95-1.21-4.88-3.01.27,0,.54-.02.81-.05l-.25-1.98c-.89.11-1.81,0-2.67-.33-.21-.08-.41-.17-.61-.28l-.94,1.77c.26.14.54.27.82.38.17.07.35.12.53.18.95,3.12,3.87,5.33,7.18,5.33,4.14,0,7.5-3.36,7.5-7.5,0-3.31-2.21-6.24-5.34-7.18Z"/></svg>