<svg xmlns="http://www.w3.org/2000/svg" viewBox="0 0 24 24" width="24" height="24"><path class="b" d="m12,2C6.49,2,2,6.49,2,12s4.49,10,10,10,10-4.49,10-10S17.51,2,12,2Zm0,2c3.71,0,6.82,2.54,7.73,5.97l-4.01-.5c-2.47-.31-4.97-.31-7.44,0l-4.01.5c.9-3.43,4.02-5.97,7.73-5.97Zm1.5,8c0,.83-.67,1.5-1.5,1.5s-1.5-.67-1.5-1.5.67-1.5,1.5-1.5,1.5.67,1.5,1.5Zm-9.5,0l1.67.28c2.58.43,4.58,2.48,4.95,5.07l.37,2.58c-3.93-.5-6.99-3.86-6.99-7.93Zm9.01,7.93l.37-2.58c.37-2.59,2.37-4.64,4.95-5.07l1.67-.28c0,4.07-3.05,7.43-6.99,7.93Z"/></svg>