<svg xmlns="http://www.w3.org/2000/svg" viewBox="0 0 24 24" width="24" height="24"><path d="m21.5,7h-.5v-1c0-2.21-1.79-4-4-4H7c-2.21,0-4,1.79-4,4v1h-.5c-.28,0-.5.22-.5.5v3c0,.28.22.5.5.5h.5v.59l-.12.12c-.57.57-.88,1.32-.88,2.12v4.17c0,.74.41,1.37,1,1.72v1.28c0,.55.45,1,1,1h1c.55,0,1-.45,1-1v-1h12v1c0,.55.45,1,1,1h1c.55,0,1-.45,1-1v-1.28c.59-.35,1-.98,1-1.72v-4.17c0-.8-.31-1.56-.88-2.12l-.12-.12v-.59h.5c.28,0,.5-.22.5-.5v-3c0-.28-.22-.5-.5-.5Zm-1.5,11v-4.17,4.17s0,0,0,0Zm-13.5-4c.83,0,1.5.67,1.5,1.5s-.67,1.5-1.5,1.5-1.5-.67-1.5-1.5.67-1.5,1.5-1.5Zm6.5-7h6v5h-6v-5Zm6,8.5c0,.83-.67,1.5-1.5,1.5s-1.5-.67-1.5-1.5.67-1.5,1.5-1.5,1.5.67,1.5,1.5ZM11,7v5h-6v-5h6Z"/></svg>