<svg xmlns="http://www.w3.org/2000/svg" viewBox="0 0 24 24" width="24" height="24"><path d="m16.72,7.33v-.04s-.05,0-.05,0c-.96-3.1-3.88-5.28-7.17-5.28-4.14,0-7.5,3.36-7.5,7.5,0,3.29,2.19,6.21,5.28,7.17v.04s.05,0,.05,0c.96,3.1,3.88,5.28,7.17,5.28,4.14,0,7.5-3.36,7.5-7.5,0-3.29-2.19-6.21-5.28-7.17Zm-7.68,6.56s.02-.1.02-.15c.02-.15.05-.3.08-.45,0-.04.02-.08.03-.12.04-.16.09-.32.14-.47,0-.02.02-.04.02-.07.83-2.25,3.1-3.81,5.64-3.61.01.16.02.32.02.48,0,.2-.01.41-.03.6,0,.05-.02.1-.02.15-.02.15-.05.3-.08.45,0,.04-.02.08-.03.12-.04.16-.08.32-.14.47,0,.02-.02.05-.02.07-.83,2.25-3.1,3.81-5.64,3.61-.01-.16-.02-.32-.02-.48,0-.2.01-.41.03-.6Z"/></svg>