<svg xmlns="http://www.w3.org/2000/svg" viewBox="0 0 24 24" width="24" height="24"><path d="m18.08,15.01h0s-.05,0-.08,0c-.19,0-.34.01-.48.03-.93.08-1.51.34-1.97.57-.46.23-.79.39-1.56.39s-1.09-.17-1.55-.39c-.54-.27-1.21-.61-2.45-.61s-1.91.34-2.45.61c-.46.23-.79.39-1.55.39s-1.09-.17-1.55-.39c-.54-.27-1.21-.61-2.45-.61v2c.76,0,1.09.17,1.55.39.54.27,1.21.61,2.45.61s1.91-.34,2.45-.61c.46-.23.79-.39,1.55-.39s1.09.17,1.55.39c.54.27,1.21.61,2.45.61s1.91-.34,2.45-.61c.46-.23.79-.39,1.56-.39s1.1.17,1.56.39c.54.27,1.21.61,2.45.61v-2c-.77,0-1.1-.17-1.56-.39-.53-.26-1.19-.58-2.37-.6Z"/><path d="m18,19c-1.24,0-1.91.34-2.45.61-.46.23-.79.39-1.56.39s-1.09-.17-1.55-.39c-.54-.27-1.21-.61-2.45-.61s-1.91.34-2.45.61c-.46.23-.79.39-1.55.39s-1.09-.17-1.55-.39c-.54-.27-1.21-.61-2.45-.61v2c.76,0,1.09.17,1.55.39.54.27,1.21.61,2.45.61s1.91-.34,2.45-.61c.46-.23.79-.39,1.55-.39s1.09.17,1.55.39c.54.27,1.21.61,2.45.61s1.91-.34,2.45-.61c.46-.23.79-.39,1.56-.39s1.1.17,1.56.39c.54.27,1.21.61,2.45.61v-2c-.77,0-1.1-.17-1.56-.39-.54-.27-1.21-.61-2.45-.61Z"/><path d="m5.51,13.97c.14.02.3.03.49.03.75,0,1.08-.16,1.53-.38l-1.21-3.02,5.69-2.03,5.69,2.03-1.03,2.58c.36-.1.79-.17,1.34-.17.32,0,.6.02.86.06l1.08-2.69c.1-.25.09-.54-.02-.78s-.32-.44-.58-.53l-1.34-.48v-4.58c0-.55-.45-1-1-1h-4v-1h-2v1h-4c-.55,0-1,.45-1,1v4.58l-1.34.48c-.26.09-.46.28-.58.53s-.12.53-.02.78l1.44,3.6Zm2.49-8.97h8v2.87l-3.66-1.31c-.22-.08-.46-.08-.67,0l-3.66,1.31v-2.87Z"/></svg>