<svg xmlns="http://www.w3.org/2000/svg" viewBox="0 0 24 24" width="24" height="24"><path d="m20.79,9.02c-.12.03-1.8.42-3.95,1.77-.32-1.57-1.28-4.5-4.11-7.49-.38-.4-1.07-.4-1.45,0-2.84,3-3.79,5.94-4.11,7.51-2.16-1.38-3.82-1.77-3.94-1.8-.3-.07-.61,0-.84.2-.24.19-.37.48-.37.78,0,7.29,3.93,12,10,12s10-4.82,10-12c0-.3-.14-.59-.37-.78-.24-.19-.54-.27-.84-.2Zm-11.79,3.02s.15-3.1,3-6.53c2.82,3.4,3,6.49,3,6.49v.12c-1,.83-2.03,1.86-3.01,3.15-.98-1.27-2.01-2.29-2.99-3.11v-.13Zm3,7.96c-5.32,0-7.55-4.2-7.94-8.56,1.66.72,4.62,2.43,7.11,6.12.19.28.51.42.84.44.33,0,.65-.17.83-.45,2.43-3.71,5.42-5.41,7.1-6.12-.4,4.23-2.63,8.57-7.93,8.57Z"/></svg>