<svg xmlns="http://www.w3.org/2000/svg" viewBox="0 0 24 24" width="24" height="24"><path d="m19,9c-1.3,0-2.4.84-2.82,2h-3.18V2h-2v3h-3.18c-.41-1.16-1.51-2-2.82-2-1.65,0-3,1.35-3,3s1.35,3,3,3c1.3,0,2.4-.84,2.82-2h3.18v10h-3.18c-.41-1.16-1.51-2-2.82-2-1.65,0-3,1.35-3,3s1.35,3,3,3c1.3,0,2.4-.84,2.82-2h3.18v3h2v-9h3.18c.41,1.16,1.51,2,2.82,2,1.65,0,3-1.35,3-3s-1.35-3-3-3Zm-14-2c-.55,0-1-.45-1-1s.45-1,1-1,1,.45,1,1-.45,1-1,1Zm0,12c-.55,0-1-.45-1-1s.45-1,1-1,1,.45,1,1-.45,1-1,1Zm14-6c-.55,0-1-.45-1-1s.45-1,1-1,1,.45,1,1-.45,1-1,1Z"/></svg>