<svg xmlns="http://www.w3.org/2000/svg" viewBox="0 0 24 24" width="24" height="24"><path d="m21,3h-2.42c-.94,0-1.87-.15-2.77-.45-1.1-.37-2.24-.55-3.4-.55h-5.59c-1.56,0-2.83,1.27-2.83,2.83,0,.46.11.9.31,1.28-.79.5-1.31,1.39-1.31,2.39,0,.46.11.9.31,1.28-.79.5-1.31,1.39-1.31,2.39,0,1.56,1.27,2.83,2.83,2.83h4.02c.32,0,.61.14.8.4.19.25.25.57.16.88l-.54,1.9c-.26.91-.08,1.87.49,2.63s1.44,1.19,2.4,1.19h1.35c.45,0,.84-.3.96-.73l1.15-4.01c.42-1.47,1.62-2.56,3.13-2.84l2.44-.44c.48-.09.82-.5.82-.98V4c0-.55-.45-1-1-1Zm-1,9.17l-1.62.29c-2.26.41-4.06,2.04-4.7,4.25l-.94,3.29h-.59c-.32,0-.61-.14-.8-.4-.19-.25-.25-.57-.16-.88l.54-1.9c.26-.91.08-1.87-.49-2.63s-1.44-1.19-2.4-1.19h-4.02c-.46,0-.83-.37-.83-.83s.37-.83.83-.83h1.17c.55,0,1-.45,1-1s-.45-1-1-1h-.17c-.46,0-.83-.37-.83-.83s.37-.83.83-.83h1.17c.55,0,1-.45,1-1s-.45-1-1-1h-.17c-.46,0-.83-.37-.83-.83s.37-.83.83-.83h5.59c.94,0,1.87.15,2.77.45,1.1.37,2.24.55,3.4.55h1.42v7.17Z"/></svg>