<svg xmlns="http://www.w3.org/2000/svg" viewBox="0 0 24 24" width="24" height="24"><path d="m19,3H5c-1.1,0-2,.9-2,2v14c0,1.1.9,2,2,2h14c1.1,0,2-.9,2-2V5c0-1.1-.9-2-2-2Zm-2,16v-2h-2v2h-2v-2h-2v2h-2v-2h-2v2h-2v-2h2v-2h-2v-2h2v-2h-2v-2h2v-2h-2v-2h2v2h2v-2h2v2h2v-2h2v2h2v-2h2v14s-2,0-2,0Z"/><path d="M7 9H9V11H7z"/><path d="M9 7H11V9H9z"/><path d="M11 9H13V11H11z"/><path d="M13 7H15V9H13z"/><path d="M17 7H19V9H17z"/><path d="M15 9H17V11H15z"/><path d="M7 13H9V15H7z"/><path d="M9 11H11V13H9z"/><path d="M11 13H13V15H11z"/><path d="M13 11H15V13H13z"/><path d="M17 11H19V13H17z"/><path d="M15 13H17V15H15z"/><path d="M9 15H11V17H9z"/><path d="M13 15H15V17H13z"/><path d="M17 15H19V17H17z"/></svg>