<svg xmlns="http://www.w3.org/2000/svg" viewBox="0 0 24 24" width="24" height="24"><path d="m21.8,14.55c-.83-5.03-4.03-8.55-7.8-8.55h-4c-4.11,0-7.53,4.22-7.96,9.83-.04.56.15,1.12.53,1.53.38.41.91.64,1.46.64h14.96v-.02c.82-.04,1.6-.41,2.13-1.04.57-.67.81-1.54.67-2.4Zm-10.8-2.05c.28,0,.5.22.5.5s-.22.5-.5.5-.5-.22-.5-.5.22-.5.5-.5Zm1-2c.28,0,.5.22.5.5s-.22.5-.5.5-.5-.22-.5-.5.22-.5.5-.5Zm2,2c.28,0,.5.22.5.5s-.22.5-.5.5-.5-.22-.5-.5.22-.5.5-.5Zm5.61,3.15c-.19.22-.46.35-.75.35-.5,0-.91-.39-.98-.92,0-.06-.02-.12-.03-.18-.02-.13-.04-.25-.06-.38-.04-.25-.09-.5-.14-.74-.01-.06-.03-.11-.04-.17-.53-2.28-1.57-4.21-2.93-5.56,2.44.43,4.55,3.16,5.15,6.81.06.38-.11.65-.22.78Z"/></svg>