<svg xmlns="http://www.w3.org/2000/svg" viewBox="0 0 24 24" width="24" height="24"><path d="m15,11.81v-7.81c0-1.65-1.35-3-3-3s-3,1.35-3,3v7.81c-2.16,1.25-3.34,3.73-2.91,6.25.41,2.38,2.27,4.32,4.63,4.81.42.09.85.13,1.27.13,1.38,0,2.71-.46,3.79-1.34,1.41-1.15,2.22-2.84,2.22-4.66,0-2.16-1.16-4.13-3-5.19Zm-.48,8.3c-.95.77-2.16,1.06-3.39.8-1.54-.32-2.8-1.63-3.06-3.19-.32-1.84.65-3.64,2.34-4.38.36-.16.6-.52.6-.92V4c0-.55.45-1,1-1s1,.45,1,1v8.42c0,.4.24.76.6.92,1.46.64,2.4,2.08,2.4,3.66,0,1.21-.54,2.34-1.48,3.11Z"/></svg>