<svg xmlns="http://www.w3.org/2000/svg" viewBox="0 0 24 24" width="24" height="24"><path d="m18.5,11h-1.5v-1c0-3.31-2.69-6-6-6s-6,2.69-6,6v1.05c-.75.11-1.44.43-1.98.97-.65.65-1.02,1.55-1.02,2.48,0,1.42.83,2.63,2.04,3.18-.01.11-.04.21-.04.32,0,1.65,1.35,3,3,3s3-1.35,3-3h4c0,1.65,1.35,3,3,3s3-1.35,3-3c0-.11-.03-.21-.04-.32.38-.17.72-.41,1.02-.71.65-.65,1.02-1.55,1.02-2.48,0-1.93-1.57-3.5-3.5-3.5Zm-11.5,8c-.55,0-1-.45-1-1,0-.15.04-.31.11-.45.01-.02.02-.03.03-.05.28-.47.91-.59,1.35-.35.15.08.28.2.37.36.09.15.13.32.13.49,0,.55-.45,1-1,1Zm3-8h-3v-1c0-1.86,1.28-3.41,3-3.86v4.86Zm5,0h-3v-4.86c1.72.45,3,2,3,3.86v1Zm2,8c-.55,0-1-.45-1-1,0-.17.05-.35.13-.5.37-.63,1.35-.64,1.73,0,.01.02.02.04.03.05.07.14.11.29.11.45,0,.55-.45,1-1,1Z"/></svg>