<svg xmlns="http://www.w3.org/2000/svg" viewBox="0 0 24 24" width="24" height="24"><path d="m5,10s3-1.81,3-5c0-1.65-1.35-3-3-3s-3,1.35-3,3c0,3.19,3,5,3,5Zm0-6.5c.83,0,1.5.67,1.5,1.5s-.67,1.5-1.5,1.5-1.5-.67-1.5-1.5.67-1.5,1.5-1.5Z"/><path d="m19,14c-1.65,0-3,1.35-3,3,0,3.19,3,5,3,5,0,0,3-1.81,3-5,0-1.65-1.35-3-3-3Zm0,4.5c-.83,0-1.5-.67-1.5-1.5s.67-1.5,1.5-1.5,1.5.67,1.5,1.5-.67,1.5-1.5,1.5Z"/><path d="m4,17.5c0-1.38,1.12-2.5,2.5-2.5h7c1.93,0,3.5-1.57,3.5-3.5s-1.57-3.5-3.5-3.5h-5.5v2h5.5c.83,0,1.5.67,1.5,1.5s-.67,1.5-1.5,1.5h-7c-2.48,0-4.5,2.02-4.5,4.5s2.02,4.5,4.5,4.5h9.5v-2H6.5c-1.38,0-2.5-1.12-2.5-2.5Z"/></svg>