<svg xmlns="http://www.w3.org/2000/svg" viewBox="0 0 24 24" width="24" height="24"><path d="m18,14c.38,0,.73-.21.89-.55s.13-.74-.09-1.05l-1.8-2.4c.39,0,.74-.22.91-.58.16-.35.11-.77-.14-1.06l-5-6c-.38-.46-1.16-.46-1.54,0l-5,6c-.25.3-.3.71-.14,1.06.16.35.52.58.91.58l-1.8,2.4c-.23.3-.26.71-.09,1.05s.52.55.89.55l-1.8,2.4c-.23.3-.26.71-.09,1.05s.52.55.89.55h6v4h2v-4h6c.38,0,.73-.21.89-.55s.13-.74-.09-1.05l-1.8-2.4Zm-11,2l1.8-2.4c.23-.3.26-.71.09-1.05s-.52-.55-.89-.55l1.8-2.4c.23-.3.26-.71.09-1.05-.15-.3-.44-.5-.77-.54l2.87-3.45,2.87,3.45c-.33.04-.62.25-.77.54-.17.34-.13.74.09,1.05l1.8,2.4c-.38,0-.73.21-.89.55s-.13.74.09,1.05l1.8,2.4H7Z"/></svg>