<svg xmlns="http://www.w3.org/2000/svg" viewBox="0 0 24 24" width="24" height="24"><path d="m3.5,8c.35,0,.66-.12.92-.32l.62.93c-1.77.91-2.99,2.76-2.99,4.89,0,3,2.44,5.46,5.45,5.5h7.76c2.73,0,5.14-1.55,6.13-3.95.48-1.15.67-2.38.58-3.64-.27-3.71-3.24-6.86-6.92-7.34-3.25-.42-6.39,1.15-7.99,3.95,0,0-.01,0-.02,0l-.82-1.22c.45-.26.76-.74.76-1.3,0-.83-.67-1.5-1.5-1.5-.69,0-1.27.47-1.44,1.11-.17-.07-.36-.11-.56-.11-.83,0-1.5.67-1.5,1.5s.67,1.5,1.5,1.5Zm4,2h0c1.93,0,3.5,1.57,3.5,3.5h2c0-2.4-1.55-4.44-3.7-5.19,1.29-1.64,3.35-2.53,5.5-2.26,2.75.36,4.98,2.72,5.18,5.5.07.95-.08,1.87-.43,2.73-.67,1.63-2.4,2.72-4.29,2.72h-7.75c-1.91-.02-3.46-1.59-3.46-3.5s1.57-3.5,3.43-3.5c0,0,.01,0,.02,0Z"/></svg>