<svg xmlns="http://www.w3.org/2000/svg" viewBox="0 0 24 24" width="24" height="24"><path d="m8.65,2l-6.65,3.85v8.8c0,4.05,3.25,7.35,7.3,7.35,1.35,0,2.6-.35,3.7-.95l5.4-3.1c2.15-1.15,3.6-3.35,3.6-5.95V2.8l-1.3-.75-5.7,3.05v9.6c0,.4-.05.8-.1,1.2-.1.4-.2.75-.35,1.1l-.15.3c-.2,0-1.45-.45-2.1-.9-.58-.38-1.07-.87-1.45-1.45-.2-.3-.35-.6-.5-.9-.15-.3-.25-.65-.3-1s-.05-.7-.05-1.05V2.8l-1.35-.8Zm3.25,18.1c-.35.15-.85.35-1.25.45s-.75.1-1.15.1-.8-.05-1.2-.15-.75-.2-1.1-.35-.7-.35-1-.55c-.69-.39-1.27-.94-1.7-1.6-.2-.3-.4-.65-.55-1-.15-.35-.25-.75-.35-1.15s-.1-.8-.1-1.2V6.6l5-3.05v8.45c0,3.2,2.35,5.9,5.35,6.55-.1.15-.2.3-.35.4-.55.55-1,.9-1.6,1.15Zm8.5-7c-.05.35-.2.7-.3,1-.15.3-.3.6-.5.9-.2.3-.8,1.05-1.6,1.5-.8.45-1.55.6-2,.7.3-.8.5-1.6.5-2.5V5.85l4-2.3v8.45c0,.4,0,.75-.1,1.1Z"/></svg>