<svg xmlns="http://www.w3.org/2000/svg" viewBox="0 0 24 24" width="24" height="24"><path d="m20,3h-4c-.55,0-1,.45-1,1v1h-6v-1c0-.55-.45-1-1-1h-4c-.55,0-1,.45-1,1v4c0,.55.45,1,1,1h1v6h-1c-.55,0-1,.45-1,1v4c0,.55.45,1,1,1h4c.55,0,1-.45,1-1v-1h6v1c0,.55.45,1,1,1h4c.55,0,1-.45,1-1v-4c0-.55-.45-1-1-1h-1v-6h1c.55,0,1-.45,1-1v-4c0-.55-.45-1-1-1Zm-15,2h2v2h-2v-2Zm2,14h-2v-2h2v2Zm12,0h-2v-2h2v2Zm-2-4h-1c-.55,0-1,.45-1,1v1h-6v-1c0-.55-.45-1-1-1h-1v-6h1c.55,0,1-.45,1-1v-1h6v1c0,.55.45,1,1,1h1v6Zm2-8h-2v-2h2v2Z"/></svg>