<svg xmlns="http://www.w3.org/2000/svg" viewBox="0 0 24 24" width="24" height="24"><path d="m8.06,12.3l-2.1-2.1c-.49.5-1.16.79-1.88.8h0c-.64,0-1.08.45-1.08,1s.45,1,1,1h.07c1.08,0,2.05.65,2.46,1.64l.02.05c.42,1,.19,2.16-.58,2.93l-.04.04c-.39.39-.39,1.02,0,1.41.39.39,1.02.39,1.41,0l.04-.04c.77-.77,1.92-1,2.93-.58l.14.06c.94.39,1.55,1.3,1.55,2.32v.09c0,.64.45,1.09,1,1.09s1-.45,1-1v-.17c0-.7.29-1.34.78-1.81l-6.08-6.08c-.3-.1-.54-.33-.63-.63Z"/><path d="m19.47,14.64c.4-.97,1.31-1.64,2.36-1.64h.08c.64,0,1.09-.45,1.09-1s-.45-1-1-1h-.17c-1.05,0-1.96-.67-2.36-1.64l-.02-.05c-.41-.98-.25-2.1.5-2.85l.12-.12c.39-.39.39-1.02,0-1.41s-1.02-.39-1.41,0l-.12.12c-.75.75-1.87.91-2.85.5l-.05-.02c-.97-.4-1.64-1.31-1.64-2.36v-.08c0-.64-.45-1.08-1-1.08s-1,.45-1,1v.04c0,1.1-.66,2.08-1.67,2.5h0c-1.01.42-2.18.19-2.95-.59l-.02-.03c-.32-.32-.79-.36-1.17-.17L2.71,1.29l-1.41,1.41,5.46,5.46h0s6.6,6.6,6.6,6.6h0l1.4,1.4h0s2.09,2.09,2.09,2.09h0l4.46,4.46,1.41-1.41-2.47-2.47c.2-.38.15-.85-.17-1.16l-.12-.12c-.75-.75-.91-1.87-.5-2.85l.02-.05Zm-4.47-6.65c1.1,0,2,.9,2,2,0,1.1-.9,2-2,2-1.1,0-2-.9-2-2,0-1.1.9-2,2-2Z"/></svg>