<svg xmlns="http://www.w3.org/2000/svg" viewBox="0 0 24 24" width="24" height="24"><path d="m22,12c0-4.09-2.47-7.61-6-9.16v2.24c2.39,1.39,4,3.96,4,6.92,0,1.85-.64,3.54-1.69,4.89l-1.42-1.42c.7-.98,1.12-2.17,1.12-3.47,0-1.77-.78-3.36-2-4.46v7.05l-2-2V4c0-.37-.2-.71-.53-.88s-.72-.15-1.03.05l-4.72,3.15L2.71,1.29l-1.41,1.41,4.29,4.29,8.41,8.41,2.9,2.9,1.42,1.42,2.97,2.97,1.41-1.41-2.98-2.98c1.41-1.72,2.27-3.92,2.27-6.32Z"/><path d="m2,9v6c0,1.1.9,2,2,2h2.7l5.75,3.83c.17.11.36.17.55.17.16,0,.32-.04.47-.12.33-.17.53-.51.53-.88v-1.76L3.02,7.27c-.61.34-1.02.99-1.02,1.73Z"/></svg>