<svg xmlns="http://www.w3.org/2000/svg" viewBox="0 0 24 24" width="24" height="24"><path d="m22,11h-.17c-1.05,0-1.96-.67-2.36-1.64l-.02-.05c-.41-.98-.25-2.1.5-2.85l.12-.12c.39-.39.39-1.02,0-1.41s-1.02-.39-1.41,0l-.12.12c-.75.75-1.87.91-2.85.5l-.05-.02c-.97-.4-1.64-1.31-1.64-2.36v-.08c0-.64-.45-1.08-1-1.08s-1,.45-1,1v.04c0,1.1-.66,2.08-1.67,2.5h0c-1.01.42-2.18.19-2.95-.59l-.02-.03c-.39-.39-1.02-.39-1.41,0s-.39,1.02,0,1.41l.04.04c.77.77,1,1.92.58,2.93l-.03.06c-.41.99-1.37,1.63-2.44,1.63h0c-.64,0-1.08.45-1.08,1s.45,1,1,1h.07c1.08,0,2.05.65,2.46,1.64l.02.05c.42,1,.19,2.16-.58,2.93l-.04.04c-.39.39-.39,1.02,0,1.41.39.39,1.02.39,1.41,0l.04-.04c.77-.77,1.92-1,2.93-.58l.14.06c.94.39,1.55,1.3,1.55,2.32v.09c0,.64.45,1.09,1,1.09s1-.45,1-1v-.17c0-1.01.61-1.93,1.55-2.32l.25-.1c.94-.39,2.02-.17,2.74.55l.12.12c.39.39,1.02.39,1.41,0,.39-.39.39-1.02,0-1.41l-.12-.12c-.75-.75-.91-1.87-.5-2.85l.02-.05c.4-.97,1.31-1.64,2.36-1.64h.08c.64,0,1.09-.45,1.09-1s-.45-1-1-1Zm-13,2c-.55,0-1-.45-1-1s.45-1,1-1,1,.45,1,1-.45,1-1,1Zm5,3.5c-.55,0-1-.45-1-1s.45-1,1-1,1,.45,1,1-.45,1-1,1Zm1-4.5c-1.1,0-2-.9-2-2,0-1.1.9-2,2-2,1.1,0,2,.9,2,2,0,1.1-.9,2-2,2Z"/></svg>