<svg xmlns="http://www.w3.org/2000/svg" viewBox="0 0 24 24" width="24" height="24"><path d="m18,3c-2.21,0-4,1.79-4,4h2c0-1.1.9-2,2-2s2,.9,2,2-.9,2-2,2H2v2h16c2.21,0,4-1.79,4-4s-1.79-4-4-4Z"/><path d="m15,13h-7v2h7c1.1,0,2,.9,2,2s-.9,2-2,2-2-.9-2-2h-2c0,2.21,1.79,4,4,4s4-1.79,4-4-1.79-4-4-4Z"/><path d="M2 13H6V15H2z"/><path d="M21 12A1 1 0 1 0 21 14 1 1 0 1 0 21 12z"/><path d="M3 5A1 1 0 1 0 3 7 1 1 0 1 0 3 5z"/><path d="M11 4A1 1 0 1 0 11 6 1 1 0 1 0 11 4z"/><path d="M7 2A1 1 0 1 0 7 4 1 1 0 1 0 7 2z"/><path d="M8 19A1 1 0 1 0 8 21 1 1 0 1 0 8 19z"/><path d="M3 18A1 1 0 1 0 3 20 1 1 0 1 0 3 18z"/></svg>