<svg xmlns="http://www.w3.org/2000/svg" viewBox="0 0 24 24" width="24" height="24"><path d="m18,5c-1.42,0-2.16.75-2.71,1.29-.49.49-.73.71-1.29.71s-.8-.22-1.29-.71c-.54-.55-1.29-1.29-2.71-1.29s-2.16.75-2.71,1.29c-.49.49-.73.71-1.29.71s-.8-.22-1.29-.71c-.54-.55-1.29-1.29-2.71-1.29v2c.56,0,.8.22,1.29.71.54.55,1.29,1.29,2.71,1.29s2.16-.75,2.71-1.29c.49-.49.73-.71,1.29-.71s.8.22,1.29.71c.54.55,1.29,1.29,2.71,1.29s2.16-.75,2.71-1.29c.49-.49.73-.71,1.3-.71s.8.22,1.29.71c.55.55,1.29,1.29,2.71,1.29v-2c-.56,0-.8-.22-1.29-.71-.55-.55-1.29-1.29-2.71-1.29Z"/><path d="m18,10c-1.42,0-2.16.75-2.71,1.29-.49.49-.73.71-1.29.71s-.8-.22-1.29-.71c-.54-.55-1.29-1.29-2.71-1.29s-2.16.75-2.71,1.29c-.49.49-.73.71-1.29.71s-.8-.22-1.29-.71c-.54-.55-1.29-1.29-2.71-1.29v2c.56,0,.8.22,1.29.71.54.55,1.29,1.29,2.71,1.29s2.16-.75,2.71-1.29c.49-.49.73-.71,1.29-.71s.8.22,1.29.71c.54.55,1.29,1.29,2.71,1.29s2.16-.75,2.71-1.29c.49-.49.73-.71,1.3-.71s.8.22,1.29.71c.55.55,1.29,1.29,2.71,1.29v-2c-.56,0-.8-.22-1.29-.71-.55-.55-1.29-1.29-2.71-1.29Z"/><path d="m18,15c-1.42,0-2.16.75-2.71,1.29-.49.49-.73.71-1.29.71s-.8-.22-1.29-.71c-.54-.55-1.29-1.29-2.71-1.29s-2.16.75-2.71,1.29c-.49.49-.73.71-1.29.71s-.8-.22-1.29-.71c-.54-.55-1.29-1.29-2.71-1.29v2c.56,0,.8.22,1.29.71.54.55,1.29,1.29,2.71,1.29s2.16-.75,2.71-1.29c.49-.49.73-.71,1.29-.71s.8.22,1.29.71c.54.55,1.29,1.29,2.71,1.29s2.16-.75,2.71-1.29c.49-.49.73-.71,1.3-.71s.8.22,1.29.71c.55.55,1.29,1.29,2.71,1.29v-2c-.56,0-.8-.22-1.29-.71-.55-.55-1.29-1.29-2.71-1.29Z"/></svg>