<svg xmlns="http://www.w3.org/2000/svg" viewBox="0 0 24 24" width="24" height="24"><path d="m20.42,6.11l-7.97-4c-.28-.14-.62-.14-.9,0L3.58,6.11c-.31.15-.51.45-.55.79-.01.11-.96,10.77,8.55,15.01.13.06.27.09.41.09s.28-.03.41-.09c9.51-4.25,8.57-14.9,8.55-15.01-.03-.34-.24-.64-.55-.79Zm-8.42,13.79c-6.74-3.27-7.06-10.26-7-12.26l7-3.51,7,3.51c.04,1.99-.33,9.02-7,12.27Z"/><path d="M14.29 8.29 12 10.59 9.71 8.29 8.29 9.71 10.59 12 8.29 14.29 9.71 15.71 12 13.41 14.29 15.71 15.71 14.29 13.41 12 15.71 9.71 14.29 8.29z"/></svg>