<?xml version='1.0' encoding='utf-8'?>
<!DOCTYPE svg PUBLIC '-//W3C//DTD SVG 1.1//EN' 'http://www.w3.org/Graphics/SVG/1.1/DTD/svg11.dtd'>
<!-- Uploaded to: SVG Repo, www.svgrepo.com, Generator: SVG Repo Mixer Tools -->
<svg fill="#000000" height="800px" width="800px" version="1.1" xmlns="http://www.w3.org/2000/svg" viewBox="0 0 512 512" xmlns:xlink="http://www.w3.org/1999/xlink" enable-background="new 0 0 512 512">
  <g>
    <path d="m482,238.2c-2.1-125.7-102.7-227.2-226-227.2-123.3,0-223.9,101.5-226,227.2-12.4,17.6-19,37.8-19,59 0,28.2 11.8,54.9 33.3,75.9 5.6,25.7 21.3,48.9 44.5,65.9 24.5,17.9 56.1,27.8 89,27.8 10.5,0 20.9-1 31-3 25.6,23.8 61.5,37.3 100.3,37.3 35.5,0 69.1-11.5 94.6-32.4 25.3-20.7 39.8-48.2 41.3-77.9 15.2-9.3 27.9-21.3 37.4-35 12.1-17.6 18.5-37.9 18.5-58.5 0.1-21.3-6.5-41.5-18.9-59.1zm-226-188.7c90,0 165.4,64.9 184,151.3-13.5-7.6-28.4-13-44.1-16.1-21.9-63.2-77-105-139.9-105-62.5,0-118.1,42.5-139.9,105.1-15.7,3.1-30.6,8.5-44.1,16.1 18.6-86.5 94-151.4 184-151.4zm97.9,132.6c-17,1.2-33.6,5-48.8,11.3-18.5-7.7-39-11.7-59.9-11.7-16.7,0-33.5,2.7-49.1,7.7-12.1-3.9-25-6.4-38-7.3 19.4-38.7 56.7-63.9 97.9-63.9 41.5,1.42109e-14 78.5,24.9 97.9,63.9zm63.8,179.8c-7,3.5-11.2,11.1-10.6,19 0.1,1.6 0.2,3.2 0.2,4.7 0,19.6-9.7,38.4-27.2,52.8-18.8,15.4-44,23.9-70.9,23.9-32,0-62.1-12.3-80.4-32.8-3.6-4.1-8.7-6.3-14-6.3-1.6,0-3.3,0.2-4.9,0.7-10.3,2.8-21.1,4.3-32.1,4.3-49.9,0-91.8-29.2-97.4-67.8-0.7-4.6-3-8.8-6.4-11.9-16.2-14.1-25.1-32.3-25.1-51.2 0-19.6 9.7-38.4 27.3-52.8 18.8-15.4 44-23.9 70.9-23.9 14.6,0 29.3,2.6 42.6,7.6 4.2,1.6 8.9,1.6 13.1,0 13.2-5 28-7.6 42.6-7.6 18.3,0 36.2,4 51.7,11.6 5.2,2.5 11.2,2.5 16.3,0 15.5-7.6 33.4-11.6 51.7-11.6 26.9,0 52.1,8.5 70.9,23.9 17.6,14.4 27.3,33.2 27.3,52.8-0.1,26.2-17.1,50.4-45.6,64.6z"/>
  </g>
</svg>