<?xml version='1.0' encoding='utf-8'?>
<!DOCTYPE svg PUBLIC '-//W3C//DTD SVG 1.1//EN' 'http://www.w3.org/Graphics/SVG/1.1/DTD/svg11.dtd'>
<!-- Uploaded to: SVG Repo, www.svgrepo.com, Generator: SVG Repo Mixer Tools -->
<svg fill="#000000" height="800px" width="800px" version="1.1" xmlns="http://www.w3.org/2000/svg" viewBox="0 0 512 512" xmlns:xlink="http://www.w3.org/1999/xlink" enable-background="new 0 0 512 512">
  <g>
    <g>
      <polygon points="490.8,124.7 490.8,95.9 426.1,104.3 426.1,103.5 466.8,50.5 441.1,36.1 414.9,95.4 414.1,95.4 387.5,36.6     361.4,51.4 401.7,103.1 401.7,103.9 338.7,95.9 338.7,124.7 402.1,116.6 402.1,117.5 361.4,169.1 385.8,184.4 413.7,124.7     414.5,124.7 440.2,184 467.2,168.7 426.1,117.9 426.1,117   "/>
      <polygon points="420.5,296.5 441.1,269.7 428.1,262.4 414.8,292.5 414.4,292.5 400.9,262.6 387.7,270.2 408.1,296.3 408.1,296.8     376.2,292.7 376.2,307.3 408.3,303.2 408.3,303.6 387.7,329.8 400.1,337.5 414.2,307.3 414.6,307.3 427.6,337.3 441.3,329.6     420.5,303.8 420.5,303.4 453.3,307.3 453.3,292.7 420.5,297   "/>
      <path d="m265.3,265.9v-183.9c0-39.1-31.3-71-69.7-71-38.5,0-69.7,31.8-69.7,71v183.9c-34.8,23.7-56,63.5-56,106.8 0,70.8 56.4,128.4 125.7,128.4 69.3,0 125.7-57.6 125.7-128.4 0-43.3-21.1-83.1-56-106.8zm-69.7,194.3c-46.8,0-84.9-39.3-84.9-87.5 0-32.5 17.4-62.2 45.3-77.4 6.6-3.6 10.7-10.5 10.7-17.9v-195.4c0-16.6 13-30.1 28.9-30.1 15.9,0 28.9,13.5 28.9,30.1v195.3c0,7.5 4.1,14.4 10.7,17.9 28,15.2 45.3,44.9 45.3,77.4 0,48.3-38.1,87.6-84.9,87.6z"/>
      <path d="m91.5,110.3c0-11.3-9.1-20.4-20.4-20.4h-29.5c-11.3,0-20.4,9.1-20.4,20.4 0,11.3 9.1,20.4 20.4,20.4h29.5c11.3-2.84217e-14 20.4-9.1 20.4-20.4z"/>
    </g>
  </g>
</svg>