<?xml version='1.0' encoding='utf-8'?>
<!DOCTYPE svg PUBLIC '-//W3C//DTD SVG 1.1//EN' 'http://www.w3.org/Graphics/SVG/1.1/DTD/svg11.dtd'>
<!-- Uploaded to: SVG Repo, www.svgrepo.com, Generator: SVG Repo Mixer Tools -->
<svg fill="#000000" height="800px" width="800px" version="1.1" xmlns="http://www.w3.org/2000/svg" viewBox="0 0 512 512" xmlns:xlink="http://www.w3.org/1999/xlink" enable-background="new 0 0 512 512">
  <g>
    <path d="m345.1,326.2l137.4-137.4c24.6-24.6 24.6-64.6 0-89.2l-70.2-70.2c-24.6-24.6-64.6-24.6-89.2,0l-137.3,137.5c-47.2-2.3-92.8,15.3-126.4,49.1-64.4,64.7-64.6,170.3-0.5,235.3l.9,.9 .9,.9c65,64.1 170.6,63.9 235.3-0.5 33.8-33.6 51.4-79.2 49.1-126.4zm7-267.9c8.6-8.6 22.7-8.6 31.4-1.42109e-14l70.2,70.2c8.6,8.6 8.6,22.7 0,31.4l-21,21-101.5-101.6 20.9-21zm-262.8,365.7l-.7-.7-.7-.7c-48.4-49.1-48.3-128.9 0.4-177.8 27.1-27.3 64.7-40.6 103.1-36.6 6.1,0.7 12.2-1.5 16.6-5.9l94.2-94.2 101.5,101.5-94.2,94.2c-4.4,4.4-6.5,10.5-5.9,16.6 4.1,38.4-9.3,75.9-36.6,103.1-48.8,48.7-128.5,48.9-177.7,0.5z"/>
  </g>
</svg>