<?xml version='1.0' encoding='utf-8'?>
<!DOCTYPE svg PUBLIC '-//W3C//DTD SVG 1.1//EN' 'http://www.w3.org/Graphics/SVG/1.1/DTD/svg11.dtd'>
<!-- Uploaded to: SVG Repo, www.svgrepo.com, Generator: SVG Repo Mixer Tools -->
<svg fill="#000000" height="800px" width="800px" version="1.1" xmlns="http://www.w3.org/2000/svg" viewBox="0 0 512 512" xmlns:xlink="http://www.w3.org/1999/xlink" enable-background="new 0 0 512 512">
  <g>
    <g>
      <path d="M381.8,11c-11.3,0-20.4,9.1-20.4,20.4c0,11.3,9.1,20.4,20.4,20.4c43.2,0,78.3,34.5,78.3,76.9c0,42.4-35.1,76.9-78.3,76.9    H31.4c-11.3,0-20.4,9.1-20.4,20.4s9.1,20.4,20.4,20.4h350.4c65.7,0,119.2-52.8,119.2-117.8C501,63.8,447.5,11,381.8,11z"/>
      <path d="m298.4,313.2h-264.5c-11.3,0-20.4,9.1-20.4,20.4 0,11.3 9.1,20.4 20.4,20.4h264.5c29.8,0 54.1,23.8 54.1,53.1 0,29.3-24.3,53.1-54.1,53.1-11.3,0-20.4,9.1-20.4,20.4 0,11.3 9.1,20.4 20.4,20.4 52.4,0 94.9-42.1 94.9-93.9 0.1-51.8-42.5-93.9-94.9-93.9z"/>
    </g>
  </g>
</svg>