<svg width="32" height="32" viewBox="0 0 36 36" fill="none" xmlns="http://www.w3.org/2000/svg">
<path d="M17.97 11.85C18.7432 11.85 19.37 11.2232 19.37 10.45C19.37 9.67685 18.7432 9.05005 17.97 9.05005C17.1968 9.05005 16.57 9.67685 16.57 10.45C16.57 11.2232 17.1968 11.85 17.97 11.85Z" fill="black"/>
<path d="M21 25.0001H19V14.1001H16C15.7348 14.1001 15.4804 14.2055 15.2929 14.393C15.1054 14.5805 15 14.8349 15 15.1001C15 15.3653 15.1054 15.6197 15.2929 15.8072C15.4804 15.9947 15.7348 16.1001 16 16.1001H17V25.0001H15C14.7348 25.0001 14.4804 25.1055 14.2929 25.293C14.1054 25.4805 14 25.7349 14 26.0001C14 26.2653 14.1054 26.5197 14.2929 26.7072C14.4804 26.8947 14.7348 27.0001 15 27.0001H21C21.2652 27.0001 21.5196 26.8947 21.7071 26.7072C21.8946 26.5197 22 26.2653 22 26.0001C22 25.7349 21.8946 25.4805 21.7071 25.293C21.5196 25.1055 21.2652 25.0001 21 25.0001Z" fill="black"/>
<path d="M18 34C14.8355 34 11.7421 33.0616 9.11088 31.3035C6.4797 29.5454 4.42894 27.0466 3.21793 24.1229C2.00693 21.1993 1.69008 17.9823 2.30744 14.8786C2.92481 11.7749 4.44866 8.92394 6.6863 6.6863C8.92394 4.44866 11.7749 2.92481 14.8786 2.30744C17.9823 1.69008 21.1993 2.00693 24.1229 3.21793C27.0466 4.42894 29.5454 6.4797 31.3035 9.11088C33.0616 11.7421 34 14.8355 34 18C34 22.2435 32.3143 26.3131 29.3137 29.3137C26.3131 32.3143 22.2435 34 18 34V34ZM18 4.00001C15.2311 4.00001 12.5243 4.82109 10.222 6.35943C7.91974 7.89777 6.12532 10.0843 5.06569 12.6424C4.00607 15.2006 3.72882 18.0155 4.26901 20.7313C4.80921 23.447 6.14258 25.9416 8.10051 27.8995C10.0584 29.8574 12.553 31.1908 15.2687 31.731C17.9845 32.2712 20.7994 31.9939 23.3576 30.9343C25.9157 29.8747 28.1022 28.0803 29.6406 25.778C31.1789 23.4757 32 20.7689 32 18C32 14.287 30.525 10.726 27.8995 8.10051C25.274 5.475 21.713 4.00001 18 4.00001V4.00001Z" fill="black"/>
</svg>
