<svg width="29" height="28" viewBox="0 0 29 28" fill="none" xmlns="http://www.w3.org/2000/svg">
<g clip-path="url(#clip0_1769_21344)">
<path d="M1.66663 4.66667V11.6667H8.66663" stroke="#762A54" stroke-width="2" stroke-linecap="round" stroke-linejoin="round"/>
<path d="M4.59496 17.5C5.35142 19.6471 6.78518 21.4902 8.68022 22.7516C10.5753 24.013 12.8289 24.6244 15.1016 24.4935C17.3743 24.3627 19.543 23.4969 21.2808 22.0264C23.0186 20.5559 24.2314 18.5605 24.7366 16.3408C25.2417 14.121 25.0117 11.7973 24.0814 9.71961C23.151 7.64195 21.5706 5.92292 19.5783 4.82155C17.586 3.72019 15.2897 3.29614 13.0354 3.6133C10.7812 3.93046 8.69102 4.97165 7.07996 6.58L1.66663 11.6667" stroke="#762A54" stroke-width="2" stroke-linecap="round" stroke-linejoin="round"/>
</g>
<defs>
<clipPath id="clip0_1769_21344">
<rect width="28" height="28" fill="white" transform="translate(0.5)"/>
</clipPath>
</defs>
</svg>
