<svg width="12" height="13" viewBox="0 0 12 13" fill="none" xmlns="http://www.w3.org/2000/svg">
<path d="M11.526 4.298L10.682 4.144C10.612 4.132 10.576 4.084 10.56 4.058C10.544 4.032 10.524 3.976 10.55 3.908L10.932 2.916C11.014 2.704 10.962 2.462 10.802 2.302L9.698 1.198C9.536 1.038 9.296 0.986 9.084 1.068L8.092 1.45C8.024 1.476 7.97 1.454 7.942 1.44C7.916 1.424 7.868 1.39 7.856 1.318L7.702 0.472C7.652 0.198 7.414 0 7.136 0H4.864C4.586 0 4.348 0.198 4.298 0.474L4.144 1.32C4.132 1.39 4.084 1.426 4.058 1.442C4.032 1.458 3.976 1.478 3.908 1.452L2.916 1.07C2.704 0.988 2.462 1.038 2.302 1.2L1.198 2.304C1.038 2.464 0.986 2.706 1.068 2.918L1.45 3.91C1.476 3.978 1.454 4.032 1.44 4.06C1.424 4.086 1.39 4.134 1.318 4.146L0.472 4.3C0.198 4.35 0 4.588 0 4.866V7.138C0 7.416 0.198 7.654 0.474 7.704L1.318 7.858C1.388 7.87 1.424 7.918 1.44 7.944C1.456 7.97 1.476 8.026 1.45 8.094L1.068 9.086C0.986 9.298 1.038 9.54 1.198 9.7L2.302 10.804C2.464 10.966 2.704 11.016 2.916 10.934L3.908 10.552C3.976 10.526 4.03 10.548 4.058 10.562C4.084 10.578 4.132 10.612 4.144 10.684L4.298 11.53C4.348 11.804 4.586 12.002 4.864 12.002H7.136C7.414 12.002 7.652 11.804 7.702 11.528L7.856 10.684C7.868 10.614 7.916 10.578 7.942 10.562C7.968 10.546 8.024 10.526 8.092 10.552L9.084 10.934C9.296 11.016 9.538 10.964 9.698 10.804L10.802 9.7C10.962 9.54 11.014 9.298 10.932 9.086L10.55 8.094C10.524 8.026 10.546 7.972 10.56 7.944C10.576 7.918 10.61 7.87 10.682 7.858L11.528 7.704C11.802 7.654 12 7.416 12 7.138V4.866C12 4.588 11.802 4.35 11.526 4.3V4.298ZM8.968 8.682L7.212 6.762C7.368 6.536 7.464 6.274 7.488 5.988C7.558 5.072 6.794 4.244 5.868 4.24C5.72 4.24 5.574 4.26 5.436 4.298L6.23 5.4C6.414 5.658 6.358 6.01 6.106 6.2C6.002 6.28 5.878 6.316 5.758 6.316C5.576 6.316 5.396 6.23 5.284 6.072L4.496 4.978C4.316 5.25 4.222 5.574 4.236 5.924C4.264 6.698 4.866 7.364 5.64 7.466C5.92 7.502 6.19 7.468 6.43 7.378L8.1 9.404C7.49 9.782 6.77 10 6 10C3.79 10 2 8.21 2 6C2 3.79 3.79 2 6 2C8.21 2 10 3.79 10 6C10 7.032 9.61 7.972 8.968 8.682Z" fill="#C832D2"/>
</svg>
