<svg width="14" height="12" viewBox="0 0 14 12" fill="none" xmlns="http://www.w3.org/2000/svg">
<path d="M12.7001 2.21566C12.6096 2.1251 12.4867 2.07422 12.3587 2.07422C12.2306 2.07422 12.1078 2.1251 12.0172 2.21566C11.9266 2.30622 11.8758 2.42904 11.8758 2.55712C11.8758 2.68519 11.9266 2.80801 12.0172 2.89857C12.6644 3.54651 13.0279 4.42487 13.0279 5.34067C13.0279 6.25647 12.6644 7.13483 12.0172 7.78277C11.9254 7.87397 11.8735 7.99792 11.873 8.12735C11.8726 8.25678 11.9236 8.38108 12.0148 8.47293C12.106 8.56477 12.2299 8.61662 12.3594 8.61707C12.4888 8.61752 12.6131 8.56654 12.7049 8.47534C13.1154 8.06502 13.4411 7.57785 13.6632 7.04165C13.8854 6.50545 13.9998 5.93073 13.9998 5.35032C13.9998 4.76992 13.8854 4.1952 13.6632 3.659C13.4411 3.1228 13.1154 2.63563 12.7049 2.22531L12.7001 2.21566Z" fill="#C832D2"/>
<path d="M11.4045 3.51126C11.3597 3.46642 11.3064 3.43085 11.2478 3.40658C11.1892 3.38231 11.1264 3.36982 11.063 3.36982C10.9996 3.36982 10.9368 3.38231 10.8782 3.40658C10.8197 3.43085 10.7664 3.46642 10.7216 3.51126C10.6767 3.5561 10.6412 3.60934 10.6169 3.66792C10.5926 3.72651 10.5801 3.7893 10.5801 3.85272C10.5801 3.91613 10.5926 3.97893 10.6169 4.03752C10.6412 4.0961 10.6767 4.14934 10.7216 4.19418C11.0254 4.49826 11.1961 4.91054 11.1961 5.34042C11.1961 5.77029 11.0254 6.18258 10.7216 6.48666C10.631 6.57722 10.5801 6.70005 10.5801 6.82812C10.5801 6.95619 10.631 7.07902 10.7216 7.16958C10.8121 7.26014 10.935 7.31102 11.063 7.31102C11.1911 7.31102 11.3139 7.26014 11.4045 7.16958C11.889 6.68413 12.1611 6.02629 12.1611 5.34042C12.1611 4.65455 11.889 3.9967 11.4045 3.51126ZM9.65256 1.06434C9.58047 1.01976 9.4979 0.994946 9.41318 0.992405C9.32846 0.989863 9.24456 1.00968 9.16993 1.04986L4.70803 3.4075H0.482628C0.354627 3.4075 0.231869 3.45834 0.141358 3.54885C0.0508481 3.63936 0 3.76212 0 3.89012V6.78589C0 6.91389 0.0508481 7.03665 0.141358 7.12716C0.231869 7.21767 0.354627 7.26852 0.482628 7.26852H1.07143L1.94499 10.7652C1.97132 10.8693 2.03167 10.9618 2.11647 11.0278C2.20127 11.0938 2.30568 11.1296 2.41314 11.1295H4.58496C4.65843 11.1296 4.73094 11.1128 4.79695 11.0806C4.86297 11.0484 4.92076 11.0015 4.96591 10.9435C5.01106 10.8856 5.04239 10.8181 5.0575 10.7462C5.07261 10.6743 5.07111 10.5999 5.05311 10.5287L4.23747 7.26852H4.70562L9.18441 9.62615C9.25803 9.66536 9.34056 9.68481 9.42394 9.68262C9.50732 9.68042 9.58871 9.65666 9.66017 9.61363C9.73163 9.57061 9.79072 9.5098 9.83168 9.43714C9.87264 9.36448 9.89406 9.28244 9.89387 9.19903V1.47698C9.89294 1.39317 9.8702 1.31104 9.82789 1.23869C9.78558 1.16633 9.72515 1.10624 9.65256 1.06434ZM2.78959 10.1643L2.06565 7.26852H3.24326L3.9672 10.1643H2.78959ZM4.34365 6.30326H0.965255V4.37275H4.34365V6.30326ZM8.92861 8.40028L5.30891 6.49631V4.18211L8.92861 2.27815V8.40028Z" fill="#C832D2"/>
</svg>
