<svg  viewBox="0 0 65 65" fill="none" xmlns="http://www.w3.org/2000/svg">
<g clip-path="url(#clip0_1432_10660)">
<path d="M16.2633 26.6121C18.8397 21.9361 23.9924 20.012 32.5005 24.5244C41.0087 20.012 46.1613 21.9361 48.7377 26.6121C50.5838 29.9628 50.9905 34.767 50.3005 39.5443C49.6167 44.2785 47.8502 49.0323 45.3401 52.3329C42.0487 56.6611 37.546 58.5848 32.5005 55.1511C27.455 58.5849 22.9523 56.6611 19.6609 52.3329C17.1508 49.0323 15.3842 44.2785 14.7004 39.5443C14.0104 34.767 14.4171 29.9628 16.2633 26.6121H16.2633Z" fill="url(#paint0_linear_1432_10660)"/>
<path d="M42.9271 13.1727C43.4836 13.1179 43.8903 12.6223 43.8356 12.0658C43.7808 11.5093 43.2852 11.1025 42.7287 11.1573C42.6855 11.1617 27.634 12.5441 31.5283 25.9584C31.6838 26.4952 32.2451 26.8043 32.7819 26.6487C33.3188 26.4932 33.6278 25.9319 33.4722 25.3951C30.2624 14.3386 42.8909 13.1764 42.9271 13.1727V13.1727Z" fill="url(#paint1_linear_1432_10660)"/>
<path d="M21.5902 8.13015C22.66 8.1471 32.3394 8.48597 33.6832 15.2558L33.6842 15.2556C33.747 15.5724 33.655 15.884 33.4607 16.1121C32.8709 16.8895 26.5074 24.7374 20.5446 9.51051L20.5429 9.51117C20.3383 8.98889 20.5959 8.3997 21.1182 8.19515C21.2681 8.1362 21.4299 8.11392 21.5902 8.13015Z" fill="url(#paint2_linear_1432_10660)"/>
</g>
<defs>
<linearGradient id="paint0_linear_1432_10660" x1="32.5005" y1="21.9629" x2="22.9984" y2="63.5487" gradientUnits="userSpaceOnUse">
<stop stop-color="#FF3D1F"/>
<stop offset="1" stop-color="#F68699"/>
</linearGradient>
<linearGradient id="paint1_linear_1432_10660" x1="37.3626" y1="11.1523" x2="32.2503" y2="29.1509" gradientUnits="userSpaceOnUse">
<stop stop-color="#E0E0E0"/>
<stop offset="1" stop-color="#FE9601" stop-opacity="0"/>
</linearGradient>
<linearGradient id="paint2_linear_1432_10660" x1="27.0882" y1="8.125" x2="24.6146" y2="21.0429" gradientUnits="userSpaceOnUse">
<stop stop-color="#52D092"/>
<stop offset="1" stop-color="#FE9601" stop-opacity="0"/>
</linearGradient>
<clipPath id="clip0_1432_10660">
<rect width="65" height="65" fill="white"/>
</clipPath>
</defs>
</svg>
