<svg width="20" height="20" viewBox="0 0 20 20" fill="none" xmlns="http://www.w3.org/2000/svg">
<path d="M13.4184 15.9081C12.7233 15.2696 12.0288 14.6311 11.3337 13.9927C10.224 12.9736 9.11698 11.9576 8.00737 10.9385C7.75105 10.7033 7.49803 10.4687 7.2417 10.2335C7.10991 10.1146 7.10991 9.88579 7.2417 9.76689C7.93686 9.1284 8.63137 8.48991 9.32646 7.85145C10.4361 6.83231 11.5431 5.81639 12.6528 4.79729C12.9091 4.56205 13.1621 4.32748 13.4184 4.09224C13.7354 3.80079 14.2144 4.26738 13.8942 4.55883C13.199 5.19732 12.5045 5.83581 11.8094 6.47427C10.6998 7.49341 9.59272 8.50933 8.48311 9.52843C8.22679 9.76367 7.97377 9.99824 7.71744 10.2335L7.71744 9.76689C8.4126 10.4054 9.10711 11.0439 9.8022 11.6823C10.9118 12.7015 12.0189 13.7174 13.1285 14.7365C13.3848 14.9717 13.6378 15.2063 13.8942 15.4415C14.2111 15.7298 13.7354 16.1996 13.4184 15.9081Z" fill="#fff" stroke="#fff" stroke-width="0.6"/>
</svg>
