<svg width="21" height="21" viewBox="0 0 26 26" fill="none" xmlns="http://www.w3.org/2000/svg">
<path d="M5.6875 12.1875H21.9375C22.153 12.1875 22.3597 12.2731 22.512 12.4255C22.6644 12.5778 22.75 12.7845 22.75 13C22.75 13.2155 22.6644 13.4222 22.512 13.5745C22.3597 13.7269 22.153 13.8125 21.9375 13.8125H5.6875C5.47201 13.8125 5.26535 13.7269 5.11298 13.5745C4.9606 13.4222 4.875 13.2155 4.875 13C4.875 12.7845 4.9606 12.5778 5.11298 12.4255C5.26535 12.2731 5.47201 12.1875 5.6875 12.1875Z" fill="black"/>
<path d="M6.02386 13.0001L12.7627 19.7373C12.9153 19.8899 13.001 20.0968 13.001 20.3126C13.001 20.5283 12.9153 20.7352 12.7627 20.8878C12.6102 21.0404 12.4032 21.1261 12.1875 21.1261C11.9717 21.1261 11.7648 21.0404 11.6122 20.8878L4.29974 13.5753C4.22407 13.4998 4.16404 13.4102 4.12308 13.3115C4.08212 13.2127 4.06104 13.1069 4.06104 13.0001C4.06104 12.8932 4.08212 12.7874 4.12308 12.6886C4.16404 12.5899 4.22407 12.5003 4.29974 12.4248L11.6122 5.1123C11.7648 4.95973 11.9717 4.87402 12.1875 4.87402C12.4032 4.87402 12.6102 4.95973 12.7627 5.1123C12.9153 5.26487 13.001 5.47179 13.001 5.68755C13.001 5.90331 12.9153 6.11023 12.7627 6.2628L6.02386 13.0001Z" fill="black"/>
</svg>
