<svg width="28" height="28" viewBox="0 0 28 28" fill="none" xmlns="http://www.w3.org/2000/svg">
<circle cx="14" cy="14" r="14" fill="white"/>
<path d="M6.62646 13.3135H22.8765C23.092 13.3135 23.2986 13.3991 23.451 13.5515C23.6034 13.7038 23.689 13.9105 23.689 14.126C23.689 14.3415 23.6034 14.5481 23.451 14.7005C23.2986 14.8529 23.092 14.9385 22.8765 14.9385H6.62646C6.41098 14.9385 6.20431 14.8529 6.05194 14.7005C5.89957 14.5481 5.81396 14.3415 5.81396 14.126C5.81396 13.9105 5.89957 13.7038 6.05194 13.5515C6.20431 13.3991 6.41098 13.3135 6.62646 13.3135Z" fill="black"/>
<path d="M6.96283 14.126L13.7017 20.8633C13.8543 21.0158 13.94 21.2228 13.94 21.4385C13.94 21.6543 13.8543 21.8612 13.7017 22.0138C13.5491 22.1663 13.3422 22.2521 13.1265 22.2521C12.9107 22.2521 12.7038 22.1663 12.5512 22.0138L5.2387 14.7013C5.16304 14.6258 5.10301 14.5361 5.06204 14.4374C5.02108 14.3387 5 14.2329 5 14.126C5 14.0192 5.02108 13.9133 5.06204 13.8146C5.10301 13.7159 5.16304 13.6263 5.2387 13.5508L12.5512 6.23828C12.7038 6.08571 12.9107 6 13.1265 6C13.3422 6 13.5491 6.08571 13.7017 6.23828C13.8543 6.39084 13.94 6.59777 13.94 6.81353C13.94 7.02929 13.8543 7.23621 13.7017 7.38878L6.96283 14.126Z" fill="black"/>
</svg>
