<svg viewBox="0 0 24 24" fill="none" xmlns="http://www.w3.org/2000/svg">
<path d="M10.5 18.75C10.5 15.276 13.1257 12.4178 16.5 12.0443C16.5 10.9043 16.5 9.75 16.5 9.75C16.5 6.4365 13.8135 3.75 10.5 3.75C7.1865 3.75 4.5 6.4365 4.5 9.75V14.25L2.25 17.25V19.5H10.5443C10.5165 19.2533 10.5 19.0035 10.5 18.75Z" fill="#FAA85F"/>
<path d="M8.25 9H6.75V14.25H8.25V9Z" fill="white"/>
<path d="M17.25 24C20.1495 24 22.5 21.6495 22.5 18.75C22.5 15.8505 20.1495 13.5 17.25 13.5C14.3505 13.5 12 15.8505 12 18.75C12 21.6495 14.3505 24 17.25 24Z" fill="#72C6EF"/>
<path d="M10.6733 20.25H7.5C7.5 21.9075 8.84325 23.25 10.5 23.25C11.016 23.25 11.4938 23.1075 11.9183 22.8787C11.3258 22.1152 10.8945 21.2235 10.6733 20.25Z" fill="white"/>
<path d="M19.5 18H18V16.5H16.5V18H15V19.5H16.5V21H18V19.5H19.5V18Z" fill="white"/>
<path d="M11.4923 22.2593C11.1915 22.4085 10.8577 22.5 10.5 22.5C9.2595 22.5 8.25 21.4905 8.25 20.25H10.6733C10.563 19.767 10.5 19.266 10.5 18.75H3V17.4998L4.9755 14.8657C5.25 14.6467 5.25 14.1728 5.25 13.5465V10.4528C5.25 10.1895 5.25 9.9525 5.22975 9.75H5.25C5.25 6.85575 7.605 4.5 10.5 4.5C13.395 4.5 15.75 6.85575 15.75 9.75V12.1733C16.233 12.063 16.734 12 17.25 12V9.75C17.25 6.8175 15.3675 4.323 12.75 3.39375V2.25C12.75 1.0095 11.7405 0 10.5 0C9.2595 0 8.25 1.0095 8.25 2.25V3.39375C5.6325 4.32375 3.75 6.81825 3.75 9.7545C3.75 9.8325 3.75 13.0703 3.75 13.9995L1.5 17.0002V20.25H6.75C6.75 22.3177 8.43225 24 10.5 24C11.2028 24 11.853 23.7937 12.4163 23.4562C12.0645 23.0947 11.7563 22.692 11.4923 22.2593ZM9.75 2.25C9.75 1.836 10.0868 1.5 10.5 1.5C10.9132 1.5 11.25 1.836 11.25 2.25V3H9.75V2.25Z" fill="#00384E"/>
</svg>
