<svg width="96" height="85" viewBox="0 0 96 85" fill="none" xmlns="http://www.w3.org/2000/svg">
<path d="M79.2 74.375H16.8C15.48 74.375 14.4 75.5703 14.4 77.0312V82.3438C14.4 83.8047 15.48 85 16.8 85H79.2C80.52 85 81.6 83.8047 81.6 82.3438V77.0312C81.6 75.5703 80.52 74.375 79.2 74.375ZM88.8 21.25C84.825 21.25 81.6 24.8193 81.6 29.2188C81.6 30.3975 81.84 31.4932 82.26 32.5059L71.4 39.7109C69.09 41.2383 66.105 40.375 64.77 37.7852L52.545 14.1113C54.15 12.6504 55.2 10.459 55.2 7.96875C55.2 3.56934 51.975 0 48 0C44.025 0 40.8 3.56934 40.8 7.96875C40.8 10.459 41.85 12.6504 43.455 14.1113L31.23 37.7852C29.895 40.375 26.895 41.2383 24.6 39.7109L13.755 32.5059C14.16 31.5098 14.415 30.3975 14.415 29.2188C14.415 24.8193 11.19 21.25 7.215 21.25C3.24 21.25 0 24.8193 0 29.2188C0 33.6182 3.225 37.1875 7.2 37.1875C7.59 37.1875 7.98 37.1211 8.355 37.0547L19.2 69.0625H76.8L87.645 37.0547C88.02 37.1211 88.41 37.1875 88.8 37.1875C92.775 37.1875 96 33.6182 96 29.2188C96 24.8193 92.775 21.25 88.8 21.25Z" fill="#FFCE31" fill-opacity="0.05"/>
</svg>
