<svg width="34" height="55" viewBox="0 0 24 35" fill="none" xmlns="http://www.w3.org/2000/svg">
<path fill-rule="evenodd" clip-rule="evenodd" d="M11.433 0.609988C7.05524 4.99748 5.74338 11.1305 5.54361 16.2439L0.481315 21.3062L0.481315 22.5243L4.13552 26.1785L4.74578 26.4306L7.15999 26.4306L7.17217 26.4404L16.9167 26.4404L16.9289 26.4306H19.3626L19.9704 26.1785L23.6246 22.5243V21.3062L18.5648 16.2464C18.3711 11.1341 17.058 5.00478 12.6523 0.608771L11.433 0.609988ZM2.30842 21.9152L5.52778 18.6959C5.5768 20.7114 5.77426 22.7206 6.11854 24.7071L5.10267 24.7095L2.30842 21.9152ZM18.996 24.7168L17.9691 24.7132C18.3204 22.7289 18.5236 20.7213 18.577 18.7069L21.7914 21.9213L18.996 24.7168ZM16.2103 24.7156L7.87865 24.718C7.33661 21.7593 5.63862 9.70532 12.0457 2.47242C18.4844 9.70532 16.7547 21.7666 16.2103 24.7156ZM15.7072 30.4417L14.4891 29.2237L12.053 31.6598L9.61684 29.2237L8.39877 30.4417L12.053 34.0959L15.7072 30.4417ZM14.5878 12.8833C14.4537 12.211 14.0581 11.6195 13.4879 11.2389C12.9177 10.8584 12.2198 10.7199 11.5475 10.854C10.8752 10.988 10.2837 11.3837 9.90316 11.9538C9.52259 12.524 9.38411 13.222 9.51817 13.8943C9.65208 14.5664 10.0475 15.1578 10.6174 15.5383C11.1874 15.9189 11.8851 16.0575 12.5573 15.9236C13.2294 15.7897 13.8208 15.3942 14.2013 14.8243C14.5819 14.2544 14.7205 13.5566 14.5866 12.8845L14.5878 12.8833Z" fill="#FF385C"/>
</svg>
