<svg width="25" height="25" viewBox="0 0 25 25" fill="none" xmlns="http://www.w3.org/2000/svg">
<g clip-path="url(#clip0_2818_25060)">
<path fill-rule="evenodd" clip-rule="evenodd" d="M12.5 0C9.18479 0 6.00537 1.31696 3.66117 3.66117C1.31696 6.00537 0 9.18479 0 12.5C0 15.8152 1.31696 18.9946 3.66117 21.3388C6.00537 23.683 9.18479 25 12.5 25C15.8152 25 18.9946 23.683 21.3388 21.3388C23.683 18.9946 25 15.8152 25 12.5C25 9.18479 23.683 6.00537 21.3388 3.66117C18.9946 1.31696 15.8152 0 12.5 0V0ZM6.773 7L7.428 7.76C6.89714 8.21601 6.49528 8.80337 6.26259 9.46337C6.0299 10.1234 5.97452 10.8329 6.102 11.521L5.119 11.703C4.95938 10.8429 5.02811 9.95599 5.31833 9.13076C5.60856 8.30552 6.11013 7.57083 6.773 7ZM12.998 7.926L13.75 9.226L14.5 10.527L13.166 11.297H13.162C12.888 11.448 12.924 11.515 12.937 11.654C12.951 11.794 13.025 11.928 13.025 11.928L13.029 11.938L14.549 14.57L14.555 14.582C14.555 14.582 14.625 14.697 14.732 14.772C14.84 14.846 14.9 14.916 15.211 14.738L16.5 13.994L18 16.594L15.836 17.844C15.2592 18.1733 14.5753 18.2606 13.9343 18.0866C13.2932 17.9127 12.7473 17.4917 12.416 16.916L9.918 12.59C9.58824 12.0155 9.49948 11.3337 9.67115 10.6939C9.84282 10.0541 10.2609 9.5083 10.834 9.176L12.998 7.926ZM7.971 8.806L8.754 9.426C8.37579 9.90566 8.1862 10.5072 8.221 11.117L7.223 11.172C7.17498 10.3188 7.44106 9.47745 7.971 8.807V8.806ZM12.633 9.287L11.334 10.037C11.162 10.1341 11.0112 10.2646 10.8902 10.4207C10.7692 10.5768 10.6806 10.7555 10.6295 10.9463C10.5783 11.1371 10.5658 11.3361 10.5925 11.5318C10.6192 11.7275 10.6846 11.9159 10.785 12.086L13.281 16.412H13.283C13.703 17.142 14.612 17.389 15.336 16.971L16.635 16.223L16.133 15.353L15.709 15.6H15.707C15.121 15.935 14.508 15.825 14.166 15.59C13.9583 15.4457 13.7871 15.255 13.666 15.033L12.174 12.449C12.174 12.449 11.982 12.154 11.944 11.746C11.9282 11.4787 11.9886 11.2123 12.1182 10.978C12.2478 10.7436 12.4412 10.5508 12.676 10.422H12.678L13.135 10.158L12.883 9.725L12.633 9.289V9.287Z" fill="#093731"/>
</g>
<defs>
<clipPath id="clip0_2818_25060">
<rect width="25" height="25" fill="white"/>
</clipPath>
</defs>
</svg>
