<svg width="19" height="20" viewBox="0 0 19 20" fill="none" xmlns="http://www.w3.org/2000/svg">
<path fill-rule="evenodd" clip-rule="evenodd" d="M4.58333 0.746094C5.08959 0.746094 5.5 1.1565 5.5 1.66276V2.57943H12.8333V1.66276C12.8333 1.1565 13.2437 0.746094 13.75 0.746094C14.2563 0.746094 14.6667 1.1565 14.6667 1.66276V2.57943H15.5833C17.1021 2.57943 18.3333 3.81064 18.3333 5.32943V16.3294C18.3333 17.8482 17.1021 19.0794 15.5833 19.0794H2.75C1.23122 19.0794 0 17.8482 0 16.3294V5.32943C0 3.81064 1.23122 2.57943 2.75 2.57943H3.66667V1.66276C3.66667 1.1565 4.07707 0.746094 4.58333 0.746094ZM12.8333 4.41276V5.32943C12.8333 5.83569 13.2437 6.24609 13.75 6.24609C14.2563 6.24609 14.6667 5.83569 14.6667 5.32943V4.41276H15.5833C16.0896 4.41276 16.5 4.82317 16.5 5.32943V8.07943H1.83333V5.32943C1.83333 4.82317 2.24374 4.41276 2.75 4.41276H3.66667V5.32943C3.66667 5.83569 4.07707 6.24609 4.58333 6.24609C5.08959 6.24609 5.5 5.83569 5.5 5.32943V4.41276H12.8333ZM1.83333 9.91276V16.3294C1.83333 16.8357 2.24374 17.2461 2.75 17.2461H15.5833C16.0896 17.2461 16.5 16.8357 16.5 16.3294V9.91276H1.83333Z" fill="#6F767E"/>
</svg>
