<svg  viewBox="0 0 38 38" fill="none" xmlns="http://www.w3.org/2000/svg">
<path d="M1.05859 8.35156V17.3755V28.4756H28.3313H32.5089H36.9399V17.3755V8.35156H1.05859Z" fill="#E6E6E6"/>
<path d="M38.0009 6.7832V30.0449L35.7812 27.8253V9.00286L38.0009 6.7832Z" fill="#F7B239"/>
<path d="M38 6.7832L35.7803 9.00286H2.21966L0 6.7832H38Z" fill="#E09B2D"/>
<path d="M35.7803 27.8262H27.7284H25.711H2.21966L0 30.0458H25.711H27.7284H38L35.7803 27.8262Z" fill="#E09B2D"/>
<path d="M30.0219 30.0442L29.6818 29.7974L29.3426 30.0442H29.3417L27.7285 31.218V30.0442V25.0681V23.3971C27.8004 23.4166 27.8688 23.4415 27.9309 23.4735C28.3136 23.6688 28.9507 24.6415 29.0185 24.2263C29.7061 20.0127 29.8664 23.912 30.2855 23.8455C30.6362 23.7904 31.0659 23.9476 31.4219 23.8801H31.6359V25.0681V30.0442V31.2171L30.0219 30.0442Z" fill="#F95428"/>
<path d="M2.21966 9.00286V27.8253L0 30.0449V6.7832L2.21966 9.00286Z" fill="#F7B239"/>
<path d="M25.6137 12.0664H12.3848V13.3982H25.6137V12.0664Z" fill="#666666"/>
<path d="M23.75 17.2168H14.25V18.5486H23.75V17.2168Z" fill="#666666"/>
<path d="M27.922 14.5527H10.0762V15.8845H27.922V14.5527Z" fill="#666666"/>
<path d="M16.6462 23.3398H10.0762V24.6716H16.6462V23.3398Z" fill="#666666"/>
<path d="M27.7294 26.1534C27.3769 26.0513 26.9391 26.0486 26.6835 25.792C26.3745 25.483 26.434 24.913 26.2457 24.5437C26.0504 24.1611 25.5576 23.8716 25.492 23.4561C25.4263 23.0362 25.8072 22.6083 25.8737 22.1883C25.9385 21.7736 25.7068 21.248 25.9022 20.8654C26.0904 20.4961 26.6471 20.3735 26.9561 20.0654C27.265 19.7565 27.3876 19.1989 27.7569 19.0106C28.1396 18.8162 28.6643 19.0479 29.0798 18.9822C29.4988 18.9165 29.9267 18.5356 30.3468 18.6013C30.7623 18.667 31.0517 19.1598 31.4344 19.3551C31.8037 19.5433 32.3746 19.483 32.6826 19.7919C32.9916 20.1009 32.9322 20.6718 33.1204 21.0411C33.3157 21.4238 33.8085 21.7132 33.8741 22.1287C33.9398 22.5478 33.5589 22.9766 33.4924 23.3957C33.4276 23.8113 33.6593 24.3359 33.4639 24.7186C33.2757 25.0879 32.719 25.2104 32.41 25.5194C32.1011 25.8284 31.9785 26.3851 31.6101 26.5733C31.5506 26.6035 31.4876 26.6239 31.4228 26.6363C31.0667 26.7038 30.637 26.5467 30.2863 26.6017C29.8673 26.6682 29.4394 27.0491 29.0193 26.9826C28.6039 26.9178 28.3144 26.425 27.9317 26.2297C27.8697 26.1978 27.8013 26.1729 27.7294 26.1534Z" fill="#F7B239"/>
<path d="M30.9855 21.4893C31.7056 22.2093 31.7056 23.3769 30.9855 24.096C30.2655 24.8161 29.0979 24.8161 28.3779 24.096C27.6579 23.3768 27.6579 22.2093 28.3779 21.4893C29.098 20.7692 30.2655 20.7692 30.9855 21.4893Z" fill="#F95428"/>
</svg>
