<svg xmlns="http://www.w3.org/2000/svg" width="32" height="32">
    <path style="stroke:none;fill-rule:nonzero;fill:#000;fill-opacity:1" d="M0 4c0-2.21 1.79-4 4-4h24c2.21 0 4 1.79 4 4v16c0 2.21-1.79 4-4 4h-5c-.629 0-1.223.297-1.602.8l-3.796 5.067a2.002 2.002 0 0 1-1.602.797 2.002 2.002 0 0 1-1.602-.797l-3.796-5.066A2.005 2.005 0 0 0 9 24H4c-2.21 0-4-1.79-4-4Zm7 2c-.55 0-1 .45-1 1s.45 1 1 1h18c.55 0 1-.45 1-1s-.45-1-1-1Zm0 5c-.55 0-1 .45-1 1s.45 1 1 1h18c.55 0 1-.45 1-1s-.45-1-1-1Zm0 5c-.55 0-1 .45-1 1s.45 1 1 1h10c.55 0 1-.45 1-1s-.45-1-1-1Zm0 0"/>
</svg>
