<svg width="20" height="19" viewBox="0 0 20 19" fill="none" xmlns="http://www.w3.org/2000/svg">
<path d="M4.01245 18.6521C2.97884 18.6522 1.98663 18.2459 1.24997 17.5208L1.16872 17.4396C0.798603 17.0784 0.504517 16.6469 0.303793 16.1703C0.103069 15.6937 -0.000230325 15.1817 -1.89688e-05 14.6646C-0.00132697 14.1048 0.108485 13.5502 0.323053 13.0331C0.537622 12.516 0.852681 12.0466 1.24997 11.6521L10.9374 2.07095C11.9217 1.04612 13.2691 0.448927 14.6895 0.408011C16.1099 0.367095 17.4895 0.885731 18.5311 1.8522C19.0009 2.32082 19.3727 2.87826 19.6249 3.49203C19.877 4.10581 20.0045 4.76364 19.9998 5.42717C19.9943 6.16823 19.8423 6.90089 19.5527 7.58305C19.2632 8.2652 18.8416 8.88341 18.3124 9.40215L9.60617 18.0271C9.55205 18.0999 9.48273 18.16 9.40303 18.2034C9.32333 18.2467 9.23515 18.2721 9.14462 18.2779C9.0541 18.2837 8.96339 18.2698 8.87881 18.237C8.79422 18.2042 8.71778 18.1534 8.6548 18.0882C8.59181 18.0229 8.54379 17.9447 8.51408 17.859C8.48436 17.7733 8.47365 17.6821 8.48271 17.5919C8.49176 17.5016 8.52035 17.4144 8.56649 17.3363C8.61264 17.2582 8.67523 17.1911 8.74992 17.1396L17.4311 8.51465C17.8434 8.1122 18.1721 7.63228 18.3984 7.10245C18.6247 6.57261 18.7442 6.00329 18.7499 5.42717C18.7544 4.92858 18.6594 4.43409 18.4706 3.97264C18.2817 3.51118 18.0027 3.09202 17.6499 2.73969C16.8423 2.00399 15.7781 1.61471 14.6864 1.65562C13.5947 1.69653 12.5627 2.16436 11.8124 2.95844L2.15622 12.5396C1.87166 12.8159 1.64498 13.1461 1.48938 13.511C1.33379 13.8758 1.2524 14.268 1.24997 14.6646C1.24864 15.0129 1.31645 15.3579 1.44949 15.6798C1.58252 16.0017 1.77813 16.2939 2.02497 16.5396L2.10622 16.6208C2.66543 17.1358 3.40449 17.4106 4.1643 17.386C4.9241 17.3615 5.64388 17.0396 6.16869 16.4896L14.5124 8.23965C14.6702 8.08011 14.7946 7.89071 14.8783 7.68252C14.962 7.47432 15.0033 7.25153 14.9999 7.02716C15.0013 6.83229 14.9638 6.63909 14.8898 6.45882C14.8158 6.27855 14.7066 6.11482 14.5686 5.97717C14.253 5.68774 13.8362 5.53404 13.4082 5.54924C12.9803 5.56444 12.5754 5.74733 12.2811 6.05842L6.53119 11.7584C6.4135 11.8752 6.25421 11.9406 6.08836 11.94C5.9225 11.9394 5.76368 11.8729 5.64682 11.7553C5.52996 11.6376 5.46464 11.4783 5.46522 11.3124C5.46581 11.1466 5.53225 10.9877 5.64994 10.8709L11.4249 5.15217C11.9543 4.60988 12.6756 4.29743 13.4333 4.28223C14.1909 4.26703 14.9242 4.5503 15.4749 5.07093C15.7281 5.32873 15.9272 5.63466 16.0603 5.97064C16.1934 6.30662 16.2579 6.66586 16.2499 7.02716C16.2492 7.41623 16.1709 7.80126 16.0196 8.15971C15.8683 8.51815 15.647 8.8428 15.3686 9.11465L7.04993 17.3896C6.24362 18.1946 5.15185 18.6484 4.01245 18.6521Z" fill="#251F39" fill-opacity="0.25"/>
</svg>
