<svg width="20" height="20" viewBox="0 0 20 20" fill="none" xmlns="http://www.w3.org/2000/svg">
<g clip-path="url(#clip0_415_3463)">
<path d="M10.1611 2.22137C10.3266 2.22235 10.4899 2.26032 10.6389 2.33249C10.8088 2.4326 10.9447 2.58148 11.0289 2.75981C11.1131 2.93814 11.1417 3.13767 11.1111 3.33248L11.1111 7.05471L17.1278 2.45471C17.2875 2.32826 17.4798 2.24967 17.6823 2.22804C17.8849 2.20641 18.0894 2.24262 18.2722 2.33249C18.4582 2.42489 18.6145 2.56756 18.7235 2.74432C18.8325 2.92107 18.8898 3.12483 18.8889 3.33249L18.8889 16.6658C18.8898 16.8735 18.8325 17.0772 18.7235 17.254C18.6145 17.4307 18.4582 17.5734 18.2722 17.6658C18.0896 17.7563 17.8849 17.7929 17.6822 17.7713C17.4795 17.7496 17.2872 17.6707 17.1278 17.5436L11.1111 12.9492L11.1111 16.6658C11.1406 16.8598 11.1113 17.0581 11.0272 17.2353C10.943 17.4125 10.8078 17.5605 10.6389 17.6603C10.4562 17.7508 10.2516 17.7874 10.0489 17.7657C9.84617 17.7441 9.65384 17.6651 9.49443 17.538L0.983319 10.8714C0.850518 10.7674 0.743115 10.6346 0.669251 10.483C0.595387 10.3314 0.557002 10.165 0.557002 9.99637C0.557002 9.82774 0.595387 9.66131 0.669251 9.50971C0.743115 9.35811 0.850518 9.22531 0.983319 9.12137L9.49443 2.45471C9.68536 2.30649 9.91941 2.22457 10.1611 2.22137Z" fill="#454555" fill-opacity="0.7"/>
</g>
<defs>
<clipPath id="clip0_415_3463">
<rect width="20" height="20" fill="white" transform="translate(20 20) rotate(-180)"/>
</clipPath>
</defs>
</svg>
