<svg width="32" height="32" viewBox="0 0 32 32" fill="none" xmlns="http://www.w3.org/2000/svg">
<rect width="32" height="32" rx="16" fill="#EFEFEF"/>
<path d="M11.5886 10.4101C11.2632 10.0847 10.7355 10.0847 10.4101 10.4101C10.0847 10.7355 10.0847 11.2632 10.4101 11.5886L14.8208 15.9994L10.4101 20.4101C10.0847 20.7355 10.0847 21.2632 10.4101 21.5886C10.7356 21.914 11.2632 21.914 11.5886 21.5886L15.9994 17.1779L20.4101 21.5886C20.7355 21.9141 21.2632 21.9141 21.5886 21.5886C21.914 21.2632 21.914 20.7355 21.5886 20.4101L17.1779 15.9994L21.5886 11.5886C21.9141 11.2632 21.9141 10.7355 21.5886 10.4101C21.2632 10.0847 20.7356 10.0847 20.4101 10.4101L15.9994 14.8209L11.5886 10.4101Z" fill="#33383F"/>
</svg>
