<svg width="16" height="16" viewBox="0 0 16 16" fill="none" xmlns="http://www.w3.org/2000/svg">
<path d="M15 1.49684L10.9965 1.49685V0.500117C10.9965 0.223802 10.7727 0 10.4965 0C10.2203 0 9.9965 0.223802 9.9965 0.500117V1.4966H5.9965V0.500117C5.9965 0.223802 5.77275 0 5.4965 0C5.22025 0 4.9965 0.223802 4.9965 0.500117V1.4966H1C0.44775 1.4966 0 1.94446 0 2.49683V14.9998C0 15.5521 0.44775 16 1 16H15C15.5522 16 16 15.5521 16 14.9998V2.49683C16 1.94469 15.5522 1.49684 15 1.49684ZM15 14.9998H1V2.49683H4.9965V3.0007C4.9965 3.277 5.22025 3.50082 5.4965 3.50082C5.77275 3.50082 5.9965 3.277 5.9965 3.0007V2.49709H9.9965V3.00095C9.9965 3.27727 10.2203 3.50107 10.4965 3.50107C10.7727 3.50107 10.9965 3.27727 10.9965 3.00095V2.49709H15V14.9998ZM11.5 7.99836H12.5C12.776 7.99836 13 7.77431 13 7.49824V6.49801C13 6.22194 12.776 5.99789 12.5 5.99789H11.5C11.224 5.99789 11 6.22194 11 6.49801V7.49824C11 7.77431 11.224 7.99836 11.5 7.99836ZM11.5 11.999H12.5C12.776 11.999 13 11.7752 13 11.4989V10.4987C13 10.2226 12.776 9.99858 12.5 9.99858H11.5C11.224 9.99858 11 10.2226 11 10.4987V11.4989C11 11.7755 11.224 11.999 11.5 11.999ZM8.5 9.99858H7.5C7.224 9.99858 7 10.2226 7 10.4987V11.4989C7 11.7752 7.224 11.999 7.5 11.999H8.5C8.776 11.999 9 11.7752 9 11.4989V10.4987C9 10.2229 8.776 9.99858 8.5 9.99858ZM8.5 5.99789H7.5C7.224 5.99789 7 6.22194 7 6.49801V7.49824C7 7.77431 7.224 7.99836 7.5 7.99836H8.5C8.776 7.99836 9 7.77431 9 7.49824V6.49801C9 6.22169 8.776 5.99789 8.5 5.99789ZM4.5 5.99789H3.5C3.224 5.99789 3 6.22194 3 6.49801V7.49824C3 7.77431 3.224 7.99836 3.5 7.99836H4.5C4.776 7.99836 5 7.77431 5 7.49824V6.49801C5 6.22169 4.776 5.99789 4.5 5.99789ZM4.5 9.99858H3.5C3.224 9.99858 3 10.2226 3 10.4987V11.4989C3 11.7752 3.224 11.999 3.5 11.999H4.5C4.776 11.999 5 11.7752 5 11.4989V10.4987C5 10.2229 4.776 9.99858 4.5 9.99858Z" fill="#656565"/>
</svg>
