<svg width="20" height="20" viewBox="0 0 20 20" fill="none" xmlns="http://www.w3.org/2000/svg">
<path d="M6.9997 20C6.86841 20.0003 6.73836 19.9747 6.61701 19.9246C6.49566 19.8744 6.3854 19.8009 6.29257 19.708C6.19973 19.6152 6.12615 19.5049 6.07605 19.3836C6.02594 19.2622 6.0003 19.1322 6.0006 19.0009V16.0006H1.9982C1.7356 16.0004 1.4756 15.9485 1.23306 15.8478C0.990523 15.7471 0.770188 15.5997 0.584638 15.4138C0.399088 15.228 0.251957 15.0075 0.151644 14.7648C0.0513321 14.5221 -0.000196513 14.262 5.63171e-07 13.9994V1.9982C5.63171e-07 0.888089 0.90009 5.64018e-07 1.9982 5.64018e-07H18.0018C18.2643 -0.000196702 18.5242 0.0513536 18.7667 0.151703C19.0092 0.252052 19.2296 0.39923 19.4152 0.58482C19.6008 0.770409 19.7479 0.990767 19.8483 1.23329C19.9486 1.47581 20.0002 1.73574 20 1.9982V13.9994C20.0002 14.262 19.9487 14.5221 19.8484 14.7648C19.748 15.0075 19.6009 15.228 19.4154 15.4138C19.2298 15.5997 19.0095 15.7471 18.7669 15.8478C18.5244 15.9485 18.2644 16.0004 18.0018 16.0006H11.9014L8.20132 19.7097C7.9988 19.9002 7.74978 20 7.50075 20H6.9997ZM7.9988 13.9994V17.0822L11.0816 13.9994H18.0018V1.9982H1.9982V13.9994H7.9988Z" fill="#093731"/>
</svg>
