<svg width="18" height="16" viewBox="0 0 18 16" fill="none" xmlns="http://www.w3.org/2000/svg">
<path d="M14.85 14H3.15C2.9025 14 2.7 14.225 2.7 14.5V15.5C2.7 15.775 2.9025 16 3.15 16H14.85C15.0975 16 15.3 15.775 15.3 15.5V14.5C15.3 14.225 15.0975 14 14.85 14ZM16.65 4C15.9047 4 15.3 4.67188 15.3 5.5C15.3 5.72188 15.345 5.92812 15.4237 6.11875L13.3875 7.475C12.9544 7.7625 12.3947 7.6 12.1444 7.1125L9.85219 2.65625C10.1531 2.38125 10.35 1.96875 10.35 1.5C10.35 0.671875 9.74531 0 9 0C8.25469 0 7.65 0.671875 7.65 1.5C7.65 1.96875 7.84688 2.38125 8.14781 2.65625L5.85562 7.1125C5.60531 7.6 5.04281 7.7625 4.6125 7.475L2.57906 6.11875C2.655 5.93125 2.70281 5.72188 2.70281 5.5C2.70281 4.67188 2.09812 4 1.35281 4C0.6075 4 0 4.67188 0 5.5C0 6.32812 0.604688 7 1.35 7C1.42312 7 1.49625 6.9875 1.56656 6.975L3.6 13H14.4L16.4334 6.975C16.5037 6.9875 16.5769 7 16.65 7C17.3953 7 18 6.32812 18 5.5C18 4.67188 17.3953 4 16.65 4Z" fill="#FF385C"/>
</svg>
