<svg  viewBox="0 0 20 18" fill="none" xmlns="http://www.w3.org/2000/svg">
<path d="M1.6675 3.7604V15.3832H16.6675V17.0418H1.6675C1.4485 17.0426 1.2315 17.0003 1.02898 16.9173C0.826464 16.8342 0.642423 16.7121 0.48745 16.558C0.332477 16.4039 0.209629 16.2207 0.125974 16.0191C0.0423193 15.8175 -0.000491652 15.6014 4.25951e-06 15.3832V3.7604H1.6675ZM10.6494 7.12123L13.1744 6.90767L14.1675 4.58971L15.1587 6.90767L17.6831 7.12123L15.7669 8.77549L16.3425 11.2317L14.1675 9.96155L11.9925 11.2317L12.5656 8.77549L10.6494 7.12123ZM20 3.7604V12.061C20.0007 12.2793 19.958 12.4956 19.8744 12.6974C19.7908 12.8993 19.668 13.0826 19.5131 13.237C19.3581 13.3914 19.174 13.5137 18.9714 13.597C18.7688 13.6802 18.5517 13.7227 18.3325 13.7221H5C4.5578 13.7219 4.13377 13.5469 3.82108 13.2354C3.5084 12.9239 3.33267 12.5015 3.3325 12.061V2.09929C3.33267 1.88132 3.37593 1.66551 3.45982 1.46419C3.5437 1.26286 3.66658 1.07997 3.82142 0.925957C3.97626 0.77194 4.16004 0.649812 4.36226 0.566547C4.56448 0.483282 4.78119 0.440511 5 0.440674H10L11.6675 2.09929H18.3325C18.7747 2.09946 19.1987 2.27452 19.5114 2.586C19.8241 2.89749 19.9998 3.3199 20 3.7604ZM18.3325 3.7604H5V12.061H18.3325V3.7604Z" fill="#CCF005"/>
</svg>
