<svg  viewBox="0 0 59 59" fill="none" xmlns="http://www.w3.org/2000/svg">
<g filter="url(#filter0_d_281_2522)">
<circle cx="29.5" cy="26.5" r="24.5" fill="#44444410"/>
<circle cx="29.5" cy="26.5" r="24.25" stroke="#EBEBEB" stroke-opacity="0.2" stroke-width="0.5"/>
</g>
<g clip-path="url(#clip0_281_2522)">
<path d="M39.8175 33.0675L33.75 27L39.8175 20.9325C39.9337 20.8148 39.9989 20.6561 39.9989 20.4907C39.9989 20.3252 39.9337 20.1665 39.8175 20.0488L36.9512 17.1825C36.8933 17.1244 36.8244 17.0782 36.7486 17.0467C36.6728 17.0152 36.5915 16.999 36.5093 16.999C36.4272 16.999 36.3459 17.0152 36.2701 17.0467C36.1943 17.0782 36.1254 17.1244 36.0675 17.1825L30 23.25L23.9325 17.1825C23.8153 17.0654 23.6563 16.9995 23.4906 16.9995C23.3249 16.9995 23.1659 17.0654 23.0487 17.1825L20.1825 20.0488C20.1243 20.1067 20.0782 20.1756 20.0467 20.2514C20.0152 20.3273 19.999 20.4086 19.999 20.4907C19.999 20.5728 20.0152 20.6541 20.0467 20.7299C20.0782 20.8057 20.1243 20.8746 20.1825 20.9325L26.25 27L20.1825 33.0675C20.0653 33.1847 19.9995 33.3437 19.9995 33.5094C19.9995 33.6751 20.0653 33.8341 20.1825 33.9513L23.0487 36.8175C23.1067 36.8757 23.1755 36.9219 23.2514 36.9533C23.3272 36.9848 23.4085 37.001 23.4906 37.001C23.5727 37.001 23.654 36.9848 23.7298 36.9533C23.8057 36.9219 23.8745 36.8757 23.9325 36.8175L30 30.75L36.0675 36.8175C36.1847 36.9347 36.3436 37.0005 36.5093 37.0005C36.6751 37.0005 36.834 36.9347 36.9512 36.8175L39.8175 33.9513C39.8756 33.8933 39.9218 33.8245 39.9533 33.7486C39.9848 33.6728 40.001 33.5915 40.001 33.5094C40.001 33.4273 39.9848 33.346 39.9533 33.2702C39.9218 33.1943 39.8756 33.1255 39.8175 33.0675Z" fill="#000000"/>
</g>
<defs>
<filter id="filter0_d_281_2522" x="0" y="0" width="59" height="59" filterUnits="userSpaceOnUse" color-interpolation-filters="sRGB">
<feFlood flood-opacity="0" result="BackgroundImageFix"/>
<feColorMatrix in="SourceAlpha" type="matrix" values="0 0 0 0 0 0 0 0 0 0 0 0 0 0 0 0 0 0 127 0" result="hardAlpha"/>


<feComposite in2="hardAlpha" operator="out"/>

<feBlend mode="normal" in2="BackgroundImageFix" result="effect1_dropShadow_281_2522"/>
<feBlend mode="normal" in="SourceGraphic" in2="effect1_dropShadow_281_2522" result="shape"/>
</filter>
<clipPath id="clip0_281_2522">
<rect width="20" height="20" fill="#000000" transform="translate(20 17)"/>
</clipPath>
</defs>
</svg>
