<svg width="24" height="24" viewBox="0 0 24 24" fill="none" xmlns="http://www.w3.org/2000/svg">
<path d="M12 0C18.6303 0 24 5.36977 24 12C24 18.6308 18.6303 24 12 24C5.36974 24 0 18.6308 0 12C0 5.36977 5.36974 0 12 0ZM8.61183 5.22366C8.17617 5.22366 7.83183 5.59564 7.83026 6.03181C7.824 6.14607 7.8313 6.24053 7.83652 6.34331C6.07774 6.62818 4.69878 7.85634 4.69878 9.3986C4.69878 9.80086 4.93357 10.1478 5.26957 10.3221C5.0713 11.8816 5.58887 13.4546 6.66313 14.3812C6.96783 14.6421 7.31322 14.8231 7.67322 14.9499C7.82191 15.3527 8.17043 15.6574 8.61183 15.6574C9.05217 15.6574 9.39861 15.3532 9.54835 14.952C9.88483 14.8386 10.1995 14.6685 10.4786 14.4491C11.6035 13.5371 12.1597 11.9259 11.9562 10.3211C12.1264 10.2342 12.2695 10.1022 12.3698 9.93951C12.4701 9.77682 12.5237 9.58971 12.5249 9.3986C12.5249 7.85842 11.1438 6.6506 9.38713 6.36312C9.39026 6.25877 9.39443 6.15132 9.39443 6.03602C9.39443 5.67341 9.01617 5.32017 8.68591 5.22156L8.61183 5.22366ZM8.61078 5.74852H8.61183C8.7527 5.74852 8.8727 5.86591 8.8727 6.03809C8.8727 6.20087 8.86122 6.31461 8.86122 6.56244C8.86135 6.62665 8.88517 6.68856 8.92811 6.73631C8.97104 6.78405 9.03008 6.81427 9.09391 6.8212C10.7677 7.0059 12.0031 8.1167 12.0031 9.4007C12.0031 9.69392 11.7751 9.92244 11.4814 9.92244H5.74226C5.44852 9.92244 5.22052 9.69392 5.22052 9.4007C5.22052 8.15218 6.38609 7.06851 7.99096 6.83894H7.99304C8.03791 6.83216 8.0833 6.82644 8.1287 6.82175C8.19389 6.81482 8.25409 6.78358 8.29731 6.73427C8.34053 6.68496 8.36359 6.6212 8.36191 6.55565C8.35722 6.37826 8.34104 6.19565 8.34991 6.05426C8.35044 6.04854 8.35079 6.04278 8.35096 6.03703C8.35096 5.8659 8.46991 5.74957 8.61078 5.74852ZM17.207 9.51757C17.0772 9.53098 16.9525 9.57492 16.843 9.64584C16.7336 9.71676 16.6425 9.81263 16.5772 9.92556C16.5146 10.021 16.4744 10.1061 16.4275 10.1974C14.7621 9.56503 12.9548 9.93807 12.1837 11.2737C11.9823 11.6222 12.0115 12.0407 12.216 12.359C11.2649 13.6112 10.9252 15.2322 11.3927 16.5725C11.5256 16.9387 11.7256 17.277 11.9823 17.5701C11.9103 17.9937 12.06 18.4315 12.4424 18.6527C12.8243 18.8729 13.2767 18.7831 13.607 18.5097C13.9492 18.5739 14.3035 18.5938 14.6624 18.5385H14.6635C16.0941 18.311 17.3817 17.1939 18.0078 15.7018C18.1987 15.7116 18.3885 15.6687 18.5566 15.5779C18.7247 15.4871 18.8647 15.3518 18.961 15.1868C19.7311 13.8532 19.1384 12.1184 17.7616 10.9904C17.8169 10.9017 17.8737 10.8099 17.9317 10.7092C18.1127 10.3961 18.0183 10.0346 17.783 9.78417C17.7699 9.7273 17.6922 9.67824 17.628 9.64068C17.4918 9.57285 17.329 9.5066 17.207 9.51808V9.51757ZM17.628 9.64017C17.6619 9.65686 17.7026 9.67149 17.7308 9.68819L17.581 9.61043C17.5936 9.61773 17.6123 9.6313 17.628 9.64017ZM17.2998 10.0357C17.3337 10.0409 17.3661 10.0497 17.3969 10.0669H17.3979C17.52 10.1374 17.5649 10.2981 17.4793 10.4468C17.3979 10.5877 17.3311 10.6816 17.207 10.896C17.1748 10.9516 17.1644 11.0171 17.1776 11.08C17.1907 11.1428 17.2267 11.1987 17.2784 11.2367C18.636 12.2332 19.1515 13.8125 18.5097 14.9244C18.4761 14.9845 18.4307 15.0372 18.3764 15.0795C18.322 15.1217 18.2598 15.1527 18.1932 15.1706C18.1267 15.1884 18.0573 15.1928 17.9891 15.1834C17.9209 15.174 17.8552 15.151 17.796 15.1158L12.8264 12.2463C12.7664 12.2126 12.7137 12.1673 12.6715 12.113C12.6293 12.0586 12.5983 11.9964 12.5805 11.93C12.5626 11.8635 12.5582 11.7941 12.5676 11.726C12.577 11.6578 12.5999 11.5923 12.635 11.5331C13.259 10.452 14.8106 10.0967 16.3153 10.7003H16.3174C16.3591 10.7165 16.4009 10.7343 16.4442 10.7536C16.504 10.7798 16.5716 10.7826 16.6334 10.7615C16.6952 10.7403 16.7469 10.6967 16.7781 10.6393C16.8626 10.4838 16.9398 10.3174 17.0186 10.1995L17.028 10.1859C17.0535 10.1369 17.0929 10.0964 17.1412 10.0696C17.1896 10.0428 17.2447 10.0308 17.2998 10.0351V10.0357ZM5.77983 10.4442H11.4449C11.6061 11.8659 11.0917 13.2819 10.1504 14.0452C9.89942 14.2501 9.61219 14.406 9.30365 14.5049L9.15235 14.5529L9.12522 14.7088C9.10425 14.8296 9.04119 14.9391 8.94721 15.0178C8.85323 15.0965 8.73441 15.1394 8.61183 15.1388C8.48916 15.1395 8.37021 15.0966 8.27612 15.0179C8.18203 14.9392 8.11889 14.8297 8.09791 14.7088L8.07078 14.5529L7.91948 14.5049C7.58241 14.3965 7.27088 14.2208 7.00383 13.9883C6.10122 13.2094 5.6233 11.8247 5.77983 10.4442ZM6.50974 10.9659C6.47337 10.9676 6.43776 10.977 6.4052 10.9933C6.37265 11.0096 6.34387 11.0326 6.32072 11.0607C6.29758 11.0888 6.28057 11.1214 6.2708 11.1565C6.26103 11.1916 6.25872 11.2283 6.264 11.2644C6.39443 12.2437 6.8327 13.1458 7.53183 13.7478C7.7953 13.9753 8.13652 13.5798 7.87304 13.3523C7.2887 12.8494 6.89687 12.0631 6.78157 11.1949C6.77372 11.1294 6.74131 11.0692 6.69086 11.0266C6.64041 10.984 6.57569 10.9622 6.50974 10.9654V10.9659ZM12.599 12.719L17.5033 15.5504C16.9325 16.8626 15.779 17.833 14.5821 18.0235C14.2623 18.0751 13.9356 18.0665 13.619 17.9979L13.4645 17.964L13.3623 18.0856C13.2838 18.1796 13.1746 18.2429 13.054 18.2641C12.9334 18.2853 12.8091 18.2631 12.7033 18.2014C12.5966 18.1407 12.5149 18.0441 12.4727 17.9288C12.4304 17.8135 12.4305 17.6869 12.4727 17.5717L12.528 17.4219L12.42 17.3056C12.1825 17.0433 12.0008 16.7355 11.8857 16.4009C11.4934 15.275 11.772 13.8365 12.599 12.7179V12.719ZM12.8442 13.5063C12.7393 13.5063 12.6459 13.573 12.6073 13.6701C12.2306 14.5831 12.1597 15.5859 12.4638 16.4562C12.5703 16.8005 13.0873 16.62 12.9558 16.284C12.7017 15.5567 12.7555 14.6792 13.0894 13.8699C13.1066 13.8298 13.1135 13.786 13.1094 13.7426C13.1053 13.6991 13.0903 13.6574 13.0659 13.6212C13.0415 13.585 13.0085 13.5555 12.9697 13.5354C12.931 13.5154 12.8878 13.5054 12.8442 13.5063Z" fill="#CCCCCC"/>
</svg>
