<svg  viewBox="0 0 24 24" fill="none" xmlns="http://www.w3.org/2000/svg">
<path d="M20.1005 12.5932C19.9916 12.4686 19.8992 12.3326 19.8231 12.189C19.7857 16.0484 16.6349 19.1769 12.7667 19.1769C8.87536 19.1769 5.70944 16.011 5.70944 12.1196C5.70944 8.22829 8.87536 5.06237 12.7667 5.06237C16.1143 5.06237 18.9249 7.40538 19.645 10.5375L20.2841 5.78652L20.2985 5.6797C18.4787 3.55441 15.7775 2.20508 12.7667 2.20508C10.4178 2.20508 8.25738 3.0267 6.55681 4.39698V4.49956V4.59039V6.60271V6.68259C6.55681 8.02672 5.86016 9.25387 4.75781 9.95508V17.8209V17.9565C6.56273 20.4263 9.48022 22.034 12.7667 22.034C16.2202 22.034 19.2664 20.2588 21.0421 17.5733V17.428V13.2149C20.6818 13.0977 20.3554 12.8847 20.1005 12.5932Z" fill="#0096C7"/>
<path d="M12.7661 6.26172C9.5361 6.26172 6.9082 8.88954 6.9082 12.1197C6.9082 15.3498 9.53602 17.9776 12.7661 17.9776C15.9963 17.9776 18.6241 15.3498 18.6241 12.1197C18.6241 8.88954 15.9962 6.26172 12.7661 6.26172Z" fill="#0096C7"/>
<path d="M23.9742 1.1576C23.9742 0.647168 23.5604 0.233398 23.05 0.233398C22.5872 0.233398 22.1958 0.575688 22.1341 1.03439L20.7837 11.0727C20.7481 11.337 20.8284 11.6036 21.0039 11.8043C21.1794 12.005 21.4329 12.1201 21.6995 12.1201H22.2418V22.8874C22.2418 23.3732 22.6356 23.7669 23.1213 23.7669C23.607 23.7669 24.0008 23.3732 24.0008 22.8874L23.9742 1.1576Z" fill="#0096C7"/>
<path d="M5.35702 1.3526C5.35702 1.02134 5.08861 0.75293 4.75735 0.75293C4.4261 0.75293 4.15769 1.02134 4.15769 1.3526V4.67067H3.27818V1.3526C3.27818 1.02134 3.00976 0.75293 2.67851 0.75293C2.34725 0.75293 2.07884 1.02134 2.07884 1.3526V4.67067H1.19933V1.3526C1.19933 1.02134 0.930922 0.75293 0.599666 0.75293C0.268411 0.75293 0 1.02134 0 1.3526V6.76286C0 7.93173 0.752941 8.9275 1.799 9.29234V22.8873C1.799 23.373 2.19278 23.7668 2.67851 23.7668C3.16424 23.7668 3.55802 23.373 3.55802 22.8873V9.29234C4.60408 8.9275 5.35702 7.93173 5.35702 6.76286V1.3526Z" fill="#0096C7"/>
</svg>
