<svg viewBox="0 0 18 19" fill="none" xmlns="http://www.w3.org/2000/svg">
<path fill-rule="evenodd" clip-rule="evenodd" d="M7.194 11.6064C9.96075 11.6064 12.3255 12.0291 12.3255 13.7173C12.3255 15.4055 9.9765 15.8402 7.194 15.8402C4.4265 15.8402 2.0625 15.4214 2.0625 13.7324C2.0625 12.0434 4.41075 11.6064 7.194 11.6064Z" stroke="#7B6F72" stroke-width="1.2" stroke-linecap="round" stroke-linejoin="round"/>
<path fill-rule="evenodd" clip-rule="evenodd" d="M7.1938 9.19678C5.3773 9.19678 3.9043 7.7127 3.9043 5.88159C3.9043 4.05049 5.3773 2.56641 7.1938 2.56641C9.00955 2.56641 10.4825 4.05049 10.4825 5.88159C10.4893 7.70589 9.0268 9.18998 7.21705 9.19678H7.1938Z" stroke="#7B6F72" stroke-width="1.2" stroke-linecap="round" stroke-linejoin="round"/>
<path d="M12.3623 8.336C13.5631 8.16589 14.4878 7.12711 14.4901 5.86983C14.4901 4.6307 13.5938 3.6025 12.4186 3.4082" stroke="#7B6F72" stroke-width="1.2" stroke-linecap="round" stroke-linejoin="round"/>
<path d="M13.9473 11.2471C15.1105 11.4217 15.9228 11.833 15.9228 12.6797C15.9228 13.2626 15.5403 13.6407 14.9223 13.8773" stroke="#7B6F72" stroke-width="1.2" stroke-linecap="round" stroke-linejoin="round"/>
</svg>
