<svg  viewBox="0 0 24 24" fill="none" xmlns="http://www.w3.org/2000/svg">
<path d="M11.1656 5.32271L11.8987 5.80245L12.9618 5.07224C13.1323 4.95513 13.3124 4.87043 13.4964 4.8157L11.9594 3.8099C11.5853 3.5651 11.1044 3.70529 10.8852 4.12311C10.666 4.54087 10.7915 5.07791 11.1656 5.32271Z" fill="white"/>
<path d="M8.50721 4.83662C9.70313 4.83662 10.6726 3.75391 10.6726 2.41831C10.6726 1.08272 9.70313 0 8.50721 0C7.31128 0 6.3418 1.08272 6.3418 2.41831C6.3418 3.75391 7.31128 4.83662 8.50721 4.83662Z" fill="white"/>
<path d="M10.0775 15.1422C9.95435 14.7563 9.67719 14.4566 9.32786 14.3315L8.0912 13.8888L8.96325 10.4894L6.82718 8.49337L10.2614 10.2656C10.5596 10.4194 10.9069 10.3966 11.1869 10.2043L14.5256 7.91095C14.9872 7.59394 15.1312 6.91911 14.8473 6.40369C14.5635 5.88832 13.9593 5.72733 13.4977 6.04445L10.607 8.02999L7.65028 6.50415L9.31327 6.82098C9.12822 6.53926 8.86152 6.32115 8.5375 6.21747L6.14468 5.45186C5.75256 5.32639 5.33136 5.38948 4.98265 5.62587C4.634 5.86227 4.38953 6.25047 4.30825 6.69691L2.86557 14.6223C2.79088 15.0327 2.88518 15.4589 3.12243 15.7831C3.17636 15.8568 3.23661 15.9231 3.30152 15.9821H2.61833L1.56358 6.67986C1.50913 6.19959 1.11634 5.85929 0.686349 5.92039C0.256311 5.98119 -0.048147 6.41981 0.0063008 6.90007L1.1223 16.7421V23.1233C1.1223 23.6074 1.47367 23.9998 1.90716 23.9998C2.34065 23.9998 2.69203 23.6073 2.69203 23.1233V17.7351H6.66891V23.1233C6.66891 23.6074 7.02029 23.9998 7.45378 23.9998C7.88727 23.9998 8.23864 23.6073 8.23864 23.1233V17.2133L10.1254 23.126C10.3437 23.8101 11.0172 24.1669 11.6296 23.9232C12.242 23.6794 12.5616 22.9273 12.3434 22.2433L10.0775 15.1422Z" fill="white"/>
<path d="M23.8037 13.8867H11.3474C11.2386 13.8867 11.1504 13.9852 11.1504 14.1067V16.1211C11.1504 16.2426 11.2386 16.3411 11.3474 16.3411H16.7907V22.2462H15.843C15.4096 22.2462 15.0582 22.6386 15.0582 23.1227C15.0582 23.6068 15.4096 23.9992 15.843 23.9992H19.308C19.7415 23.9992 20.0929 23.6068 20.0929 23.1227C20.0929 22.6386 19.7415 22.2462 19.308 22.2462H18.3604V16.341H23.8037C23.9125 16.341 24.0007 16.2425 24.0007 16.121V14.1066C24.0007 13.9852 23.9125 13.8867 23.8037 13.8867Z" fill="black"/>
<path d="M12.7816 11.0114C12.7751 11.0427 12.7715 11.0745 12.7715 11.1065C12.7715 11.6393 13.5458 12.0988 14.6633 12.3112V12.6169C14.6633 12.8218 14.812 12.9879 14.9955 12.9879H17.1188C17.3022 12.9879 17.451 12.8218 17.451 12.6169V12.3112C18.5686 12.0988 19.3428 11.6394 19.3428 11.1065C19.3428 11.0745 19.3393 11.0429 19.3329 11.0116C19.3205 10.9503 19.2279 10.9043 19.1174 10.9043H12.9971C12.887 10.9043 12.7942 10.9503 12.7816 11.0114Z" fill="#FED198"/>
</svg>
