<svg width="18" height="18" viewBox="0 0 18 18" fill="none" xmlns="http://www.w3.org/2000/svg">
<path d="M16.8759 4.39112L13.7778 1.27723C13.5731 1.07354 13.296 0.959198 13.0073 0.959198C12.7185 0.959198 12.4414 1.07354 12.2367 1.27723L1.25364 12.2445L0.250863 16.5722C0.216271 16.7304 0.217457 16.8944 0.254334 17.0521C0.291212 17.2097 0.362849 17.3572 0.464013 17.4837C0.565178 17.6101 0.693313 17.7124 0.839059 17.783C0.984805 17.8536 1.14448 17.8907 1.30642 17.8917C1.38188 17.8993 1.45791 17.8993 1.53336 17.8917L5.90864 16.8889L16.8759 5.93223C17.0796 5.72751 17.1939 5.45047 17.1939 5.16167C17.1939 4.87288 17.0796 4.59584 16.8759 4.39112ZM5.38086 15.9389L1.28003 16.7992L2.2142 12.7775L10.4317 4.59167L13.5984 7.75834L5.38086 15.9389ZM14.3056 6.99306L11.1389 3.8264L12.9756 2.00029L16.0895 5.16695L14.3056 6.99306Z" fill="black"/>
</svg>
