<svg width="90" height="96" viewBox="0 0 90 96" fill="none" xmlns="http://www.w3.org/2000/svg">
<path d="M60.3127 17.4787C55.9941 13.7557 50.5337 11.3234 44.5273 10.7773" stroke="#C832D2" stroke-width="3" stroke-miterlimit="10" stroke-linecap="round" stroke-linejoin="round"/>
<path d="M19.8567 68.8809C15.9351 68.8809 12.7582 72.0578 12.7582 75.9793V82.4821H7V75.9793C7 72.4053 9.65572 69.4269 13.0808 68.9553C13.4035 68.9057 13.751 68.8809 14.0985 68.8809H19.8567Z" fill="#E5E2FF" fill-opacity="0.5"/>
<path d="M44.5287 10.8035C30.1332 12.119 18.865 24.2062 18.865 38.9492V68.9067H14.0996C13.7522 68.9067 13.4047 68.9315 13.082 68.9811V38.9492C13.082 23.3375 25.7401 10.7043 41.327 10.7043H41.8978C42.7913 10.6794 43.66 10.7043 44.5287 10.8035Z" fill="#E5E2FF" fill-opacity="0.5"/>
<path d="M12.7582 82.5075H7V76.0047C7 72.4307 9.65572 69.4523 13.0808 68.9807C13.4035 68.9311 13.751 68.9062 14.0985 68.9062H19.8567" stroke="#C832D2" stroke-width="2.48198" stroke-miterlimit="10" stroke-linecap="round" stroke-linejoin="round"/>
<path d="M75.9492 43.8809V68.8816" stroke="#C832D2" stroke-width="3" stroke-miterlimit="10" stroke-linecap="round" stroke-linejoin="round"/>
<path d="M18.865 68.8801H14.0996C13.7522 68.8801 13.4047 68.905 13.082 68.9546V38.9227C13.082 23.311 25.7401 10.6777 41.327 10.6777H41.8978C42.7665 10.6777 43.6352 10.7274 44.5039 10.8018" stroke="#C832D2" stroke-width="3" stroke-miterlimit="10" stroke-linecap="round" stroke-linejoin="round"/>
<path d="M19.8563 68.8809H74.9066C78.8281 68.8809 82.005 72.0578 82.005 75.9793V82.4821H12.7578" stroke="#C832D2" stroke-width="3" stroke-miterlimit="10" stroke-linecap="round" stroke-linejoin="round"/>
<path d="M38.5703 10.6787V5.34247C38.5703 3.67954 39.9354 2.31445 41.5983 2.31445H41.648C43.3109 2.31445 44.676 3.67954 44.676 5.34247V10.6787" stroke="#C832D2" stroke-width="3" stroke-miterlimit="10" stroke-linecap="round" stroke-linejoin="round"/>
<path d="M51.0322 84.5659C51.0322 89.7532 46.8128 93.9726 41.6255 93.9726C36.4381 93.9726 32.2188 89.7532 32.2188 84.5659C32.2188 83.8461 32.2932 83.176 32.4421 82.5059H50.8088C50.9577 83.1512 51.0322 83.8461 51.0322 84.5659Z" stroke="#C832D2" stroke-width="3" stroke-miterlimit="10" stroke-linecap="round" stroke-linejoin="round"/>
<path d="M19.7812 43.0938V58.8543" stroke="#C832D2" stroke-width="3" stroke-miterlimit="10" stroke-linecap="round" stroke-linejoin="round"/>
<path d="M19.7812 36.0938V37.7815" stroke="#C832D2" stroke-width="3" stroke-miterlimit="10" stroke-linecap="round" stroke-linejoin="round"/>
<path d="M62.8711 30.4606C62.8959 28.624 63.0697 27.0107 63.7398 25.4719C64.3603 24.0571 65.2786 22.8906 66.7678 22.3198C69.1505 21.4014 72.0296 21.9723 73.5684 24.7521C74.2137 25.9186 74.5364 27.1844 74.6853 28.4999C74.8342 29.6912 74.8342 30.8826 74.6853 32.0491C74.4868 33.6624 74.0648 35.2012 73.0472 36.5167C71.8807 38.0307 70.317 38.676 68.4307 38.5519C66.2218 38.403 64.7822 37.162 63.8639 35.2509C63.3179 34.1588 63.0697 32.9923 62.9704 31.7761C62.9207 31.3045 62.8959 30.7833 62.8711 30.4606ZM65.2786 30.2621C65.3034 31.4038 65.3779 32.5703 65.7254 33.6624C65.9736 34.4566 66.3707 35.2012 67.016 35.7473C68.1329 36.6904 70.2178 36.6656 71.285 35.0523C71.98 34.0099 72.253 32.8185 72.3523 31.6024C72.4515 30.4606 72.4515 29.3189 72.253 28.1772C72.1041 27.1844 71.831 26.2413 71.2354 25.4222C70.3418 24.1564 68.6789 23.7593 67.3635 24.5287C66.5692 25.0003 66.0977 25.7449 65.7998 26.5888C65.3779 27.7801 65.2786 29.0211 65.2786 30.2621Z" fill="#E88A23"/>
<path d="M55.4001 36.9376C54.308 34.8527 53.6875 32.47 53.6875 29.9384C53.6875 21.6486 60.4137 14.9473 68.6787 14.9473C76.9436 14.9473 83.6698 21.6734 83.6698 29.9384C83.6698 38.2034 76.9436 44.9296 68.6787 44.9296C65.7996 44.9296 63.119 44.1105 60.8108 42.7206" stroke="#E88A23" stroke-width="3" stroke-miterlimit="10" stroke-linecap="round" stroke-linejoin="round"/>
</svg>
