<svg  viewBox="0 0 24 32" fill="none" xmlns="http://www.w3.org/2000/svg">
<path d="M5.254 27.49V28.54H6.664V29.206H5.254V30.316H6.844V31H4.414V26.806H6.844V27.49H5.254ZM11.7354 27.628C12.1434 27.628 12.4714 27.754 12.7194 28.006C12.9714 28.254 13.0974 28.602 13.0974 29.05V31H12.2574V29.164C12.2574 28.904 12.1914 28.706 12.0594 28.57C11.9274 28.43 11.7474 28.36 11.5194 28.36C11.2914 28.36 11.1094 28.43 10.9734 28.57C10.8414 28.706 10.7754 28.904 10.7754 29.164V31H9.93536V29.164C9.93536 28.904 9.86936 28.706 9.73736 28.57C9.60536 28.43 9.42536 28.36 9.19736 28.36C8.96536 28.36 8.78136 28.43 8.64536 28.57C8.51336 28.706 8.44736 28.904 8.44736 29.164V31H7.60736V27.676H8.44736V28.078C8.55536 27.938 8.69336 27.828 8.86136 27.748C9.03336 27.668 9.22136 27.628 9.42536 27.628C9.68536 27.628 9.91736 27.684 10.1214 27.796C10.3254 27.904 10.4834 28.06 10.5954 28.264C10.7034 28.072 10.8594 27.918 11.0634 27.802C11.2714 27.686 11.4954 27.628 11.7354 27.628ZM13.6785 29.326C13.6785 28.99 13.7445 28.692 13.8765 28.432C14.0125 28.172 14.1945 27.972 14.4225 27.832C14.6545 27.692 14.9125 27.622 15.1965 27.622C15.4445 27.622 15.6605 27.672 15.8445 27.772C16.0325 27.872 16.1825 27.998 16.2945 28.15V27.676H17.1405V31H16.2945V30.514C16.1865 30.67 16.0365 30.8 15.8445 30.904C15.6565 31.004 15.4385 31.054 15.1905 31.054C14.9105 31.054 14.6545 30.982 14.4225 30.838C14.1945 30.694 14.0125 30.492 13.8765 30.232C13.7445 29.968 13.6785 29.666 13.6785 29.326ZM16.2945 29.338C16.2945 29.134 16.2545 28.96 16.1745 28.816C16.0945 28.668 15.9865 28.556 15.8505 28.48C15.7145 28.4 15.5685 28.36 15.4125 28.36C15.2565 28.36 15.1125 28.398 14.9805 28.474C14.8485 28.55 14.7405 28.662 14.6565 28.81C14.5765 28.954 14.5365 29.126 14.5365 29.326C14.5365 29.526 14.5765 29.702 14.6565 29.854C14.7405 30.002 14.8485 30.116 14.9805 30.196C15.1165 30.276 15.2605 30.316 15.4125 30.316C15.5685 30.316 15.7145 30.278 15.8505 30.202C15.9865 30.122 16.0945 30.01 16.1745 29.866C16.2545 29.718 16.2945 29.542 16.2945 29.338ZM18.3869 27.28C18.2389 27.28 18.1149 27.234 18.0149 27.142C17.9189 27.046 17.8709 26.928 17.8709 26.788C17.8709 26.648 17.9189 26.532 18.0149 26.44C18.1149 26.344 18.2389 26.296 18.3869 26.296C18.5349 26.296 18.6569 26.344 18.7529 26.44C18.8529 26.532 18.9029 26.648 18.9029 26.788C18.9029 26.928 18.8529 27.046 18.7529 27.142C18.6569 27.234 18.5349 27.28 18.3869 27.28ZM18.8009 27.676V31H17.9609V27.676H18.8009ZM20.4708 26.56V31H19.6308V26.56H20.4708Z" fill="black"/>
<path d="M0.126953 23.8367V10.4258L12.0191 17.457L0.126953 23.8367Z" fill="#FCD751"/>
<path d="M23.859 23.8367V10.4258L11.9668 17.457L23.859 23.8367Z" fill="#FCD751"/>
<path d="M0.126953 23.8367L11.9676 17.457L23.8598 23.8367H0.126953Z" fill="#FFA229"/>
<path d="M11.9676 0.113281L0.126953 10.4258L11.9676 17.457L23.8598 10.4258L11.9676 0.113281Z" fill="#FECA5C"/>
<path d="M11.9902 17.443L21.2574 11.9633V3.30078H2.82617V12.0242L11.9902 17.443Z" fill="#F2F2F2"/>
<path d="M14.8781 6.96484H5.57812V7.36797H14.8781V6.96484Z" fill="#CDCCCA"/>
<path d="M17.7887 6.31836H16.0918V8.01523H17.7887V6.31836Z" fill="white"/>
<path d="M14.8781 9.51562H5.57812V9.91875H14.8781V9.51562Z" fill="#CDCCCA"/>
<path d="M17.7887 8.86914H16.0918V10.566H17.7887V8.86914Z" fill="white"/>
<path d="M14.8781 11.7188H5.57812V12.1219H14.8781V11.7188Z" fill="#CDCCCA"/>
<path d="M14.8781 12.4082H5.57812V12.8113H14.8781V12.4082Z" fill="#CDCCCA"/>
<path d="M17.7887 11.4141H16.0918V13.1109H17.7887V11.4141Z" fill="white"/>
<path d="M16.8523 7.76172L16.2148 7.16172L16.3742 6.99297L16.8289 7.42422L17.4617 6.66016L17.6352 6.80547L16.8523 7.76172Z" fill="#333D47"/>
<path d="M16.8652 10.2656L16.2324 9.66562L16.3871 9.50156L16.8465 9.93281L17.4746 9.16406L17.6527 9.31406L16.8652 10.2656Z" fill="#333D47"/>
<path d="M17.7887 14.0117V13.9648H16.0918V15.0148L17.7887 14.0117Z" fill="white"/>
<path d="M7.20508 14.6113L7.88945 15.0145H14.8785V14.6113H7.20508Z" fill="#CDCCCA"/>
</svg>
