<svg width="19" height="19" viewBox="0 0 19 19" fill="none" xmlns="http://www.w3.org/2000/svg">
<path d="M4.23546 4.46501C3.52296 3.95834 3.34879 2.97667 3.84754 2.25626C4.34629 1.54376 5.33587 1.36959 6.05629 1.86834C6.76879 2.37501 6.94296 3.35667 6.44421 4.07709C5.93754 4.78959 4.95587 4.96376 4.23546 4.46501ZM12.6667 15.0417H7.06962C5.89796 15.0417 4.90046 14.1867 4.72629 13.0308L3.16671 5.54167H1.58337L3.15879 13.2683C3.30422 14.2033 3.7791 15.0555 4.49772 15.671C5.21634 16.2866 6.13134 16.6249 7.07754 16.625H12.6667V15.0417ZM12.8488 11.875H8.98546L8.17004 8.62917C9.42087 9.33376 10.7667 9.84834 12.2471 9.59501V7.90876C10.9567 8.15417 9.52379 7.69501 8.53421 6.91917L7.23587 5.91376C7.05379 5.77126 6.84796 5.67626 6.63421 5.61292C6.37993 5.53791 6.11193 5.52167 5.85046 5.56542H5.83462C5.36844 5.64819 4.95381 5.91175 4.681 6.29873C4.40819 6.68571 4.29927 7.16478 4.37796 7.63167L5.44671 12.3183C5.55113 12.8614 5.84131 13.3512 6.26745 13.7037C6.69359 14.0561 7.22911 14.2493 7.78212 14.25H13.205L16.2292 16.625L17.4167 15.4375L12.8488 11.875Z" fill="#656565"/>
</svg>
