<svg width="30" height="30" viewBox="0 0 30 30" fill="none" xmlns="http://www.w3.org/2000/svg">
<g clip-path="url(#clip0_2818_25068)">
<path d="M30 15C30 6.71573 23.2843 0 15 0C6.71573 0 0 6.71573 0 15C0 23.2843 6.71573 30 15 30C23.2843 30 30 23.2843 30 15Z" fill="#1778F2"/>
<path d="M16.1952 23.4668V15.4375H18.8904L19.2945 12.3083H16.1952V10.3105C16.1952 9.40456 16.4468 8.78715 17.746 8.78715H19.403V5.98922C18.601 5.90437 17.7949 5.86326 16.9884 5.8661C14.5993 5.8661 12.9637 7.3243 12.9637 10.0024V12.3083H10.2617V15.4375H12.9637V23.4668H16.1952Z" fill="#FDFDFD"/>
</g>
<defs>
<clipPath id="clip0_2818_25068">
<rect width="30" height="30" fill="white"/>
</clipPath>
</defs>
</svg>
