<svg width="20" height="21" viewBox="0 0 20 21" fill="none" xmlns="http://www.w3.org/2000/svg">
<path d="M16.5376 2.9797C20.321 6.95166 20.321 13.3918 16.5376 17.364C12.7545 21.337 6.6207 21.337 2.83758 17.364C-0.94586 13.3921 -0.94586 6.95198 2.83758 2.9797C6.6207 -0.993235 12.7541 -0.993235 16.5376 2.9797Z" fill="white"/>
<path d="M5.9375 5.25H13.4375" stroke="#183F92" stroke-width="1.6" stroke-miterlimit="10"/>
<path d="M10.9375 16.0781L6.25 11.4844V11.1562H8.4375C8.4375 11.1562 11.875 11.4844 11.875 8.20312C11.875 5.25 8.4375 5.25 8.4375 5.25H5.9375" fill="white"/>
<path d="M10.9375 16.0781L6.25 11.4844V11.1562H8.4375C8.4375 11.1562 11.875 11.4844 11.875 8.20312C11.875 5.25 8.4375 5.25 8.4375 5.25H5.9375" stroke="#183F92" stroke-width="1.6" stroke-miterlimit="10"/>
<path d="M5.9375 8H13.4375" stroke="#183F92" stroke-width="1.6" stroke-miterlimit="10"/>
</svg>
