<svg width="29" height="28" viewBox="0 0 29 28" fill="none" xmlns="http://www.w3.org/2000/svg">
<path d="M28.0627 9.8596L19.3691 8.58214L15.4828 0.616237C15.3766 0.398135 15.202 0.221576 14.9863 0.114257C14.4453 -0.155774 13.7879 0.0692515 13.5174 0.616237L9.63108 8.58214L0.937449 9.8596C0.697766 9.89422 0.478627 10.0085 0.310849 10.1816C0.108015 10.3923 -0.00375586 10.6759 9.63727e-05 10.97C0.0039486 11.264 0.123109 11.5445 0.331393 11.7498L6.62135 17.9501L5.13532 26.7054C5.10047 26.909 5.12276 27.1185 5.19967 27.31C5.27657 27.5015 5.405 27.6674 5.57041 27.7889C5.73581 27.9103 5.93157 27.9825 6.13548 27.9972C6.33939 28.0119 6.5433 27.9685 6.72408 27.872L14.5001 23.7385L22.2761 27.872C22.4884 27.9863 22.7349 28.0244 22.9711 27.9828C23.5669 27.879 23.9675 27.3077 23.8648 26.7054L22.3788 17.9501L28.6687 11.7498C28.8399 11.5802 28.9529 11.3586 28.9872 11.1163C29.0796 10.5104 28.6619 9.94961 28.0627 9.8596Z" fill="url(#paint0_linear_169_1281)"/>
<defs>
<linearGradient id="paint0_linear_169_1281" x1="14.5" y1="0" x2="14.5" y2="28" gradientUnits="userSpaceOnUse">
<stop stop-color="#FFAD0D"/>
<stop offset="1" stop-color="#EFA71C"/>
</linearGradient>
</defs>
</svg>
