<svg width="20" height="20" viewBox="0 0 20 20" fill="none" xmlns="http://www.w3.org/2000/svg">
<path d="M14.95 13.955C16.2629 12.6414 17.0004 10.8602 17.0004 9.00303C17.0004 7.14582 16.2629 5.36462 14.95 4.05103C14.3001 3.40071 13.5285 2.88481 12.6791 2.53284C11.8298 2.18086 10.9194 1.99969 10 1.99969C9.08061 1.99969 8.17024 2.18086 7.32089 2.53284C6.47155 2.88481 5.69989 3.40071 5.05 4.05103C3.73709 5.36462 2.99957 7.14582 2.99957 9.00303C2.99957 10.8602 3.73709 12.6414 5.05 13.955L6.571 15.454L8.614 17.439L8.747 17.557C9.522 18.185 10.657 18.145 11.387 17.439L13.822 15.069L14.95 13.955ZM10 12C9.20435 12 8.44129 11.684 7.87868 11.1213C7.31607 10.5587 7 9.79568 7 9.00003C7 8.20438 7.31607 7.44132 7.87868 6.87871C8.44129 6.3161 9.20435 6.00003 10 6.00003C10.7956 6.00003 11.5587 6.3161 12.1213 6.87871C12.6839 7.44132 13 8.20438 13 9.00003C13 9.79568 12.6839 10.5587 12.1213 11.1213C11.5587 11.684 10.7956 12 10 12Z" fill="#F24240"/>
</svg>
