<svg xmlns="http://www.w3.org/2000/svg" width="32" height="32">
    <pathc style="stroke:none;fill-rule:nonzero;fill-opacity:1" fill="currentColor" d="M2.668 8v18.668h24v2.664h-24A2.658 2.658 0 0 1 0 26.668V8h2.668m14.371 5.398 4.04-.343 1.589-3.723 1.586 3.723 4.039.343-3.066 2.657.921 3.945-3.48-2.04-3.48 2.04.917-3.945-3.066-2.657M32 8v13.332A2.66 2.66 0 0 1 29.332 24H8a2.669 2.669 0 0 1-2.668-2.668v-16A2.666 2.666 0 0 1 8 2.668h8l2.668 2.664h10.664A2.669 2.669 0 0 1 32 8m-2.668 0H8v13.332h21.332Zm0 0"/>
</svg>
