<svg width="17" height="17" viewBox="0 0 17 17" fill="none" xmlns="http://www.w3.org/2000/svg">
<path d="M16 5.16667L13.5 5.16667C13.058 5.16667 12.634 4.99107 12.3215 4.67851C12.0089 4.36595 11.8333 3.94203 11.8333 3.5L11.8333 1M11.8333 16L11.8333 13.5C11.8333 13.058 12.0089 12.634 12.3215 12.3215C12.634 12.0089 13.058 11.8333 13.5 11.8333L16 11.8333M1 11.8333L3.5 11.8333C3.94203 11.8333 4.36595 12.0089 4.67851 12.3215C4.99107 12.634 5.16667 13.058 5.16667 13.5L5.16667 16M5.16667 1L5.16667 3.5C5.16667 3.94203 4.99107 4.36595 4.67851 4.67851C4.36595 4.99107 3.94203 5.16667 3.5 5.16667L1 5.16667" stroke="white" stroke-width="1.66667" stroke-linecap="round" stroke-linejoin="round"/>
</svg>
