<svg width="15" height="17" viewBox="0 0 15 17" fill="none" xmlns="http://www.w3.org/2000/svg">
<path d="M13.75 4.36814H12.0238C12.4277 3.76681 12.5833 3.03251 12.4579 2.31905C12.3325 1.60558 11.9359 0.968307 11.3512 0.540708C10.7665 0.113108 10.039 -0.0716404 9.32108 0.0251621C8.60318 0.121965 7.95059 0.492807 7.5 1.06001C7.04941 0.492807 6.39682 0.121965 5.67892 0.0251621C4.96102 -0.0716404 4.23352 0.113108 3.64879 0.540708C3.06406 0.968307 2.66748 1.60558 2.54211 2.31905C2.41674 3.03251 2.57232 3.76681 2.97625 4.36814H1.25C0.918581 4.36847 0.600831 4.50027 0.366482 4.73462C0.132133 4.96897 0.000330923 5.28672 0 5.61814V8.11814C0.000330923 8.44955 0.132133 8.76731 0.366482 9.00165C0.600831 9.236 0.918581 9.3678 1.25 9.36814V15.6181C1.25033 15.9496 1.38213 16.2673 1.61648 16.5017C1.85083 16.736 2.16858 16.8678 2.5 16.8681H12.5C12.8314 16.8678 13.1492 16.736 13.3835 16.5017C13.6179 16.2673 13.7497 15.9496 13.75 15.6181V9.36814C14.0814 9.3678 14.3992 9.236 14.6335 9.00165C14.8679 8.76731 14.9997 8.44955 15 8.11814V5.61814C14.9997 5.28672 14.8679 4.96897 14.6335 4.73462C14.3992 4.50027 14.0814 4.36847 13.75 4.36814ZM8.125 2.80564C8.125 2.4966 8.21664 2.19451 8.38833 1.93756C8.56002 1.68061 8.80405 1.48034 9.08956 1.36207C9.37507 1.24381 9.68923 1.21287 9.99233 1.27316C10.2954 1.33345 10.5738 1.48226 10.7924 1.70078C11.0109 1.9193 11.1597 2.19771 11.22 2.50081C11.2803 2.8039 11.2493 3.11807 11.1311 3.40358C11.0128 3.68909 10.8125 3.93312 10.5556 4.10481C10.2986 4.2765 9.99653 4.36814 9.6875 4.36814H8.125V2.80564ZM5.3125 1.24314C5.72675 1.24363 6.12389 1.40841 6.41681 1.70133C6.70972 1.99425 6.8745 2.39139 6.875 2.80564V4.36814H5.3125C4.8981 4.36814 4.50067 4.20352 4.20765 3.91049C3.91462 3.61746 3.75 3.22004 3.75 2.80564C3.75 2.39123 3.91462 1.99381 4.20765 1.70078C4.50067 1.40776 4.8981 1.24314 5.3125 1.24314ZM1.25 5.61814H6.875V8.11814H1.25V5.61814ZM2.5 9.36814H6.875V15.6181H2.5V9.36814ZM12.5006 15.6181H8.125V9.36814H12.5L12.5006 15.6181ZM8.125 8.11814V5.61814H13.75L13.7506 8.11814H8.125Z" fill="#fff"/>
</svg>
