<svg width="24" height="24" viewBox="0 0 24 24" fill="none" xmlns="http://www.w3.org/2000/svg">
<path d="M23.1064 9.38175H22.1667V9.33333H11.6667V14H18.2601C17.2982 16.7166 14.7134 18.6667 11.6667 18.6667C7.80092 18.6667 4.66667 15.5324 4.66667 11.6667C4.66667 7.80092 7.80092 4.66667 11.6667 4.66667C13.4511 4.66667 15.0745 5.33983 16.3106 6.43942L19.6105 3.1395C17.5268 1.19758 14.7397 0 11.6667 0C5.22375 0 0 5.22375 0 11.6667C0 18.1096 5.22375 23.3333 11.6667 23.3333C18.1096 23.3333 23.3333 18.1096 23.3333 11.6667C23.3333 10.8844 23.2528 10.1208 23.1064 9.38175Z" fill="#FFC107"/>
<path d="M1.34515 6.23642L5.17824 9.0475C6.2154 6.47967 8.72724 4.66667 11.6667 4.66667C13.4511 4.66667 15.0745 5.33983 16.3106 6.43942L19.6105 3.1395C17.5268 1.19758 14.7397 0 11.6667 0C7.18549 0 3.29932 2.52992 1.34515 6.23642Z" fill="#FF3D00"/>
<path d="M11.6666 23.3333C14.6801 23.3333 17.4183 22.1801 19.4886 20.3047L15.8777 17.2492C14.667 18.1699 13.1877 18.6679 11.6666 18.6667C8.63214 18.6667 6.05556 16.7317 5.08489 14.0315L1.2804 16.9627C3.21123 20.741 7.13239 23.3333 11.6666 23.3333Z" fill="#4CAF50"/>
<path d="M23.1064 9.38167H22.1666V9.33325H11.6666V13.9999H18.26C17.7999 15.2928 16.9711 16.4226 15.876 17.2497L15.8777 17.2485L19.4885 20.304C19.233 20.5362 23.3333 17.4999 23.3333 11.6666C23.3333 10.8843 23.2528 10.1208 23.1064 9.38167Z" fill="#1976D2"/>
</svg>
