<svg width="18" height="18" viewBox="0 0 18 18" fill="none" xmlns="http://www.w3.org/2000/svg">
<g clip-path="url(#clip0_1463_20714)">
<path d="M15.5445 3.81554C15.1852 3.45606 14.7585 3.1709 14.289 2.97634C13.8194 2.78178 13.3162 2.68164 12.8079 2.68164C12.2996 2.68164 11.7964 2.78178 11.3268 2.97634C10.8573 3.1709 10.4306 3.45606 10.0713 3.81554L9.32563 4.56124L8.57993 3.81554C7.85415 3.08976 6.86977 2.68202 5.84336 2.68202C4.81695 2.68202 3.83257 3.08976 3.10679 3.81554C2.38101 4.54132 1.97327 5.5257 1.97327 6.55211C1.97327 7.57852 2.38101 8.5629 3.10679 9.28868L3.85249 10.0344L9.32563 15.5075L14.7988 10.0344L15.5445 9.28868C15.9039 8.92937 16.1891 8.50275 16.3837 8.0332C16.5782 7.56365 16.6784 7.06037 16.6784 6.55211C16.6784 6.04385 16.5782 5.54057 16.3837 5.07102C16.1891 4.60147 15.9039 4.17485 15.5445 3.81554V3.81554Z" stroke="#3EB778" stroke-width="1.40698" stroke-linecap="round" stroke-linejoin="round"/>
<path d="M5.9418 2.65689C3.24412 2.31968 2.2887 5.60747 2.14819 7.29352V7.71503L9.31389 15.3022L16.9011 7.71503L16.0581 4.34294L12.686 2.65689L9.31389 4.76445L5.9418 2.65689Z" fill="#3EB778"/>
</g>
<defs>
<clipPath id="clip0_1463_20714">
<rect width="16.8837" height="16.8837" fill="white" transform="translate(0.883667 0.572266)"/>
</clipPath>
</defs>
</svg>
