<svg width="19" height="15" viewBox="0 0 4 10" fill="none" xmlns="http://www.w3.org/2000/svg">
<path fill-rule="evenodd" clip-rule="evenodd" d="M1.24855 1.42756V8.57285L0.711653 8.03096C0.550168 7.86781 0.286297 7.86657 0.123147 8.02847C-0.0400032 8.18995 -0.0412516 8.45382 0.12065 8.61697L1.36925 9.8768C1.44708 9.95546 1.55321 10 1.66392 10C1.77463 10.0004 1.88076 9.95671 1.959 9.87805L3.2076 8.62946C3.36992 8.46714 3.36992 8.20327 3.2076 8.04095C3.04528 7.87863 2.78141 7.87863 2.61909 8.04095L2.08095 8.5791V1.4209L2.61909 1.95905C2.78141 2.12137 3.04528 2.12137 3.2076 1.95905C3.36992 1.79673 3.36992 1.53286 3.2076 1.37054L1.959 0.121949C1.88076 0.0437038 1.77463 -0.00041328 1.66392 2.91833e-06C1.55321 0.000419117 1.44708 0.0445361 1.36925 0.123198L0.12065 1.38303C-0.0412516 1.54618 -0.0400032 1.81005 0.123147 1.97195C0.286297 2.13343 0.550168 2.13219 0.711653 1.96904L1.24855 1.42756Z" fill="#251F39" fill-opacity="0.7"/>
</svg>
