<svg width="68" height="68" viewBox="0 0 68 68" fill="none" xmlns="http://www.w3.org/2000/svg">
<circle cx="34" cy="34" r="34" fill="#E8FFF4"/>
<path d="M40.75 20.5C45.307 20.5 49 24.25 49 29.5C49 40 37.75 46 34 48.25C31.033 46.4695 23.374 42.3445 20.302 35.5H27.349L28.75 33.166L33.25 40.666L36.349 35.5H41.5V32.5H34.651L33.25 34.834L28.75 27.334L25.651 32.5H19.315C19.111 31.5445 19 30.544 19 29.5C19 24.25 22.75 20.5 27.25 20.5C30.04 20.5 32.5 22 34 23.5C35.5 22 37.96 20.5 40.75 20.5Z" fill="#52D092"/>
</svg>
