<svg width="44" height="40" viewBox="0 0 44 40" fill="none" xmlns="http://www.w3.org/2000/svg">
<path d="M32.125 0.593539C30.5729 0.58763 29.035 0.89043 27.601 1.48432C26.167 2.07822 24.8654 2.95134 23.7719 4.05291L21.8102 6.01463C20.4297 3.86819 18.3912 2.22654 15.9998 1.33539C13.6085 0.444233 10.9928 0.351509 8.54429 1.07109C6.09581 1.79068 3.94621 3.28386 2.41723 5.32717C0.888249 7.37048 0.062124 9.854 0.0625001 12.406C0.0625001 18.6076 3.71172 25.0201 10.8836 31.4959C14.1853 34.4401 17.7672 37.0542 21.5781 39.3006C21.7082 39.3689 21.853 39.4047 22 39.4047C22.147 39.4047 22.2918 39.3689 22.4219 39.3006C26.2328 37.0542 29.8147 34.4401 33.1164 31.4959C40.2883 25.0201 43.9375 18.6076 43.9375 12.406C43.9375 9.27317 42.693 6.26861 40.4777 4.05334C38.2624 1.83807 35.2579 0.593539 32.125 0.593539ZM22 37.592C19.0891 35.8412 1.75 24.999 1.75 12.406C1.74817 10.1861 2.47597 8.02707 3.8214 6.26129C5.16683 4.49551 7.0553 3.22084 9.19613 2.63349C11.337 2.04614 13.6115 2.17866 15.6696 3.01065C17.7278 3.84264 19.4555 5.32799 20.5867 7.23807L17.0219 10.8029C16.9422 10.8814 16.8788 10.975 16.8356 11.0782C16.7924 11.1814 16.7702 11.2922 16.7702 11.4041C16.7702 11.516 16.7924 11.6267 16.8356 11.73C16.8788 11.8332 16.9422 11.9267 17.0219 12.0053L23.1813 18.1435L20.3969 20.9279C20.3172 21.0064 20.2538 21.1 20.2106 21.2032C20.1674 21.3064 20.1452 21.4172 20.1452 21.5291C20.1452 21.641 20.1674 21.7517 20.2106 21.855C20.2538 21.9582 20.3172 22.0517 20.3969 22.1303C20.5606 22.2815 20.7752 22.3654 20.998 22.3654C21.2209 22.3654 21.4355 22.2815 21.5992 22.1303L24.9742 18.7553C25.1254 18.5916 25.2094 18.3769 25.2094 18.1541C25.2094 17.9312 25.1254 17.7166 24.9742 17.5529L18.8148 11.3935L22.2109 7.99745H22.232L24.9742 5.27635C25.9067 4.32616 27.0195 3.57175 28.2475 3.0574C29.4754 2.54304 30.7937 2.2791 32.125 2.28104C34.8103 2.28104 37.3857 3.34778 39.2845 5.24658C41.1833 7.14539 42.25 9.72072 42.25 12.406C42.25 24.999 24.9109 35.8412 22 37.592Z" fill="#FF385C" fill-opacity="0.3"/>
</svg>
