<svg width="37" height="12" viewBox="0 0 37 12" fill="none" xmlns="http://www.w3.org/2000/svg">
<path d="M0.819756 1.2C0.978423 1.2 1.11376 1.256 1.22576 1.368C1.33776 1.47067 1.39376 1.606 1.39376 1.774V10.426C1.39376 10.5847 1.33309 10.72 1.21176 10.832C1.09976 10.944 0.964423 11 0.805756 11C0.628423 11 0.488423 10.944 0.385756 10.832C0.283089 10.72 0.231756 10.5847 0.231756 10.426V1.774C0.231756 1.606 0.287756 1.47067 0.399756 1.368C0.511756 1.256 0.651756 1.2 0.819756 1.2ZM7.27376 1.2C7.44176 1.2 7.57709 1.256 7.67976 1.368C7.79176 1.47067 7.84776 1.606 7.84776 1.774V10.426C7.84776 10.5847 7.79176 10.72 7.67976 10.832C7.56776 10.944 7.42776 11 7.25976 11C7.10109 11 6.96576 10.944 6.85376 10.832C6.74176 10.72 6.68576 10.5847 6.68576 10.426V1.774C6.68576 1.606 6.74176 1.47067 6.85376 1.368C6.97509 1.256 7.11509 1.2 7.27376 1.2ZM0.763756 5.47H7.28776L7.27376 6.562H0.721756L0.763756 5.47ZM11.1899 10.426C11.1899 10.5847 11.1339 10.72 11.0219 10.832C10.9193 10.944 10.7886 11 10.6299 11C10.4619 11 10.3266 10.944 10.2239 10.832C10.1213 10.72 10.0699 10.5847 10.0699 10.426V4.21C10.0699 4.05133 10.1213 3.92067 10.2239 3.818C10.3359 3.706 10.4713 3.65 10.6299 3.65C10.7886 3.65 10.9193 3.706 11.0219 3.818C11.1339 3.92067 11.1899 4.05133 11.1899 4.21V10.426ZM10.6299 2.712C10.3966 2.712 10.2239 2.66533 10.1119 2.572C9.99993 2.47867 9.94393 2.334 9.94393 2.138V1.942C9.94393 1.746 10.0046 1.60133 10.1259 1.508C10.2473 1.41467 10.4199 1.368 10.6439 1.368C10.8679 1.368 11.0359 1.41467 11.1479 1.508C11.2599 1.60133 11.3159 1.746 11.3159 1.942V2.138C11.3159 2.334 11.2553 2.47867 11.1339 2.572C11.0219 2.66533 10.8539 2.712 10.6299 2.712ZM16.7998 3.58C17.4344 3.58 17.9338 3.71067 18.2978 3.972C18.6618 4.23333 18.9184 4.58333 19.0678 5.022C19.2264 5.46067 19.3058 5.95067 19.3058 6.492V10.426C19.3058 10.5847 19.2498 10.72 19.1378 10.832C19.0351 10.944 18.9044 11 18.7458 11C18.5871 11 18.4518 10.944 18.3398 10.832C18.2371 10.72 18.1858 10.5847 18.1858 10.426V6.52C18.1858 6.16533 18.1298 5.848 18.0178 5.568C17.9151 5.27867 17.7378 5.05 17.4858 4.882C17.2431 4.70467 16.9071 4.616 16.4778 4.616C16.0858 4.616 15.7264 4.70467 15.3998 4.882C15.0731 5.05 14.8118 5.27867 14.6158 5.568C14.4198 5.848 14.3218 6.16533 14.3218 6.52V10.426C14.3218 10.5847 14.2658 10.72 14.1538 10.832C14.0511 10.944 13.9204 11 13.7618 11C13.6031 11 13.4678 10.944 13.3558 10.832C13.2531 10.72 13.2018 10.5847 13.2018 10.426V4.322C13.2018 4.16333 13.2531 4.03267 13.3558 3.93C13.4678 3.818 13.6031 3.762 13.7618 3.762C13.9298 3.762 14.0651 3.818 14.1678 3.93C14.2704 4.03267 14.3218 4.16333 14.3218 4.322V5.316L14.0418 5.624C14.0884 5.38133 14.1958 5.13867 14.3638 4.896C14.5318 4.644 14.7418 4.42 14.9938 4.224C15.2458 4.028 15.5258 3.874 15.8338 3.762C16.1418 3.64067 16.4638 3.58 16.7998 3.58ZM27.3416 0.64C27.5002 0.64 27.6309 0.696 27.7336 0.807999C27.8456 0.910666 27.9016 1.04133 27.9016 1.2V10.426C27.9016 10.5847 27.8456 10.72 27.7336 10.832C27.6309 10.944 27.5002 11 27.3416 11C27.1736 11 27.0382 10.944 26.9356 10.832C26.8329 10.72 26.7816 10.5847 26.7816 10.426V9.096L27.0476 8.998C27.0476 9.222 26.9776 9.46 26.8376 9.712C26.6976 9.95467 26.5062 10.1833 26.2636 10.398C26.0209 10.6127 25.7316 10.79 25.3956 10.93C25.0689 11.07 24.7142 11.14 24.3316 11.14C23.7062 11.14 23.1369 10.9767 22.6236 10.65C22.1196 10.3233 21.7182 9.87533 21.4196 9.306C21.1302 8.73667 20.9856 8.088 20.9856 7.36C20.9856 6.62267 21.1302 5.96933 21.4196 5.4C21.7182 4.83067 22.1196 4.38733 22.6236 4.07C23.1276 3.74333 23.6876 3.58 24.3036 3.58C24.6956 3.58 25.0642 3.64533 25.4096 3.776C25.7549 3.90667 26.0536 4.084 26.3056 4.308C26.5669 4.532 26.7722 4.77933 26.9216 5.05C27.0709 5.32067 27.1456 5.59133 27.1456 5.862L26.7816 5.778V1.2C26.7816 1.04133 26.8329 0.910666 26.9356 0.807999C27.0382 0.696 27.1736 0.64 27.3416 0.64ZM24.4576 10.104C24.9242 10.104 25.3349 9.98733 25.6896 9.754C26.0536 9.51133 26.3336 9.18467 26.5296 8.774C26.7349 8.354 26.8376 7.88267 26.8376 7.36C26.8376 6.828 26.7349 6.35667 26.5296 5.946C26.3336 5.53533 26.0536 5.21333 25.6896 4.98C25.3349 4.73733 24.9242 4.616 24.4576 4.616C24.0002 4.616 23.5896 4.73733 23.2256 4.98C22.8709 5.21333 22.5909 5.53533 22.3856 5.946C22.1802 6.35667 22.0776 6.828 22.0776 7.36C22.0776 7.87333 22.1802 8.34 22.3856 8.76C22.5909 9.17067 22.8709 9.49733 23.2256 9.74C23.5896 9.98267 24.0002 10.104 24.4576 10.104ZM35.6139 3.762C35.7819 3.762 35.9172 3.818 36.0199 3.93C36.1226 4.03267 36.1739 4.16333 36.1739 4.322V8.144C36.1739 9.08667 35.9079 9.81933 35.3759 10.342C34.8532 10.8553 34.1206 11.112 33.1779 11.112C32.2446 11.112 31.5119 10.8553 30.9799 10.342C30.4572 9.81933 30.1959 9.08667 30.1959 8.144V4.322C30.1959 4.16333 30.2472 4.03267 30.3499 3.93C30.4619 3.818 30.5972 3.762 30.7559 3.762C30.9239 3.762 31.0592 3.818 31.1619 3.93C31.2646 4.03267 31.3159 4.16333 31.3159 4.322V8.144C31.3159 8.77867 31.4792 9.25933 31.8059 9.586C32.1326 9.91267 32.5899 10.076 33.1779 10.076C33.7846 10.076 34.2466 9.91267 34.5639 9.586C34.8906 9.25933 35.0539 8.77867 35.0539 8.144V4.322C35.0539 4.16333 35.1052 4.03267 35.2079 3.93C35.3199 3.818 35.4552 3.762 35.6139 3.762Z" fill="#454555"/>
</svg>
