<svg width="70" height="70" viewBox="0 0 70 70" fill="none" xmlns="http://www.w3.org/2000/svg">
<rect width="70" height="70" rx="8" fill="#C832D2"/>
<path d="M36.5692 23.0203C36.5692 22.2313 35.9296 21.5917 35.1406 21.5917C34.3516 21.5917 33.7121 22.2313 33.7121 23.0203L33.712 33.7136L23.0188 33.7136C22.2299 33.7136 21.5903 34.3532 21.5903 35.1422C21.5903 35.9311 22.2299 36.5707 23.0188 36.5707L33.712 36.5707L33.712 47.2639C33.712 48.0529 34.3516 48.6925 35.1406 48.6925C35.9296 48.6925 36.5692 48.0529 36.5692 47.2639L36.5692 36.5707L47.2625 36.5707C48.0514 36.5707 48.691 35.9311 48.691 35.1421C48.691 34.3532 48.0514 33.7136 47.2625 33.7136L36.5692 33.7136L36.5692 23.0203Z" fill="white"/>
</svg>
