<svg width="292" height="312" viewBox="0 0 292 312" fill="none" xmlns="http://www.w3.org/2000/svg">
<path d="M108.324 40.3575C135.339 46.0778 151.152 79.4634 145.431 106.479C139.711 133.494 121.714 158.698 94.6985 152.978C67.6833 147.258 41.8802 112.779 47.6005 85.7635C53.3208 58.7483 81.3083 34.6372 108.324 40.3575Z" fill="#FF385C" fill-opacity="0.15"/>
<path d="M201.619 219.259C181.532 213.234 173.691 180.203 181.625 153.753C189.558 127.303 213.913 96.9758 234 103.001C254.087 109.025 262.299 149.121 254.365 175.571C246.432 202.021 221.706 225.284 201.619 219.259Z" fill="#FF385C" fill-opacity="0.15"/>
<path d="M285.602 61.1435C283.613 60.5468 282.516 58.3429 283.001 56.7266C283.486 55.1102 285.505 53.4161 287.494 54.0128C289.484 54.6095 290.69 57.271 290.205 58.8874C289.72 60.5038 287.592 61.7402 285.602 61.1435Z" fill="#FF385C" fill-opacity="0.15"/>
<path d="M239.602 268.143C237.613 267.547 236.516 265.343 237.001 263.727C237.486 262.11 239.505 260.416 241.494 261.013C243.484 261.61 244.69 264.271 244.205 265.887C243.72 267.504 241.592 268.74 239.602 268.143Z" fill="#FF385C" fill-opacity="0.15"/>
<path d="M173.602 33.1435C171.613 32.5468 170.516 30.3429 171.001 28.7266C171.486 27.1102 173.505 25.4161 175.494 26.0128C177.484 26.6095 178.69 29.271 178.205 30.8874C177.72 32.5038 175.592 33.7402 173.602 33.1435Z" fill="#FF385C" fill-opacity="0.15"/>
<path d="M24.6022 134.143C22.6128 133.547 21.5159 131.343 22.0008 129.727C22.4856 128.11 24.5049 126.416 26.4944 127.013C28.4838 127.61 29.6899 130.271 29.2051 131.887C28.7203 133.504 26.5916 134.74 24.6022 134.143Z" fill="#FF385C" fill-opacity="0.15"/>
<path d="M18.1474 242.356C16.9615 242 16.3442 240.564 16.6676 239.486C16.9911 238.407 18.2398 237.248 19.4258 237.604C20.6118 237.959 21.2859 239.696 20.9625 240.774C20.6391 241.852 19.3334 242.711 18.1474 242.356Z" fill="#FF385C" fill-opacity="0.15"/>
<path d="M199.147 271.356C197.961 271 197.344 269.564 197.668 268.486C197.991 267.407 199.24 266.248 200.426 266.604C201.612 266.959 202.286 268.696 201.962 269.774C201.639 270.852 200.333 271.711 199.147 271.356Z" fill="#FF385C" fill-opacity="0.15"/>
<path d="M235.147 19.3558C233.961 19 233.344 17.5641 233.668 16.4858C233.991 15.4075 235.24 14.2478 236.426 14.6035C237.612 14.9593 238.286 16.6957 237.962 17.774C237.639 18.8523 236.333 19.7115 235.147 19.3558Z" fill="#FF385C" fill-opacity="0.15"/>
<path d="M73.1474 5.35576C71.9615 5.00004 71.3442 3.56414 71.6676 2.4858C71.9911 1.40746 73.2398 0.247801 74.4258 0.603529C75.6118 0.959257 76.2859 2.69567 75.9625 3.77401C75.6391 4.85235 74.3334 5.71149 73.1474 5.35576Z" fill="#FF385C" fill-opacity="0.15"/>
<path d="M2.14745 62.3558C0.961456 62 0.34421 60.5641 0.667649 59.4858C0.991089 58.4075 2.23984 57.2478 3.42583 57.6035C4.61182 57.9593 5.28594 59.6957 4.9625 60.774C4.63906 61.8523 3.33343 62.7115 2.14745 62.3558Z" fill="#FF385C" fill-opacity="0.15"/>
<path d="M132.209 286.777C114.35 297.945 88.2138 288.353 77.2576 270.832C66.3014 253.311 64.4463 222.658 82.3048 211.49C100.163 200.323 130.973 212.87 141.929 230.391C152.885 247.912 150.067 275.61 132.209 286.777Z" fill="#FF385C" fill-opacity="0.15"/>
<path d="M235.282 208.42C239.479 213.818 242.56 219.867 245.56 225.962C246.017 226.849 246.392 227.776 246.681 228.73C246.765 228.984 246.781 229.256 246.727 229.518C246.673 229.78 246.552 230.023 246.375 230.224C245.995 230.714 245.506 231.108 244.947 231.377C243.37 232.174 241.751 232.887 240.097 233.511C236.74 234.769 233.696 236.736 231.173 239.278C229.375 241.071 227.635 242.911 225.901 244.762C223.45 247.374 220.699 249.52 217.126 250.437C214.388 251.08 211.548 251.171 208.774 250.702C204.542 250.125 200.456 248.845 196.288 247.968C194.921 247.587 193.528 247.306 192.12 247.126C191.34 247.322 190.618 246.988 189.872 246.896C188.074 246.682 186.305 246.06 184.462 246.515C184.149 246.394 183.814 246.341 183.479 246.36C183.144 246.379 182.817 246.469 182.519 246.625C181.537 246.791 180.57 247.04 179.629 247.369C175.96 248.629 172.068 249.112 168.201 248.787C167.662 248.657 167.109 248.589 166.554 248.585C165.822 248.563 165.099 248.419 164.415 248.159C159.502 246.469 154.589 246.729 149.658 248.084C145.207 249.306 140.803 250.69 136.294 251.699C129.88 253.184 123.164 252.671 117.051 250.229C112.038 248.367 107.216 246.028 102.652 243.245C102.083 242.926 101.541 242.56 101.034 242.15C99.9991 241.198 99.2072 240.235 99.4037 238.586C99.8488 234.832 100.86 231.216 101.768 227.571C102.984 222.605 104.773 217.797 107.097 213.241C110.751 206.171 114.878 199.401 119.999 193.242C124.433 187.919 129.398 183.121 134.404 178.346C139.41 173.571 144.912 169.598 149.762 164.76C151.583 162.949 153.525 161.259 155.184 159.281C155.389 158.953 155.695 158.7 156.057 158.561C158.641 159.229 161.201 158.832 163.652 158.065C168.392 156.577 172.947 154.605 176.947 151.623C179.034 150.049 180.8 148.092 182.149 145.856C182.378 145.334 182.571 144.796 182.727 144.247C183.41 143.999 183.34 144.622 183.45 144.928C184.201 146.987 185.08 148.965 185.993 150.977C188.606 156.64 192.242 161.628 196.196 166.409C201.217 172.473 206.611 178.22 212.346 183.617C215.167 186.281 217.976 188.969 220.647 191.771C225.438 196.8 230.34 201.736 234.612 207.238C234.946 207.559 235.179 207.969 235.282 208.42Z" fill="#251F39"/>
<path d="M178.964 79.435C178.964 80.1212 178.993 80.8132 179.016 81.4995C179.093 83.3442 178.877 85.1893 178.375 86.9664C178.274 87.1664 178.254 87.3974 178.318 87.6119C178.383 87.8263 178.527 88.008 178.722 88.1197C179.069 88.3562 179.358 88.6964 179.681 88.9501C182.664 91.4817 183.959 94.7688 183.988 98.6037C184.036 99.2385 183.937 99.8757 183.7 100.467C183.462 101.057 183.092 101.586 182.618 102.012C182.485 102.12 182.382 102.26 182.318 102.418C182.253 102.576 182.229 102.748 182.248 102.917C182.224 104.578 181.729 106.197 180.82 107.588C180.474 108.094 180.243 108.668 180.143 109.272C180.044 109.875 180.077 110.494 180.242 111.083C180.571 112.236 180.034 112.917 178.837 113.124C178.381 113.183 177.922 113.216 177.462 113.222C176.901 113.197 176.339 113.245 175.791 113.367C175.74 113.454 175.714 113.554 175.714 113.655C175.714 113.756 175.74 113.856 175.791 113.943C175.885 114.153 175.923 114.384 175.901 114.612C175.872 115.235 175.04 115.327 175.005 115.835C174.97 116.342 174.964 116.85 174.427 117.086C174.354 117.107 174.285 117.143 174.227 117.192C174.169 117.242 174.121 117.302 174.088 117.371C174.055 117.439 174.036 117.514 174.034 117.59C174.032 117.667 174.045 117.742 174.074 117.813C174.294 118.672 173.832 119.191 173.196 119.635C172.433 120.171 171.924 120.327 170.381 120.489C170.311 120.835 170.612 120.944 170.797 121.111C172.61 122.832 174.541 124.423 176.577 125.875C177.354 126.44 178.076 127.078 178.733 127.778C180.053 129.132 180.934 130.853 181.259 132.714C182.017 136.511 182.57 140.346 182.918 144.201C182.944 144.771 182.792 145.335 182.485 145.816C180.566 149.172 177.768 151.583 174.496 153.567C171.123 155.545 167.535 157.136 163.803 158.307C161.824 158.938 159.751 159.219 157.675 159.137C157.097 159.165 156.529 158.978 156.08 158.613C155.804 157.989 155.442 157.407 155.005 156.883C153.589 154.783 152.155 152.702 150.67 150.539C149.882 151.298 148.973 151.921 147.982 152.384C146.924 152.936 145.774 153.29 144.589 153.428C143.317 153.515 142.693 152.852 143.167 151.698C143.779 150.222 143.334 149.115 142.375 148.025C141.259 146.756 140.063 145.58 138.993 144.248C137.537 142.502 136.506 140.443 135.982 138.233C135.475 135.614 135.761 132.904 136.803 130.448C137.213 129.375 137.664 128.314 138.155 127.276C140.06 123.025 141.024 118.415 140.982 113.759C140.936 111.448 141.031 109.138 141.265 106.839C141.681 103.484 142.658 100.223 144.155 97.1908C145.043 95.4831 146.216 93.9386 147.623 92.6236C150.669 89.6767 154.292 87.3894 158.265 85.9053C160.651 84.9114 163.289 84.6876 165.808 85.2652C165.916 85.1424 165.997 84.9983 166.045 84.8422C166.092 84.6861 166.106 84.5217 166.086 84.3598C166.361 81.8839 166.412 79.3883 166.236 76.9034C165.826 76.4939 165.93 75.9692 165.936 75.4848C165.956 70.8821 165.563 66.2869 164.762 61.7541C164.465 59.8933 163.88 58.0899 163.028 56.4083C162.786 55.8622 162.42 55.3793 161.96 54.9972C161.5 54.6151 160.957 54.3442 160.375 54.2054C160.107 54.1678 159.847 54.0859 159.606 53.9632C159.267 53.7149 158.849 53.5978 158.43 53.6339C158.011 53.6699 157.62 53.8567 157.329 54.1593C156.352 54.9897 155.294 54.4995 154.323 53.9632C153.352 53.4269 153.288 53.3865 152.826 54.488C152.626 55.0407 152.244 55.509 151.741 55.8152C151.239 56.1215 150.647 56.2473 150.063 56.1719C147.808 55.9124 146.41 56.9158 144.959 58.4786C142.606 61.0506 139.681 63.092 137.259 65.5775C132.635 70.3639 128.063 75.1618 123.595 80.0751C122.664 81.1016 121.652 82.0473 120.67 83.0161C120.446 83.198 120.272 83.4337 120.165 83.7011C120.058 83.9685 120.021 84.2587 120.057 84.5443C120.124 84.8873 120.081 85.2427 119.934 85.5597C119.786 85.8767 119.542 86.1389 119.236 86.309C118.783 86.6672 118.41 87.1173 118.144 87.6296C117.277 88.8406 116.41 88.9271 115.253 87.9294C113.278 85.4462 111.448 82.8507 109.774 80.1558C109.334 79.4119 108.618 78.6795 108.988 77.6588L109.069 77.5377V77.4974C109.236 76.7188 109.86 76.2979 110.404 75.8192C110.705 75.5824 110.993 75.3282 111.265 75.058C111.359 74.9241 111.479 74.8105 111.619 74.7242C111.758 74.6379 111.913 74.5806 112.075 74.5558C112.237 74.531 112.403 74.5392 112.562 74.5799C112.72 74.6207 112.869 74.6931 112.999 74.7927C113.577 75.1734 113.849 74.9542 114.248 74.5621C118.628 70.1939 123.225 66.0482 128.022 62.1405C132.069 58.8361 136.23 55.6702 140.317 52.412C142.086 50.9991 143.785 49.5286 145.519 48.0581C147.172 46.6169 149.009 45.401 150.982 44.4423C152.295 43.77 153.804 43.5841 155.242 43.9175C155.891 44.0279 156.498 44.312 156.998 44.7396C157.498 45.1672 157.872 45.7222 158.08 46.3453C158.398 47.3776 159.08 47.4987 159.912 47.4987C162.019 47.4577 164.083 46.8949 165.918 45.8609L166.115 45.7456C168.791 44.0617 171.785 45.4803 172.259 48.629C172.387 49.3512 172.359 50.0922 172.178 50.803C171.6 52.8791 171.849 54.8974 172.392 56.9273C172.936 58.9572 173.716 61.0909 174.433 63.1554C176.105 67.8084 177.489 72.5595 178.577 77.382C178.716 78.0798 178.837 78.7603 178.964 79.435ZM97.6119 104.555C99.5269 111.386 101.004 118.332 102.034 125.35C102.612 129.214 103.3 133.072 103.768 136.958C104.225 140.73 104.56 144.513 104.797 148.302C104.941 150.522 105.08 152.742 105.173 154.968C105.313 157.384 105.13 159.808 104.629 162.176C104.189 164.094 103.182 165.835 101.739 167.176C100.201 168.633 98.4462 169.843 96.5367 170.763C96.3234 170.836 96.1383 170.973 96.0076 171.156C95.8769 171.34 95.8072 171.559 95.8084 171.784C95.583 175.423 95.0743 179.033 94.5887 182.643C93.9645 187.256 93.2708 191.91 92.5945 196.541C92.2535 198.847 91.872 201.154 91.5136 203.461C91.4731 203.726 91.4673 203.991 91.45 204.256C90.9529 206.269 90.7101 208.328 90.3575 210.369C89.4905 215.392 88.4211 220.38 87.6581 225.426C86.872 230.616 86.0396 235.806 85.1957 240.996C83.9356 248.718 83.1263 256.503 81.9356 264.237C80.9471 270.534 79.791 276.785 78.2014 282.961C77.7332 284.789 77.7043 286.681 77.4384 288.543C77.2695 289.835 77.0067 291.113 76.6523 292.367C76.597 292.466 76.5627 292.575 76.5515 292.688C76.5403 292.801 76.5524 292.915 76.5871 293.023C76.6217 293.131 76.6782 293.231 76.7531 293.317C76.8279 293.402 76.9195 293.471 77.0223 293.52C77.9474 294.145 78.8175 294.847 79.6234 295.619C83.0165 298.751 86.9182 300.809 91.5945 301.236C92.2067 301.303 92.8051 301.462 93.3691 301.709C93.9598 301.928 94.4854 302.292 94.8972 302.768C95.309 303.244 95.5936 303.816 95.7245 304.431C95.8554 305.046 95.8284 305.684 95.646 306.286C95.4636 306.888 95.1317 307.434 94.6812 307.874C93.3289 309.189 91.6179 310.078 89.7621 310.428C87.9453 310.779 86.0845 310.844 84.2477 310.619C78.9934 310.192 73.791 309.402 68.5829 308.617C67.5947 308.46 66.6259 308.199 65.6928 307.839C64.5504 307.458 63.5874 306.672 62.9858 305.631C62.3841 304.59 62.1853 303.365 62.4269 302.188C62.6572 300.825 63.0452 299.493 63.5829 298.22C63.8835 297.476 64.2014 296.732 64.5425 296.006C64.579 295.951 64.6038 295.889 64.6154 295.824C64.627 295.759 64.6252 295.692 64.61 295.628C64.5948 295.563 64.5667 295.503 64.5272 295.45C64.4878 295.397 64.4379 295.352 64.3806 295.319C62.5309 293.906 61.739 291.859 61.1783 289.743C60.4526 286.601 60.0479 283.394 59.9702 280.17C59.5367 272.154 59.4905 264.138 59.6176 256.111C59.7043 250.396 60.0801 244.687 60.4384 238.984C60.7448 234.082 60.9066 229.18 61.2072 224.267C61.7853 214.464 61.7159 204.631 61.9587 194.811C61.9699 190.703 62.2654 186.6 62.8431 182.533C62.9153 182.281 62.9153 182.013 62.8431 181.76C62.2767 180.006 61.9406 178.186 61.8431 176.345C61.8026 174.166 61.4442 171.997 61.5829 169.817C61.621 169.226 61.5302 168.634 61.3166 168.082C61.103 167.529 60.7719 167.029 60.346 166.617C57.7043 163.733 55.0801 160.85 52.9471 157.511C52.2273 156.414 51.78 155.162 51.6423 153.858C51.5045 152.555 51.6804 151.237 52.1552 150.014C52.9977 147.705 54.0382 145.473 55.265 143.342C57.6697 138.879 59.8142 134.283 62.1552 129.785C63.2477 127.685 63.0974 125.431 62.872 123.245C62.5887 120.465 63.0223 117.732 63.0685 114.981C63.1229 113.447 63.3046 111.919 63.6118 110.414C63.6165 110.029 63.7396 109.654 63.9644 109.341C64.2477 107.992 64.5425 106.648 64.8142 105.305C65.8199 100.311 68.4384 96.2393 72.0396 92.7274C72.1494 92.6236 72.2419 92.514 72.3691 92.3698C71.8373 91.649 71.2997 90.9512 70.791 90.2361C68.2303 86.6088 68.2303 81.1996 70.8026 77.8491C71.6588 76.709 72.7361 75.7523 73.9704 75.0361C75.2048 74.3198 76.5709 73.8586 77.9876 73.6798C80.4673 73.3395 82.9587 73.1031 85.4327 72.7802C87.689 72.5454 89.8628 71.8041 91.791 70.6118C94.1436 69.0894 97.1957 70.929 97.4038 73.8585C97.4707 74.6659 97.3489 75.4778 97.048 76.2303C96.7471 76.9828 96.2753 77.6554 95.6697 78.1951C95.2965 78.468 95.0332 78.8648 94.9272 79.3141C94.8213 79.7635 94.8796 80.2358 95.0916 80.646C95.6324 82.2493 95.902 83.9312 95.8893 85.6227C95.7737 86.0106 95.5107 86.338 95.1565 86.5352C94.8023 86.7323 94.3849 86.7836 93.9934 86.678C93.6581 86.3551 93.8084 85.9687 93.8431 85.5997C93.902 84.2245 93.744 82.8487 93.3749 81.5226C93.2477 80.9459 92.9645 80.744 92.3864 81.0151C91.2303 81.5918 89.9471 81.9262 88.739 82.4049C88.082 82.6189 87.4948 83.0055 87.0391 83.524C86.5835 84.0425 86.2761 84.6738 86.1494 85.3517C85.9145 86.4021 85.5736 87.4261 85.1321 88.4081C85.0583 88.5184 85.0103 88.644 84.9918 88.7753C84.9734 88.9067 84.9848 89.0406 85.0254 89.1669C85.0659 89.2933 85.1345 89.4089 85.2261 89.5052C85.3176 89.6014 85.4297 89.6758 85.5541 89.7229C86.1218 89.9561 86.6412 90.2924 87.0858 90.7148C86.687 91.7989 86.1263 92.0815 84.9124 91.8162C84.3893 91.4914 83.8068 91.2732 83.1986 91.1742C82.5904 91.0752 81.9686 91.0974 81.3691 91.2395C80.1205 91.4817 78.8893 91.7758 77.6639 92.1103C75.1677 92.8349 72.9748 94.3487 71.4153 96.4239C69.0024 99.3362 67.3607 102.806 66.6407 106.516C65.7733 110.997 65.288 115.544 65.1899 120.108C65.1263 125.523 65.3517 130.926 65.5136 136.33C65.6754 141.733 65.2824 147.125 65.0165 152.517C64.7679 157.569 64.2477 162.603 64.0049 167.655C63.7698 171.06 63.7891 174.477 64.0627 177.879C64.2939 180.128 64.2939 180.105 66.4731 179.442C72.4327 177.626 78.4211 175.872 84.2766 173.768C89.1436 172.038 93.9818 170.094 98.398 167.297C101.797 165.141 103.022 161.946 103.115 158.105C103.123 153.618 102.905 149.134 102.462 144.669C101.526 134.349 99.9817 124.093 97.8373 113.955C97.2593 111.25 96.6812 108.546 96.0685 105.881C96.1668 104.907 96.6061 104.388 97.6119 104.555Z" fill="#251F39"/>
<path d="M85.2477 91.6718C86.0743 91.8044 86.5829 91.2508 87.1378 90.7952C87.1751 90.6457 87.2467 90.5069 87.347 90.3898C87.4473 90.2727 87.5736 90.1805 87.7159 90.1205C89.6407 88.9672 91.6176 87.8138 93.5771 86.7066C93.7131 86.6332 93.8696 86.6069 94.0222 86.6316C94.7075 86.4436 95.339 86.0979 95.8662 85.6225C97.9702 84.3768 100.057 83.1024 102.103 81.7587C104.319 80.2618 106.624 78.9003 109.005 77.6816C109.352 79.3425 110.346 80.6688 111.282 82.0182C112.635 83.9674 114.051 85.8704 115.438 87.785C114.745 89.1344 113.641 90.1436 112.618 91.2451C112.533 91.3151 112.435 91.3662 112.329 91.395H112.161C110.866 92.5483 109.641 93.8401 108.311 94.9934C104.843 97.9979 101.542 101.21 98.0049 104.14C97.8651 104.271 97.7339 104.412 97.6118 104.56C97.0338 104.768 96.398 104.947 96.2592 105.714C95.7852 106.613 94.8488 106.977 94.0916 107.536C92.3734 108.824 90.5389 109.949 88.6118 110.898C86.878 111.741 84.9605 112.137 83.0338 112.052C79.7506 111.913 77.7621 109.791 76.2072 107.219C73.8546 103.321 74.8951 99.7222 77.9413 96.8388C80.1813 94.8567 82.6312 93.1241 85.2477 91.6718Z" fill="#251F39"/>
<path d="M184.3 246.371L183.467 250.298C182.81 253.142 181.712 255.866 180.213 258.372C178.993 260.5 177.826 262.651 176.594 264.773C174.189 269.004 172.411 273.561 171.317 278.302C170.427 281.987 169.49 285.654 168.82 289.386C168.808 289.499 168.808 289.613 168.82 289.726C168.358 292.004 167.878 294.282 167.519 296.646C167.762 296.565 167.872 296.542 167.97 296.496C169.901 295.568 171.519 295.919 172.889 297.546C173.431 298.194 173.839 298.943 174.092 299.748C174.492 301.031 174.714 302.362 174.751 303.704C174.778 305.201 174.642 306.695 174.346 308.162C174.074 309.65 173.282 310.682 171.71 310.976C171.132 311.092 170.514 311.265 169.907 311.334C168.76 311.513 167.585 311.366 166.518 310.91C165.451 310.454 164.534 309.708 163.872 308.756C163.111 307.652 162.429 306.496 161.831 305.296C161.579 304.743 161.252 304.227 160.86 303.762C160.686 304.295 160.621 304.858 160.67 305.417C160.677 307.142 160.542 308.864 160.265 310.567C160.236 310.717 160.236 310.878 160.201 311.022C160.045 311.599 159.623 312.014 159.196 311.974C158.962 311.956 158.742 311.854 158.578 311.686C158.414 311.518 158.317 311.297 158.305 311.063C158.201 310.423 158.126 309.777 158.034 309.131C157.699 306.784 157.352 304.431 157.022 302.078C156.959 301.432 156.762 300.805 156.444 300.239C155.692 299.077 155.179 297.777 154.936 296.415C155.063 295.106 155.271 293.82 156.138 292.759C157.109 291.577 158.19 290.556 159.988 290.77C160.08 288.619 160.155 286.485 160.259 284.357C160.56 278.112 160.872 271.872 161.814 265.684C162.739 259.739 164.301 253.91 166.473 248.297C167.02 248.237 167.573 248.317 168.08 248.528C168.143 248.75 168.162 248.982 168.134 249.21C168.106 249.439 168.033 249.66 167.918 249.86C165.487 256.738 163.894 263.882 163.173 271.14C162.826 275.061 162.519 278.994 162.358 282.944C162.236 285.827 162.19 288.711 162.19 291.56C162.14 292.367 162.26 293.177 162.544 293.935C162.828 294.693 163.269 295.383 163.837 295.96C164.196 296.3 164.571 296.773 165.097 296.657C165.71 296.519 165.577 295.856 165.675 295.395C166.936 288.376 168.288 281.376 170.242 274.502C171.485 270.142 173.508 266.157 175.699 262.23C177.248 259.45 178.982 256.769 180.265 253.845C181.04 251.844 181.655 249.784 182.103 247.686C182.225 247.213 182.219 246.683 182.681 246.342C183.057 245.818 183.6 245.91 184.126 245.985C184.294 246.008 184.236 246.239 184.3 246.371Z" fill="#251F39"/>
<path d="M260.438 224.077C260.398 224.227 260.329 224.446 260.271 224.653C259.219 228.339 257.603 231.84 255.479 235.033C252.291 239.977 248.582 244.567 244.415 248.724C243.055 250.134 241.497 251.34 239.791 252.305C239.404 252.513 238.924 252.882 238.589 252.305C238.253 251.728 238.826 251.503 239.201 251.273C241.178 250.01 242.985 248.501 244.577 246.78C248.527 242.69 252.035 238.199 255.045 233.378C256.808 230.588 258.192 227.576 259.161 224.423C259.231 224.165 259.327 223.916 259.45 223.679C259.476 223.616 259.514 223.559 259.562 223.511C259.61 223.464 259.668 223.426 259.731 223.401C259.794 223.376 259.861 223.363 259.929 223.364C259.997 223.366 260.064 223.38 260.126 223.408C260.375 223.54 260.444 223.754 260.438 224.077Z" fill="#251F39"/>
<path d="M210.594 98.1138C210.552 99.3749 210.383 100.629 210.092 101.856C210.002 102.188 209.876 102.509 209.716 102.814C209.669 102.921 209.584 103.008 209.478 103.057C209.372 103.107 209.251 103.117 209.138 103.085C209.01 103.056 208.898 102.981 208.822 102.875C208.747 102.768 208.713 102.638 208.727 102.508C208.757 102.282 208.802 102.059 208.86 101.839C209.302 99.6208 209.459 97.3556 209.329 95.0978C209.306 94.9497 209.268 94.8047 209.213 94.6653C209.217 92.9449 209.07 91.2276 208.774 89.5328C208.721 89.1952 208.694 88.8539 208.693 88.5121C208.692 88.3952 208.735 88.2822 208.813 88.1948C208.891 88.1075 208.998 88.0521 209.115 88.0392C209.23 88.0167 209.35 88.0371 209.451 88.0966C209.552 88.1561 209.628 88.2506 209.664 88.3622C209.763 88.6491 209.837 88.9444 209.884 89.2445C210.361 92.1768 210.599 95.143 210.594 98.1138ZM252.727 199.614C252.491 201.939 252.022 204.234 251.329 206.465C250.927 207.864 250.406 209.226 249.774 210.537C249.527 211.057 249.191 211.529 248.779 211.932C248.681 212.055 248.54 212.136 248.384 212.158C248.229 212.181 248.07 212.143 247.941 212.053C247.878 212.008 247.826 211.95 247.788 211.883C247.749 211.815 247.726 211.741 247.719 211.664C247.711 211.587 247.721 211.509 247.746 211.436C247.772 211.363 247.813 211.296 247.866 211.24C249.808 208.253 250.606 204.862 251.334 201.437C251.467 200.802 251.537 200.151 251.635 199.511C251.699 199.124 251.872 198.836 252.311 198.934C252.751 199.032 252.745 199.28 252.727 199.614Z" fill="#251F39"/>
<path d="M148.947 32.2224C149.455 32.3466 149.936 32.5594 150.369 32.8509C152.391 34.2023 154.221 35.8201 155.808 37.6604C155.861 37.714 155.91 37.7718 155.953 37.8334C156.138 38.116 156.219 38.4101 155.953 38.6638C155.853 38.7583 155.721 38.811 155.583 38.811C155.445 38.811 155.313 38.7583 155.213 38.6638C154.878 38.4049 154.567 38.1174 154.282 37.8046C153.12 36.5238 151.839 35.3556 150.456 34.3157C149.937 33.8566 149.311 33.5354 148.635 33.3815C148.242 33.3296 147.936 33.1854 148.016 32.7414C148.097 32.2973 148.485 32.182 148.947 32.2224Z" fill="#251F39"/>
<path d="M239.907 257.674C239.479 257.674 239.167 257.616 239.086 257.259C239.005 256.901 239.259 256.642 239.664 256.543C240.748 256.297 241.811 255.965 242.843 255.552C243.955 255.124 245.009 254.56 245.982 253.873C246.3 253.631 246.652 253.372 246.97 253.81C247.288 254.248 246.97 254.531 246.658 254.785C246.421 254.98 246.17 255.157 245.907 255.315C244.212 256.37 242.352 257.132 240.404 257.57L239.907 257.674Z" fill="#251F39"/>
<path d="M214.508 103.401C214.408 103.431 214.302 103.435 214.2 103.414C214.098 103.392 214.002 103.346 213.923 103.278C213.844 103.21 213.783 103.124 213.745 103.026C213.708 102.929 213.696 102.824 213.71 102.721C214.415 101.361 214.767 99.8457 214.733 98.3148C214.733 97.7785 214.733 97.248 214.733 96.7116C214.718 96.5768 214.756 96.4413 214.839 96.3338C214.922 96.2263 215.044 96.155 215.178 96.135C215.254 96.116 215.332 96.1141 215.408 96.1293C215.484 96.1445 215.556 96.1765 215.618 96.2229C215.68 96.2694 215.731 96.3291 215.767 96.3977C215.803 96.4663 215.823 96.542 215.826 96.6194C215.912 98.9953 216.121 101.383 214.508 103.401ZM256.092 207.237C256.051 207.465 255.999 207.69 255.936 207.912C255.507 209.264 254.844 210.531 253.976 211.655C253.657 212.091 253.242 212.448 252.762 212.698C252.646 212.767 252.51 212.793 252.377 212.772C252.244 212.751 252.123 212.684 252.034 212.583C251.989 212.533 251.954 212.475 251.931 212.412C251.909 212.348 251.899 212.281 251.903 212.214C251.907 212.147 251.924 212.082 251.953 212.021C251.983 211.961 252.024 211.907 252.074 211.862C252.151 211.777 252.232 211.696 252.317 211.62C253.553 210.459 254.445 208.98 254.895 207.347C254.941 207.203 254.982 207.059 255.034 206.914C255.138 206.597 255.334 206.338 255.699 206.413C256.063 206.488 256.138 206.793 256.092 207.237Z" fill="#251F39"/>
<path d="M156.953 34.3042C156.949 34.3904 156.925 34.4744 156.881 34.5487C156.837 34.6231 156.776 34.6856 156.702 34.7307C156.628 34.7757 156.545 34.8019 156.458 34.807C156.372 34.8121 156.286 34.7958 156.207 34.7598C155.972 34.6401 155.773 34.4612 155.629 34.2408C154.948 33.3622 154.198 32.5388 153.386 31.7784C153.121 31.5534 152.982 31.2709 153.184 30.9768C153.23 30.915 153.288 30.863 153.355 30.8239C153.421 30.7848 153.495 30.7594 153.571 30.7492C153.648 30.739 153.726 30.7442 153.8 30.7645C153.875 30.7847 153.944 30.8197 154.005 30.8672C155.145 31.7795 156.134 32.8655 156.936 34.0851C156.957 34.1561 156.962 34.2307 156.953 34.3042Z" fill="#251F39"/>
<path d="M109.103 77.5203L109.144 77.5607H109.08L109.045 77.5088L109.103 77.5203Z" fill="#FF385C"/>
<path d="M182.681 246.342C182.083 250.097 180.833 253.719 178.988 257.045C177.797 259.098 176.675 261.197 175.473 263.25C172.765 267.978 170.751 273.068 169.49 278.365C167.976 284.397 166.866 290.475 165.785 296.611C165.658 297.332 165.635 297.355 164.907 297.119C164.285 296.906 163.738 296.517 163.334 296C162.552 295.044 162.059 293.886 161.912 292.661C161.734 290.83 161.715 288.988 161.855 287.154C162.04 281.133 162.433 275.124 163.057 269.133C163.728 263.616 164.906 258.172 166.577 252.87C167.016 251.4 167.502 249.947 168.074 248.528C171.436 248.769 174.815 248.422 178.057 247.501C179.375 247.109 180.67 246.636 182.011 246.348C182.242 246.285 182.456 246.187 182.681 246.342Z" fill="white"/>
<path d="M151.918 171.155C151.793 171.5 151.582 171.808 151.306 172.049C149.288 174.425 147.109 176.662 144.947 178.877C140.808 183.109 136.67 187.337 132.849 191.863C127.959 197.648 123.75 203.973 120.305 210.715C119.502 212.289 118.866 213.933 118.207 215.576C118.028 216.026 118.022 216.73 117.248 216.632C116.808 216.574 116.774 216.118 117.109 215.115C118.014 212.546 119.142 210.061 120.479 207.687C124.704 200.05 129.859 192.963 135.826 186.587C139.751 182.308 143.884 178.237 147.912 174.061C148.82 173.121 149.681 172.141 150.566 171.178C150.741 170.93 150.978 170.731 151.253 170.601C151.336 170.574 151.424 170.568 151.509 170.584C151.594 170.6 151.674 170.638 151.741 170.693C151.807 170.749 151.859 170.82 151.89 170.901C151.921 170.982 151.931 171.069 151.918 171.155Z" fill="#251F39"/>
<path d="M222.86 232.416C222.86 236.412 221.271 239.78 218.693 242.744C217.777 243.841 216.717 244.811 215.542 245.627C214.686 246.218 213.716 246.623 212.693 246.815C212.048 246.95 211.377 246.888 210.768 246.636C210.636 246.598 210.523 246.512 210.454 246.394C210.384 246.276 210.362 246.136 210.392 246.002C210.403 245.937 210.426 245.874 210.461 245.818C210.496 245.762 210.541 245.713 210.595 245.675C210.649 245.636 210.709 245.609 210.774 245.593C210.838 245.578 210.905 245.576 210.97 245.587C213.225 246.071 214.779 244.814 216.277 243.459C216.813 242.964 217.319 242.436 217.791 241.879C221.201 237.946 222.415 233.471 221.086 228.39C220.776 227.084 220.364 225.804 219.855 224.561C217.264 218.446 214.022 212.627 210.184 207.203C209.606 206.431 208.982 205.71 208.386 204.96C208.215 204.754 208.054 204.538 207.907 204.314C207.835 204.221 207.802 204.104 207.814 203.987C207.825 203.87 207.881 203.763 207.97 203.686C208.056 203.609 208.163 203.56 208.278 203.544C208.392 203.529 208.508 203.548 208.612 203.599C208.849 203.727 209.056 203.904 209.219 204.118C210.28 205.234 211.247 206.435 212.109 207.711C215.507 212.728 218.427 218.051 220.831 223.61C222.109 226.374 222.8 229.372 222.86 232.416ZM187.259 228.062C187.305 230.426 187.144 232.906 186.103 235.241C184.937 237.844 183.175 240.137 180.959 241.936C179.364 243.16 177.454 243.908 175.45 244.093H175.34C174.878 244.093 174.282 244.185 174.23 243.574C174.178 242.963 174.808 242.998 175.23 242.951C177.082 242.803 178.844 242.09 180.277 240.91C182.999 238.523 185.068 235.72 185.756 232.081C186.082 230.15 186.165 228.185 186.005 226.234C185.884 222.973 185.322 219.743 184.334 216.632C184.297 216.525 184.268 216.415 184.248 216.303C184.201 215.992 184.149 215.669 184.525 215.519C184.901 215.369 185.184 215.611 185.329 215.951C185.882 217.258 186.282 218.624 186.519 220.023C187.027 222.672 187.275 225.364 187.259 228.062ZM138.502 246.163C138.346 246.163 138.04 246.204 137.733 246.204C137.665 246.208 137.597 246.198 137.533 246.175C137.469 246.152 137.411 246.116 137.361 246.069C137.311 246.023 137.271 245.967 137.244 245.905C137.217 245.843 137.202 245.776 137.201 245.708C137.188 245.573 137.222 245.439 137.298 245.327C137.375 245.215 137.487 245.134 137.618 245.097C137.879 245.038 138.148 245.016 138.415 245.033C140.161 245.12 141.882 244.587 143.271 243.528C148.167 239.82 151.467 235.091 152.381 228.904C152.456 228.431 152.381 227.75 153.068 227.779C153.756 227.808 153.56 228.511 153.554 228.961C153.548 230.112 153.353 231.253 152.976 232.341C151.441 236.915 148.608 240.945 144.82 243.943C143.059 245.432 140.81 246.223 138.502 246.163Z" fill="#251F39"/>
<path d="M183.144 156.634C183.144 156.288 183.213 156.058 183.502 155.937C183.574 155.908 183.652 155.896 183.729 155.9C183.807 155.905 183.882 155.926 183.951 155.963C184.019 156 184.078 156.051 184.125 156.113C184.171 156.176 184.203 156.247 184.219 156.323C184.404 156.825 184.543 157.35 184.756 157.84C186.251 161.415 188.248 164.761 190.687 167.776C190.883 168.01 191.066 168.255 191.236 168.508C191.282 168.559 191.316 168.618 191.337 168.682C191.358 168.747 191.365 168.815 191.358 168.882C191.351 168.95 191.33 169.015 191.296 169.074C191.262 169.132 191.216 169.183 191.161 169.223C191.057 169.31 190.926 169.357 190.791 169.357C190.656 169.357 190.525 169.31 190.421 169.223C190.265 169.113 190.123 168.983 189.999 168.837C187.021 165.365 184.734 161.359 183.259 157.032C183.213 156.882 183.173 156.733 183.144 156.634ZM114.727 231.856C114.727 231.429 114.727 231.008 114.727 230.587C114.727 230.166 114.727 229.561 115.41 229.607C116.092 229.653 115.912 230.184 115.895 230.599C115.854 232.172 116.006 233.745 116.346 235.282C116.8 237.857 117.695 240.334 118.993 242.605C119.102 242.763 119.192 242.933 119.259 243.113C119.293 243.22 119.289 243.336 119.248 243.441C119.207 243.545 119.131 243.633 119.034 243.689C118.942 243.763 118.826 243.798 118.709 243.786C118.592 243.774 118.484 243.717 118.41 243.626C118.176 243.374 117.971 243.097 117.797 242.801C115.927 239.444 114.876 235.694 114.727 231.856Z" fill="#251F39"/>
<path d="M201.855 181.587C201.856 181.673 201.835 181.759 201.793 181.835C201.751 181.911 201.69 181.974 201.615 182.019C201.541 182.064 201.456 182.089 201.369 182.091C201.283 182.093 201.197 182.072 201.121 182.031C200.855 181.874 200.613 181.68 200.404 181.454C198.685 179.705 196.976 177.95 195.277 176.189C195.138 176.056 195.021 175.902 194.93 175.734C194.866 175.636 194.84 175.519 194.856 175.403C194.872 175.288 194.929 175.182 195.016 175.105C195.102 175.025 195.211 174.976 195.328 174.967C195.445 174.957 195.561 174.988 195.658 175.053C195.87 175.204 196.064 175.378 196.236 175.572C197.889 177.221 199.541 178.875 201.19 180.531C201.508 180.843 201.843 181.114 201.855 181.587Z" fill="#251F39"/>
<path d="M182.149 228.823C181.924 230.763 181.47 232.67 180.797 234.503C180.771 234.574 180.743 234.643 180.71 234.711C180.548 235.028 180.346 235.357 179.93 235.236C179.514 235.115 179.531 234.728 179.606 234.371C179.653 234.187 179.71 234.006 179.78 233.829C180.363 232.166 180.774 230.448 181.005 228.702C181.012 228.588 181.026 228.474 181.045 228.362C181.115 228.027 181.282 227.785 181.658 227.785C182.034 227.785 182.138 228.114 182.149 228.454V228.823Z" fill="#251F39"/>
<path d="M240.756 225.317C240.756 225.738 240.675 225.992 240.398 226.09C240.121 226.188 239.82 225.997 239.681 225.692C239.496 225.23 239.352 224.752 239.178 224.285C238.808 223.362 238.345 222.479 237.797 221.649C237.647 221.429 237.51 221.199 237.386 220.963C237.354 220.903 237.335 220.837 237.328 220.769C237.322 220.701 237.329 220.633 237.35 220.568C237.37 220.503 237.403 220.443 237.447 220.391C237.491 220.339 237.545 220.296 237.606 220.265C237.702 220.199 237.821 220.171 237.936 220.189C238.052 220.206 238.157 220.266 238.23 220.357C239.428 221.805 240.291 223.498 240.756 225.317Z" fill="#251F39"/>
<path d="M97.7101 198.34C97.4865 200.389 97.6215 202.461 98.1089 204.464C98.3495 205.588 98.7059 206.684 99.1725 207.734C99.3459 208.138 99.6696 208.645 99.0627 208.916C98.4558 209.187 98.265 208.622 98.0627 208.224C97.1973 206.342 96.6859 204.317 96.554 202.25C96.45 201.264 96.4789 200.26 96.4673 199.269C96.453 198.883 96.5302 198.5 96.6928 198.15C96.745 198.026 96.8387 197.924 96.958 197.862C97.0772 197.8 97.2144 197.782 97.3459 197.81C97.4632 197.835 97.5663 197.904 97.6341 198.002C97.7018 198.101 97.7291 198.222 97.7101 198.34Z" fill="#251F39"/>
<path d="M106.381 259.202C106.373 259.288 106.347 259.371 106.303 259.445C106.259 259.519 106.199 259.582 106.128 259.631C106.056 259.679 105.975 259.71 105.89 259.723C105.804 259.735 105.717 259.729 105.635 259.704C105.191 259.585 104.76 259.424 104.346 259.225C102.262 258.152 100.358 256.761 98.7043 255.102C98.5703 254.967 98.459 254.811 98.3748 254.64C98.3296 254.554 98.312 254.455 98.3244 254.359C98.3368 254.262 98.3786 254.171 98.4442 254.098C98.5155 254.005 98.6188 253.942 98.7341 253.921C98.8494 253.9 98.9686 253.922 99.0685 253.983C99.292 254.128 99.5028 254.292 99.6985 254.473C101.446 256.152 103.469 257.517 105.681 258.51C105.988 258.637 106.317 258.775 106.381 259.202Z" fill="#251F39"/>
<path d="M101.612 198.513C101.739 198.534 101.853 198.602 101.933 198.704C102.012 198.805 102.05 198.933 102.04 199.061C102.167 200.659 102.607 202.216 103.334 203.645C103.412 203.819 103.459 204.004 103.473 204.193C103.482 204.289 103.462 204.385 103.414 204.469C103.367 204.552 103.294 204.619 103.207 204.66C103.122 204.705 103.026 204.724 102.931 204.715C102.835 204.706 102.744 204.669 102.67 204.609C102.466 204.436 102.304 204.219 102.196 203.974C101.518 202.605 101.087 201.127 100.924 199.609C100.872 199.345 100.902 199.071 101.011 198.824C101.065 198.716 101.153 198.628 101.261 198.572C101.369 198.516 101.492 198.495 101.612 198.513Z" fill="#251F39"/>
<path d="M111.739 258.527C111.224 258.485 110.724 258.335 110.272 258.086C109.82 257.838 109.425 257.497 109.115 257.085C109.018 256.988 108.963 256.856 108.963 256.719C108.963 256.582 109.018 256.45 109.115 256.353C109.154 256.297 109.205 256.25 109.264 256.216C109.323 256.181 109.389 256.16 109.457 256.154C109.525 256.147 109.594 256.155 109.659 256.178C109.723 256.2 109.782 256.236 109.831 256.284C110.469 256.905 111.271 257.333 112.144 257.518C112.202 257.528 112.257 257.551 112.306 257.584C112.355 257.617 112.397 257.66 112.429 257.709C112.461 257.759 112.482 257.815 112.492 257.873C112.502 257.931 112.499 257.991 112.485 258.048C112.363 258.492 111.988 258.492 111.739 258.527Z" fill="#251F39"/>
<path d="M166.138 118.66C167.699 120.39 169.236 121.97 170.837 123.458C172.238 124.773 173.727 125.99 175.294 127.102C175.983 127.592 176.631 128.138 177.23 128.734C178.437 129.873 179.247 131.366 179.542 132.996C180.263 136.607 180.799 140.253 181.149 143.918C181.191 144.376 181.08 144.834 180.831 145.222C179.576 147.342 177.895 149.181 175.895 150.625C172.022 153.422 167.658 155.238 163.178 156.79C161.636 157.278 160.037 157.562 158.421 157.637C158.197 157.688 157.964 157.672 157.75 157.589C157.535 157.507 157.351 157.363 157.219 157.176C153.652 152.032 150.126 146.865 147.566 141.121C146.754 139.3 146.069 137.425 145.514 135.51C144.977 133.702 144.812 131.805 145.026 129.931C145.241 128.058 145.831 126.247 146.762 124.605C147.708 122.847 148.804 121.175 150.04 119.606C151.444 117.795 152.93 116.03 154.473 114.087C154.606 115.108 154.693 115.932 154.832 116.751C155.571 121.543 157.851 125.965 161.329 129.352C162.654 130.699 164.329 131.652 166.167 132.102C166.614 132.231 167.091 132.21 167.525 132.045C167.705 132.003 167.87 131.914 168.003 131.787C168.136 131.659 168.232 131.498 168.28 131.32C168.328 131.142 168.327 130.955 168.276 130.778C168.226 130.6 168.128 130.44 167.993 130.315C167.559 129.818 166.978 129.471 166.334 129.323C166.129 129.295 165.941 129.193 165.805 129.038C165.669 128.882 165.594 128.682 165.595 128.475C165.279 126.154 165.182 123.808 165.305 121.468C165.417 120.491 165.698 119.541 166.138 118.66Z" fill="white"/>
<path d="M163.924 129.196C163.424 128.916 162.97 128.562 162.577 128.146C158.976 124.623 157.103 120.286 156.277 115.373C155.934 113.42 156.347 111.411 157.433 109.75C160.492 104.736 163.197 99.5138 165.525 94.1224C166.787 90.9898 167.567 87.6845 167.837 84.319C168.207 80.363 168.016 76.4185 167.872 72.4683C167.763 68.3309 167.303 64.2103 166.496 60.1505C166.154 58.3773 165.517 56.6738 164.612 55.1103C164.259 54.448 163.766 53.8699 163.167 53.4159C162.568 52.9619 161.878 52.6429 161.144 52.4807L161.034 52.4518C158.49 51.7483 158.49 51.7483 158.866 49.061C160.46 49.1987 162.066 49.0483 163.606 48.6169C164.909 48.2802 166.154 47.7515 167.3 47.0484C168.242 46.4256 168.999 46.5582 169.745 47.3886C170.107 47.741 170.371 48.1821 170.509 48.6678C170.647 49.1536 170.654 49.667 170.531 50.1567C169.658 53.265 170.265 56.2348 171.23 59.1932C172.589 63.3452 174.149 67.4281 175.317 71.6436C175.808 73.4198 176.282 75.1902 176.71 76.9836C177.602 80.6578 177.454 84.5068 176.282 88.1019C173.201 97.8362 169.779 107.432 165.178 116.567C163.745 119.376 163.197 122.552 163.606 125.678C163.739 126.808 163.808 127.939 163.924 129.196ZM117.647 83.1541C116.089 81.3867 114.732 79.4527 113.6 77.3873C115.966 75.2113 118.327 73.0334 120.681 70.8536C126.375 65.5654 132.508 60.8079 138.6 56.033C141.205 54.0069 143.743 51.9194 146.213 49.7703C147.817 48.3333 149.598 47.1066 151.514 46.1199C152.4 45.6491 153.402 45.4373 154.404 45.5087C154.931 45.5128 155.442 45.6885 155.859 46.0092C156.276 46.3298 156.577 46.7778 156.716 47.2848C157.175 48.7936 157.143 50.4089 156.623 51.8982C156.415 52.5556 156.225 52.6306 155.612 52.3307C155.201 52.1231 154.826 51.8521 154.456 51.6157C154.044 51.3317 153.586 51.1192 153.103 50.9871C152.827 50.8948 152.526 50.9073 152.259 51.0222C151.991 51.1371 151.775 51.3463 151.652 51.6099C151.496 51.9168 151.379 52.2423 151.306 52.5787C150.912 54.1761 151.016 54.0781 149.305 54.1242C148.618 54.1242 147.924 54.1242 147.23 54.1242C146.941 54.0943 146.649 54.1343 146.378 54.2407C146.108 54.3471 145.867 54.5168 145.675 54.7355C143.051 58.0917 139.554 60.5426 136.525 63.4837C133.41 66.5054 130.56 69.7867 127.56 72.9181C124.56 76.0494 121.606 79.1808 118.641 82.3121C118.38 82.6665 118.039 82.9549 117.647 83.1541Z" fill="white"/>
<path d="M177.068 104.958C177.003 105 176.946 105.054 176.902 105.118C176.858 105.181 176.827 105.253 176.812 105.329C176.796 105.405 176.796 105.483 176.811 105.559C176.826 105.635 176.857 105.707 176.901 105.771C177.109 106.065 177.479 105.996 177.745 105.875C178.208 105.676 178.725 105.638 179.213 105.766C179.999 105.967 180.201 106.417 179.756 107.103C179.323 107.694 179.032 108.376 178.905 109.097C178.779 109.819 178.821 110.559 179.028 111.261C179.167 111.717 178.976 111.913 178.548 111.953C178.121 111.994 177.855 111.988 177.508 112.011C176.893 112.027 176.279 112.075 175.67 112.155C175.475 112.156 175.284 112.203 175.111 112.29C174.937 112.378 174.786 112.504 174.67 112.659C174.553 112.814 174.475 112.994 174.439 113.185C174.404 113.376 174.414 113.572 174.467 113.758C174.525 114.185 174.56 114.485 174.068 114.658C173.956 114.686 173.851 114.738 173.76 114.809C173.669 114.881 173.594 114.97 173.539 115.073C173.485 115.175 173.453 115.287 173.444 115.402C173.436 115.517 173.451 115.633 173.49 115.742C173.527 115.85 173.524 115.967 173.481 116.073C173.439 116.179 173.36 116.266 173.259 116.319C173.041 116.483 172.882 116.713 172.804 116.974C172.726 117.236 172.733 117.515 172.826 117.772C172.993 118.302 172.716 118.556 172.334 118.793C171.277 119.444 170.121 119.369 168.976 119.196C168.496 119.133 168.305 118.62 167.947 118.314C166.959 117.53 166.912 116.745 167.514 115.598C168.704 113.326 169.687 110.944 170.756 108.609C170.884 108.332 170.936 108.032 171.207 107.818C172.955 106.439 174.953 105.409 177.092 104.785C177.161 104.826 177.184 104.872 177.161 104.912C177.138 104.952 177.097 104.958 177.068 104.958Z" fill="white"/>
<path d="M111.612 77.001C112.976 79.8666 114.742 82.5246 116.855 84.8957C117.433 85.5185 116.918 85.8299 116.635 86.2509C116.271 86.2509 116.201 85.951 116.057 85.7549C114.539 83.6443 113.022 81.5298 111.508 79.4115C111.357 79.1923 111.213 78.9617 111.086 78.731C110.577 77.8141 110.583 77.8083 111.612 77.001Z" fill="#FAFBFB"/>
<path d="M178.057 104.342L181.178 102.986C181.171 103.744 181.001 104.491 180.681 105.178C179.965 104.724 179.123 104.51 178.277 104.566C178.022 104.641 177.964 104.555 178.057 104.342Z" fill="#EEF3F3"/>
<path d="M178.057 104.342L178.277 104.567C177.908 104.741 177.52 104.873 177.121 104.959C177.108 104.947 177.098 104.934 177.091 104.918C177.085 104.903 177.081 104.886 177.081 104.869C177.081 104.853 177.085 104.836 177.091 104.821C177.098 104.805 177.108 104.791 177.121 104.78C177.288 104.405 177.681 104.423 178.057 104.342Z" fill="#9CA8A8"/>
<path d="M94.028 172.026C94.0044 173.416 93.8827 174.804 93.6639 176.178C92.5945 184.828 91.3517 193.432 90.0165 202.036C89.0396 208.252 87.8315 214.423 86.7275 220.61C85.9182 225.143 85.2361 229.693 84.5194 234.237C83.8662 238.366 83.1957 242.49 82.6003 246.63C81.8778 251.676 81.2593 256.739 80.5367 261.791C79.6782 268.214 78.4644 274.584 76.9009 280.873C76.3461 283.302 75.9598 285.767 75.7448 288.249C75.5712 289.657 75.2772 291.048 74.8662 292.407C74.7919 292.742 74.6237 293.05 74.3812 293.294C74.1387 293.538 73.8319 293.708 73.4963 293.785C71.9156 294.264 70.291 294.585 68.6465 294.742C67.6848 294.876 66.7053 294.697 65.8542 294.23C65.0031 293.763 64.326 293.035 63.924 292.153C62.8026 289.996 62.4211 287.655 62.1263 285.296C61.6465 281.484 61.5483 277.644 61.4442 273.809C61.1957 266.208 61.2535 258.613 61.5078 251.013C61.6986 245.338 62.2419 239.681 62.4789 234.007C62.7968 226.187 63.3402 218.379 63.4269 210.547C63.5136 202.601 63.6234 194.66 64.0049 186.719C64.0512 185.612 64.2882 184.511 64.3344 183.403C64.3252 183.044 64.4465 182.693 64.6759 182.415C64.9053 182.138 65.2274 181.952 65.583 181.892C67.5541 181.258 69.4963 180.531 71.4963 179.984C74.7968 179.084 78.0396 178.017 81.2593 176.875C82.1587 176.544 83.0752 176.261 84.0049 176.028C86.45 175.451 88.6292 174.136 90.9413 173.277C91.9298 172.896 92.9067 172.32 94.028 172.026ZM85.2477 91.6715C85.1205 92.3462 84.4789 92.4789 84.0223 92.773C82.0173 93.9883 80.1167 95.3675 78.3402 96.8962C76.3806 98.6262 75.0916 100.771 75.2535 103.54C75.2905 104.114 75.4052 104.68 75.5945 105.223C76.3232 107.302 77.6453 109.122 79.398 110.46C81.161 111.855 83.1957 111.994 85.3171 111.613C87.1682 111.253 88.9337 110.544 90.5194 109.525C92.1899 108.499 93.8084 107.392 95.3864 106.227C95.6404 105.994 95.934 105.809 96.2535 105.679C96.9471 107.519 97.2015 109.462 97.635 111.371C99.502 119.64 100.785 128.014 101.964 136.404C102.618 141.075 102.924 145.787 103.219 150.492C103.363 152.868 103.496 155.244 103.438 157.626C103.403 158.89 103.266 160.149 103.028 161.392C102.68 163.256 101.708 164.948 100.271 166.19C98.7906 167.536 97.1047 168.637 95.2766 169.454C92.0165 170.901 88.7737 172.4 85.45 173.704C83.028 174.655 80.4789 175.272 78.0223 176.149C73.502 177.752 68.7737 178.778 64.2824 180.543C63.8551 179.26 63.6213 177.921 63.5887 176.57C63.4182 173.775 63.4356 170.972 63.6408 168.179C63.7872 165.611 63.951 163.047 64.1321 160.486C64.4211 156.513 64.6697 152.528 64.9529 148.549C65.3055 143.647 65.2246 138.746 65.1379 133.827C65.0396 128.267 64.6119 122.708 64.9413 117.143C65.1271 112.663 65.7996 108.216 66.9471 103.88C68.0569 99.9699 70.3517 96.7866 73.2304 93.9955C74.4789 92.7903 76.1205 92.2655 77.7217 91.7407C78.8958 91.3838 80.0907 91.0987 81.2997 90.8873C81.9752 90.7213 82.679 90.7056 83.3612 90.8411C84.0434 90.9766 84.6875 91.2601 85.2477 91.6715ZM68.0454 296.466C70.5688 296.456 73.0583 295.887 75.3344 294.8C75.446 294.733 75.5769 294.706 75.706 294.723C75.835 294.739 75.9546 294.799 76.0454 294.892C76.7159 295.405 77.4038 295.901 78.0223 296.472C79.1032 297.458 80.2708 298.329 81.4327 299.211C83.8659 301.042 86.7267 302.223 89.7448 302.643C90.583 302.764 91.4153 302.914 92.2361 303.104C92.6546 303.17 93.0436 303.359 93.3527 303.648C93.6619 303.937 93.877 304.312 93.9702 304.724C94.064 305.159 94.0243 305.611 93.8562 306.023C93.6881 306.434 93.3995 306.786 93.028 307.031C91.8182 307.983 90.3864 308.614 88.8662 308.865C86.7448 309.251 84.6408 308.963 82.5425 308.761C78.109 308.34 73.7043 307.66 69.2939 307.031C68.3454 306.886 67.4126 306.652 66.5078 306.333C64.6754 305.693 63.9529 304.603 64.0801 302.671C64.1003 302.326 64.1467 301.983 64.2188 301.645C64.6227 300.009 65.1681 298.412 65.8489 296.87C66.0107 296.466 66.2246 296.247 66.7101 296.363C67.1525 296.426 67.5985 296.461 68.0454 296.466ZM62.0569 165.526C61.0396 164.413 60.1783 163.502 59.3633 162.551C57.8387 160.825 56.4126 159.015 55.0916 157.13C54.6328 156.469 54.2453 155.762 53.9356 155.019C53.5374 154.056 53.4604 152.991 53.7159 151.98C54.1088 150.416 54.6912 148.906 55.45 147.482C58.0107 142.598 60.5136 137.679 62.9067 132.708C62.9858 132.525 63.1089 132.365 63.265 132.241C64.028 143.284 62.8084 154.241 62.0569 165.526ZM94.0165 86.6314C93.6854 86.9632 93.2927 87.2276 92.8604 87.4099C90.9336 88.5632 89.0069 89.6916 87.0801 90.795C86.0627 90.5297 85.2997 89.7916 84.2882 89.3591C85.0278 87.9671 85.5798 86.4838 85.9298 84.9475C86.052 84.4031 86.3001 83.8948 86.6544 83.4632C87.0087 83.0317 87.4594 82.6888 87.9702 82.462C88.66 82.1314 89.3683 81.8407 90.0916 81.5912C91.0125 81.3286 91.9021 80.967 92.7448 80.5129C93.2419 80.213 93.3922 80.3975 93.5194 80.8704C94.0854 82.7352 94.2547 84.6975 94.0165 86.6314Z" fill="white"/>
<path d="M77.8142 102.709C77.7798 101.865 77.9242 101.023 78.238 100.238C78.5517 99.4527 79.0277 98.7425 79.635 98.1534C80.6494 97.1603 81.7288 96.2355 82.8662 95.3853C83.0518 95.2516 83.2448 95.1284 83.4442 95.0162C83.5552 94.9349 83.6931 94.8992 83.8297 94.9163C83.9663 94.9335 84.0911 95.0023 84.1783 95.1085C84.2314 95.1653 84.2724 95.2323 84.2989 95.3053C84.3254 95.3784 84.3368 95.456 84.3325 95.5335C84.3282 95.6111 84.3082 95.687 84.2738 95.7566C84.2393 95.8263 84.1911 95.8883 84.1321 95.9389C83.9392 96.1254 83.7325 96.2969 83.5136 96.4522C82.687 97.1384 81.8315 97.7958 81.0396 98.5224C78.872 100.518 78.3864 103.003 79.5887 105.719C79.6812 105.927 79.8142 106.123 79.8893 106.336C79.934 106.444 79.9407 106.564 79.9081 106.676C79.8756 106.788 79.8058 106.885 79.7102 106.952C79.6147 107.02 79.4991 107.052 79.3824 107.045C79.2658 107.038 79.1551 106.991 79.0685 106.913C78.8024 106.688 78.6026 106.395 78.4905 106.065C78.029 105.007 77.7985 103.863 77.8142 102.709Z" fill="#251F39"/>
<path d="M107.577 92.7903C107.482 92.8035 107.386 92.7912 107.297 92.7547C107.209 92.7182 107.132 92.6589 107.074 92.5827C107.004 92.4901 106.968 92.3754 106.975 92.2592C106.981 92.143 107.029 92.0328 107.109 91.9484C107.228 91.8013 107.362 91.6661 107.508 91.5447L111.392 88.125C111.499 88.0164 111.617 87.9197 111.745 87.8367C111.839 87.7696 111.955 87.7385 112.071 87.7491C112.186 87.7597 112.294 87.8112 112.375 87.8944C112.461 87.9732 112.518 88.079 112.536 88.1943C112.554 88.3096 112.531 88.4276 112.473 88.5287C112.38 88.6948 112.265 88.8479 112.132 88.9843C110.895 90.1838 109.623 91.3487 108.282 92.4443C108.093 92.6356 107.845 92.7575 107.577 92.7903Z" fill="#251F39"/>
<path d="M83.7332 108.874C83.7274 109.052 83.6535 109.221 83.5266 109.346C83.3998 109.472 83.2297 109.544 83.0512 109.549C82.6889 109.521 82.3368 109.416 82.0187 109.241C81.7005 109.066 81.4238 108.825 81.2072 108.534C81.1565 108.452 81.1296 108.358 81.1296 108.263C81.1296 108.167 81.1565 108.073 81.2072 107.991C81.2498 107.903 81.3226 107.832 81.4126 107.792C81.5026 107.752 81.6039 107.745 81.6986 107.772C82.3286 108.02 82.9009 108.407 83.5598 108.603C83.6465 108.626 83.6812 108.787 83.7332 108.874Z" fill="#251F39"/>
<path d="M112.404 91.1357C112.4 91.1968 112.375 91.2546 112.332 91.299C112.29 91.3433 112.234 91.3713 112.173 91.378C112.183 91.3192 112.21 91.2648 112.251 91.2217C112.292 91.1786 112.345 91.1486 112.404 91.1357Z" fill="#FF385C"/>
<path d="M173.022 304.189C172.953 305.463 172.866 306.495 172.727 307.522C172.589 308.548 172.149 309.217 171.045 309.396C170.467 309.488 169.889 309.604 169.311 309.65C168.6 309.727 167.88 309.627 167.218 309.358C166.555 309.09 165.969 308.661 165.514 308.11C164.909 307.367 164.385 306.56 163.953 305.705C163.344 304.467 162.642 303.275 161.855 302.142C161.671 301.849 161.424 301.601 161.132 301.417C160.84 301.232 160.51 301.115 160.167 301.075C159.63 301.001 159.136 300.744 158.768 300.348C157.898 299.527 157.252 298.499 156.889 297.361C156.599 296.519 156.596 295.605 156.88 294.762C157.165 293.918 157.721 293.191 158.462 292.696C158.614 292.578 158.781 292.481 158.959 292.407C159.635 292.148 160.115 292.442 160.219 293.174C160.44 294.702 161.11 296.131 162.144 297.28C162.878 298.188 163.927 298.788 165.083 298.96C166.24 299.132 167.419 298.864 168.386 298.209C169.577 297.413 170.791 297.563 171.751 298.901C172.042 299.306 172.267 299.756 172.415 300.233C172.813 301.514 173.018 302.847 173.022 304.189Z" fill="white"/>
<path d="M180.092 251.918C179.704 253.193 179.248 254.646 178.028 255.69C177.874 255.8 177.696 255.872 177.508 255.897C177.395 255.924 177.276 255.911 177.171 255.862C177.067 255.813 176.981 255.73 176.93 255.626C176.879 255.545 176.857 255.448 176.869 255.353C176.88 255.257 176.924 255.169 176.993 255.102C177.978 254.135 178.679 252.919 179.022 251.584C179.035 251.507 179.064 251.434 179.106 251.369C179.148 251.304 179.203 251.248 179.267 251.204C179.331 251.161 179.403 251.131 179.479 251.116C179.556 251.1 179.634 251.101 179.71 251.117C179.999 251.18 180.138 251.417 180.092 251.918Z" fill="#251F39"/>
<path d="M147.011 131.456C146.872 129.865 147.525 128.21 148.069 126.537C148.184 126.191 148.41 125.874 148.832 126.03C149.253 126.186 149.23 126.566 149.138 126.918C148.988 127.495 148.82 128.019 148.647 128.567C148.017 130.559 148.033 132.698 148.693 134.68C148.82 135.095 149.155 135.562 148.56 135.891C148.173 136.093 147.814 135.805 147.525 135.078C147.131 133.913 146.957 132.685 147.011 131.456Z" fill="#251F39"/>
<path d="M153.953 145.377C153.965 145.494 153.941 145.612 153.884 145.715C153.828 145.819 153.741 145.902 153.635 145.954C153.531 146.006 153.411 146.02 153.298 145.993C153.185 145.965 153.085 145.898 153.016 145.804C152.893 145.658 152.783 145.502 152.687 145.337C152.19 144.518 151.695 143.699 151.201 142.88C151.081 142.685 150.973 142.483 150.878 142.275C150.817 142.154 150.807 142.014 150.849 141.886C150.891 141.757 150.983 141.65 151.103 141.589C151.15 141.553 151.203 141.526 151.259 141.511C151.316 141.496 151.375 141.492 151.434 141.5C151.492 141.508 151.548 141.528 151.598 141.558C151.649 141.588 151.693 141.628 151.727 141.675C152.613 142.779 153.355 143.99 153.936 145.279C153.944 145.312 153.949 145.344 153.953 145.377Z" fill="#251F39"/>
<path d="M173.173 136.272C173.467 136.362 173.781 136.371 174.081 136.297C174.38 136.222 174.654 136.068 174.872 135.851C175.132 135.574 175.45 135.459 175.768 135.77C176.086 136.082 175.86 136.405 175.647 136.681C175.232 137.103 174.693 137.381 174.108 137.474C173.523 137.568 172.924 137.472 172.398 137.2C172.3 137.143 172.223 137.057 172.177 136.953C172.131 136.85 172.12 136.734 172.144 136.624C172.163 136.509 172.222 136.405 172.311 136.33C172.4 136.255 172.513 136.214 172.629 136.214C172.812 136.217 172.994 136.237 173.173 136.272Z" fill="#251F39"/>
<path d="M177.959 108.015C177.589 108.015 177.155 108.073 177.086 107.536C177.034 107.138 177.502 106.833 178.08 106.885C178.467 106.925 178.849 107.023 178.901 107.507C178.936 107.9 178.635 108.055 177.959 108.015Z" fill="#251F39"/>
<path d="M68.0974 195.421V204.619C68.1062 204.925 68.0946 205.232 68.0627 205.536C68.0444 205.676 67.9755 205.804 67.869 205.896C67.7625 205.989 67.6258 206.039 67.4847 206.038C67.4151 206.045 67.3448 206.038 67.2779 206.018C67.2109 205.998 67.1487 205.964 67.0949 205.92C67.0411 205.875 66.9967 205.82 66.9644 205.758C66.9321 205.697 66.9124 205.629 66.9066 205.559C66.8604 205.295 66.8372 205.026 66.8373 204.758C66.8373 198.607 66.8373 192.436 66.8373 186.246C66.8344 185.94 66.8518 185.634 66.8893 185.33C66.891 185.26 66.9082 185.191 66.9398 185.128C66.9713 185.066 67.0163 185.011 67.0716 184.968C67.1269 184.925 67.1911 184.895 67.2595 184.88C67.3279 184.864 67.3989 184.864 67.4673 184.88C67.5838 184.881 67.6957 184.925 67.7812 185.004C67.8667 185.083 67.9197 185.191 67.9298 185.306C67.9617 185.497 67.9791 185.69 67.9818 185.883C68.0781 189.063 68.1167 192.242 68.0974 195.421Z" fill="#251F39"/>
<path d="M75.7448 275.182C75.3864 278.069 75.0261 280.953 74.6639 283.832C74.5714 284.593 74.4558 285.349 74.3402 286.104C74.2824 286.479 74.1205 286.791 73.6812 286.739C73.2419 286.687 73.1494 286.329 73.1899 285.966C73.3459 284.518 73.502 283.082 73.6985 281.635C74.0107 279.357 74.398 277.091 74.5772 274.801C74.5772 274.686 74.5772 274.571 74.6118 274.455C74.6812 274.138 74.8257 273.844 75.1899 273.879C75.554 273.913 75.7274 274.236 75.7217 274.617C75.7217 274.807 75.7217 274.998 75.6928 275.194L75.7448 275.182Z" fill="#251F39"/>
<path d="M67.4962 217.537C67.4962 218.223 67.4962 218.91 67.4962 219.596C67.4962 219.786 67.4962 219.982 67.4962 220.173C67.4962 220.547 67.554 221.02 67.0222 221.072C66.4904 221.124 66.4442 220.593 66.3517 220.201C66.3147 220.011 66.2953 219.818 66.2939 219.625C66.2477 218.096 66.2072 216.574 66.1667 215.046C66.158 214.892 66.158 214.738 66.1667 214.585C66.2014 214.221 66.2881 213.875 66.7448 213.904C67.2014 213.933 67.213 214.233 67.2303 214.561C67.2881 215.553 67.3459 216.539 67.398 217.531L67.4962 217.537Z" fill="#251F39"/>
<path d="M72.0338 291.352C72.0974 290.902 72.1668 290.458 72.2303 290.008C72.2824 289.674 72.45 289.432 72.8084 289.432C73.1668 289.432 73.3864 289.783 73.3402 290.152C73.2938 290.679 73.2186 291.203 73.1147 291.721C73.0454 292.073 72.8488 292.378 72.4153 292.298C71.9818 292.217 72.0165 291.894 72.0223 291.577L72.0338 291.352Z" fill="#251F39"/>
<path d="M67.1148 115.01C67.0757 112.173 67.4833 109.348 68.3229 106.637C68.745 105.244 69.3702 103.921 70.1783 102.71C70.3218 102.484 70.4926 102.277 70.687 102.093C70.764 102.033 70.8585 102.001 70.9558 102.001C71.0531 102.001 71.1476 102.033 71.2246 102.093C71.3308 102.141 71.4158 102.226 71.4637 102.332C71.5116 102.438 71.519 102.558 71.4847 102.669C71.4288 102.853 71.3471 103.028 71.2419 103.188C69.5541 105.708 68.9298 108.58 68.5598 111.515C68.3634 113.497 68.2881 115.488 68.3344 117.478C68.3344 117.784 68.3344 118.09 68.3344 118.395C68.3344 118.701 68.2419 119.116 67.8026 119.145C67.3633 119.174 67.2246 118.862 67.1726 118.482C67.1379 117.992 67.1148 117.49 67.109 116.994C67.1032 116.308 67.1148 115.656 67.1148 115.01Z" fill="#251F39"/>
<path d="M68.8488 126.469C68.8835 127.045 68.9298 127.622 68.9529 128.199C68.9818 128.502 68.9818 128.807 68.9529 129.11C68.9608 129.186 68.9525 129.263 68.9286 129.336C68.9048 129.409 68.8658 129.476 68.8144 129.533C68.7629 129.59 68.7 129.635 68.6297 129.666C68.5595 129.698 68.4835 129.714 68.4067 129.714C68.3298 129.714 68.2538 129.698 68.1836 129.666C68.1133 129.635 68.0504 129.59 67.9989 129.533C67.9475 129.476 67.9085 129.409 67.8847 129.336C67.8608 129.263 67.8525 129.186 67.8604 129.11C67.7968 128.389 67.739 127.662 67.7217 126.936C67.7217 125.984 67.7217 125.027 67.7217 124.052C67.7217 123.672 67.8431 123.32 68.2593 123.297C68.6754 123.274 68.8373 123.666 68.8373 124.081C68.8373 124.883 68.8373 125.69 68.8373 126.492L68.8488 126.469Z" fill="#251F39"/>
<path d="M99.4442 150.764C99.6698 150.799 99.8729 150.921 100.011 151.103C100.149 151.284 100.211 151.512 100.184 151.738C100.182 151.842 100.159 151.944 100.115 152.038C100.072 152.132 100.009 152.217 99.9318 152.285C99.8541 152.354 99.763 152.406 99.6641 152.438C99.5653 152.47 99.4609 152.481 99.3575 152.471C99.1313 152.438 98.9269 152.318 98.7877 152.137C98.6485 151.956 98.5854 151.728 98.6119 151.502C98.6253 151.294 98.7202 151.1 98.876 150.962C99.0319 150.824 99.236 150.753 99.4442 150.764Z" fill="#251F39"/>
<path d="M95.8893 118.482C95.8895 118.578 95.8689 118.673 95.8288 118.761C95.7888 118.849 95.7303 118.926 95.6573 118.989C95.5843 119.052 95.4986 119.099 95.4059 119.126C95.3133 119.153 95.2159 119.159 95.1205 119.145C94.8894 119.13 94.6715 119.032 94.5062 118.87C94.3408 118.708 94.2389 118.493 94.2188 118.263C94.2253 118.158 94.2526 118.056 94.299 117.963C94.3454 117.869 94.41 117.785 94.4891 117.717C94.5681 117.648 94.66 117.596 94.7595 117.563C94.8589 117.53 94.964 117.517 95.0685 117.525C95.2993 117.556 95.5105 117.671 95.6619 117.847C95.8133 118.024 95.8942 118.25 95.8893 118.482ZM101.04 160.418C101.045 160.627 100.969 160.83 100.828 160.984C100.687 161.139 100.491 161.233 100.282 161.248C100.179 161.26 100.074 161.251 99.9747 161.222C99.875 161.192 99.7824 161.143 99.7024 161.076C99.6225 161.01 99.5568 160.928 99.5094 160.836C99.4621 160.743 99.434 160.642 99.4268 160.539C99.4166 160.427 99.4291 160.314 99.4638 160.207C99.4985 160.101 99.5545 160.002 99.6286 159.917C99.7026 159.832 99.7931 159.764 99.8945 159.715C99.996 159.666 100.106 159.639 100.219 159.634C100.427 159.645 100.624 159.73 100.775 159.874C100.925 160.018 101.019 160.211 101.04 160.418Z" fill="#251F39"/>
<path d="M98.1957 141.923C98.0903 141.927 97.9854 141.908 97.8875 141.869C97.7895 141.83 97.7007 141.772 97.6264 141.697C97.5521 141.623 97.494 141.534 97.4557 141.436C97.4174 141.338 97.3997 141.233 97.4038 141.128C97.4038 140.915 97.4822 140.71 97.624 140.552C97.7657 140.393 97.961 140.292 98.1725 140.268C98.2772 140.258 98.3829 140.269 98.4833 140.3C98.5837 140.331 98.6769 140.382 98.7572 140.45C98.8375 140.518 98.9033 140.601 98.9509 140.695C98.9984 140.788 99.0266 140.89 99.0338 140.995C99.0324 141.225 98.9463 141.447 98.7918 141.618C98.6372 141.789 98.4251 141.898 98.1957 141.923Z" fill="#251F39"/>
<path d="M97.7101 129.623C97.71 129.728 97.6878 129.831 97.645 129.926C97.6022 130.021 97.5396 130.105 97.4616 130.175C97.3835 130.244 97.2916 130.296 97.192 130.327C97.0924 130.358 96.9873 130.368 96.8835 130.356C96.6753 130.341 96.4794 130.252 96.3319 130.105C96.1843 129.957 96.0949 129.762 96.0801 129.554C96.0978 129.347 96.1947 129.155 96.3508 129.018C96.507 128.88 96.7102 128.808 96.9182 128.816C97.1262 128.831 97.3214 128.922 97.4672 129.07C97.613 129.219 97.6994 129.416 97.7101 129.623Z" fill="#251F39"/>
<path d="M66.7621 301.991C66.7847 301.507 66.8984 301.032 67.0974 300.59C67.1238 300.519 67.164 300.453 67.2158 300.397C67.2677 300.342 67.33 300.297 67.3993 300.265C67.4686 300.234 67.5435 300.216 67.6196 300.213C67.6958 300.211 67.7717 300.223 67.8431 300.25C68.1494 300.371 68.1841 300.636 68.1379 300.919C68.0443 301.249 67.9805 301.587 67.9471 301.928C67.916 302.292 67.9826 302.657 68.1401 302.986C68.2976 303.316 68.5402 303.597 68.8431 303.802C69.1957 304.033 69.4963 304.298 69.1957 304.719C68.8951 305.14 68.5136 304.99 68.1552 304.794C67.641 304.458 67.2591 303.955 67.0743 303.37C66.8818 302.935 66.7758 302.467 66.7621 301.991Z" fill="#251F39"/>
<path d="M88.265 307.655C87.8893 307.655 87.6466 307.534 87.5541 307.245C87.531 307.181 87.5217 307.113 87.5266 307.045C87.5316 306.977 87.5507 306.91 87.5828 306.85C87.6149 306.79 87.6593 306.737 87.713 306.695C87.7668 306.653 87.8288 306.622 87.8951 306.605C88.659 306.343 89.3725 305.953 90.0049 305.452C90.0975 305.379 90.2133 305.342 90.3311 305.347C90.4489 305.352 90.5609 305.4 90.6465 305.481C90.7001 305.523 90.7447 305.575 90.7778 305.635C90.8109 305.694 90.8319 305.759 90.8394 305.827C90.8469 305.895 90.8409 305.963 90.8217 306.028C90.8025 306.094 90.7705 306.154 90.7275 306.207C90.0913 306.95 89.2246 307.46 88.265 307.655Z" fill="#251F39"/>
</svg>
