<svg width="292" height="314" viewBox="0 0 292 314" fill="none" xmlns="http://www.w3.org/2000/svg">
<path d="M124.324 192.358C151.339 198.078 167.152 231.463 161.431 258.479C155.711 285.494 137.714 310.698 110.699 304.978C83.6833 299.258 57.8802 264.779 63.6005 237.764C69.3208 210.748 97.3083 186.637 124.324 192.358Z" fill="#FF385C" fill-opacity="0.15"/>
<path d="M210.346 204.154C190.825 198.299 182.564 168.333 189.673 144.634C196.781 120.935 219.665 94.0805 239.185 99.9356C258.706 105.791 267.472 142.138 260.364 165.837C253.256 189.536 229.866 210.009 210.346 204.154Z" fill="#FF385C" fill-opacity="0.15"/>
<path d="M285.602 66.1435C283.613 65.5468 282.516 63.3429 283.001 61.7266C283.486 60.1102 285.505 58.4161 287.494 59.0128C289.484 59.6095 290.69 62.271 290.205 63.8874C289.72 65.5038 287.592 66.7402 285.602 66.1435Z" fill="#FF385C" fill-opacity="0.15"/>
<path d="M239.602 273.143C237.613 272.547 236.516 270.343 237.001 268.727C237.486 267.11 239.505 265.416 241.494 266.013C243.484 266.61 244.69 269.271 244.205 270.887C243.72 272.504 241.592 273.74 239.602 273.143Z" fill="#FF385C" fill-opacity="0.15"/>
<path d="M173.602 38.1435C171.613 37.5468 170.516 35.3429 171.001 33.7266C171.486 32.1102 173.505 30.4161 175.494 31.0128C177.484 31.6095 178.69 34.271 178.205 35.8874C177.72 37.5038 175.592 38.7402 173.602 38.1435Z" fill="#FF385C" fill-opacity="0.15"/>
<path d="M24.6022 139.143C22.6128 138.547 21.5159 136.343 22.0008 134.727C22.4856 133.11 24.5049 131.416 26.4944 132.013C28.4838 132.61 29.6899 135.271 29.2051 136.887C28.7203 138.504 26.5916 139.74 24.6022 139.143Z" fill="#FF385C" fill-opacity="0.15"/>
<path d="M18.1474 247.356C16.9615 247 16.3442 245.564 16.6676 244.486C16.9911 243.407 18.2398 242.248 19.4258 242.604C20.6118 242.959 21.2859 244.696 20.9625 245.774C20.6391 246.852 19.3334 247.711 18.1474 247.356Z" fill="#FF385C" fill-opacity="0.15"/>
<path d="M199.147 276.356C197.961 276 197.344 274.564 197.668 273.486C197.991 272.407 199.24 271.248 200.426 271.604C201.612 271.959 202.286 273.696 201.963 274.774C201.639 275.852 200.333 276.711 199.147 276.356Z" fill="#FF385C" fill-opacity="0.15"/>
<path d="M62.1474 5.35576C60.9615 5.00004 60.3442 3.56414 60.6676 2.4858C60.9911 1.40746 62.2398 0.247801 63.4258 0.603529C64.6118 0.959257 65.2859 2.69567 64.9625 3.77401C64.6391 4.85235 63.3334 5.71149 62.1474 5.35576Z" fill="#FF385C" fill-opacity="0.15"/>
<path d="M2.14741 67.3558C0.961425 67 0.344179 65.5641 0.667619 64.4858C0.991058 63.4075 2.23981 62.2478 3.4258 62.6035C4.61179 62.9593 5.28591 64.6957 4.96247 65.774C4.63903 66.8523 3.3334 67.7115 2.14741 67.3558Z" fill="#FF385C" fill-opacity="0.15"/>
<path d="M128.209 145.777C110.35 156.945 84.2138 147.353 73.2576 129.832C62.3014 112.311 60.4463 81.6575 78.3048 70.4902C96.1634 59.3229 126.973 71.8705 137.929 89.3914C148.885 106.912 146.067 134.61 128.209 145.777Z" fill="#FF385C" fill-opacity="0.15"/>
<path d="M215.593 241.535C215.317 241.959 215.131 242.435 215.047 242.935C215.296 243.041 215.522 243.13 215.741 243.237C216.187 243.421 216.552 243.758 216.77 244.188C216.988 244.618 217.044 245.112 216.928 245.58C216.704 246.773 216.103 247.863 215.213 248.689C214.333 249.573 213.318 250.312 212.206 250.878C211.992 250.979 211.713 251.014 211.612 251.352C212.08 251.728 212.599 252.034 213.155 252.26C216.317 253.868 218.494 256.264 219.342 259.788C219.565 260.767 220.066 261.661 220.784 262.363C220.967 262.539 221.126 262.739 221.258 262.956C221.365 263.111 221.417 263.298 221.405 263.486C221.393 263.674 221.318 263.853 221.193 263.994C221.063 264.16 220.875 264.272 220.667 264.308C220.459 264.345 220.245 264.302 220.066 264.19C219.783 264.016 219.529 263.8 219.312 263.549C218.442 262.647 217.827 261.529 217.533 260.31C217.213 258.929 216.579 257.639 215.681 256.542C214.783 255.444 213.645 254.568 212.354 253.98C211.571 253.602 210.819 253.161 210.106 252.663C208.818 251.732 208.866 250.629 210.242 249.822C211.428 249.104 212.74 248.517 213.76 247.502C214.312 246.994 214.732 246.359 214.982 245.652C215.16 245.112 214.982 244.874 214.389 244.845C214.157 244.83 213.923 244.844 213.695 244.886C212.962 245.05 212.205 245.072 211.464 244.952C208.806 244.501 206.167 244.916 203.527 245.118C199.629 245.42 195.732 245.42 191.828 245.426C186.021 245.426 180.795 243.457 175.622 241.131C168.728 238.029 162.215 234.232 155.672 230.453C152.112 228.407 148.494 226.473 145.089 224.165C144.952 224.076 144.81 223.993 144.667 223.91C143.617 223.317 143.617 223.317 143.036 224.367C142.597 225.168 142.111 225.945 141.725 226.74C138.925 232.672 134.956 237.845 131.13 243.118C130.639 243.703 130.11 244.254 129.546 244.768C130.349 245.512 131.246 246.146 132.216 246.654C137.321 249.595 142.771 251.892 148.44 253.494C152.848 254.68 157.291 255.677 161.758 256.602C168.129 257.919 174.406 259.634 180.682 261.348C184.223 262.216 187.698 263.334 191.081 264.694C193.03 265.52 194.884 266.554 196.61 267.779C200.994 270.929 205.573 273.764 210.129 276.647C211.072 277.253 212.064 277.777 213.095 278.213C213.661 278.463 214.261 278.627 214.875 278.7C215.504 278.759 216.062 278.664 216.311 278.006C216.368 277.849 216.463 277.709 216.587 277.597C216.711 277.486 216.861 277.406 217.023 277.365C217.361 277.169 217.616 277.306 217.758 277.614C218.197 278.599 218.156 278.913 217.509 279.608C217.128 280.024 216.643 280.331 216.104 280.498C215.565 280.664 214.992 280.685 214.442 280.557C213.221 280.318 212.046 279.888 210.96 279.281C209.038 278.285 207.264 277.057 205.443 275.906C202.008 273.735 198.597 271.522 195.287 269.155C192.107 266.883 188.512 265.495 184.793 264.445C175.859 261.924 166.913 259.45 157.789 257.694C156.247 257.391 154.728 256.958 153.198 256.591C152.925 256.531 152.64 256.502 152.29 256.448C151.483 262.054 149.36 267.286 148.393 272.803C147.628 277.134 146.75 281.447 146.376 285.854C146.071 288.372 146.117 290.919 146.512 293.424C146.694 294.705 147.178 295.926 147.924 296.983C148.035 297.106 148.129 297.244 148.203 297.392C148.321 297.591 148.36 297.828 148.312 298.055C148.264 298.281 148.131 298.481 147.942 298.614C147.773 298.74 147.563 298.799 147.353 298.781C147.143 298.762 146.947 298.667 146.803 298.514C146.594 298.313 146.407 298.09 146.245 297.849C145.508 296.781 145.008 295.568 144.78 294.29C144.306 292.137 144.162 289.925 144.353 287.729C145.03 279.076 146.647 270.523 149.176 262.22C149.694 260.515 150.118 258.782 150.445 257.03C150.635 256.045 150.605 256.009 149.644 255.76C144.212 254.402 138.965 252.388 134.019 249.763C132.637 249.015 131.272 248.238 129.955 247.39C129.457 247.633 129.244 248.113 128.9 248.463C128.384 249.041 127.709 249.454 126.96 249.649C126.21 249.844 125.42 249.814 124.688 249.561C122.273 248.831 120.399 247.271 118.637 245.545C118.196 245.159 117.908 244.629 117.824 244.05C117.498 243.332 118.014 242.863 118.364 242.377C121.621 237.94 124.658 233.342 127.897 228.881C131.532 223.893 135.569 219.21 139.969 214.881C140.501 214.237 141.242 213.8 142.063 213.647C142.963 213.772 143.825 214.089 144.591 214.577C145.357 215.064 146.009 215.711 146.503 216.473C146.997 217.235 147.322 218.094 147.454 218.993C147.587 219.891 147.524 220.807 147.272 221.679C147.193 221.846 147.148 222.027 147.14 222.211C147.133 222.395 147.162 222.579 147.227 222.752C147.291 222.924 147.39 223.082 147.517 223.216C147.644 223.35 147.797 223.457 147.966 223.53C150.605 225.174 153.376 226.597 156.087 228.128C156.828 228.543 157.143 228.181 157.356 227.535C157.996 225.427 158.341 223.241 158.383 221.039C158.638 214.851 158.08 208.706 157.493 202.554C157.278 200.28 157.298 197.99 157.552 195.72C157.783 193.537 157.552 191.324 157.902 189.147C157.91 188.857 157.935 188.568 157.979 188.281C159.059 184.722 158.3 181.21 157.641 177.716C156.84 173.48 155.725 169.304 155.037 165.045C154.918 164.333 154.586 163.567 155.31 162.956C156.336 162.69 156.822 163.277 157.155 164.113C157.202 164.232 157.238 164.355 157.261 164.481C157.311 164.789 157.391 165.091 157.499 165.383C158.59 170.775 160.18 176.061 160.898 181.738C163.419 178.208 166.883 175.776 169.345 172.412C169.612 171.979 170.038 171.668 170.532 171.546C170.775 171.513 171.021 171.57 171.225 171.705C171.429 171.84 171.577 172.045 171.641 172.282C171.693 172.568 171.677 172.863 171.595 173.142C171.512 173.421 171.366 173.677 171.167 173.89C170.367 175.053 169.462 176.139 168.461 177.134C166.409 179.073 164.524 181.18 162.826 183.434C161.263 185.601 160.385 188.186 160.305 190.856C160.097 194.255 160.156 197.648 160.091 201.047C160.038 204.013 160.465 206.92 160.732 209.851C161.236 215.403 161.325 220.938 160.311 226.461C160.137 227.359 159.891 228.242 159.575 229.101C159.512 229.22 159.474 229.351 159.464 229.486C159.453 229.621 159.471 229.756 159.515 229.884C159.559 230.012 159.628 230.129 159.719 230.229C159.81 230.329 159.921 230.409 160.044 230.465C167.447 234.748 174.928 238.877 183.019 241.736C185.932 242.724 188.99 243.22 192.066 243.202C197.454 243.292 202.843 243.052 208.201 242.484C209.358 242.347 210.503 242.727 211.672 242.709C212.017 242.738 212.361 242.64 212.64 242.436C212.919 242.231 213.114 241.932 213.19 241.594C215.494 235.859 218.102 230.251 221.003 224.794C222.099 222.702 223.206 220.614 224.325 218.529C224.574 218.061 224.734 217.669 224.135 217.266C221.762 215.658 221.169 213.214 220.956 210.562C220.689 207.057 221.549 203.729 222.575 200.424C223.803 196.414 224.859 192.362 225.779 188.275C227.262 180.385 226.33 172.887 222.279 165.845C219.781 161.509 217.017 157.309 215.106 152.652C214.617 151.51 214.185 150.344 213.813 149.158C213.767 149.036 213.728 148.911 213.695 148.784C213.653 148.6 213.582 148.423 213.523 148.239C212.223 144.05 211.773 139.732 211.452 135.378C211.164 130.232 210.089 125.16 208.267 120.339C207.615 118.9 207.185 117.37 206.991 115.801C206.984 115.55 206.906 115.305 206.766 115.095C206.627 114.885 206.432 114.719 206.202 114.615C201.801 112.301 197.992 109.157 194.237 105.942C191.502 103.599 188.607 101.422 186.347 98.5622C185.855 97.969 185.398 97.625 184.959 98.6156C184.83 98.8307 184.643 99.0054 184.419 99.1199C183.867 99.4639 183.915 99.8317 184.212 100.366C185.06 101.926 184.882 103.017 183.476 104.061C181.767 105.325 181.103 106.82 181.779 108.908C182.509 111.162 181.459 113.233 180.889 115.321C180.431 117.138 179.653 118.859 178.594 120.405C178.287 120.85 178.038 121.333 177.852 121.84C177.259 123.377 177.71 124.433 179.217 125.038C179.75 125.257 180.32 125.406 180.854 125.631C181.494 125.834 182.058 126.225 182.471 126.755C182.884 127.285 183.127 127.927 183.167 128.597C183.233 129.683 183.814 129.908 184.71 129.914C185.456 129.893 186.198 129.805 186.928 129.653C187.462 129.569 188.005 129.559 188.542 129.623C190.09 129.819 190.755 131.023 190.078 132.417C189.444 133.717 188.299 134.446 187.112 135.14C185.926 135.834 185.926 135.805 187.035 136.481C188.815 137.561 189.034 138.486 187.996 140.289C187.729 140.758 187.551 141.268 187.302 141.749C186.211 142.164 185.558 141.861 185.131 140.723C185.914 139.305 185.564 138.403 184.134 137.501C182.835 136.683 183.049 134.85 184.283 133.865C185 133.272 185.89 132.999 186.851 132.334C185.869 132.472 184.875 132.512 183.885 132.453C181.91 132.305 181.05 131.51 180.824 129.564C180.818 129.167 180.682 128.783 180.438 128.469C180.194 128.156 179.855 127.93 179.472 127.826C179.276 127.767 179.08 127.695 178.878 127.624C175.224 126.349 174.067 123.472 175.912 120.025C176.618 118.714 177.532 117.522 178.095 116.122C178.404 115.344 178.315 115.167 177.395 115.19C173.128 115.386 168.853 115.362 164.588 115.119C163.376 114.995 162.159 115.293 161.141 115.961C158.984 117.452 157.057 119.251 155.422 121.3C154.865 121.989 154.859 122.6 155.535 123.128C157.867 124.949 158.294 127.227 157.214 129.884C156.911 130.62 157.214 131.071 157.855 131.391C160.554 132.856 163.093 134.589 165.679 136.244C166.409 136.878 166.367 137.661 166.136 138.486C165.608 139.079 165.163 138.605 164.736 138.35C158.145 134.417 151.478 130.638 145.011 126.485C140.924 123.869 136.706 121.455 132.459 119.111C132.157 118.963 131.884 118.762 131.652 118.518C131.539 118.358 131.462 118.174 131.428 117.98C131.394 117.787 131.404 117.588 131.456 117.398C131.508 117.209 131.602 117.033 131.73 116.884C131.858 116.735 132.018 116.617 132.198 116.537C132.927 116.389 133.461 116.833 134.037 117.13C140.432 120.654 146.661 124.45 152.806 128.401C153.156 128.627 153.53 128.811 153.874 129.042C154.509 129.475 154.841 129.279 155.007 128.567C155.19 128.049 155.228 127.491 155.117 126.953C155.006 126.414 154.751 125.916 154.378 125.512C149.775 120.173 144.216 116.021 138.361 112.248C134.173 109.555 130.139 106.636 125.595 104.536C124.409 103.996 123.222 103.545 122.036 103.011C121.401 102.721 121.016 102.792 120.85 103.528C120.772 103.977 120.639 104.416 120.452 104.833C119.503 106.755 119.627 108.392 121.68 109.472C122.06 109.907 122.524 110.26 123.044 110.51C123.263 110.633 123.433 110.828 123.525 111.061C123.595 111.416 123.544 111.784 123.381 112.107C123.217 112.429 122.951 112.688 122.623 112.841C122.286 112.857 121.955 112.745 121.698 112.527C118.524 110.154 115.516 107.644 113.185 104.394C111.749 102.389 111.044 100.105 110.433 97.7673C110.338 97.3936 110.385 96.747 109.91 96.7589C109.317 96.7589 109.276 97.4411 109.187 97.9097C109.062 98.6097 109.264 99.3156 109.151 100.022C108.825 101.997 107.128 102.988 105.384 101.997C103.753 101.06 102.187 100.265 100.241 100.633C97.8956 101.06 95.7253 102.161 93.9944 103.8C92.0901 105.58 90.2452 107.443 87.8189 108.546C87.4928 108.69 87.2197 108.931 87.0378 109.238C86.8559 109.544 86.7744 109.9 86.8045 110.255C86.8045 111.441 87.0418 111.678 88.1808 111.364C89.7067 110.999 91.3142 111.228 92.6774 112.005C95.2877 113.301 98.2165 113.818 101.113 113.494C104.886 113.102 108.232 114.437 111.002 117.053C112.716 118.56 114.315 120.194 115.783 121.941C115.819 122.932 115.279 123.359 114.354 123.406C113.955 123.255 113.605 122.999 113.339 122.665C112.958 122.332 112.644 121.929 112.414 121.478C112.031 121.006 111.593 120.582 111.109 120.215C110.284 120.873 109.442 121.526 108.629 122.214C106.577 123.958 104.53 125.714 102.489 127.482C100.555 129.187 98.9225 131.207 97.6605 133.456C94.1597 139.592 91.751 146.29 90.5418 153.251C89.1062 161.123 87.9257 169.043 86.852 176.98C86.2588 181.501 85.8079 186.045 85.274 190.577C84.835 194.225 84.3723 197.885 83.9274 201.581C83.3342 206.647 82.8299 211.725 82.2604 216.797C81.4003 224.42 80.8545 232.085 79.7452 239.684C79.0333 244.75 78.2681 249.84 77.7045 254.971C77.2477 259.094 76.8325 263.223 76.2986 267.334C75.7053 271.777 75.2248 276.232 74.6909 280.681C74.2678 284.181 74.0008 287.697 73.8901 291.229C73.7935 293.344 73.9931 295.463 74.4833 297.523C74.5201 297.685 74.5478 297.85 74.5664 298.015C74.6094 298.225 74.5723 298.443 74.4625 298.626C74.3527 298.809 74.178 298.945 73.9731 299.006C73.7739 299.071 73.5577 299.062 73.3646 298.981C73.1715 298.899 73.0146 298.75 72.9231 298.561C72.7031 298.203 72.5616 297.803 72.5079 297.386C72.1237 295.433 71.9566 293.444 72.0096 291.454C72.0689 287.551 72.4664 283.671 72.8697 279.791C73.7477 271.415 75.0706 263.092 75.8359 254.698C75.9782 253.049 76.2511 251.406 76.4291 249.763C76.5188 249.358 76.5409 248.941 76.4943 248.529C76.2927 247.934 76.2927 247.29 76.4943 246.696C77.396 240.71 78.274 234.713 78.8257 228.685C79.4189 221.834 80.2672 215.006 80.9554 208.16C81.6079 201.635 82.5155 195.157 83.2274 188.643C84.3367 178.457 85.8376 168.331 87.3799 158.205C88.4655 151.122 90.085 144.199 93.0215 137.632C93.8698 135.739 95.0028 134.001 95.9876 132.192C98.4554 127.375 102.792 124.367 106.778 121.028C107.318 120.571 107.882 120.144 108.445 119.722C109.151 119.194 109.234 118.779 108.445 118.192C106.876 116.878 104.914 116.122 102.869 116.044C102.453 116.102 102.03 116.002 101.683 115.766C101.089 115.766 100.443 115.766 99.8198 115.766C97.488 115.931 95.152 115.507 93.0274 114.532C93.1105 115.511 92.5232 115.825 91.7638 116.056C90.6004 116.397 89.3502 116.274 88.2757 115.712C86.3715 114.828 85.0189 113.511 84.5977 111.352C84.2062 109.371 84.9418 107.52 86.7511 106.666C88.5006 105.805 90.0786 104.633 91.4079 103.207C93.7988 100.639 96.9862 98.9521 100.455 98.4199C100.941 98.3487 101.439 98.3131 101.932 98.2656C103.029 97.8148 103.966 98.3724 104.868 98.8233C106.446 99.6063 106.416 99.6478 106.594 97.969C106.71 96.6716 107.312 95.4658 108.279 94.5936C109.839 93.1639 111.69 93.591 112.432 95.5665C112.77 96.4622 112.924 97.4055 113.173 98.3309C113.808 100.797 115.073 103.056 116.845 104.886C117.569 105.628 117.664 105.616 118.032 104.613C118.364 103.717 118.577 102.786 118.833 101.866C119.254 100.33 119.96 99.9148 121.496 100.3C122.257 100.508 122.997 100.791 123.703 101.143C124.563 101.546 125.097 101.297 125.548 100.52C126.883 98.2643 127.882 95.8263 128.514 93.2826C130.216 86.1639 129.742 79.1402 127.594 72.1639C126.473 68.5156 125.512 64.8257 125.536 60.9461C125.572 55.6071 127.867 51.3359 131.889 47.9842C134.513 45.8605 137.574 44.3432 140.853 43.5409C145.679 42.3071 150.637 41.6597 155.618 41.613C157.356 41.613 159.094 41.4291 160.821 41.2333C161.602 41.174 162.388 41.1979 163.164 41.3045C164.439 41.4528 165.727 41.4528 167.002 41.3045C169.375 41.352 171.689 40.7647 174.014 40.3731C176.339 39.9816 178.76 39.5248 181.133 39.1452C185.321 38.463 188.613 40.1714 190.731 44.5613C191.983 47.1596 191.324 49.7579 189.847 52.1427C189.407 52.7917 188.934 53.4175 188.429 54.0172C187.682 55.3816 186.46 56.2418 185.196 57.0545C183.879 57.923 182.499 58.6923 181.067 59.3562C180.35 59.6766 180.16 60.1037 180.51 60.8215C182.681 65.2588 183.423 70.0579 184.123 74.869C184.24 75.4806 184.29 76.1033 184.271 76.7258C184.075 79.4664 185.024 81.8571 186.478 84.1054C186.776 84.5472 187.133 84.9463 187.539 85.2919C187.615 85.3778 187.708 85.4475 187.812 85.4969C187.915 85.5462 188.028 85.5743 188.142 85.5792C188.257 85.5842 188.371 85.5661 188.479 85.5259C188.586 85.4857 188.684 85.4243 188.767 85.3453C194.534 80.7063 201.504 79.5614 208.504 78.4936C213.132 77.8077 217.86 78.4367 222.148 80.3088C225.203 81.6359 227.991 83.5073 230.376 85.8317C238.018 93.0834 243.423 102.371 245.954 112.598C247.004 116.62 247.971 120.66 248.19 124.818C248.405 128.177 248.381 131.547 248.119 134.903C247.956 136.971 247.932 139.048 248.048 141.12C248.215 146.268 249.11 151.367 250.706 156.265C251.839 159.611 252.847 162.986 253.802 166.385C254.852 170.117 255.825 173.895 255.879 177.745C255.962 183.025 256.412 188.376 254.811 193.567C252.829 199.956 249.727 205.603 244.548 210.017C242.69 211.663 240.706 213.162 238.616 214.501C236.529 215.8 234.193 216.646 231.758 216.987C231.113 217.143 230.459 217.262 229.801 217.343C227.831 217.408 226.834 218.529 226.069 220.244C224.776 223.157 223.24 225.968 221.81 228.828C219.935 232.571 218.203 236.391 216.471 240.206C216.277 240.707 215.978 241.16 215.593 241.535Z" fill="#251F39"/>
<path d="M141.79 213.926C141.097 214.199 140.485 214.644 140.011 215.219C133.772 221.547 128.191 228.492 123.353 235.946C122.167 237.726 120.856 239.357 119.622 241.077C118.886 241.973 118.286 242.973 117.842 244.044C115.492 243.643 113.349 242.452 111.767 240.668C109.727 238.255 108.17 235.471 107.182 232.47C104.881 226.199 103.436 219.646 102.887 212.988C102.454 207.448 102.157 201.901 102.193 196.343C102.193 193.608 102.193 190.867 102.193 188.132C102.276 182.657 102.329 177.182 102.507 171.712C102.515 168.645 102.701 165.581 103.065 162.535C103.896 157.309 106.119 152.403 109.501 148.333C112.699 144.323 116.774 141.576 121.366 139.548C123.744 138.42 126.405 138.029 129.006 138.426C129.422 138.664 129.76 138.278 130.145 138.278C131.222 139.101 132.237 140.001 133.183 140.971C135.805 143.558 138.397 146.162 140.989 148.778C142.099 149.887 143.457 150.718 144.448 151.952C144.555 152.177 144.65 152.403 144.762 152.622C144.875 152.842 145.017 153.085 145.136 153.328C146.145 155.517 146.352 157.89 146.595 160.233C147.189 166.041 146.595 171.819 146.204 177.609C145.403 189.811 143.695 201.871 141.79 213.926Z" fill="#251F39"/>
<path d="M144.288 152.076C140.669 148.997 137.442 145.497 134.001 142.229C132.684 140.977 131.397 139.702 130.098 138.438C129.789 138.509 129.683 138.331 129.635 138.07L122.516 130.952C122.582 130.026 123.264 129.842 123.988 129.718C124.478 129.826 124.913 130.106 125.216 130.507C126.04 131.319 126.871 132.138 127.677 132.969C132.833 138.308 138.243 143.392 143.576 148.541C146.542 151.412 149.751 154.093 153.661 155.725C153.903 155.783 154.131 155.892 154.331 156.043C154.53 156.194 154.695 156.384 154.817 156.603C154.669 156.974 154.427 157.3 154.115 157.551C153.803 157.801 153.432 157.967 153.038 158.032C150.392 157.261 148.292 155.553 146.138 153.963C145.771 153.696 145.421 153.37 145.071 153.108C144.951 152.991 144.844 152.862 144.75 152.723C144.626 152.503 144.442 152.308 144.288 152.076Z" fill="#010000"/>
<path d="M221.845 273.414C220.012 274.126 218.316 273.669 216.702 272.637C215.312 271.735 213.87 270.915 212.383 270.181C212.159 270.076 211.95 269.943 211.761 269.784C211.635 269.672 211.55 269.522 211.518 269.356C211.487 269.191 211.512 269.02 211.589 268.87C211.648 268.711 211.763 268.579 211.913 268.5C212.062 268.42 212.236 268.398 212.401 268.437C212.724 268.503 213.038 268.61 213.333 268.757C214.839 269.457 216.269 270.294 217.699 271.13C218.221 271.471 218.796 271.721 219.401 271.872C219.889 271.998 220.406 271.941 220.855 271.712C220.933 271.686 221.006 271.645 221.068 271.59C221.129 271.534 221.179 271.467 221.213 271.391C221.247 271.316 221.265 271.234 221.266 271.152C221.266 271.069 221.25 270.987 221.217 270.911C221.064 270.482 220.937 270.044 220.837 269.6C220.801 269.491 220.788 269.375 220.798 269.26C220.809 269.146 220.843 269.034 220.899 268.934C220.955 268.833 221.031 268.745 221.122 268.674C221.213 268.604 221.318 268.554 221.43 268.526C221.533 268.5 221.64 268.494 221.745 268.51C221.85 268.525 221.951 268.562 222.042 268.617C222.132 268.673 222.211 268.746 222.273 268.832C222.335 268.918 222.379 269.016 222.403 269.119C222.617 269.653 222.771 270.217 222.949 270.769C224.106 274.441 225.636 277.994 226.567 281.737C227.125 283.991 227.653 286.252 228.187 288.506C228.261 288.829 228.307 289.159 228.323 289.491C228.359 290.024 228.258 290.529 227.629 290.63C227 290.73 226.733 290.291 226.561 289.793C226.46 289.476 226.378 289.153 226.318 288.826C225.3 283.874 223.937 279 222.237 274.239C222.19 273.932 222.054 273.645 221.845 273.414Z" fill="#251F39"/>
<path d="M124.118 129.896C123.796 129.945 123.489 130.066 123.22 130.25C122.951 130.434 122.727 130.676 122.564 130.958C122.042 131.017 121.71 131.432 121.265 131.646C120.671 131.937 119.995 132.192 119.408 131.646C118.821 131.1 118.898 130.46 119.07 129.807C119.269 129.309 119.548 128.846 119.894 128.437C120.618 128.312 120.838 128.793 120.992 129.35C120.992 129.593 120.642 129.807 120.778 130.003C120.915 130.199 121.099 129.854 121.259 129.76C121.824 129.396 122.339 128.959 122.789 128.46C125.708 125.127 128.401 121.644 129.991 117.438C130.286 116.943 130.519 116.413 130.685 115.86C130.685 115.807 130.899 115.57 130.608 115.771C130.545 115.815 130.471 115.842 130.394 115.849C130.144 115.827 129.909 115.719 129.73 115.542C129.551 115.366 129.44 115.132 129.416 114.882C129.398 114.671 129.455 114.461 129.576 114.288C130.086 113.642 130.56 112.823 131.545 113.066C132.53 113.31 132.678 114.253 132.672 115.166C132.7 115.665 132.595 116.162 132.37 116.608C132.092 116.809 131.888 117.095 131.79 117.423C131.691 117.751 131.703 118.103 131.824 118.423C129.967 122.522 127.321 126.093 124.51 129.564C124.391 129.688 124.26 129.799 124.118 129.896Z" fill="#251F39"/>
<path d="M122.6 112.806C123.071 112.333 123.339 111.694 123.347 111.026C123.347 110.7 123.205 110.599 122.902 110.688C122.389 110.539 121.947 110.211 121.656 109.763C121.806 109.471 122.02 109.218 122.282 109.021C122.544 108.825 122.847 108.691 123.169 108.629C123.398 108.571 123.636 108.564 123.868 108.61C124.099 108.655 124.318 108.751 124.508 108.892C124.697 109.032 124.853 109.213 124.965 109.421C125.076 109.629 125.139 109.859 125.15 110.095C125.168 110.746 125.12 111.398 125.008 112.041C124.585 112.641 124.296 113.324 124.16 114.046C122.926 115.748 121.882 117.575 120.6 119.224C119.491 120.607 118.382 121.989 117.142 123.252C116.635 123.694 116.073 124.067 115.469 124.362C114.876 124.629 114.283 124.955 113.689 125.163C112.099 125.702 111.097 124.777 111.447 123.122C111.633 122.492 111.971 121.917 112.432 121.449C112.658 121.527 112.866 121.652 113.04 121.817C113.214 121.982 113.35 122.182 113.44 122.404C113.316 122.819 112.995 123.169 113.019 123.662C113.523 123.662 113.82 123.246 114.253 123.181C114.594 123.182 114.926 123.064 115.19 122.848C115.454 122.631 115.634 122.33 115.7 121.995C118.339 119.202 120.654 116.119 122.6 112.806Z" fill="#251F39"/>
<path d="M119.1 127.683C118.733 127.697 118.379 127.816 118.079 128.028C117.053 128.496 116.252 128.401 115.706 127.766C115.161 127.132 115.255 126.26 115.831 125.394C115.92 125.257 116.015 125.127 116.11 124.996C116.272 124.969 116.439 124.977 116.599 125.018C116.759 125.059 116.908 125.133 117.037 125.235C117.167 125.337 117.274 125.465 117.351 125.611C117.428 125.757 117.474 125.917 117.486 126.082C117.444 126.283 117.183 126.337 117.154 126.55C117.444 126.663 117.593 126.408 117.806 126.313C118.363 126.067 118.862 125.707 119.272 125.257C121.769 122.077 124.415 119.005 126.39 115.463C126.718 114.955 126.958 114.395 127.102 113.808C127.304 113.084 126.823 113.672 126.687 113.6C126.052 113.393 125.299 113.327 125.334 112.414C125.571 112.122 125.849 111.866 126.159 111.655C126.469 111.405 126.849 111.258 127.247 111.233C127.644 111.209 128.039 111.308 128.378 111.518C128.683 111.694 128.927 111.958 129.078 112.276C129.23 112.594 129.281 112.95 129.226 113.298C129.201 113.711 129.144 114.122 129.054 114.526C128.667 115.177 128.349 115.867 128.105 116.584C125.862 120.055 123.264 123.264 120.713 126.509C120.185 126.835 119.817 127.505 119.1 127.683Z" fill="#251F39"/>
<path d="M95.2876 149.378C95.3706 148.945 95.4359 148.452 95.5664 147.972C96.3398 145.048 97.3313 142.187 98.5325 139.412C100.006 136.113 102.076 133.115 104.637 130.567C105.307 129.885 105.954 129.185 106.63 128.514C106.867 128.277 107.17 128.069 107.502 128.36C107.834 128.651 107.751 129.024 107.502 129.333C107.116 129.766 106.743 130.211 106.316 130.614C101.083 135.621 98.4791 141.998 96.7647 148.844C96.6935 149.129 96.6401 149.437 96.5749 149.692C96.5584 149.859 96.4785 150.014 96.3517 150.124C96.2248 150.235 96.0606 150.292 95.8927 150.285C95.5249 150.274 95.2935 149.9 95.2876 149.378Z" fill="#251F39"/>
<path d="M150.855 283.89C150.932 279.85 151.869 276.25 152.925 272.667C153.049 272.229 153.198 271.8 153.37 271.379C153.393 271.287 153.437 271.202 153.498 271.129C153.559 271.056 153.636 270.998 153.723 270.958C153.809 270.919 153.903 270.9 153.998 270.902C154.093 270.904 154.187 270.927 154.272 270.97C154.657 271.154 154.598 271.516 154.479 271.836C153.837 273.804 153.312 275.809 152.907 277.839C152.35 280.265 152.13 282.757 152.255 285.243C152.291 286.24 152.491 287.224 152.848 288.156C153.002 288.535 153.067 288.903 152.634 289.111C152.201 289.318 151.928 289.063 151.715 288.719C151.339 288.07 151.115 287.344 151.062 286.595C150.95 285.611 150.908 284.632 150.855 283.89ZM79.9884 285.106C80.2138 282.906 80.6706 280.592 81.1155 278.272C81.4531 276.268 81.9167 274.287 82.5037 272.34C82.6223 271.984 82.741 271.628 82.8893 271.29C82.9135 271.21 82.9537 271.135 83.0074 271.07C83.0611 271.005 83.1273 270.952 83.2019 270.913C83.2766 270.875 83.3583 270.851 83.4421 270.845C83.526 270.838 83.6103 270.848 83.6901 270.875C84.0994 271.006 84.1054 271.35 84.0105 271.694C83.7672 272.53 83.4588 273.349 83.2749 274.191C82.3633 278.102 81.6897 282.064 81.2579 286.056C81.2412 286.258 81.1993 286.457 81.1333 286.649C81.0954 286.747 81.0287 286.832 80.942 286.892C80.8553 286.953 80.7525 286.986 80.6469 286.987C80.519 286.994 80.3921 286.96 80.2852 286.89C80.1782 286.819 80.097 286.716 80.0537 286.595C79.9499 286.106 79.9279 285.603 79.9884 285.106Z" fill="#251F39"/>
<path d="M217.034 277.17C214.762 275.983 212.656 274.489 210.26 273.545C209.738 273.344 209.406 273.011 209.589 272.406C209.726 271.955 210.212 271.76 210.847 271.973C211.513 272.201 212.16 272.48 212.781 272.81C214.217 273.551 215.623 274.34 217.046 275.105C217.317 275.299 217.642 275.403 217.975 275.403C218.308 275.403 218.632 275.299 218.903 275.105C218.993 275.016 219.103 274.949 219.223 274.909C219.344 274.87 219.473 274.86 219.598 274.879C219.723 274.899 219.842 274.948 219.945 275.022C220.048 275.097 220.132 275.194 220.19 275.307C220.323 275.523 220.367 275.781 220.314 276.029C220.261 276.276 220.115 276.493 219.906 276.636C219.643 276.833 219.363 277.006 219.069 277.152C218.407 277.354 217.7 277.36 217.034 277.17Z" fill="#251F39"/>
<path d="M219.751 268.194C217.266 268.117 215.285 266.949 213.416 265.525C213.216 265.38 213.074 265.17 213.012 264.932C212.947 264.756 212.944 264.563 213.004 264.385C213.063 264.207 213.181 264.054 213.339 263.953C213.473 263.851 213.64 263.801 213.808 263.813C213.976 263.825 214.134 263.898 214.252 264.018C214.942 264.617 215.71 265.118 216.536 265.507C217.794 266.26 219.288 266.516 220.724 266.225C221.246 266.1 221.739 266.16 221.958 266.753C222.13 267.221 221.816 267.702 221.175 267.981C221.027 268.055 220.87 268.107 220.707 268.135C220.374 268.165 220.042 268.171 219.751 268.194Z" fill="#040303"/>
<path d="M92.9385 167.174C93.2826 164.342 93.6286 161.509 93.9766 158.673C94.0085 158.473 94.0812 158.281 94.1902 158.11C94.2397 158.017 94.3183 157.944 94.4138 157.901C94.5093 157.858 94.6163 157.848 94.7182 157.872C94.8213 157.889 94.9173 157.935 94.9943 158.006C95.0713 158.077 95.1258 158.168 95.1512 158.27C95.1844 158.466 95.1844 158.667 95.1512 158.863C94.7241 161.829 94.4987 164.795 94.2376 167.761C94.2376 167.844 94.2376 167.927 94.2376 168.01C94.1902 168.414 94.0478 168.77 93.5732 168.734C93.0987 168.699 92.98 168.319 92.98 167.915C92.98 167.666 92.98 167.417 92.98 167.168L92.9385 167.174Z" fill="#251F39"/>
<path d="M117.403 126.111C117.134 125.589 116.682 125.186 116.133 124.978L115.439 124.385C115.814 123.864 116.322 123.454 116.91 123.198C117.464 123.375 117.974 123.667 118.404 124.057C118.835 124.447 119.177 124.925 119.408 125.458C119.246 125.739 119.024 125.98 118.759 126.166C118.493 126.351 118.19 126.476 117.871 126.532C117.811 126.546 117.749 126.545 117.689 126.529C117.629 126.514 117.574 126.484 117.528 126.443C117.482 126.402 117.447 126.35 117.425 126.292C117.403 126.234 117.396 126.172 117.403 126.111Z" fill="#050405"/>
<path d="M119.099 127.684C119.421 127.118 119.935 126.684 120.547 126.462C121.57 126.902 122.399 127.699 122.878 128.704C122.538 129.254 122.022 129.672 121.413 129.891C121.279 129.885 121.152 129.83 121.056 129.735C120.961 129.641 120.904 129.515 120.897 129.381C120.662 128.97 120.309 128.641 119.883 128.437L119.099 127.684Z" fill="#251F39"/>
<path d="M80.7537 294.242C80.7952 294.747 80.7537 295.073 80.3384 295.162C80.2583 295.179 80.1754 295.179 80.0951 295.163C80.0149 295.146 79.9389 295.113 79.872 295.066C79.8051 295.018 79.7488 294.958 79.7065 294.887C79.6643 294.817 79.6371 294.739 79.6266 294.658C79.4204 293.944 79.3166 293.205 79.3181 292.463C79.3181 292.083 79.4961 291.81 79.9113 291.798C80.3266 291.786 80.5045 292.077 80.5342 292.433C80.5609 293.041 80.6342 293.646 80.7537 294.242Z" fill="#251F39"/>
<path d="M154.734 295.708C154.725 295.787 154.697 295.863 154.653 295.93C154.609 295.997 154.551 296.053 154.482 296.094C154.413 296.134 154.336 296.159 154.256 296.165C154.177 296.171 154.097 296.159 154.022 296.129C153.712 295.974 153.452 295.733 153.273 295.436C153.093 295.139 153.001 294.797 153.008 294.45C153.019 294.368 153.049 294.289 153.096 294.221C153.143 294.152 153.205 294.096 153.278 294.056C153.351 294.016 153.432 293.994 153.515 293.991C153.598 293.989 153.68 294.006 153.755 294.041C154.248 294.48 154.591 295.064 154.734 295.708Z" fill="#121010"/>
<path d="M217.035 277.169H219.069C218.743 277.614 218.162 277.305 217.788 277.614L217.052 277.365C217.024 277.303 217.018 277.234 217.035 277.169Z" fill="#9EC2C2"/>
<path d="M226.075 188.216C226.004 187.741 225.749 187.771 225.369 187.907C224.183 188.34 222.931 188.714 221.685 189.04C218.945 189.714 216.105 189.887 213.303 189.551C203.812 188.631 195.222 185.214 186.97 180.712C182.278 178.155 177.621 175.509 172.946 172.911C172.509 172.595 172.01 172.377 171.481 172.27C171.363 172.113 171.21 171.986 171.034 171.899C170.857 171.813 170.663 171.769 170.467 171.772C168.402 170.983 166.581 169.725 164.653 168.687C162.067 167.287 159.373 166.083 156.995 164.315C156.905 163.97 156.713 163.66 156.442 163.428C156.172 163.196 155.836 163.052 155.482 163.016C153.216 162.191 152.124 159.89 153.026 157.849C153.75 157.647 154.159 157.006 154.752 156.627C154.583 156.285 154.483 155.912 154.459 155.531C154.436 155.151 154.489 154.769 154.615 154.408C154.741 154.048 154.937 153.717 155.193 153.433C155.449 153.15 155.759 152.921 156.105 152.759C156.485 152.608 156.823 152.368 157.089 152.058C157.356 151.748 157.543 151.378 157.635 150.979C157.776 150.499 158.037 150.062 158.393 149.709C158.749 149.356 159.188 149.099 159.67 148.962C160.18 148.779 160.714 148.69 161.218 148.517C162.405 148.114 162.713 147.545 162.405 146.346C162.345 146.103 162.262 145.866 162.221 145.623C161.8 143.25 162.571 142.105 164.932 141.642C165.175 141.589 165.424 141.571 165.667 141.512C166.45 141.328 166.694 140.918 166.314 140.153C166.089 139.696 165.602 139.287 165.946 138.682C165.81 137.923 166.213 137.051 165.472 136.41C166.148 135.372 167.168 135.508 168.141 135.692C170.941 136.22 173.688 136.985 176.446 137.762C178.873 138.451 181.228 139.352 183.565 140.206C184.119 140.481 184.727 140.627 185.345 140.634C185.422 140.859 185.279 141.227 185.546 141.298C186.068 141.446 186.519 141.974 187.142 141.648C188.922 141.755 190.595 142.467 192.273 142.995C199.035 145.159 205.906 146.964 212.858 148.405C213.273 148.443 213.668 148.599 213.997 148.856C215.492 153.601 217.918 157.896 220.451 162.132C222.229 164.933 223.744 167.892 224.978 170.971C226.477 175.119 227.025 179.551 226.579 183.939C226.539 185.377 226.371 186.808 226.075 188.216Z" fill="#251F39"/>
<path d="M214.027 148.856C213.615 148.885 213.202 148.843 212.805 148.731C204.927 147.212 197.256 144.905 189.61 142.526C188.765 142.332 187.946 142.038 187.172 141.648C187.157 141.358 187.202 141.069 187.305 140.797C187.407 140.526 187.563 140.278 187.765 140.07C188.779 138.628 188.566 137.756 187.017 136.831C186.495 136.517 185.867 136.351 185.493 135.811C185.724 135.395 186.145 135.301 186.513 135.128C187.444 134.663 188.302 134.063 189.058 133.349C189.537 132.944 189.876 132.398 190.025 131.789C190.086 131.578 190.099 131.357 190.063 131.141C190.027 130.925 189.944 130.72 189.819 130.541C189.694 130.361 189.53 130.212 189.34 130.103C189.15 129.995 188.938 129.93 188.72 129.914C188.058 129.832 187.386 129.872 186.739 130.033C185.895 130.265 185.017 130.341 184.146 130.258C183.019 130.145 182.989 130.151 182.96 129C182.958 128.481 182.833 127.969 182.595 127.506C182.357 127.044 182.012 126.646 181.589 126.343C181.291 126.118 180.953 125.951 180.593 125.85C180.231 125.75 179.881 125.637 179.525 125.524C177.354 124.86 176.701 123.347 177.745 121.295C177.978 120.854 178.238 120.428 178.523 120.019C179.729 118.177 180.56 116.115 180.967 113.95C181.022 113.625 181.12 113.308 181.257 113.007C181.826 111.885 181.959 110.592 181.631 109.377C181.631 109.258 181.572 109.139 181.53 109.021C180.747 106.772 181.453 105.058 183.411 103.789C183.793 103.571 184.098 103.24 184.283 102.841C184.468 102.443 184.524 101.996 184.443 101.564C184.388 101.193 184.244 100.84 184.022 100.538C183.802 100.235 183.553 99.9445 183.245 99.5886C184.099 98.9182 185.368 98.5564 185.273 97.1386C185.766 97.2216 185.896 97.5657 186.11 97.803C187.726 99.6952 189.492 101.455 191.39 103.065C193.887 105.129 196.278 107.312 198.829 109.306C201.266 111.308 203.915 113.037 206.73 114.461C207.051 114.615 207.294 114.763 207.323 115.167C207.452 116.866 207.888 118.529 208.611 120.073C210.484 125.015 211.577 130.218 211.85 135.496C212.071 139.847 212.773 144.161 213.944 148.357C213.973 148.454 214.01 148.547 214.056 148.636C214.06 148.711 214.05 148.785 214.027 148.856ZM153.026 157.849C152.809 158.772 152.896 159.741 153.276 160.611C153.656 161.48 154.307 162.203 155.132 162.672C155.26 162.774 155.377 162.889 155.482 163.016C154.948 163.508 155.185 164.095 155.286 164.653C156.053 168.723 156.9 172.778 157.825 176.82C158.301 179.01 158.63 181.23 158.81 183.464C158.999 184.718 158.91 185.998 158.549 187.213C158.193 188.54 158.029 189.91 158.062 191.283C157.884 195.797 157.54 200.318 158.009 204.838C158.205 206.736 158.341 208.64 158.537 210.539C158.858 213.97 158.927 217.42 158.745 220.861C158.7 223.395 158.276 225.909 157.487 228.318C157.404 228.549 157.303 228.774 157.232 228.946C157.185 229.001 157.119 229.035 157.048 229.044C156.977 229.053 156.905 229.035 156.846 228.994C153.661 227.131 150.35 225.5 147.248 223.495C146.423 222.967 146.423 222.979 146.785 222.083C146.966 221.666 147.12 221.238 147.248 220.802C147.645 219.2 147.432 217.77 146.127 216.602C145.297 215.788 144.393 215.053 143.428 214.407C142.962 214.05 142.381 213.879 141.796 213.926C141.446 213.837 141.393 213.659 141.452 213.297C141.98 210.147 142.508 207.003 142.959 203.847C143.552 199.784 144.05 195.714 144.572 191.645C145.213 186.626 145.557 181.56 145.972 176.541C146.311 172.389 146.708 168.278 146.5 164.119C146.445 161.3 146.14 158.491 145.587 155.725C145.373 154.84 145.101 153.97 144.774 153.121C144.739 152.842 144.816 152.694 145.124 152.806C146.512 153.773 147.764 154.918 149.206 155.82C150.43 156.586 151.706 157.264 153.026 157.849ZM165.964 138.7C166.166 139.242 166.422 139.763 166.729 140.254C167.145 141.144 166.978 141.541 166.023 141.808C165.466 141.956 164.878 142.004 164.315 142.14C162.956 142.467 162.393 143.25 162.428 144.656C162.496 145.315 162.627 145.967 162.82 146.601C163.081 147.788 162.755 148.411 161.598 148.79C161.162 148.926 160.718 149.035 160.269 149.117C159.622 149.197 159.022 149.494 158.565 149.96C158.108 150.425 157.822 151.031 157.754 151.679C157.745 151.923 157.661 152.158 157.513 152.352C157.365 152.547 157.162 152.691 156.929 152.765C155.055 153.489 154.556 154.379 154.764 156.401C154.77 156.482 154.77 156.564 154.764 156.645C154.491 156.463 154.205 156.301 153.91 156.158C151.554 155.148 149.356 153.803 147.384 152.166C143.991 149.55 141.055 146.453 138 143.475C133.365 138.967 128.745 134.446 124.142 129.914C124.089 129.481 124.427 129.25 124.652 128.971C127.161 125.856 129.558 122.653 131.243 118.993C131.367 118.72 131.504 118.483 131.836 118.471C138.106 121.846 144.193 125.524 150.19 129.362C152.308 130.721 154.461 132.038 156.668 133.272C159.634 134.921 162.517 136.706 165.436 138.427C165.59 138.516 165.78 138.593 165.964 138.7ZM181.459 73.2792C180.99 73.036 180.7 72.8936 180.415 72.7394C177.123 70.9953 173.652 72.9292 172.264 75.919C172.11 76.2631 171.979 76.6724 172.412 76.9097C172.845 77.147 173.112 76.8563 173.32 76.5123C173.468 76.2631 173.593 76.0021 173.747 75.7589C175.278 73.386 177.763 72.7928 180.207 74.1394C180.427 74.258 180.634 74.4953 180.854 74.4953C181.934 74.4953 181.922 75.2546 181.922 76.008C181.922 76.2572 181.951 76.5063 181.922 76.7495C181.756 80.9021 183.411 84.3191 186.157 87.297C187.302 88.5369 187.231 89.3733 185.878 90.3818C185.084 90.975 184.14 91.3606 183.428 92.0725C183.15 92.3513 182.806 92.2682 182.491 92.2564C181.886 92.235 181.286 92.3722 180.75 92.6541C180.214 92.9361 179.761 93.3532 179.436 93.864C178.487 95.1746 177.715 96.6048 177.14 98.1174C176.547 99.7986 175.819 101.429 174.963 102.994C174.521 103.793 173.994 104.543 173.391 105.23C173.064 105.643 172.597 105.92 172.078 106.01C171.559 106.1 171.026 105.995 170.579 105.717C169.162 104.969 168.45 103.658 167.934 102.234C167.251 100.354 167.044 98.3665 166.694 96.403C165.875 91.7996 166.1 87.1428 165.952 82.5038C165.952 82.1716 165.952 81.8335 165.952 81.5072C165.752 79.9105 165.91 78.2893 166.415 76.7614C167.121 74.525 166.759 72.247 166.1 70.0224C165.899 69.3461 165.656 68.6877 165.466 68.0114C164.742 65.419 165.466 63.5326 168.39 62.9394C170.553 62.5593 172.692 62.0563 174.797 61.4326C175.636 61.1993 176.462 60.9201 177.271 60.5961C177.864 60.3351 178.048 60.5546 178.279 61.0529C179.535 63.7636 180.421 66.6308 180.913 69.5775C181.19 70.7955 181.373 72.0331 181.459 73.2792ZM158.24 115.327C156.372 117.05 154.638 118.914 153.056 120.903C145.765 113.784 137.009 108.789 128.33 103.344C132.352 102.845 135.751 100.971 139.192 99.2445C142.633 97.5182 145.919 95.4716 148.482 92.4343L150.261 93.7572C151.203 94.3817 152.295 94.7423 153.423 94.8013C153.753 94.8613 154.093 94.8178 154.396 94.6767C154.549 94.6056 154.678 94.4925 154.768 94.3506C154.858 94.2087 154.906 94.044 154.906 93.8759C154.918 93.7085 154.878 93.5415 154.792 93.3974C154.706 93.2532 154.579 93.1387 154.426 93.0691C154.243 92.9682 154.041 92.9056 153.833 92.8852C151.608 92.8318 150.072 91.5801 148.962 89.8538C147.331 87.3089 146.465 84.5148 147.254 81.4597C147.847 79.0868 149.627 77.9301 152.106 78.2741C154.302 78.4877 156.376 79.3816 158.039 80.8309C158.123 80.9247 158.224 81.003 158.335 81.0623C159.682 81.5606 159.759 82.658 159.783 83.8801C159.86 87.8428 159.261 91.7403 158.839 95.6614C158.466 99.1318 157.404 102.472 156.834 105.906C156.378 108.653 156.277 111.358 157.428 113.974C157.638 114.459 157.911 114.914 158.24 115.327Z" fill="white"/>
<path d="M122.6 112.805C122.598 113.218 122.456 113.618 122.196 113.938C120.604 116.638 118.723 119.157 116.584 121.448C116.341 121.721 116.104 122.042 115.671 121.988C114.277 120.63 112.889 119.259 111.471 117.913C110.877 117.373 110.284 116.869 109.691 116.376C107.727 114.74 105.253 113.842 102.697 113.837C101.825 113.837 100.953 113.837 100.087 113.897C97.76 114.103 95.4212 113.668 93.3241 112.639C92.5835 112.263 91.8063 111.965 91.0046 111.749C89.6323 111.394 88.1774 111.557 86.9173 112.206C86.6411 111.716 86.4789 111.171 86.4427 110.61C86.3656 109.62 86.6563 108.742 87.6291 108.338C89.8596 107.383 91.5622 105.752 93.2529 104.091C95.0796 102.258 97.3937 100.988 99.9207 100.431C100.723 100.203 101.565 100.158 102.387 100.3C103.208 100.442 103.987 100.766 104.666 101.249C105.243 101.734 105.961 102.021 106.713 102.068C106.971 102.104 107.234 102.085 107.484 102.013C107.734 101.941 107.966 101.816 108.166 101.649C108.365 101.481 108.526 101.273 108.64 101.039C108.754 100.804 108.817 100.548 108.825 100.288C108.884 99.7519 108.884 99.2108 108.825 98.6746C108.772 98.2191 108.829 97.7576 108.992 97.329C109.156 96.9005 109.42 96.5176 109.762 96.2127C110.071 95.9517 110.355 95.922 110.474 96.4263C110.67 97.2746 110.901 98.111 111.109 98.9593C111.957 102.189 113.691 105.117 116.116 107.413C118.12 109.391 120.289 111.195 122.6 112.805ZM128.864 114.674C128.834 114.181 128.87 113.686 128.971 113.203C129.029 112.896 128.988 112.579 128.852 112.298C128.716 112.017 128.494 111.787 128.217 111.642C127.902 111.49 127.548 111.434 127.201 111.481C126.854 111.529 126.529 111.678 126.266 111.909C126.005 112.135 125.922 112.603 125.423 112.503C125.085 112.633 124.937 112.461 124.878 112.153C124.779 112.048 124.712 111.919 124.682 111.779C124.653 111.638 124.663 111.493 124.711 111.358C124.842 111.007 124.89 110.632 124.854 110.26C124.806 109.074 123.863 108.522 122.778 109.074C122.38 109.275 122.184 109.774 121.656 109.786C121.01 109.264 120.357 108.747 119.716 108.22C119.461 108.012 119.2 107.816 119.361 107.395C119.967 105.706 120.482 103.985 120.903 102.24C123.94 103.492 126.906 104.666 129.623 106.339C135.692 110.082 141.749 113.849 147.343 118.298C150.179 120.664 152.82 123.255 155.239 126.046C155.399 126.202 155.516 126.398 155.578 126.613C155.64 126.828 155.646 127.056 155.595 127.274C155.454 128.221 155.21 129.15 154.865 130.044C153.625 129.285 152.385 128.561 151.181 127.784C145.158 123.888 138.996 120.226 132.696 116.798C132.586 116.74 132.473 116.689 132.358 116.643C132.168 116.281 132.358 115.931 132.358 115.575C132.398 115.181 132.398 114.784 132.358 114.389C132.352 114.171 132.279 113.959 132.15 113.783C132.021 113.607 131.841 113.474 131.635 113.402C131.428 113.33 131.205 113.322 130.994 113.38C130.783 113.437 130.595 113.558 130.454 113.725C130.036 114.058 129.733 114.515 129.588 115.03C129.196 115.208 128.977 115.059 128.864 114.674ZM123.638 247.122C123.546 247.085 123.458 247.037 123.377 246.98C122.263 246.257 121.221 245.431 120.262 244.512C120.184 244.463 120.119 244.396 120.071 244.316C120.024 244.237 119.995 244.148 119.988 244.055C119.981 243.963 119.996 243.871 120.031 243.785C120.067 243.7 120.121 243.624 120.191 243.563C120.553 243.059 120.861 242.513 121.247 242.027C123.276 239.499 125.02 236.782 126.847 234.113C131.163 227.816 136.031 221.916 141.393 216.482C142.111 215.747 142.111 215.747 142.911 216.31C143.149 216.477 143.362 216.672 143.6 216.838C143.837 217.004 143.926 217.277 143.789 217.657C141.238 224.495 137.746 230.944 133.414 236.818C132.655 237.862 131.854 238.871 131.183 239.962C129.878 242.074 128.063 243.717 126.295 245.402C125.608 245.999 124.887 246.555 124.136 247.069C124.041 247.146 123.958 247.259 123.638 247.122Z" fill="white"/>
<path d="M141.233 48.1084C141.334 48.1105 141.434 48.1376 141.523 48.1872C141.612 48.2369 141.687 48.3076 141.743 48.3931C141.808 48.5017 141.832 48.63 141.812 48.755C141.791 48.8799 141.727 48.9935 141.63 49.0753C141.351 49.3178 141.049 49.5324 140.728 49.716C139.667 50.2788 138.646 50.9151 137.673 51.6203C136.317 52.6173 135.184 53.8871 134.347 55.348C133.51 56.8089 132.988 58.4287 132.815 60.1033C132.53 62.659 132.731 65.2455 133.408 67.7262C133.472 67.9208 133.526 68.1189 133.568 68.3195C133.601 68.4429 133.584 68.5744 133.521 68.6854C133.457 68.7964 133.353 68.878 133.23 68.9127C133.114 68.9587 132.985 68.9638 132.865 68.9272C132.746 68.8905 132.642 68.8143 132.572 68.711C132.413 68.4703 132.292 68.206 132.216 67.9279C131.233 64.7408 131.1 61.3525 131.83 58.0982C132.506 55.1605 134.197 52.5555 136.605 50.7423C137.763 49.8649 138.998 49.0945 140.295 48.4406C140.583 48.2699 140.901 48.157 141.233 48.1084Z" fill="#251F39"/>
<path d="M173.148 55.6961C172.632 55.6961 172.347 55.6308 172.246 55.3105C172.145 54.9901 172.377 54.6816 172.703 54.5393C173.029 54.3969 173.403 54.2901 173.753 54.1596C176.755 53.0266 179.638 51.6799 182.088 49.5444C183.66 48.1621 184.882 46.5782 185.125 44.4308C185.138 44.3067 185.159 44.1838 185.19 44.063C185.297 43.713 185.493 43.4698 185.902 43.535C185.986 43.5502 186.065 43.5832 186.135 43.6317C186.205 43.6803 186.263 43.7432 186.307 43.8164C186.35 43.8895 186.377 43.9711 186.386 44.0556C186.395 44.1401 186.386 44.2256 186.359 44.3062C186.246 45.5046 185.896 46.6683 185.327 47.7291C184.343 49.2782 183.061 50.6154 181.554 51.6622C179.219 53.3226 176.642 54.6132 173.913 55.4884C173.599 55.5952 173.272 55.6486 173.148 55.6961Z" fill="#251F39"/>
<path d="M91.924 113.998C90.4766 114.722 89.4147 114.265 88.1927 113.548C89.5808 113.02 90.6605 113.387 91.924 113.998Z" fill="#DDDFDF"/>
<path d="M114.223 123.199C114.218 123.301 114.186 123.4 114.131 123.487C114.076 123.573 113.999 123.643 113.909 123.691C113.511 123.875 113.049 124.314 112.693 123.893C112.337 123.472 112.693 123.021 112.995 122.659C113.12 122.558 113.26 122.478 113.41 122.422L114.223 123.199Z" fill="#EFF0F4"/>
<path d="M122.932 110.706C123.08 110.528 123.222 110.202 123.466 110.35C123.804 110.558 123.561 110.825 123.377 111.044L122.932 110.706Z" fill="#D8D4DF"/>
<path d="M157.03 164.558C157.137 164.649 157.214 164.771 157.25 164.906C157.286 165.042 157.28 165.186 157.232 165.318C157.132 165.222 157.06 165.1 157.024 164.966C156.989 164.833 156.991 164.691 157.03 164.558ZM213.997 148.625C213.849 148.577 213.807 148.482 213.884 148.346C214.033 148.393 214.068 148.488 213.997 148.625Z" fill="#251F39"/>
<path d="M111.661 162.091C111.465 158.573 112.414 155.269 113.695 152.065C114.852 149.176 117.047 147.183 119.853 145.86C121.196 145.316 122.568 144.849 123.964 144.46C124.043 144.431 124.124 144.411 124.207 144.401C124.563 144.353 124.889 144.401 124.996 144.81C125.026 144.955 125.001 145.106 124.925 145.234C124.849 145.361 124.729 145.455 124.587 145.498C123.994 145.735 123.341 145.943 122.706 146.133C120.901 146.622 119.223 147.496 117.788 148.696C116.477 149.792 115.458 151.196 114.822 152.783C113.434 156.419 112.604 160.163 112.936 164.084C112.989 164.677 113.12 165.312 113.197 165.929C113.238 166.255 113.28 166.629 112.871 166.771C112.461 166.913 112.165 166.629 112.011 166.267C111.788 165.774 111.668 165.241 111.661 164.701C111.661 163.829 111.661 162.963 111.661 162.091ZM112.444 210.13C112.983 210.13 113.066 210.586 113.108 211.002C113.221 212.117 113.292 213.232 113.411 214.342C113.743 217.468 113.921 220.612 114.656 223.685C114.901 224.775 115.274 225.832 115.766 226.835C116.101 227.504 116.579 228.091 117.166 228.555C117.226 228.597 117.278 228.65 117.318 228.712C117.358 228.774 117.384 228.843 117.397 228.916C117.409 228.988 117.406 229.063 117.389 229.134C117.372 229.206 117.34 229.273 117.296 229.332C117.219 229.46 117.097 229.554 116.954 229.595C116.812 229.637 116.658 229.624 116.525 229.558C115.905 229.306 115.39 228.849 115.066 228.264C114.437 227.289 113.96 226.222 113.654 225.103C113.046 222.907 112.648 220.658 112.467 218.387C112.242 216.08 112.076 213.766 111.874 211.458C111.847 211.17 111.847 210.88 111.874 210.592C111.878 210.524 111.897 210.456 111.928 210.395C111.96 210.334 112.004 210.279 112.057 210.236C112.111 210.192 112.173 210.161 112.239 210.142C112.306 210.124 112.375 210.12 112.444 210.13Z" fill="#251F39"/>
<path d="M142.105 163.852C142.135 165.424 142.033 166.996 141.802 168.551C141.739 168.951 141.652 169.347 141.541 169.737C141.531 169.821 141.503 169.902 141.459 169.974C141.416 170.046 141.357 170.108 141.287 170.156C141.218 170.204 141.139 170.236 141.056 170.251C140.973 170.265 140.887 170.262 140.805 170.241C140.402 170.158 140.325 169.838 140.331 169.482C140.329 169.317 140.345 169.152 140.378 168.99C140.806 166.583 140.959 164.135 140.835 161.693C140.835 161.325 140.835 160.952 140.835 160.578C140.835 160.204 140.983 159.896 141.381 159.866C141.778 159.836 142.016 160.192 142.033 160.602C142.075 161.509 142.087 162.423 142.111 163.33C142.111 163.52 142.105 163.686 142.105 163.852Z" fill="#030204"/>
<path d="M120.126 233.437C120.078 233.764 119.894 233.983 119.574 233.971C119.491 233.981 119.407 233.972 119.327 233.946C119.247 233.921 119.174 233.879 119.112 233.822C119.05 233.766 119 233.698 118.966 233.621C118.932 233.545 118.915 233.462 118.916 233.378C118.905 233.298 118.913 233.216 118.939 233.139C118.965 233.062 119.008 232.992 119.066 232.935C119.123 232.878 119.193 232.834 119.27 232.808C119.347 232.782 119.428 232.774 119.509 232.785C119.594 232.781 119.679 232.796 119.758 232.828C119.837 232.859 119.908 232.908 119.967 232.97C120.025 233.032 120.07 233.106 120.097 233.186C120.125 233.267 120.134 233.353 120.126 233.437Z" fill="#140F1A"/>
<path d="M145.124 152.807L144.774 153.121C144.691 153.059 144.621 152.981 144.569 152.891C144.517 152.802 144.484 152.702 144.472 152.599C144.522 152.543 144.592 152.508 144.667 152.503C144.743 152.497 144.817 152.521 144.875 152.57C144.937 152.576 144.995 152.602 145.041 152.645C145.086 152.688 145.115 152.745 145.124 152.807Z" fill="#DADAE7"/>
<path d="M144.881 152.57L144.477 152.599C144.409 152.532 144.357 152.45 144.327 152.359C144.297 152.268 144.29 152.172 144.305 152.077C144.43 152.116 144.544 152.18 144.643 152.265C144.742 152.349 144.823 152.453 144.881 152.57Z" fill="#B4C6D3"/>
<path d="M122.878 128.703L120.559 126.461C121.722 124.907 122.886 123.356 124.053 121.81C125.298 120.26 126.451 118.637 127.505 116.952C127.654 116.697 127.796 116.447 128.128 116.394C128.533 116.368 128.937 116.458 129.292 116.654C129.647 116.849 129.939 117.142 130.133 117.497C130.365 117.996 130.027 118.375 129.837 118.773C128.387 121.67 126.618 124.396 124.563 126.9C124.047 127.547 123.655 128.306 122.878 128.703Z" fill="white"/>
<path d="M130.122 117.498L128.117 116.394C128.073 116.067 128.12 115.733 128.252 115.43C128.383 115.127 128.595 114.866 128.864 114.674L129.582 114.994C129.675 115.19 129.82 115.356 130.001 115.476C130.181 115.595 130.392 115.662 130.608 115.67C130.629 115.66 130.652 115.654 130.676 115.653C130.7 115.652 130.723 115.656 130.745 115.665C130.767 115.674 130.787 115.688 130.803 115.705C130.819 115.722 130.832 115.743 130.839 115.765C130.893 116.092 130.854 116.428 130.727 116.734C130.6 117.04 130.391 117.304 130.122 117.498Z" fill="#060507"/>
<path d="M120.897 129.403L121.413 129.913C121.413 129.949 121.413 129.997 121.36 130.02C121.039 130.299 120.612 130.869 120.292 130.501C119.972 130.133 120.428 129.641 120.897 129.403Z" fill="#DFDEE9"/>
<path d="M130.839 115.765C130.758 115.748 130.68 115.718 130.608 115.676C130.622 115.559 130.656 115.444 130.709 115.338C130.762 115.249 130.899 115.13 130.964 115.148C131.154 115.196 131.136 115.38 131.071 115.516C131.005 115.653 130.916 115.682 130.839 115.765Z" fill="#C4BBD3"/>
<path d="M119.408 125.429L116.91 123.169C118.186 121.603 119.574 120.137 120.76 118.506C121.708 117.26 122.577 115.956 123.365 114.603C123.537 114.282 123.643 113.891 124.124 113.903C124.633 113.965 125.121 114.14 125.553 114.415C125.985 114.69 126.35 115.058 126.621 115.492C126.48 116.137 126.178 116.735 125.744 117.231C123.964 119.864 121.935 122.309 120.043 124.853C119.85 125.065 119.637 125.258 119.408 125.429Z" fill="white"/>
<path d="M126.621 115.493L124.118 113.903C124.052 113.739 124.019 113.563 124.021 113.386C124.023 113.209 124.06 113.034 124.13 112.871C124.2 112.708 124.301 112.561 124.429 112.438C124.556 112.315 124.707 112.218 124.871 112.153L125.417 112.503C125.811 112.933 126.307 113.258 126.859 113.447C127.132 113.375 127.28 113.506 127.363 113.755C127.39 114.083 127.336 114.413 127.207 114.716C127.078 115.019 126.877 115.285 126.621 115.493Z" fill="#040304"/>
<path d="M117.403 126.111L117.871 126.503C117.801 126.691 117.661 126.844 117.48 126.93C117.255 127.007 117.035 127.143 116.798 126.983C116.717 126.922 116.659 126.836 116.633 126.738C116.607 126.64 116.615 126.536 116.655 126.443C116.762 126.04 117.047 125.987 117.403 126.111Z" fill="#E7EEF2"/>
<path d="M127.369 113.784L126.865 113.476C126.88 113.354 126.912 113.234 126.96 113.12C127.066 112.942 127.227 112.758 127.458 112.853C127.689 112.948 127.654 113.185 127.63 113.387C127.625 113.47 127.598 113.551 127.552 113.62C127.506 113.69 127.443 113.746 127.369 113.784Z" fill="#E1DFE8"/>
<path d="M172.762 222.344C171.932 222.346 171.104 222.255 170.295 222.071C169.388 221.901 168.568 221.426 167.969 220.725C167.881 220.651 167.809 220.56 167.757 220.458C167.705 220.355 167.674 220.244 167.666 220.129C167.658 220.015 167.672 219.9 167.709 219.791C167.746 219.683 167.804 219.582 167.88 219.497C167.949 219.416 168.034 219.35 168.129 219.304C168.225 219.258 168.329 219.232 168.435 219.228C168.541 219.224 168.646 219.242 168.745 219.281C168.843 219.32 168.933 219.38 169.007 219.455C170.787 220.98 172.798 220.6 174.797 220.25C176.091 219.981 177.355 219.583 178.57 219.064C179.484 218.714 179.994 218.797 180.207 219.301C180.421 219.805 180.148 220.375 179.341 220.73C177.27 221.679 175.038 222.226 172.762 222.344Z" fill="#251F39"/>
<path d="M220.76 219.337C220.725 219.437 220.681 219.534 220.629 219.627C219.004 222.148 218.073 224.996 216.785 227.683C216.573 228.13 216.338 228.566 216.079 228.988C215.86 229.35 215.581 229.736 215.095 229.481C214.608 229.226 214.756 228.804 214.946 228.407C216.222 225.714 217.479 223.015 218.767 220.327C219.004 219.752 219.364 219.235 219.823 218.814C219.912 218.724 220.03 218.67 220.157 218.66C220.283 218.65 220.409 218.686 220.511 218.761C220.602 218.824 220.673 218.912 220.718 219.013C220.762 219.115 220.776 219.227 220.76 219.337Z" fill="#251F39"/>
<path d="M167.738 185.564C167.657 185.567 167.576 185.552 167.502 185.518C167.428 185.485 167.363 185.435 167.311 185.373C167.26 185.31 167.223 185.237 167.204 185.158C167.186 185.079 167.186 184.997 167.204 184.918C167.272 184.591 167.421 184.288 167.637 184.034C169.031 181.928 170.586 179.933 172.288 178.066C172.42 177.906 172.572 177.762 172.739 177.639C172.838 177.562 172.962 177.525 173.087 177.535C173.212 177.545 173.329 177.601 173.415 177.692C173.514 177.771 173.581 177.883 173.604 178.007C173.627 178.131 173.604 178.26 173.539 178.368C173.439 178.547 173.324 178.718 173.195 178.879C171.524 180.775 169.991 182.789 168.61 184.906C168.533 185.081 168.412 185.233 168.259 185.348C168.107 185.464 167.927 185.538 167.738 185.564Z" fill="#251F39"/>
<path d="M212.407 235.988C212.241 235.979 212.086 235.904 211.975 235.781C211.864 235.658 211.806 235.495 211.814 235.329C211.814 234.784 212.182 234.102 212.567 234.06C212.649 234.045 212.732 234.048 212.812 234.07C212.892 234.091 212.966 234.13 213.029 234.183C213.092 234.236 213.142 234.303 213.176 234.378C213.21 234.453 213.227 234.535 213.226 234.618C213.309 235.175 212.817 235.988 212.407 235.988Z" fill="#1D1B1B"/>
<path d="M214.662 184.52C211.102 184.644 207.78 183.755 204.482 182.74C204.116 182.66 203.778 182.484 203.503 182.23C203.411 182.145 203.351 182.031 203.331 181.907C203.312 181.784 203.335 181.657 203.396 181.548C203.443 181.455 203.515 181.377 203.604 181.323C203.693 181.269 203.796 181.242 203.9 181.245C204.311 181.267 204.714 181.368 205.087 181.542C208.589 182.72 212.266 183.295 215.961 183.244C217.661 183.198 219.342 182.873 220.938 182.283C221.244 182.158 221.559 182.057 221.881 181.981C222.002 181.95 222.13 181.966 222.24 182.026C222.35 182.085 222.433 182.183 222.474 182.301C222.526 182.417 222.534 182.547 222.497 182.668C222.46 182.79 222.38 182.893 222.273 182.96C221.918 183.171 221.547 183.354 221.163 183.506C219.094 184.307 216.877 184.653 214.662 184.52Z" fill="#251F39"/>
<path d="M194.8 178.001C194.884 178.031 195.044 178.072 195.198 178.132L198.413 179.443C198.775 179.591 199.155 179.769 199.006 180.232C198.858 180.694 198.413 180.712 197.968 180.57C196.858 180.203 195.771 179.771 194.711 179.276C194.524 179.191 194.357 179.068 194.219 178.915C194.138 178.819 194.089 178.701 194.08 178.576C194.07 178.452 194.1 178.327 194.166 178.221C194.302 178.025 194.51 177.989 194.8 178.001Z" fill="#050305"/>
<path d="M186.193 105.568C186.935 105.572 187.667 105.741 188.336 106.062C189.004 106.383 189.594 106.849 190.061 107.425C190.286 107.686 190.446 108.018 190.168 108.315C189.889 108.612 189.515 108.594 189.183 108.357C189.05 108.258 188.928 108.145 188.821 108.018C187.468 106.595 185.819 106.559 184.164 107.372C183.873 107.52 183.571 107.71 183.316 107.882C183.061 108.054 182.604 108.208 182.319 107.834C182.034 107.461 182.319 107.129 182.616 106.897C183.642 106.095 184.892 105.631 186.193 105.568Z" fill="#251F39"/>
<path d="M196.924 129.991C196.955 130.215 196.936 130.442 196.869 130.658C196.801 130.873 196.686 131.071 196.533 131.237C196.447 131.327 196.337 131.391 196.216 131.419C196.094 131.448 195.967 131.44 195.85 131.397C195.737 131.35 195.642 131.266 195.583 131.158C195.523 131.05 195.503 130.925 195.524 130.804C195.524 130.602 195.631 130.406 195.643 130.21C195.678 129.789 195.714 129.374 195.079 129.368C194.996 129.375 194.912 129.364 194.834 129.334C194.756 129.304 194.685 129.256 194.628 129.195C194.571 129.134 194.528 129.061 194.504 128.981C194.479 128.901 194.473 128.816 194.486 128.733C194.539 128.277 194.895 128.188 195.299 128.14C196.349 128.105 196.906 128.727 196.924 129.991Z" fill="#0B0B0B"/>
<path d="M185.92 113.944C185.307 113.972 184.703 113.792 184.206 113.434C184.062 113.346 183.958 113.207 183.915 113.044C183.872 112.882 183.893 112.709 183.974 112.562C184.008 112.485 184.06 112.417 184.126 112.365C184.192 112.312 184.269 112.276 184.351 112.259C184.434 112.242 184.519 112.245 184.6 112.268C184.681 112.291 184.755 112.332 184.817 112.39C185.082 112.55 185.38 112.648 185.688 112.675C185.997 112.701 186.308 112.657 186.596 112.544C186.718 112.516 186.84 112.494 186.964 112.479C187.362 112.431 187.753 112.479 187.83 112.947C187.907 113.416 187.551 113.618 187.172 113.713C186.792 113.807 186.288 113.879 185.92 113.944Z" fill="#251F39"/>
<path d="M177.989 81.8034C177.062 81.7812 176.155 81.5371 175.343 81.0915C175.07 80.9432 174.868 80.7237 174.975 80.3856C174.997 80.3051 175.035 80.2301 175.088 80.1656C175.141 80.101 175.206 80.0482 175.281 80.0107C175.355 79.9732 175.437 79.9518 175.52 79.9479C175.603 79.944 175.686 79.9577 175.764 79.9881C175.887 80.0084 176.007 80.0464 176.12 80.1008C176.894 80.517 177.795 80.6291 178.647 80.4152C179.044 80.3025 179.424 80.4152 179.525 80.8542C179.626 81.2932 179.341 81.5424 178.932 81.6313C178.522 81.7203 178.196 81.75 177.989 81.8034Z" fill="#0C0B0B"/>
<path d="M151.537 84.9717C151.515 84.5412 151.583 84.1107 151.737 83.7081C151.891 83.3056 152.128 82.9398 152.433 82.6344C152.528 82.4939 152.675 82.3964 152.841 82.3631C153.008 82.3298 153.18 82.3634 153.322 82.4565C153.702 82.7412 153.643 83.1031 153.352 83.4234C152.439 84.4319 152.759 85.3811 153.465 86.3243L153.625 86.5141C153.722 86.6227 153.775 86.7631 153.775 86.9086C153.775 87.0541 153.722 87.1945 153.625 87.3031C153.573 87.3693 153.507 87.4236 153.432 87.4624C153.357 87.5012 153.275 87.5236 153.191 87.5281C153.107 87.5326 153.022 87.5191 152.944 87.4885C152.865 87.4578 152.794 87.4108 152.735 87.3505C152.043 86.7426 151.613 85.8899 151.537 84.9717Z" fill="#090808"/>
<path d="M156.235 87.2972C156.276 87.865 156.161 88.433 155.903 88.9404C155.839 89.0965 155.719 89.2225 155.566 89.293C155.413 89.3635 155.238 89.3732 155.078 89.3201C154.663 89.1836 154.657 88.8218 154.776 88.5014C155.009 87.7934 155.052 87.0364 154.9 86.3065C154.829 85.9031 154.9 85.5175 155.328 85.4167C155.755 85.3158 155.968 85.648 156.069 86.0455C156.193 86.4508 156.249 86.8737 156.235 87.2972Z" fill="#251F39"/>
</svg>
