<?xml version="1.0" standalone="no"?>
<!DOCTYPE svg PUBLIC "-//W3C//DTD SVG 20010904//EN"
 "http://www.w3.org/TR/2001/REC-SVG-20010904/DTD/svg10.dtd">
<svg version="1.0" xmlns="http://www.w3.org/2000/svg"
 width="512.000000pt" height="512.000000pt" viewBox="0 0 512.000000 512.000000"
 preserveAspectRatio="xMidYMid meet">

<g transform="translate(0.000000,512.000000) scale(0.100000,-0.100000)"
fill="#000000" stroke="none">
<path d="M2340 4269 c-307 -31 -602 -147 -860 -338 -99 -73 -270 -246 -345
-349 -359 -491 -433 -1117 -198 -1675 186 -443 571 -800 1026 -952 974 -326
2000 267 2217 1282 28 127 38 401 20 540 -62 500 -344 948 -772 1227 -318 207
-711 303 -1088 265z m60 -629 l0 -410 -295 0 c-268 0 -295 2 -295 17 0 29 71
225 115 318 110 230 269 407 420 468 22 9 43 16 48 16 4 1 7 -183 7 -409z
m297 378 c139 -68 297 -255 397 -469 36 -77 116 -294 116 -314 0 -3 -135 -5
-300 -5 l-300 0 0 410 c0 272 3 410 10 410 6 0 40 -15 77 -32z m-821 -110
c-114 -161 -212 -372 -272 -586 l-28 -102 -203 0 c-156 0 -203 3 -203 13 0 18
90 166 149 246 112 151 354 352 511 425 67 31 66 31 46 4z m1317 -9 c242 -123
511 -390 633 -631 l24 -48 -208 0 -209 0 -13 58 c-38 170 -150 429 -249 577
-28 41 -48 75 -46 75 3 0 34 -14 68 -31z m-1676 -936 c-29 -269 -29 -505 0
-783 l6 -60 -229 2 -229 3 -22 110 c-37 177 -47 317 -34 458 10 112 43 296 56
318 4 5 103 9 232 9 l226 0 -6 -57z m873 -388 l0 -445 -319 0 -319 0 -6 28
c-34 167 -34 613 0 825 l6 37 319 0 319 0 0 -445z m877 330 c22 -187 15 -651
-12 -772 l-5 -23 -320 0 -320 0 0 450 0 450 323 -2 322 -3 12 -100z m666 83
c69 -294 73 -519 15 -780 l-21 -98 -230 0 -230 0 7 61 c29 258 34 534 11 704
-8 61 -15 116 -15 123 0 9 52 12 229 12 l229 0 5 -22z m-2343 -1130 c41 -170
146 -419 237 -558 27 -41 53 -81 57 -88 11 -19 -106 42 -194 101 -140 92 -246
187 -342 305 -63 77 -178 257 -178 279 0 10 44 13 204 13 l204 0 12 -52z m810
-359 l0 -410 -22 6 c-45 14 -119 59 -182 111 -143 118 -289 366 -372 632 l-22
72 299 0 299 0 0 -411z m810 407 c0 -25 -83 -246 -125 -335 -88 -183 -183
-310 -290 -389 -60 -44 -149 -92 -172 -92 -10 0 -13 89 -13 410 l0 410 300 0
c165 0 300 -2 300 -4z m610 -53 c-144 -257 -339 -454 -598 -602 -49 -28 -92
-51 -96 -51 -4 0 15 33 42 73 101 148 215 410 252 580 l13 57 210 0 209 0 -32
-57z"/>
</g>
</svg>
