<svg  viewBox="0 0 41 41" fill="none" xmlns="http://www.w3.org/2000/svg">
<path d="M20.3955 5.91602C12.124 5.91602 5.39551 12.6445 5.39551 20.916C5.39551 29.1875 12.124 35.916 20.3955 35.916C28.667 35.916 35.3955 29.1875 35.3955 20.916C35.3955 12.6445 28.667 5.91602 20.3955 5.91602ZM20.3955 8.41602C27.3145 8.41602 32.8955 13.9971 32.8955 20.916C32.8955 27.835 27.3145 33.416 20.3955 33.416C13.4766 33.416 7.89551 27.835 7.89551 20.916C7.89551 13.9971 13.4766 8.41602 20.3955 8.41602ZM13.5205 14.666C12.4854 14.666 11.6455 15.5059 11.6455 16.541C11.6455 16.6582 11.6553 16.7705 11.6846 16.8926C11.7383 17.1904 11.8604 17.4443 12.0361 17.6738C12.9736 19.29 15.3955 20.916 15.3955 20.916C15.3955 20.916 19.1455 18.5332 19.1455 16.541C19.1455 15.5059 18.3057 14.666 17.2705 14.666C16.2354 14.666 15.3955 15.5059 15.3955 16.541C15.3955 15.5059 14.5557 14.666 13.5205 14.666ZM23.5205 14.666C22.4854 14.666 21.6455 15.5059 21.6455 16.541C21.6455 16.6582 21.6553 16.7705 21.6846 16.8926C21.7383 17.1904 21.8604 17.4443 22.0361 17.6738C22.9736 19.29 25.3955 20.916 25.3955 20.916C25.3955 20.916 27.8809 19.3047 28.7939 17.6348C28.9941 17.2637 29.1455 16.9023 29.1455 16.541C29.1455 15.5059 28.3057 14.666 27.2705 14.666C26.2354 14.666 25.3955 15.5059 25.3955 16.541C25.3955 15.5059 24.5557 14.666 23.5205 14.666ZM13.9111 24.666L11.7627 25.916C13.4912 28.8994 16.7041 30.916 20.3955 30.916C24.0869 30.916 27.2998 28.8994 29.0283 25.916L26.8799 24.666C25.5811 26.9072 23.1787 28.416 20.3955 28.416C17.6123 28.416 15.21 26.9072 13.9111 24.666Z" fill="#E0CFBA"/>
</svg>
