<svg width="41" height="41" viewBox="0 0 41 41" fill="none" xmlns="http://www.w3.org/2000/svg">
<circle cx="20.7675" cy="20.08" r="20.08" fill="white"/>
<g clip-path="url(#clip0_174_1218)">
<path d="M30.9497 15.9979C30.8998 14.9427 30.7267 14.2221 30.4736 13.5916C30.2166 12.9302 29.8134 12.331 29.2925 11.8358C28.7811 11.3315 28.162 10.941 27.4788 10.6921C26.8273 10.4472 26.0831 10.2797 24.9931 10.2318C23.9011 10.1834 23.5522 10.1719 20.7712 10.1719C17.9903 10.1719 17.6414 10.1834 16.5494 10.2315C15.4594 10.2797 14.7152 10.4473 14.0638 10.6924C13.3805 10.9412 12.7616 11.3315 12.25 11.8358C11.7291 12.3309 11.3258 12.93 11.0686 13.5915C10.8156 14.2221 10.6427 14.9427 10.5931 15.9978C10.5431 17.0551 10.5312 17.3927 10.5312 20.0849C10.5312 22.7773 10.5431 23.115 10.5931 24.1722C10.6428 25.2273 10.8159 25.9479 11.0691 26.5785C11.3261 27.2398 11.7292 27.8391 12.2502 28.3342C12.7616 28.8385 13.3806 29.2288 14.0639 29.4776C14.7152 29.7228 15.4595 29.8903 16.5495 29.9385C17.6417 29.9868 17.9905 29.9981 20.7714 29.9981C23.5523 29.9981 23.9012 29.9868 24.9933 29.9385C26.0833 29.8903 26.8275 29.7228 27.4789 29.4776C28.8544 28.9627 29.9417 27.9101 30.4736 26.5785C30.7269 25.9479 30.8998 25.2273 30.9497 24.1722C30.9994 23.1149 31.0112 22.7773 31.0112 20.0851C31.0112 17.3927 30.9994 17.0551 30.9497 15.9979ZM29.1064 24.091C29.0609 25.0575 28.8941 25.5824 28.7539 25.9317C28.4094 26.7963 27.7036 27.4796 26.8105 27.8131C26.4497 27.9488 25.9075 28.1103 24.9091 28.1544C23.8295 28.2022 23.5056 28.2121 20.7712 28.2121C18.0367 28.2121 17.713 28.2022 16.6333 28.1544C15.635 28.1103 15.0928 27.9488 14.7319 27.8131C14.2872 27.6541 13.8848 27.4008 13.5545 27.0715C13.2144 26.7517 12.9527 26.3623 12.7884 25.9317C12.6483 25.5824 12.4814 25.0575 12.4359 24.091C12.3867 23.0457 12.3762 22.7322 12.3762 20.0852C12.3762 17.4381 12.3867 17.1247 12.4359 16.0793C12.4816 15.1127 12.6483 14.5879 12.7884 14.2386C12.9527 13.8079 13.2145 13.4184 13.5545 13.0987C13.8848 12.7694 14.2872 12.516 14.732 12.3572C15.0928 12.2213 15.635 12.0599 16.6334 12.0158C17.7131 11.9681 18.037 11.958 20.7712 11.958H20.7711C23.5053 11.958 23.8292 11.9681 24.9091 12.0159C25.9075 12.0599 26.4495 12.2215 26.8105 12.3572C27.2552 12.5162 27.6575 12.7695 27.9878 13.0987C28.328 13.4184 28.5897 13.8079 28.7537 14.2386C28.8941 14.5879 29.0609 15.1127 29.1064 16.0793C29.1556 17.1245 29.1661 17.4381 29.1661 20.0851C29.1661 22.7322 29.1558 23.0456 29.1064 24.091Z" fill="url(#paint0_linear_174_1218)"/>
<path d="M20.7661 15C17.862 15 15.5078 17.2792 15.5078 20.0906C15.5078 22.902 17.862 25.1811 20.7661 25.1811C23.6703 25.1811 26.0245 22.902 26.0245 20.0906C26.0245 17.2792 23.6703 15 20.7661 15ZM20.7661 23.395C18.8811 23.3948 17.3528 21.9155 17.353 20.0905C17.353 18.2656 18.8811 16.7861 20.7662 16.7861C22.6514 16.7863 24.1795 18.2656 24.1795 20.0905C24.1795 21.9155 22.6512 23.395 20.7661 23.395Z" fill="url(#paint1_linear_174_1218)"/>
<path d="M27.4655 14.7991C27.4655 15.456 26.9153 15.9886 26.2367 15.9886C25.558 15.9886 25.0078 15.456 25.0078 14.7991C25.0078 14.142 25.558 13.6094 26.2367 13.6094C26.9153 13.6094 27.4655 14.142 27.4655 14.7991Z" fill="url(#paint2_linear_174_1218)"/>
</g>
<defs>
<linearGradient id="paint0_linear_174_1218" x1="12.2499" y1="28.3343" x2="28.74" y2="11.3006" gradientUnits="userSpaceOnUse">
<stop stop-color="#FFD600"/>
<stop offset="0.5" stop-color="#FF0100"/>
<stop offset="1" stop-color="#D800B9"/>
</linearGradient>
<linearGradient id="paint1_linear_174_1218" x1="17.048" y1="23.6901" x2="24.2433" y2="16.2576" gradientUnits="userSpaceOnUse">
<stop stop-color="#FF6400"/>
<stop offset="0.5" stop-color="#FF0100"/>
<stop offset="1" stop-color="#FD0056"/>
</linearGradient>
<linearGradient id="paint2_linear_174_1218" x1="25.3678" y1="15.6401" x2="27.0492" y2="13.9033" gradientUnits="userSpaceOnUse">
<stop stop-color="#F30072"/>
<stop offset="1" stop-color="#E50097"/>
</linearGradient>
<clipPath id="clip0_174_1218">
<rect width="20.48" height="20.48" fill="white" transform="translate(10.5312 9.84375)"/>
</clipPath>
</defs>
</svg>
