<svg width="30" height="30" viewBox="0 0 30 30" fill="none" xmlns="http://www.w3.org/2000/svg">
<g clip-path="url(#clip0_2818_25072)">
<path d="M7.60735 29.8938C6.44698 29.8809 5.29751 29.6681 4.20941 29.2647C3.41484 28.971 2.69594 28.5034 2.10529 27.8962C1.4964 27.3067 1.02814 26.5876 0.735294 25.7924C0.33228 24.7043 0.11976 23.5549 0.107059 22.3947C0.0179412 20.4659 0 19.8874 0 15C0 10.1126 0.0197059 9.53618 0.106176 7.60588C0.120418 6.44611 0.333201 5.29734 0.735294 4.20941C1.02957 3.41471 1.49716 2.69553 2.10412 2.10412C2.69404 1.49577 3.41327 1.02795 4.20853 0.735294C5.29663 0.331946 6.44609 0.119126 7.60647 0.106176C9.53588 0.0179412 10.1153 0 15 0C19.8847 0 20.4638 0.0197059 22.3941 0.106176C23.5542 0.120318 24.7033 0.333102 25.7915 0.735294C26.5864 1.02833 27.3054 1.496 27.8956 2.10382C28.5036 2.69419 28.9715 3.41341 29.2647 4.20853C29.6682 5.29661 29.8811 6.44608 29.8941 7.60647C29.9824 9.53677 30.0003 10.1147 30.0003 15.0006C30.0003 19.8865 29.9824 20.4644 29.8941 22.3947C29.8801 23.5549 29.6672 24.7041 29.2647 25.7924C28.9602 26.5815 28.4939 27.2982 27.8957 27.8962C27.2975 28.4943 26.5807 28.9604 25.7915 29.2647C24.7034 29.6681 23.5539 29.8811 22.3935 29.8941C20.465 29.9824 19.8853 30.0003 14.9994 30.0003C10.1135 30.0003 9.53559 29.9832 7.60706 29.8941" fill="url(#paint0_radial_2818_25072)"/>
<path d="M7.60735 29.8938C6.44698 29.8809 5.29751 29.6681 4.20941 29.2647C3.41484 28.971 2.69594 28.5034 2.10529 27.8962C1.4964 27.3067 1.02814 26.5876 0.735294 25.7924C0.33228 24.7043 0.11976 23.5549 0.107059 22.3947C0.0179412 20.4659 0 19.8874 0 15C0 10.1126 0.0197059 9.53618 0.106176 7.60588C0.120418 6.44611 0.333201 5.29734 0.735294 4.20941C1.02957 3.41471 1.49716 2.69553 2.10412 2.10412C2.69404 1.49577 3.41327 1.02795 4.20853 0.735294C5.29663 0.331946 6.44609 0.119126 7.60647 0.106176C9.53588 0.0179412 10.1153 0 15 0C19.8847 0 20.4638 0.0197059 22.3941 0.106176C23.5542 0.120318 24.7033 0.333102 25.7915 0.735294C26.5864 1.02833 27.3054 1.496 27.8956 2.10382C28.5036 2.69419 28.9715 3.41341 29.2647 4.20853C29.6682 5.29661 29.8811 6.44608 29.8941 7.60647C29.9824 9.53677 30.0003 10.1147 30.0003 15.0006C30.0003 19.8865 29.9824 20.4644 29.8941 22.3947C29.8801 23.5549 29.6672 24.7041 29.2647 25.7924C28.9602 26.5815 28.4939 27.2982 27.8957 27.8962C27.2975 28.4943 26.5807 28.9604 25.7915 29.2647C24.7034 29.6681 23.5539 29.8811 22.3935 29.8941C20.465 29.9824 19.8853 30.0003 14.9994 30.0003C10.1135 30.0003 9.53559 29.9832 7.60706 29.8941" fill="url(#paint1_radial_2818_25072)"/>
<path d="M12.0004 14.9992C12.0004 14.4058 12.1764 13.8258 12.5061 13.3325C12.8358 12.8392 13.3044 12.4547 13.8526 12.2277C14.4008 12.0007 15.004 11.9413 15.5859 12.0571C16.1679 12.173 16.7024 12.4587 17.1219 12.8784C17.5414 13.298 17.8271 13.8326 17.9427 14.4145C18.0584 14.9965 17.9989 15.5997 17.7718 16.1478C17.5447 16.696 17.1601 17.1645 16.6667 17.494C16.1733 17.8236 15.5932 17.9995 14.9999 17.9994C14.2043 17.9992 13.4413 17.6831 12.8788 17.1204C12.3163 16.5578 12.0003 15.7948 12.0004 14.9992ZM10.3785 14.9992C10.3785 15.9132 10.6495 16.8067 11.1573 17.5667C11.6651 18.3267 12.3869 18.919 13.2313 19.2688C14.0758 19.6186 15.005 19.7101 15.9015 19.5318C16.7979 19.3535 17.6214 18.9133 18.2677 18.267C18.914 17.6207 19.3542 16.7972 19.5325 15.9008C19.7108 15.0043 19.6193 14.0751 19.2695 13.2306C18.9197 12.3862 18.3274 11.6644 17.5674 11.1566C16.8074 10.6488 15.9139 10.3777 14.9999 10.3777C14.393 10.3777 13.792 10.4972 13.2313 10.7295C12.6706 10.9617 12.1611 11.3021 11.732 11.7312C11.3028 12.1604 10.9624 12.6699 10.7302 13.2306C10.4979 13.7913 10.3784 14.3923 10.3785 14.9992ZM18.7242 10.1946C18.7241 10.4082 18.7874 10.617 18.906 10.7947C19.0246 10.9723 19.1932 11.1108 19.3905 11.1927C19.5878 11.2745 19.8049 11.296 20.0144 11.2544C20.2239 11.2128 20.4164 11.11 20.5675 10.9591C20.7186 10.8081 20.8215 10.6157 20.8633 10.4062C20.9051 10.1968 20.8838 9.97962 20.8021 9.78225C20.7205 9.58488 20.5821 9.41616 20.4046 9.29742C20.227 9.17867 20.0183 9.11524 19.8047 9.11515C19.5184 9.11527 19.2438 9.22903 19.0413 9.43143C18.8388 9.63383 18.725 9.90832 18.7247 10.1946M11.3644 22.3251C10.7936 22.3188 10.2283 22.2144 9.693 22.0163C9.30482 21.8667 8.95226 21.6375 8.65802 21.3433C8.36379 21.0492 8.1344 20.6968 7.98461 20.3087C7.78648 19.7734 7.68203 19.208 7.67585 18.6373C7.63215 17.6887 7.6236 17.4037 7.6236 15.0004C7.6236 12.597 7.6331 12.3127 7.67585 11.3632C7.68278 10.7925 7.7872 10.2273 7.98461 9.69181C8.13422 9.3035 8.36355 8.95086 8.6578 8.65661C8.95205 8.36236 9.3047 8.13303 9.693 7.98342C10.2283 7.78529 10.7936 7.68084 11.3644 7.67466C12.313 7.63096 12.598 7.62241 15.0004 7.62241C17.4027 7.62241 17.688 7.63167 18.6375 7.6749C19.2082 7.68182 19.7734 7.78625 20.3089 7.98366C20.6972 8.13328 21.0498 8.36261 21.3441 8.65686C21.6383 8.95111 21.8677 9.30375 22.0173 9.69205C22.2154 10.2273 22.3199 10.7927 22.326 11.3634C22.3697 12.3134 22.3783 12.597 22.3783 15.0006C22.3783 17.4042 22.3695 17.6882 22.326 18.6378C22.3194 19.2084 22.215 19.7737 22.0173 20.3091C21.8675 20.6972 21.6381 21.0497 21.3439 21.3438C21.0496 21.6379 20.6971 21.8672 20.3089 22.0168C19.7736 22.2149 19.2083 22.3194 18.6375 22.3256C17.6889 22.3693 17.4039 22.3778 15.0004 22.3778C12.5968 22.3778 12.3127 22.369 11.3644 22.3256M11.2898 6.05415C10.543 6.06883 9.80415 6.21017 9.1047 6.47215C8.50678 6.70334 7.96376 7.05692 7.51046 7.51022C7.05716 7.96351 6.70358 8.50653 6.4724 9.10446C6.21045 9.80392 6.06911 10.5428 6.05439 11.2895C6.00998 12.2491 6 12.5559 6 15.0001C6 17.4443 6.01021 17.7509 6.05439 18.7107C6.0691 19.4575 6.21044 20.1963 6.4724 20.8958C6.70359 21.4937 7.05718 22.0367 7.51047 22.49C7.96377 22.9433 8.50678 23.2969 9.1047 23.5281C9.80419 23.7899 10.543 23.9313 11.2898 23.9461C12.2498 23.9898 12.5562 24.0005 15.0004 24.0005C17.4445 24.0005 17.7512 23.9903 18.7109 23.9461C19.4577 23.9313 20.1965 23.79 20.896 23.5281C21.4939 23.2969 22.0369 22.9433 22.4902 22.49C22.9435 22.0367 23.2971 21.4937 23.5283 20.8958C23.7906 20.1964 23.932 19.4575 23.9463 18.7107C23.99 17.7505 24 17.4443 24 15.0001C24 12.5559 23.9898 12.2493 23.9463 11.2895C23.9316 10.5428 23.7903 9.80391 23.5283 9.10446C23.2971 8.50664 22.9436 7.96371 22.4905 7.51043C22.0373 7.05714 21.4945 6.7035 20.8967 6.47215C20.1973 6.21 19.4584 6.06865 18.7117 6.05415C17.7519 6.01021 17.4453 5.99976 15.0015 5.99976C12.5578 5.99976 12.2505 6.00997 11.2902 6.05415" fill="white"/>
</g>
<defs>
<radialGradient id="paint0_radial_2818_25072" cx="0" cy="0" r="1" gradientUnits="userSpaceOnUse" gradientTransform="translate(1.94147 29.3429) scale(38.0888)">
<stop offset="0.09" stop-color="#FA8F21"/>
<stop offset="0.78" stop-color="#D82D7E"/>
</radialGradient>
<radialGradient id="paint1_radial_2818_25072" cx="0" cy="0" r="1" gradientUnits="userSpaceOnUse" gradientTransform="translate(20.78 28.3794) scale(33.5185)">
<stop offset="0.64" stop-color="#8C3AAA" stop-opacity="0"/>
<stop offset="1" stop-color="#8C3AAA"/>
</radialGradient>
<clipPath id="clip0_2818_25072">
<rect width="30" height="30" rx="15" fill="white"/>
</clipPath>
</defs>
</svg>
