<svg width="18" height="16" viewBox="0 0 18 16" fill="none" xmlns="http://www.w3.org/2000/svg">
<path d="M11.1766 5.48597C13.3123 9.18516 13.0946 13.3089 10.6901 14.6972M11.1766 5.48597C9.0412 1.78678 5.36058 -0.0864037 2.95606 1.30186C0.551553 2.69011 0.33384 6.81352 2.46959 10.5131C4.60535 14.2127 8.28559 16.0855 10.6901 14.6972M11.1766 5.48597C10.5447 4.39122 9.77747 3.45654 8.94799 2.71871M10.6901 14.6972C10.1882 14.9872 9.63052 15.1349 9.04274 15.1535M6.82309 5.48597C4.68734 9.18516 4.90505 13.3089 7.30956 14.6972C9.71407 16.0855 13.3947 14.2123 15.5305 10.5131C17.6662 6.8139 17.4485 2.69011 15.0436 1.30186C12.6399 -0.0864038 8.95884 1.78678 6.82309 5.48597Z" stroke="white" stroke-linecap="round" stroke-linejoin="round"/>
</svg>
