<svg width="44" height="51" viewBox="0 0 44 51" fill="none" xmlns="http://www.w3.org/2000/svg">
<path d="M22.5139 49.5341C33.3923 49.5341 42.2109 40.3763 42.2109 29.0795C42.2109 17.7828 33.3923 8.625 22.5139 8.625" stroke="white" stroke-width="2.08333" stroke-linecap="round"/>
<path d="M24.5391 1.54688L17.546 7.95713L16.9633 8.49132L24.5391 15.4358V1.54688Z" fill="white" stroke="white" stroke-width="0.694444"/>
<path d="M5.40361 16.4766C5.40361 16.4766 2.2786 19.6016 1.93138 23.7682M4.5021 39.7404C2.62582 37.6571 1.23693 32.1016 1.23693 29.671M18.9453 49.1154C18.9453 49.1154 12.0008 49.1154 7.83417 44.2543" stroke="white" stroke-width="2.08333" stroke-linecap="round"/>
<path d="M12.4182 26.1323L13.3349 27.2823L15.5682 25.4156V35.5156H17.2182V23.199H15.9016L12.4182 26.1323ZM24.4473 35.7156C28.0139 35.7156 29.2473 32.3323 29.2473 29.349C29.2473 26.3656 28.0139 22.9823 24.4473 22.9823C22.7306 22.9823 21.4139 23.799 20.6806 25.0656C19.9639 26.3323 19.6306 27.7656 19.6306 29.349C19.6306 30.9323 19.9639 32.3656 20.6806 33.6323C21.4139 34.899 22.7306 35.7156 24.4473 35.7156ZM27.5639 29.349C27.5639 30.7656 27.3139 31.9156 26.7973 32.8156C26.2806 33.7156 25.4973 34.1656 24.4473 34.1656C23.3973 34.1656 22.6139 33.7156 22.0973 32.8156C21.5806 31.9156 21.3306 30.7656 21.3306 29.349C21.3306 27.949 21.5806 26.799 22.0973 25.899C22.6139 24.9823 23.3973 24.5323 24.4473 24.5323C25.4973 24.5323 26.2806 24.9823 26.7973 25.899C27.3139 26.799 27.5639 27.949 27.5639 29.349Z" fill="white"/>
</svg>
