<svg width="20" height="18" viewBox="0 0 20 18" fill="none" xmlns="http://www.w3.org/2000/svg">
<mask id="path-1-inside-1_542_2376" fill="white">
<path d="M10 0.154297C7.34784 0.154297 4.8043 1.20786 2.92893 3.08323C1.05357 4.95859 0 7.50213 0 10.1543V13.2312C0 13.4352 0.0810437 13.6309 0.225302 13.7751C0.369561 13.9194 0.565218 14.0005 0.769231 14.0005H2.30769V16.3081C2.30769 16.7162 2.46978 17.1075 2.7583 17.396C3.04681 17.6845 3.43813 17.8466 3.84615 17.8466H5.38462C5.79264 17.8466 6.18395 17.6845 6.47247 17.396C6.76099 17.1075 6.92308 16.7162 6.92308 16.3081V11.6928C6.92308 11.2847 6.76099 10.8934 6.47247 10.6049C6.18395 10.3164 5.79264 10.1543 5.38462 10.1543H3.84615C3.43813 10.1543 3.04681 10.3164 2.7583 10.6049C2.46978 10.8934 2.30769 11.2847 2.30769 11.6928V12.462H1.53846V10.1543C1.53846 7.91016 2.42994 5.75793 4.01679 4.17109C5.60364 2.58424 7.75586 1.69276 10 1.69276C12.2441 1.69276 14.3964 2.58424 15.9832 4.17109C17.5701 5.75793 18.4615 7.91016 18.4615 10.1543V12.462H17.6923V11.6928C17.6923 11.2847 17.5302 10.8934 17.2417 10.6049C16.9532 10.3164 16.5619 10.1543 16.1538 10.1543H14.6154C14.2074 10.1543 13.816 10.3164 13.5275 10.6049C13.239 10.8934 13.0769 11.2847 13.0769 11.6928V16.3081C13.0769 16.7162 13.239 17.1075 13.5275 17.396C13.816 17.6845 14.2074 17.8466 14.6154 17.8466H16.1538C16.5619 17.8466 16.9532 17.6845 17.2417 17.396C17.5302 17.1075 17.6923 16.7162 17.6923 16.3081V14.0005H19.2308C19.4348 14.0005 19.6304 13.9194 19.7747 13.7751C19.919 13.6309 20 13.4352 20 13.2312V10.1543C20 7.50213 18.9464 4.95859 17.0711 3.08323C15.1957 1.20786 12.6522 0.154297 10 0.154297V0.154297ZM5.38462 11.6928V16.3081H3.84615V11.6928H5.38462ZM16.1538 16.3081H14.6154V11.6928H16.1538V16.3081Z"/>
</mask>
<path d="M0 10.1543H-2H0ZM0 13.2312L-2 13.2312L0 13.2312ZM2.30769 14.0005H4.30769V12.0005H2.30769V14.0005ZM2.30769 16.3081L0.307692 16.3081L2.30769 16.3081ZM2.30769 11.6928H0.307692H2.30769ZM2.30769 12.462V14.462H4.30769V12.462H2.30769ZM1.53846 12.462H-0.461538V14.462H1.53846V12.462ZM10 1.69276L10 -0.307242L10 1.69276ZM18.4615 12.462V14.462H20.4615V12.462H18.4615ZM17.6923 12.462H15.6923V14.462H17.6923V12.462ZM17.6923 14.0005V12.0005H15.6923V14.0005H17.6923ZM20 10.1543L22 10.1543L20 10.1543ZM5.38462 11.6928H7.38462V9.69276H5.38462V11.6928ZM5.38462 16.3081V18.3081H7.38462V16.3081H5.38462ZM3.84615 16.3081H1.84615V18.3081H3.84615V16.3081ZM3.84615 11.6928V9.69276H1.84615V11.6928H3.84615ZM16.1538 16.3081V18.3081H18.1538V16.3081H16.1538ZM14.6154 16.3081H12.6154V18.3081H14.6154V16.3081ZM14.6154 11.6928V9.69276H12.6154V11.6928H14.6154ZM16.1538 11.6928H18.1538V9.69276H16.1538V11.6928ZM10 -1.8457C6.8174 -1.8457 3.76516 -0.581421 1.51472 1.66902L4.34315 4.49744C5.84344 2.99715 7.87827 2.1543 10 2.1543V-1.8457ZM1.51472 1.66902C-0.735718 3.91945 -2 6.9717 -2 10.1543L2 10.1543C2 8.03256 2.84285 5.99773 4.34315 4.49744L1.51472 1.66902ZM-2 10.1543V13.2312H2V10.1543H-2ZM-2 13.2312C-2 13.9657 -1.70824 14.67 -1.18891 15.1894L1.63952 12.3609C1.87033 12.5918 2 12.9048 2 13.2312L-2 13.2312ZM-1.18891 15.1894C-0.669577 15.7087 0.0347891 16.0005 0.769231 16.0005V12.0005C1.09565 12.0005 1.4087 12.1301 1.63952 12.3609L-1.18891 15.1894ZM0.769231 16.0005H2.30769V12.0005H0.769231V16.0005ZM0.307692 14.0005V16.3081H4.30769V14.0005H0.307692ZM0.307692 16.3081C0.307692 17.2466 0.680494 18.1466 1.34408 18.8102L4.17251 15.9818C4.25907 16.0683 4.30769 16.1857 4.30769 16.3081L0.307692 16.3081ZM1.34408 18.8102C2.00767 19.4738 2.90769 19.8466 3.84615 19.8466V15.8466C3.96856 15.8466 4.08596 15.8952 4.17251 15.9818L1.34408 18.8102ZM3.84615 19.8466H5.38462V15.8466H3.84615V19.8466ZM5.38462 19.8466C6.32308 19.8466 7.2231 19.4738 7.88669 18.8102L5.05826 15.9818C5.14481 15.8952 5.26221 15.8466 5.38462 15.8466V19.8466ZM7.88669 18.8102C8.55027 18.1466 8.92308 17.2466 8.92308 16.3081H4.92308C4.92308 16.1857 4.9717 16.0683 5.05826 15.9818L7.88669 18.8102ZM8.92308 16.3081V11.6928H4.92308V16.3081H8.92308ZM8.92308 11.6928C8.92308 10.7543 8.55027 9.85428 7.88669 9.19069L5.05826 12.0191C4.9717 11.9326 4.92308 11.8152 4.92308 11.6928H8.92308ZM7.88669 9.19069C7.2231 8.5271 6.32308 8.1543 5.38462 8.1543V12.1543C5.26221 12.1543 5.14481 12.1057 5.05826 12.0191L7.88669 9.19069ZM5.38462 8.1543H3.84615V12.1543H5.38462V8.1543ZM3.84615 8.1543C2.90769 8.1543 2.00767 8.5271 1.34408 9.19069L4.17251 12.0191C4.08596 12.1057 3.96856 12.1543 3.84615 12.1543V8.1543ZM1.34408 9.19069C0.680494 9.85428 0.307692 10.7543 0.307692 11.6928L4.30769 11.6928C4.30769 11.8152 4.25907 11.9326 4.17251 12.0191L1.34408 9.19069ZM0.307692 11.6928V12.462H4.30769V11.6928H0.307692ZM2.30769 10.462H1.53846V14.462H2.30769V10.462ZM3.53846 12.462V10.1543H-0.461538V12.462H3.53846ZM3.53846 10.1543C3.53846 8.44059 4.21923 6.79707 5.431 5.5853L2.60258 2.75687C0.640657 4.71879 -0.461538 7.37972 -0.461538 10.1543H3.53846ZM5.431 5.5853C6.64278 4.37353 8.28629 3.69276 10 3.69276L10 -0.307242C7.22543 -0.307242 4.56449 0.794953 2.60258 2.75687L5.431 5.5853ZM10 3.69276C11.7137 3.69276 13.3572 4.37353 14.569 5.5853L17.3974 2.75687C15.4355 0.794953 12.7746 -0.307242 10 -0.307242L10 3.69276ZM14.569 5.5853C15.7808 6.79707 16.4615 8.44059 16.4615 10.1543H20.4615C20.4615 7.37972 19.3593 4.71879 17.3974 2.75687L14.569 5.5853ZM16.4615 10.1543V12.462H20.4615V10.1543H16.4615ZM18.4615 10.462H17.6923V14.462H18.4615V10.462ZM19.6923 12.462V11.6928H15.6923V12.462H19.6923ZM19.6923 11.6928C19.6923 10.7543 19.3195 9.85428 18.6559 9.19069L15.8275 12.0191C15.7409 11.9326 15.6923 11.8152 15.6923 11.6928H19.6923ZM18.6559 9.19069C17.9923 8.5271 17.0923 8.1543 16.1538 8.1543V12.1543C16.0314 12.1543 15.914 12.1057 15.8275 12.0191L18.6559 9.19069ZM16.1538 8.1543H14.6154V12.1543H16.1538V8.1543ZM14.6154 8.1543C13.6769 8.1543 12.7769 8.5271 12.1133 9.19069L14.9417 12.0191C14.8552 12.1057 14.7378 12.1543 14.6154 12.1543V8.1543ZM12.1133 9.19069C11.4497 9.85428 11.0769 10.7543 11.0769 11.6928H15.0769C15.0769 11.8152 15.0283 11.9326 14.9417 12.0191L12.1133 9.19069ZM11.0769 11.6928V16.3081H15.0769V11.6928H11.0769ZM11.0769 16.3081C11.0769 17.2466 11.4497 18.1466 12.1133 18.8102L14.9417 15.9818C15.0283 16.0683 15.0769 16.1857 15.0769 16.3081H11.0769ZM12.1133 18.8102C12.7769 19.4738 13.6769 19.8466 14.6154 19.8466V15.8466C14.7378 15.8466 14.8552 15.8952 14.9417 15.9818L12.1133 18.8102ZM14.6154 19.8466H16.1538V15.8466H14.6154V19.8466ZM16.1538 19.8466C17.0923 19.8466 17.9923 19.4738 18.6559 18.8102L15.8275 15.9818C15.914 15.8952 16.0314 15.8466 16.1538 15.8466V19.8466ZM18.6559 18.8102C19.3195 18.1466 19.6923 17.2466 19.6923 16.3081H15.6923C15.6923 16.1857 15.7409 16.0683 15.8275 15.9818L18.6559 18.8102ZM19.6923 16.3081V14.0005H15.6923V16.3081H19.6923ZM17.6923 16.0005H19.2308V12.0005H17.6923V16.0005ZM19.2308 16.0005C19.9652 16.0005 20.6696 15.7087 21.1889 15.1894L18.3605 12.3609C18.5913 12.1301 18.9044 12.0005 19.2308 12.0005V16.0005ZM21.1889 15.1894C21.7082 14.67 22 13.9657 22 13.2312H18C18 12.9048 18.1297 12.5918 18.3605 12.3609L21.1889 15.1894ZM22 13.2312V10.1543H18V13.2312H22ZM22 10.1543C22 6.9717 20.7357 3.91945 18.4853 1.66902L15.6569 4.49744C17.1571 5.99773 18 8.03256 18 10.1543L22 10.1543ZM18.4853 1.66902C16.2348 -0.581422 13.1826 -1.8457 10 -1.8457L10 2.1543C12.1217 2.1543 14.1566 2.99715 15.6569 4.49744L18.4853 1.66902ZM3.38462 11.6928V16.3081H7.38462V11.6928H3.38462ZM5.38462 14.3081H3.84615V18.3081H5.38462V14.3081ZM5.84615 16.3081V11.6928H1.84615V16.3081H5.84615ZM3.84615 13.6928H5.38462V9.69276H3.84615V13.6928ZM16.1538 14.3081H14.6154V18.3081H16.1538V14.3081ZM16.6154 16.3081V11.6928H12.6154V16.3081H16.6154ZM14.6154 13.6928H16.1538V9.69276H14.6154V13.6928ZM14.1538 11.6928V16.3081H18.1538V11.6928H14.1538Z" fill="#ffffff" mask="url(#path-1-inside-1_542_2376)"/>
</svg>
