<svg width="16" height="14" viewBox="0 0 16 14" fill="none" xmlns="http://www.w3.org/2000/svg">
<path d="M13.0286 5.71429H6.4C5.76914 5.71429 5.71429 6.22514 5.71429 6.85714C5.71429 7.48914 5.76914 8 6.4 8H13.0286C13.6594 8 13.7143 7.48914 13.7143 6.85714C13.7143 6.22514 13.6594 5.71429 13.0286 5.71429ZM15.3143 11.4286H6.4C5.76914 11.4286 5.71429 11.9394 5.71429 12.5714C5.71429 13.2034 5.76914 13.7143 6.4 13.7143H15.3143C15.9451 13.7143 16 13.2034 16 12.5714C16 11.9394 15.9451 11.4286 15.3143 11.4286ZM6.4 2.28571H15.3143C15.9451 2.28571 16 1.77486 16 1.14286C16 0.510857 15.9451 0 15.3143 0H6.4C5.76914 0 5.71429 0.510857 5.71429 1.14286C5.71429 1.77486 5.76914 2.28571 6.4 2.28571ZM2.74286 5.71429H0.685714C0.0548571 5.71429 0 6.22514 0 6.85714C0 7.48914 0.0548571 8 0.685714 8H2.74286C3.37371 8 3.42857 7.48914 3.42857 6.85714C3.42857 6.22514 3.37371 5.71429 2.74286 5.71429ZM2.74286 11.4286H0.685714C0.0548571 11.4286 0 11.9394 0 12.5714C0 13.2034 0.0548571 13.7143 0.685714 13.7143H2.74286C3.37371 13.7143 3.42857 13.2034 3.42857 12.5714C3.42857 11.9394 3.37371 11.4286 2.74286 11.4286ZM2.74286 0H0.685714C0.0548571 0 0 0.510857 0 1.14286C0 1.77486 0.0548571 2.28571 0.685714 2.28571H2.74286C3.37371 2.28571 3.42857 1.77486 3.42857 1.14286C3.42857 0.510857 3.37371 0 2.74286 0Z" fill="#454555" fill-opacity="0.7"/>
</svg>
