<svg width="68" height="53" viewBox="0 0 68 53" fill="none" xmlns="http://www.w3.org/2000/svg">
<path d="M5.56897 11.1889C6.37835 11.1889 7.03449 10.5298 7.03449 9.71667C7.03449 8.90358 6.37835 8.24444 5.56897 8.24444C4.75959 8.24444 4.10345 8.90358 4.10345 9.71667C4.10345 10.5298 4.75959 11.1889 5.56897 11.1889Z" fill="url(#paint0_linear_415_4772)"/>
<path d="M10.2586 11.1889C11.068 11.1889 11.7241 10.5298 11.7241 9.71667C11.7241 8.90358 11.068 8.24444 10.2586 8.24444C9.44925 8.24444 8.79311 8.90358 8.79311 9.71667C8.79311 10.5298 9.44925 11.1889 10.2586 11.1889Z" fill="url(#paint1_linear_415_4772)"/>
<path d="M9.37932 53C10.0268 53 10.5517 52.4727 10.5517 51.8222C10.5517 51.1718 10.0268 50.6444 9.37932 50.6444C8.73181 50.6444 8.2069 51.1718 8.2069 51.8222C8.2069 52.4727 8.73181 53 9.37932 53Z" fill="url(#paint2_linear_415_4772)"/>
<path fill-rule="evenodd" clip-rule="evenodd" d="M30.7747 36.5111H25.7931C23.8516 36.5111 22.2759 38.094 22.2759 40.0444C22.2759 41.9948 23.8516 43.5778 25.7931 43.5778H36.9311C37.5782 43.5778 38.1035 43.0501 38.1035 42.4C38.1035 41.7499 37.5782 41.2222 36.9311 41.2222H25.7931C25.146 41.2222 24.6207 40.6946 24.6207 40.0444C24.6207 39.3943 25.146 38.8667 25.7931 38.8667H42.2069C42.8541 38.8667 43.3793 39.3943 43.3793 40.0444C43.3793 40.6946 42.8541 41.2222 42.2069 41.2222H40.4483C39.8011 41.2222 39.2759 41.7499 39.2759 42.4C39.2759 43.0501 39.8011 43.5778 40.4483 43.5778H42.2069C44.1485 43.5778 45.7242 41.9948 45.7242 40.0444C45.7242 38.094 44.1485 36.5111 42.2069 36.5111H37.223L43.3723 28.2655C44.0382 27.3727 44.1449 26.1796 43.649 25.1821C43.1519 24.1857 42.1366 23.5556 41.0275 23.5556C40.4155 23.5556 39.8047 23.5556 39.2677 23.5556C39.1118 23.5556 38.9629 23.4931 38.8527 23.3824C38.7424 23.2729 38.6815 23.1221 38.6815 22.9667V20.0222H53.9311C54.5783 20.0222 55.1035 19.4946 55.1035 18.8444C55.1035 18.1943 54.5783 17.6667 53.9311 17.6667H38.6827L38.685 10.6H58.534C59.1823 10.6 59.7064 11.1276 59.7064 11.7778V17.6667H57.4483C56.8012 17.6667 56.2759 18.1943 56.2759 18.8444C56.2759 19.4946 56.8012 20.0222 57.4483 20.0222H64.4629C64.817 20.0222 65.1534 20.1777 65.3797 20.4474C65.6036 20.7136 65.6986 21.0646 65.6365 21.4049L60.5693 49.6716C60.4685 50.2369 59.9714 50.6444 59.3957 50.6444H12.8966C12.2494 50.6444 11.7241 51.1721 11.7241 51.8222C11.7241 52.4724 12.2494 53 12.8966 53H59.3957C61.1109 53 62.5765 51.7716 62.8778 50.0897L67.945 21.823C68.129 20.7913 67.8465 19.7313 67.1723 18.9281C66.5005 18.1295 65.5087 17.6667 64.4629 17.6667H62.0512V11.7778C62.0512 9.8262 60.4767 8.24444 58.534 8.24444H38.6862L38.6873 2.94562C38.6873 2.16476 38.379 1.41569 37.8291 0.863311C37.2793 0.310933 36.5336 0 35.7563 0H32.2391C30.6211 0 29.308 1.31793 29.308 2.94327L29.3069 8.24444H17.5077C17.1982 8.24444 16.9015 8.12196 16.6811 7.90289L13.3233 4.558C12.6644 3.90198 11.7746 3.53333 10.8472 3.53333C9.20228 3.53333 5.81518 3.53333 3.51724 3.53333C2.584 3.53333 1.68945 3.90551 1.02938 4.5686C0.370483 5.23169 0 6.13151 0 7.06784L0.019931 49.4549C0.0164138 50.2511 0.283724 51.0331 0.790208 51.6679C1.46083 52.5089 2.47848 53 3.55711 53H5.86207C6.50925 53 7.03449 52.4724 7.03449 51.8222C7.03449 51.1721 6.50925 50.6444 5.86207 50.6444H3.55711C3.19249 50.6444 2.84662 50.4796 2.62035 50.1957C2.39759 49.9154 2.31317 49.5503 2.39524 49.2028L8.98187 20.9362C9.10732 20.3991 9.59035 20.0222 10.1437 20.0222H29.3022V22.9667C29.301 23.2917 29.0395 23.5556 28.716 23.5556H26.9585C25.8482 23.5556 24.8329 24.1857 24.3358 25.1832C23.8399 26.182 23.9477 27.3751 24.6137 28.2678L30.7747 36.5111ZM29.3033 17.6667L29.3057 10.6H17.5077C16.5791 10.6 15.6893 10.2314 15.0304 9.57533L11.6726 6.23044C11.4533 6.01138 11.1555 5.88889 10.8472 5.88889H3.51724C3.20655 5.88889 2.90759 6.01256 2.68835 6.23398C2.46793 6.4554 2.34483 6.75456 2.34483 7.06667L2.36007 39.0198L6.69918 20.3991C7.07083 18.8009 8.49766 17.6667 10.1437 17.6667H29.3033ZM31.647 22.9678L31.6529 2.94444C31.6529 2.61938 31.9155 2.35556 32.2391 2.35556H35.7563C35.9122 2.35556 36.0611 2.41798 36.1713 2.52869C36.2804 2.63822 36.3425 2.78898 36.3425 2.94444L36.3367 22.9655C36.3355 23.7464 36.645 24.4954 37.1949 25.0478C37.7435 25.6014 38.4892 25.9111 39.2677 25.9111H41.0275C41.2491 25.9111 41.4519 26.0371 41.5516 26.2362C41.6512 26.4364 41.6289 26.6743 41.4964 26.8533L34.4678 36.2756C34.3576 36.424 34.1841 36.5111 34 36.5111C33.8148 36.5111 33.6413 36.424 33.5299 36.2756L26.4895 26.8533C26.3559 26.6755 26.3348 26.4364 26.4344 26.2362C26.5329 26.0371 26.7357 25.9111 26.9585 25.9111H28.716C30.3339 25.9111 31.6458 24.5932 31.647 22.9678Z" fill="url(#paint3_linear_415_4772)"/>
<defs>
<linearGradient id="paint0_linear_415_4772" x1="-6.23334" y1="-7.06667" x2="82.1626" y2="130.5" gradientUnits="userSpaceOnUse">
<stop stop-color="#1B3DC6"/>
<stop offset="1" stop-color="#71DC69"/>
</linearGradient>
<linearGradient id="paint1_linear_415_4772" x1="-6.23334" y1="-7.06667" x2="82.1626" y2="130.5" gradientUnits="userSpaceOnUse">
<stop stop-color="#1B3DC6"/>
<stop offset="1" stop-color="#71DC69"/>
</linearGradient>
<linearGradient id="paint2_linear_415_4772" x1="-6.23334" y1="-7.06667" x2="82.1626" y2="130.5" gradientUnits="userSpaceOnUse">
<stop stop-color="#1B3DC6"/>
<stop offset="1" stop-color="#71DC69"/>
</linearGradient>
<linearGradient id="paint3_linear_415_4772" x1="-6.23334" y1="-7.06667" x2="82.1626" y2="130.5" gradientUnits="userSpaceOnUse">
<stop stop-color="#1B3DC6"/>
<stop offset="1" stop-color="#71DC69"/>
</linearGradient>
</defs>
</svg>
