<svg width="30" height="30" viewBox="0 0 30 30" fill="none" xmlns="http://www.w3.org/2000/svg">
<g clip-path="url(#clip0_2818_25076)">
<path d="M15 0C6.71566 0 0 6.71566 0 15C0 23.2843 6.71566 29.9999 15 29.9999C23.2843 29.9999 30 23.2843 30 15C29.9999 6.71566 23.2842 0 15 0ZM10.9979 22.2518H7.70455V11.6117H10.9979V22.2518ZM9.33556 10.2184C8.25997 10.2184 7.38802 9.33929 7.38802 8.25509C7.38802 7.17077 8.26009 6.29176 9.33556 6.29176C10.411 6.29176 11.283 7.17077 11.283 8.25509C11.283 9.33935 10.4111 10.2184 9.33556 10.2184ZM23.3399 22.2518H20.0625V16.6666C20.0625 15.1348 19.4807 14.2797 18.2694 14.2797C16.9511 14.2797 16.2624 15.1703 16.2624 16.6666V22.2518H13.1037V11.6117H16.2624V13.0448C16.2624 13.0448 17.2126 11.2872 19.4687 11.2872C21.7249 11.2872 23.34 12.6648 23.34 15.5147L23.3399 22.2518Z" fill="url(#paint0_linear_2818_25076)"/>
</g>
<defs>
<linearGradient id="paint0_linear_2818_25076" x1="4.39338" y1="4.39338" x2="25.6066" y2="25.6066" gradientUnits="userSpaceOnUse">
<stop stop-color="#2489BE"/>
<stop offset="1" stop-color="#0575B3"/>
</linearGradient>
<clipPath id="clip0_2818_25076">
<rect width="30" height="30" fill="white"/>
</clipPath>
</defs>
</svg>
