<svg  viewBox="0 0 26 24" fill="none" xmlns="http://www.w3.org/2000/svg">
<g clip-path="url(#clip0_1432_14155)">
<path d="M15.4143 8.00039H21.953C22.4949 8.00039 23.0146 8.21111 23.3978 8.58618C23.781 8.96125 23.9963 9.46996 23.9963 10.0004V12.1044C23.9966 12.3658 23.9445 12.6246 23.8431 12.8664L20.681 20.3814C20.6038 20.5646 20.4728 20.7213 20.3046 20.8315C20.1363 20.9417 19.9384 21.0005 19.7359 21.0004H2.5412C2.27024 21.0004 2.01037 20.895 1.81877 20.7075C1.62717 20.52 1.51953 20.2656 1.51953 20.0004V10.0004C1.51953 9.73518 1.62717 9.48082 1.81877 9.29329C2.01037 9.10575 2.27024 9.00039 2.5412 9.00039H6.09866C6.26223 9.00043 6.42342 8.96203 6.56867 8.88843C6.71392 8.81482 6.83899 8.70815 6.93337 8.57739L12.5045 0.850392C12.575 0.752705 12.6788 0.682953 12.7973 0.653782C12.9158 0.624612 13.041 0.637955 13.1502 0.691392L15.0036 1.59839C15.5251 1.85355 15.9418 2.27571 16.1843 2.79471C16.4269 3.31371 16.4807 3.89831 16.3368 4.45139L15.4143 8.00039ZM7.64956 10.5884V19.0004H19.0514L21.953 12.1044V10.0004H15.4143C15.1031 10.0003 14.796 9.93073 14.5165 9.79685C14.2369 9.66297 13.9923 9.46836 13.8013 9.22788C13.6103 8.98739 13.478 8.70739 13.4144 8.40922C13.3507 8.11105 13.3576 7.80259 13.4343 7.50739L14.3568 3.95939C14.3857 3.84872 14.375 3.73171 14.3265 3.62782C14.278 3.52393 14.1946 3.43944 14.0902 3.38839L13.4149 3.05839L8.60278 9.73039C8.34736 10.0844 8.02043 10.3744 7.64956 10.5884ZM5.60622 11.0004H3.56287V19.0004H5.60622V11.0004Z" fill="#BABABA"/>
</g>
<defs>
<clipPath id="clip0_1432_14155">
<rect width="24.5201" height="24" fill="white" transform="translate(0.498047)"/>
</clipPath>
</defs>
</svg>
