<svg width="20" height="20" viewBox="0 0 20 20" fill="none" xmlns="http://www.w3.org/2000/svg">
<path d="M10 6.34424e-06C11.3136 -0.00147414 12.6147 0.256173 13.8286 0.758195C15.0425 1.26022 16.1455 1.99675 17.0744 2.92563C18.0032 3.85452 18.7398 4.95749 19.2418 6.17142C19.7438 7.38534 20.0015 8.68637 20 10C20.0015 11.3136 19.7438 12.6147 19.2418 13.8286C18.7398 15.0425 18.0032 16.1455 17.0744 17.0744C16.1455 18.0032 15.0425 18.7398 13.8286 19.2418C12.6147 19.7438 11.3136 20.0015 10 20C8.68637 20.0015 7.38534 19.7438 6.17142 19.2418C4.95749 18.7398 3.85452 18.0032 2.92563 17.0744C1.99675 16.1455 1.26022 15.0425 0.758195 13.8286C0.256173 12.6147 -0.00147414 11.3136 6.34424e-06 10C-0.00147414 8.68637 0.256173 7.38534 0.758195 6.17142C1.26022 4.95749 1.99675 3.85452 2.92563 2.92563C3.85452 1.99675 4.95749 1.26022 6.17142 0.758195C7.38534 0.256173 8.68637 -0.00147414 10 6.34424e-06ZM13.5891 4.9985L10 8.59136L6.41089 4.9985L4.9985 6.41089L8.59136 10L4.9985 13.5891L6.41089 15.0015L10 11.4086L13.5891 15.0015L15.0015 13.5891L11.4086 10L15.0015 6.41089L13.5891 4.9985Z" fill="white"/>
</svg>
