<svg xmlns="http://www.w3.org/2000/svg" width="32" height="32">
    <path style="stroke:none;fill-rule:nonzero;fill:#757575;fill-opacity:1" d="M18.004 8.004a1.999 1.999 0 1 1-3.998.002 1.999 1.999 0 0 1 3.998-.002Zm0 0"/>
    <path style="stroke:none;fill-rule:nonzero;fill:#757575;fill-opacity:1" d="m29.2 24.496-3.255-6.668a2.668 2.668 0 0 0-2.527-1.82h-3.125c1.246-3.168 2.379-6.465 2.379-8a6.677 6.677 0 0 0-6.668-6.668c-3.676 0-6.664 2.992-6.664 6.668 0 1.535 1.133 4.832 2.379 8H8.594a2.67 2.67 0 0 0-2.531 1.82l-3.254 6.668a2.675 2.675 0 0 0 .367 2.402 2.662 2.662 0 0 0 2.164 1.106h21.332a2.662 2.662 0 0 0 2.527-3.508ZM16.003 4.004a4 4 0 0 1 4 4c0 1.96-3.258 10.195-4 12-.742-1.824-4-10.035-4-12 0-2.207 1.793-4 4-4Zm0 0"/>
</svg>
