<svg width="19" height="15" viewBox="0 0 15 11" fill="none" xmlns="http://www.w3.org/2000/svg">
<path fill-rule="evenodd" clip-rule="evenodd" d="M8.21291 1.00592C7.75152 0.973441 7.27523 1.07399 6.84452 1.32331C6.55736 1.48952 6.31801 1.70693 6.12994 1.95627C5.82226 2.36409 5.65872 2.85953 5.64932 3.36548C5.13973 3.51297 4.68119 3.84477 4.39518 4.34122L4.32173 4.46818L4.19386 4.39473C3.42992 3.95274 2.50634 4.03838 1.84428 4.53891C1.62359 4.70575 1.43166 4.91892 1.28477 5.17369C0.697466 6.19304 1.04788 7.49714 2.06645 8.08641L2.39472 8.27594L5.68287 10.1794C5.7093 10.1946 5.73848 10.2045 5.76875 10.2085C5.79901 10.2125 5.82976 10.2105 5.85924 10.2026C5.88872 10.1946 5.91635 10.181 5.94055 10.1624C5.96475 10.1438 5.98504 10.1206 6.00026 10.0941L7.56272 7.38272L8.34894 8.74749C8.36416 8.77394 8.38445 8.79714 8.40865 8.81575C8.43285 8.83436 8.46048 8.84801 8.48996 8.85593C8.51944 8.86384 8.55019 8.86587 8.58045 8.86189C8.61072 8.85791 8.6399 8.848 8.66633 8.83273L12.4233 6.65816L12.7987 6.44052C13.9473 5.77565 14.3408 4.30527 13.6784 3.1551C13.0161 2.00484 11.5488 1.6106 10.4002 2.27547L10.2252 2.37613L10.1245 2.20202C9.71055 1.48312 8.9819 1.06005 8.21291 1.00592ZM8.18208 1.46568C8.80093 1.50821 9.38562 1.85022 9.72187 2.43417L9.9386 2.80959C9.95383 2.83605 9.97412 2.85925 9.99832 2.87786C10.0225 2.89646 10.0501 2.91012 10.0796 2.91803C10.1091 2.92595 10.1399 2.92798 10.1701 2.924C10.2004 2.92002 10.2296 2.91011 10.256 2.89484L10.6323 2.6772C11.5652 2.13716 12.7387 2.45198 13.2766 3.38634C13.8147 4.3206 13.4986 5.49876 12.5657 6.0388L12.1903 6.25644L8.63459 8.31402L7.77583 6.8232C7.76937 6.80884 7.76147 6.79516 7.75225 6.7824L6.58426 4.75383L6.36753 4.3775C5.96403 3.6767 6.04013 2.83931 6.4972 2.23648C6.64956 2.03554 6.84437 1.86007 7.07757 1.72503C7.42739 1.52253 7.81078 1.44016 8.18208 1.46568ZM5.68741 3.84065C5.73557 4.10372 5.82384 4.36375 5.96489 4.60874L6.18163 4.98507L7.2943 6.91661L5.7137 9.65975L2.62778 7.87421L2.2986 7.68559C1.49562 7.22105 1.22452 6.20917 1.6874 5.40584C2.15019 4.60246 3.15874 4.3319 3.96172 4.79645L4.28999 4.98688C4.31642 5.00215 4.3456 5.01206 4.37586 5.01604C4.40613 5.02002 4.43688 5.018 4.46636 5.01008C4.49584 5.00216 4.52347 4.98851 4.54767 4.9699C4.57186 4.95129 4.59215 4.9281 4.60738 4.90164L4.7969 4.57246C5.00498 4.21125 5.32648 3.96774 5.68741 3.84065Z" fill="#5F5B6D" stroke="#5F5B6D" stroke-width="0.2"/>
</svg>
