<svg width="16" height="18" viewBox="0 0 11 15" fill="none" xmlns="http://www.w3.org/2000/svg">
<path d="M5.49999 14.5C4.50758 13.6622 3.58771 12.7437 2.74999 11.7542C1.49285 10.2682 6.90558e-07 8.05503 6.90558e-07 5.94611C-0.000544514 4.86907 0.321756 3.81607 0.926114 2.92039C1.53047 2.0247 2.38972 1.32659 3.39512 0.914403C4.40051 0.502214 5.50686 0.394476 6.57415 0.604825C7.64143 0.815174 8.62168 1.33415 9.39083 2.09609C9.90292 2.60065 10.3088 3.20073 10.585 3.86159C10.8612 4.52244 11.0023 5.23095 11 5.94611C11 8.05503 9.50712 10.2682 8.24998 11.7542C7.41226 12.7437 6.49239 13.6622 5.49999 14.5ZM5.49999 3.61323C4.87484 3.61323 4.27529 3.85902 3.83324 4.29652C3.39119 4.73402 3.14285 5.32739 3.14285 5.94611C3.14285 6.56483 3.39119 7.15821 3.83324 7.59571C4.27529 8.03321 4.87484 8.27899 5.49999 8.27899C6.12514 8.27899 6.72469 8.03321 7.16673 7.59571C7.60878 7.15821 7.85712 6.56483 7.85712 5.94611C7.85712 5.32739 7.60878 4.73402 7.16673 4.29652C6.72469 3.85902 6.12514 3.61323 5.49999 3.61323Z" fill="white"/>
</svg>
