<svg width="14" height="14" viewBox="0 0 14 14" fill="none" xmlns="http://www.w3.org/2000/svg">
<path fill-rule="evenodd" clip-rule="evenodd" d="M8.50032 1C8.36771 1 8.24053 0.947322 8.14676 0.853553C8.053 0.759785 8.00032 0.632608 8.00032 0.5C8.00032 0.367392 8.053 0.240215 8.14676 0.146447C8.24053 0.0526784 8.36771 0 8.50032 0H13.5003C13.6329 0 13.7601 0.0526784 13.8539 0.146447C13.9476 0.240215 14.0003 0.367392 14.0003 0.5V5.5C14.0003 5.63261 13.9476 5.75979 13.8539 5.85355C13.7601 5.94732 13.6329 6 13.5003 6C13.3677 6 13.2405 5.94732 13.1468 5.85355C13.053 5.75979 13.0003 5.63261 13.0003 5.5V1.707L8.87132 5.836C9.68313 6.82919 10.0822 8.0964 9.9859 9.37554C9.88964 10.6547 9.30544 11.8479 8.35413 12.7084C7.40282 13.5689 6.15718 14.0309 4.87482 13.9987C3.59247 13.9666 2.37151 13.4429 1.46447 12.5359C0.557423 11.6288 0.0336832 10.4078 0.00156882 9.12549C-0.0305455 7.84314 0.431423 6.5975 1.29193 5.64619C2.15243 4.69488 3.34565 4.11068 4.62478 4.01442C5.90392 3.91815 7.17113 4.31719 8.16432 5.129L12.2933 1H8.50032ZM5.00032 5C3.93945 5 2.92204 5.42143 2.17189 6.17157C1.42175 6.92172 1.00032 7.93913 1.00032 9C1.00032 10.0609 1.42175 11.0783 2.17189 11.8284C2.92204 12.5786 3.93945 13 5.00032 13C6.06118 13 7.0786 12.5786 7.82875 11.8284C8.57889 11.0783 9.00032 10.0609 9.00032 9C9.00032 7.93913 8.57889 6.92172 7.82875 6.17157C7.0786 5.42143 6.06118 5 5.00032 5Z" fill="#FF385C"/>
</svg>
