<svg width="30" height="30" viewBox="0 0 30 30" fill="none" xmlns="http://www.w3.org/2000/svg">
<g clip-path="url(#clip0_2818_25081)">
<path d="M15 30.0001C23.2843 30.0001 30 23.2843 30 15.0001C30 6.71578 23.2843 0 15 0C6.71573 0 0 6.71578 0 15.0001C0 23.2843 6.71573 30.0001 15 30.0001Z" fill="#9257A2"/>
<path d="M15.002 10.4917L7.49533 10.5092C7.49477 10.5092 7.49422 10.5092 7.49366 10.5092C7.4667 10.5046 7.43934 10.5026 7.41199 10.5034C7.30163 10.5051 7.19647 10.5506 7.1196 10.6298C7.04273 10.709 7.00044 10.8155 7.00199 10.9259V20.4175C7.00199 20.528 7.04589 20.634 7.12403 20.7122C7.20217 20.7903 7.30815 20.8342 7.41866 20.8342H22.5778C22.6883 20.8342 22.7943 20.7903 22.8725 20.7122C22.9506 20.634 22.9945 20.528 22.9945 20.4175V10.9792C23.0033 10.9201 22.9994 10.8598 22.9829 10.8024C22.9663 10.7449 22.9377 10.6917 22.8988 10.6464C22.8599 10.601 22.8117 10.5645 22.7575 10.5394C22.7032 10.5143 22.6442 10.5012 22.5845 10.5009L15.002 10.4917ZM15.002 11.325H15.0037L21.1362 11.3334L15.002 15.1709L8.86866 11.3417L15.002 11.325ZM22.1612 11.6734V20H7.83533V11.6767L14.782 16.0159C14.8482 16.0573 14.9247 16.0792 15.0028 16.0792C15.0809 16.0792 15.1574 16.0573 15.2237 16.0159L22.1612 11.6734Z" fill="white"/>
</g>
<defs>
<clipPath id="clip0_2818_25081">
<rect width="30" height="30" fill="white"/>
</clipPath>
</defs>
</svg>
