<svg width="22" height="22" viewBox="0 0 22 22" fill="none" xmlns="http://www.w3.org/2000/svg">
<path d="M3.5 1.41602C2.83696 1.41602 2.20107 1.67941 1.73223 2.14825C1.26339 2.61709 1 3.25297 1 3.91602L1 13.916C1 14.5791 1.26339 15.2149 1.73223 15.6838C2.20107 16.1526 2.83696 16.416 3.5 16.416H6.625C6.81906 16.416 7.01045 16.4612 7.18402 16.548C7.35759 16.6348 7.50857 16.7608 7.625 16.916L10 20.0823C10.1164 20.2375 10.2674 20.3635 10.441 20.4503C10.6146 20.5371 10.8059 20.5823 11 20.5823C11.1941 20.5823 11.3854 20.5371 11.559 20.4503C11.7326 20.3635 11.8836 20.2375 12 20.0823L14.375 16.916C14.4914 16.7608 14.6424 16.6348 14.816 16.548C14.9896 16.4612 15.1809 16.416 15.375 16.416H18.5C19.163 16.416 19.7989 16.1526 20.2678 15.6838C20.7366 15.2149 21 14.5791 21 13.916V3.91602C21 3.25297 20.7366 2.61709 20.2678 2.14825C19.7989 1.67941 19.163 1.41602 18.5 1.41602H3.5Z" stroke="#979797" stroke-width="2"/>
</svg>
