<svg width="65" height="65" viewBox="0 0 65 65" fill="none" xmlns="http://www.w3.org/2000/svg">
<path d="M5.90909 0C2.66101 0 0 2.66139 0 5.90994V23.6398C0 26.8884 2.66101 29.5497 5.90909 29.5497H8.86364V36.9372C8.8655 37.2225 8.94989 37.5011 9.10662 37.7395C9.26335 37.9778 9.48572 38.1657 9.74688 38.2804C10.008 38.3952 10.2968 38.4318 10.5784 38.386C10.8599 38.3402 11.1221 38.2138 11.3335 38.0222L20.5202 29.5497H21.4897C20.9764 30.4245 20.6818 31.4233 20.6818 32.5047V50.2345C20.6818 53.483 23.3428 56.1444 26.5909 56.1444H44.4798L53.6665 64.617C53.8779 64.8086 54.1401 64.935 54.4217 64.9808C54.7032 65.0266 54.992 64.99 55.2532 64.8752C55.5143 64.7605 55.7367 64.5726 55.8934 64.3342C56.0501 64.0959 56.1345 63.8172 56.1364 63.5319V56.1444H59.0909C62.339 56.1444 65 53.483 65 50.2345V32.5047C65 29.2561 62.339 26.5948 59.0909 26.5948H43.5103C44.0174 25.7238 44.3182 24.7142 44.3182 23.6398V5.90994C44.3182 2.66139 41.6572 0 38.4091 0H5.90909ZM5.90909 2.95499H38.4091C40.0715 2.95499 41.3636 4.24733 41.3636 5.90994V23.6398C41.3636 25.3024 40.0715 26.5948 38.4091 26.5948H19.9432C19.575 26.5973 19.221 26.7373 18.9506 26.9872L11.8182 33.5667V28.0723C11.8181 27.6804 11.6625 27.3046 11.3855 27.0276C11.1084 26.7505 10.7327 26.5948 10.3409 26.5948H5.90909C4.24672 26.5948 2.95455 25.3024 2.95455 23.6398V5.90994C2.95455 4.24733 4.24672 2.95499 5.90909 2.95499ZM7.98651 10.3424C7.79239 10.3514 7.60193 10.3984 7.42602 10.481C7.25011 10.5636 7.0922 10.68 6.96131 10.8237C6.83042 10.9673 6.72913 11.1354 6.66321 11.3182C6.59729 11.5011 6.56804 11.6951 6.57714 11.8892C6.58624 12.0834 6.63351 12.2738 6.71624 12.4496C6.79897 12.6255 6.91554 12.7834 7.05929 12.9141C7.20304 13.0449 7.37115 13.146 7.55401 13.2118C7.73687 13.2776 7.9309 13.3067 8.125 13.2974H22.8977C23.0935 13.3002 23.2878 13.264 23.4695 13.191C23.6512 13.118 23.8165 13.0096 23.9559 12.8721C24.0953 12.7346 24.2061 12.5709 24.2816 12.3902C24.3572 12.2096 24.3961 12.0157 24.3961 11.8199C24.3961 11.6241 24.3572 11.4302 24.2816 11.2496C24.2061 11.0689 24.0953 10.9052 23.9559 10.7677C23.8165 10.6302 23.6512 10.5218 23.4695 10.4488C23.2878 10.3758 23.0935 10.3397 22.8977 10.3424H8.125C8.07886 10.3403 8.03265 10.3403 7.98651 10.3424ZM28.6683 10.3424C28.4742 10.3514 28.2837 10.3984 28.1078 10.481C27.9319 10.5636 27.774 10.68 27.6431 10.8237C27.5122 10.9673 27.4109 11.1354 27.345 11.3182C27.2791 11.5011 27.2499 11.6951 27.259 11.8892C27.2681 12.0834 27.3153 12.2738 27.3981 12.4496C27.4808 12.6255 27.5974 12.7834 27.7411 12.9141C27.8849 13.0449 28.053 13.146 28.2358 13.2118C28.4187 13.2776 28.6127 13.3067 28.8068 13.2974H30.2841C30.4799 13.3002 30.6742 13.264 30.8559 13.191C31.0375 13.118 31.2029 13.0096 31.3423 12.8721C31.4817 12.7346 31.5924 12.5709 31.668 12.3902C31.7435 12.2096 31.7825 12.0157 31.7825 11.8199C31.7825 11.6241 31.7435 11.4302 31.668 11.2496C31.5924 11.0689 31.4817 10.9052 31.3423 10.7677C31.2029 10.6302 31.0375 10.5218 30.8559 10.4488C30.6742 10.3758 30.4799 10.3397 30.2841 10.3424H28.8068C28.7607 10.3403 28.7145 10.3403 28.6683 10.3424ZM36.0547 10.3424C35.8606 10.3514 35.6701 10.3984 35.4942 10.481C35.3183 10.5636 35.1604 10.68 35.0295 10.8237C34.8986 10.9673 34.7973 11.1354 34.7314 11.3182C34.6655 11.5011 34.6362 11.6951 34.6453 11.8892C34.6544 12.0834 34.7017 12.2738 34.7844 12.4496C34.8671 12.6255 34.9837 12.7834 35.1275 12.9141C35.2712 13.0449 35.4393 13.146 35.6222 13.2118C35.8051 13.2776 35.9991 13.3067 36.1932 13.2974H37.6705C37.8662 13.3002 38.0606 13.264 38.2422 13.191C38.4239 13.118 38.5892 13.0096 38.7287 12.8721C38.8681 12.7346 38.9788 12.5709 39.0543 12.3902C39.1299 12.2096 39.1688 12.0157 39.1688 11.8199C39.1688 11.6241 39.1299 11.4302 39.0543 11.2496C38.9788 11.0689 38.8681 10.9052 38.7287 10.7677C38.5892 10.6302 38.4239 10.5218 38.2422 10.4488C38.0606 10.3758 37.8662 10.3397 37.6705 10.3424H36.1932C36.147 10.3403 36.1008 10.3403 36.0547 10.3424ZM7.98651 16.2524C7.79239 16.2613 7.60193 16.3084 7.42602 16.391C7.25011 16.4735 7.0922 16.59 6.96131 16.7336C6.83042 16.8773 6.72913 17.0454 6.66321 17.2282C6.59729 17.411 6.56804 17.605 6.57714 17.7992C6.58624 17.9933 6.63351 18.1838 6.71624 18.3596C6.79897 18.5355 6.91554 18.6933 7.05929 18.8241C7.20304 18.9548 7.37115 19.056 7.55401 19.1218C7.73687 19.1875 7.9309 19.2166 8.125 19.2073H37.6705C37.8662 19.2101 38.0606 19.1739 38.2422 19.1009C38.4239 19.0279 38.5892 18.9195 38.7287 18.7821C38.8681 18.6446 38.9788 18.4808 39.0543 18.3002C39.1299 18.1195 39.1688 17.9257 39.1688 17.7299C39.1688 17.5341 39.1299 17.3402 39.0543 17.1596C38.9788 16.9789 38.8681 16.8151 38.7287 16.6776C38.5892 16.5402 38.4239 16.4318 38.2422 16.3588C38.0606 16.2858 37.8662 16.2496 37.6705 16.2524H8.125C8.07886 16.2502 8.03265 16.2502 7.98651 16.2524ZM26.5909 29.5497H38.4091H59.0909C60.7533 29.5497 62.0455 30.8421 62.0455 32.5047V50.2345C62.0455 51.8971 60.7533 53.1895 59.0909 53.1895H54.6591C54.2673 53.1896 53.8916 53.3452 53.6146 53.6223C53.3375 53.8994 53.1819 54.2751 53.1818 54.667V60.1614L46.0494 53.582C45.779 53.3321 45.425 53.1921 45.0568 53.1895H26.5909C24.9285 53.1895 23.6364 51.8971 23.6364 50.2345V32.5047C23.6364 30.8421 24.9285 29.5497 26.5909 29.5497ZM35.3161 33.9822C34.9243 34.0006 34.5558 34.1739 34.2917 34.4639C34.0277 34.754 33.8897 35.1371 33.908 35.5289C33.9264 35.9208 34.0996 36.2893 34.3897 36.5534C34.6797 36.8175 35.0627 36.9556 35.4545 36.9372H57.6136C57.8094 36.9399 58.0037 36.9037 58.1853 36.8307C58.3669 36.7576 58.5321 36.6492 58.6715 36.5117C58.8109 36.3743 58.9215 36.2105 58.997 36.0299C59.0726 35.8493 59.1115 35.6555 59.1115 35.4597C59.1115 35.2639 59.0726 35.0701 58.997 34.8895C58.9215 34.7089 58.8109 34.5452 58.6715 34.4077C58.5321 34.2702 58.3669 34.1618 58.1853 34.0888C58.0037 34.0157 57.8094 33.9795 57.6136 33.9822H35.4545C35.4084 33.98 35.3622 33.98 35.3161 33.9822ZM27.9297 39.8921C27.7357 39.9012 27.5454 39.9484 27.3696 40.0311C27.1939 40.1137 27.0361 40.2302 26.9054 40.3738C26.7746 40.5175 26.6734 40.6854 26.6076 40.8682C26.5418 41.0509 26.5126 41.2449 26.5217 41.4389C26.5308 41.6329 26.578 41.8232 26.6606 41.999C26.7432 42.1748 26.8597 42.3326 27.0033 42.4633C27.1469 42.5941 27.3149 42.6953 27.4976 42.7611C27.6803 42.827 27.8742 42.8562 28.0682 42.8471H57.6136C57.8094 42.8498 58.0037 42.8136 58.1853 42.7406C58.3669 42.6675 58.5321 42.5591 58.6715 42.4216C58.8109 42.2842 58.9215 42.1204 58.997 41.9398C59.0726 41.7592 59.1115 41.5653 59.1115 41.3696C59.1115 41.1738 59.0726 40.98 58.997 40.7994C58.9215 40.6188 58.8109 40.455 58.6715 40.3176C58.5321 40.1801 58.3669 40.0717 58.1853 39.9987C58.0037 39.9256 57.8094 39.8894 57.6136 39.8921H28.0682C28.022 39.8899 27.9758 39.8899 27.9297 39.8921ZM27.9297 45.8021C27.7357 45.8112 27.5454 45.8584 27.3696 45.9411C27.1939 46.0237 27.0361 46.1402 26.9054 46.2838C26.7746 46.4274 26.6734 46.5954 26.6076 46.7782C26.5418 46.9609 26.5126 47.1548 26.5217 47.3488C26.5308 47.5428 26.578 47.7332 26.6606 47.909C26.7432 48.0848 26.8597 48.2425 27.0033 48.3733C27.1469 48.504 27.3149 48.6053 27.4976 48.6711C27.6803 48.737 27.8742 48.7662 28.0682 48.7571H57.6136C57.8094 48.7598 58.0037 48.7235 58.1853 48.6505C58.3669 48.5775 58.5321 48.4691 58.6715 48.3316C58.8109 48.1942 58.9215 48.0303 58.997 47.8497C59.0726 47.6691 59.1115 47.4753 59.1115 47.2796C59.1115 47.0838 59.0726 46.89 58.997 46.7094C58.9215 46.5288 58.8109 46.365 58.6715 46.2275C58.5321 46.0901 58.3669 45.9816 58.1853 45.9086C58.0037 45.8356 57.8094 45.7994 57.6136 45.8021H28.0682C28.022 45.7999 27.9758 45.7999 27.9297 45.8021Z" fill="url(#paint0_linear_415_4729)"/>
<defs>
<linearGradient id="paint0_linear_415_4729" x1="-5.95834" y1="-8.66667" x2="111.042" y2="133.25" gradientUnits="userSpaceOnUse">
<stop stop-color="#1B3DC6"/>
<stop offset="1" stop-color="#71DC69"/>
</linearGradient>
</defs>
</svg>
