<svg width="16" height="16" viewBox="0 0 16 16" fill="none" xmlns="http://www.w3.org/2000/svg">
<path d="M12.2662 15C9.52961 15 6.70475 13.7402 4.51167 11.5529C2.19596 9.24315 0.932921 6.3558 1.00275 3.57292V3.46765L1.07265 3.38015C1.26593 3.13545 1.45849 2.9249 1.65177 2.71505C2.3885 1.98023 3.24861 1.42039 4.21363 1.05263C4.30136 1.01777 4.4069 1 4.51175 1C4.84482 1 5.40681 1.17499 5.51165 1.50719C5.86255 2.45186 6.28334 3.69458 6.59928 4.86684C6.65205 5.09447 6.59928 5.75958 6.26621 5.95165L5.14364 6.65161C5.07373 6.70425 5.0381 6.77397 5.02096 6.84438C4.98601 7.03715 5.05592 7.28186 5.19641 7.49171C5.63503 8.10418 6.14354 8.69887 6.72265 9.27644C7.30177 9.83627 7.898 10.3442 8.49501 10.7816C8.79313 11.0093 9.21462 11.0264 9.31947 10.8514L10.0391 9.7317C10.2145 9.45144 10.7587 9.38172 10.9513 9.38172C11.0212 9.38172 11.0739 9.38172 11.1267 9.3995C12.5652 9.71462 13.4254 9.99418 14.53 10.5021C14.8631 10.6593 15.1091 11.3948 14.9508 11.7967C14.5821 12.7592 14.0208 13.6163 13.2841 14.3519C13.0737 14.5618 12.8454 14.7546 12.6172 14.9296L12.5645 15L12.2662 15ZM1.63453 3.69524C1.59958 6.28528 2.79276 8.96281 4.9152 11.0627L4.96797 11.1153C7.03841 13.1804 9.70502 14.3705 12.2669 14.3705H12.3546C12.5479 14.2133 12.7233 14.0554 12.881 13.8982C13.5478 13.2331 14.0563 12.4456 14.4072 11.5537C14.4421 11.4484 14.3544 11.1162 14.2667 11.0465C13.249 10.5912 12.4245 10.3287 11.0209 10.0143C10.8277 10.0143 10.6351 10.0669 10.5823 10.1018L9.89837 11.1866C9.60025 11.6767 8.75797 11.7293 8.16173 11.2919C7.52984 10.8366 6.91578 10.3116 6.31954 9.71694C5.72331 9.12225 5.19697 8.49201 4.74053 7.86169C4.47736 7.51171 4.37181 7.09201 4.44241 6.72425C4.49518 6.46176 4.63568 6.25191 4.84608 6.11178L5.96865 5.41182C5.98647 5.35918 6.03856 5.09669 6.02142 5.0092C5.7233 3.85398 5.28469 2.62897 4.95092 1.70222C4.91597 1.68445 4.70557 1.61472 4.54725 1.61472H4.47735C3.58229 1.9647 2.79278 2.4719 2.12672 3.137C1.9499 3.32841 1.79228 3.5034 1.63464 3.69547L1.63453 3.69524Z" fill="#454555" fill-opacity="0.8"/>
<path d="M1.73412 3.732C1.71089 6.27967 2.88888 8.91724 4.98553 10.9916L4.98582 10.9919L5.03859 11.0445C7.09319 13.0938 9.73534 14.2705 12.2669 14.2705H12.3189C12.499 14.1227 12.6627 13.9746 12.8103 13.8274C13.467 13.1724 13.9681 12.3968 14.3141 11.517L1.73412 3.732ZM1.73412 3.732C1.88219 3.55309 2.03137 3.38762 2.1988 3.20635C2.85001 2.55647 3.62127 2.05943 4.49627 1.71472H4.54725C4.61414 1.71472 4.69695 1.72984 4.77055 1.74868C4.8066 1.75791 4.83885 1.76762 4.86375 1.77592C4.86669 1.7769 4.86951 1.77786 4.8722 1.77878C5.20375 2.69965 5.6314 3.89907 5.92362 5.03043C5.92496 5.03963 5.92564 5.0605 5.92317 5.09434C5.92069 5.12837 5.91566 5.16808 5.90936 5.20801C5.90051 5.26413 5.89007 5.31525 5.88241 5.34774L4.79316 6.02692L4.79314 6.02688L4.79064 6.02855C4.55745 6.18387 4.40219 6.41696 4.34437 6.70454L4.3442 6.70539C4.26763 7.10424 4.38267 7.55179 4.66005 7.92105C5.11918 8.55502 5.64877 9.18915 6.24892 9.78775C6.84852 10.3858 7.4665 10.9142 8.10292 11.3727C8.42001 11.6053 8.80262 11.708 9.14795 11.6869C9.49195 11.6658 9.81227 11.5199 9.98338 11.2393C9.98352 11.239 9.98366 11.2388 9.9838 11.2386L10.6526 10.1778C10.6595 10.1749 10.6682 10.1715 10.6786 10.1679C10.7029 10.1595 10.7342 10.1507 10.7706 10.1426C10.8407 10.127 10.9255 10.1153 11.0101 10.1144C12.3947 10.4249 13.2095 10.6842 14.2096 11.1305L1.73412 3.732ZM0.924622 3.40523C0.910462 3.42295 0.902749 3.44496 0.902749 3.46765V3.57167C0.832529 6.38618 2.10978 9.29843 4.44106 11.6237C6.65008 13.8269 9.49943 15.1 12.2662 15.1L12.5645 15.1C12.596 15.1 12.6256 15.0851 12.6445 15.0599L12.689 15.0005C12.9161 14.8258 13.1439 14.633 13.3547 14.4228L13.3547 14.4227C14.1011 13.6775 14.6701 12.8087 15.044 11.8329C15.135 11.6014 15.1066 11.2909 15.0197 11.0264C14.9755 10.892 14.9146 10.7638 14.8407 10.6572C14.7677 10.5517 14.6776 10.4612 14.5727 10.4116L14.5718 10.4112C13.4608 9.90038 12.5943 9.61882 11.153 9.30289C11.0864 9.28166 11.021 9.28169 10.9585 9.28172L10.9513 9.28172C10.8464 9.28172 10.6529 9.30025 10.4611 9.35553C10.2741 9.4094 10.0631 9.50542 9.95466 9.6781C9.95455 9.67828 9.95443 9.67846 9.95432 9.67864L9.23534 10.7973L9.2353 10.7973L9.23369 10.8C9.22347 10.817 9.20096 10.8368 9.15699 10.8513C9.11331 10.8658 9.05503 10.8725 8.98667 10.8677C8.84973 10.8582 8.68867 10.8037 8.5557 10.7022L8.55571 10.7021L8.55412 10.701C7.96138 10.2666 7.36879 9.76193 6.79271 9.20508C6.21782 8.63166 5.71345 8.04177 5.27865 7.43479C5.14858 7.23994 5.0913 7.02356 5.11884 6.86517C5.13179 6.8139 5.15624 6.76857 5.20062 6.73393L6.31774 6.03737C6.52159 5.91884 6.62564 5.66841 6.67509 5.44411C6.72547 5.21563 6.7274 4.9767 6.6967 4.84426L6.69676 4.84425L6.69584 4.84082C6.37911 3.66564 5.95765 2.42089 5.60622 1.47458C5.53961 1.26749 5.3395 1.12569 5.13731 1.03738C4.93001 0.946838 4.69266 0.9 4.51175 0.9C4.39684 0.9 4.27869 0.919295 4.17738 0.959434C3.19925 1.33229 2.32749 1.89984 1.58115 2.64425L1.58108 2.64418L1.57821 2.6473C1.38503 2.85705 1.19017 3.07004 0.994351 3.31795C0.994294 3.31803 0.994236 3.3181 0.994178 3.31817L0.924622 3.40523Z" stroke="#454555" stroke-opacity="0.8" stroke-width="0.2" stroke-linecap="round" stroke-linejoin="round"/>
</svg>
