<svg width="25" height="25" viewBox="0 0 25 25" fill="none" xmlns="http://www.w3.org/2000/svg">
<circle cx="12.5" cy="12.5" r="12.5" fill="#093731"/>
<path d="M17.9925 10.4035C18.0125 10.4629 17.9854 10.3413 17.9925 10.4035V10.1071C18.0253 10.0864 17.8999 9.8275 17.7882 9.72605L15.7908 8.03237L14.0477 6.28933C14.0477 6.4172 14.1668 6.3713 14.0971 6.33873L13.7584 6.00004L9.69364 6.00003C9.15463 6.00003 9.0586 6.03213 8.67746 6.41327C8.29631 6.79442 8 7.22917 8 7.76819L8 17.2526C8 17.7916 8.29631 18.1519 8.67746 18.533C9.0586 18.9141 9.15463 18.8717 9.69364 18.8717H16.4682C17.0072 18.8717 17.2726 18.9141 17.6538 18.533C18.0349 18.1519 17.9925 17.7171 17.9925 17.1781V10.7422C17.9925 10.7422 17.9925 10.4442 17.9925 10.4035ZM14.0971 8.03237L16.4682 10.1071H15.7908H15.1133H14.0971V8.03237ZM17.1457 17.2526C17.1457 17.4323 17.0743 17.6046 16.9473 17.7316C16.8202 17.8587 16.6479 17.9301 16.4682 17.9301H9.69364C9.51397 17.9301 9.34166 17.8587 9.21461 17.7316C9.08756 17.6046 9.01619 17.4323 9.01619 17.2526V7.76819C9.01619 7.58851 9.08756 7.4162 9.21461 7.28915C9.34166 7.1621 9.51397 7.09073 9.69364 7.09073H13.0809V10.478C13.0809 10.6577 13.1523 10.83 13.2794 10.9571C13.4064 11.0841 13.5787 11.1555 13.7584 11.1555H17.1457V17.2526Z" fill="white"/>
</svg>
