<svg width="25" height="25" viewBox="0 0 25 25" fill="none" xmlns="http://www.w3.org/2000/svg">
<g clip-path="url(#clip0_2818_25051)">
<path fill-rule="evenodd" clip-rule="evenodd" d="M12.5 0C9.18479 0 6.00537 1.31696 3.66117 3.66117C1.31696 6.00537 0 9.18479 0 12.5C0 15.8152 1.31696 18.9946 3.66117 21.3388C6.00537 23.683 9.18479 25 12.5 25C15.8152 25 18.9946 23.683 21.3388 21.3388C23.683 18.9946 25 15.8152 25 12.5C25 9.18479 23.683 6.00537 21.3388 3.66117C18.9946 1.31696 15.8152 0 12.5 0V0ZM8.998 7.008H16.004L18.998 9.998V18.998H8.998V13.998H5.998V12.998H8.998V11.998H6.998V10.998H8.998V9.998H7.998V8.998H8.998V7.008ZM9.998 8V8.998H12.998V9.998H9.998V10.998H11.998V11.998H9.998V12.998H10.998V13.998H9.998V17.998H17.998V10.994H14.998L15.004 8H9.998ZM16.004 8.418L16 9.994H17.584L16.004 8.418Z" fill="#093731"/>
</g>
<defs>
<clipPath id="clip0_2818_25051">
<rect width="25" height="25" fill="white"/>
</clipPath>
</defs>
</svg>
