<svg width="25" height="25" viewBox="0 0 25 25" fill="none" xmlns="http://www.w3.org/2000/svg">
<g clip-path="url(#clip0_2818_25047)">
<path fill-rule="evenodd" clip-rule="evenodd" d="M12.5 0C9.18479 0 6.00537 1.31696 3.66116 3.66116C1.31696 6.00537 0 9.18479 0 12.5C0 15.8152 1.31696 18.9946 3.66116 21.3388C6.00537 23.683 9.18479 25 12.5 25C15.8152 25 18.9946 23.683 21.3388 21.3388C23.683 18.9946 25 15.8152 25 12.5C25 9.18479 23.683 6.00537 21.3388 3.66116C18.9946 1.31696 15.8152 0 12.5 0ZM11.1536 4.49107C11.2688 4.49398 11.3819 4.52234 11.4848 4.57411L11.5045 4.58482L11.5223 4.59464C12.2955 5.07857 13.0152 5.78839 13.3214 6.80982C13.6286 7.83304 13.4223 8.84375 13.025 9.63839C12.9747 9.73691 12.905 9.82429 12.8202 9.89531C12.7353 9.96633 12.6371 10.0196 12.5312 10.0518C12.4273 10.0893 12.3169 10.1055 12.2066 10.0993C12.0963 10.0932 11.9884 10.0649 11.8893 10.0161L11.8705 10.0062L11.8527 9.99553C11.0795 9.5125 10.3616 8.80179 10.0554 7.78125C9.75893 6.79286 9.85625 5.77143 10.3634 4.94196C10.4645 4.74989 10.637 4.60526 10.8438 4.53929C10.9402 4.50714 11.0455 4.4875 11.1536 4.49018V4.49107ZM11.1205 5.4125C10.7598 6.00446 10.6759 6.74643 10.9098 7.525C11.1286 8.25446 11.633 8.77054 12.2473 9.17232C12.5437 8.55 12.6866 7.80357 12.4652 7.06607C12.2455 6.33393 11.7384 5.81607 11.1205 5.41339V5.4125ZM15.5705 9.08036C15.8536 9.08036 16.0857 9.20804 16.2563 9.37857C16.4268 9.54911 16.5545 9.78036 16.5545 10.0634C16.5545 11.0759 16.1402 12.0009 15.4402 12.7009C14.9259 13.2152 14.3062 13.5848 13.6071 13.742V14.2366C14.3982 13.6464 15.3232 13.367 16.2857 13.367C16.5187 13.367 16.758 13.4509 16.9259 13.6196C17.0946 13.7875 17.1786 14.0268 17.1786 14.2598C17.1786 15.3491 16.7839 16.5348 15.8866 17.4312C15.2682 18.0591 14.473 18.4833 13.6071 18.6473V19.1705C13.6071 19.5366 13.4768 19.8866 13.2304 20.133C12.972 20.381 12.6259 20.5165 12.2679 20.5098C11.9018 20.5098 11.5518 20.3795 11.3054 20.133C11.0574 19.8747 10.9219 19.5286 10.9286 19.1705V18.6795C9.99465 18.543 9.13105 18.1046 8.46964 17.4312C7.57321 16.5348 7.17946 15.35 7.17946 14.2598C7.17946 14.0268 7.26429 13.7875 7.43214 13.6196C7.60089 13.4509 7.83929 13.367 8.07232 13.367C9.10804 13.367 10.1009 13.6866 10.9295 14.3732V13.742C10.2295 13.5839 9.61071 13.2152 9.09643 12.7009C8.39554 12 7.98125 11.0884 7.98125 10.1527C7.98125 9.8625 8.10625 9.58839 8.29911 9.41696C8.49196 9.24554 8.73214 9.17054 8.96518 9.17054C9.90089 9.17054 10.8866 9.56875 11.6018 10.2839C11.8714 10.5536 12.075 10.8491 12.242 11.1571C12.4152 10.8161 12.6384 10.4911 12.9339 10.1946C13.6491 9.47946 14.6348 9.08036 15.5705 9.08036ZM15.5705 9.97321C14.9 9.97321 14.1 10.2911 13.5652 10.8259C13.3015 11.0928 13.0922 11.4085 12.9491 11.7554C13.0518 11.8116 13.1482 11.875 13.2304 11.958C13.4571 12.1839 13.5786 12.4991 13.5982 12.833C14.0366 12.6982 14.4375 12.4402 14.8089 12.0696C15.3589 11.5196 15.6616 10.8375 15.6616 10.0634C15.6616 10.0786 15.6554 10.0402 15.625 10.0098C15.5946 9.97946 15.5563 9.97321 15.5714 9.97321H15.5705ZM8.96518 10.0634C8.93918 10.063 8.91366 10.0705 8.89196 10.0848C8.88304 10.092 8.87411 10.0857 8.87411 10.1527C8.87411 10.8241 9.17768 11.5187 9.72768 12.0696C10.0991 12.4411 10.4991 12.6982 10.9375 12.833C10.9571 12.4991 11.0786 12.1839 11.3054 11.958C11.3795 11.883 11.4661 11.8241 11.5562 11.7705C11.4145 11.4523 11.216 11.1624 10.9705 10.9152C10.4357 10.3795 9.63661 10.0634 8.96518 10.0634ZM12.2688 12.4741L12.0188 12.5366C11.9902 12.5536 11.958 12.5679 11.9366 12.5893C11.9005 12.6252 11.8725 12.6684 11.8545 12.7161C11.8309 12.7816 11.8197 12.8509 11.8214 12.9205V19.1705C11.8214 19.3393 11.8705 19.4357 11.9375 19.5009C12.0027 19.5679 12.0991 19.617 12.2679 19.617C12.4375 19.617 12.533 19.5679 12.5991 19.5009C12.6652 19.4357 12.7152 19.3393 12.7152 19.1705V12.9205C12.7152 12.7509 12.6652 12.6554 12.5991 12.5893C12.533 12.5232 12.4366 12.4732 12.2688 12.4732V12.4741ZM8.07232 14.2598C8.07232 15.133 8.39107 16.0902 9.10089 16.8C9.66339 17.3625 10.2598 17.6536 10.9286 17.7768V15.5982C10.9119 15.5856 10.896 15.5719 10.8813 15.5571L10.6134 15.2902C9.89107 14.5687 9.04464 14.2598 8.07232 14.2598ZM16.2866 14.2598C15.3134 14.2598 14.467 14.5687 13.7455 15.2902L13.6071 15.4259V17.7437C14.2054 17.6018 14.7438 17.3116 15.2554 16.8C15.9652 16.0902 16.2857 15.133 16.2857 14.2598H16.2866Z" fill="#093731"/>
</g>
<defs>
<clipPath id="clip0_2818_25047">
<rect width="25" height="25" fill="white"/>
</clipPath>
</defs>
</svg>
