<svg width="20" height="20" viewBox="0 0 18 16" fill="none" xmlns="http://www.w3.org/2000/svg">
<path d="M11.5975 5.48646C13.7332 9.18565 13.5155 13.3094 11.111 14.6977M11.5975 5.48646C9.4621 1.78727 5.78147 -0.0859154 3.37696 1.30234C0.972451 2.6906 0.754738 6.814 2.89049 10.5136C5.02625 14.2132 8.70649 16.086 11.111 14.6977M11.5975 5.48646C10.9656 4.3917 10.1984 3.45703 9.36889 2.7192M11.111 14.6977C10.6091 14.9877 10.0514 15.1354 9.46363 15.154M7.24399 5.48646C5.10823 9.18565 5.32595 13.3094 7.73046 14.6977C10.135 16.086 13.8156 14.2128 15.9514 10.5136C18.0871 6.81439 17.8694 2.6906 15.4645 1.30234C13.0608 -0.0859155 9.37974 1.78727 7.24399 5.48646Z" stroke="#251F39" stroke-opacity="0.6" stroke-linecap="round" stroke-linejoin="round"/>
</svg>
