<svg width="25" height="25" viewBox="0 0 25 25" fill="none" xmlns="http://www.w3.org/2000/svg">
<g clip-path="url(#clip0_2818_25056)">
<path d="M12.5 0C9.18479 0 6.00537 1.31696 3.66117 3.66117C1.31696 6.00537 0 9.18479 0 12.5C0 15.8152 1.31696 18.9946 3.66117 21.3388C6.00537 23.683 9.18479 25 12.5 25C15.8152 25 18.9946 23.683 21.3388 21.3388C23.683 18.9946 25 15.8152 25 12.5C25 9.18479 23.683 6.00537 21.3388 3.66117C18.9946 1.31696 15.8152 0 12.5 0V0ZM12.512 6.002C13.334 6.002 14.012 6.679 14.012 7.502C14.012 7.776 13.932 8.03 13.801 8.252C14.4566 8.50722 15.0197 8.95478 15.4162 9.53589C15.8128 10.117 16.0243 10.8045 16.023 11.508C16.023 11.508 16.012 13.14 16.012 14.058C16.012 14.004 16.026 14.108 16.098 14.23C16.17 14.352 16.281 14.502 16.395 14.64C16.622 14.917 16.854 15.143 16.854 15.143C16.9256 15.2124 16.9748 15.3016 16.9953 15.3992C17.0158 15.4968 17.0066 15.5983 16.969 15.6907C16.9314 15.783 16.867 15.862 16.7841 15.9175C16.7013 15.973 16.6037 16.0024 16.504 16.002H14.51C14.5095 16.3237 14.4316 16.6405 14.283 16.9257C14.1344 17.211 13.9193 17.4563 13.656 17.641C13.3072 17.8836 12.8903 18.0091 12.4655 17.9992C12.0407 17.9893 11.6301 17.8446 11.293 17.586C11.0519 17.3985 10.857 17.1582 10.7232 16.8836C10.5893 16.609 10.5202 16.3074 10.521 16.002H8.496C8.39594 16.002 8.29818 15.972 8.21535 15.9159C8.13252 15.8598 8.06844 15.7801 8.03139 15.6871C7.99434 15.5942 7.98603 15.4923 8.00753 15.3945C8.02903 15.2968 8.07936 15.2078 8.152 15.139C8.152 15.139 8.39 14.914 8.623 14.639C8.739 14.501 8.853 14.35 8.926 14.229C8.999 14.107 9.012 14.004 9.012 14.059C9.012 12.963 9.023 11.502 9.023 11.502C9.02645 10.8037 9.23798 10.1223 9.63056 9.54486C10.0231 8.96739 10.579 8.52006 11.227 8.26C11.088 8.03148 11.0137 7.76948 11.012 7.502C11.012 6.679 11.689 6.002 12.512 6.002ZM12.512 7.002C12.23 7.002 12.012 7.22 12.012 7.502C12.012 7.784 12.23 8.002 12.512 8.002C12.794 8.002 13.012 7.784 13.012 7.502C13.012 7.22 12.794 7.002 12.512 7.002ZM12.523 9.004V9.006C12.194 9.00427 11.868 9.06783 11.5638 9.19298C11.2596 9.31813 10.9832 9.50239 10.7507 9.73509C10.5182 9.9678 10.3341 10.2443 10.2092 10.5486C10.0843 10.853 10.021 11.179 10.023 11.508C10.023 11.508 10.012 12.97 10.012 14.058C10.012 14.355 9.898 14.55 9.782 14.744C9.725 14.837 9.656 14.916 9.592 15.002H15.424C15.36 14.914 15.292 14.832 15.236 14.738C15.122 14.545 15.012 14.351 15.012 14.058C15.012 13.132 15.023 11.502 15.023 11.502C15.0254 11.1731 14.9624 10.847 14.8375 10.5428C14.7127 10.2385 14.5286 9.96206 14.296 9.72959C14.0633 9.49713 13.7868 9.31326 13.4824 9.18869C13.178 9.06412 12.8519 9.00134 12.523 9.004ZM11.516 16.002C11.5144 16.185 11.5634 16.3648 11.6575 16.5217C11.7516 16.6786 11.8872 16.8065 12.0493 16.8913C12.2115 16.9761 12.3939 17.0145 12.5764 17.0023C12.759 16.9901 12.9346 16.9277 13.084 16.822C13.2162 16.7299 13.3241 16.6073 13.3986 16.4645C13.4731 16.3217 13.512 16.1631 13.512 16.002H11.516Z" fill="#093731"/>
</g>
<defs>
<clipPath id="clip0_2818_25056">
<rect width="25" height="25" fill="white"/>
</clipPath>
</defs>
</svg>
