<svg  viewBox="0 0 16 16" fill="none" xmlns="http://www.w3.org/2000/svg">
<path d="M0.554687 5.38716L0.554687 10.6133L3.94975 10.6133L8.19357 14.9684L8.19358 1.03203L3.94975 5.38716L0.554687 5.38716ZM12.013 8.00023C12.013 6.46287 11.1473 5.13456 9.89111 4.49436L9.89111 11.5105C11.1473 10.8659 12.013 9.53759 12.013 8.00023ZM9.89111 0.361344L9.89111 2.16001C12.344 2.90909 14.1349 5.23908 14.1349 8.00023C14.1349 10.7614 12.344 13.0914 9.89111 13.8405L9.89111 15.6391C13.2904 14.8465 15.8325 11.7326 15.8325 8.00023C15.8325 4.26789 13.2904 1.15398 9.89111 0.361344Z" fill="white"/>
</svg>
