<svg  viewBox="0 0 44 51" fill="none" xmlns="http://www.w3.org/2000/svg">
<path d="M21.1189 49.0116C10.2406 49.0116 1.42193 39.8537 1.42193 28.557C1.42193 17.2603 10.2406 8.10247 21.1189 8.10247" stroke="white" stroke-width="2.08333" stroke-linecap="round"/>
<path d="M19.0938 1.02776L26.0868 7.43802L26.6696 7.97221L19.0938 14.9167L19.0938 1.02776Z" fill="white" stroke="white" stroke-width="0.694444"/>
<path d="M38.2292 15.9584C38.2292 15.9584 41.3542 19.0834 41.7014 23.2501M39.1307 39.2223C41.007 37.139 42.3959 31.5834 42.3959 29.1529M24.6875 48.5973C24.6875 48.5973 31.632 48.5973 35.7987 43.7362" stroke="white" stroke-width="2.08333" stroke-linecap="round"/>
<path d="M13.9886 26.3109L14.9053 27.4609L17.1386 25.5943L17.1386 35.6943L18.7886 35.6943L18.7886 23.3776L17.4719 23.3776L13.9886 26.3109ZM26.0176 35.8943C29.5843 35.8943 30.8176 32.5109 30.8176 29.5276C30.8176 26.5443 29.5843 23.1609 26.0176 23.1609C24.301 23.1609 22.9843 23.9776 22.251 25.2443C21.5343 26.5109 21.201 27.9443 21.201 29.5276C21.201 31.1109 21.5343 32.5443 22.251 33.8109C22.9843 35.0776 24.301 35.8943 26.0176 35.8943ZM29.1343 29.5276C29.1343 30.9443 28.8843 32.0943 28.3676 32.9943C27.851 33.8943 27.0676 34.3443 26.0176 34.3443C24.9676 34.3443 24.1843 33.8943 23.6676 32.9943C23.151 32.0943 22.901 30.9443 22.901 29.5276C22.901 28.1276 23.151 26.9776 23.6676 26.0776C24.1843 25.1609 24.9676 24.7109 26.0176 24.7109C27.0676 24.7109 27.851 25.1609 28.3676 26.0776C28.8843 26.9776 29.1343 28.1276 29.1343 29.5276Z" fill="white"/>
</svg>
