<svg  viewBox="0 0 16 24" fill="none" xmlns="http://www.w3.org/2000/svg">
<path d="M0.589401 12.0011C0.589401 18.1294 4.9229 23.1123 10.2526 23.1123C12.343 23.1123 14.2849 22.3414 15.8672 21.0398L15.1217 19.9547C13.7467 21.0669 12.0645 21.7235 10.2523 21.7235C5.57549 21.7235 1.79703 17.3788 1.79703 12.0012C1.79703 6.62358 5.57549 2.27893 10.2523 2.27893C12.0647 2.27893 13.7469 2.93556 15.1217 4.04748L15.8672 2.96241C14.2846 1.66106 12.3425 0.8901 10.2526 0.8901C4.92296 0.8901 0.589401 5.87295 0.589401 12.0013V12.0011ZM7.02524 5.85956L11.3002 13.2269C11.8898 13.9051 12.8431 13.9051 13.4329 13.2269C14.0225 12.549 14.0225 11.4525 13.4329 10.7746L7.02567 5.85931L7.02524 5.85956Z" fill="white"/>
</svg>
