<?xml version="1.0" standalone="no"?>
<!DOCTYPE svg PUBLIC "-//W3C//DTD SVG 20010904//EN"
 "http://www.w3.org/TR/2001/REC-SVG-20010904/DTD/svg10.dtd">
<svg version="1.0" xmlns="http://www.w3.org/2000/svg"
 width="33" height="33" viewBox="0 0 31.000000 31.000000"
 preserveAspectRatio="xMidYMid meet">

<g transform="translate(0.000000,31.000000) scale(0.100000,-0.100000)"
fill="#000" stroke="none">
<path d="M100 270 c0 -5 -13 -16 -30 -25 -18 -9 -30 -23 -30 -35 0 -11 -6 -29
-12 -40 -10 -15 -10 -22 0 -32 6 -6 12 -22 12 -35 0 -15 10 -28 30 -38 16 -9
30 -20 30 -25 0 -5 25 -9 55 -9 30 0 55 4 55 9 0 5 14 16 30 25 20 10 30 23
30 38 0 13 6 29 12 35 10 10 10 17 0 32 -6 11 -12 29 -12 40 0 12 -12 26 -30
35 -16 9 -30 20 -30 25 0 5 -25 9 -55 9 -30 0 -55 -4 -55 -9z m108 -16 c4 -6
16 -15 26 -21 37 -21 37 -136 0 -156 -10 -5 -22 -16 -26 -22 -9 -15 -96 -14
-106 1 -4 6 -16 15 -26 21 -37 21 -37 136 0 156 10 5 22 16 26 22 9 15 96 14
106 -1z"/>
<path d="M104 209 c-3 -6 1 -18 9 -27 13 -12 19 -13 31 -3 8 7 12 19 9 27 -6
17 -39 19 -49 3z m36 -9 c0 -5 -4 -10 -10 -10 -5 0 -10 5 -10 10 0 6 5 10 10
10 6 0 10 -4 10 -10z"/>
<path d="M150 155 c-24 -25 -42 -45 -39 -45 3 0 25 20 49 45 24 25 42 45 39
45 -3 0 -25 -20 -49 -45z"/>
<path d="M163 129 c-16 -16 -5 -39 17 -39 25 0 35 18 20 35 -15 18 -22 19 -37
4z m27 -19 c0 -5 -4 -10 -10 -10 -5 0 -10 5 -10 10 0 6 5 10 10 10 6 0 10 -4
10 -10z"/>
</g>
</svg>
