<svg width="18" height="18" viewBox="0 0 18 18" fill="none" xmlns="http://www.w3.org/2000/svg">
<path d="M16.5622 8.54648C14.8957 5.03613 12.3768 3.26953 9.00004 3.26953C5.62153 3.26953 3.10434 5.03613 1.43793 8.54824C1.37109 8.68978 1.33643 8.84436 1.33643 9.00088C1.33643 9.1574 1.37109 9.31198 1.43793 9.45352C3.10434 12.9639 5.62328 14.7305 9.00004 14.7305C12.3786 14.7305 14.8957 12.9639 16.5622 9.45176C16.6975 9.16699 16.6975 8.83652 16.5622 8.54648V8.54648ZM9.00004 13.4648C6.16469 13.4648 4.08871 12.027 2.62446 9C4.08871 5.97305 6.16469 4.53516 9.00004 4.53516C11.8354 4.53516 13.9114 5.97305 15.3756 9C13.9131 12.027 11.8372 13.4648 9.00004 13.4648ZM8.92973 5.90625C7.22114 5.90625 5.83598 7.29141 5.83598 9C5.83598 10.7086 7.22114 12.0938 8.92973 12.0938C10.6383 12.0938 12.0235 10.7086 12.0235 9C12.0235 7.29141 10.6383 5.90625 8.92973 5.90625ZM8.92973 10.9688C7.84164 10.9688 6.96098 10.0881 6.96098 9C6.96098 7.91191 7.84164 7.03125 8.92973 7.03125C10.0178 7.03125 10.8985 7.91191 10.8985 9C10.8985 10.0881 10.0178 10.9688 8.92973 10.9688Z" fill="#454555" fill-opacity="0.8"/>
</svg>
