<svg xmlns="http://www.w3.org/2000/svg" width="32" height="32">
    <path style="stroke:none;fill-rule:nonzero;fill:#000;fill-opacity:1" d="m19.375 1.934-1.441 1.441 2.132 2.133c.293.332.442.719.442 1.16 0 .437-.149.852-.442 1.144l-4.734 4.813 1.336 1.441 4.84-4.812c.707-.79 1.05-1.652 1.05-2.586 0-.934-.343-1.816-1.05-2.602l-2.133-2.132m-5.309 2.691-1.441 1.441.816.747c.293.292.438.695.438 1.187 0 .492-.145.895-.438 1.188l-.816.746 1.441 1.441.746-.816C15.52 9.773 15.88 8.922 15.88 8c0-.96-.36-1.828-1.066-2.625l-.747-.75M28 6.746c-.922 0-1.773.36-2.559 1.066l-7.507 7.52 1.441 1.336 7.438-7.414c.335-.332.734-.508 1.187-.508.453 0 .852.176 1.188.508l.812.812 1.375-1.441-.75-.813C29.84 7.106 28.961 6.747 28 6.747M9.332 10.668 2.668 29.332l18.664-6.664-12-12m16 4.078c-.934 0-1.785.36-2.586 1.066l-2.121 2.122 1.441 1.441 2.122-2.121c.332-.332.707-.508 1.144-.508.441 0 .84.176 1.176.508l2.16 2.121L30.066 18l-2.132-2.188c-.786-.707-1.668-1.066-2.602-1.066Zm0 0"/>
</svg>
