<svg width="14" height="19" viewBox="0 0 14 19" fill="none" xmlns="http://www.w3.org/2000/svg">
<path d="M0.813001 1.16496C1.05835 1.03862 1.3338 0.982412 1.60904 1.00252C1.88427 1.02264 2.14862 1.11829 2.373 1.27896L12.873 8.77896C13.0674 8.91771 13.2259 9.1009 13.3353 9.31328C13.4447 9.52566 13.5017 9.76108 13.5017 9.99996C13.5017 10.2388 13.4447 10.4743 13.3353 10.6866C13.2259 10.899 13.0674 11.0822 12.873 11.221L2.373 18.721C2.1487 18.8815 1.88448 18.9771 1.60939 18.9972C1.33429 19.0173 1.05898 18.9612 0.813712 18.835C0.568446 18.7088 0.362727 18.5174 0.219169 18.2819C0.0756124 18.0463 -0.000222998 17.7758 8.23264e-07 17.5V2.49996C-0.000288035 2.22421 0.0754419 1.95371 0.218869 1.71819C0.362296 1.48268 0.567869 1.29125 0.813001 1.16496Z" fill="white"/>
</svg>
