<svg width="18" height="22" viewBox="0 0 18 22" fill="none" xmlns="http://www.w3.org/2000/svg">
<path d="M2 0C0.89543 0 0 0.895431 0 2V20C0 21.1046 0.895431 22 2 22H16C17.1046 22 18 21.1046 18 20V2C18 0.89543 17.1046 0 16 0H2ZM15 17.7228C15 18.06 14.7267 18.3333 14.3895 18.3333H3.6105C3.27333 18.3333 3 18.06 3 17.7228C3 17.3857 3.27333 17.1123 3.6105 17.1123H14.3895C14.7267 17.1123 15 17.3857 15 17.7228ZM15 15.2772C15 15.6143 14.7267 15.8877 14.3895 15.8877H3.6105C3.27333 15.8877 3 15.6143 3 15.2772C3 14.94 3.27333 14.6667 3.6105 14.6667H14.3895C14.7267 14.6667 15 14.94 15 15.2772ZM15 9C15 10.1046 14.1046 11 13 11H5C3.89543 11 3 10.1046 3 9V5.66667C3 4.5621 3.89543 3.66667 5 3.66667H13C14.1046 3.66667 15 4.5621 15 5.66667V9Z" fill="currentColor"/>
</svg>
