<svg xmlns="http://www.w3.org/2000/svg" width="32" height="32"><path fill-rule="evenodd" d="M16 0A16 16 0 0 0 0 16a16 16 0 0 0 16 16 16 16 0 0 0 16-16A16 16 0 0 0 16 0zm-.004 8.502a.5.5 0 0 1 .508.508v4a.5.5 0 1 1-1 0v-4a.5.5 0 0 1 .492-.508zm-1.978 1.307a.5.5 0 0 1 .17.978 5.99 5.99 0 0 0-4.114 6.629 5.986 5.986 0 0 0 5.92 5.08 5.99 5.99 0 0 0 5.93-5.068 5.99 5.99 0 0 0-4.1-6.637.5.5 0 1 1 .305-.953 7 7 0 0 1 4.783 7.744 7.005 7.005 0 0 1-6.92 5.914 7 7 0 0 1-6.906-5.928 7 7 0 0 1 4.799-7.734.5.5 0 0 1 .133-.023v-.002z"/></svg>