<svg viewBox="0 0 18 18" fill="none" xmlns="http://www.w3.org/2000/svg">
<mask id="mask0_1448_7668" style="mask-type:alpha" maskUnits="userSpaceOnUse" x="3" y="10" >
<path fill-rule="evenodd" clip-rule="evenodd" d="M3 10.8721H14.8799V16.4026H3V10.8721Z" fill="white"/>
</mask>
<g mask="url(#mask0_1448_7668)">
<path fill-rule="evenodd" clip-rule="evenodd" d="M8.94075 11.9971C5.745 11.9971 4.125 12.5461 4.125 13.6298C4.125 14.7233 5.745 15.2776 8.94075 15.2776C12.1357 15.2776 13.755 14.7286 13.755 13.6448C13.755 12.5513 12.1357 11.9971 8.94075 11.9971ZM8.94075 16.4026C7.4715 16.4026 3 16.4026 3 13.6298C3 11.1578 6.39075 10.8721 8.94075 10.8721C10.41 10.8721 14.88 10.8721 14.88 13.6448C14.88 16.1168 11.49 16.4026 8.94075 16.4026Z" fill="#7B6F72"/>
</g>
<mask id="mask1_1448_7668" style="mask-type:alpha" maskUnits="userSpaceOnUse" x="4" y="1" >
<path fill-rule="evenodd" clip-rule="evenodd" d="M4.95703 1.5H12.9221V9.46395H4.95703V1.5Z" fill="white"/>
</mask>
<g mask="url(#mask1_1448_7668)">
<path fill-rule="evenodd" clip-rule="evenodd" d="M8.94031 2.571C7.33456 2.571 6.02806 3.87675 6.02806 5.4825C6.02281 7.083 7.31956 8.388 8.91856 8.394L8.94031 8.9295V8.394C10.5453 8.394 11.8511 7.0875 11.8511 5.4825C11.8511 3.87675 10.5453 2.571 8.94031 2.571ZM8.9403 9.46425H8.91631C6.72481 9.4575 4.94955 7.67025 4.95705 5.48025C4.95705 3.2865 6.74355 1.5 8.9403 1.5C11.1363 1.5 12.9221 3.2865 12.9221 5.4825C12.9221 7.6785 11.1363 9.46425 8.9403 9.46425Z" fill="#7B6F72"/>
</g>
</svg>
