<svg width="23" height="23" viewBox="0 0 23 23" fill="none" xmlns="http://www.w3.org/2000/svg">
<path d="M19.0446 13.2969H3.41406C3.31524 13.2969 3.23438 13.3777 3.23438 13.4766V14.8242C3.23438 14.923 3.31524 15.0039 3.41406 15.0039H17.0074L13.7663 19.1143C13.6742 19.2311 13.7573 19.4062 13.9078 19.4062H15.5362C15.6463 19.4062 15.7496 19.3568 15.8192 19.2692L19.6106 14.4604C19.9812 13.9887 19.6466 13.2969 19.0446 13.2969ZM19.5859 7.99609H5.99258L9.23369 3.88574C9.32578 3.76895 9.24268 3.59375 9.09219 3.59375H7.46377C7.35371 3.59375 7.25039 3.64316 7.18076 3.73076L3.38936 8.53965C3.01875 9.01133 3.35342 9.70312 3.95313 9.70312H19.5859C19.6848 9.70312 19.7656 9.62227 19.7656 9.52344V8.17578C19.7656 8.07695 19.6848 7.99609 19.5859 7.99609Z" fill="#DE3151"/>
</svg>
