<svg width="20" height="20" viewBox="0 0 20 20" fill="none" xmlns="http://www.w3.org/2000/svg">
<path d="M13.9695 2.50005C13.9907 2.49979 14.0119 2.5006 14.033 2.50249C14.1677 2.51089 14.2961 2.5627 14.3989 2.65015C14.5018 2.73761 14.5736 2.85601 14.6035 2.98765C14.6335 3.11929 14.62 3.25709 14.5651 3.38043C14.5102 3.50378 14.4169 3.60604 14.2991 3.67192L13.6155 4.06743C15.2906 4.63382 16.6014 5.95663 17.1506 7.63921L17.5779 6.89946C17.6342 6.79855 17.7174 6.71523 17.8183 6.65877C17.9192 6.60231 18.0337 6.57492 18.1492 6.57964C18.2575 6.58382 18.3629 6.61612 18.455 6.67336C18.5471 6.7306 18.6227 6.81081 18.6744 6.90612C18.7262 7.00142 18.7522 7.10854 18.75 7.21696C18.7478 7.32537 18.7174 7.43134 18.6619 7.52446L17.4119 9.68755C17.3544 9.78749 17.2703 9.86957 17.1691 9.92472C17.0678 9.97987 16.9533 10.0059 16.8381 10C16.8308 10.0002 16.8235 10.0002 16.8162 10C16.6558 9.99686 16.5029 9.93218 16.3889 9.81938L14.3918 8.66704C14.3174 8.62785 14.2516 8.57401 14.1984 8.50877C14.1452 8.44352 14.1058 8.36821 14.0824 8.28735C14.059 8.20649 14.0523 8.12174 14.0624 8.03819C14.0726 7.95464 14.0996 7.87401 14.1417 7.80114C14.1838 7.72826 14.2402 7.66464 14.3075 7.61409C14.3748 7.56354 14.4516 7.52711 14.5334 7.50697C14.6151 7.48683 14.7 7.48341 14.7831 7.4969C14.8662 7.5104 14.9457 7.54053 15.0168 7.5855L16.0129 8.16167C15.5971 6.70908 14.4603 5.58293 13.0027 5.17827L13.613 6.23296C13.6541 6.30413 13.6807 6.3827 13.6914 6.46417C13.7021 6.54563 13.6966 6.62841 13.6753 6.70776C13.654 6.78712 13.6173 6.86149 13.5672 6.92665C13.5172 6.99181 13.4548 7.04647 13.3836 7.08751C13.3124 7.12855 13.2338 7.15517 13.1524 7.16585C13.0709 7.17652 12.9881 7.17104 12.9088 7.14973C12.8294 7.12841 12.755 7.09167 12.6899 7.04161C12.6247 6.99155 12.5701 6.92914 12.5291 6.85796L11.2791 4.69243C11.2009 4.55557 11.1774 4.39425 11.2131 4.24077C11.2153 4.23013 11.2177 4.21955 11.2205 4.20903C11.2288 4.17898 11.2394 4.14961 11.2522 4.12114C11.2568 4.11125 11.2617 4.10148 11.2668 4.09184C11.2715 4.08277 11.2764 4.07382 11.2815 4.06499C11.3473 3.9495 11.4482 3.85799 11.5696 3.80376L13.6741 2.59038C13.7634 2.53603 13.865 2.50497 13.9695 2.50005ZM9.37475 2.50005C9.54051 2.50006 9.69947 2.56592 9.81668 2.68312C9.93388 2.80033 9.99974 2.95929 9.99975 3.12505V13.125C9.99974 13.2908 9.93388 13.4498 9.81668 13.567C9.69947 13.6842 9.54051 13.75 9.37475 13.75H3.12475C2.959 13.75 2.80004 13.6842 2.68283 13.567C2.56562 13.4498 2.49977 13.2908 2.49975 13.125V3.12505C2.49977 2.95929 2.56562 2.80033 2.68283 2.68312C2.80004 2.56592 2.959 2.50006 3.12475 2.50005H9.37475ZM8.74975 3.75005H3.74975V12.5H8.74975V3.75005ZM18.1248 11.25C18.4699 11.25 18.7497 11.5299 18.7498 11.875V18.125C18.7497 18.4702 18.4699 18.75 18.1248 18.75H8.12475C7.77959 18.75 7.49979 18.4702 7.49975 18.125V15H8.74975V17.5H17.4998V12.5H11.2498V11.25H18.1248Z" fill="#454555" fill-opacity="0.7"/>
</svg>
