<svg width="16" height="19" viewBox="0 0 16 19" fill="none" xmlns="http://www.w3.org/2000/svg">
<path d="M8 0L0 2.66667V10.6667C0 15.0854 3.58125 18.6667 8 18.6667C12.4188 18.6667 16 15.0854 16 10.6667V2.66667L8 0ZM14.5 10.6667C14.5 14.2562 11.5896 17.1667 8 17.1667C4.41042 17.1667 1.5 14.2562 1.5 10.6667V3.79167L8 1.5L14.5 3.79167V10.6667Z" fill="#FF385C"/>
<path d="M5.21667 8.56458C5.14715 8.49475 5.06453 8.43934 4.97354 8.40153C4.88255 8.36372 4.78499 8.34426 4.68646 8.34426C4.58793 8.34426 4.49036 8.36372 4.39938 8.40153C4.30839 8.43934 4.22576 8.49475 4.15625 8.56458C4.08642 8.6341 4.03101 8.71672 3.9932 8.80771C3.95539 8.8987 3.93592 8.99626 3.93592 9.09479C3.93592 9.19332 3.95539 9.29088 3.9932 9.38187C4.03101 9.47286 4.08642 9.55549 4.15625 9.625L6.89583 12.3646C6.96159 12.4305 7.03969 12.4827 7.12566 12.5184C7.21164 12.554 7.3038 12.5724 7.39687 12.5724C7.48995 12.5724 7.58211 12.554 7.66809 12.5184C7.75406 12.4827 7.83216 12.4305 7.89792 12.3646L12.5542 7.70833C12.62 7.64258 12.6723 7.56448 12.708 7.47851C12.7436 7.39253 12.762 7.30037 12.762 7.20729C12.762 7.11421 12.7436 7.02205 12.708 6.93608C12.6723 6.8501 12.62 6.772 12.5542 6.70625L12.4958 6.64792C12.4301 6.58204 12.352 6.52978 12.266 6.49412C12.18 6.45846 12.0879 6.4401 11.9948 6.4401C11.9017 6.4401 11.8096 6.45846 11.7236 6.49412C11.6376 6.52978 11.5595 6.58204 11.4938 6.64792L7.39583 10.7437L5.21667 8.56458Z" fill="#FF385C"/>
</svg>
