<svg width="15" height="15" viewBox="0 0 15 15" fill="none" xmlns="http://www.w3.org/2000/svg">
<mask id="path-1-inside-1_1773_22889" fill="white">
<path d="M0 0.5C0 0.367392 0.0526784 0.240215 0.146447 0.146447C0.240215 0.0526784 0.367392 0 0.5 0H2C2.11153 3.08115e-05 2.21985 0.0373507 2.30773 0.106025C2.39561 0.174699 2.45801 0.270784 2.485 0.379L2.89 2H14.5C14.5734 2.00007 14.6459 2.0163 14.7124 2.04755C14.7788 2.0788 14.8375 2.12429 14.8844 2.1808C14.9313 2.23731 14.9651 2.30345 14.9835 2.37452C15.002 2.44558 15.0045 2.51984 14.991 2.592L13.491 10.592C13.4696 10.7066 13.4087 10.8101 13.3191 10.8846C13.2294 10.9591 13.1166 10.9999 13 11H4C3.88343 10.9999 3.77057 10.9591 3.68091 10.8846C3.59126 10.8101 3.53045 10.7066 3.509 10.592L2.01 2.607L1.61 1H0.5C0.367392 1 0.240215 0.947322 0.146447 0.853553C0.0526784 0.759785 0 0.632608 0 0.5ZM3.102 3L4.415 10H12.585L13.898 3H3.102ZM5 11C4.46957 11 3.96086 11.2107 3.58579 11.5858C3.21071 11.9609 3 12.4696 3 13C3 13.5304 3.21071 14.0391 3.58579 14.4142C3.96086 14.7893 4.46957 15 5 15C5.53043 15 6.03914 14.7893 6.41421 14.4142C6.78929 14.0391 7 13.5304 7 13C7 12.4696 6.78929 11.9609 6.41421 11.5858C6.03914 11.2107 5.53043 11 5 11ZM12 11C11.4696 11 10.9609 11.2107 10.5858 11.5858C10.2107 11.9609 10 12.4696 10 13C10 13.5304 10.2107 14.0391 10.5858 14.4142C10.9609 14.7893 11.4696 15 12 15C12.5304 15 13.0391 14.7893 13.4142 14.4142C13.7893 14.0391 14 13.5304 14 13C14 12.4696 13.7893 11.9609 13.4142 11.5858C13.0391 11.2107 12.5304 11 12 11ZM5 12C5.26522 12 5.51957 12.1054 5.70711 12.2929C5.89464 12.4804 6 12.7348 6 13C6 13.2652 5.89464 13.5196 5.70711 13.7071C5.51957 13.8946 5.26522 14 5 14C4.73478 14 4.48043 13.8946 4.29289 13.7071C4.10536 13.5196 4 13.2652 4 13C4 12.7348 4.10536 12.4804 4.29289 12.2929C4.48043 12.1054 4.73478 12 5 12ZM12 12C12.2652 12 12.5196 12.1054 12.7071 12.2929C12.8946 12.4804 13 12.7348 13 13C13 13.2652 12.8946 13.5196 12.7071 13.7071C12.5196 13.8946 12.2652 14 12 14C11.7348 14 11.4804 13.8946 11.2929 13.7071C11.1054 13.5196 11 13.2652 11 13C11 12.7348 11.1054 12.4804 11.2929 12.2929C11.4804 12.1054 11.7348 12 12 12Z"/>
</mask>
<path d="M0 0.5C0 0.367392 0.0526784 0.240215 0.146447 0.146447C0.240215 0.0526784 0.367392 0 0.5 0H2C2.11153 3.08115e-05 2.21985 0.0373507 2.30773 0.106025C2.39561 0.174699 2.45801 0.270784 2.485 0.379L2.89 2H14.5C14.5734 2.00007 14.6459 2.0163 14.7124 2.04755C14.7788 2.0788 14.8375 2.12429 14.8844 2.1808C14.9313 2.23731 14.9651 2.30345 14.9835 2.37452C15.002 2.44558 15.0045 2.51984 14.991 2.592L13.491 10.592C13.4696 10.7066 13.4087 10.8101 13.3191 10.8846C13.2294 10.9591 13.1166 10.9999 13 11H4C3.88343 10.9999 3.77057 10.9591 3.68091 10.8846C3.59126 10.8101 3.53045 10.7066 3.509 10.592L2.01 2.607L1.61 1H0.5C0.367392 1 0.240215 0.947322 0.146447 0.853553C0.0526784 0.759785 0 0.632608 0 0.5ZM3.102 3L4.415 10H12.585L13.898 3H3.102ZM5 11C4.46957 11 3.96086 11.2107 3.58579 11.5858C3.21071 11.9609 3 12.4696 3 13C3 13.5304 3.21071 14.0391 3.58579 14.4142C3.96086 14.7893 4.46957 15 5 15C5.53043 15 6.03914 14.7893 6.41421 14.4142C6.78929 14.0391 7 13.5304 7 13C7 12.4696 6.78929 11.9609 6.41421 11.5858C6.03914 11.2107 5.53043 11 5 11ZM12 11C11.4696 11 10.9609 11.2107 10.5858 11.5858C10.2107 11.9609 10 12.4696 10 13C10 13.5304 10.2107 14.0391 10.5858 14.4142C10.9609 14.7893 11.4696 15 12 15C12.5304 15 13.0391 14.7893 13.4142 14.4142C13.7893 14.0391 14 13.5304 14 13C14 12.4696 13.7893 11.9609 13.4142 11.5858C13.0391 11.2107 12.5304 11 12 11ZM5 12C5.26522 12 5.51957 12.1054 5.70711 12.2929C5.89464 12.4804 6 12.7348 6 13C6 13.2652 5.89464 13.5196 5.70711 13.7071C5.51957 13.8946 5.26522 14 5 14C4.73478 14 4.48043 13.8946 4.29289 13.7071C4.10536 13.5196 4 13.2652 4 13C4 12.7348 4.10536 12.4804 4.29289 12.2929C4.48043 12.1054 4.73478 12 5 12ZM12 12C12.2652 12 12.5196 12.1054 12.7071 12.2929C12.8946 12.4804 13 12.7348 13 13C13 13.2652 12.8946 13.5196 12.7071 13.7071C12.5196 13.8946 12.2652 14 12 14C11.7348 14 11.4804 13.8946 11.2929 13.7071C11.1054 13.5196 11 13.2652 11 13C11 12.7348 11.1054 12.4804 11.2929 12.2929C11.4804 12.1054 11.7348 12 12 12Z" fill="#F24240"/>
<path d="M0 0.5H-3H0ZM0.5 0V-3V0ZM2 0L2.00083 -3H2V0ZM2.485 0.379L-0.425829 1.105L-0.425533 1.10618L2.485 0.379ZM2.89 2L-0.0205329 2.72718L0.547321 5H2.89V2ZM14.5 2L14.5028 -1H14.5V2ZM14.991 2.592L17.9396 3.14487L17.9398 3.144L14.991 2.592ZM13.491 10.592L10.5424 10.0391L10.5422 10.04L13.491 10.592ZM13 11V14L13.0028 14L13 11ZM4 11L3.99722 14H4V11ZM3.509 10.592L6.45778 10.04L6.4575 10.0385L3.509 10.592ZM2.01 2.607L4.9585 2.05349L4.94233 1.96739L4.92117 1.88238L2.01 2.607ZM1.61 1L4.52117 0.275377L3.95481 -2H1.61V1ZM0.5 1V4V1ZM3.102 3V0H-0.513033L0.153422 3.55307L3.102 3ZM4.415 10L1.46642 10.5531L1.9254 13H4.415V10ZM12.585 10V13H15.0746L15.5336 10.5531L12.585 10ZM13.898 3L16.8466 3.55307L17.513 0L13.898 0V3ZM3 13H0H3ZM7 13H10H7ZM3 0.5C3 1.16304 2.73661 1.79893 2.26777 2.26777L-1.97487 -1.97487C-2.63125 -1.3185 -3 -0.428258 -3 0.5H3ZM2.26777 2.26777C1.79893 2.73661 1.16304 3 0.5 3V-3C-0.428257 -3 -1.3185 -2.63125 -1.97487 -1.97487L2.26777 2.26777ZM0.5 3H2V-3H0.5V3ZM1.99917 3C1.44152 2.99985 0.89992 2.81325 0.460515 2.46988L4.15495 -2.25783C3.53978 -2.73854 2.78155 -2.99978 2.00083 -3L1.99917 3ZM0.460515 2.46988C0.0211095 2.12651 -0.290876 1.64608 -0.425829 1.105L5.39583 -0.347C5.20689 -1.10451 4.77011 -1.77711 4.15495 -2.25783L0.460515 2.46988ZM-0.425533 1.10618L-0.0205329 2.72718L5.80053 1.27282L5.39553 -0.348185L-0.425533 1.10618ZM2.89 5H14.5V-1H2.89V5ZM14.4972 5C14.1301 4.99966 13.7676 4.91849 13.4355 4.76224L15.9892 -0.667142C15.5242 -0.885881 15.0167 -0.999523 14.5028 -0.999999L14.4972 5ZM13.4355 4.76224C13.1033 4.606 12.8096 4.37853 12.5753 4.09598L17.1935 0.265627C16.8654 -0.129937 16.4543 -0.448403 15.9892 -0.667142L13.4355 4.76224ZM12.5753 4.09598C12.3409 3.81342 12.1717 3.48273 12.0795 3.12741L17.8875 1.62162C17.7586 1.12417 17.5216 0.661203 17.1935 0.265627L12.5753 4.09598ZM12.0795 3.12741C11.9874 2.77209 11.9747 2.40083 12.0422 2.04L17.9398 3.144C18.0343 2.63885 18.0165 2.11908 17.8875 1.62162L12.0795 3.12741ZM12.0424 2.03913L10.5424 10.0391L16.4396 11.1449L17.9396 3.14487L12.0424 2.03913ZM10.5422 10.04C10.6495 9.46711 10.9535 8.9497 11.4018 8.5772L15.2364 13.1919C15.864 12.6704 16.2896 11.946 16.4398 11.144L10.5422 10.04ZM11.4018 8.5772C11.85 8.20471 12.4144 8.00054 12.9972 8L13.0028 14C13.8188 13.9992 14.6088 13.7134 15.2364 13.1919L11.4018 8.5772ZM13 8H4V14H13V8ZM4.00278 8C4.58562 8.00054 5.14996 8.20471 5.59823 8.5772L1.76359 13.1919C2.39117 13.7134 3.18124 13.9992 3.99722 14L4.00278 8ZM5.59823 8.5772C6.0465 8.9497 6.35054 9.46711 6.45778 10.04L0.560221 11.144C0.710361 11.946 1.13601 12.6704 1.76359 13.1919L5.59823 8.5772ZM6.4575 10.0385L4.9585 2.05349L-0.938495 3.16051L0.560505 11.1455L6.4575 10.0385ZM4.92117 1.88238L4.52117 0.275377L-1.30117 1.72462L-0.901172 3.33162L4.92117 1.88238ZM1.61 -2H0.5V4H1.61V-2ZM0.5 -2C1.16304 -2 1.79893 -1.73661 2.26777 -1.26777L-1.97487 2.97487C-1.3185 3.63125 -0.428257 4 0.5 4V-2ZM2.26777 -1.26777C2.73661 -0.798926 3 -0.163041 3 0.5H-3C-3 1.42826 -2.63125 2.3185 -1.97487 2.97487L2.26777 -1.26777ZM0.153422 3.55307L1.46642 10.5531L7.36358 9.44693L6.05058 2.44693L0.153422 3.55307ZM4.415 13H12.585V7H4.415V13ZM15.5336 10.5531L16.8466 3.55307L10.9494 2.44693L9.63642 9.44693L15.5336 10.5531ZM13.898 0H3.102V6H13.898V0ZM5 8C3.67392 8 2.40215 8.52679 1.46447 9.46447L5.70711 13.7071C5.51957 13.8946 5.26522 14 5 14V8ZM1.46447 9.46447C0.526784 10.4021 0 11.6739 0 13H6C6 13.2652 5.89464 13.5196 5.70711 13.7071L1.46447 9.46447ZM0 13C0 14.3261 0.526784 15.5979 1.46447 16.5355L5.70711 12.2929C5.89464 12.4804 6 12.7348 6 13H0ZM1.46447 16.5355C2.40215 17.4732 3.67392 18 5 18V12C5.26522 12 5.51957 12.1054 5.70711 12.2929L1.46447 16.5355ZM5 18C6.32608 18 7.59785 17.4732 8.53553 16.5355L4.29289 12.2929C4.48043 12.1054 4.73478 12 5 12V18ZM8.53553 16.5355C9.47322 15.5979 10 14.3261 10 13H4C4 12.7348 4.10536 12.4804 4.29289 12.2929L8.53553 16.5355ZM10 13C10 11.6739 9.47322 10.4021 8.53553 9.46447L4.29289 13.7071C4.10536 13.5196 4 13.2652 4 13H10ZM8.53553 9.46447C7.59785 8.52679 6.32608 8 5 8V14C4.73478 14 4.48043 13.8946 4.29289 13.7071L8.53553 9.46447ZM12 8C10.6739 8 9.40215 8.52679 8.46447 9.46447L12.7071 13.7071C12.5196 13.8946 12.2652 14 12 14V8ZM8.46447 9.46447C7.52679 10.4021 7 11.6739 7 13H13C13 13.2652 12.8946 13.5196 12.7071 13.7071L8.46447 9.46447ZM7 13C7 14.3261 7.52679 15.5979 8.46447 16.5355L12.7071 12.2929C12.8946 12.4804 13 12.7348 13 13H7ZM8.46447 16.5355C9.40215 17.4732 10.6739 18 12 18V12C12.2652 12 12.5196 12.1054 12.7071 12.2929L8.46447 16.5355ZM12 18C13.3261 18 14.5979 17.4732 15.5355 16.5355L11.2929 12.2929C11.4804 12.1054 11.7348 12 12 12V18ZM15.5355 16.5355C16.4732 15.5979 17 14.3261 17 13H11C11 12.7348 11.1054 12.4804 11.2929 12.2929L15.5355 16.5355ZM17 13C17 11.6739 16.4732 10.4021 15.5355 9.46447L11.2929 13.7071C11.1054 13.5196 11 13.2652 11 13H17ZM15.5355 9.46447C14.5979 8.52679 13.3261 8 12 8V14C11.7348 14 11.4804 13.8946 11.2929 13.7071L15.5355 9.46447ZM5 15C4.46956 15 3.96086 14.7893 3.58579 14.4142L7.82843 10.1716C7.07828 9.42143 6.06087 9 5 9V15ZM3.58579 14.4142C3.21072 14.0391 3 13.5304 3 13H9C9 11.9391 8.57857 10.9217 7.82843 10.1716L3.58579 14.4142ZM3 13C3 12.4696 3.21072 11.9609 3.58579 11.5858L7.82843 15.8284C8.57857 15.0783 9 14.0609 9 13H3ZM3.58579 11.5858C3.96086 11.2107 4.46956 11 5 11V17C6.06087 17 7.07828 16.5786 7.82843 15.8284L3.58579 11.5858ZM5 11C5.53044 11 6.03914 11.2107 6.41421 11.5858L2.17157 15.8284C2.92172 16.5786 3.93913 17 5 17V11ZM6.41421 11.5858C6.78929 11.9609 7 12.4696 7 13H1C1 14.0609 1.42143 15.0783 2.17157 15.8284L6.41421 11.5858ZM7 13C7 13.5304 6.78929 14.0391 6.41421 14.4142L2.17157 10.1716C1.42143 10.9217 1 11.9391 1 13H7ZM6.41421 14.4142C6.03914 14.7893 5.53044 15 5 15V9C3.93913 9 2.92172 9.42143 2.17157 10.1716L6.41421 14.4142ZM12 15C11.4696 15 10.9609 14.7893 10.5858 14.4142L14.8284 10.1716C14.0783 9.42143 13.0609 9 12 9V15ZM10.5858 14.4142C10.2107 14.0391 10 13.5304 10 13H16C16 11.9391 15.5786 10.9217 14.8284 10.1716L10.5858 14.4142ZM10 13C10 12.4696 10.2107 11.9609 10.5858 11.5858L14.8284 15.8284C15.5786 15.0783 16 14.0609 16 13H10ZM10.5858 11.5858C10.9609 11.2107 11.4696 11 12 11V17C13.0609 17 14.0783 16.5786 14.8284 15.8284L10.5858 11.5858ZM12 11C12.5304 11 13.0391 11.2107 13.4142 11.5858L9.17157 15.8284C9.92172 16.5786 10.9391 17 12 17V11ZM13.4142 11.5858C13.7893 11.9609 14 12.4696 14 13H8C8 14.0609 8.42143 15.0783 9.17157 15.8284L13.4142 11.5858ZM14 13C14 13.5304 13.7893 14.0391 13.4142 14.4142L9.17157 10.1716C8.42143 10.9217 8 11.9391 8 13H14ZM13.4142 14.4142C13.0391 14.7893 12.5304 15 12 15V9C10.9391 9 9.92172 9.42143 9.17157 10.1716L13.4142 14.4142Z" fill="#F24240" mask="url(#path-1-inside-1_1773_22889)"/>
</svg>
