<svg width="20" height="20" viewBox="0 0 20 20" fill="none" xmlns="http://www.w3.org/2000/svg">
<path d="M19.8175 16.0675L13.75 10L19.8175 3.93253C19.9337 3.81485 19.9989 3.65609 19.9989 3.49066C19.9989 3.32523 19.9337 3.16647 19.8175 3.04878L16.9512 0.182534C16.8933 0.124368 16.8244 0.0782163 16.7486 0.0467252C16.6728 0.015234 16.5915 -0.000976563 16.5093 -0.000976562C16.4272 -0.000976562 16.3459 0.015234 16.2701 0.0467252C16.1943 0.0782163 16.1254 0.124368 16.0675 0.182534L9.99997 6.25003L3.93247 0.182534C3.81527 0.0653648 3.65633 -0.000457289 3.4906 -0.000457289C3.32487 -0.000457289 3.16593 0.0653648 3.04872 0.182534L0.182473 3.04878C0.124307 3.10673 0.0781553 3.1756 0.0466641 3.25143C0.0151729 3.32725 -0.0010376 3.40855 -0.0010376 3.49066C-0.0010376 3.57277 0.0151729 3.65406 0.0466641 3.72989C0.0781553 3.80572 0.124307 3.87458 0.182473 3.93253L6.24997 10L0.182473 16.0675C0.0653038 16.1847 -0.000518324 16.3437 -0.000518324 16.5094C-0.000518324 16.6751 0.0653038 16.8341 0.182473 16.9513L3.04872 19.8175C3.10667 19.8757 3.17554 19.9219 3.25137 19.9533C3.32719 19.9848 3.40849 20.001 3.4906 20.001C3.5727 20.001 3.654 19.9848 3.72983 19.9533C3.80566 19.9219 3.87452 19.8757 3.93247 19.8175L9.99997 13.75L16.0675 19.8175C16.1847 19.9347 16.3436 20.0005 16.5093 20.0005C16.6751 20.0005 16.834 19.9347 16.9512 19.8175L19.8175 16.9513C19.8756 16.8933 19.9218 16.8245 19.9533 16.7486C19.9848 16.6728 20.001 16.5915 20.001 16.5094C20.001 16.4273 19.9848 16.346 19.9533 16.2702C19.9218 16.1943 19.8756 16.1255 19.8175 16.0675V16.0675Z" fill="#D68D00"/>
</svg>
