<svg width="47" height="37" viewBox="0 0 47 37" fill="none" xmlns="http://www.w3.org/2000/svg">
<path d="M37.3462 16.5769H6.19238V5.32692C6.19581 4.1804 6.65278 3.08182 7.46349 2.27111C8.27421 1.46039 9.37279 1.00342 10.5193 1H36.4808C37.6274 1.00342 38.7259 1.46039 39.5367 2.27111C40.3474 3.08182 40.8043 4.1804 40.8078 5.32692V16.5769H37.3462Z" fill="white" stroke="#DE3151" stroke-width="2" stroke-linecap="round" stroke-linejoin="round"/>
<path d="M1 35.6154V23.5C1.00542 21.6655 1.73656 19.9078 3.03371 18.6106C4.33087 17.3135 6.08863 16.5823 7.92308 16.5769H39.0769C40.9114 16.5823 42.6691 17.3135 43.9663 18.6106C45.2634 19.9078 45.9946 21.6655 46 23.5V35.6154" fill="white"/>
<path d="M1 35.6154V23.5C1.00542 21.6655 1.73656 19.9078 3.03371 18.6106C4.33087 17.3135 6.08863 16.5823 7.92308 16.5769H39.0769C40.9114 16.5823 42.6691 17.3135 43.9663 18.6106C45.2634 19.9078 45.9946 21.6655 46 23.5V35.6154" stroke="#DE3151" stroke-width="2" stroke-linecap="round" stroke-linejoin="round"/>
<path d="M1 35.6153V34.75C1.002 34.062 1.27616 33.4029 1.7626 32.9164C2.24904 32.43 2.90823 32.1558 3.59615 32.1538H43.4038C44.0918 32.1558 44.751 32.43 45.2374 32.9164C45.7238 33.4029 45.998 34.062 46 34.75V35.6153" fill="white"/>
<path d="M1 35.6153V34.75C1.002 34.062 1.27616 33.4029 1.7626 32.9164C2.24904 32.43 2.90823 32.1558 3.59615 32.1538H43.4038C44.0918 32.1558 44.751 32.43 45.2374 32.9164C45.7238 33.4029 45.998 34.062 46 34.75V35.6153" stroke="#DE3151" stroke-width="2" stroke-linecap="round" stroke-linejoin="round"/>
<path d="M7.92334 16.5769V14.8461C7.92591 13.9289 8.29143 13.0499 8.94004 12.4013C9.58865 11.7527 10.4676 11.3872 11.3849 11.3846H20.0387C20.956 11.3872 21.835 11.7527 22.4836 12.4013C23.1322 13.0499 23.4977 13.9289 23.5003 14.8461V16.5769H7.92334ZM23.5003 16.5769V14.8461C23.5028 13.9289 23.8684 13.0499 24.517 12.4013C25.1656 11.7527 26.0445 11.3872 26.9618 11.3846H35.6156C36.5329 11.3872 37.4119 11.7527 38.0605 12.4013C38.7091 13.0499 39.0746 13.9289 39.0772 14.8461V16.5769" fill="white"/>
<path d="M23.5003 16.5769V14.8461C23.5028 13.9289 23.8684 13.0499 24.517 12.4013C25.1656 11.7527 26.0445 11.3872 26.9618 11.3846H35.6156C36.5329 11.3872 37.4119 11.7527 38.0605 12.4013C38.7091 13.0499 39.0746 13.9289 39.0772 14.8461V16.5769M7.92334 16.5769V14.8461C7.92591 13.9289 8.29143 13.0499 8.94004 12.4013C9.58865 11.7527 10.4676 11.3872 11.3849 11.3846H20.0387C20.956 11.3872 21.835 11.7527 22.4836 12.4013C23.1322 13.0499 23.4977 13.9289 23.5003 14.8461V16.5769H7.92334Z" stroke="#DE3151" stroke-width="2" stroke-linecap="round" stroke-linejoin="round"/>
</svg>
