<svg width="12" height="13" viewBox="0 0 12 13" fill="none" xmlns="http://www.w3.org/2000/svg">
<path d="M11.5292 10.609C11.2282 9.8793 10.7914 9.21645 10.2431 8.65741C9.69641 8.09676 9.04886 7.64976 8.33615 7.34108C8.32977 7.33781 8.32339 7.33618 8.31701 7.33291C9.31115 6.59799 9.95742 5.40088 9.95742 4.05025C9.95742 1.81281 8.18616 0 6 0C3.81384 0 2.04258 1.81281 2.04258 4.05025C2.04258 5.40088 2.68885 6.59799 3.68299 7.33455C3.67661 7.33781 3.67023 7.33945 3.66385 7.34271C2.94896 7.65138 2.30747 8.09397 1.75694 8.65905C1.20914 9.21851 0.772382 9.88126 0.470781 10.6107C0.174489 11.3248 0.0146918 12.0904 3.99029e-05 12.8661C-0.000386007 12.8835 0.00260125 12.9009 0.00882574 12.9171C0.0150502 12.9333 0.024386 12.9481 0.0362829 12.9606C0.0481797 12.9731 0.0623971 12.983 0.0780971 12.9898C0.0937971 12.9965 0.110662 13 0.127699 13H1.08514C1.15535 13 1.2112 12.9428 1.2128 12.8726C1.24471 11.6118 1.73939 10.431 2.61385 9.53606C3.51863 8.61005 4.72022 8.1005 6 8.1005C7.27978 8.1005 8.48137 8.61005 9.38615 9.53606C10.2606 10.431 10.7553 11.6118 10.7872 12.8726C10.7888 12.9445 10.8446 13 10.9149 13H11.8723C11.8893 13 11.9062 12.9965 11.9219 12.9898C11.9376 12.983 11.9518 12.9731 11.9637 12.9606C11.9756 12.9481 11.9849 12.9333 11.9912 12.9171C11.9974 12.9009 12.0004 12.8835 12 12.8661C11.984 12.0854 11.826 11.326 11.5292 10.609ZM6 6.8593C5.26756 6.8593 4.5782 6.56696 4.05959 6.03618C3.54097 5.5054 3.25534 4.79987 3.25534 4.05025C3.25534 3.30063 3.54097 2.5951 4.05959 2.06432C4.5782 1.53354 5.26756 1.24121 6 1.24121C6.73244 1.24121 7.4218 1.53354 7.94041 2.06432C8.45903 2.5951 8.74466 3.30063 8.74466 4.05025C8.74466 4.79987 8.45903 5.5054 7.94041 6.03618C7.4218 6.56696 6.73244 6.8593 6 6.8593Z" fill="#251F39"/>
</svg>
