<svg width="18" height="14" viewBox="0 0 18 14" fill="none" xmlns="http://www.w3.org/2000/svg">
<path d="M0 8.41039V13.1139H13.4834V8.41039H0ZM12.2291 11.8596H1.25427V9.66466H12.2291V11.8596Z" fill="#454555"/>
<path d="M14.4241 8.41039H15.6784V13.1139H14.4241V8.41039Z" fill="#454555"/>
<path d="M16.6191 8.41039H17.8734V13.1139H16.6191V8.41039Z" fill="#454555"/>
<path d="M14.4801 5.79602C14.3297 5.56917 14.2573 5.29955 14.2737 5.02789C14.2901 4.75624 14.3944 4.4973 14.571 4.29019C14.936 3.86569 15.1478 3.3309 15.1726 2.77161C15.1973 2.21231 15.0335 1.66092 14.7074 1.20586L14.4781 0.884766H13.0444L12.9731 0.93572L13.6867 1.93483C13.8494 2.16189 13.9312 2.43703 13.9188 2.71611C13.9065 2.99519 13.8008 3.26204 13.6187 3.47386C13.2648 3.88893 13.0557 4.40787 13.0228 4.95229C12.99 5.49671 13.1351 6.03704 13.4364 6.49167L13.6704 6.84255H15.1778L14.4801 5.79602Z" fill="#454555"/>
<path d="M17.3022 5.79602C17.1519 5.56917 17.0794 5.29955 17.0958 5.02789C17.1122 4.75624 17.2166 4.4973 17.3932 4.29019C17.7582 3.86569 17.97 3.3309 17.9947 2.77161C18.0195 2.21231 17.8556 1.66092 17.5295 1.20586L17.3002 0.884766H15.8666L15.7952 0.93572L16.5089 1.93483C16.6716 2.16189 16.7533 2.43703 16.741 2.71611C16.7287 2.99519 16.623 3.26204 16.4408 3.47386C16.087 3.88893 15.8779 4.40787 15.845 4.95229C15.8121 5.49671 15.9573 6.03704 16.2586 6.49167L16.4925 6.84255H18L17.3022 5.79602Z" fill="#454555"/>
</svg>
