<svg width="30" height="30" viewBox="0 0 30 30" fill="none" xmlns="http://www.w3.org/2000/svg">
<circle cx="15" cy="15" r="15" fill="#3EB778"/>
<path d="M19.9999 14.668H10.6666C9.93021 14.668 9.33325 15.2649 9.33325 16.0013V20.668C9.33325 21.4043 9.93021 22.0013 10.6666 22.0013H19.9999C20.7363 22.0013 21.3333 21.4043 21.3333 20.668V16.0013C21.3333 15.2649 20.7363 14.668 19.9999 14.668Z" stroke="white" stroke-width="1.33333" stroke-linecap="round" stroke-linejoin="round"/>
<path d="M12.0002 14.668V12.0013C12.0002 11.1172 12.3514 10.2694 12.9766 9.64428C13.6017 9.01916 14.4495 8.66797 15.3336 8.66797C16.2176 8.66797 17.0655 9.01916 17.6906 9.64428C18.3157 10.2694 18.6669 11.1172 18.6669 12.0013V14.668" stroke="white" stroke-width="1.33333" stroke-linecap="round" stroke-linejoin="round"/>
</svg>
