<svg width="19" height="15" viewBox="0 0 15 11" fill="none" xmlns="http://www.w3.org/2000/svg">
<path d="M4.61111 6.77778V9.66667M10.3889 1V1.36111C10.3889 1.7442 10.5411 2.1116 10.812 2.38249C11.0828 2.65337 11.4502 2.80556 11.8333 2.80556C12.2164 2.80556 12.5838 2.95774 12.8547 3.22862C13.1256 3.49951 13.2778 3.86691 13.2778 4.25V4.61111M1.72222 6.77778H13.2778C13.6767 6.77778 14 7.10113 14 7.5V8.94444C14 9.34332 13.6767 9.66667 13.2778 9.66667H1.72222C1.32335 9.66667 1 9.34332 1 8.94444V7.5C1 7.10113 1.32335 6.77778 1.72222 6.77778Z" stroke="#251F39" stroke-opacity="0.7" stroke-width="0.8" stroke-linecap="round" stroke-linejoin="round"/>
</svg>
