<svg width="16" height="16" viewBox="0 0 16 16" fill="none" xmlns="http://www.w3.org/2000/svg">
<path d="M10.6109 0.554687L5.38476 0.554687L5.38476 3.94975L1.02963 8.19357L7.99783 8.19358L14.966 8.19358L10.6109 3.94975L10.6109 0.554687ZM7.99783 12.013C9.53519 12.013 10.8635 11.1473 11.5037 9.89111L4.4876 9.89111C5.13216 11.1473 6.46047 12.013 7.99783 12.013ZM15.6367 9.89111L13.8381 9.89111C13.089 12.344 10.759 14.1349 7.99783 14.1349C5.23668 14.1349 2.90669 12.344 2.15761 9.89111L0.358943 9.8911C1.15158 13.2904 4.26549 15.8325 7.99783 15.8325C11.7302 15.8325 14.8441 13.2904 15.6367 9.89111Z" fill="white"/>
</svg>
