<svg width="16" height="23" viewBox="0 0 16 23" fill="none" xmlns="http://www.w3.org/2000/svg">
<path d="M15.6367 11.2284C15.6367 5.1001 11.3032 0.117187 5.97352 0.117187C3.8831 0.117187 1.94124 0.888148 0.358943 2.18974L1.10439 3.27482C2.47945 2.16258 4.16162 1.50602 5.97379 1.50602C10.6506 1.50602 14.4291 5.85066 14.4291 11.2283C14.4291 16.6059 10.6506 20.9506 5.97379 20.9506C4.16145 20.9506 2.47924 20.2939 1.10439 19.182L0.358942 20.2671C1.94151 21.5684 3.88358 22.3394 5.97352 22.3394C11.3032 22.3394 15.6367 17.3566 15.6367 11.2282L15.6367 11.2284ZM9.20088 17.3699L4.92594 10.0026C4.33633 9.32439 3.38301 9.32439 2.79318 10.0026C2.20358 10.6805 2.20358 11.777 2.79318 12.4549L9.20045 17.3702L9.20088 17.3699Z" fill="white"/>
</svg>
