<svg  viewBox="0 0 16 17" fill="none" xmlns="http://www.w3.org/2000/svg">
<path d="M15.6367 15.2639L15.6367 1.51389C15.6367 1.09241 15.2943 0.75 14.8728 0.75L4.94228 0.75C4.5208 0.75 4.17839 1.09241 4.17839 1.51389L4.17839 9.15278L0.358942 13.7361L4.17839 12.9722L4.17839 15.2639C4.17839 15.6854 4.5208 16.0278 4.94228 16.0278L14.8728 16.0278C15.2943 16.0278 15.6367 15.6854 15.6367 15.2639ZM8.76172 3.04167L8.76172 7.625L7.99783 7.625L7.99783 3.04167L8.76172 3.04167ZM6.47005 6.09722L6.47005 3.04167L7.23394 3.04167L7.23394 6.09722L6.47005 6.09722ZM6.47005 9.91666L6.47005 6.86111L7.23394 6.86111L7.23394 9.91666L6.47005 9.91666ZM7.99783 9.91666L7.99783 8.38889L8.76172 8.38889L8.76172 9.91666L7.99783 9.91666ZM6.47005 13.7361L6.47005 10.6806L7.23394 10.6806L7.23394 13.7361L6.47005 13.7361ZM7.99783 13.7361L7.99783 12.2083L8.76172 12.2083L8.76172 13.7361L7.99783 13.7361Z" fill="white"/>
</svg>
