<svg width="24" height="24" viewBox="0 0 24 24" fill="none" xmlns="http://www.w3.org/2000/svg">
<circle cx="12" cy="12" r="12" fill="white"/>
<path d="M13 12C13 12.5531 12.5531 13 12 13C11.4469 13 11 12.5531 11 12V5C11 4.44781 11.4469 4 12 4C12.5531 4 13 4.44781 13 5V12ZM6.5 12C6.5 15.0375 8.9625 17.5 12 17.5C15.0375 17.5 17.5 15.0375 17.5 12C17.5 10.3 16.7281 8.77812 15.5156 7.76875C15.0906 7.41562 15.0312 6.78531 15.3844 6.36063C15.7375 5.93594 16.3687 5.87813 16.7937 6.23125C18.4437 7.60625 19.5 9.68125 19.5 11.9719C19.5 16.1406 16.1406 19.5 12 19.5C7.85938 19.5 4.5 16.1406 4.5 11.9719C4.5 9.68125 5.55469 7.60625 7.20625 6.23125C7.63125 5.87813 8.2625 5.93594 8.61562 6.36063C8.94062 6.78531 8.90938 7.41562 8.48438 7.76875C7.27187 8.77812 6.5 10.3 6.5 12Z" fill="black"/>
</svg>
