<svg xmlns="http://www.w3.org/2000/svg" width="80" height="80"><path fill-rule="evenodd" d="M40 0A40 40 0 0 0 0 40a40 40 0 0 0 40 40 40 40 0 0 0 40-40A40 40 0 0 0 40 0zM22.8 21c1.3 0 2.402.8 2.802 2H20c.4-1.2 1.5-2 2.8-2zm4 0h24c1.7 0 3 1.3 3 3v31h-19c-.6 0-1 .4-1 1 0 1.7-1.3 3-3 3s-3-1.3-3-3V24c0-1.1-.4-2.2-1-3zm9 2c-.6 0-1 .4-1 1s.4 1 1 1h9c.6 0 1-.4 1-1s-.4-1-1-1h-9zm-5 4c-.6 0-1 .4-1 1s.4 1 1 1h20c.6 0 1-.4 1-1s-.4-1-1-1h-20zm0 4c-.6 0-1 .4-1 1s.4 1 1 1h20c.6 0 1-.4 1-1s-.4-1-1-1h-20zm0 4c-.6 0-1 .4-1 1s.4 1 1 1h20c.6 0 1-.4 1-1s-.4-1-1-1h-20zm0 4c-.6 0-1 .4-1 1s.4 1 1 1h20c.6 0 1-.4 1-1s-.4-1-1-1h-20zm0 4c-.6 0-1 .4-1 1s.4 1 1 1h20c.6 0 1-.4 1-1s-.4-1-1-1h-20zm0 4c-.6 0-1 .4-1 1s.4 1 1 1h20c.6 0 1-.4 1-1s-.4-1-1-1h-20zm0 4c-.6 0-1 .4-1 1s.4 1 1 1h4c.6 0 1-.4 1-1s-.4-1-1-1h-4zm4.901 6h21.9c-.4 1.2-1.5 2-2.8 2h-20c.4-.6.7-1.3.9-2z"/></svg>