<svg  viewBox="0 0 74 63" fill="none" xmlns="http://www.w3.org/2000/svg">
<path d="M36.5 16.3086C23.817 16.3086 13.5 26.6256 13.5 39.3086C13.5 51.9916 23.817 62.3086 36.5 62.3086C49.183 62.3086 59.5 51.9916 59.5 39.3086C59.5 34.7486 58.1603 30.4979 55.8633 26.9199L54.4941 28.5371C56.3891 31.6911 57.5 35.3686 57.5 39.3086C57.5 50.8876 48.079 60.3086 36.5 60.3086C24.921 60.3086 15.5 50.8876 15.5 39.3086C15.5 27.7296 24.921 18.3086 36.5 18.3086C41.943 18.3086 46.8939 20.4084 50.6289 23.8184L51.9375 22.2734C47.8525 18.5684 42.435 16.3086 36.5 16.3086ZM54.7363 22.0625L35.4141 44.8633L27.2812 37.2773L25.918 38.7402L35.584 47.7559L56.2637 23.3555L54.7363 22.0625Z" fill="#20A4CE"/>
<path d="M59.9565 8.60995C58.9085 9.16094 56.3193 9.40583 56.3193 9.40583V10.3854C56.3193 10.3854 58.9085 10.6303 59.9565 11.1812C60.9429 11.7322 61.8059 12.4669 62.4224 13.4464C63.1005 14.426 63.532 15.528 63.8403 16.8136C64.1485 18.0992 64.2718 19.2074 64.2718 19.2074H65.1349C65.1349 19.2074 65.4391 17.4498 65.5664 16.8136C65.8746 15.528 66.3678 14.426 66.9843 13.4464C67.6007 12.4669 68.4022 11.7322 69.4502 11.1812C70.4982 10.6303 73.0873 10.3854 73.0873 10.3854V9.40583C73.0873 9.40583 70.4982 9.16094 69.4502 8.60995C68.4638 8.05896 67.6007 7.3243 66.9843 6.34476C66.3061 5.36523 65.8746 4.26325 65.5664 2.9776C65.425 2.21979 65.1349 0.289062 65.1349 0.289062H64.2718C64.2718 0.289062 63.9853 2.48797 63.8403 2.9776C63.532 4.26325 63.0389 5.36523 62.4224 6.34476C61.8059 7.3243 61.0045 8.05896 59.9565 8.60995Z" fill="#0096C7"/>
<path d="M2.98599 22.5811C2.36423 22.908 0.828125 23.0533 0.828125 23.0533V23.6345C0.828125 23.6345 2.36423 23.7797 2.98599 24.1066C3.57117 24.4335 4.0832 24.8694 4.44894 25.4505C4.85125 26.0317 5.10727 26.6854 5.29014 27.4482C5.47301 28.2109 5.54616 28.8684 5.54616 28.8684H6.05819C6.05819 28.8684 6.23868 27.8256 6.31421 27.4482C6.49708 26.6854 6.78967 26.0317 7.1554 25.4505C7.52114 24.8694 7.99661 24.4335 8.61836 24.1066C9.24012 23.7797 10.7762 23.6345 10.7762 23.6345V23.0533C10.7762 23.0533 9.24012 22.908 8.61836 22.5811C8.03318 22.2542 7.52114 21.8184 7.1554 21.2373C6.75309 20.6561 6.49708 20.0023 6.31421 19.2396C6.23031 18.79 6.05819 17.6445 6.05819 17.6445H5.54616C5.54616 17.6445 5.37615 18.9491 5.29014 19.2396C5.10727 20.0023 4.81468 20.6561 4.44894 21.2373C4.0832 21.8184 3.60774 22.2542 2.98599 22.5811Z" fill="#0096C7"/>
</svg>
