<svg width="20" height="20" viewBox="0 0 13 11" fill="none" xmlns="http://www.w3.org/2000/svg">
<path d="M4.00092 6C4.4444 5.99989 4.87534 6.14718 5.22597 6.41871C5.57661 6.69024 5.82705 7.0706 5.93792 7.5H11.5009C11.6259 7.49977 11.7464 7.54633 11.8387 7.63051C11.931 7.71469 11.9885 7.83039 11.9998 7.95482C12.0111 8.07926 11.9754 8.20341 11.8997 8.30283C11.824 8.40225 11.7139 8.46974 11.5909 8.492L11.5009 8.5L5.93792 8.501C5.82742 8.93076 5.57714 9.31157 5.22647 9.58349C4.8758 9.8554 4.44466 10.003 4.00092 10.003C3.55718 10.003 3.12604 9.8554 2.77537 9.58349C2.4247 9.31157 2.17442 8.93076 2.06392 8.501L0.500922 8.5C0.375976 8.50023 0.255471 8.45367 0.163139 8.36949C0.0708056 8.28531 0.0133357 8.16961 0.00204623 8.04518C-0.00924324 7.92074 0.0264658 7.79659 0.102141 7.69717C0.177817 7.59775 0.287974 7.53026 0.410922 7.508L0.500922 7.5H2.06392C2.17479 7.0706 2.42523 6.69024 2.77587 6.41871C3.1265 6.14718 3.55744 5.99989 4.00092 6ZM8.00092 6.46415e-08C8.4444 -0.000112648 8.87534 0.147176 9.22597 0.418706C9.57661 0.690235 9.82705 1.0706 9.93792 1.5H11.5009C11.6259 1.49977 11.7464 1.54633 11.8387 1.63051C11.931 1.71469 11.9885 1.83039 11.9998 1.95482C12.0111 2.07926 11.9754 2.20341 11.8997 2.30283C11.824 2.40225 11.7139 2.46974 11.5909 2.492L11.5009 2.5L9.93792 2.501C9.82742 2.93076 9.57714 3.31157 9.22647 3.58349C8.8758 3.8554 8.44466 4.00297 8.00092 4.00297C7.55718 4.00297 7.12604 3.8554 6.77537 3.58349C6.4247 3.31157 6.17442 2.93076 6.06392 2.501L0.500922 2.5C0.375976 2.50023 0.255471 2.45367 0.163139 2.36949C0.0708056 2.28531 0.0133357 2.16961 0.00204623 2.04518C-0.00924324 1.92074 0.0264658 1.79659 0.102141 1.69717C0.177817 1.59775 0.287974 1.53026 0.410922 1.508L0.500922 1.5H6.06392C6.17479 1.0706 6.42523 0.690235 6.77587 0.418706C7.1265 0.147176 7.55744 -0.000112648 8.00092 6.46415e-08Z" fill="#FF385C"/>
</svg>
