<svg width="22" height="22" viewBox="0 0 22 22" fill="none" xmlns="http://www.w3.org/2000/svg">
<path d="M11.3972 21.9997C17.1465 21.9997 21.8071 17.2452 21.8071 11.3802C21.8071 5.51524 17.1465 0.760742 11.3972 0.760742C5.64798 0.760742 0.987305 5.51524 0.987305 11.3802C0.987305 17.2452 5.64798 21.9997 11.3972 21.9997Z" fill="#F9F9F9"/>
<path d="M9.88086 6.44028C9.88086 5.55532 10.5315 4.8916 11.399 4.8916C12.1942 4.8916 12.9171 5.55532 12.9171 6.44028V16.4698C12.9171 17.3548 12.2665 18.0185 11.399 18.0185C10.5315 18.0185 9.88086 17.3548 9.88086 16.4698V6.44028Z" fill="#00B594"/>
<path d="M10.3146 7.47271C9.73628 6.88274 9.73628 5.92405 10.3146 5.33408C10.8929 4.74411 11.8327 4.74411 12.411 5.33408L15.881 8.87389C16.4593 9.46386 16.4593 10.4226 15.881 11.0125C15.3027 11.6025 14.3629 11.6025 13.7846 11.0125L10.3146 7.47271Z" fill="#00B594"/>
<path d="M10.3139 5.33408C10.8922 4.74411 11.832 4.74411 12.4103 5.33408C12.9886 5.92405 12.9886 6.88275 12.4103 7.47272L9.01262 11.0125C8.43429 11.6025 7.4945 11.6025 6.91617 11.0125C6.33784 10.4226 6.33784 9.46388 6.91617 8.8739L10.3139 5.33408Z" fill="#00B594"/>
</svg>
