<svg width="23" height="20" viewBox="0 0 23 20" fill="none" xmlns="http://www.w3.org/2000/svg">
<path d="M11.7369 1.04793L13.5908 6.54227C13.8308 7.25375 14.498 7.73278 15.2489 7.73278H21.1655C21.41 7.73278 21.5092 8.04748 21.3089 8.18762L16.5879 11.4905C15.9513 11.9359 15.6846 12.7477 15.933 13.4839L17.7514 18.8731C17.8286 19.1018 17.569 19.2963 17.3712 19.1579L12.5032 15.7521C11.9008 15.3306 11.0992 15.3306 10.4968 15.7521L5.62879 19.1579C5.43104 19.2963 5.17144 19.1018 5.2486 18.8731L7.06701 13.4839C7.31541 12.7477 7.04868 11.9359 6.41206 11.4905L1.69115 8.18762C1.49084 8.04748 1.59 7.73278 1.83446 7.73278H7.75109C8.50198 7.73278 9.16917 7.25375 9.40924 6.54227L11.2631 1.04793C11.3396 0.821166 11.6604 0.821163 11.7369 1.04793Z" stroke="white" stroke-width="1.5"/>
</svg>
