<svg width="25" height="25" viewBox="0 0 25 25" fill="none" xmlns="http://www.w3.org/2000/svg">
<path d="M12.5 0C9.18479 0 6.00537 1.31696 3.66117 3.66117C1.31696 6.00537 0 9.18479 0 12.5C0 15.8152 1.31696 18.9946 3.66117 21.3388C6.00537 23.683 9.18479 25 12.5 25C15.8152 25 18.9946 23.683 21.3388 21.3388C23.683 18.9946 25 15.8152 25 12.5C25 9.18479 23.683 6.00537 21.3388 3.66117C18.9946 1.31696 15.8152 0 12.5 0ZM16.5625 7.1875C17.9375 7.1875 19.0625 8.3125 19.0625 9.6875C19.0625 10.625 18.5625 11.4062 17.8125 11.8438V16.25C17.8125 17.125 17.125 17.8125 16.25 17.8125H7.5C6.625 17.8125 5.9375 17.125 5.9375 16.25V10.625C5.9375 9.75 6.625 9.0625 7.5 9.0625H14.1562C14.4375 8 15.4062 7.1875 16.5625 7.1875ZM16.5625 7.8125C15.5312 7.8125 14.6875 8.65625 14.6875 9.6875C14.6875 10.7188 15.5312 11.5625 16.5625 11.5625C17.5938 11.5625 18.4375 10.7188 18.4375 9.6875C18.4375 8.65625 17.5938 7.8125 16.5625 7.8125ZM16.5741 8.44531C16.6132 8.44436 16.652 8.45238 16.6875 8.46875C16.7188 8.46875 16.75 8.5 16.7812 8.53125L17.4062 9.15625C17.5312 9.28125 17.5312 9.46875 17.4062 9.59375C17.3438 9.65625 17.25 9.6875 17.1875 9.6875C17.125 9.6875 17.0312 9.65625 16.9688 9.59375L16.875 9.5V10.5938C16.875 10.7812 16.75 10.9062 16.5625 10.9062C16.375 10.9062 16.25 10.7812 16.25 10.5938V9.5L16.1562 9.59375C16.0312 9.71875 15.8438 9.71875 15.7188 9.59375C15.5938 9.46875 15.5938 9.28125 15.7188 9.15625L16.3438 8.53125C16.375 8.5 16.4062 8.5 16.4375 8.46875C16.4844 8.45312 16.5312 8.44531 16.5741 8.44531ZM7.5 9.6875C6.96875 9.6875 6.5625 10.0938 6.5625 10.625V16.25C6.5625 16.7812 6.96875 17.1875 7.5 17.1875H16.25C16.7812 17.1875 17.1875 16.7812 17.1875 16.25V15.9375H14.6562C13.8125 15.9375 13.125 15.25 13.125 14.375C13.125 13.5 13.8125 12.8125 14.6562 12.8125H17.1875V12.0938C17 12.1562 16.7812 12.1875 16.5625 12.1875C15.1875 12.1875 14.0625 11.0625 14.0625 9.6875H7.5ZM14.6562 13.4375C14.1562 13.4375 13.75 13.8438 13.75 14.375C13.75 14.9062 14.1562 15.3125 14.6562 15.3125H17.1875V13.4375H14.6562ZM14.6875 14.0625C14.7704 14.0625 14.8499 14.0954 14.9085 14.154C14.9671 14.2126 15 14.2921 15 14.375C15 14.4579 14.9671 14.5374 14.9085 14.596C14.8499 14.6546 14.7704 14.6875 14.6875 14.6875C14.6046 14.6875 14.5251 14.6546 14.4665 14.596C14.4079 14.5374 14.375 14.4579 14.375 14.375C14.375 14.2921 14.4079 14.2126 14.4665 14.154C14.5251 14.0954 14.6046 14.0625 14.6875 14.0625Z" fill="#093731"/>
</svg>
