<svg width="30" height="30" viewBox="0 0 30 30" fill="none" xmlns="http://www.w3.org/2000/svg">
<g clip-path="url(#clip0_2818_25078)">
<path d="M30 15C30 6.71573 23.2843 0 15 0C6.71573 0 0 6.71573 0 15C0 23.2843 6.71573 30 15 30C23.2843 30 30 23.2843 30 15Z" fill="#0DC143"/>
<path d="M21.7186 8.25719C20.1104 6.60175 17.8875 5.70312 15.6172 5.70312C10.7929 5.70312 6.9145 9.62881 6.96181 14.4058C6.96181 15.9193 7.3875 17.3856 8.09694 18.7099L6.86719 23.2031L11.4551 22.0207C12.7321 22.7301 14.151 23.0612 15.5699 23.0612C20.3469 23.0612 24.2253 19.1356 24.2253 14.3585C24.2253 12.0409 23.3267 9.86531 21.7186 8.25719ZM15.6172 21.595C14.3402 21.595 13.0631 21.2639 11.9753 20.6017L11.6915 20.4599L8.94831 21.1693L9.65775 18.4734L9.46856 18.1896C7.3875 14.8315 8.38069 10.3856 11.7861 8.3045C15.1915 6.22339 19.5902 7.21663 21.6713 10.6221C23.7523 14.0274 22.7591 18.4261 19.3537 20.5072C18.2659 21.2166 16.9415 21.595 15.6172 21.595ZM19.7794 16.345L19.2591 16.1085C19.2591 16.1085 18.5023 15.7774 18.0294 15.5409C17.9821 15.5409 17.9348 15.4937 17.8875 15.4937C17.7456 15.4937 17.651 15.5409 17.5564 15.5883C17.5564 15.5883 17.5091 15.6356 16.8469 16.3923C16.7996 16.4869 16.7051 16.5342 16.6104 16.5342H16.5631C16.5159 16.5342 16.4213 16.4869 16.3739 16.4396L16.1375 16.345C15.6172 16.1085 15.1443 15.8247 14.7659 15.4464C14.6713 15.3517 14.5294 15.2572 14.4348 15.1626C14.1037 14.8315 13.7726 14.4531 13.5361 14.0274L13.4888 13.9329C13.4415 13.8856 13.4415 13.8383 13.3943 13.7437C13.3943 13.6491 13.3943 13.5545 13.4415 13.5072C13.4415 13.5072 13.6307 13.2707 13.7726 13.1288C13.8672 13.0342 13.9145 12.8923 14.0091 12.7978C14.1037 12.6558 14.151 12.4666 14.1037 12.3248C14.0564 12.0883 13.4888 10.8113 13.3469 10.5274C13.2523 10.3856 13.1578 10.3383 13.0159 10.2909H12.8739C12.7794 10.2909 12.6375 10.2909 12.4956 10.2909C12.401 10.2909 12.3064 10.3383 12.2118 10.3383L12.1645 10.3856C12.0699 10.4329 11.9753 10.5274 11.8807 10.5747C11.7861 10.6693 11.7388 10.7639 11.6443 10.8585C11.3131 11.2842 11.1239 11.8045 11.1239 12.3248C11.1239 12.7031 11.2186 13.0815 11.3604 13.4126L11.4078 13.5545C11.8334 14.4531 12.401 15.2572 13.1578 15.9666L13.3469 16.1558C13.4888 16.2978 13.6307 16.3923 13.7253 16.5342C14.7186 17.3856 15.8537 18.0004 17.1307 18.3315C17.2726 18.3788 17.4618 18.3788 17.6037 18.4261C17.7456 18.4261 17.9348 18.4261 18.0767 18.4261C18.3131 18.4261 18.5969 18.3315 18.7861 18.2369C18.928 18.1423 19.0226 18.1423 19.1172 18.0478L19.2118 17.9531C19.3064 17.8585 19.401 17.8112 19.4956 17.7166C19.5902 17.6221 19.6848 17.5274 19.7321 17.4329C19.8267 17.2437 19.8739 17.0072 19.9213 16.7707C19.9213 16.6761 19.9213 16.5342 19.9213 16.4396C19.9213 16.4396 19.8739 16.3923 19.7794 16.345Z" fill="white"/>
</g>
<defs>
<clipPath id="clip0_2818_25078">
<rect width="30" height="30" fill="white"/>
</clipPath>
</defs>
</svg>
