<svg width="61" height="60" viewBox="0 0 61 60" fill="none" xmlns="http://www.w3.org/2000/svg">
<g clip-path="url(#clip0_415_4628)">
<path fill-rule="evenodd" clip-rule="evenodd" d="M41.5 46C42.052 46 42.5 45.552 42.5 45V44H43.5C44.052 44 44.5 43.552 44.5 43C44.5 42.448 44.052 42 43.5 42H42.5V41C42.5 40.448 42.052 40 41.5 40C40.948 40 40.5 40.448 40.5 41V42H39.5C38.948 42 38.5 42.448 38.5 43C38.5 43.552 38.948 44 39.5 44H40.5V45C40.5 45.552 40.948 46 41.5 46ZM55.5 7C55.5 7.552 55.948 8 56.5 8C57.052 8 57.5 7.552 57.5 7C58.052 7 58.5 6.552 58.5 6C58.5 5.448 58.052 5 57.5 5C57.5 4.448 57.052 4 56.5 4C55.948 4 55.5 4.448 55.5 5C54.948 5 54.5 5.448 54.5 6C54.5 6.552 54.948 7 55.5 7ZM30.5 12C22.78 12 16.5 18.28 16.5 26C16.5 26.552 16.948 27 17.5 27C18.052 27 18.5 26.552 18.5 26C18.5 19.383 23.883 14 30.5 14C37.117 14 42.5 19.383 42.5 26C42.5 26.552 42.948 27 43.5 27C44.052 27 44.5 26.552 44.5 26C44.5 18.28 38.22 12 30.5 12ZM47.5 27C48.052 27 48.5 26.552 48.5 26C48.5 16.075 40.425 8 30.5 8C20.575 8 12.5 16.075 12.5 26C12.5 26.552 12.948 27 13.5 27C14.052 27 14.5 26.552 14.5 26C14.5 17.178 21.678 10 30.5 10C39.322 10 46.5 17.178 46.5 26C46.5 26.552 46.948 27 47.5 27ZM9.5 27C10.052 27 10.5 26.552 10.5 26C10.5 14.972 19.472 6 30.5 6C41.528 6 50.5 14.972 50.5 26C50.5 26.552 50.948 27 51.5 27C52.052 27 52.5 26.552 52.5 26C52.5 13.869 42.631 4 30.5 4C18.369 4 8.5 13.869 8.5 26C8.5 26.552 8.948 27 9.5 27ZM20.401 37L20.304 36.98C19.908 36.901 19.599 36.592 19.52 36.196L19.5 36.099L19.48 36.196C19.401 36.592 19.092 36.901 18.696 36.98L18.599 37L18.696 37.02C19.092 37.099 19.401 37.408 19.48 37.804L19.5 37.901L19.52 37.804C19.599 37.408 19.908 37.099 20.304 37.02L20.401 37ZM25.696 36.02C26.164 36.113 26.5 36.523 26.5 37C26.5 37.477 26.164 37.887 25.696 37.98L21.35 38.85L20.48 43.196C20.387 43.664 19.977 44 19.5 44C19.023 44 18.613 43.664 18.52 43.196L17.65 38.85L13.304 37.98C12.836 37.887 12.5 37.477 12.5 37C12.5 36.523 12.836 36.113 13.304 36.02L17.65 35.15L18.52 30.804C18.613 30.336 19.023 30 19.5 30C19.977 30 20.387 30.336 20.48 30.804L21.35 35.15L25.696 36.02ZM39.5 3C39.5 3.552 39.948 4 40.5 4C41.052 4 41.5 3.552 41.5 3C42.052 3 42.5 2.552 42.5 2C42.5 1.448 42.052 1 41.5 1C41.5 0.448 41.052 0 40.5 0C39.948 0 39.5 0.448 39.5 1C38.948 1 38.5 1.448 38.5 2C38.5 2.552 38.948 3 39.5 3ZM9.5 4H10.5V5C10.5 5.552 10.948 6 11.5 6C12.052 6 12.5 5.552 12.5 5V4H13.5C14.052 4 14.5 3.552 14.5 3C14.5 2.448 14.052 2 13.5 2H12.5V1C12.5 0.448 12.052 0 11.5 0C10.948 0 10.5 0.448 10.5 1V2H9.5C8.948 2 8.5 2.448 8.5 3C8.5 3.552 8.948 4 9.5 4ZM29.5 17V51C29.5 51.552 29.948 52 30.5 52C31.052 52 31.5 51.552 31.5 51V17C31.5 16.448 31.052 16 30.5 16C29.948 16 29.5 16.448 29.5 17ZM60.5 16V55C60.5 57.757 58.257 60 55.5 60H5.5C2.743 60 0.5 57.757 0.5 55V16C0.5 15.448 0.948 15 1.5 15C2.052 15 2.5 15.448 2.5 16V55C2.5 56.654 3.846 58 5.5 58H29.5V55.649C28.28 55.138 25.156 54 21.5 54C12.758 54 5.843 55.942 5.774 55.961C5.684 55.987 5.592 56 5.5 56C5.285 56 5.073 55.931 4.897 55.798C4.647 55.609 4.5 55.313 4.5 55V11C4.5 10.554 4.796 10.161 5.225 10.039C5.321 10.011 7.619 9.36 11.284 8.797C11.824 8.71 12.339 9.087 12.424 9.633C12.508 10.179 12.133 10.689 11.587 10.773C9.229 11.136 7.436 11.542 6.5 11.773V53.713C8.937 53.136 14.612 52 21.5 52C25.804 52 29.362 53.396 30.539 53.916C31.863 53.431 36.143 52 40.5 52C47.202 52 52.234 53.077 54.5 53.671V11.71C53.656 11.448 51.935 11.009 49.359 10.795C48.809 10.749 48.4 10.266 48.446 9.715C48.492 9.165 48.968 8.751 49.525 8.802C53.678 9.148 55.805 10.043 55.894 10.081C56.262 10.238 56.5 10.6 56.5 11V55C56.5 55.321 56.345 55.623 56.085 55.811C55.824 55.998 55.488 56.05 55.185 55.949C55.125 55.929 49.21 54 40.5 54C36.755 54 32.958 55.189 31.5 55.699V58H55.5C57.154 58 58.5 56.654 58.5 55V16C58.5 15.448 58.948 15 59.5 15C60.052 15 60.5 15.448 60.5 16Z" fill="url(#paint0_linear_415_4628)"/>
</g>
<defs>
<linearGradient id="paint0_linear_415_4628" x1="-5" y1="-8" x2="103" y2="123" gradientUnits="userSpaceOnUse">
<stop stop-color="#1B3DC6"/>
<stop offset="1" stop-color="#71DC69"/>
</linearGradient>
<clipPath id="clip0_415_4628">
<rect width="60" height="60" fill="white" transform="translate(0.5)"/>
</clipPath>
</defs>
</svg>
