<svg width="30" height="30" viewBox="0 0 30 30" fill="none" xmlns="http://www.w3.org/2000/svg">
<g clip-path="url(#clip0_2818_25063)">
<path d="M0.462891 15C0.462891 6.97266 6.97266 0.462891 15 0.462891C23.0273 0.462891 29.5371 6.97266 29.5371 15C29.5371 23.0273 23.0273 29.5371 15 29.5371C6.97266 29.5371 0.462891 23.0273 0.462891 15Z" fill="#D42428"/>
<path d="M25.2773 4.72266C30.9551 10.4004 30.9551 19.6055 25.2773 25.2773C19.5996 30.9551 10.3945 30.9551 4.72266 25.2773L25.2773 4.72266Z" fill="#CC202D"/>
<path d="M29.2441 17.9121L22.0488 10.7168L13.5645 11.6836L8.43164 19.6289L18.0234 29.2207C23.6602 28.0254 28.0957 23.5664 29.2441 17.9121Z" fill="#BA202E"/>
<path fill-rule="evenodd" clip-rule="evenodd" d="M22.6055 12.1934C22.6055 10.9746 21.6211 9.99023 20.4023 9.99023H10.0547C8.83594 9.99023 7.85156 10.9805 7.85156 12.1934V18.1113C7.85156 19.3301 8.83594 20.3203 10.0547 20.3203H20.3965C21.6152 20.3203 22.5996 19.3301 22.5996 18.1113V12.1934H22.6055ZM13.752 17.6484V12.0937L17.9648 14.8711L13.752 17.6484Z" fill="white"/>
</g>
<defs>
<clipPath id="clip0_2818_25063">
<rect width="30" height="30" fill="white"/>
</clipPath>
</defs>
</svg>
