<svg xmlns="http://www.w3.org/2000/svg" viewBox="0 0 24 24" width="24" height="24"><path d="m15.9,7.01h0c-1.1-.07-2.19.19-3.13.75-.46.27-1.08.27-1.53,0-.94-.56-2.02-.82-3.13-.75-2.88.17-5.17,2.71-5.1,5.66.17,7.1,5.68,9.33,7.22,9.33.63,0,1.25-.16,1.76-.47.55.31,1.17.47,1.8.47,1.54,0,7.05-2.24,7.22-9.33.07-2.94-2.22-5.48-5.1-5.66Zm-2.12,12.99c-.29,0-.57-.07-.82-.21-.6-.34-1.32-.34-1.92,0-.25.14-.53.21-.81.21-.05,0-5.08-1.01-5.23-7.38-.04-1.88,1.4-3.5,3.22-3.61.07,0,.14,0,.22,0,.63,0,1.24.17,1.77.48,1.09.64,2.49.64,3.57,0,.6-.35,1.29-.52,1.99-.48,1.82.11,3.27,1.73,3.22,3.61-.15,6.37-5.18,7.38-5.22,7.38Z"/><path d="m16,2c-2.21,0-4,1-4,4,2.21,0,4-1,4-4Z"/></svg>