<svg xmlns="http://www.w3.org/2000/svg" viewBox="0 0 24 24" width="24" height="24"><path d="M5 3A2 2 0 1 0 5 7 2 2 0 1 0 5 3z"/><path d="M12 3A2 2 0 1 0 12 7 2 2 0 1 0 12 3z"/><path d="M19 3A2 2 0 1 0 19 7 2 2 0 1 0 19 3z"/><path d="M5 10A2 2 0 1 0 5 14 2 2 0 1 0 5 10z"/><path d="M12 10A2 2 0 1 0 12 14 2 2 0 1 0 12 10z"/><path d="M19 10A2 2 0 1 0 19 14 2 2 0 1 0 19 10z"/><path d="M5 17A2 2 0 1 0 5 21 2 2 0 1 0 5 17z"/><path d="M12 17A2 2 0 1 0 12 21 2 2 0 1 0 12 17z"/><path d="M19.33 17A2 2 0 1 0 19.33 21 2 2 0 1 0 19.33 17z"/></svg>