<svg xmlns="http://www.w3.org/2000/svg" viewBox="0 0 24 24" width="24" height="24"><path d="m20.31,16.93l-.9-1-.93,1h-5.66v-4.55h-1.86l2.28-5.14h2.21l.79,1.76v-1.76h2.72l.45,1.34.45-1.34h2.07v-.76c0-.45-.38-.86-.86-.86H2.86c-.48.03-.86.41-.86.86v11.03c0,.45.38.86.86.86h18.28c.45,0,.86-.38.86-.86v-.55l-1.69-.03Z"/><path d="M20.55 16.41 21.97 16.41 20.1 14.41 21.97 12.45 20.59 12.45 19.38 13.72 18.24 12.45 16.79 12.45 18.69 14.45 16.79 16.41 18.17 16.41 19.38 15.14 20.55 16.41z"/><path d="M14.52 15.48 14.52 14.9 16.72 14.9 16.72 13.97 14.52 13.97 14.52 13.38 16.79 13.38 16.79 12.45 13.41 12.45 13.41 16.41 16.79 16.41 16.79 15.48 14.52 15.48z"/><path d="M20.9 11.86 21.97 11.86 21.97 7.86 20.31 7.9 19.41 10.38 18.52 7.9 16.79 7.9 16.79 11.86 17.9 11.86 17.9 9.07 18.93 11.86 19.9 11.86 20.9 9.07 20.9 11.86z"/><path d="m15.03,7.9h-1.41l-1.76,4h1.21l.31-.83h1.83l.34.83h1.24l-1.76-4Zm-1.28,2.28l.52-1.31.52,1.31h-1.03Z"/><path d="M20.97 14.31 21.97 15.38 22 13.21 20.97 14.31z"/></svg>