<svg xmlns="http://www.w3.org/2000/svg" viewBox="0 0 24 24" width="24" height="24"><path d="M20.24 6.71 20.94 6 21.65 5.29 20.14 3.79 18.64 2.29 17.93 3 17.23 3.71 18.73 5.21 20.24 6.71z"/><path d="m21,13c0-4.88-4.12-9-9-9-1.84,0-3.56.59-5,1.59l-1.12-1.12.76-.76-.71-.71-.71-.71-.76.76-1.76-1.76-1.41,1.41,1.76,1.76,1.41,1.41,1,1,5.53,5.53,1.59,1.59,5.53,5.53,3.18,3.18,1.41-1.41-3.29-3.29c.99-1.44,1.59-3.16,1.59-5Zm-4,1h-1.59l-2-2h3.59v2Zm-6-4.41v-1.59h2v3.59l-2-2Z"/><path d="m3,13c0,4.88,4.12,9,9,9,1.63,0,3.17-.47,4.5-1.26L4.26,8.5c-.79,1.33-1.26,2.87-1.26,4.5Z"/></svg>