<svg xmlns="http://www.w3.org/2000/svg" viewBox="0 0 24 24" width="24" height="24"><path d="M12.71 11.29 11.29 12.71 17.79 19.21 15 22 22 22 22 15 19.21 17.79 12.71 11.29z"/><path d="m12,2c-2.67,0-5.18,1.04-7.07,2.93-1.89,1.89-2.93,4.4-2.93,7.07s1.04,5.18,2.93,7.07c1.89,1.89,4.4,2.93,7.07,2.93v-2c-2.14,0-4.15-.83-5.66-2.34-1.51-1.51-2.34-3.52-2.34-5.66s.83-4.15,2.34-5.66c1.51-1.51,3.52-2.34,5.66-2.34s4.15.83,5.66,2.34c1.51,1.51,2.34,3.52,2.34,5.66h2c0-2.67-1.04-5.18-2.93-7.07-1.89-1.89-4.4-2.93-7.07-2.93Z"/></svg>