<svg xmlns="http://www.w3.org/2000/svg" viewBox="0 0 24 24" width="24" height="24"><path d="m19.62,12s.08-.1.11-.14c1.34-1.84,1.67-3.57.93-4.86-.78-1.35-2.58-1.87-4.85-1.6-.9-2.1-2.25-3.4-3.81-3.4s-2.91,1.3-3.81,3.4c-2.27-.27-4.07.25-4.85,1.6-.74,1.29-.41,3.01.93,4.86.04.05.08.1.11.14-.04.05-.08.1-.11.14-1.34,1.84-1.67,3.57-.93,4.86.65,1.12,2,1.68,3.74,1.68.35,0,.73-.03,1.11-.08.9,2.1,2.25,3.4,3.81,3.4s2.91-1.3,3.81-3.4c.38.05.76.08,1.11.08,1.74,0,3.09-.55,3.74-1.68.74-1.29.41-3.01-.93-4.86-.04-.05-.08-.1-.11-.14Zm-2.66-4.67c1.02,0,1.73.25,1.97.67.29.5.03,1.44-.67,2.47-.44-.43-.92-.85-1.44-1.25-.09-.65-.21-1.28-.35-1.86.17-.01.34-.02.5-.02Zm-3.46,7.27c-.51.3-1.01.55-1.5.78-.49-.23-.99-.48-1.5-.78-.5-.29-.97-.59-1.43-.91-.05-.54-.07-1.1-.07-1.69s.03-1.15.07-1.69c.45-.32.93-.62,1.43-.91.51-.3,1.01-.55,1.5-.77.49.23.99.48,1.5.77.5.29.97.59,1.43.91.05.54.07,1.1.07,1.69s-.03,1.15-.07,1.69c-.45.32-.93.62-1.43.91Zm-1.5-10.6c.56,0,1.23.65,1.79,1.81-.58.17-1.18.38-1.79.63-.61-.25-1.21-.46-1.79-.63.57-1.16,1.24-1.81,1.79-1.81Zm-6.93,4c.24-.42.94-.67,1.97-.67.16,0,.33.01.5.02-.15.59-.27,1.21-.35,1.86-.52.4-1,.82-1.44,1.25-.7-1.03-.96-1.97-.67-2.47Zm0,8c-.29-.5-.03-1.44.67-2.47.44.43.92.85,1.44,1.25.09.65.21,1.28.35,1.86-1.29.09-2.19-.16-2.47-.65Zm6.93,4c-.56,0-1.23-.65-1.79-1.82.58-.17,1.18-.38,1.79-.63.61.25,1.21.46,1.79.63-.57,1.16-1.24,1.82-1.79,1.82Zm6.93-4c-.28.48-1.18.74-2.47.65.15-.59.27-1.21.35-1.86.52-.4,1-.82,1.44-1.25.7,1.03.96,1.97.67,2.47Z"/><path d="M12 10.5A1.5 1.5 0 1 0 12 13.5 1.5 1.5 0 1 0 12 10.5z"/></svg>