<svg xmlns="http://www.w3.org/2000/svg" viewBox="0 0 24 24" width="24" height="24"><path class="b" d="M5 3A2 2 0 1 0 5 7 2 2 0 1 0 5 3z"/><path class="b" d="M12 3A2 2 0 1 0 12 7 2 2 0 1 0 12 3z"/><path class="b" d="M19 2.5A2.5 2.5 0 1 0 19 7.5 2.5 2.5 0 1 0 19 2.5z"/><path class="b" d="M5 9.5A2.5 2.5 0 1 0 5 14.5 2.5 2.5 0 1 0 5 9.5z"/><path class="b" d="M12 10A2 2 0 1 0 12 14 2 2 0 1 0 12 10z"/><path class="b" d="M19 10A2 2 0 1 0 19 14 2 2 0 1 0 19 10z"/><path class="b" d="M5 17A2 2 0 1 0 5 21 2 2 0 1 0 5 17z"/><path class="b" d="M12 17A2 2 0 1 0 12 21 2 2 0 1 0 12 17z"/><path class="b" d="M19.33 16.5A2.5 2.5 0 1 0 19.33 21.5 2.5 2.5 0 1 0 19.33 16.5z"/></svg>