<svg xmlns="http://www.w3.org/2000/svg" viewBox="0 0 24 24" width="24" height="24"><path d="M11.29 12.71 12.71 11.29 6.21 4.79 9 2 2 2 2 9 4.79 6.21 11.29 12.71z"/><path d="m12,2v2c2.14,0,4.15.83,5.66,2.34,1.51,1.51,2.34,3.52,2.34,5.66s-.83,4.15-2.34,5.66c-1.51,1.51-3.52,2.34-5.66,2.34s-4.15-.83-5.66-2.34c-1.51-1.51-2.34-3.52-2.34-5.66h-2c0,2.67,1.04,5.18,2.93,7.07,1.89,1.89,4.4,2.93,7.07,2.93s5.18-1.04,7.07-2.93c1.89-1.89,2.93-4.4,2.93-7.07s-1.04-5.18-2.93-7.07c-1.89-1.89-4.4-2.93-7.07-2.93Z"/></svg>