<svg xmlns="http://www.w3.org/2000/svg" viewBox="0 0 24 24" width="24" height="24"><path d="m12,11.5c0,3.03,2.47,5.5,5.5,5.5.41,0,.81-.06,1.2-.15l.59.89c-.57.16-1.17.26-1.79.26-3.58,0-6.5-2.92-6.5-6.5,0-2.32,1.23-4.36,3.07-5.51l-1.01-1.56v-.02c-1.04-1.51-2.74-2.41-4.56-2.41-3.03,0-5.5,2.47-5.5,5.5,0,.09.02.17.02.26-.62.55-1.02,1.34-1.02,2.24h1.62c.69,1.32,1.89,2.34,3.37,2.77.2,1.65.99,5.22,4.01,6.63v2.6h2v-2.05c.27.03.55.05.85.05.41,0,.78-.04,1.15-.07v2.07h2v-2.4c1.22-.32,2.13-.78,2.75-1.17l1.42,2.13,1.66-1.11L14.61,6.83c-1.56.97-2.61,2.7-2.61,4.67Zm-5-3.5c-.55,0-1-.45-1-1s.45-1,1-1,1,.45,1,1-.45,1-1,1Z"/></svg>