<svg xmlns="http://www.w3.org/2000/svg" viewBox="0 0 24 24" width="24" height="24"><path d="m21.5,8h-.5v-2c0-2.21-1.79-4-4-4H7c-2.21,0-4,1.79-4,4v2h-.5c-.28,0-.5.22-.5.5v3c0,.28.22.5.5.5h.5v6c0,.74.41,1.37,1,1.72v1.78c0,.28.22.5.5.5h2c.28,0,.5-.22.5-.5v-1.5h10v1.5c0,.28.22.5.5.5h2c.28,0,.5-.22.5-.5v-1.78c.59-.35,1-.98,1-1.72v-6h.5c.28,0,.5-.22.5-.5v-3c0-.28-.22-.5-.5-.5Zm-2.5,10v-6h-6v-5h6v-1,12s0,0,0,0Zm-13-2.5c0-.83.67-1.5,1.5-1.5s1.5.67,1.5,1.5-.67,1.5-1.5,1.5-1.5-.67-1.5-1.5Zm9,0c0-.83.67-1.5,1.5-1.5s1.5.67,1.5,1.5-.67,1.5-1.5,1.5-1.5-.67-1.5-1.5ZM5,7h6v5h-6v-5Z"/></svg>