<svg xmlns="http://www.w3.org/2000/svg" viewBox="0 0 24 24" width="24" height="24"><path d="m22,8c0-1.1-.9-2-2-2h-1v-2c0-1.1-.9-2-2-2H7c-1.1,0-2,.9-2,2v2h-1c-1.1,0-2,.9-2,2v1h20v-1Zm-5-2H7v-2h10v2Z"/><path d="M7.5 15A1.5 1.5 0 1 0 7.5 18 1.5 1.5 0 1 0 7.5 15z"/><path d="M16.5 15A1.5 1.5 0 1 0 16.5 18 1.5 1.5 0 1 0 16.5 15z"/><path d="m4,22h16c1.1,0,2-.9,2-2v-9H2v9c0,1.1.9,2,2,2Zm12.5-9c1.93,0,3.5,1.57,3.5,3.5s-1.57,3.5-3.5,3.5-3.5-1.57-3.5-3.5,1.57-3.5,3.5-3.5Zm-9,0c1.93,0,3.5,1.57,3.5,3.5s-1.57,3.5-3.5,3.5-3.5-1.57-3.5-3.5,1.57-3.5,3.5-3.5Z"/></svg>