<svg xmlns="http://www.w3.org/2000/svg" viewBox="0 0 24 24" width="24" height="24"><path d="m21.5,8h-.5v-2c0-2.21-1.79-4-4-4H7c-2.21,0-4,1.79-4,4v2h-.5c-.28,0-.5.22-.5.5v3c0,.28.22.5.5.5h.5v6c0,.74.41,1.38,1,1.72v1.78c0,.28.22.5.5.5h2c.28,0,.5-.22.5-.5v-1.5h10v1.5c0,.28.22.5.5.5h2c.28,0,.5-.22.5-.5v-1.78c.59-.35,1-.98,1-1.72v-6h.5c.28,0,.5-.22.5-.5v-3c0-.28-.22-.5-.5-.5Zm-2.5,10H5v-5h14v5Zm-14-7v-3h6v3h-6Zm8,0v-3h6v3s-6,0-6,0Zm-6-7h10c1.1,0,2,.9,2,2H5c0-1.1.9-2,2-2Z"/><path d="M7.5 14A1.5 1.5 0 1 0 7.5 17 1.5 1.5 0 1 0 7.5 14z"/><path d="M16.5 14A1.5 1.5 0 1 0 16.5 17 1.5 1.5 0 1 0 16.5 14z"/></svg>