<svg xmlns="http://www.w3.org/2000/svg" viewBox="0 0 24 24" width="24" height="24"><path d="m16.5,9c-2.11,0-3.99,1.2-4.91,3.05-.9-.09-1.78-.07-2.63.05.03-.36.04-.73.04-1.1,0-.77-.06-1.54-.17-2.27,1.28-.52,2.17-1.78,2.17-3.23,0-1.93-1.57-3.5-3.5-3.5-1.69,0-3.91.99-4.92,5.69-.58,2.74-.58,5.82-.58,7.31v2c0,2.95,4.48,5,8.5,5,2.42,0,4.63-.74,6.03-2,3.02-.02,5.47-2.48,5.47-5.5s-2.47-5.5-5.5-5.5Zm-.05,8.99h-.02c-.06,0-.13-.02-.2-.02l-.48-.04-.33.36c-.97,1.06-2.86,1.71-4.92,1.71-3.44,0-6.5-1.68-6.5-3v-2c0-1.42,0-4.36.54-6.89.58-2.72,1.58-4.11,2.96-4.11.83,0,1.5.67,1.5,1.5,0,.78-.62,1.44-1.41,1.49l-1.19.08.28,1.16c.2.84.31,1.8.31,2.78,0,.76-.06,1.5-.19,2.19l-.28,1.57,1.54-.43c1.24-.35,2.61-.43,3.99-.19l.86.15.26-.83c.46-1.47,1.8-2.45,3.32-2.45,1.93,0,3.5,1.57,3.5,3.5s-1.56,3.49-3.55,3.49Z"/></svg>