<svg xmlns="http://www.w3.org/2000/svg" viewBox="0 0 24 24" width="24" height="24"><path d="m20,8.55v-.05c0-2.4-1.89-4.37-4.27-4.49-.83-1.24-2.23-2.01-3.73-2.01s-2.91.77-3.73,2.01c-2.37.12-4.27,2.09-4.27,4.49v.05c-1.22.7-2,2.01-2,3.45,0,2.41,2.13,4.37,4.62,3.95.19.16.4.3.61.42,3.65,2.84,3.76,5.53,3.76,5.64h.67s1.33,0,1.33,0c0-.11.11-2.79,3.73-5.61.23-.13.44-.28.65-.45,2.5.43,4.62-1.53,4.62-3.95,0-1.44-.78-2.75-2-3.45Zm-9.37,8.29c.49-.12.95-.31,1.37-.6.42.28.88.48,1.36.6-.59.69-1.03,1.35-1.36,1.96-.33-.61-.78-1.28-1.37-1.97Z"/></svg>