<svg xmlns="http://www.w3.org/2000/svg" viewBox="0 0 24 24" width="24" height="24"><path d="m16,2h-8c-3.31,0-6,2.69-6,6,0,.55.45,1,1,1h18c.55,0,1-.45,1-1,0-3.31-2.69-6-6-6ZM4.13,7c.45-1.72,2.01-3,3.87-3h8c1.86,0,3.43,1.28,3.87,3H4.13Z"/><path d="m21,15H3c-.55,0-1,.45-1,1,0,3.31,2.69,6,6,6h8c3.31,0,6-2.69,6-6,0-.55-.45-1-1-1Zm-5,5h-8c-1.86,0-3.43-1.28-3.87-3h15.75c-.45,1.72-2.01,3-3.87,3Z"/><path d="m17,10c-1.6,0-2.45.68-3.12,1.22-.59.47-.98.78-1.88.78s-1.29-.31-1.88-.78c-.68-.54-1.52-1.22-3.13-1.22s-2.45.68-3.13,1.22c-.59.47-.98.78-1.88.78v2c1.6,0,2.45-.68,3.13-1.22.59-.47.98-.78,1.88-.78s1.29.31,1.88.78c.68.54,1.52,1.22,3.13,1.22s2.45-.68,3.12-1.22c.59-.47.98-.78,1.87-.78s1.29.31,1.87.78c.68.54,1.52,1.22,3.12,1.22v-2c-.9,0-1.29-.31-1.87-.78-.68-.54-1.52-1.22-3.12-1.22Z"/></svg>