<svg xmlns="http://www.w3.org/2000/svg" viewBox="0 0 24 24" width="24" height="24"><path d="m10.05,12.18c-1.27-.64-2.99-.54-4.26.25-1.17.72-1.81,1.89-1.81,3.29,0,.3.02.59.04.86.08,1.03.11,1.42-1.47,2.21-.32.16-.53.47-.55.82s.14.69.43.89c1,.69,2.76,1.49,4.62,1.49,1.35,0,2.74-.42,3.92-1.6,1.2-1.2,1.8-3.1,1.52-4.84-.24-1.5-1.11-2.7-2.44-3.36Z"/><path d="m21.08,2.91c-1.22-1.22-3.2-1.22-4.41,0l-7.88,7.88c.61.07,1.19.23,1.71.49,1.51.76,2.52,2.08,2.89,3.73l7.69-7.69c1.22-1.22,1.22-3.2,0-4.41Z"/><path d="m2.32,6.49l2.21.98.98,2.21c.09.19.28.32.49.32s.4-.12.49-.32l.98-2.21,2.21-.98c.19-.09.32-.28.32-.49s-.12-.4-.32-.49l-2.21-.98-.98-2.21c-.08-.19-.27-.32-.48-.32-.21-.02-.4.12-.49.31l-.99,2.14-2.23,1.07c-.19.09-.3.28-.3.49s.13.39.32.48Z"/><path d="m21.76,18.63l-1.66-.74-.74-1.66c-.06-.14-.21-.24-.36-.24-.16-.01-.3.09-.37.23l-.74,1.6-1.67.8c-.14.07-.23.21-.23.37,0,.16.1.3.24.36l1.66.74.74,1.66c.06.14.21.24.37.24s.3-.09.37-.24l.74-1.66,1.66-.74c.14-.06.24-.21.24-.37s-.09-.3-.24-.37Z"/></svg>