<svg xmlns="http://www.w3.org/2000/svg" viewBox="0 0 24 24" width="24" height="24"><path d="m4.5,22h15c1.38,0,2.5-1.12,2.5-2.5v-1c0-.81-.4-1.53-1-1.99v-3.51c0-.3-.02-.59-.04-.89l-4.46,1.98-4.5-2-4.5,2-4.45-1.98c-.03.29-.04.59-.04.89v3.51c-.6.46-1,1.17-1,1.99v1c0,1.38,1.12,2.5,2.5,2.5Zm15.5-2.5c0,.28-.22.5-.5.5H4.5c-.28,0-.5-.22-.5-.5v-1c0-.28.22-.5.5-.5h15c.28,0,.5.22.5.5v1Z"/><path d="m14.49,4.36c-.08-1.31-1.16-2.36-2.49-2.36s-2.41,1.05-2.49,2.36c-2.83.82-5.09,2.99-6.03,5.76l4.01,1.79,4.5-2,4.5,2,4.02-1.79c-.94-2.78-3.2-4.95-6.03-5.76Z"/></svg>