<svg xmlns="http://www.w3.org/2000/svg" viewBox="0 0 24 24" width="24" height="24"><path d="m12,4c-5.33,0-10,4.21-10,9,0,3.92,4.39,7,10,7s10-3.08,10-7c0-4.79-4.67-9-10-9Zm0,14c-4.34,0-8-2.29-8-5,0-2.14,1.45-4.45,3.71-5.8-.4,1.11-.71,2.63-.71,4.8h2c0-3.64.94-5.03,1.52-5.86.48-.09.97-.14,1.48-.14.21,0,.41.02.61.03-.85,1.07-1.61,2.89-1.61,5.97h2c0-4.06,1.46-5.17,1.99-5.44.53.2,1.03.46,1.5.75-.73.73-1.49,2.11-1.49,4.69h2c0-2.24.68-3.1,1.05-3.39,1.22,1.29,1.95,2.88,1.95,4.39,0,2.71-3.66,5-8,5Z"/></svg>