<svg xmlns="http://www.w3.org/2000/svg" viewBox="0 0 24 24" width="24" height="24"><path d="m16.12,2.24c-.25-.21-.58-.29-.9-.21-.32.08-.57.31-.69.61l-.69,1.8c-.32.84-1.03,1.48-1.89,1.73l-.45.13c-1.46.42-2.66,1.52-3.2,2.94-.32.84-1.03,1.49-1.89,1.73l-.45.13c-1.46.42-2.66,1.52-3.2,2.94l-.69,1.8c-.15.39-.04.84.28,1.11l5.54,4.8c.18.16.42.24.65.24.08,0,.16,0,.24-.03.32-.08.57-.31.69-.61l.69-1.8c.32-.84,1.03-1.48,1.89-1.73l.45-.13c1.46-.42,2.66-1.52,3.2-2.94.32-.84,1.03-1.49,1.89-1.73l.45-.13c1.46-.42,2.66-1.52,3.2-2.94l.69-1.8c.15-.39.04-.84-.28-1.11l-5.54-4.8ZM4.63,14.76c.32-.84,1.03-1.48,1.89-1.73l.45-.13c1.46-.42,2.66-1.52,3.2-2.94.32-.84,1.03-1.48,1.89-1.73l.45-.13c1.46-.42,2.66-1.52,3.2-2.94l.18-.47,1.16,1.01-.44,1.15c-.32.84-1.03,1.48-1.89,1.73l-.45.13c-1.46.42-2.66,1.52-3.2,2.94-.32.84-1.03,1.48-1.89,1.73l-.45.13c-1.46.42-2.66,1.52-3.2,2.94l-.18.47-1.16-1.01.44-1.15Zm14.75-5.52c-.32.84-1.03,1.48-1.89,1.73l-.45.13c-1.46.42-2.66,1.52-3.2,2.94-.32.84-1.03,1.48-1.89,1.73l-.45.13c-1.46.42-2.66,1.52-3.2,2.94l-.18.47-1.16-1.01.44-1.15c.32-.84,1.03-1.48,1.89-1.73l.45-.13c1.46-.42,2.66-1.52,3.2-2.94.32-.84,1.03-1.48,1.89-1.73l.45-.13c1.46-.42,2.66-1.52,3.2-2.94l.18-.47,1.16,1.01-.44,1.15Z"/></svg>