<svg xmlns="http://www.w3.org/2000/svg" viewBox="0 0 24 24" width="24" height="24"><path d="M8 6A1 1 0 1 0 8 8 1 1 0 1 0 8 6z"/><path d="m13.05,4.41c-1.03-1.51-2.73-2.41-4.55-2.41-3.03,0-5.5,2.47-5.5,5.5,0,.09.02.17.02.26-.62.55-1.02,1.34-1.02,2.24h1.62c.69,1.32,1.89,2.34,3.37,2.77.2,1.65.99,5.22,4.01,6.63v2.6h2v-2.05c.27.03.55.05.85.05.41,0,.78-.04,1.15-.07v2.07h2v-2.4c1.22-.32,2.14-.78,2.75-1.17l1.42,2.13,1.66-1.11-1.99-2.99-7.79-12.05Zm.66,4.7l4.62,7.14c-2.15.19-3.73-1-4.51-2.27-.75-1.23-1.11-3.09-.1-4.86Zm-4.79,2.79l-.03-.84-.84-.11c-1.74-.23-3.05-1.71-3.05-3.45,0-1.93,1.57-3.5,3.5-3.5,1.16,0,2.24.57,2.89,1.53l1.13,1.75h0c-1.77,2.31-1.93,5.27-.41,7.75.84,1.36,2.04,2.33,3.43,2.85-.51.08-1.07.13-1.69.13-4.47,0-4.89-5.08-4.93-6.1Z"/></svg>