<svg xmlns="http://www.w3.org/2000/svg" viewBox="0 0 24 24" width="24" height="24"><path d="m19,12.59v-2.59c0-3.22-2.18-5.93-5.14-6.74-.29-.74-1.01-1.26-1.86-1.26s-1.56.52-1.86,1.26c-2.96.82-5.14,3.53-5.14,6.74v2.59l-1.71,1.71c-.19.19-.29.44-.29.71v2c0,.55.45,1,1,1h16c.55,0,1-.45,1-1v-2c0-.27-.11-.52-.29-.71l-1.71-1.71Z"/><path d="m5.64,3.3l-1.41-1.41C2.14,3.97,1,6.73,1,9.67h2c0-2.4.94-4.66,2.64-6.36Z"/><path d="m18.36,3.3c1.7,1.7,2.64,3.96,2.64,6.36h2c0-2.94-1.14-5.7-3.22-7.78l-1.41,1.41Z"/><path d="m12,22c1.31,0,2.41-.83,2.82-2h-5.64c.41,1.17,1.51,2,2.82,2Z"/></svg>