<svg xmlns="http://www.w3.org/2000/svg" viewBox="0 0 24 24" width="24" height="24"><path d="m10.97,20.39c1.12-1.12,1.71-2.85,1.55-4.49l8.56-8.56c1.22-1.22,1.22-3.2,0-4.41s-3.2-1.22-4.41,0L7.8,11.78c-.71.06-1.41.27-2.01.64-1.17.72-1.81,1.89-1.81,3.29,0,.3.02.59.04.86.08,1.03.11,1.42-1.47,2.21-.32.16-.53.47-.55.82s.14.69.43.89c1,.69,2.76,1.49,4.62,1.49,1.35,0,2.74-.42,3.92-1.6Zm7.12-16.06c.44-.44,1.15-.44,1.59,0,.44.44.44,1.15,0,1.58l-7.86,7.86c-.4-.63-.96-1.15-1.65-1.52l7.92-7.92Zm-12.07,12.09c-.02-.22-.04-.46-.04-.71,0-.7.29-1.23.86-1.59.68-.42,1.66-.49,2.31-.16.65.32.99.81,1.18,1.28l-.05.05.1.1c.05.16.09.32.12.47.18,1.09-.22,2.37-.96,3.11-1.44,1.44-3.31,1.1-4.58.61,1.09-.98,1.13-1.99,1.04-3.16Z"/></svg>