<svg xmlns="http://www.w3.org/2000/svg" viewBox="0 0 24 24" width="24" height="24"><path d="m21.98,10.49c-.07-.38-.35-.69-.72-.79l-3.32-.9.9-3.38c.1-.38-.03-.78-.33-1.03-.3-.25-.72-.3-1.07-.13l-3.09,1.47-1.44-3.15c-.16-.36-.52-.58-.91-.58s-.75.23-.91.58l-1.44,3.15-3.09-1.47c-.35-.17-.77-.12-1.07.13-.3.25-.43.65-.33,1.03l.9,3.38-3.32.9c-.37.1-.66.41-.72.79-.07.38.09.77.41.99l2.83,2-1.98,2.87c-.22.32-.24.74-.04,1.07.2.33.56.53.95.49l3.41-.31.29,3.48c.03.39.29.72.66.86.37.13.78.04,1.05-.24l2.41-2.46,2.41,2.46c.19.19.45.3.71.3.11,0,.23-.02.34-.06.37-.13.62-.47.66-.86l.29-3.48,3.41.31c.38.03.76-.16.95-.49.2-.34.18-.75-.04-1.07l-1.98-2.87,2.83-2c.32-.22.47-.61.41-.99Z"/></svg>