<svg xmlns="http://www.w3.org/2000/svg" viewBox="0 0 24 24" width="24" height="24"><path d="m17.41,12.9c.17,0,.35-.05.5-.13.23-.13.4-.35.47-.61,1.14-4.26-1.4-8.66-5.66-9.8-4.26-1.14-8.66,1.4-9.8,5.66-.14.53.17,1.08.71,1.22l5.8,1.55-2.85,10.63,1.93.52,2.85-10.63,1.93.52s0,0,0,0l3.86,1.03c.08.02.17.03.26.03Zm-10.33-4.8l-1.88-.5c.73-1.6,2.12-2.75,3.74-3.24-.75,1.02-1.39,2.34-1.86,3.74Zm5.73,1.54l-1.9-.51-1.9-.51c1.01-2.97,2.58-4.48,3.19-4.32.62.17,1.22,2.27.61,5.34Zm3.81,1.02l-1.88-.5c.3-1.45.4-2.91.26-4.17,1.16,1.23,1.78,2.93,1.62,4.68Z"/><path d="m17.5,15c-1.93,0-3.5,1.57-3.5,3.5s1.57,3.5,3.5,3.5,3.5-1.57,3.5-3.5-1.57-3.5-3.5-3.5Zm0,5c-.83,0-1.5-.67-1.5-1.5s.67-1.5,1.5-1.5,1.5.67,1.5,1.5-.67,1.5-1.5,1.5Z"/></svg>