<svg xmlns="http://www.w3.org/2000/svg" viewBox="0 0 24 24" width="24" height="24"><path d="m16.41,11h3.59v-2h-3.59l-3-3c-.78-.78-2.05-.78-2.83,0l-2.59,2.59c-.78.78-.78,2.05,0,2.83l3,3v4.59h2v-4.59c0-.53-.21-1.04-.59-1.41l-2-2,2.59-2.59,2,2c.38.38.88.59,1.41.59Z"/><path d="M16 2A2 2 0 1 0 16 6 2 2 0 1 0 16 2z"/><path d="m18,13c-2.21,0-4,1.79-4,4s1.79,4,4,4,4-1.79,4-4-1.79-4-4-4Zm0,6c-1.1,0-2-.9-2-2s.9-2,2-2,2,.9,2,2-.9,2-2,2Z"/><path d="m10,17c0-2.21-1.79-4-4-4s-4,1.79-4,4,1.79,4,4,4,4-1.79,4-4Zm-6,0c0-1.1.9-2,2-2s2,.9,2,2-.9,2-2,2-2-.9-2-2Z"/></svg>