<svg xmlns="http://www.w3.org/2000/svg" viewBox="0 0 24 24" width="24" height="24"><path class="b" d="m20.49,6.63L12.49,2.13c-.3-.17-.68-.17-.98,0L3.51,6.63c-.31.18-.51.51-.51.87v9c0,.36.19.69.51.87l8,4.5c.15.09.32.13.49.13s.34-.04.49-.13l8-4.5c.31-.18.51-.51.51-.87V7.5c0-.36-.19-.69-.51-.87Zm-7.99-2.2l5.46,3.07-5.46,3.07v-6.14Zm-1,6.14l-5.46-3.07,5.46-3.07v6.14Zm-1.03,1.71l-5.47,3.08v-6.15l5.47,3.08Zm.53.85v6.15l-5.47-3.08,5.47-3.08Zm2,0l5.47,3.08-5.47,3.08v-6.15Zm.53-.85l5.47-3.08v6.15l-5.47-3.08Z"/></svg>