<svg xmlns="http://www.w3.org/2000/svg" viewBox="0 0 24 24" width="24" height="24"><path d="m4.88,8.42l-1.78-.92c-.48.93-.81,1.92-.98,2.95l1.97.32c.13-.81.39-1.6.78-2.35Z"/><path d="m2.12,13.56c.17,1.02.5,2.01.98,2.94l1.78-.92c-.38-.74-.65-1.53-.78-2.35l-1.97.32Z"/><path d="m4.92,19c.73.74,1.57,1.36,2.48,1.85l.94-1.77c-.73-.39-1.4-.89-1.99-1.49l-1.42,1.41Z"/><path d="m8.33,4.92l-.94-1.77c-.91.49-1.75,1.11-2.48,1.85l1.42,1.41c.59-.6,1.26-1.1,1.99-1.49Z"/><path d="m12,2c-.56,0-1.12.05-1.67.14l.34,1.97c.44-.08.88-.11,1.32-.11,4.34,0,8,3.66,8,8s-3.66,8-8,8c-.44,0-.89-.04-1.32-.11l-.34,1.97c.55.1,1.11.14,1.67.14,5.42,0,10-4.58,10-10S17.42,2,12,2Z"/><path d="M11 7 11 13 17 13 17 11 13 11 13 7 11 7z"/></svg>