<svg xmlns="http://www.w3.org/2000/svg" viewBox="0 0 24 24" width="24" height="24"><path d="m22,2l-2,2h-6l-2-2v2s0,0,0,0v5c0,2.76,2.24,5,5,5s5-2.24,5-5v-5h-.01v-2Zm-7,7c-.55,0-1-.45-1-1s.45-1,1-1,1,.45,1,1-.45,1-1,1Zm4,0c-.55,0-1-.45-1-1s.45-1,1-1,1,.45,1,1-.45,1-1,1Z"/><path d="m11.09,10h-5.59c-.83,0-1.5-.67-1.5-1.5s.67-1.5,1.5-1.5c1.56,0,4.5-.84,4.5-4v-1h-2v1c0,1.88-2.09,2-2.5,2-1.93,0-3.5,1.57-3.5,3.5,0,1.42.85,2.63,2.06,3.18l.94,9.42c.05.51.48.9,1,.9h3c.55,0,1-.45,1-1v-3h4v3c0,.55.45,1,1,1h3c.51,0,.94-.38.99-.89l.75-6.78c-.82.43-1.76.67-2.75.67-2.97,0-5.43-2.17-5.91-5Z"/></svg>