<svg xmlns="http://www.w3.org/2000/svg" viewBox="0 0 24 24" width="24" height="24"><path d="m21.45,5.83l1.11-1.66-3-2c-.23-.15-.51-.2-.77-.14-.27.06-.5.23-.64.46l-2.71,4.51h-4.48c-.11-1.01-.54-1.95-1.27-2.68-.85-.85-1.98-1.32-3.18-1.32s-2.33.47-3.18,1.32c-.85.85-1.32,1.98-1.32,3.18s.47,2.33,1.32,3.18c.79.79,1.83,1.23,2.94,1.29.16.62.38,1.21.68,1.76l-.03.05s.04.02.07.03c1.21,2.21,3.42,3.78,6.03,4.11v2.07h-3v2h8v-2h-3v-2.07c3.94-.49,7-3.86,7-7.93v-2c0-.55-.45-1-1-1h-3.23l1.55-2.59,2.13,1.42Zm-1.45,4.17c0,.27-.02.53-.06.79-2.16-.62-4.55-.33-6.47.86-1.49.93-3.36,1.14-5.03.6-.28-.7-.44-1.45-.44-2.25v-1h12v1Z"/></svg>