<svg xmlns="http://www.w3.org/2000/svg" viewBox="0 0 24 24" width="24" height="24"><path d="M19.55 12.11 12 15.88 4.45 12.11 3.55 13.89 9.76 17 3.55 20.11 4.45 21.89 12 18.12 19.55 21.89 20.45 20.11 14.24 17 20.45 13.89 19.55 12.11z"/><path d="m11.68,13.03c.11,0,.22.01.32.01,1.28,0,2.48-.48,3.42-1.36,1-.94,1.58-2.27,1.58-3.64,0-.94-.24-1.83-.71-2.67-.17-.3-.47-.5-.81-.55-.34-.05-.69.06-.95.3-.32.3-.73.45-1.16.41h0c-.39-.03-.79-.29-1.07-.68-.31-.43-.32-.74-.29-.98.05-.43-.15-.85-.51-1.09-.36-.23-.83-.23-1.19,0-1.21.75-2.75,2.07-3.19,4.12-.31,1.44.04,2.95.94,4.15.88,1.17,2.2,1.89,3.62,1.98Z"/></svg>