<svg xmlns="http://www.w3.org/2000/svg" viewBox="0 0 24 24" width="24" height="24"><path d="m12,6c-4.41,0-8,3.59-8,8s3.59,8,8,8,8-3.59,8-8c0-3.47-2.23-6.43-5.33-7.53,1.28-1.51,3.19-2.47,5.33-2.47v-2c-1.61,0-3.12.43-4.42,1.17-.62-.44-1.89-1.17-3.58-1.17-2.4,0-4,1.5-4,1.5,0,0,1.6,1.5,4,1.5.55,0,1.04-.08,1.5-.2-.36.38-.7.79-.99,1.23-.17-.01-.34-.03-.51-.03Zm6,8c0,3.31-2.69,6-6,6s-6-2.69-6-6,2.43-5.73,5.52-5.98c-.31.88-.49,1.81-.51,2.79-.76-.3-1.16-.85-1.18-.88l-1.66,1.12c.05.08,1.33,1.94,3.83,1.94s3.78-1.87,3.83-1.94l-1.66-1.12s-.42.57-1.16.87c.03-.92.22-1.79.57-2.59,2.54.7,4.42,3.02,4.42,5.78Z"/></svg>