<svg xmlns="http://www.w3.org/2000/svg" viewBox="0 0 24 24" width="24" height="24"><path d="m12,11c1.71,0,3-1.29,3-3s-1.29-3-3-3-3,1.29-3,3,1.29,3,3,3Zm0-4c.6,0,1,.4,1,1s-.4,1-1,1-1-.4-1-1,.4-1,1-1Z"/><path d="m13,12h-2c-2.76,0-5,2.24-5,5v.5c0,.83.67,1.5,1.5,1.5h9c.83,0,1.5-.67,1.5-1.5v-.5c0-2.76-2.24-5-5-5Zm-5,5c0-1.65,1.35-3,3-3h2c1.65,0,3,1.35,3,3h-8Z"/><path d="m6.5,11c.47,0,.9-.12,1.27-.33-.48-.77-.77-1.68-.77-2.67,0-.66.13-1.28.35-1.85-.26-.09-.55-.15-.85-.15-1.44,0-2.5,1.06-2.5,2.5s1.06,2.5,2.5,2.5Z"/><path d="m6.11,12h-.61c-1.93,0-3.5,1.57-3.5,3.5v1c0,.28.22.5.5.5h1.5c0-1.96.81-3.73,2.11-5Z"/><path d="m17.5,11c1.44,0,2.5-1.06,2.5-2.5s-1.06-2.5-2.5-2.5c-.31,0-.59.06-.85.15.22.57.35,1.19.35,1.85,0,.99-.29,1.9-.77,2.67.37.21.79.33,1.27.33Z"/><path d="m18.5,12h-.61c1.3,1.27,2.11,3.04,2.11,5h1.5c.28,0,.5-.22.5-.5v-1c0-1.93-1.57-3.5-3.5-3.5Z"/></svg>