<svg xmlns="http://www.w3.org/2000/svg" viewBox="0 0 24 24" width="24" height="24"><path d="M11.73 5.32 10.32 6.73 12.09 8.5 10.32 10.27 11.73 11.68 13.5 9.91 15.27 11.68 16.68 10.27 14.91 8.5 16.68 6.73 15.27 5.32 13.5 7.09 11.73 5.32z"/><path d="m17.31,14h-7.59L5.95,2.68c-.14-.41-.52-.68-.95-.68h-3v2h2.28l3.54,10.63c.27.82,1.04,1.37,1.9,1.37h7.59c.83,0,1.58-.52,1.87-1.3l2.76-7.35-1.87-.7-2.76,7.35Z"/><path d="M10 18A2 2 0 1 0 10 22 2 2 0 1 0 10 18z"/><path d="M17 18A2 2 0 1 0 17 22 2 2 0 1 0 17 18z"/></svg>