<svg xmlns="http://www.w3.org/2000/svg" viewBox="0 0 24 24" width="24" height="24"><path d="m21.65,12.94l-1.66-3.14c-.1-4.53-3.64-7.8-8.5-7.8S2.01,5.24,2.01,10.67c0,2.72,1.03,5.05,2.99,6.79v4.54h10v-2h2c1.1,0,2-.9,2-2v-3h1.26c.5,0,.96-.25,1.24-.66.28-.41.33-.94.15-1.4Zm-10.65,3.06c-1.34,0-2.59-.52-3.54-1.46-.94-.94-1.46-2.2-1.46-3.54s.52-2.59,1.46-3.54c.94-.94,2.2-1.46,3.54-1.46,1.65,0,3,1.35,3,3s-1.35,3-3,3h-1v-2h1c.55,0,1-.45,1-1s-.45-1-1-1c-.8,0-1.55.31-2.12.88-.57.57-.88,1.32-.88,2.12s.31,1.56.88,2.12c1.13,1.13,3.11,1.13,4.24,0l1.41,1.41c-.94.94-2.2,1.46-3.54,1.46Z"/></svg>