<svg xmlns="http://www.w3.org/2000/svg" viewBox="0 0 24 24" width="24" height="24"><path d="m20.77,9.16l-1.37-4.1c-.41-1.23-1.55-2.05-2.85-2.05H7.44c-1.29,0-2.44.82-2.85,2.05l-1.37,4.1c-.72.3-1.23,1.02-1.23,1.84v5c0,.74.41,1.37,1,1.72v2.28c0,.55.45,1,1,1h1c.55,0,1-.45,1-1v-2h12v2c0,.55.45,1,1,1h1c.55,0,1-.45,1-1v-2.28c.59-.35,1-.98,1-1.72v-5c0-.83-.51-1.54-1.23-1.84Zm-1.77,4.34c0,.83-.67,1.5-1.5,1.5s-1.5-.67-1.5-1.5.67-1.5,1.5-1.5,1.5.67,1.5,1.5Zm-11,0c0,.83-.67,1.5-1.5,1.5s-1.5-.67-1.5-1.5.67-1.5,1.5-1.5,1.5.67,1.5,1.5Zm12-2.5v5s0,0,0,0v-5ZM7.44,5h9.12c.43,0,.81.27.95.68l1.11,3.32H5.39l1.11-3.32c.14-.41.52-.68.95-.68Z"/></svg>