<svg xmlns="http://www.w3.org/2000/svg" viewBox="0 0 24 24" width="24" height="24"><path d="m18,6c0-2.21-1.79-4-4-4-.7,0-1.39.19-2,.55-.61-.35-1.3-.55-2-.55-2.21,0-4,1.79-4,4-2.21,0-4,1.79-4,4,0,.7.19,1.39.55,2-.35.61-.55,1.3-.55,2,0,2.21,1.79,4,4,4,0,2.21,1.79,4,4,4,.7,0,1.39-.19,2-.55.61.35,1.3.55,2,.55,2.21,0,4-1.79,4-4,2.21,0,4-1.79,4-4,0-.7-.19-1.39-.55-2,.35-.61.55-1.3.55-2,0-2.21-1.79-4-4-4Zm-8-2c.62,0,1.07.28,1.33.52l.67.6.67-.6c.26-.24.71-.52,1.33-.52,1.1,0,2,.9,2,2,0,.25-.05.5-.16.75l-3.84,3.84-3.84-3.84c-.11-.25-.16-.5-.16-.75,0-1.1.9-2,2-2Zm-6,10c0-.62.28-1.07.52-1.33l.6-.67-.6-.67c-.24-.26-.52-.71-.52-1.33,0-1.1.9-2,2-2,.25,0,.5.05.75.16l3.84,3.84-3.84,3.84c-1.33.58-2.75-.49-2.75-1.84Zm10,6c-.62,0-1.07-.28-1.33-.52l-.67-.6-.67.6c-.26.24-.71.52-1.33.52-1.1,0-2-.9-2-2,0-.25.05-.5.16-.75l3.84-3.84,3.84,3.84c.11.25.16.5.16.75,0,1.1-.9,2-2,2Zm5.48-7.33c.24.26.52.71.52,1.33,0,1.35-1.41,2.42-2.75,1.84l-3.84-3.84,3.84-3.84c1.33-.58,2.75.49,2.75,1.84,0,.62-.28,1.07-.52,1.33l-.6.67.6.67Z"/></svg>