<svg xmlns="http://www.w3.org/2000/svg" viewBox="0 0 24 24" width="24" height="24"><path class="b" d="m9,2h-5c-1.1,0-2,.9-2,2v5c0,1.1.9,2,2,2h5c1.1,0,2-.9,2-2v-5c0-1.1-.9-2-2-2Zm-5,7v-5h5v5s-5,0-5,0Z"/><path class="b" d="m17.5,13c-2.48,0-4.5,2.02-4.5,4.5s2.02,4.5,4.5,4.5,4.5-2.02,4.5-4.5-2.02-4.5-4.5-4.5Zm0,7c-1.38,0-2.5-1.12-2.5-2.5s1.12-2.5,2.5-2.5,2.5,1.12,2.5,2.5-1.12,2.5-2.5,2.5Z"/><path class="b" d="m7,18h-3v-5h-2v5c0,1.1.9,2,2,2h3v2l4-3-4-3v2Z"/><path class="b" d="m20,4h-3v-2l-4,3,4,3v-2h3v5h2v-5c0-1.1-.9-2-2-2Z"/></svg>