<svg xmlns="http://www.w3.org/2000/svg" viewBox="0 0 24 24" width="24" height="24"><path d="m21.45,14.11l-3.45-1.72v-.38c0-.35-.18-.68-.49-.86l-4.51-2.71v-2.43h2v-2h-2v-2h-2v2h-2v2h2v2.43l-4.51,2.71c-.3.18-.49.51-.49.86v.38l-3.45,1.72c-.34.17-.55.52-.55.89v6c0,.55.45,1,1,1h18c.55,0,1-.45,1-1v-6c0-.38-.21-.72-.55-.89Zm-9.45-3.94l4,2.4v7.43h-2v-2c0-1.1-.9-2-2-2s-2,.9-2,2v2h-2v-7.43l4-2.4Zm-8,5.45l2-1v5.38h-2v-4.38Zm16,4.38h-2v-5.38l2,1v4.38Z"/><path d="M12 12A1.5 1.5 0 1 0 12 15 1.5 1.5 0 1 0 12 12z"/></svg>