<svg xmlns="http://www.w3.org/2000/svg" viewBox="0 0 24 24" width="24" height="24"><path d="m15.8,4.4c-.27-.37-.77-.5-1.19-.32l-1.69.71c-.33-1.59-1.74-2.78-3.43-2.78-1.93,0-3.5,1.57-3.5,3.5,0,.7.21,1.36.59,1.93l-3.97,1.65c-.37.16-.62.52-.62.92v8c0,.49.35.91.84.99l18,3c.05,0,.11.01.16.01.24,0,.46-.08.65-.24.22-.19.35-.47.35-.76v-8c0-.22-.07-.43-.2-.6l-6-8Zm-6.3-.4c.83,0,1.5.67,1.5,1.5,0,.16-.03.34-.07.48-.29.82-1.3,1.25-2.08.87,0,0,0,0,0,0,0,0,0,0,0,0-.51-.25-.84-.78-.84-1.35,0-.83.67-1.5,1.5-1.5Zm-5.5,13.15v-5.47l16,2.67v1.97l-13.84-2.31-.33,1.97,14.16,2.36v1.47l-16-2.67Z"/></svg>