<svg xmlns="http://www.w3.org/2000/svg" viewBox="0 0 24 24" width="24" height="24"><path d="m16.75,8.5c-.2,0-.4.01-.6.04-1.23-1.6-3.1-2.54-5.15-2.54-3.11,0-5.79,2.25-6.38,5.25-1.56.56-2.62,2.04-2.62,3.75,0,2.21,1.79,4,4,4h10.75c2.89,0,5.25-2.36,5.25-5.25s-2.36-5.25-5.25-5.25Z"/><path d="m21,6c-1.65,0-3-1.35-3-3,0-.55-.45-1-1-1-.34,0-.67.03-1.01.1-.32.07-.64.17-.94.29-.3.13-.59.28-.85.46-.27.18-.52.39-.74.61-.23.22-.43.47-.61.74,0,0,0,0,0,0,1.58.35,3.02,1.14,4.17,2.3,1.83.07,3.48.82,4.72,2,.05-.17.12-.33.16-.5.07-.33.1-.67.1-1,0-.55-.45-1-1-1Z"/></svg>