<svg xmlns="http://www.w3.org/2000/svg" viewBox="0 0 24 24" width="24" height="24"><path d="m21.49,8.72l-1.91-1.1v-2.2c0-.55-.45-1-1-1h-2.2l-.41-.71h0s-.7-1.2-.7-1.2c-.13-.23-.35-.4-.61-.47-.25-.07-.53-.03-.76.1l-1.91,1.1-1.91-1.1c-.48-.28-1.09-.11-1.37.37l-.7,1.2h0s-.41.7-.41.7h-2.2c-.55,0-1,.45-1,1v2.2l-1.91,1.1c-.23.13-.4.35-.47.61-.07.26-.03.53.1.76l.7,1.2h0l.41.7-.41.7h0s-.7,1.21-.7,1.21c-.13.23-.17.5-.1.76.07.26.24.48.47.61l1.91,1.1v2.2c0,.55.45,1,1,1h2.2l.41.71h0s.7,1.2.7,1.2c.19.32.52.5.87.5.17,0,.34-.04.5-.13l1.91-1.1,1.91,1.1c.23.13.5.17.76.1.26-.07.47-.24.61-.47l.7-1.2h0s.41-.7.41-.7h2.2c.55,0,1-.45,1-1v-2.2l1.91-1.1c.48-.28.64-.89.37-1.37l-1.1-1.91,1.1-1.91c.28-.48.11-1.09-.37-1.37Z"/></svg>