<svg xmlns="http://www.w3.org/2000/svg" viewBox="0 0 24 24" width="24" height="24"><path d="m20.75,8.28c-1.95.5-3.75,1.42-5.27,2.67,0-.15.02-.3.02-.45,0-2.82-.93-5.61-2.69-8.08-.19-.26-.49-.42-.81-.42h0c-.32,0-.63.16-.81.42-1.88,2.63-2.78,5.58-2.66,8.54-1.52-1.25-3.32-2.18-5.28-2.67-.34-.08-.7.01-.95.26s-.35.61-.26.95c.59,2.36,1.81,4.51,3.51,6.21.19.19.4.38.6.56-.97.28-1.91.76-2.77,1.45-.24.19-.37.48-.37.78s.14.59.37.78c1.4,1.13,3,1.72,4.63,1.72,1.03,0,2.04-.26,3-.72v1.72h2v-1.72c.96.46,1.97.72,3,.72,1.63,0,3.23-.6,4.63-1.72.24-.19.37-.48.37-.78s-.14-.59-.37-.78c-.86-.69-1.8-1.18-2.77-1.45.21-.18.41-.37.6-.56,1.71-1.71,2.92-3.85,3.51-6.21.09-.34-.01-.7-.26-.95s-.61-.35-.95-.26Z"/></svg>