<svg xmlns="http://www.w3.org/2000/svg" viewBox="0 0 24 24" width="24" height="24"><path d="m18.36,13.36c-.4.4-.83.75-1.29,1.07l-2.63-5.7c.35-.49.56-1.09.56-1.73,0-1.3-.84-2.4-2-2.82v-2.18h-2v2.18c-1.16.41-2,1.51-2,2.82,0,.65.21,1.24.56,1.73l-2.63,5.7c-.46-.31-.89-.67-1.29-1.07l-.71-.71-1.41,1.41.71.71c.57.57,1.19,1.06,1.86,1.49l-2.22,4.81,1.82.84,2.18-4.73s0,0,0,0c1.32.53,2.71.81,4.14.81s2.82-.27,4.14-.81c1.37-.55,2.59-1.37,3.64-2.42l.71-.71-1.41-1.41-.71.71Zm-9.66,2.01l2.53-5.48c.25.07.5.11.77.11s.52-.05.77-.11l2.53,5.48c-2.11.83-4.5.83-6.6,0Z"/><path d="m16.98,19.01l1.34,2.91,1.82-.84-1.38-2.99c-.57.35-1.16.66-1.78.92Z"/></svg>