<svg xmlns="http://www.w3.org/2000/svg" width="24" height="24"><path d="m15.71 5.29-3-3a.996.996 0 0 0-1.41 0l-3 3a.996.996 0 0 0 0 1.41l3 3c.2.2.45.29.71.29s.51-.1.71-.29l3-3a.996.996 0 0 0 0-1.41ZM11.29 14.29l-3 3a.996.996 0 0 0 0 1.41l3 3c.2.2.45.29.71.29s.51-.1.71-.29l3-3a.996.996 0 0 0 0-1.41l-3-3a.996.996 0 0 0-1.41 0ZM18.71 8.29a.996.996 0 0 0-1.41 0l-3 3a.996.996 0 0 0 0 1.41l3 3c.2.2.45.29.71.29s.51-.1.71-.29l3-3a.996.996 0 0 0 0-1.41l-3-3ZM6 16c.26 0 .51-.1.71-.29l3-3a.996.996 0 0 0 0-1.41l-3-3a.996.996 0 0 0-1.41 0l-3 3a.996.996 0 0 0 0 1.41l3 3c.2.2.45.29.71.29Z"/></svg>