<svg xmlns="http://www.w3.org/2000/svg" viewBox="0 0 24 24" width="24" height="24"><path d="m21.44,11h-3.74l-3.12,8.44,6.77-8.27c.04-.05.06-.11.1-.17Z"/><path d="M10.72 2 8.39 9 15.61 9 13.28 2 10.72 2z"/><path d="m21.53,8.91l-3.37-5.9c-.35-.62-1.02-1.01-1.74-1.01h-1.03l2.33,7h3.84s-.02-.06-.04-.09Z"/><path d="M8.39 11 11.79 21.2 15.56 11 8.39 11z"/><path d="m5.84,3.01l-3.37,5.9s-.02.06-.04.09h3.84l2.33-7h-1.03c-.72,0-1.38.39-1.74,1.01Z"/><path d="m8.86,18.74l-2.58-7.74h-3.72c.04.05.06.11.1.17l6.2,7.58Z"/></svg>