<svg xmlns="http://www.w3.org/2000/svg" viewBox="0 0 24 24" width="24" height="24"><path d="m21.79,9.01c-.12-1.17-.31-2.31-.56-3.33-.26-1.02-.56-1.83-.91-2.4-.5-.85-1.12-1.28-1.83-1.28s-1.33.43-1.83,1.28c-.23.39-.45.89-.65,1.49-2.5-1.01-5.56-1.01-8.05,0-.2-.6-.41-1.1-.64-1.48-.5-.85-1.12-1.28-1.83-1.28s-1.33.43-1.83,1.28c-.35.58-.65,1.39-.91,2.42-.25,1-.44,2.15-.55,3.31-.14,1.25-.21,2.59-.21,4,0,.65.08,1.31.25,1.97-.17.43-.25.86-.25,1.29,0,2.84,3.43,5.14,8.1,5.63.81-.26,1.4-1,1.4-1.9v-.3c0-.41-.26-.78-.65-.93-1.09-.43-1.85-1.43-1.85-2.44,0-.74,1.34-1.33,3-1.33s3,.6,3,1.33c0,1.01-.77,2.01-1.85,2.44-.39.15-.65.51-.65.93v.3c0,.89.59,1.64,1.4,1.9,4.67-.5,8.1-2.79,8.1-5.63,0-.43-.08-.86-.25-1.29.17-.66.25-1.32.25-1.97,0-1.41-.07-2.75-.21-3.99Zm-14.29,4.99c-.83,0-1.5-.67-1.5-1.5s.67-1.5,1.5-1.5,1.5.67,1.5,1.5-.67,1.5-1.5,1.5Zm9,0c-.83,0-1.5-.67-1.5-1.5s.67-1.5,1.5-1.5,1.5.67,1.5,1.5-.67,1.5-1.5,1.5Z"/></svg>