<svg xmlns="http://www.w3.org/2000/svg" viewBox="0 0 24 24" width="24" height="24"><path d="m16.26,2.95c-1.25-.59-2.74-.95-4.15-.95-4.26,0-6.81,3.53-6.54,6.98.12,1.56.89,3.07,2.16,4.25.45.43.96.79,1.51,1.08-.41-.49-.69-1.09-.79-1.73-.28-1.73.86-4.28,3.78-4.28,3.14,0,6.61,2.99,6.9,6.66.18,2.25-.67,4.27-2.11,5.69,2.98-1.73,4.98-4.96,4.98-8.65,0-4-2.35-7.45-5.74-9.05Z"/><path d="m18.43,15.02c-.12-1.56-.89-3.07-2.16-4.25-.45-.43-.96-.79-1.51-1.08.41.49.69,1.09.79,1.73.28,1.73-.86,4.28-3.78,4.28-3.14,0-6.61-2.99-6.9-6.66-.18-2.25.67-4.27,2.11-5.69-2.98,1.73-4.98,4.96-4.98,8.65,0,4,2.35,7.45,5.74,9.05,1.25.59,2.74.95,4.15.95,4.26,0,6.81-3.53,6.54-6.98Z"/></svg>