<svg xmlns="http://www.w3.org/2000/svg" viewBox="0 0 24 24" width="24" height="24"><path d="m12,9c-3.58,0-6.5,2.92-6.5,6.5s2.92,6.5,6.5,6.5,6.5-2.92,6.5-6.5-2.92-6.5-6.5-6.5Zm0,11.5c-2.76,0-5-2.24-5-5s2.24-5,5-5,5,2.24,5,5-2.24,5-5,5Z"/><path d="m12,14.89c-1.22,0-1.22-.38-1.22-.61,0-.29.43-.61,1.22-.61.72,0,.84.39.85.62h.61s.61-.01.61-.01c0-.62-.41-1.5-1.46-1.75v-.68h-1.22v.66c-1.2.2-1.83.99-1.83,1.77,0,.68.32,1.83,2.43,1.83,1.22,0,1.22.41,1.22.61,0,.25-.38.61-1.22.61-1.12,0-1.21-.52-1.22-.61h-1.22c0,.56.4,1.55,1.83,1.78v.66h1.22v-.66c1.2-.2,1.83-.99,1.83-1.77,0-.68-.32-1.83-2.43-1.83Z"/><path d="M9.88 8 12 6.59 14.12 8 13.41 5.71 15 4.12 12.96 3.94 12 2 11.04 3.94 9 4.12 10.59 5.71 9.88 8z"/><path d="M20.3 7.62 19.5 6 18.7 7.62 17 7.76 18.32 9.09 17.74 11 19.5 9.82 21.26 11 20.68 9.09 22 7.76 20.3 7.62z"/><path d="M5.68 9.09 7 7.76 5.3 7.62 4.5 6 3.7 7.62 2 7.76 3.32 9.09 2.74 11 4.5 9.82 6.26 11 5.68 9.09z"/></svg>