<svg xmlns="http://www.w3.org/2000/svg" viewBox="0 0 24 24" width="24" height="24"><path d="m21.32,12.05l-2.23-.74c-.81-.27-1.69-.11-2.35.42l-3.4,2.72-1.17-2.34c-.34-.68-1.03-1.11-1.79-1.11h-6.38c-1.1,0-2,.9-2,2v6c0,1.1.9,2,2,2h9.62c1.17,0,2.28-.51,3.04-1.4l5.1-5.95c.22-.25.29-.6.2-.92s-.33-.58-.65-.68Zm-6.18,6.25c-.38.44-.93.7-1.52.7H4v-6h6.38l1,2h-4.38v2h6c.23,0,.45-.08.63-.22l4.36-3.49c.13-.11.31-.14.47-.08l.81.27-4.13,4.82Z"/><path d="m13.28,10.69c.19.2.45.31.72.31s.54-.11.72-.31l3.4-3.57c.57-.57.88-1.32.88-2.12s-.31-1.55-.88-2.12c-.57-.57-1.32-.88-2.12-.88-.06,0-1,.02-2,.7-1-.68-1.85-.74-2-.7-.8,0-1.56.31-2.12.88-.57.57-.88,1.32-.88,2.12s.31,1.56.86,2.1l3.41,3.59Zm-1.98-6.4c.19-.19.44-.29.68-.29.03,0,.65.04,1.31.71.39.39,1.02.39,1.41,0,.67-.67,1.29-.71,1.29-.71.27,0,.52.1.71.29h0c.19.19.29.44.29.71s-.1.52-.31.72l-2.69,2.83-2.71-2.84c-.19-.19-.29-.44-.29-.71s.1-.52.29-.71Z"/></svg>