<svg xmlns="http://www.w3.org/2000/svg" viewBox="0 0 24 24" width="24" height="24"><path d="m18.03,9.98l.95-4.29c.26-1.19-.18-2.37-1.16-3.09-.98-.72-2.24-.79-3.29-.19l-2.53,1.45-2.53-1.45c-1.05-.6-2.32-.53-3.29.19s-1.42,1.9-1.16,3.09l.95,4.29-2.94,10.76c-.08.3-.02.62.17.87.19.25.48.39.79.39h16c.31,0,.61-.15.79-.39.19-.25.25-.57.17-.87l-2.94-10.76ZM7.36,4.2c.13-.09.58-.37,1.12-.06l3.03,1.73c.31.18.68.18.99,0l3.03-1.73c.54-.31.99-.03,1.12.07.13.09.53.44.39,1.05l-.83,3.75H7.8l-.83-3.75c-.13-.6.27-.96.39-1.05Zm7.64,15.8v-6h-2v6h-2v-6h-2v6h-3.69l2.45-9h8.47l2.45,9h-3.69Z"/></svg>