<svg xmlns="http://www.w3.org/2000/svg" viewBox="0 0 24 24" width="24" height="24"><path d="m16.91,2.29c-.39-.39-1.02-.39-1.41,0l-1.59,1.59-1.09-1.09c-.39-.39-1.02-.39-1.41,0l-2.3,2.3c-.19.19-.29.44-.29.71s.11.52.29.71l3.49,3.49-2.59,2.59-3.49-3.49c-.39-.39-1.02-.39-1.41,0l-2.3,2.3c-.39.39-.39,1.02,0,1.41l1.09,1.09-1.59,1.59c-.39.39-.39,1.02,0,1.41l4.8,4.8c.2.2.45.29.71.29s.51-.1.71-.29l1.59-1.59,1.09,1.09c.2.2.45.29.71.29s.51-.1.71-.29l2.3-2.3c.19-.19.29-.44.29-.71s-.11-.52-.29-.71l-3.49-3.49,2.59-2.59,3.49,3.49c.2.2.45.29.71.29s.51-.1.71-.29l2.3-2.3c.39-.39.39-1.02,0-1.41l-1.09-1.09,1.59-1.59c.39-.39.39-1.02,0-1.41l-4.8-4.8ZM7.8,19.59l-3.39-3.39.89-.89,3.39,3.39-.89.89Zm4.1-.5l-6.99-6.99.89-.89,6.99,6.99-.89.89Zm6.3-6.3l-6.99-6.99.89-.89,6.99,6.99-.89.89Zm-2-8.37l3.39,3.39-.89.89-3.39-3.39.89-.89Z"/></svg>