<svg xmlns="http://www.w3.org/2000/svg" viewBox="0 0 24 24" width="24" height="24"><path d="m21.03,12.74c.57-.14.97-.65.97-1.24s-.4-1.1-.97-1.24l-1.03-.26c0-1.11-.31-2.14-.83-3.03l.44-.66c.33-.49.28-1.14-.12-1.57s-1.04-.54-1.55-.27l-.79.43c-.92-.57-1.99-.9-3.14-.9l-.26-1.03c-.14-.57-.65-.97-1.24-.97s-1.1.4-1.24.97l-.26,1.03h-2.5c-3.58,0-6.5,2.92-6.5,6.5s2.92,6.5,6.5,6.5h.5v4c0,.55.45,1,1,1h9c.55,0,1-.45,1-1v-2l1.03-.26c.57-.14.97-.65.97-1.24s-.4-1.1-.97-1.24l-1.03-.26v-3l1.03-.26Zm-3.03,7.26h-7v-3h3v-2h-5.5c-2.48,0-4.5-2.02-4.5-4.5s2.02-4.5,4.5-4.5h5.5c2.21,0,4,1.79,4,4v10Z"/><path d="M12.5 8A1.5 1.5 0 1 0 12.5 11 1.5 1.5 0 1 0 12.5 8z"/><path d="M6.5 9A.5.5 0 1 0 6.5 10 .5.5 0 1 0 6.5 9z"/></svg>