<svg xmlns="http://www.w3.org/2000/svg" viewBox="0 0 24 24" width="24" height="24"><path d="m20.95,9.73c-.6-.84-1.41-1.51-2.33-1.92-1.35-.6-2.28-1.41-2.78-2.39-1.09-2.17-2.9-3.36-5.23-3.42-2.82-.1-5.29,1.64-6.16,4.27-.33.99-.42,1.98-.26,2.97.18,1.11-.45,2.1-.84,2.59-1.13,1.42-1.58,3.21-1.25,5.02.46,2.55,2.55,4.62,5.1,5.05.36.06.73.09,1.09.09,1.58,0,3.1-.59,4.27-1.68.77-.71,1.99-1.55,3.54-1.51,1.92.06,3.64-.8,4.78-2.34,1.46-1.97,1.48-4.74.06-6.74h0Zm-9.95,5.27c-1.65,0-3-1.35-3-3s1.35-3,3-3,3,1.35,3,3-1.35,3-3,3Z"/></svg>