<svg xmlns="http://www.w3.org/2000/svg" viewBox="0 0 24 24" width="24" height="24"><path d="m14.5,18.56c0-2.05-1.68-3.38-2.5-3.91-.82.53-2.5,1.86-2.5,3.91,0,1.62,1.12,2.94,2.5,2.94s2.5-1.32,2.5-2.94Z"/><path d="m18.78,7.39c-.32-.03-.62.09-.83.32-.77.84-1.82,1.31-2.94,1.31-2.21,0-4.01-1.8-4.01-4.01,0-.27.03-.56.1-.87.08-.39-.07-.79-.38-1.02-.32-.24-.75-.26-1.09-.06-2.47,1.42-6.63,4.61-6.63,9.95,0,3.59,2.12,6.7,5.18,8.14-.42-.75-.68-1.63-.68-2.57,0-3.96,3.9-5.88,4.07-5.96.28-.13.59-.13.87,0,.17.08,4.07,2.01,4.07,5.96,0,.95-.26,1.82-.68,2.57,3.05-1.44,5.18-4.54,5.18-8.14,0-1.82-.49-3.55-1.47-5.14-.16-.27-.44-.44-.76-.47Z"/></svg>