<svg xmlns="http://www.w3.org/2000/svg" viewBox="0 0 24 24" width="24" height="24"><path d="M8.5 12A1.5 1.5 0 1 0 8.5 15 1.5 1.5 0 1 0 8.5 12z"/><path d="M15.5 12A1.5 1.5 0 1 0 15.5 15 1.5 1.5 0 1 0 15.5 12z"/><path d="m12,2C6.49,2,2,6.49,2,12s4.49,10,10,10,10-4.49,10-10S17.51,2,12,2Zm0,18c-4.41,0-8-3.59-8-8,0-3.38,2.11-6.28,5.09-7.44-.38.57-.59,1.24-.59,1.94,0,.93.36,1.81,1.03,2.47.66.66,1.54,1.03,2.47,1.03s1.75-.35,2.41-.97h0s.02-.02.04-.04c0,0,.02-.01.02-.02h0c.34-.37.53-.85.53-1.35,0-.53-.21-1.04-.59-1.41-.76-.76-2.07-.76-2.83,0-.38.38-.59.88-.59,1.41h1c0-.27.1-.52.29-.71.38-.38,1.04-.38,1.41,0,.19.19.29.44.29.71,0,.25-.1.49-.27.67-.95.91-2.56.9-3.5-.03-.47-.47-.73-1.1-.73-1.77s.26-1.29.73-1.77,1.1-.73,1.77-.73c4.41,0,8,3.59,8,8s-3.59,8-8,8Z"/></svg>