<svg xmlns="http://www.w3.org/2000/svg" viewBox="0 0 24 24" width="24" height="24"><path d="M8.5 12A1.5 1.5 0 1 0 8.5 15 1.5 1.5 0 1 0 8.5 12z"/><path d="M15.5 12A1.5 1.5 0 1 0 15.5 15 1.5 1.5 0 1 0 15.5 12z"/><path d="m12,22c5.51,0,10-4.49,10-10S17.51,2,12,2,2,6.49,2,12s4.49,10,10,10Zm-7.86-11.48c.92.31,1.87.48,2.86.48.31,0,.62-.02.93-.05.11-.01.23-.04.34-.05.18-.03.37-.05.55-.08,0,0,.02,0,.03,0,.12-.03.25-.06.37-.1.17-.04.33-.08.5-.13.17-.05.33-.12.49-.18.1-.04.21-.07.31-.11.01,0,.02-.01.04-.02.16-.07.32-.15.48-.23.11-.05.21-.1.32-.16.15-.08.29-.17.44-.26.08-.05.17-.1.26-.16.03-.02.05-.04.07-.05.12-.08.24-.18.36-.27.12-.09.25-.19.37-.29.09-.08.19-.17.28-.25.09-.08.18-.15.26-.24.05-.05.1-.11.14-.16.03-.03.06-.06.09-.08,1.48,2.12,3.82,3.53,6.4,3.82,0,.02,0,.04,0,.06,0,4.41-3.59,8-8,8s-8-3.59-8-8c0-.5.05-1,.14-1.48Z"/></svg>