<svg xmlns="http://www.w3.org/2000/svg" viewBox="0 0 24 24" width="24" height="24"><path d="m21,3h-5.69c-1.24,0-2.31.93-2.48,2.16l-.53,3.84h-3.2c-1.52,0-2.83,1.08-3.07,2.5-.14.88.1,1.77.67,2.44s1.4,1.06,2.29,1.06h5.85l-.33.68c-.46.94-.4,2.02.15,2.91.55.89,1.5,1.41,2.55,1.41h.16c.41,0,.79-.2,1.02-.53l3.43-4.89c.12-.17.18-.37.18-.57V4c0-.55-.45-1-1-1Zm-1,10.68l-3.01,4.29c-.36-.08-.56-.33-.63-.45-.09-.14-.27-.52-.05-.97l1.04-2.12c.15-.31.13-.68-.05-.97s-.5-.47-.85-.47h-7.45c-.29,0-.57-.13-.76-.35-.19-.23-.27-.52-.22-.82.08-.46.56-.83,1.09-.83h4.07c.5,0,.92-.37.99-.86l.65-4.7c.03-.25.25-.43.5-.43h4.69v8.68Z"/><path d="m4,12.5c0-3.4,1.82-6.28,4.31-7.19l1.69,1.69V2h-5l1.8,1.8c-2.82,1.47-4.8,4.81-4.8,8.7,0,5.24,3.59,9.5,8,9.5v-2c-3.31,0-6-3.36-6-7.5Z"/></svg>