<svg xmlns="http://www.w3.org/2000/svg" viewBox="0 0 24 24" width="24" height="24"><path d="m18.84,12.83l-3.84-.53v-3.2c0-1.52-1.08-2.83-2.5-3.07-.88-.14-1.77.1-2.44.67-.67.57-1.06,1.4-1.06,2.29v5.85l-.68-.33c-.94-.46-2.02-.4-2.91.15-.89.55-1.41,1.5-1.41,2.55v.16c0,.41.2.79.53,1.02l4.89,3.43c.17.12.37.18.57.18h10c.55,0,1-.45,1-1v-5.69c0-1.24-.93-2.31-2.16-2.48Zm.16,7.17h-8.68l-4.29-3.01c.08-.36.33-.56.45-.63.14-.09.52-.27.97-.05l2.12,1.04c.31.15.68.13.97-.05s.47-.5.47-.85v-7.45c0-.29.13-.57.35-.76.23-.19.52-.27.82-.22.46.08.82.55.82,1.09v4.07c0,.5.37.92.86.99l4.7.65c.25.03.43.25.43.5v4.69Z"/><path d="m12,4c2.76,0,5,2.24,5,5h2c0-3.86-3.14-7-7-7s-7,3.14-7,7h2c0-2.76,2.24-5,5-5Z"/></svg>