<svg xmlns="http://www.w3.org/2000/svg" viewBox="0 0 24 24" width="24" height="24"><path d="m16.76,5.45h0c-.65-2.02-2.55-3.45-4.75-3.45s-4.1,1.43-4.75,3.45h0c-2.13,0-4.08,1.37-4.75,3.46-.68,2.1.1,4.34,1.82,5.59-.66,2.02.03,4.29,1.81,5.59.88.64,1.92.95,2.94.95s2.07-.32,2.94-.94c1.72,1.24,4.1,1.28,5.88,0,1.78-1.3,2.47-3.57,1.81-5.59,1.72-1.25,2.5-3.49,1.82-5.59-.68-2.09-2.62-3.46-4.75-3.46Zm-.76,6.57c-.02,2.21-1.76,3.96-3.97,3.98-2.27-.02-4.01-1.76-4.03-3.97.02-2.27,1.76-4.01,3.97-4.03,2.27.02,4.01,1.76,4.03,3.97v.05Z"/></svg>