<svg xmlns="http://www.w3.org/2000/svg" viewBox="0 0 24 24" width="24" height="24"><path d="M8.5 12A1.5 1.5 0 1 0 8.5 15 1.5 1.5 0 1 0 8.5 12z"/><path d="M15.5 12A1.5 1.5 0 1 0 15.5 15 1.5 1.5 0 1 0 15.5 12z"/><path d="m12,2C6.49,2,2,6.49,2,12s4.49,10,10,10,10-4.49,10-10S17.51,2,12,2Zm7.8,8.26l-1.68-1.34c-.72-.57-1.13-1.43-1.13-2.34v-.81c1.39,1.12,2.4,2.69,2.8,4.5ZM7,5.76v.81c0,.92-.41,1.77-1.13,2.34l-1.68,1.34c.4-1.8,1.41-3.38,2.8-4.5Zm5,14.24c-4.09,0-7.48-3.09-7.94-7.07l3.06-2.45c1.19-.95,1.88-2.38,1.88-3.9v-1.99c.93-.38,1.94-.59,3-.59s2.07.21,3,.59v1.99c0,1.53.68,2.95,1.88,3.91l3.06,2.45c-.46,3.97-3.85,7.07-7.94,7.07Z"/></svg>