<svg xmlns="http://www.w3.org/2000/svg" viewBox="0 0 24 24" width="24" height="24"><path d="m4.19,14.16l5.81.73v4.12c0,1.65,1.35,3,3,3s3-1.35,3-3v-9.38l.58.29c1.58.79,3.5.28,4.48-1.19l.22-.33c.3-.44.4-.98.3-1.5-.1-.52-.41-.98-.85-1.27l-5.17-3.45c-.16-.11-.36-.17-.55-.17H3c-.55,0-1,.45-1,1v8.68c0,1.26.94,2.32,2.19,2.48Zm-.19-10.16h10.7l4.92,3.28-.22.33c-.42.63-1.24.85-1.92.51l-2.03-1.01c-.31-.15-.68-.14-.97.04-.29.18-.47.5-.47.85v11c0,.55-.45,1-1,1s-1-.45-1-1v-5c0-.5-.38-.93-.88-.99l-6.69-.84c-.25-.03-.44-.24-.44-.5v-7.68Z"/></svg>