<svg xmlns="http://www.w3.org/2000/svg" viewBox="0 0 24 24" width="24" height="24"><path d="m7,1c-2.57,0-5,3.4-5,7,0,2.76.79,5.47,1,6.16v1.84c0,1.65,1.35,3,3,3s3-1.35,3-3v-2c0-1.31.45-2.43.93-3.63.53-1.32,1.07-2.68,1.07-4.37,0-2.48-1.38-5-4-5Zm0,15c0,.55-.45,1-1,1s-1-.45-1-1v-2h2v2Zm1.07-6.37c-.3.75-.6,1.53-.81,2.37h-2.77c-.25-1.08-.5-2.55-.5-4,0-2.58,1.69-5,3-5,1.58,0,2,1.96,2,3,0,1.31-.45,2.43-.93,3.63Z"/><path d="m17,5c-2.62,0-4,2.52-4,5,0,1.69.54,3.05,1.07,4.37.48,1.19.93,2.32.93,3.63v2c0,1.65,1.35,3,3,3s3-1.35,3-3v-1.84c.21-.68,1-3.4,1-6.16,0-3.6-2.43-7-5-7Zm2,15c0,.55-.45,1-1,1s-1-.45-1-1v-2h2v2Zm.5-4h-2.77c-.21-.84-.5-1.62-.81-2.37-.48-1.19-.93-2.32-.93-3.63,0-1.04.42-3,2-3,1.31,0,3,2.42,3,5,0,1.45-.25,2.92-.5,4Z"/></svg>