<svg xmlns="http://www.w3.org/2000/svg" viewBox="0 0 24 24" width="24" height="24"><path d="m12.5,2c-3.89,0-7.23,1.98-8.7,4.8l-1.8-1.8v5h5l-1.69-1.69c.92-2.49,3.79-4.31,7.19-4.31,4.14,0,7.5,2.69,7.5,6h2c0-4.41-4.26-8-9.5-8Z"/><path d="m12.5,6.04c-.88-.14-1.77.1-2.44.67-.67.57-1.06,1.4-1.06,2.29v5.85l-.68-.33c-.94-.46-2.02-.4-2.91.15-.89.55-1.41,1.5-1.41,2.55v.16c0,.41.2.79.53,1.02l4.89,3.43c.17.12.37.18.57.18h10c.55,0,1-.45,1-1v-5.69c0-1.24-.93-2.31-2.16-2.48l-3.84-.53v-3.2c0-1.52-1.08-2.83-2.5-3.07Zm6.07,8.77c.25.03.43.25.43.5v4.69h-8.68l-4.29-3.01c.08-.36.33-.56.45-.63.14-.09.52-.27.97-.05l2.12,1.04c.31.15.68.13.97-.05.29-.18.47-.5.47-.85v-7.45c0-.29.13-.57.35-.76.23-.19.52-.27.82-.22.46.08.82.55.82,1.09v4.07c0,.5.37.92.86.99l4.7.65Z"/></svg>