<svg xmlns="http://www.w3.org/2000/svg" viewBox="0 0 24 24" width="24" height="24"><path d="m6.95,16.12c1.09,1.17,2.46,2.01,3.94,2.42v3.45h.56c2.65,0,4.63-1.4,4.96-3.46,3.27-1.05,5.6-3.75,5.6-6.54s-2.33-5.49-5.6-6.54c-.33-2.06-2.3-3.46-4.96-3.46h-.56v3.45c-1.48.41-2.85,1.26-3.94,2.42-1.16-.94-2.67-1.43-4.4-1.43h-.56v.56c0,2.01.82,3.73,2.39,5-1.57,1.27-2.39,2.99-2.39,5v.56h.56c1.73,0,3.24-.49,4.4-1.43Zm11.05-6.12c.55,0,1,.45,1,1s-.45,1-1,1-1-.45-1-1,.45-1,1-1Zm-3.39-1.89l.71.71c-.85.85-1.32,1.98-1.32,3.18s.47,2.33,1.32,3.18l-.71.71c-1.04-1.04-1.61-2.42-1.61-3.89s.57-2.85,1.61-3.89Z"/></svg>