<svg xmlns="http://www.w3.org/2000/svg" viewBox="0 0 24 24" width="24" height="24"><path d="m12,22c4.41,0,8-3.59,8-8,0-7.49-7.2-11.69-7.5-11.87-.31-.18-.68-.18-.99,0-.31.17-7.5,4.37-7.5,11.87,0,4.41,3.59,8,8,8Zm-2-4.5c0-2.03,1.2-3.92,2-4.96.8,1.04,2,2.93,2,4.96,0,1.38-.9,2.5-2,2.5s-2-1.12-2-2.5Zm2-13.31c1.52,1.03,6,4.52,6,9.81,0,1.83-.83,3.48-2.13,4.58.08-.35.13-.7.13-1.08,0-3.87-3.16-7.07-3.29-7.21-.39-.39-1.02-.39-1.41,0-.13.13-3.29,3.34-3.29,7.21,0,.37.05.73.13,1.08-1.3-1.1-2.13-2.74-2.13-4.58,0-5.28,4.48-8.78,6-9.81Z"/></svg>