<svg xmlns="http://www.w3.org/2000/svg" viewBox="0 0 24 24" width="24" height="24"><path d="m12,22c1.38,0,3.27-3.4,3.48-9h-6.96c.2,5.6,2.1,9,3.48,9Z"/><path d="m12,2c-1.38,0-3.27,3.4-3.48,9h6.96c-.2-5.6-2.1-9-3.48-9Z"/><path d="m15.53,2.65c1.17,2.12,1.83,5.22,1.95,8.35h4.47c-.38-3.83-2.94-7.03-6.42-8.35Z"/><path d="m15.53,21.35c3.48-1.32,6.04-4.51,6.42-8.35h-4.47c-.12,3.12-.78,6.23-1.95,8.35Z"/><path d="m2.05,13c.38,3.83,2.94,7.03,6.42,8.35-1.17-2.12-1.83-5.22-1.95-8.35H2.05Z"/><path d="m2.05,11h4.47c.12-3.12.78-6.23,1.95-8.35-3.48,1.32-6.04,4.51-6.42,8.35Z"/></svg>