<svg xmlns="http://www.w3.org/2000/svg" viewBox="0 0 24 24" width="24" height="24"><path d="m3,19c0,1.65,1.35,3,3,3s3-1.35,3-3c0-1.3-.84-2.4-2-2.82V7.82c1.16-.41,2-1.51,2-2.82,0-1.65-1.35-3-3-3s-3,1.35-3,3c0,1.3.84,2.4,2,2.82v8.37c-1.16.41-2,1.51-2,2.82Z"/><path d="m17,9v7.18c-1.16.41-2,1.51-2,2.82,0,1.65,1.35,3,3,3s3-1.35,3-3c0-1.3-.84-2.4-2-2.82v-7.18h-2Z"/><path d="M19.79 1.79 18 3.59 16.21 1.79 14.79 3.21 16.59 5 14.79 6.79 16.21 8.21 18 6.41 19.79 8.21 21.21 6.79 19.41 5 21.21 3.21 19.79 1.79z"/></svg>