<svg xmlns="http://www.w3.org/2000/svg" viewBox="0 0 24 24" width="24" height="24"><path d="m10,2H3c-.55,0-1,.45-1,1v7c0,.55.45,1,1,1h7c.55,0,1-.45,1-1V3c0-.55-.45-1-1-1Zm-1,7h-5v-5h5v5Z"/><path d="m17.5,13c-2.48,0-4.5,2.02-4.5,4.5s2.02,4.5,4.5,4.5,4.5-2.02,4.5-4.5-2.02-4.5-4.5-4.5Zm0,7c-1.38,0-2.5-1.12-2.5-2.5s1.12-2.5,2.5-2.5,2.5,1.12,2.5,2.5-1.12,2.5-2.5,2.5Z"/><path d="M9.54 13.04 6.5 16.09 3.46 13.04 2.04 14.46 5.09 17.5 2.04 20.54 3.46 21.96 6.5 18.91 9.54 21.96 10.96 20.54 7.91 17.5 10.96 14.46 9.54 13.04z"/><path d="m18.37,2.5c-.36-.62-1.38-.62-1.74,0l-4,7c-.18.31-.18.69,0,1,.18.31.51.5.86.5h8c.36,0,.69-.19.86-.5.18-.31.18-.69,0-1l-4-7Zm-3.15,6.5l2.28-3.98,2.28,3.98h-4.55Z"/></svg>