<svg xmlns="http://www.w3.org/2000/svg" viewBox="0 0 24 24" width="24" height="24"><path d="m9.68,16.58c.55,3.43,1.64,5.42,2.32,5.42s1.76-1.98,2.32-5.42c-.76.05-1.54.08-2.32.08s-1.55-.03-2.32-.08Z"/><path d="m14.32,7.42c-.55-3.43-1.64-5.42-2.32-5.42s-1.76,1.98-2.32,5.42c.76-.05,1.54-.08,2.32-.08s1.55.03,2.32.08Z"/><path d="m16.58,9.68c.05.76.08,1.54.08,2.32s-.03,1.55-.08,2.32c3.43-.55,5.42-1.64,5.42-2.32s-1.98-1.76-5.42-2.32Z"/><path d="m21.56,9.07c-.97-3.16-3.47-5.66-6.63-6.63.68,1.36,1.16,3.18,1.44,5.19,2.01.28,3.83.77,5.19,1.44Z"/><path d="m12,9.33c-.91,0-1.76.04-2.56.11-.07.8-.11,1.65-.11,2.56s.04,1.76.11,2.56c.8.07,1.65.11,2.56.11s1.76-.04,2.56-.11c.07-.8.11-1.65.11-2.56s-.04-1.76-.11-2.56c-.8-.07-1.65-.11-2.56-.11Z"/><path d="m2.44,14.93c.97,3.16,3.47,5.66,6.63,6.63-.68-1.36-1.16-3.18-1.44-5.19-2.01-.28-3.83-.77-5.19-1.44Z"/><path d="m14.93,21.56c3.16-.97,5.66-3.47,6.63-6.63-1.36.68-3.18,1.16-5.19,1.44-.28,2.01-.77,3.83-1.44,5.19Z"/><path d="m2.44,9.07c1.36-.68,3.18-1.16,5.19-1.44.28-2.01.77-3.83,1.44-5.19-3.16.97-5.66,3.47-6.63,6.63Z"/><path d="m7.33,12c0-.78.03-1.55.08-2.32-3.43.55-5.42,1.64-5.42,2.32s1.98,1.76,5.42,2.32c-.05-.76-.08-1.54-.08-2.32Z"/></svg>