<svg xmlns="http://www.w3.org/2000/svg" viewBox="0 0 24 24" width="24" height="24"><path d="m20.83,14.64c.1-.54.17-1.09.17-1.64,0-3.78-2.35-7.11-5.82-8.41-.31-1.48-1.62-2.59-3.18-2.59s-2.88,1.11-3.18,2.59c-3.47,1.31-5.82,4.63-5.82,8.41,0,.55.07,1.1.17,1.64-.71.55-1.17,1.4-1.17,2.36,0,1.65,1.35,3,3,3,.39,0,.76-.08,1.1-.21,1.64,1.43,3.7,2.21,5.9,2.21s4.27-.78,5.9-2.21c.34.13.71.21,1.1.21,1.65,0,3-1.35,3-3,0-.96-.46-1.81-1.17-2.36ZM12,4c.69,0,1.25.56,1.25,1.25s-.56,1.25-1.25,1.25-1.25-.56-1.25-1.25.56-1.25,1.25-1.25Zm-8,13c0-.55.45-1,1-1s1,.45,1,1-.45,1-1,1-1-.45-1-1Zm3.61,1.45c.24-.43.39-.92.39-1.45,0-1.63-1.31-2.95-2.92-2.99-.05-.33-.08-.67-.08-1.01,0-2.77,1.63-5.23,4.08-6.35.52,1.09,1.63,1.85,2.92,1.85s2.4-.76,2.92-1.85c2.45,1.12,4.08,3.58,4.08,6.35,0,.34-.03.68-.08,1.01-1.62.04-2.92,1.36-2.92,2.99,0,.53.15,1.02.39,1.45-1.24,1-2.77,1.55-4.39,1.55s-3.15-.55-4.39-1.55Zm11.39-.45c-.55,0-1-.45-1-1s.45-1,1-1,1,.45,1,1-.45,1-1,1Z"/></svg>