<svg xmlns="http://www.w3.org/2000/svg" width="24" height="24"><path d="M7 16H3c-.55 0-1 .45-1 1v4c0 .55.45 1 1 1h4c.55 0 1-.45 1-1v-4c0-.55-.45-1-1-1m-1 4H4v-2h2zM14 16h-4c-.55 0-1 .45-1 1v4c0 .55.45 1 1 1h4c.55 0 1-.45 1-1v-4c0-.55-.45-1-1-1m-1 4h-2v-2h2zM21 16h-4c-.55 0-1 .45-1 1v4c0 .55.45 1 1 1h4c.55 0 1-.45 1-1v-4c0-.55-.45-1-1-1m-1 4h-2v-2h2zM7 9H3c-.55 0-1 .45-1 1v4c0 .55.45 1 1 1h4c.55 0 1-.45 1-1v-4c0-.55-.45-1-1-1m-1 4H4v-2h2zM14 9h-4c-.55 0-1 .45-1 1v4c0 .55.45 1 1 1h4c.55 0 1-.45 1-1v-4c0-.55-.45-1-1-1m-1 4h-2v-2h2zM21 9h-4c-.55 0-1 .45-1 1v4c0 .55.45 1 1 1h4c.55 0 1-.45 1-1v-4c0-.55-.45-1-1-1m-1 4h-2v-2h2zM7 2H3c-.55 0-1 .45-1 1v4c0 .55.45 1 1 1h4c.55 0 1-.45 1-1V3c0-.55-.45-1-1-1M6 6H4V4h2zM14 2h-4c-.55 0-1 .45-1 1v4c0 .55.45 1 1 1h4c.55 0 1-.45 1-1V3c0-.55-.45-1-1-1m-1 4h-2V4h2zM21 2h-4c-.55 0-1 .45-1 1v4c0 .55.45 1 1 1h4c.55 0 1-.45 1-1V3c0-.55-.45-1-1-1m-1 4h-2V4h2z"/></svg>