<svg xmlns="http://www.w3.org/2000/svg" viewBox="0 0 24 24" width="24" height="24"><path d="m21,13H3c-.55,0-1,.45-1,1v5c0,1.65,1.35,3,3,3h14c1.65,0,3-1.35,3-3v-5c0-.55-.45-1-1-1Z"/><path d="M5.5 2A2.5 2.5 0 1 0 5.5 7 2.5 2.5 0 1 0 5.5 2z"/><path d="m16.89,6.45c.52-1.04,1.11-2.21,1.11-4.45h-2c0,1.76-.41,2.59-.89,3.55-.52,1.04-1.11,2.21-1.11,4.45h2c0-1.76.41-2.59.89-3.55Z"/><path d="m20,10c0-1.76.41-2.59.89-3.55.52-1.04,1.11-2.21,1.11-4.45h-2c0,1.76-.41,2.59-.89,3.55-.52,1.04-1.11,2.21-1.11,4.45h2Z"/><path d="m6.5,8c-2.31,0-4.2,1.75-4.45,4h9.56c-1.75-2.26-2.8-4-5.11-4Z"/></svg>