<svg xmlns="http://www.w3.org/2000/svg" viewBox="0 0 24 24" width="24" height="24"><path d="m16.89,6.45c.52-1.04,1.11-2.21,1.11-4.45h-2c0,1.76-.41,2.59-.89,3.55-.52,1.04-1.11,2.21-1.11,4.45h2c0-1.76.41-2.59.89-3.55Z"/><path d="m11.11,5.55c-.52,1.04-1.11,2.21-1.11,4.45h2c0-1.76.41-2.59.89-3.55.52-1.04,1.11-2.21,1.11-4.45h-2c0,1.76-.41,2.59-.89,3.55Z"/><path d="m19.11,5.55c-.52,1.04-1.11,2.21-1.11,4.45h2c0-1.76.41-2.59.89-3.55.52-1.04,1.11-2.21,1.11-4.45h-2c0,1.76-.41,2.59-.89,3.55Z"/><path d="m20,15c-.51,0-.72-.13-1.07-.35-.44-.27-1.04-.65-2.13-.65s-1.69.38-2.13.65c-.35.22-.56.35-1.07.35s-.72-.13-1.07-.35c-.44-.28-1.04-.65-2.13-.65s-1.69.38-2.13.65c-.35.22-.56.35-1.07.35s-.72-.13-1.07-.35c-.44-.28-1.04-.65-2.13-.65v-2h-2v7c0,1.65,1.35,3,3,3h14c1.65,0,3-1.35,3-3v-7h-2v3Z"/></svg>