<svg xmlns="http://www.w3.org/2000/svg" viewBox="0 0 24 24" width="24" height="24"><path d="m20.5,5c-.83,0-1.5.67-1.5,1.5v7c0,1.38-1.12,2.5-2.5,2.5-.64,0-1.22-.25-1.66-.65-.35.96-1.26,1.65-2.34,1.65-1.38,0-2.5-1.12-2.5-2.5V4.5c0-.83-.67-1.5-1.5-1.5s-1.5.67-1.5,1.5v11.81l-2.22-3.6c-.44-.71-1.36-.93-2.07-.49-.71.44-.93,1.36-.49,2.07l3.31,5.34c.91,1.47,2.52,2.37,4.25,2.37h7.22c2.76,0,5-2.24,5-5V6.5c0-.83-.67-1.5-1.5-1.5Z"/><path d="m12.5,16c.83,0,1.5-.67,1.5-1.5v-4c0-.83-.67-1.5-1.5-1.5s-1.5.67-1.5,1.5v4c0,.83.67,1.5,1.5,1.5Z"/><path d="m16.5,15c.83,0,1.5-.67,1.5-1.5v-3c0-.83-.67-1.5-1.5-1.5s-1.5.67-1.5,1.5v3c0,.83.67,1.5,1.5,1.5Z"/></svg>