<svg xmlns="http://www.w3.org/2000/svg" viewBox="0 0 24 24" width="24" height="24"><path d="m12.13,2s-.08,0-.12,0c-2.58,0-5.02,1.02-6.9,2.87-1.9,1.88-3.01,4.46-3.09,7.13h-.02v5.5c0,2.61,2.17,4.5,5.17,4.5h4.52c2.78,0,5.5-1.13,7.45-3.11,1.88-1.91,2.9-4.4,2.87-7.02-.07-5.47-4.4-9.8-9.87-9.87Zm-7.8,8h8.67v4H4v-1.68c0-.79.12-1.57.33-2.32Zm13.38,7.49c-1.58,1.6-3.77,2.51-6.02,2.51h-4.52c-1.9,0-3.17-1-3.17-2.5v-1.5h9c1.1,0,2-.9,2-2v-4c0-1.1-.9-2-2-2h-7.8c.37-.62.8-1.2,1.32-1.71,1.5-1.48,3.44-2.29,5.49-2.29.03,0,.06,0,.1,0,3.28.04,6.11,2.11,7.3,5h-2.4v2h2.93c.04.3.06.59.07.9,0,.37-.03.74-.07,1.1h-2.92v2h2.38c-.39.91-.95,1.75-1.67,2.49Z"/></svg>