<svg xmlns="http://www.w3.org/2000/svg" viewBox="0 0 24 24" width="24" height="24"><path d="m20.24,4.76c-2.3-2.29-5.87-2.35-8.24-.19-2.37-2.16-5.93-2.09-8.24.2-2.36,2.37-2.36,6.07,0,8.43l7.53,7.52c.2.19.45.29.71.29s.51-.1.71-.29l7.53-7.52c2.36-2.36,2.36-6.06,0-8.43,0,0,0,0,0,0Zm-8.24,13.83l-6.82-6.81c-1.57-1.57-1.57-4.03,0-5.6.79-.79,1.8-1.18,2.81-1.18s2.02.39,2.8,1.18l.5.5s0,0,0,0l-2.38,2.39c-.51.52-.51,1.36,0,1.88.49.49,1.13.73,1.77.73s1.28-.24,1.77-.73l1.64-1.64,3.59,3.59-1.04,1.04-2.3-2.3-.71.71,2.3,2.3-.79.79-2.3-2.3-.71.71,2.3,2.3-.79.79-2.29-2.29-.71.71,2.29,2.29-.94.94Zm6.82-6.81l-.42.42-3.59-3.59,1.24-1.24-.71-.71-3.59,3.59c-.58.58-1.54.58-2.12,0-.13-.13-.13-.34,0-.47l3.42-3.44h0s.16-.16.16-.16c1.57-1.57,4.04-1.57,5.62,0,1.57,1.58,1.57,4.04,0,5.6Z"/></svg>