<svg xmlns="http://www.w3.org/2000/svg" viewBox="0 0 24 24" width="24" height="24"><path d="m18,12.5c-.07,0-.12.01-.19.01-.66-2.59-3.01-4.51-5.81-4.51-3.14,0-5.72,2.42-5.97,5.5-.01,0-.02,0-.03,0-.76,0-1.09-.17-1.55-.39-.54-.27-1.21-.61-2.45-.61v2c.76,0,1.09.17,1.55.39.54.27,1.21.61,2.45.61s1.91-.34,2.45-.61c.46-.23.79-.39,1.55-.39s1.09.17,1.55.39c.54.27,1.21.61,2.45.61s1.91-.34,2.45-.61c.46-.23.79-.39,1.56-.39s1.1.17,1.56.39c.54.27,1.21.61,2.45.61v-2c-.77,0-1.1-.17-1.56-.39-.54-.27-1.21-.61-2.45-.61Zm-4,1c-.76,0-1.09-.17-1.55-.39-.54-.27-1.21-.61-2.45-.61-.8,0-1.35.14-1.79.32.51-1.63,2.01-2.82,3.8-2.82s3.39,1.26,3.85,2.96c-.1.05-.21.1-.3.14-.46.23-.79.39-1.56.39Z"/><path d="M11 3H13V6H11z"/><path d="M17.71 8.71 18.71 7.71 19.71 6.71 19 6 18.29 5.29 17.29 6.29 16.29 7.29 17 8 17.71 8.71z"/><path d="M6.29 8.71 7 8 7.71 7.29 6.71 6.29 5.71 5.29 5 6 4.29 6.71 5.29 7.71 6.29 8.71z"/><path d="m18,17c-1.24,0-1.91.34-2.45.61-.46.23-.79.39-1.56.39s-1.09-.17-1.55-.39c-.54-.27-1.21-.61-2.45-.61s-1.91.34-2.45.61c-.46.23-.79.39-1.55.39s-1.09-.17-1.55-.39c-.54-.27-1.21-.61-2.45-.61v2c.76,0,1.09.17,1.55.39.54.27,1.21.61,2.45.61s1.91-.34,2.45-.61c.46-.23.79-.39,1.55-.39s1.09.17,1.55.39c.54.27,1.21.61,2.45.61s1.91-.34,2.45-.61c.46-.23.79-.39,1.56-.39s1.1.17,1.56.39c.54.27,1.21.61,2.45.61v-2c-.77,0-1.1-.17-1.56-.39-.54-.27-1.21-.61-2.45-.61Z"/></svg>