<svg xmlns="http://www.w3.org/2000/svg" viewBox="0 0 24 24" width="24" height="24"><path d="m20,9.8c-.1-4.53-3.64-7.8-8.5-7.8S2.01,5.24,2.01,10.67c0,2.71,1.03,5.05,2.99,6.79v4.54h2v-5.48l-.37-.3c-1.74-1.4-2.62-3.26-2.62-5.55,0-4.33,3.86-6.67,7.49-6.67,3.83,0,6.5,2.47,6.5,6v.19l1.52,3.81h-2.52v4h-4v4h2v-2h2c1.1,0,2-.9,2-2v-2h1.26c.5,0,.96-.25,1.24-.66s.34-.94.15-1.4l-1.66-4.14Z"/><path d="m8,13c.16,0,.31-.02.46-.06.45.64,1.19,1.06,2.04,1.06s1.58-.42,2.04-1.06c.15.04.3.06.46.06.81,0,1.51-.49,1.82-1.18.69-.31,1.18-1.01,1.18-1.82,0-.75-.42-1.39-1.02-1.74-.12-1.27-1.18-2.26-2.48-2.26-.49,0-.94.15-1.33.39-.33-.24-.73-.39-1.17-.39-.75,0-1.39.42-1.74,1.03-.09-.01-.17-.03-.26-.03-1.1,0-2,.9-2,2,0,.37.11.7.28,1-.17.3-.28.63-.28,1,0,1.1.9,2,2,2Z"/></svg>