<svg xmlns="http://www.w3.org/2000/svg" viewBox="0 0 24 24" width="24" height="24"><path d="m17.89,9.84c-.06-.46-.44-.82-.9-.86-.02,0-.19-.01-.43,0,.52-1.82-.24-3.5-.27-3.58-.2-.43-.68-.66-1.14-.55-.05.01-.74.2-1.52.68-.02-.11-.03-.23-.07-.34-.68-2.25-2.84-3.08-2.93-3.11-.45-.17-.95,0-1.2.42-.05.09-1.28,2.14-.62,4.34.5,1.66,1.8,2.54,2.49,2.9.03,1.17.43,2.05.45,2.11.05.12.13.21.22.29-.41,1.21-.3,2.3-.29,2.42-.82.79-1.23,1.76-1.4,2.33-.1,0-.2-.02-.31-.02-2.29.05-3.65,1.99-3.71,2.07-.26.37-.23.87.06,1.21.06.08,1.59,1.86,3.79,1.86.03,0,.07,0,.1,0,2.29-.05,3.65-1.99,3.71-2.07.25-.36.23-.83-.03-1.17.38-.08.77-.2,1.15-.4,2.02-1.07,2.45-3.4,2.47-3.5.08-.45-.16-.9-.58-1.09-.01,0-.06-.02-.12-.05,1.35-1.64,1.1-3.78,1.09-3.88Zm-3.5,1.99c.44-.46,1-.67,1.48-.78-.08.48-.27,1.06-.7,1.52-.43.46-1,.67-1.48.78.08-.48.27-1.06.7-1.52Zm.32-4.65c.06.48.05,1.08-.23,1.65-.28.57-.75.96-1.17,1.21-.06-.48-.05-1.08.23-1.65.28-.57.75-.96,1.17-1.21Zm-3.97-2.73c.35.29.71.72.89,1.3.19.64.11,1.29-.03,1.79-.35-.29-.71-.72-.89-1.3-.19-.64-.11-1.29.03-1.79Zm-.59,15.55c-.65,0-1.22-.27-1.64-.56.37-.29.88-.57,1.49-.59.64,0,1.22.27,1.64.56-.37.29-.88.57-1.49.59Zm3.94-3.42c-.56.29-1.17.31-1.66.24.22-.43.57-.93,1.12-1.22.56-.29,1.17-.31,1.66-.24-.22.43-.57.93-1.12,1.22Z"/></svg>