<svg xmlns="http://www.w3.org/2000/svg" viewBox="0 0 24 24" width="24" height="24"><path d="m20.89,2.3c-.42-.08-10.47-1.75-15.82,3.6-.71.71-1.33,1.54-1.85,2.47-2.06,3.7-1.48,7.99,1.47,10.94,1.78,1.78,4.04,2.69,6.36,2.69,1.54,0,3.11-.4,4.58-1.22.93-.52,1.76-1.14,2.47-1.85,5.35-5.35,3.67-15.39,3.6-15.82-.07-.42-.4-.74-.81-.81Zm-4.2,15.22c-.58.58-1.26,1.09-2.03,1.51-2.65,1.47-5.17,1.07-7,.04.64-3.97,3.07-7.72,6.34-10.07-3.7,1.65-6.72,4.58-8.47,8.23-1.43-1.85-2.29-4.78-.56-7.89.43-.77.94-1.45,1.51-2.03,3.86-3.86,11.05-3.4,13.34-3.14.26,2.29.72,9.48-3.14,13.34Z"/></svg>