<svg xmlns="http://www.w3.org/2000/svg" viewBox="0 0 24 24" width="24" height="24"><path d="m12,5c-1.84,0-3.35.39-4.62.97l-3.68-3.68-1.41,1.41,3.32,3.32c-2.61,1.95-3.54,4.62-3.56,4.66-.07.21-.07.43,0,.63.02.07,2.32,6.68,9.95,6.68,1.84,0,3.35-.39,4.62-.97l3.68,3.68,1.41-1.41-3.32-3.32c2.61-1.95,3.54-4.62,3.56-4.66.07-.21.07-.43,0-.63-.02-.07-2.32-6.68-9.95-6.68Zm-7.93,7c.1-.24.27-.59.52-.99l5.87,5.87c-4.21-.65-5.94-3.84-6.39-4.88Zm9.25,4.91l-7.48-7.48c.34-.34.74-.67,1.19-.98l8.05,8.05c-.53.19-1.12.33-1.76.41Zm3.65-1.35l-1.53-1.53c.61-1.03.71-2.28.31-3.38-.18.21-.45.36-.75.36-.55,0-1-.45-1-1,0-.44.29-.81.69-.94-1.32-1.21-3.23-1.37-4.71-.5l-1.06-1.06c.88-.31,1.9-.5,3.08-.5,5.35,0,7.42,3.85,7.93,5-.3.69-1.17,2.34-2.96,3.56Z"/></svg>