<svg xmlns="http://www.w3.org/2000/svg" viewBox="0 0 24 24" width="24" height="24"><path d="m14.04,16.86h0s-.06,0-.1,0c-.07,0-.14.02-.21.02-.17-.57-.58-1.54-1.4-2.33.01-.12.12-1.21-.29-2.42.09-.08.17-.18.22-.29.03-.06.42-.94.45-2.11.69-.37,1.99-1.25,2.49-2.9.66-2.2-.57-4.25-.62-4.34-.25-.41-.75-.58-1.2-.42-.09.03-2.25.86-2.93,3.11-.03.12-.04.23-.07.34-.78-.48-1.47-.66-1.52-.68-.47-.11-.94.12-1.14.55-.04.08-.79,1.75-.27,3.58-.25,0-.41,0-.43,0-.47.04-.84.4-.91.86-.01.09-.26,2.23,1.09,3.88-.06.02-.11.04-.12.05-.42.19-.66.63-.58,1.09.02.1.45,2.44,2.47,3.5.38.2.77.33,1.15.4-.26.34-.28.81-.03,1.17.06.08,1.42,2.02,3.71,2.07.03,0,.07,0,.1,0,2.21,0,3.73-1.78,3.79-1.86.29-.35.31-.84.06-1.21-.06-.08-1.42-2.02-3.71-2.07Z"/></svg>