<svg xmlns="http://www.w3.org/2000/svg" viewBox="0 0 24 24" width="24" height="24"><path d="m22,10c0-.36-.2-.7-.51-.87l-8.51-4.73c-.61-.34-1.33-.34-1.94,0L2.51,9.13c-.32.18-.51.51-.51.87s.2.7.51.87l2.93,1.63-2.93,1.63c-.32.18-.51.51-.51.87s.2.7.51.87l8.51,4.73c.3.17.64.25.97.25s.67-.08.97-.25l8.51-4.73c.32-.18.51-.51.51-.87s-.2-.7-.51-.87l-2.93-1.63,2.93-1.63c.32-.18.51-.51.51-.87Zm-3.06,5l-6.94,3.86-6.94-3.86,2.44-1.36,3.53,1.96c.3.17.64.25.97.25s.67-.08.97-.25l3.53-1.96,2.44,1.36Zm-2.93-3.37s0,0,0,0l-4.01,2.23-4.01-2.23s0,0,0,0l-2.93-1.63,6.94-3.86,6.94,3.86-2.93,1.63Z"/></svg>