<svg xmlns="http://www.w3.org/2000/svg" viewBox="0 0 24 24" width="24" height="24"><path d="m6,8.44c-.02,5.1,5.17,9.18,5.39,9.35.18.14.4.21.61.21s.43-.07.61-.21c.22-.17,5.41-4.25,5.39-9.35,0-3.55-2.69-6.44-6-6.44s-6,2.89-6,6.44Zm10,0h0c.01,3.19-2.74,6.08-4,7.24-1.26-1.15-4.01-4.04-4-7.24,0-2.45,1.79-4.44,4-4.44s4,1.99,4,4.44Z"/><path d="M12 6A2 2 0 1 0 12 10 2 2 0 1 0 12 6z"/><path d="m18.02,14.73c-.4.64-.84,1.23-1.27,1.76,2.13.48,3.25,1.19,3.25,1.51,0,.51-2.75,2-8,2s-8-1.49-8-2c0-.32,1.12-1.03,3.25-1.51-.43-.53-.86-1.12-1.27-1.76-2.32.64-3.98,1.71-3.98,3.27,0,2.75,5.18,4,10,4s10-1.25,10-4c0-1.56-1.67-2.63-3.98-3.27Z"/></svg>