<svg xmlns="http://www.w3.org/2000/svg" viewBox="0 0 24 24" width="24" height="24"><path d="m21.49,9.13l-8.51-4.73c-.61-.34-1.33-.34-1.94,0L2.51,9.13c-.32.18-.51.51-.51.87s.2.7.51.87l8.51,4.73c.3.17.64.25.97.25s.67-.08.97-.25l8.51-4.73c.32-.18.51-.51.51-.87s-.2-.7-.51-.87Z"/><path d="m21.49,14.13l-.87-.48-6.67,3.71c-.6.33-1.27.51-1.94.51s-1.35-.17-1.94-.51l-6.67-3.71-.87.48c-.32.18-.51.51-.51.87s.2.7.51.87l8.51,4.73c.3.17.64.25.97.25s.67-.08.97-.25l8.51-4.73c.32-.18.51-.51.51-.87s-.2-.7-.51-.87Z"/></svg>