<svg xmlns="http://www.w3.org/2000/svg" viewBox="0 0 24 24" width="24" height="24"><path d="m16.45,3H7.55c-2.52,0-4.55,2.04-4.55,4.55v8.89c0,2.52,2.04,4.55,4.55,4.55h8.89c2.52,0,4.55-2.04,4.55-4.55V7.55c0-2.52-2.04-4.55-4.55-4.55Zm1.06,5.26c-.04.11-.11.21-.19.29s-.18.15-.29.19-.22.07-.34.07c-1.88,0-2.61,1.15-3.59,3.03l-.6,1.14c-.92,1.78-2.07,3.99-5.17,3.99-.24,0-.46-.09-.63-.26s-.26-.39-.26-.63c0-.12.02-.23.07-.34.04-.11.11-.21.19-.29.08-.08.18-.15.29-.19.11-.04.22-.07.34-.07,1.88,0,2.61-1.15,3.59-3.03l.6-1.14c.92-1.78,2.07-3.99,5.17-3.99.24,0,.46.09.63.26.17.17.26.39.26.63,0,.12-.02.23-.07.34Z"/></svg>