<svg xmlns="http://www.w3.org/2000/svg" viewBox="0 0 24 24" width="24" height="24"><path d="m20.95,8.82c-.26-.72-.01-1.49.24-2,.32-.65.39-1.38.21-2.11-.26-1.02-1.09-1.84-2.11-2.11-.73-.19-1.46-.12-2.11.2-.51.25-1.28.5-2,.24-1.51-.54-3.1-.68-4.72-.43-3.98.63-7.21,3.86-7.84,7.84-.26,1.62-.11,3.2.43,4.72.26.72.01,1.49-.24,2-.32.65-.39,1.38-.21,2.11.26,1.02,1.09,1.84,2.11,2.11.73.19,1.46.12,2.11-.2.51-.25,1.28-.5,2-.24,1.03.37,2.09.55,3.17.55.51,0,1.03-.04,1.55-.12,3.98-.63,7.21-3.86,7.84-7.84.26-1.62.11-3.2-.43-4.72Zm-8.95-.82c-2.21,0-4,1.79-4,4h-2c0-3.31,2.69-6,6-6v2Z"/></svg>