<svg xmlns="http://www.w3.org/2000/svg" viewBox="0 0 24 24" width="24" height="24"><path d="m12,5c-1.84,0-3.36.39-4.62.97l-3.68-3.68-1.41,1.41,3.32,3.32c-2.61,1.95-3.54,4.62-3.56,4.66-.07.21-.07.43,0,.63.02.07,2.32,6.68,9.95,6.68,1.84,0,3.36-.39,4.62-.97l3.68,3.68,1.41-1.41-3.32-3.32c2.61-1.95,3.54-4.62,3.56-4.66.07-.21.07-.43,0-.63-.02-.07-2.32-6.68-9.95-6.68Zm2.69,4.06c-.4.13-.69.49-.69.94,0,.55.45,1,1,1,.3,0,.57-.14.75-.36.4,1.11.29,2.35-.31,3.38l-5.46-5.46c1.48-.87,3.4-.71,4.71.5Zm-10.62,2.94c.1-.24.27-.59.52-.99l5.87,5.87c-4.21-.65-5.94-3.84-6.39-4.88Zm9.25,4.91l-7.48-7.48c.34-.34.74-.67,1.19-.98l8.05,8.05c-.53.19-1.12.33-1.76.41Z"/></svg>