<svg xmlns="http://www.w3.org/2000/svg" viewBox="0 0 24 24" width="24" height="24"><path d="M11 14H13V16H11z"/><path d="m9.53,7.03c-.66.66-1.03,1.54-1.03,2.47h2c0-.4.16-.78.44-1.06.57-.57,1.55-.57,2.12,0,.28.28.44.66.44,1.06s-.16.78-.44,1.06-.66.44-1.06.44c-.55,0-1,.45-1,1v1h2v-.14c.55-.16,1.06-.46,1.47-.88.66-.66,1.03-1.54,1.03-2.47s-.36-1.81-1.03-2.47c-1.32-1.32-3.63-1.32-4.95,0Z"/><path d="m12,3C6.49,3,2,6.59,2,11c0,2.91,1.9,5.51,5,6.93v3.07c0,.38.21.72.55.89.14.07.29.11.45.11.21,0,.42-.07.6-.2l3.74-2.8c5.36-.14,9.66-3.67,9.66-8S17.51,3,12,3Zm0,14c-.22,0-.43.07-.6.2l-2.4,1.8v-1.73c0-.41-.25-.78-.64-.93-2.69-1.04-4.36-3.08-4.36-5.34,0-3.31,3.59-6,8-6s8,2.69,8,6-3.59,6-8,6Z"/></svg>