<svg xmlns="http://www.w3.org/2000/svg" viewBox="0 0 24 24" width="24" height="24"><path d="m16,2h-8c-1.1,0-2,.9-2,2v16c0,1.1.9,2,2,2h8c1.1,0,2-.9,2-2V4c0-1.1-.9-2-2-2Zm-8,18V4h8v16s-8,0-8,0Z"/><path d="M3 5.5 2 5.5 2 6.5 3 6.5 3 7 5 7 5 5 3 5 3 5.5z"/><path d="M21 5 19 5 19 7 21 7 21 6.5 22 6.5 22 5.5 21 5.5 21 5z"/><path d="M3 9.5 2 9.5 2 10.5 3 10.5 3 11 5 11 5 9 3 9 3 9.5z"/><path d="M21 9 19 9 19 11 21 11 21 10.5 22 10.5 22 9.5 21 9.5 21 9z"/><path d="M3 13.5 2 13.5 2 14.5 3 14.5 3 15 5 15 5 13 3 13 3 13.5z"/><path d="M21 13 19 13 19 15 21 15 21 14.5 22 14.5 22 13.5 21 13.5 21 13z"/><path d="M3 17.5 2 17.5 2 18.5 3 18.5 3 19 5 19 5 17 3 17 3 17.5z"/><path d="M21 17 19 17 19 19 21 19 21 18.5 22 18.5 22 17.5 21 17.5 21 17z"/></svg>