<svg xmlns="http://www.w3.org/2000/svg" viewBox="0 0 24 24" width="24" height="24"><path d="m12,3C6.49,3,2,6.59,2,11c0,2.91,1.9,5.51,5,6.93v3.07c0,.38.21.73.55.89.14.07.29.11.45.11.21,0,.42-.07.6-.2l3.74-2.8c5.36-.14,9.66-3.68,9.66-8S17.51,3,12,3Zm1,13h-2v-2h2v2Zm1.47-4.03c-.42.42-.92.72-1.47.88v.14h-2v-1c0-.55.45-1,1-1,.4,0,.78-.16,1.06-.44s.44-.66.44-1.06-.16-.78-.44-1.06c-.57-.57-1.55-.57-2.12,0-.28.28-.44.66-.44,1.06h-2c0-.93.36-1.81,1.03-2.47,1.32-1.32,3.63-1.32,4.95,0,.66.66,1.03,1.54,1.03,2.47s-.36,1.81-1.03,2.47Z"/></svg>