<svg xmlns="http://www.w3.org/2000/svg" viewBox="0 0 24 24" width="24" height="24"><path d="m15.35,9.14c-.87-.86-2.26-.86-3.12,0l-.22.22-.22-.22c-.87-.86-2.26-.86-3.12,0-.85.82-.87,2.16-.06,3.01.02.02.04.04.06.06l3.35,3.29,3.35-3.29c.85-.82.87-2.16.06-3.01-.02-.02-.04-.04-.06-.06Z"/><path d="m12,2C6.49,2,2,6.49,2,12c0,2.12.68,4.19,1.93,5.9l-1.75,2.53c-.21.31-.24.7-.06,1.03.17.33.51.54.89.54h9c5.51,0,10-4.49,10-10S17.51,2,12,2Zm0,18h-7.09l1.09-1.57c.26-.37.23-.88-.06-1.22-1.25-1.45-1.93-3.3-1.93-5.21,0-4.41,3.59-8,8-8s8,3.59,8,8-3.59,8-8,8Z"/></svg>