<svg xmlns="http://www.w3.org/2000/svg" viewBox="0 0 24 24" width="24" height="24"><path d="m12,2c-.66,0-1.32.07-1.95.19-.02,0-.04,0-.07,0-4.42.91-7.69,4.69-7.96,9.14-.02.22-.03.43-.03.66s0,.44.02.61c.27,4.5,3.55,8.28,7.97,9.19.02,0,.04,0,.07,0,.63.13,1.28.19,1.95.19,5.51,0,10-4.49,10-10S17.51,2,12,2Zm6.23,5h-3.16c-.44-1.11-1.03-2.1-1.73-2.89,1.97.33,3.69,1.39,4.89,2.89Zm-2.27,6h3.97c-.09.7-.26,1.37-.52,2h-3.73c.14-.64.24-1.31.28-2Zm0-2c-.05-.69-.15-1.36-.28-2h3.73c.26.63.43,1.3.52,2h-3.97Zm-5.8,8.77c-3.41-.81-5.93-3.77-6.14-7.33-.02-.14-.01-.29-.01-.44s0-.3.02-.49c.21-3.52,2.73-6.47,6.14-7.28,2.21.87,3.84,4.14,3.84,7.77s-1.64,6.9-3.84,7.77Zm3.18.12c.71-.79,1.29-1.78,1.73-2.89h3.16c-1.2,1.49-2.92,2.55-4.89,2.89Z"/></svg>