<svg xmlns="http://www.w3.org/2000/svg" viewBox="0 0 24 24" width="24" height="24"><path d="m20.26,14.47s-.06-.04-.1-.05c-.5-.27-1.07-.42-1.66-.42-.02,0-.04,0-.06,0l-2.19-5.01h1.26c.28,0,.5-.22.5-.5v-1c0-.28-.22-.5-.5-.5h-2.13l-.09-.2c-.48-1.09-1.56-1.8-2.75-1.8h-1.53v2h1.53c.4,0,.76.24.92.6l1.05,2.4h-3.93c-.29,0-.56.12-.75.33l-2.39,2.68-2.72-2.72c-.19-.19-.44-.29-.71-.29H1.84v2h1.75l2.01,2.01s-.06-.01-.1-.01c-1.11,0-2.13.51-2.79,1.38-.3.39-.53.87-.65,1.43-.04.22-.07.45-.07.68,0,1.93,1.57,3.5,3.5,3.5s3.5-1.57,3.5-3.5c0-.03,0-.06,0-.1l1.3,1.3c.19.19.44.29.71.29h2c.25,0,.5-.1.68-.27l1.32-1.23c0,1.93,1.57,3.49,3.5,3.49s3.5-1.57,3.5-3.5c0-1.24-.67-2.4-1.74-3.03Zm-14.76,4.53c-.83,0-1.5-.67-1.5-1.5,0-.11.01-.22.03-.29.05-.23.14-.45.27-.61.29-.38.73-.6,1.2-.6.26,0,.52.07.74.19.02.01.04.02.06.03.35.23.59.58.67.95.02.1.03.21.03.32,0,.83-.67,1.5-1.5,1.5Zm7.11-2h-1.19l-2.57-2.57,2.17-2.43h4.36l.76,1.73-3.52,3.27Zm5.89,2c-.83,0-1.5-.67-1.5-1.5,0-.32.11-.64.3-.9.29-.38.73-.6,1.2-.6.26,0,.52.07.74.19.02.01.04.02.07.04.43.28.7.76.7,1.27,0,.83-.67,1.5-1.5,1.5Z"/></svg>