<svg xmlns="http://www.w3.org/2000/svg" viewBox="0 0 24 24" width="24" height="24"><path d="m14.01,2.2s-.03,0-.04,0c-.64-.13-1.3-.2-1.97-.2C6.49,2,2,6.49,2,12s4.49,10,10,10c.66,0,1.32-.07,1.95-.19.02,0,.04,0,.07,0,4.42-.91,7.69-4.69,7.96-9.14.02-.22.03-.43.03-.66s0-.44-.02-.61c-.27-4.5-3.55-8.28-7.97-9.19Zm4.21,4.8h-7.09c.69-1.35,1.64-2.36,2.72-2.79,1.76.42,3.27,1.43,4.36,2.79Zm-8.17,6h9.86c-.09.69-.24,1.37-.5,2h-9.03c-.17-.64-.28-1.31-.34-2Zm0-2c.06-.69.17-1.36.34-2h9.02c.26.63.41,1.3.5,2h-9.86Zm-6.05,1c0-3.95,2.89-7.24,6.66-7.88-1.64,1.84-2.66,4.69-2.66,7.88s1.02,6.04,2.66,7.88c-3.77-.64-6.66-3.92-6.66-7.88Zm9.86,7.79c-1.09-.42-2.04-1.43-2.72-2.79h7.09c-1.09,1.35-2.6,2.36-4.37,2.79Z"/></svg>