<svg xmlns="http://www.w3.org/2000/svg" viewBox="0 0 24 24" width="24" height="24"><path d="m20.71,13.51c-.78.23-1.58.35-2.38.35-4.52,0-8.2-3.68-8.2-8.2,0-.8.12-1.6.35-2.38.11-.35.01-.74-.25-1-.26-.26-.64-.36-1-.25C4.91,3.35,2,7.28,2,11.8c0,5.62,4.58,10.2,10.2,10.2,4.53,0,8.45-2.91,9.76-7.24.11-.35.01-.74-.25-1-.26-.26-.64-.36-1-.25Z"/><path d="M16 8 16.94 5.94 19 5 16.94 4.06 16 2 15.06 4.06 13 5 15.06 5.94 16 8z"/><path d="M20.25 7.5 19.7 8.7 18.5 9.25 19.7 9.8 20.25 11 20.8 9.8 22 9.25 20.8 8.7 20.25 7.5z"/></svg>