<svg xmlns="http://www.w3.org/2000/svg" viewBox="0 0 24 24" width="24" height="24"><path d="M13.08 8.63 12 6.44 10.92 8.63 8.5 8.98 10.25 10.69 9.84 13.1 12 11.96 14.16 13.1 13.75 10.69 15.5 8.98 13.08 8.63z"/><path d="m12,2c-4.41,0-8,3.59-8,8,0,2.52,1.17,4.77,3,6.24v4.77c0,.35.18.67.47.85.29.18.66.2.97.04l3.55-1.78,3.55,1.78c.14.07.29.11.45.11.18,0,.37-.05.53-.15.29-.18.47-.5.47-.85v-4.76c1.83-1.47,3-3.72,3-6.24,0-4.41-3.59-8-8-8Zm0,14h0c-3.31,0-6-2.69-6-6s2.69-6,6-6,6,2.69,6,6-2.69,6-6,6Z"/></svg>