<svg xmlns="http://www.w3.org/2000/svg" viewBox="0 0 24 24" width="24" height="24"><path d="m12,2C6.49,2,2,6.49,2,12s4.49,10,10,10,10-4.49,10-10S17.51,2,12,2Zm0,18c-4.41,0-8-3.59-8-8,0-2.58,1.23-4.86,3.12-6.33.28.77,1.01,1.33,1.88,1.33,1.1,0,2-.9,2-2,0-.32-.08-.63-.22-.9.4-.06.81-.1,1.22-.1,4.41,0,8,3.59,8,8s-3.59,8-8,8Z"/><path d="m14.5,7c-1.93,0-3.5,1.57-3.5,3.5s1.57,3.5,3.5,3.5,3.5-1.57,3.5-3.5-1.57-3.5-3.5-3.5Zm0,5c-.83,0-1.5-.67-1.5-1.5s.67-1.5,1.5-1.5,1.5.67,1.5,1.5-.67,1.5-1.5,1.5Z"/><path d="M11.5 15A1.5 1.5 0 1 0 11.5 18 1.5 1.5 0 1 0 11.5 15z"/><path d="M7 11A1 1 0 1 0 7 13 1 1 0 1 0 7 11z"/></svg>