<svg xmlns="http://www.w3.org/2000/svg" viewBox="0 0 24 24" width="24" height="24"><path class="b" d="m19,3H5c-1.1,0-2,.9-2,2v14c0,1.1.9,2,2,2h14c1.1,0,2-.9,2-2V5c0-1.1-.9-2-2-2Zm-5.99,10.74c-.25-.07-.49-.14-.74-.21-.64-.18-1.29-.37-2.02-.53.07-.25.14-.49.21-.74.18-.64.37-1.29.53-2.02.25.07.49.14.74.21.64.18,1.29.37,2.02.53-.07.25-.14.49-.21.74-.18.64-.37,1.29-.53,2.02Zm1.49-8.74c0,1.72-.12,2.98-.31,4.04-.68-.15-1.29-.32-1.92-.5-.31-.09-.63-.18-.95-.26.11-.92.18-1.98.18-3.27h3Zm-9.5,0h4.5c0,1.12-.06,2.03-.14,2.83-1.15-.2-2.52-.33-4.36-.33v-2.5Zm0,4.5c1.72,0,2.98.12,4.04.31-.15.68-.32,1.29-.5,1.92-.09.31-.18.63-.26.95-.92-.11-1.98-.18-3.27-.18v-3Zm0,9.5v-4.5c1.12,0,2.03.05,2.83.14-.2,1.15-.33,2.52-.33,4.36h-2.5Zm4.5,0c0-1.72.12-2.98.31-4.04.68.15,1.29.32,1.92.5.31.09.63.18.95.26-.11.92-.18,1.98-.18,3.27h-3Zm5,0c0-1.12.06-2.03.14-2.83,1.15.2,2.52.33,4.36.33v-2c-1.72,0-2.98-.12-4.04-.31.15-.68.32-1.29.5-1.92.09-.31.18-.63.26-.95.92.11,1.98.18,3.27.18v-2c-1.12,0-2.03-.05-2.83-.14.2-1.15.33-2.52.33-4.36h2.5v14s-4.5,0-4.5,0Z"/></svg>