<svg xmlns="http://www.w3.org/2000/svg" viewBox="0 0 24 24" width="24" height="24"><path d="m18,18h-1.64c-1.17,0-2.28-.56-2.98-1.49-.66-.88-2.1-.88-2.76,0-.7.93-1.82,1.49-2.98,1.49h-1.64c-2.21,0-4-1.79-4-4v-5c0-1.65,1.35-3,3-3h14c1.65,0,3,1.35,3,3v5c0,2.21-1.79,4-4,4Zm-6-4.18c1.18,0,2.27.54,2.98,1.49.32.43.84.69,1.38.69h1.64c1.1,0,2-.9,2-2v-5c0-.55-.45-1-1-1H5c-.55,0-1,.45-1,1v5c0,1.1.9,2,2,2h1.64c.54,0,1.06-.26,1.38-.69.71-.95,1.8-1.49,2.98-1.49Z"/><path d="M7.5 10A2.5 1.5 0 1 0 7.5 13 2.5 1.5 0 1 0 7.5 10z"/><path d="M16.5 10A2.5 1.5 0 1 0 16.5 13 2.5 1.5 0 1 0 16.5 10z"/></svg>