<svg xmlns="http://www.w3.org/2000/svg" viewBox="0 0 24 24" width="24" height="24"><path d="m9.29,7.29l-3,3c-.39.39-.39,1.02,0,1.41l3,3,1.41-1.41-2.29-2.29,2.29-2.29-1.41-1.41Z"/><path d="m14.71,7.29l-1.41,1.41,2.29,2.29-2.29,2.29,1.41,1.41,3-3c.39-.39.39-1.02,0-1.41l-3-3Z"/><path d="m12,3C6.49,3,2,6.59,2,11c0,2.91,1.9,5.51,5,6.93v3.07c0,.38.21.72.55.89.14.07.29.11.45.11.21,0,.42-.07.6-.2l3.74-2.8c5.36-.14,9.66-3.67,9.66-8S17.51,3,12,3Zm0,14c-.22,0-.43.07-.6.2l-2.4,1.8v-1.73c0-.41-.25-.78-.64-.93-2.69-1.04-4.36-3.08-4.36-5.34,0-3.31,3.59-6,8-6s8,2.69,8,6-3.59,6-8,6Z"/></svg>