<svg xmlns="http://www.w3.org/2000/svg" viewBox="0 0 24 24" width="24" height="24"><path d="m21.92,11.61c-.16-.37-.52-.61-.92-.61h-3.3l4.17-7.51c.22-.39.15-.88-.17-1.19s-.8-.38-1.19-.17l-7.11,3.95.58-2.88c.08-.42-.11-.84-.47-1.06-.37-.22-.83-.17-1.16.1l-8.16,6.96c-2.92,2.92-2.92,7.68,0,10.61,1.42,1.42,3.3,2.2,5.3,2.2s3.89-.78,5.31-2.21l6.9-7.1c.28-.29.36-.72.2-1.09Zm-12.42,6.39c-1.93,0-3.5-1.57-3.5-3.5,0-1.4.83-2.6,2.02-3.16,0,.05-.02.1-.02.16,0,.83.67,1.5,1.5,1.5s1.5-.67,1.5-1.5c0-.05-.01-.11-.02-.16,1.19.56,2.02,1.76,2.02,3.16,0,1.93-1.57,3.5-3.5,3.5Z"/></svg>