<svg version="1.1" xmlns="http://www.w3.org/2000/svg" xmlns:xlink="http://www.w3.org/1999/xlink" x="0px" y="0px" viewBox="0 0 24 24" xml:space="preserve" width="24" height="24"><path d="M3.3 14.7 4 14 4.7 13.3 6.2 14.8 7.7 16.3 7 17 6.3 17.7 4.8 16.2z"/><path d="M21,15c0-2.6-1.4-4.8-3.5-6.1l1.2-1.2c0.4-0.4,0.4-1,0-1.4l-0.5-0.5l1-1l-3-3l-1,1l-0.5-0.5c-0.4-0.4-1-0.4-1.4,0l-8,8
	c-0.4,0.4-0.4,1,0,1.4l4,4C9.5,15.9,9.7,16,10,16s0.5-0.1,0.7-0.3l5.3-5.3c1.8,0.8,3,2.6,3,4.6c0,2.8-2.2,5-5,5H3v2h18v-2h-2.1
	C20.2,18.7,21,17,21,15L21,15z"/></svg>