<svg xmlns="http://www.w3.org/2000/svg" viewBox="0 0 24 24" width="24" height="24"><path d="m9.5,22c-2,0-3.89-.78-5.3-2.2-2.92-2.92-2.92-7.68,0-10.61L12.35,2.24c.33-.28.79-.32,1.16-.1.37.22.56.64.47,1.06l-.58,2.88,7.11-3.95c.39-.22.88-.15,1.19.17s.38.8.17,1.19l-4.17,7.51h3.3c.4,0,.76.24.92.61.16.37.08.8-.2,1.09l-6.9,7.1c-1.43,1.43-3.31,2.21-5.31,2.21Zm1.95-16.37l-5.9,5.03c-2.09,2.09-2.09,5.58.06,7.72,1.04,1.04,2.42,1.61,3.89,1.61s2.85-.57,3.89-1.61l5.24-5.39h-2.63c-.35,0-.68-.19-.86-.49-.18-.31-.18-.68-.01-.99l3.3-5.94-5.94,3.3c-.34.19-.76.16-1.08-.07s-.47-.62-.39-1l.43-2.17Z"/><path d="m10.98,11.34c0,.05.02.1.02.16,0,.83-.67,1.5-1.5,1.5s-1.5-.67-1.5-1.5c0-.05.01-.11.02-.16-1.19.56-2.02,1.76-2.02,3.16,0,1.93,1.57,3.5,3.5,3.5s3.5-1.57,3.5-3.5c0-1.4-.83-2.6-2.02-3.16Z"/></svg>