<svg xmlns="http://www.w3.org/2000/svg" viewBox="0 0 24 24" width="24" height="24"><path d="m15.5,2c-3.37,0-6.15,2.58-6.47,5.87-2.11.8-3.53,2.8-3.53,5.13,0,.04,0,.08,0,.12-2,.45-3.51,2.24-3.51,4.38,0,2.48,2.02,4.5,4.5,4.5,2.14,0,3.93-1.5,4.38-3.51.04,0,.08,0,.12,0,2.32,0,4.33-1.42,5.13-3.53,3.29-.32,5.87-3.1,5.87-6.47,0-3.58-2.92-6.5-6.5-6.5ZM6.5,20c-1.38,0-2.5-1.12-2.5-2.5,0-1.17.81-2.15,1.9-2.43.01.03.04.06.05.1.11.26.25.52.4.76.05.07.09.15.14.22.18.26.37.5.59.72.01.01.03.03.04.04.22.22.46.41.72.59.08.06.16.11.25.16.22.14.45.26.69.37.05.02.09.05.14.07-.27,1.09-1.26,1.9-2.43,1.9Zm3.72-3.58c-.16-.04-.32-.09-.48-.15-1.08-.41-1.88-1.33-2.15-2.47-.06-.28-.09-.54-.09-.79,0-1.26.65-2.38,1.68-2.99,0,.02.01.04.02.07.06.24.13.47.22.7.02.06.05.13.07.19.1.25.21.49.34.72,0,.01.02.03.02.04.12.22.26.43.41.63.04.05.08.11.12.16.32.42.7.79,1.11,1.11.05.04.1.08.16.12.2.15.41.29.63.41.01,0,.02.01.03.02.23.13.47.24.72.34.06.02.12.05.19.07.23.09.47.16.71.22.02,0,.04.01.06.02-.75,1.24-2.25,1.92-3.78,1.59Z"/></svg>