<svg xmlns="http://www.w3.org/2000/svg" viewBox="0 0 24 24" width="24" height="24"><path d="m19,3H5c-1.1,0-2,.9-2,2v14c0,1.1.9,2,2,2h14c1.1,0,2-.9,2-2V5c0-1.1-.9-2-2-2Zm-13,14h-1v-1h1v1Zm0-4h-1v-1h1v1Zm0-4h-1v-1h1v1Zm2,10h-1v-1h1v1Zm0-4h-1v-1h1v1Zm0-4h-1v-1h1v1Zm0-4h-1v-1h1v1Zm2,10h-1v-1h1v1Zm0-4h-1v-1h1v1Zm0-4h-1v-1h1v1Zm2,10h-1v-1h1v1Zm0-4h-1v-1h1v1Zm0-4h-1v-1h1v1Zm0-4h-1v-1h1v1Zm2,10h-1v-1h1v1Zm0-4h-1v-1h1v1Zm0-4h-1v-1h1v1Zm2,10h-1v-1h1v1Zm0-4h-1v-1h1v1Zm0-4h-1v-1h1v1Zm0-4h-1v-1h1v1Zm2,10h-1v-1h1v1Zm0-4h-1v-1h1v1Zm0-4h-1v-1h1v1Z"/></svg>