<svg xmlns="http://www.w3.org/2000/svg" viewBox="0 0 24 24" width="24" height="24"><path d="m20.02,11.8l-.84,4.2h-2.18c-1.1,0-2,.9-2,2v4h2v-4h2v4h2v-4.9l.98-4.9-1.96-.39Z"/><path d="m7,16h-2.18l-.84-4.2-1.96.39.98,4.9v4.9h2v-4h2v4h2v-4c0-1.1-.9-2-2-2Z"/><path d="m18,14v-2h-5v-3h7.13c.34,0,.65-.17.84-.46.18-.28.21-.64.07-.95-1.51-3.4-5.06-5.59-9.04-5.59S4.47,4.2,2.96,7.59c-.14.31-.11.67.07.95.18.28.5.46.84.46h7.13v3h-5v2h5v8h2v-8h5Zm-6-10c2.59,0,4.94,1.14,6.38,3H5.62c1.43-1.86,3.79-3,6.38-3Z"/></svg>