<svg xmlns="http://www.w3.org/2000/svg" viewBox="0 0 24 24" width="24" height="24"><path d="m18.98,8.78l-1.96.34-5.77-5.67c-.23-.23-.56-.33-.87-.27l-2.46.43c-.32.06-.59.26-.73.56-.14.29-.12.64.04.92l2.98,5.23-2.08.37-2.62-2.22c-.23-.19-.53-.27-.82-.22l-1.97.35c-.31.05-.57.25-.72.53-.14.28-.15.61,0,.89l3.19,6.55c.17.35.52.56.9.56.06,0,.12,0,.17-.02l13.79-2.43c1.63-.29,2.72-1.85,2.43-3.48-.29-1.63-1.84-2.72-3.48-2.43Zm.69,3.94l-13.04,2.3-2.28-4.68.2-.04,2.62,2.22c.23.19.53.28.82.22l3.94-.69c.32-.06.59-.26.73-.56.14-.29.12-.64-.04-.92l-2.98-5.23.56-.1,5.77,5.67c.23.23.56.33.87.27l2.46-.43c.55-.09,1.06.27,1.16.81s-.27,1.06-.81,1.16Z"/><path d="M2 19H22V21H2z"/></svg>