<svg xmlns="http://www.w3.org/2000/svg" viewBox="0 0 24 24" width="24" height="24"><path d="m8,2c-.45,0-.84.3-.96.73l-.38,1.36c6.95.77,12.48,6.3,13.25,13.25l1.36-.38c.43-.12.73-.51.73-.96,0-7.72-6.28-14-14-14Z"/><path d="m6.11,6.06l-4.08,14.68c-.1.35,0,.72.26.97.19.19.45.29.71.29.09,0,.18-.01.27-.04l14.68-4.08c-.54-6.28-5.55-11.29-11.83-11.83Zm.89,12.44c-.83,0-1.5-.67-1.5-1.5s.67-1.5,1.5-1.5,1.5.67,1.5,1.5-.67,1.5-1.5,1.5Zm1-6c-.83,0-1.5-.67-1.5-1.5s.67-1.5,1.5-1.5,1.5.67,1.5,1.5-.67,1.5-1.5,1.5Zm4.5,4c-1.1,0-2-.9-2-2s.9-2,2-2,2,.9,2,2-.9,2-2,2Z"/></svg>