<svg xmlns="http://www.w3.org/2000/svg" viewBox="0 0 24 24" width="24" height="24"><path d="m5.94,20.79c.14.7.76,1.21,1.47,1.21h1.39l-1.2-12h-3.81l2.16,10.79Z"/><path d="M13.19 22 14.39 10 9.61 10 10.81 22 13.19 22z"/><path d="m16.59,22c.71,0,1.33-.51,1.47-1.21l2.16-10.79h-3.81l-1.2,12h1.39Z"/><path d="m18.76,5.24c-.51-1.33-1.8-2.24-3.26-2.24-.32,0-.63.04-.93.13-.65-.71-1.57-1.13-2.57-1.13s-1.91.42-2.57,1.13c-.31-.09-.62-.13-.93-.13-1.47,0-2.75.91-3.26,2.24-1.17.45-2.02,1.51-2.2,2.76h17.92c-.18-1.25-1.03-2.31-2.2-2.76Z"/></svg>