<svg xmlns="http://www.w3.org/2000/svg" viewBox="0 0 24 24" width="24" height="24"><path d="m19.17,5.11c-.34-.68-1.03-1.11-1.79-1.11h-4.38c-.55,0-1,.45-1,1v5H3c-.55,0-1,.45-1,1v4c0,1.1.9,2,2,2,0,1.65,1.35,3,3,3s3-1.35,3-3h4c0,1.65,1.35,3,3,3s3-1.35,3-3c1.1,0,2-.9,2-2v-3.76c0-.31-.07-.62-.21-.89l-2.62-5.24Zm-5.17.89h3.38l2,4h-5.38v-4Zm-7,12c-.55,0-1-.45-1-1,0-.17.05-.35.13-.5.37-.63,1.36-.63,1.73,0,0,0,0,0,0,0,.09.15.13.32.13.49,0,.55-.45,1-1,1Zm10,0c-.55,0-1-.45-1-1,0-.17.05-.35.13-.5.37-.63,1.36-.63,1.73,0,0,0,0,0,0,0,.09.15.13.32.13.49,0,.55-.45,1-1,1Zm3-3h-.77s-.05-.05-.08-.07c-.06-.06-.12-.11-.17-.16-.12-.11-.25-.21-.38-.29-.07-.05-.14-.09-.22-.13-.15-.08-.3-.14-.45-.19-.07-.02-.14-.05-.21-.07-.23-.06-.47-.09-.72-.09s-.49.04-.72.09c-.07.02-.14.05-.21.07-.16.05-.31.11-.45.19-.07.04-.15.08-.22.13-.13.09-.26.18-.38.29-.06.05-.12.1-.18.16-.02.03-.05.04-.08.07h-5.53s-.05-.05-.08-.07c-.06-.06-.12-.11-.17-.16-.12-.11-.25-.21-.38-.29-.07-.05-.14-.09-.22-.13-.15-.08-.3-.14-.45-.19-.07-.02-.14-.05-.21-.07-.23-.06-.47-.09-.72-.09s-.49.04-.72.09c-.07.02-.14.05-.21.07-.16.05-.31.11-.45.19-.07.04-.15.08-.22.13-.13.09-.26.18-.38.29-.06.05-.12.1-.18.16-.02.03-.05.04-.08.07h-.77v-3h16v3Z"/></svg>