<svg xmlns="http://www.w3.org/2000/svg" viewBox="0 0 24 24" width="24" height="24"><path d="m20.33,9.64c-.46-.15-.91-.17-1.33-.09v-2.55c0-1.1-.9-2-2-2h-2.55c.08.41.07.86-.09,1.33-.26.78-.94,1.4-1.74,1.6-1.65.4-3.12-.84-3.12-2.42,0-.17.02-.34.05-.5h-2.55c-1.1,0-2,.9-2,2v2.55c-.41-.08-.86-.07-1.33.09-.78.26-1.4.94-1.6,1.74-.4,1.65.84,3.12,2.42,3.12.17,0,.34-.02.5-.05v2.55c0,1.1.9,2,2,2h2.55c-.08-.41-.07-.86.09-1.33.26-.78.94-1.4,1.74-1.6,1.65-.4,3.12.84,3.12,2.42,0,.17-.02.34-.05.5h2.55c1.1,0,2-.9,2-2v-2.55c.16.03.33.05.5.05,1.58,0,2.82-1.47,2.42-3.12-.19-.8-.81-1.48-1.6-1.74Z"/></svg>