<svg xmlns="http://www.w3.org/2000/svg" viewBox="0 0 24 24" width="24" height="24"><path d="m8.15,9.69l-2.25,10.12.18.18,5.42-5.42s0-.05,0-.08c0-.83.67-1.5,1.5-1.5s1.5.67,1.5,1.5-.67,1.5-1.5,1.5c-.03,0-.05,0-.08,0l-5.42,5.42.18.18,10.12-2.25,1.42-5.21-5.87-5.87-5.21,1.42Z"/><path d="m19.41,5.5c-.78-.78-2.05-.78-2.83,0l-1.29,1.29h0s-.29.29-.29.29l5.41,5.41.29-.29h0s1.29-1.29,1.29-1.29c.78-.78.78-2.05,0-2.83l-2.59-2.59Z"/><path d="m6.24,3.59c-.75-1.07-2.14-1.59-4.24-1.59v2c.95,0,2.17.13,2.6.74.66.93-.17,3.24-.97,5.48-.76,2.14-1.63,4.56-1.63,6.78,0,1.73.53,2.91,1.59,3.51.02.01.04.02.06.03l.3-1.15.25-1.1c-.16-.4-.2-.93-.2-1.28,0-1.87.77-4.02,1.51-6.11,1.06-2.97,1.98-5.53.72-7.31Z"/></svg>