<svg xmlns="http://www.w3.org/2000/svg" viewBox="0 0 24 24" width="24" height="24"><path d="m16.3,3.45l-1.4,1.4-7.98-1.33c-.32-.05-.64.05-.87.28l-1.77,1.77c-.23.23-.33.56-.28.88s.26.59.56.73l5.44,2.58-1.49,1.49-3.42-.31c-.29-.03-.59.08-.8.29l-1.41,1.41c-.23.23-.34.57-.27.9.06.33.28.6.59.73l4.58,1.96,1.96,4.58c.13.31.4.53.73.59.06.01.13.02.19.02.26,0,.52-.1.71-.29l1.41-1.41c.21-.21.32-.5.29-.8l-.31-3.42,1.49-1.49,2.57,5.44c.14.29.41.5.73.56.32.06.65-.05.88-.28l1.77-1.77c.23-.23.33-.55.28-.87l-1.33-7.98,1.4-1.4c.57-.57.88-1.32.88-2.12s-.31-1.55-.88-2.12c-1.17-1.17-3.07-1.17-4.24,0Zm2.83,2.83l-1.77,1.77c-.23.23-.33.55-.28.87l1.33,7.98-.4.4-2.57-5.43c-.14-.29-.41-.5-.73-.56-.32-.06-.65.05-.88.28l-2.83,2.83c-.21.21-.32.5-.29.8l.31,3.42-.04.04-1.54-3.59c-.1-.24-.29-.42-.52-.53l-3.59-1.54.04-.04,3.42.31c.3.03.59-.08.8-.29l2.83-2.83c.23-.23.33-.56.28-.88s-.26-.59-.56-.73l-5.44-2.58.4-.4,7.98,1.33c.32.05.64-.05.87-.28l1.77-1.77c.39-.39,1.02-.39,1.41,0,.19.19.29.44.29.71s-.1.52-.29.71Z"/></svg>