<svg xmlns="http://www.w3.org/2000/svg" viewBox="0 0 24 24" width="24" height="24"><path d="M12 4A2 2 0 1 0 12 8 2 2 0 1 0 12 4z"/><path d="M5 7A2 2 0 1 0 5 11 2 2 0 1 0 5 7z"/><path d="M19 7A2 2 0 1 0 19 11 2 2 0 1 0 19 7z"/><path d="m19.5,12h-.7c-.84,0-1.61.42-2.08,1.11l-3.26,4.89h-2.93l-3.26-4.89c-.46-.7-1.24-1.11-2.08-1.11h-.7c-1.38,0-2.5,1.12-2.5,2.5v5.5h5v-3.7l1.87,2.81c.37.56.99.89,1.66.89h2.93c.67,0,1.29-.33,1.66-.89l1.87-2.81v3.7h5v-5.5c0-1.38-1.12-2.5-2.5-2.5Z"/><path d="m12.39,16l2.61-3.91v-1.59c0-.83-.67-1.5-1.5-1.5h-3c-.83,0-1.5.67-1.5,1.5v1.59l2.61,3.91h.79Z"/></svg>