<svg xmlns="http://www.w3.org/2000/svg" viewBox="0 0 24 24" width="24" height="24"><path d="m15,5c0-1.65-1.35-3-3-3s-3,1.35-3,3,1.35,3,3,3,3-1.35,3-3Zm-4,0c0-.55.45-1,1-1s1,.45,1,1-.45,1-1,1-1-.45-1-1Z"/><path d="m19,5c-1.65,0-3,1.35-3,3s1.35,3,3,3,3-1.35,3-3-1.35-3-3-3Zm0,4c-.55,0-1-.45-1-1s.45-1,1-1,1,.45,1,1-.45,1-1,1Z"/><path d="m8,8c0-1.65-1.35-3-3-3s-3,1.35-3,3,1.35,3,3,3,3-1.35,3-3Zm-4,0c0-.55.45-1,1-1s1,.45,1,1-.45,1-1,1-1-.45-1-1Z"/><path d="m5.22,21.14c.81.53,1.74.8,2.68.8.67,0,1.33-.14,1.97-.41l.98-.43c.74-.32,1.59-.32,2.32,0l.98.43c1.52.67,3.25.52,4.64-.39,1.39-.91,2.22-2.44,2.22-4.1,0-2.25-1.53-4.2-3.71-4.75-.51-.13-.97-.39-1.35-.76l-.48-.48c-1.91-1.91-5.02-1.91-6.92,0l-.48.48c-.37.37-.84.63-1.35.76-2.18.55-3.71,2.5-3.71,4.75,0,1.66.83,3.19,2.22,4.1Zm1.98-6.91c.86-.22,1.65-.66,2.27-1.29l.48-.48c.56-.56,1.31-.85,2.05-.85s1.48.28,2.05.85l.48.48c.63.63,1.41,1.07,2.28,1.29,1.29.32,2.19,1.48,2.19,2.81,0,1-.48,1.88-1.31,2.42-.83.54-1.83.63-2.75.23l-.98-.43c-1.25-.55-2.68-.55-3.93,0l-.98.43c-.91.4-1.91.32-2.75-.23s-1.31-1.43-1.31-2.42c0-1.33.9-2.49,2.2-2.81Z"/></svg>