<svg xmlns="http://www.w3.org/2000/svg" viewBox="0 0 24 24" width="24" height="24"><path d="m4,4h4v-2h-4c-1.1,0-2,.9-2,2v4h2v-4Z"/><path d="m4,16h-2v4c0,1.1.9,2,2,2h4v-2h-4v-4Z"/><path d="m20,20h-4v2h4c1.1,0,2-.9,2-2v-4h-2v4Z"/><path d="m20,2h-4v2h4v4h2v-4c0-1.1-.9-2-2-2Z"/><rect x="5" y="5" width="6" height="6" rx="1.5" ry="1.5"/><rect x="5" y="13" width="6" height="6" rx="1.5" ry="1.5"/><rect x="13" y="5" width="6" height="6" rx="1.5" ry="1.5"/><path d="M13 13H15V15H13z"/><path d="M15 15H17V17H15z"/><path d="M17 17H19V19H17z"/><path d="M17 13H19V15H17z"/></svg>