<svg xmlns="http://www.w3.org/2000/svg" width="24" height="24"><path d="M3 4.5v5c0 .83.67 1.5 1.5 1.5h5c.83 0 1.5-.67 1.5-1.5v-5c0-.83-.67-1.5-1.5-1.5h-5C3.67 3 3 3.67 3 4.5M5 5h4v4H5zM3 19.5c0 .83.67 1.5 1.5 1.5h5c.83 0 1.5-.67 1.5-1.5v-5c0-.83-.67-1.5-1.5-1.5h-5c-.83 0-1.5.67-1.5 1.5zM5 15h4v4H5zM19.5 3h-5c-.83 0-1.5.67-1.5 1.5v5c0 .83.67 1.5 1.5 1.5h5c.83 0 1.5-.67 1.5-1.5v-5c0-.83-.67-1.5-1.5-1.5M19 9h-4V5h4zM13 13h2v2h-2zM15 15h2v2h-2zM13 17h2v2h-2zM17 17h2v2h-2zM19 19h2v2h-2zM15 19h2v2h-2zM17 13h2v2h-2zM19 15h2v2h-2z"/></svg>