<svg xmlns="http://www.w3.org/2000/svg" viewBox="0 0 24 24" width="24" height="24"><path d="m12,2C6.58,2,2,6.58,2,12s4.58,10,10,10,10-4.58,10-10S17.42,2,12,2Zm0,18c-4.34,0-8-3.66-8-8S7.66,4,12,4c1.82,0,3.51.65,4.87,1.71l-1.41,1.41c-1.01-.73-2.21-1.12-3.46-1.12-1.58,0-3.09.63-4.23,1.77-1.14,1.14-1.77,2.64-1.77,4.23s.63,3.09,1.77,4.23,2.64,1.77,4.23,1.77,3.09-.63,4.23-1.77l-1.41-1.41c-1.53,1.53-4.1,1.53-5.63,0-.76-.76-1.18-1.76-1.18-2.82s.42-2.05,1.18-2.82c1.28-1.28,3.3-1.47,4.82-.6l-1.49,1.49c-.16-.05-.33-.08-.51-.08-1.08,0-2,.92-2,2s.92,2,2,2,2-.92,2-2c0-.18-.03-.34-.08-.51l4.36-4.36c1.07,1.36,1.71,3.05,1.71,4.87,0,4.34-3.66,8-8,8Z"/></svg>