<svg xmlns="http://www.w3.org/2000/svg" viewBox="0 0 24 24" width="24" height="24"><path d="m16.99,3.34c-.48-.27-1.09-.11-1.36.37l-2.57,4.45c-.34-.09-.69-.16-1.06-.16s-.72.07-1.06.16l-2.57-4.45c-.27-.48-.88-.64-1.36-.37-1.52.87-2.78,2.13-3.67,3.66-.88,1.53-1.34,3.26-1.34,5.01,0,.55.45,1,1,1h5.14c.18.71.55,1.35,1.06,1.85l-2.57,4.44c-.28.48-.11,1.09.36,1.36,1.51.88,3.24,1.35,5,1.35s3.49-.47,5-1.35c.48-.28.64-.89.36-1.36l-2.57-4.44c.51-.5.87-1.14,1.06-1.85h5.14s0,0,0,0c.55,0,1-.45,1-1,0-1.75-.45-3.48-1.34-5.01-.88-1.53-2.15-2.79-3.67-3.66Zm-2.99,8.66c0,1.1-.9,2-2,2s-2-.9-2-2,.9-2,2-2,2,.9,2,2Zm-5.86-1h-4.08c.13-1.05.47-2.07,1.01-3,.54-.93,1.25-1.74,2.1-2.37l2.03,3.52c-.51.5-.87,1.14-1.06,1.85Zm6.96,8.37c-1.95.82-4.26.82-6.21,0l2.04-3.53c.34.09.69.16,1.06.16s.72-.07,1.06-.16l2.04,3.53Zm.75-8.37c-.18-.71-.55-1.35-1.06-1.85l2.03-3.52c.84.64,1.56,1.44,2.09,2.37.54.93.88,1.95,1.01,3h-4.08Z"/></svg>