<svg xmlns="http://www.w3.org/2000/svg" viewBox="0 0 24 24" width="24" height="24"><path d="m17.5,11H6.5c-1.38,0-2.5-1.12-2.5-2.5s1.12-2.5,2.5-2.5h3.5v2l4-3-4-3v2h-3.5c-2.48,0-4.5,2.02-4.5,4.5s2.02,4.5,4.5,4.5h11c1.38,0,2.5,1.12,2.5,2.5s-1.12,2.5-2.5,2.5H7.82c-.41-1.16-1.51-2-2.82-2-1.65,0-3,1.35-3,3s1.35,3,3,3c1.3,0,2.4-.84,2.82-2h9.68c2.48,0,4.5-2.02,4.5-4.5s-2.02-4.5-4.5-4.5Zm-12.5,9c-.55,0-1-.45-1-1s.45-1,1-1,1,.45,1,1-.45,1-1,1Z"/><path d="m19,2c-1.65,0-3,1.35-3,3s1.35,3,3,3,3-1.35,3-3-1.35-3-3-3Zm0,4c-.55,0-1-.45-1-1s.45-1,1-1,1,.45,1,1-.45,1-1,1Z"/></svg>