<svg xmlns="http://www.w3.org/2000/svg" viewBox="0 0 24 24" width="24" height="24"><path d="m21,8c-.2,0-4.85.03-9,2.01-4.15-1.98-8.8-2.01-9-2.01-.55,0-1,.45-1,1v9.88c0,.27.11.53.31.72.19.19.45.3.73.28.04,0,3.97-.11,8.54,2.02.02,0,.03,0,.05.01.12.05.24.08.37.08s.25-.03.37-.08c.02,0,.03,0,.05-.01,4.54-2.12,8.51-2.03,8.54-2.02.27.02.53-.09.73-.28.19-.19.31-.45.31-.72v-9.88c0-.55-.45-1-1-1Zm-17,2.05c1.49.11,4.38.48,7,1.69v7.74c-3.02-1.18-5.62-1.5-7-1.58v-7.86Zm16,7.86c-1.38.08-3.98.4-7,1.58v-7.74c2.62-1.21,5.51-1.58,7-1.69v7.86Z"/><path d="M12 2A3 3 0 1 0 12 8 3 3 0 1 0 12 2z"/></svg>