<svg xmlns="http://www.w3.org/2000/svg" viewBox="0 0 24 24" width="24" height="24"><path d="m7,19h-3v2h16v-2h-3v-6c0-2.76-2.24-5-5-5s-5,2.24-5,5v6Zm2-6c0-1.65,1.35-3,3-3s3,1.35,3,3v6h-6v-6Z"/><path d="M13 6 13 4.5 13 3 12 3 11 3 11 4.5 11 6 12 6 13 6z"/><path d="M19 11 19 12 19 13 20.5 13 22 13 22 12 22 11 20.5 11 19 11z"/><path d="M5 13 5 12 5 11 3.5 11 2 11 2 12 2 13 3.5 13 5 13z"/><path d="M17.66 7.76 18.72 6.7 19.78 5.64 19.07 4.93 18.36 4.22 17.3 5.28 16.24 6.34 16.95 7.05 17.66 7.76z"/><path d="M6.34 7.76 7.05 7.05 7.76 6.34 6.7 5.28 5.64 4.22 4.93 4.93 4.22 5.64 5.28 6.7 6.34 7.76z"/></svg>