<svg xmlns="http://www.w3.org/2000/svg" viewBox="0 0 24 24" width="24" height="24"><path d="m12.62,12.8l1.87-1.87c.16.04.33.07.51.07,1.1,0,2-.9,2-2s-.9-2-2-2-2,.9-2,2c0,.18.03.35.07.51l-1.87,1.87-5.09-5.09c-.39-.39-1.02-.39-1.41,0-1.74,1.74-2.7,4.05-2.7,6.51,0,2.12.72,4.13,2.03,5.76l-1.74,1.74,1.41,1.41,1.74-1.74c1.63,1.31,3.64,2.03,5.76,2.03,2.46,0,4.77-.96,6.51-2.69.19-.19.29-.44.29-.71s-.11-.52-.29-.71l-5.09-5.09Z"/><path d="m19.95,4.05c-.67-.67-1.45-1.19-2.32-1.54-1.68-.68-3.59-.68-5.27,0l.75,1.85c1.2-.49,2.57-.49,3.76,0,.62.25,1.18.62,1.65,1.1.48.48.85,1.03,1.1,1.65.24.6.37,1.23.37,1.88s-.12,1.28-.37,1.88l1.85.75c.34-.84.51-1.73.51-2.63s-.17-1.79-.51-2.63c-.35-.87-.87-1.65-1.54-2.32Z"/></svg>