<svg xmlns="http://www.w3.org/2000/svg" viewBox="0 0 24 24" width="24" height="24"><path d="m19,10.5c0-4.69-3.81-8.5-8.5-8.5S2,5.81,2,10.5s3.81,8.5,8.5,8.5c1.98,0,3.81-.69,5.25-1.83l4.25,4.25,1.41-1.41-4.25-4.25c1.14-1.45,1.83-3.27,1.83-5.25Zm-15,0c0-3.58,2.92-6.5,6.5-6.5s6.5,2.92,6.5,6.5-2.92,6.5-6.5,6.5-6.5-2.92-6.5-6.5Z"/><path d="M8.29 7.29 5.09 10.5 8.29 13.71 9.71 12.29 7.91 10.5 9.71 8.71 8.29 7.29z"/><path d="M12.71 7.29 11.29 8.71 13.09 10.5 11.29 12.29 12.71 13.71 15.91 10.5 12.71 7.29z"/></svg>