<svg xmlns="http://www.w3.org/2000/svg" viewBox="0 0 24 24" width="24" height="24"><path d="m14.35,2.19c-.75-.13-1.54-.19-2.35-.19C6.95,2,3,4.42,3,7.5v9c0,3.08,3.95,5.5,9,5.5s9-2.42,9-5.5V7.5c0-2.55-2.68-4.69-6.65-5.31Zm-2.35,17.81c-4.12,0-7-1.84-7-3.5v-5.51c1.64,1.23,4.14,2.01,7,2.01,2.02,0,3.93-.39,5.51-1.13.56-.26,1.06-.55,1.49-.87v5.5c0,1.66-2.88,3.5-7,3.5Zm4.67-9.94c-1.3.61-2.96.94-4.67.94-4.12,0-7-1.84-7-3.5s2.88-3.5,7-3.5c.7,0,1.37.06,2.03.17,2.88.45,4.97,1.85,4.97,3.33,0,.94-.87,1.89-2.33,2.56Z"/><path d="m12,5c-.47,0-.92.04-1.36.09.19.38.4.91.48,1.53.12.9-.03,2.11-1.13,3.21.62.11,1.3.18,2.01.18.14,0,.26-.01.4-.02,1.73-1.72,1.3-3.79.85-4.91-.4-.04-.82-.07-1.25-.07Z"/><path d="m14.46,5.27c.36,1.21.53,2.95-.57,4.56,2.1-.35,3.61-1.26,3.61-2.34,0-.98-1.25-1.81-3.04-2.23Z"/><path d="m9.52,5.28c-1.79.41-3.02,1.25-3.02,2.22,0,.83.9,1.56,2.27,2.01,2.03-1.55,1.16-3.54.75-4.23Z"/></svg>