<svg xmlns="http://www.w3.org/2000/svg" viewBox="0 0 24 24" width="24" height="24"><path d="m12,2C6.49,2,2,5.81,2,10.5c0,2.28,1.09,4.47,3,6.06v3.44c0,.55.45,1,1,1h12c.55,0,1-.45,1-1v-3.44c1.91-1.6,3-3.78,3-6.06,0-4.69-4.49-8.5-10-8.5Zm5.4,13.28c-.25.19-.4.49-.4.8v2.92h-2v-3h-2v3h-2v-3h-2v3h-2v-2.92c0-.32-.15-.61-.4-.8-1.65-1.23-2.6-2.98-2.6-4.78,0-3.58,3.59-6.5,8-6.5s8,2.92,8,6.5c0,1.8-.95,3.54-2.6,4.78Z"/><path d="M8 8A2 2.5 0 1 0 8 13 2 2.5 0 1 0 8 8z"/><path d="M16 8A2 2.5 0 1 0 16 13 2 2.5 0 1 0 16 8z"/></svg>