<svg xmlns="http://www.w3.org/2000/svg" viewBox="0 0 24 24" width="24" height="24"><path d="M12 10A2 2 0 1 0 12 14 2 2 0 1 0 12 10z"/><path d="m19,3H5c-1.1,0-2,.9-2,2v14c0,1.1.9,2,2,2h14c1.1,0,2-.9,2-2V5c0-1.1-.9-2-2-2Zm-3,9c0,.74-.22,1.42-.57,2.02l1.77,1.77-1.41,1.41-1.77-1.77c-.59.35-1.28.57-2.02.57s-1.42-.22-2.02-.57l-1.77,1.77-1.41-1.41,1.77-1.77c-.35-.59-.57-1.28-.57-2.02s.22-1.42.57-2.02l-1.77-1.77,1.41-1.41,1.77,1.77c.59-.35,1.28-.57,2.02-.57s1.42.22,2.02.57l1.77-1.77,1.41,1.41-1.77,1.77c.35.59.57,1.28.57,2.02Z"/></svg>