<svg xmlns="http://www.w3.org/2000/svg" viewBox="0 0 24 24" width="24" height="24"><path d="M3 11H5V13H3z"/><path d="M3 15H5V17H3z"/><path d="M3 19H5V21H3z"/><path d="M7 3H9V5H7z"/><path d="M7 19H9V21H7z"/><path d="M11 3H13V5H11z"/><path d="M11 19H13V21H11z"/><path d="M15 3H17V5H15z"/><path d="M19 3H21V5H19z"/><path d="M19 7H21V9H19z"/><path d="M19 11H21V13H19z"/><path d="M19 15H21V17H19z"/><path d="M3 9 4.76 9 3 7.24 3 9z"/><path d="M7 11.24 7 17 12.76 17 10.76 15 9 15 9 13.24 7 11.24z"/><path d="M15 21 16.76 21 15 19.24 15 21z"/><path d="m21,19h-.59l-3.41-3.41V7h-8.59l-3.41-3.41v-.59h-.59l-1.71-1.71-1.41,1.41,1.71,1.71h0s.59.59.59.59h0l3.41,3.41h0s2,2,2,2h0s4.59,4.59,4.59,4.59h0l2,2h0l3.41,3.41h0s.59.59.59.59h0l1.71,1.71,1.41-1.41-1.71-1.71v-.59Zm-6-10v4.59l-4.59-4.59h4.59Z"/></svg>