<svg xmlns="http://www.w3.org/2000/svg" width="24" height="24"><path d="M12 17.01c2.76 0 5.01-2.25 5.01-5.01S14.76 6.99 12 6.99 6.99 9.24 6.99 12s2.25 5.01 5.01 5.01M12 9c1.66 0 3.01 1.35 3.01 3.01s-1.35 3.01-3.01 3.01-3.01-1.35-3.01-3.01S10.34 9 12 9M11 22h2v-4h-2v4M11 6h2V2h-2v4M2 11h4v2H2zM18 11h4v2h-4zM4.22 18.36l.71.71.71.71 1.41-1.42 1.41-1.41-.7-.71-.71-.7-1.41 1.41zM18.36 4.22l-1.41 1.42-1.41 1.41.7.71.71.7 1.41-1.41 1.42-1.41-.71-.71zM8.46 7.05 7.05 5.64 5.64 4.22l-.71.71-.71.71 1.42 1.41 1.41 1.41.71-.7zM15.54 16.95l1.41 1.41 1.41 1.42.71-.71.71-.71-1.42-1.41-1.41-1.41-.71.7z"/></svg>