<svg xmlns="http://www.w3.org/2000/svg" viewBox="0 0 24 24" width="24" height="24"><path d="M20 2A2 2 0 1 0 20 6 2 2 0 1 0 20 2z"/><path d="m17,12l.5-5.5-5.5.5,1.75,1.75c-.47.4-1.01.5-1.69.63-1.05.19-2.35.44-3.4,1.93-1.05,1.49-.83,2.8-.65,3.85.15.9.26,1.55-.32,2.38-.58.82-1.23.94-2.12,1.11-1.05.19-2.35.43-3.4,1.93l1.64,1.15c.58-.82,1.22-.94,2.12-1.11,1.05-.19,2.35-.43,3.4-1.93,1.05-1.49.83-2.8.65-3.85-.15-.9-.26-1.55.32-2.38.58-.82,1.23-.94,2.12-1.11.84-.15,1.84-.35,2.74-1.18l1.83,1.83Z"/><path d="M3.71 8.71 5.5 6.91 7.29 8.71 8.71 7.29 6.91 5.5 8.71 3.71 7.29 2.29 5.5 4.09 3.71 2.29 2.29 3.71 4.09 5.5 2.29 7.29 3.71 8.71z"/><path d="M20.29 14.29 18 16.59 15.71 14.29 14.29 15.71 16.59 18 14.29 20.29 15.71 21.71 18 19.41 20.29 21.71 21.71 20.29 19.41 18 21.71 15.71 20.29 14.29z"/></svg>