<svg xmlns="http://www.w3.org/2000/svg" viewBox="0 0 24 24" width="24" height="24"><path d="m16.68,7.32c-.93-3.08-3.8-5.32-7.18-5.32-4.14,0-7.5,3.36-7.5,7.5,0,3.38,2.25,6.24,5.32,7.18.93,3.08,3.8,5.32,7.18,5.32,4.14,0,7.5-3.36,7.5-7.5,0-3.38-2.25-6.24-5.32-7.18Zm-1.68,2.18c0,3.03-2.47,5.5-5.5,5.5-.16,0-.32-.01-.48-.02-.01-.16-.02-.32-.02-.48,0-3.03,2.47-5.5,5.5-5.5.16,0,.32.01.48.02.01.16.02.32.02.48Zm-11,0c0-3.03,2.47-5.5,5.5-5.5,2.13,0,3.98,1.22,4.9,3.01-4.05.06-7.33,3.34-7.39,7.39-1.78-.91-3.01-2.76-3.01-4.9Zm10.5,10.5c-2.13,0-3.98-1.22-4.9-3.01,4.05-.06,7.33-3.34,7.39-7.39,1.78.91,3.01,2.76,3.01,4.9,0,3.03-2.47,5.5-5.5,5.5Z"/></svg>