<svg xmlns="http://www.w3.org/2000/svg" viewBox="0 0 24 24" width="24" height="24"><path d="M3 11H5V13H3z"/><path d="M3 15H5V17H3z"/><path d="M3 19H5V21H3z"/><path d="M7 3H9V5H7z"/><path d="M7 19H9V21H7z"/><path d="M11 3H13V5H11z"/><path d="M11 19H13V21H11z"/><path d="M15 3H17V5H15z"/><path d="M19 3H21V5H19z"/><path d="M19 7H21V9H19z"/><path d="M19 11H21V13H19z"/><path d="M19 15H21V17H19z"/><path d="M3 9 4.76 9 3 7.24 3 9z"/><path d="M15 21 16.76 21 15 19.24 15 21z"/><path d="M7 17 12.76 17 7 11.24 7 17z"/><path d="M21 19 20.41 19 17 15.59 17 7 8.41 7 5 3.59 5 3 4.41 3 2.71 1.29 1.29 2.71 3 4.41 3 4.41 3.59 5 3.59 5 7 8.41 7 8.41 15.59 17 15.59 17 19 20.41 19 20.41 19.59 21 19.59 21 21.29 22.71 22.71 21.29 21 19.59 21 19z"/></svg>