<svg xmlns="http://www.w3.org/2000/svg" viewBox="0 0 24 24" width="24" height="24"><path d="m19,9.09v-3.09c0-.55-.45-1-1-1h-3.09l-2.21-2.21c-.39-.39-1.02-.39-1.41,0l-2.21,2.21h-3.09c-.55,0-1,.45-1,1v3.09l-2.21,2.21c-.39.39-.39,1.02,0,1.41l2.21,2.21v3.09c0,.55.45,1,1,1h3.09l2.21,2.21c.2.2.45.29.71.29s.51-.1.71-.29l2.21-2.21h3.09c.55,0,1-.45,1-1v-3.09l2.21-2.21c.39-.39.39-1.02,0-1.41l-2.21-2.21Zm-1.71,4.71c-.19.19-.29.44-.29.71v2.5h-2.5c-.27,0-.52.11-.71.29l-1.79,1.79-1.79-1.79c-.19-.19-.44-.29-.71-.29h-2.5v-2.5c0-.27-.11-.52-.29-.71l-1.79-1.79,1.79-1.79c.19-.19.29-.44.29-.71v-2.5h2.5c.27,0,.52-.11.71-.29l1.79-1.79,1.79,1.79c.19.19.44.29.71.29h2.5v2.5c0,.27.11.52.29.71l1.79,1.79-1.79,1.79Z"/><path d="M11 12.59 9.71 11.29 8.29 12.71 11 15.41 15.71 10.71 14.29 9.29 11 12.59z"/></svg>