<svg xmlns="http://www.w3.org/2000/svg" viewBox="0 0 24 24" width="24" height="24"><path d="m5,5h4v-2h-4c-1.1,0-2,.9-2,2v4h2v-4Z"/><path d="m5,21h4v-2h-4v-4h-2v4c0,1.1.9,2,2,2Z"/><path d="m21,19v-4h-2v4h-4v2h4c1.1,0,2-.9,2-2Z"/><path d="m21,9v-4c0-1.1-.9-2-2-2h-4v2h4v4h2Z"/><path d="m16.5,8.69l-4.28-2.14c-.14-.07-.31-.07-.45,0l-4.28,2.14,4.5,2.25,4.5-2.25Z"/><path d="m17,14.75v-5.19l-4.5,2.25v5.5l4.22-2.11c.17-.08.28-.26.28-.45Z"/><path d="m7,14.75c0,.19.11.36.28.45l4.22,2.11v-5.5l-4.5-2.25v5.19Z"/></svg>