<svg xmlns="http://www.w3.org/2000/svg" viewBox="0 0 24 24" width="24" height="24"><path class="b" d="m12,2C6.49,2,2,6.49,2,12s4.49,10,10,10,10-4.49,10-10S17.51,2,12,2Zm0,18c-4.41,0-8-3.59-8-8S7.59,4,12,4s8,3.59,8,8-3.59,8-8,8Z"/><path class="b" d="m12,6c-1.6,0-3.11.62-4.24,1.76s-1.76,2.64-1.76,4.24.62,3.11,1.76,4.24c1.13,1.13,2.64,1.76,4.24,1.76s3.11-.62,4.24-1.76c1.13-1.13,1.76-2.64,1.76-4.24s-.62-3.11-1.76-4.24-2.64-1.76-4.24-1.76Zm-2.83,3.17c.78-.78,1.8-1.17,2.83-1.17.03,0,.07,0,.1,0l-4.09,4.09s0-.07,0-.1c0-1.07.42-2.07,1.17-2.83Zm-.48,5.07l5.55-5.55c.21.14.4.3.58.48s.34.38.48.58l-5.55,5.55c-.21-.14-.41-.29-.59-.47-.18-.18-.34-.38-.48-.58Zm6.14.58c-.77.77-1.84,1.14-2.9,1.13l4.06-4.06s0,.07,0,.1c0,1.07-.42,2.07-1.17,2.83Z"/></svg>