<svg xmlns="http://www.w3.org/2000/svg" viewBox="0 0 24 24" width="24" height="24"><path d="m16.72,7.33v-.04s-.05,0-.05,0c-.96-3.1-3.88-5.28-7.17-5.28-4.14,0-7.5,3.36-7.5,7.5,0,3.29,2.19,6.21,5.28,7.17v.04s.05,0,.05,0c.96,3.1,3.88,5.28,7.17,5.28,4.14,0,7.5-3.36,7.5-7.5,0-3.29-2.19-6.21-5.28-7.17Zm-12.72,2.17c0-3.03,2.47-5.5,5.5-5.5,2.09,0,3.97,1.2,4.9,3-.13,0-.25.02-.37.02-.11,0-.22,0-.34.02-.14.01-.28.04-.41.06-.11.02-.22.03-.33.05-.13.03-.26.07-.4.1-.11.03-.21.05-.32.08-.13.04-.25.09-.38.14-.1.04-.2.07-.3.11-.13.05-.25.12-.37.18-.09.05-.19.09-.28.14-.12.07-.24.14-.36.22-.08.05-.17.1-.25.16-.12.08-.24.18-.36.27-.07.05-.15.11-.22.16-.14.12-.28.25-.41.37-.08.08-.16.16-.23.24-.12.13-.25.26-.36.4-.06.08-.12.16-.18.24-.08.11-.17.22-.25.33-.06.09-.11.19-.17.28-.07.11-.14.22-.2.33-.06.1-.1.21-.15.31-.05.11-.11.22-.16.34-.05.11-.08.22-.12.33-.04.12-.09.23-.13.35-.04.11-.06.23-.09.35-.03.12-.07.24-.09.36-.03.12-.04.24-.06.36-.02.12-.04.25-.06.37-.01.12-.02.25-.02.38,0,.11-.02.22-.02.33-1.8-.93-3-2.81-3-4.9Zm10.5,10.5c-2.09,0-3.97-1.2-4.9-3,.11,0,.22-.01.33-.02.13,0,.25-.01.38-.02.13-.01.25-.04.37-.06.12-.02.24-.03.36-.06.12-.03.24-.06.36-.09.12-.03.23-.06.35-.09.12-.04.24-.09.35-.13.11-.04.22-.08.33-.12.12-.05.23-.11.35-.17.1-.05.2-.09.3-.15.12-.06.23-.14.34-.21.09-.06.18-.11.27-.17.12-.08.23-.17.34-.25.08-.06.16-.11.23-.18.14-.12.27-.24.4-.36.08-.08.16-.16.24-.24.12-.13.25-.26.36-.4.06-.07.12-.16.17-.23.09-.11.18-.22.25-.34.06-.09.11-.18.16-.26.07-.12.15-.23.21-.35.05-.09.1-.2.14-.29.06-.12.12-.23.17-.36.04-.1.08-.21.12-.32.05-.12.09-.24.13-.37.03-.11.06-.22.09-.34.03-.12.07-.25.1-.37.02-.12.04-.24.06-.36.02-.13.04-.25.06-.38.01-.12.02-.25.02-.38,0-.11.02-.22.02-.34,1.8.93,3,2.81,3,4.9,0,3.03-2.47,5.5-5.5,5.5Z"/></svg>