<svg xmlns="http://www.w3.org/2000/svg" width="24" height="24"><path d="M6.99 12c0 2.76 2.25 5.01 5.01 5.01s5.01-2.25 5.01-5.01S14.76 6.99 12 6.99 6.99 9.24 6.99 12M12 8.99c1.66 0 3.01 1.35 3.01 3.01s-1.35 3.01-3.01 3.01S8.99 13.66 8.99 12 10.34 8.99 12 8.99M13 19h-2v2h2v-2M11 5h2V3h-2v2M3 11h2v2H3zM19 11h2v2h-2zM4.93 17.66l.71.7.7.71.71-.71.71-.7-.71-.71-.71-.71-.7.71zM17.66 4.93l-.71.71-.71.7.71.71.71.71.7-.71.71-.71-.71-.7zM4.93 6.34l.71.71.7.71.71-.71.71-.71-.71-.7-.71-.71-.7.71zM17.66 19.07l.7-.71.71-.7-.71-.71-.7-.71-.71.71-.71.71.71.7z"/></svg>