<svg xmlns="http://www.w3.org/2000/svg" viewBox="0 0 24 24" width="24" height="24"><path d="m20.42,6.11l-7.97-4c-.28-.14-.62-.14-.9,0L3.58,6.11c-.31.15-.51.45-.55.79-.01.11-.96,10.77,8.55,15.01.13.06.27.09.41.09s.28-.03.41-.09c9.51-4.25,8.57-14.9,8.55-15.01-.03-.34-.24-.64-.55-.79Zm-1.75,4.89h-5.67v-6.38l6,3.01c.01.67-.03,1.9-.33,3.37Zm-13.67-3.37l6-3.01v6.38h-5.7c-.29-1.46-.32-2.69-.3-3.37Zm.85,5.37h5.15v6.35c-2.84-1.7-4.35-4.11-5.15-6.35Zm7.15,6.34v-6.34h5.11c-.8,2.24-2.3,4.65-5.11,6.34Z"/></svg>