<svg xmlns="http://www.w3.org/2000/svg" viewBox="0 0 24 24" width="24" height="24"><path d="M21.44 14.67 20.7 13.38 17.09 15.57 21.09 10.48 21.7 10.12 21.55 9.9 21.82 9.55 20.56 8.5 19.98 9.23 8.32 16.05 12.63 10.87 20.66 6.47 19.9 4.99 15.53 7.39 17.68 4.8 16.45 3.71 11.6 9.54 6.79 12.18 10.47 7.31 12.78 6.11 12.05 4.62 5.32 8.12 7.15 5.69 5.87 4.66 2 9.79 2.06 9.84 2.78 11.31 7.08 9.08 3.16 14.25 3.81 14.76 4.19 15.5 8.71 13.02 3.73 19.01 4.96 20.1 5.21 19.8 17.22 12.75 13.23 17.83 13.3 17.88 13.29 17.89 14.12 19.32 19.42 16.09 17.38 19.39 18.75 20.29 22 15.04 21.44 14.67z"/></svg>