<svg xmlns="http://www.w3.org/2000/svg" viewBox="0 0 24 24" width="24" height="24"><path d="M4.5 18A1.5 1.5 0 1 0 4.5 21 1.5 1.5 0 1 0 4.5 18z"/><path d="m18.55,6.14c-.96-2.47-3.36-4.14-6.05-4.14-1.79,0-3.47.73-4.7,2.02-2.09-.21-3.8,1.46-3.8,3.48,0,.08,0,.17.01.25-1.24.82-2.01,2.22-2.01,3.75s.83,3.01,2.15,3.82c.39,1.13,1.61,1.87,2.81,1.63,1.56,1.22,3.82,1.37,5.54.36.76.45,1.61.69,2.5.69,2.26,0,4.2-1.5,4.8-3.64,1.35-.81,2.2-2.27,2.2-3.86,0-2.12-1.44-3.89-3.45-4.36Zm-.03,6.64l-.48.22-.09.52c-.25,1.44-1.49,2.48-2.95,2.48-.68,0-1.32-.23-1.87-.68l-.63-.51-.63.51c-1.19.96-2.92.85-3.97-.2l-.52-.52-.65.34c-.35.18-.68-.06-.71-.39l-.06-.56-.51-.24c-.89-.42-1.44-1.28-1.44-2.25s.6-1.91,1.53-2.3l.85-.36-.29-.87c-.06-.18-.09-.33-.09-.47,0-.83.67-1.5,1.5-1.5.12,0,.24.02.41.07l.64.18.41-.53c.86-1.1,2.15-1.72,3.54-1.72,2.01,0,3.79,1.36,4.33,3.3l.19.67.69.06c1.3.11,2.29,1.17,2.29,2.47,0,.98-.58,1.87-1.48,2.28Z"/></svg>