<svg xmlns="http://www.w3.org/2000/svg" viewBox="0 0 24 24" width="24" height="24"><path d="m21,9.5c0-2.46-1.98-4.46-4.43-4.5-.78-1.8-2.56-3-4.57-3s-3.79,1.2-4.57,3c-2.45.04-4.43,2.04-4.43,4.5,0,.25.02.5.07.76-.7.94-1.07,2.08-1.07,3.24,0,3.03,2.47,5.5,5.5,5.5h3.5v3h2v-3h3.5c3.03,0,5.5-2.47,5.5-5.5,0-1.16-.38-2.29-1.07-3.24.05-.26.07-.51.07-.76Zm-4.5,7.5H7.5c-1.93,0-3.5-1.57-3.5-3.5,0-.85.32-1.67.91-2.33l.38-.42-.16-.54c-.08-.27-.12-.5-.12-.72,0-1.38,1.12-2.5,2.5-2.5.15,0,.3.02.45.05l.93.17.22-.92c.33-1.35,1.52-2.3,2.91-2.3s2.58.94,2.91,2.3l.22.92.93-.17c.15-.03.29-.05.45-.05,1.38,0,2.5,1.12,2.5,2.5,0,.21-.04.44-.12.72l-.16.54.38.42c.59.65.91,1.48.91,2.33,0,1.93-1.57,3.5-3.5,3.5Z"/></svg>