<svg xmlns="http://www.w3.org/2000/svg" viewBox="0 0 24 24" width="24" height="24"><path d="m3.2,2.91c-.11,0-.2.09-.2.21,0,.02,0,.03,0,.05l2.19,8.87s0,.02,0,.03l2.19,8.87c.03.11.14.18.25.15.03,0,.07-.03.09-.05l13.21-12.7c.08-.08.08-.21,0-.29-.02-.03-.06-.04-.09-.05l-4.38-1.26s-.06-.03-.09-.03l-8.64-2.49s-.07-.03-.11-.03l-4.38-1.26s-.04,0-.06,0Zm.28.5l3.75,1.08-2.82,2.71-.94-3.79Zm4.43,1.28l3.68,1.06-2.76,2.66-.92-3.72Zm-.4.09l.92,3.73-3.69-1.06,2.77-2.67Zm4.76,1.16l3.69,1.06-2.77,2.67-.92-3.74Zm-.39.1l.91,3.71-3.68-1.05,2.76-2.66Zm4.77,1.16l3.75,1.08-2.81,2.71-.93-3.79Zm-.4.09l.92,3.73-3.69-1.06,2.77-2.67Zm-11.69.53l3.76,1.08-2.82,2.72-.94-3.79Zm4.43,1.27l3.69,1.06-2.77,2.67-.92-3.73Zm-.39.1l.94,3.8-3.76-1.08,2.82-2.72Zm4.75,1.16l3.76,1.08-2.82,2.72-.94-3.8Zm-.39.1l.94,3.8-3.75-1.08,2.82-2.71Zm-7.29,1.85l3.69,1.06-2.77,2.67-.92-3.73Zm4.43,1.28l3.68,1.06-2.76,2.66-.92-3.72Zm-.41.03l.92,3.73-3.69-1.06,2.77-2.67Zm-2.95,3.04l3.81,1.09-2.86,2.76-.95-3.85Z"/></svg>