<svg xmlns="http://www.w3.org/2000/svg" viewBox="0 0 24 24" width="24" height="24"><path d="m14.26,14h.24c.38,0,.72-.21.89-.55.17-.34.13-.74-.09-1.05l-1.8-2.4c.38,0,.72-.21.89-.55.17-.34.13-.74-.09-1.05l-4.5-6c-.38-.5-1.22-.5-1.6,0l-4.5,6c-.23.3-.26.71-.09,1.05.17.34.52.55.89.55l-1.8,2.4c-.23.3-.26.71-.09,1.05.17.34.52.55.89.55h.2l-1.54,2.47c-.19.31-.2.7-.03,1.01.18.32.51.52.88.52h5v4h2v-4h5c.37,0,.7-.2.88-.52.17-.32.16-.71-.04-1.02l-1.58-2.46Z"/><path d="m15,19h-1v3h2v-3.27c-.3.17-.64.27-1,.27Z"/><path d="m21.84,16.46l-1.58-2.46h.24c.38,0,.72-.21.89-.55.17-.34.13-.74-.09-1.05l-1.8-2.4c.38,0,.72-.21.89-.55.17-.34.13-.74-.09-1.05l-4.5-6c-.38-.5-1.22-.5-1.6,0l-1.58,2.1,2.47,3.3c.46.61.53,1.41.19,2.1-.08.16-.18.3-.29.43l1.1,1.47c.46.61.53,1.41.19,2.1-.12.25-.3.46-.5.63l.89,1.39c.4.61.43,1.4.07,2.04,0,.01-.02.03-.03.04h4.27c.37,0,.7-.2.88-.52.17-.32.16-.71-.04-1.02Z"/></svg>