<svg xmlns="http://www.w3.org/2000/svg" viewBox="0 0 24 24" width="24" height="24"><path d="m20.26,14h.24c.38,0,.73-.21.89-.55s.13-.74-.09-1.05l-1.8-2.4c.38,0,.73-.21.89-.55s.13-.74-.09-1.05l-4.5-6c-.38-.5-1.22-.5-1.6,0l-2.2,2.93-2.2-2.93c-.38-.5-1.22-.5-1.6,0l-4.5,6c-.23.3-.26.71-.09,1.05s.52.55.89.55l-1.8,2.4c-.23.3-.26.71-.09,1.05s.52.55.89.55h.2l-1.54,2.47c-.19.31-.2.7-.03,1.01.18.32.51.52.87.52h5v4h2v-4h4v4h2v-4h5c.37,0,.7-.2.88-.52.18-.32.16-.71-.04-1.02l-1.58-2.46Zm-15.46,2l1.54-2.47c.19-.31.2-.7.03-1.01-.18-.32-.51-.52-.87-.52l1.8-2.4c.23-.3.26-.71.09-1.05s-.52-.55-.89-.55l2.5-3.33,2.5,3.33c-.38,0-.73.21-.89.55s-.13.74.09,1.05l1.8,2.4h-.07c-.37,0-.7.2-.88.52-.18.32-.16.71.04,1.02l1.58,2.46H4.8Zm10.74,0l-1.29-2h.24c.38,0,.73-.21.89-.55s.13-.74-.09-1.05l-1.8-2.4c.38,0,.73-.21.89-.55s.13-.74-.09-1.05l-1.05-1.4,1.75-2.33,2.5,3.33c-.38,0-.73.21-.89.55s-.13.74.09,1.05l1.8,2.4h-.07c-.37,0-.7.2-.88.52-.18.32-.16.71.04,1.02l1.58,2.46h-3.62Z"/></svg>