<svg xmlns="http://www.w3.org/2000/svg" viewBox="0 0 24 24" width="24" height="24"><path d="m15.92,19.4c-.39-.23-.67-.4-1.32-.4s-.93.17-1.32.4c-.46.27-1.03.6-2.08.6s-1.62-.33-2.08-.6c-.39-.23-.67-.4-1.32-.4s-.93.17-1.32.4c-.46.27-1.03.6-2.08.6s-1.62-.33-2.08-.6c-.39-.23-.67-.4-1.32-.4v.5c0,1.93,1.57,3.5,3.5,3.5h10c1.76,0,3.21-1.31,3.45-3-1.02-.01-1.58-.34-2.03-.6Z"/><path d="m14.6,15.5c-.65,0-.93.17-1.32.4-.46.27-1.03.6-2.08.6s-1.62-.33-2.08-.6c-.39-.23-.67-.4-1.32-.4s-.93.17-1.32.4c-.46.27-1.03.6-2.08.6s-1.62-.33-2.08-.6c-.39-.23-.67-.4-1.32-.4v2c1.05,0,1.62.33,2.08.6.39.23.67.4,1.32.4s.93-.17,1.32-.4c.46-.27,1.03-.6,2.08-.6s1.62.33,2.08.6c.39.23.67.4,1.32.4s.93-.17,1.32-.4c.46-.27,1.03-.6,2.08-.6s1.62.33,2.08.6c.39.23.67.4,1.32.4v-1.22h-.03c.02-.09.03-.18.03-.28v-.5c-1.06,0-1.62-.33-2.08-.6-.39-.23-.67-.4-1.32-.4Z"/><path d="m19,1H5C2.79,1,1,2.79,1,5v9c1.05,0,1.62.33,2.08.6.39.23.67.4,1.32.4s.93-.17,1.32-.4c.46-.27,1.03-.6,2.08-.6s1.62.33,2.08.6c.39.23.67.4,1.32.4s.93-.17,1.32-.4c.46-.27,1.03-.6,2.08-.6s1.62.33,2.08.6c.39.23.67.4,1.32.4V5c0-.55.45-1,1-1s1,.45,1,1v12.5c0,.83.67,1.5,1.5,1.5s1.5-.67,1.5-1.5V5c0-2.21-1.79-4-4-4Z"/></svg>