<svg xmlns="http://www.w3.org/2000/svg" viewBox="0 0 24 24" width="24" height="24"><path d="m19,2H5c-1.65,0-3,1.35-3,3v15c0,1.1.9,2,2,2h12c1.1,0,2-.9,2-2V5c0-.55.45-1,1-1s1,.45,1,1v13h2V5c0-1.65-1.35-3-3-3Zm-3,13.56c-.39-.27-.92-.56-1.8-.56-1.02,0-1.58.4-1.98.69-.3.22-.44.31-.82.31s-.52-.1-.82-.31c-.41-.29-.96-.69-1.98-.69s-1.58.4-1.98.69c-.3.21-.44.31-.82.31s-.52-.1-.82-.31c-.24-.17-.56-.38-.98-.52v-1.73c.39.27.92.56,1.8.56,1.02,0,1.58-.4,1.98-.69.3-.21.44-.31.82-.31s.52.1.82.31c.41.29.96.69,1.98.69s1.58-.4,1.98-.69c.3-.22.44-.31.82-.31s.52.1.82.31c.24.17.56.38.98.52v1.73Zm0,4.44H4v-2.56c.39.27.92.56,1.8.56,1.02,0,1.58-.4,1.98-.69.3-.21.44-.31.82-.31s.52.1.82.31c.41.29.96.69,1.98.69s1.58-.4,1.98-.69c.3-.22.44-.31.82-.31s.52.1.82.31c.24.17.56.38.98.52v2.17Zm0-15v6.56c-.39-.27-.92-.56-1.8-.56-1.02,0-1.58.4-1.98.69-.3.22-.44.31-.82.31s-.52-.1-.82-.31c-.41-.29-.96-.69-1.98-.69s-1.58.4-1.98.69c-.3.21-.44.31-.82.31s-.52-.1-.82-.31c-.24-.17-.56-.38-.98-.52v-6.17c0-.55.45-1,1-1h11.18c-.11.31-.18.65-.18,1Z"/></svg>