<svg xmlns="http://www.w3.org/2000/svg" viewBox="0 0 24 24" width="24" height="24"><path d="M20 18A2 2 0 1 0 20 22 2 2 0 1 0 20 18z"/><path d="m19.08,15.08c3.4-3.4,3.89-8.45,1.09-11.25-2.8-2.8-7.85-2.31-11.25,1.09-2.72,2.72-3.57,6.48-2.38,9.31,0,.5-.1.99-.32,1.49-.31.56-.65,1.11-1,1.64l-2.9,2.9c-.29.29-.29.77,0,1.06l.35.35c.29.29.77.29,1.06,0l2.9-2.9c.53-.35,1.08-.69,1.64-1,.5-.22.98-.31,1.49-.32.83.35,1.75.53,2.69.53,2.27,0,4.71-.99,6.62-2.91Zm-6.72.92l.64-.64.54.54c-.4.07-.8.11-1.19.1Zm-4.26-5.54l.54.54-.64.64c0-.39.03-.79.1-1.19Zm6.9-5.1l1.65,1.65-1.65,1.65-1.65-1.65,1.65-1.65Zm-2,1.29l-1.37-1.37c.72-.49,1.49-.83,2.25-1.04l.77.77-1.65,1.65Zm6.9,2.9l-.54-.54.64-.64c0,.39-.03.79-.1,1.19Zm-6.9,5.1l-1.65-1.65,1.65-1.65,1.65,1.65-1.65,1.65Zm2-1.29l1.37,1.37c-.72.48-1.49.83-2.25,1.04l-.77-.77,1.65-1.65Zm-5.57,1.57l1.57-1.57,1.65,1.65-.95.95c-.86-.12-1.64-.46-2.27-1.02Zm-.35-.35c-.56-.63-.9-1.42-1.02-2.27l.95-.95,1.65,1.65-1.57,1.57Zm4.28-3.57l1.65-1.65,1.65,1.65-1.65,1.65-1.65-1.65Zm2-2l1.65-1.65,1.65,1.65-1.65,1.65-1.65-1.65Zm3.65.35l.77.77c-.21.76-.56,1.53-1.04,2.25l-1.37-1.37,1.65-1.65Zm0-.71l-1.65-1.65,1.57-1.57c.56.63.9,1.42,1.02,2.27l-.95.95Zm-2-2l-1.65-1.65.94-.94c.86.12,1.63.46,2.27,1.02l-1.56,1.56Zm-2.35,2.35l-1.65,1.65-1.65-1.65,1.65-1.65,1.65,1.65Zm-2,2l-1.65,1.65-1.65-1.65,1.65-1.65,1.65,1.65Zm-3.65-.35l-.77-.77c.21-.76.56-1.53,1.04-2.25l1.37,1.37-1.65,1.65Zm7.78,3.78l-1.43-1.43,1.65-1.65,1.43,1.43c-.23.3-.48.6-.76.88-.28.28-.58.53-.88.76Zm-1.24-10.43s.07,0,.1,0l-.64.64-.54-.54c.36-.07.73-.11,1.08-.11Zm-4.32,1.58l1.43,1.43-1.65,1.65-1.43-1.43c.23-.3.48-.6.76-.88s.58-.53.88-.76Z"/></svg>