<svg xmlns="http://www.w3.org/2000/svg" viewBox="0 0 24 24" width="24" height="24"><path d="m8.5,10.5c0,2,1.5,3.5,3.5,3.5s3.5-1.5,3.5-3.5-1.5-3.5-3.5-3.5-3.5,1.5-3.5,3.5Zm5,0c0,.88-.62,1.5-1.5,1.5s-1.5-.62-1.5-1.5.62-1.5,1.5-1.5,1.5.62,1.5,1.5Z"/><path d="m20.53,7.15L12.53,2.15c-.32-.2-.74-.2-1.06,0L3.47,7.15c-.29.18-.47.5-.47.85v8c0,.34.18.67.47.85l8,5c.16.1.35.15.53.15s.37-.05.53-.15l8-5c.29-.18.47-.5.47-.85v-8c0-.34-.18-.67-.47-.85Zm-8.53,12.67l-3.1-1.94c.55-.56,1.29-.88,2.1-.88h2c.8,0,1.55.32,2.1.88l-3.1,1.94Zm7-4.38l-2.19,1.37c-.94-1.13-2.33-1.81-3.81-1.81h-2c-1.48,0-2.87.68-3.81,1.81l-2.19-1.37v-6.89l7-4.38,7,4.38v6.89Z"/></svg>