<svg xmlns="http://www.w3.org/2000/svg" viewBox="0 0 24 24" width="24" height="24"><path class="b" d="m9.88,18.36c-1.17,1.17-3.07,1.17-4.24,0-1.17-1.17-1.17-3.07,0-4.24l2.83-2.83-1.41-1.41-2.83,2.83c-1.95,1.95-1.95,5.12,0,7.07.97.97,2.25,1.46,3.54,1.46s2.56-.49,3.54-1.46l2.83-2.83-1.41-1.41-2.83,2.83Z"/><path class="b" d="m12.71,4.22l-2.83,2.83,1.41,1.41,2.83-2.83c1.17-1.17,3.07-1.17,4.24,0,1.17,1.17,1.17,3.07,0,4.24l-2.83,2.83,1.41,1.41,2.83-2.83c1.95-1.95,1.95-5.12,0-7.07-1.95-1.95-5.12-1.95-7.07,0Z"/></svg>