<svg xmlns="http://www.w3.org/2000/svg" viewBox="0 0 24 24" width="24" height="24"><path d="m6.97,17.68c-.15-.95-.97-1.68-1.97-1.68-1.1,0-2,.9-2,2s.9,2,2,2h.68c1.79,0,3.45-.97,4.34-2.52l1.98-3.47,2.47,4.32c.59,1.03,1.69,1.67,2.87,1.67,1.43,0,2.69-.91,3.14-2.26l.47-1.42-1.9-.63-.47,1.42c-.18.53-.68.89-1.24.89-.47,0-.9-.25-1.13-.66l-3.05-5.34,2.56-4.49c.31-.54.78-.94,1.32-1.2.15.95.97,1.68,1.97,1.68,1.1,0,2-.9,2-2s-.9-2-2-2h-.68c-1.79,0-3.45.97-4.34,2.52l-1.98,3.47-2.47-4.32c-.59-1.03-1.69-1.67-2.87-1.67-1.43,0-2.69.91-3.14,2.26l-.47,1.42,1.9.63.47-1.42c.18-.53.68-.89,1.24-.89.47,0,.9.25,1.13.66l3.05,5.34-2.56,4.49c-.31.54-.78.94-1.32,1.2Z"/></svg>