<svg xmlns="http://www.w3.org/2000/svg" viewBox="0 0 24 24" width="24" height="24"><path d="M13.5 9A1.5 1.5 0 1 0 13.5 12 1.5 1.5 0 1 0 13.5 9z"/><path d="M13 14A1 1 0 1 0 13 16 1 1 0 1 0 13 14z"/><path d="M9 11A1 1 0 1 0 9 13 1 1 0 1 0 9 11z"/><path d="m19.2,9.2h-.14s-.02-.02-.04-.07v-.02s-.03-.05-.03-.05c-.02-.04-.01-.08-.01-.09l.08-.08c1.09-1.09,1.09-2.87,0-3.96-.53-.53-1.23-.82-1.98-.82s-1.45.29-1.98.82l-.1.1s-.05-.01-.09-.03h0s-.05-.02-.05-.02c-.05-.02-.07-.05-.07-.05v-.05c0-1.61-1.23-2.87-2.8-2.87s-2.8,1.26-2.8,2.8c0,.1-.04.16-.1.18h-.02s-.04.02-.05.02c-.03,0-.08,0-.12-.05-.55-.55-1.25-.84-2-.84s-1.45.29-1.98.82c-1.09,1.09-1.09,2.87,0,3.96.07.07.08.14.06.19l-.02.04c-.02.05-.06.08-.11.08-1.61,0-2.87,1.23-2.87,2.8s1.26,2.8,2.8,2.8h.05c.05,0,.1.03.12.08h0s.02.06.02.06c.01.03,0,.1-.04.14-1.12,1.12-1.12,2.9-.03,3.99.53.53,1.23.82,1.98.82s1.45-.29,1.98-.82c.07-.07.11-.07.14-.07.02,0,.04,0,.06.01l.11.04v.08c.01,1.61,1.24,2.87,2.81,2.87s2.8-1.26,2.8-2.8v-.14l.2-.09.11.1c.53.53,1.23.82,1.98.82s1.45-.29,1.98-.82c1.09-1.09,1.09-2.87,0-3.96l-.1-.1s0,0,0,0c0,0,0-.04.03-.09h0s.02-.05.02-.05c.02-.05.05-.07.06-.08h.05c1.61,0,2.87-1.23,2.87-2.8s-1.26-2.8-2.8-2.8Zm-.07,3.6h-.06c-.84,0-1.57.54-1.89,1.32l-.02.04c-.33.78-.2,1.68.4,2.28l.1.1c.31.31.31.82,0,1.13-.16.16-.36.23-.57.23s-.41-.08-.57-.23l-.1-.1c-.38-.38-.9-.59-1.42-.59-.26,0-.52.05-.77.15l-.2.08c-.75.31-1.24,1.04-1.24,1.85v.14c0,.44-.36.8-.8.8s-.8-.36-.8-.87v-.07c0-.81-.49-1.54-1.24-1.85l-.11-.05c-.27-.11-.55-.16-.82-.16-.56,0-1.11.22-1.52.63l-.03.03c-.16.16-.36.23-.57.23s-.41-.08-.57-.23c-.31-.31-.31-.82,0-1.13l.03-.03c.61-.62.8-1.54.47-2.34l-.02-.04c-.33-.8-1.11-1.32-1.97-1.32h-.05c-.44,0-.8-.36-.8-.8s.36-.8.87-.8h0c.85,0,1.62-.51,1.95-1.3l.02-.05c.33-.8.15-1.73-.47-2.34l-.03-.03c-.31-.31-.31-.82,0-1.13.16-.16.36-.23.57-.23s.41.08.57.23l.02.02c.41.41.97.64,1.53.64.28,0,.56-.05.83-.16h0c.81-.34,1.34-1.13,1.34-2v-.03c0-.44.36-.8.8-.8s.8.36.8.87v.06c0,.84.54,1.57,1.31,1.89l.04.02c.28.12.57.18.86.18.52,0,1.03-.19,1.41-.58l.1-.1c.16-.16.36-.23.57-.23s.41.08.57.23c.31.31.31.82,0,1.13l-.1.1c-.6.6-.73,1.5-.4,2.28l.02.04c.32.78,1.04,1.32,1.89,1.32h.14c.44,0,.8.36.8.8s-.36.8-.87.8Z"/></svg>