<svg xmlns="http://www.w3.org/2000/svg" viewBox="0 0 24 24" width="24" height="24"><path d="m18.28,8c.35.6.98,1,1.72,1,1.1,0,2-.9,2-2s-.9-2-2-2c-.74,0-1.38.4-1.72,1h-2.28v-2c0-.55-.45-1-1-1h-6c-.55,0-1,.45-1,1v2h-2.28c-.35-.6-.98-1-1.72-1-1.1,0-2,.9-2,2s.9,2,2,2c.74,0,1.38-.4,1.72-1h2.28v1.08c-.6.35-1.16.77-1.66,1.26-.73.73-1.31,1.59-1.71,2.54-.29.68-.47,1.39-.56,2.11h-1.07c-.55,0-1,.45-1,1v4c0,.55.45,1,1,1h4c.55,0,1-.45,1-1v-4c0-.55-.45-1-1-1h-.91c.08-.46.2-.91.38-1.34.3-.71.73-1.36,1.29-1.91.31-.31.65-.57,1.02-.8.08.02.15.05.23.05h6c.08,0,.15-.03.23-.05.36.23.71.49,1.02.8.55.55.98,1.19,1.29,1.91.18.43.31.88.38,1.33h-.91c-.55,0-1,.45-1,1v4c0,.55.45,1,1,1h4c.55,0,1-.45,1-1v-4c0-.55-.45-1-1-1h-1.07c-.09-.73-.27-1.44-.56-2.11-.4-.95-.98-1.81-1.71-2.54-.5-.5-1.06-.92-1.66-1.26v-1.08h2.28Zm-12.28,11h-2v-2h2v2Zm14,0h-2v-2h2v2Zm-6-10h-4v-4h4v4Z"/></svg>