<svg xmlns="http://www.w3.org/2000/svg" viewBox="0 0 24 24" width="24" height="24"><path d="m17,6H7c-2.76,0-5,2.24-5,5v2.09c0,2.71,2.2,4.91,4.91,4.91,1.65,0,3.17-.82,4.08-2.19l.29-.43c.32-.48,1.12-.48,1.45,0l.29.43c.91,1.37,2.44,2.19,4.08,2.19,2.71,0,4.91-2.2,4.91-4.91v-2.09c0-2.76-2.24-5-5-5Zm3,7.09c0,1.6-1.3,2.91-2.91,2.91-.97,0-1.88-.48-2.42-1.29l-.29-.43c-.53-.8-1.43-1.28-2.39-1.28s-1.85.48-2.39,1.28l-.29.43c-.54.81-1.45,1.29-2.42,1.29-1.6,0-2.91-1.3-2.91-2.91v-2.09c0-1.65,1.35-3,3-3h10c1.65,0,3,1.35,3,3v2.09Z"/></svg>