<svg xmlns="http://www.w3.org/2000/svg" viewBox="0 0 24 24" width="24" height="24"><path d="m3,22h10c.55,0,1-.45,1-1v-5.76c0-1.71-.67-3.32-1.88-4.54-.66-.65-1.04-1.51-1.11-2.42l.57-.86c.67,1.35,2,2.57,4.42,2.57v-2c-1.88,0-2.58-1.11-2.84-2h1.84c.55,0,1-.45,1-1v-2c0-.55-.45-1-1-1h-7.7c-.4,0-.78.12-1.11.34l-1.92,1.28c-.45.3-.75.75-.85,1.27-.11.52,0,1.06.3,1.5l1.27,1.9c-.07.91-.46,1.77-1.11,2.42-1.21,1.21-1.88,2.82-1.88,4.54v5.76c0,.55.45,1,1,1Zm2.29-9.88c1.1-1.1,1.71-2.56,1.71-4.12h2c0,1.56.61,3.02,1.71,4.12.83.83,1.29,1.94,1.29,3.12v.72c-1.66-.11-2.62-.49-3.63-.89-1.11-.44-2.25-.89-4.19-1.03.2-.72.57-1.38,1.11-1.92Z"/><path d="M17 3H19V5H17z"/><path d="M20 3H22V5H20z"/><path d="M20 6H22V8H20z"/></svg>