<svg xmlns="http://www.w3.org/2000/svg" viewBox="0 0 24 24" width="24" height="24"><path d="m13,5.5c0-1.93-1.57-3.5-3.5-3.5-2.03,0-3.25,1.53-3.25,3h2c0-.42.39-1,1.25-1s1.5.67,1.5,1.5-.67,1.5-1.5,1.5H2v2h7.5c1.93,0,3.5-1.57,3.5-3.5Z"/><path d="m15.5,15h-7.5v2h7.5c.83,0,1.5.67,1.5,1.5s-.67,1.5-1.5,1.5-1.25-.58-1.25-1h-2c0,1.47,1.22,3,3.25,3,1.93,0,3.5-1.57,3.5-3.5s-1.57-3.5-3.5-3.5Z"/><path d="m18,5c-2.21,0-4,1.79-4,4h2c0-1.1.9-2,2-2s2,.9,2,2-.9,2-2,2H2v2h16c2.21,0,4-1.79,4-4s-1.79-4-4-4Z"/><path d="M2 15H6V17H2z"/></svg>