<svg version="1.1" xmlns="http://www.w3.org/2000/svg" xmlns:xlink="http://www.w3.org/1999/xlink" x="0px" y="0px" viewBox="0 0 24 24" xml:space="preserve" width="24" height="24"><path class="st0" d="M12,2C6.5,2,2,6.5,2,12s4.5,10,10,10s10-4.5,10-10S17.5,2,12,2z M18.5,14.2l-1.1,1.1l-2.2-2.2l-2.2,2.2l2.2,2.2
	l-1.1,1.1L12,16.3l-2.2,2.2l-1.1-1.1l2.2-2.2l-2.2-2.2l-2.2,2.2l-1.1-1.1L7.7,12L5.5,9.8l1.1-1.1l2.2,2.2l2.2-2.2L8.7,6.5l1.1-1.1
	L12,7.7l2.2-2.2l1.1,1.1l-2.2,2.2l2.2,2.2l2.2-2.2l1.1,1.1L16.3,12C16.3,12,18.5,14.2,18.5,14.2z"/><path class="st0" d="M9.8 12 10.9 10.9 12 9.8 13.1 10.9 14.2 12 13.1 13.1 12 14.2 10.9 13.1z"/></svg>