<svg xmlns="http://www.w3.org/2000/svg" viewBox="0 0 24 24" width="24" height="24"><path d="m19,22H5c-1.1,0-2-.9-2-2V4c0-1.1.9-2,2-2h14c1.1,0,2,.9,2,2v16c0,1.1-.9,2-2,2ZM5,4v16h14V4H5Z"/><path d="m12,8c-2.76,0-5,2.24-5,5s2.24,5,5,5,5-2.24,5-5-2.24-5-5-5Zm2.84,6.16c-.34,1.01-1.22,1.8-2.27,2-.22.04-.45.06-.68.05-1.66-.06-2.96-1.45-2.9-3.11h0c.4.15.88.26,1.49.26,1.37,0,2.1-.54,2.69-.97.36-.26.67-.49,1.12-.6.17-.04.34.05.41.2.32.68.36,1.46.11,2.17Z"/><path d="M14 5A1 1 0 1 0 14 7 1 1 0 1 0 14 5z"/><path d="M17 5A1 1 0 1 0 17 7 1 1 0 1 0 17 5z"/></svg>