<svg xmlns="http://www.w3.org/2000/svg" viewBox="0 0 24 24" width="24" height="24"><path d="m11.9,16.21c.23,0,.45,0,.68-.05,1.05-.2,1.93-.99,2.27-2,.25-.71.2-1.49-.11-2.17-.07-.15-.24-.24-.41-.2-.45.11-.76.34-1.12.6-.59.43-1.32.97-2.69.97-.61,0-1.09-.11-1.49-.27h0c-.06,1.67,1.24,3.06,2.9,3.12Z"/><path d="m5,22h14c1.1,0,2-.9,2-2V4c0-1.1-.9-2-2-2H5c-1.1,0-2,.9-2,2v16c0,1.1.9,2,2,2ZM18,4c.55,0,1,.45,1,1s-.45,1-1,1-1-.45-1-1,.45-1,1-1Zm-3,0c.55,0,1,.45,1,1s-.45,1-1,1-1-.45-1-1,.45-1,1-1Zm-3,4c2.76,0,5,2.24,5,5s-2.24,5-5,5-5-2.24-5-5,2.24-5,5-5Z"/></svg>