<svg xmlns="http://www.w3.org/2000/svg" viewBox="0 0 24 24" width="24" height="24"><path d="m15,2h-7.7c-.4,0-.78.12-1.11.34l-1.92,1.28c-.44.3-.75.75-.85,1.27-.1.52,0,1.06.3,1.5l1.25,1.88c-.06.92-.44,1.78-1.1,2.44-1.21,1.21-1.88,2.82-1.88,4.54v5.76c0,.55.45,1,1,1h10c.55,0,1-.45,1-1v-5.76c0-1.71-.67-3.32-1.88-4.54-.63-.63-1-1.45-1.08-2.33l.36-.36c.59,1.5,1.93,2.99,4.6,2.99v-2c-1.88,0-2.58-1.11-2.84-2h1.84c.55,0,1-.45,1-1v-3c0-.55-.45-1-1-1ZM4,20v-3.96c1.66.11,2.62.49,3.63.89,1.14.46,2.32.93,4.37,1.04v2.03H4Zm8-4.04c-1.66-.11-2.62-.49-3.63-.89-1.11-.44-2.26-.89-4.19-1.03.2-.72.57-1.38,1.11-1.92.86-.86,1.42-1.94,1.62-3.12h2.17c.2,1.18.76,2.26,1.62,3.12s1.29,1.94,1.29,3.12v.72Zm2-10.96h-2c-.27,0-.52.11-.71.29l-1.71,1.71h-3.05l-1.15-1.72,1.92-1.28h6.7v1Z"/><path d="M17 3H19V5H17z"/><path d="M20 3H22V5H20z"/><path d="M20 6H22V8H20z"/></svg>