<svg xmlns="http://www.w3.org/2000/svg" viewBox="0 0 24 24" width="24" height="24"><path d="M14.83 7.76 12 10.59 9.17 7.76 7.76 9.17 10.59 12 7.76 14.83 9.17 16.24 12 13.41 14.83 16.24 16.24 14.83 13.41 12 16.24 9.17 14.83 7.76z"/><path d="m12,2c-2.67,0-5.18,1.04-7.07,2.93-1.89,1.89-2.93,4.4-2.93,7.07s1.04,5.18,2.93,7.07c1.95,1.95,4.51,2.92,7.07,2.92s5.12-.97,7.07-2.92,2.93-4.4,2.93-7.07-1.04-5.18-2.93-7.07c-1.89-1.89-4.4-2.93-7.07-2.93Zm5.66,15.66c-3.12,3.12-8.19,3.12-11.31,0-1.51-1.51-2.34-3.52-2.34-5.66s.83-4.15,2.34-5.66,3.52-2.34,5.66-2.34,4.15.83,5.66,2.34,2.34,3.52,2.34,5.66-.83,4.15-2.34,5.66Z"/></svg>