<svg xmlns="http://www.w3.org/2000/svg" viewBox="0 0 24 24" width="24" height="24"><path d="M11.5 6A1.5 1.5 0 1 0 11.5 9 1.5 1.5 0 1 0 11.5 6z"/><path d="m12.42,2.02c-.15-.01-.29-.02-.42-.02C6.49,2,2,6.49,2,12s4.26,9.76,9.58,9.98c.15.01.29.02.42.02,5.51,0,10-4.49,10-10S17.74,2.24,12.42,2.02Zm-1.42,14.48c0-.83.67-1.5,1.5-1.5s1.5.67,1.5,1.5-.67,1.5-1.5,1.5-1.5-.67-1.5-1.5Zm-7-4.5c0-4.41,3.59-8,8-8,0,0,0,0,.01,0,.07,0,.13,0,.2,0,.77.06,2.8.45,2.8,2.99,0,1.81-1.33,2.78-3.53,4.15-2.09,1.31-4.47,2.79-4.47,5.85,0,.49.05.94.14,1.34-1.91-1.46-3.14-3.76-3.14-6.34Z"/></svg>