<svg xmlns="http://www.w3.org/2000/svg" viewBox="0 0 24 24" width="24" height="24"><path d="M11.5 6A1.5 1.5 0 1 0 11.5 9 1.5 1.5 0 1 0 11.5 6z"/><path d="M12.5 15A1.5 1.5 0 1 0 12.5 18 1.5 1.5 0 1 0 12.5 15z"/><path d="m12.42,2.02c-.15-.01-.29-.02-.42-.02C6.49,2,2,6.49,2,12s4.26,9.76,9.58,9.98c.15.01.29.02.42.02,5.51,0,10-4.49,10-10S17.74,2.24,12.42,2.02ZM4,12c0-4.41,3.59-8,8-8,0,0,0,0,.01,0,.07,0,.13,0,.2.01.77.06,2.79.45,2.79,2.99,0,1.81-1.33,2.78-3.53,4.15-2.1,1.31-4.47,2.79-4.47,5.85,0,.49.05.94.14,1.34-1.91-1.46-3.14-3.76-3.14-6.34Zm8,8s0,0-.01,0c-.07,0-.13,0-.2-.01-.77-.06-2.79-.45-2.79-2.99,0-1.81,1.33-2.78,3.53-4.15,2.1-1.31,4.47-2.79,4.47-5.85,0-.49-.05-.94-.14-1.34,1.91,1.46,3.14,3.76,3.14,6.34,0,4.41-3.59,8-8,8Z"/></svg>