<?xml version='1.0' encoding='utf-8'?>
<!DOCTYPE svg PUBLIC '-//W3C//DTD SVG 1.1//EN' 'http://www.w3.org/Graphics/SVG/1.1/DTD/svg11.dtd'>
<!-- Uploaded to: SVG Repo, www.svgrepo.com, Generator: SVG Repo Mixer Tools -->
<svg fill="#000000" height="800px" width="800px" version="1.1" xmlns="http://www.w3.org/2000/svg" viewBox="0 0 512 512" xmlns:xlink="http://www.w3.org/1999/xlink" enable-background="new 0 0 512 512">
  <g>
    <path d="m394.2,286.9c-1.6,0-3.2,0-4.8,0.1 10.6-24.6 16.1-51.2 16.1-78.2 0-109.1-88.5-197.8-197.2-197.8s-197.3,88.7-197.3,197.7c0,48.4 18,94.6 48.9,130.1-28.9,13.6-48.9,43-48.9,77.1 0,46.9 38.1,85.1 84.9,85.1h298.3c58.9,0 106.8-48 106.8-107.1s-47.9-107-106.8-107zm-185.9-235.1c86.3-1.42109e-14 156.6,70.4 156.6,157 0,18.6-3.3,37-9.7,54.3-6.9-10.2-15.2-19.3-24.5-27.1 2-8.9 3-18 3-27.2 0-69.3-56.2-125.7-125.4-125.7-69.1,0-125.4,56.4-125.4,125.7 0,35.9 14.8,68.6 39.3,91.6-3,10.5-4.7,21.6-5,33.1-1.8-0.5-3.7-0.9-5.6-1.3-37.2-29.4-60-75-60-123.5 0.1-86.5 70.3-156.9 156.7-156.9zm-67.1,209c-11.2-14.5-17.7-32.6-17.7-52.1 0-46.8 38-84.9 84.7-84.9s84.7,38.1 84.7,84.9c0,1.7-0.1,3.5-0.2,5.2-14.2-5.3-29.5-8.2-45.5-8.2-43.6-2.84217e-14-82.4,21.8-106,55.1zm253,199.1h-298.3c-24.2,0-44-19.8-44-44.1s19.7-44.1 44-44.1c12.5,0 24.4,5.3 32.7,14.7 6.5,7.3 17.3,8.9 25.7,4 8.4-5 12.1-15.2 8.9-24.5-3.4-9.5-5-19.5-5-29.7 0-49.3 40-89.4 89.2-89.4 43.2,0 80.2,30.9 87.8,73.5 1.1,6.4 5.2,11.9 11,14.7 5.8,2.9 12.6,2.9 18.4-0.1 9.3-4.7 19.2-7.1 29.7-7.1 36.3,0 65.9,29.6 65.9,66s-29.7,66.1-66,66.1z"/>
  </g>
</svg>