<?xml version='1.0' encoding='utf-8'?>
<!DOCTYPE svg PUBLIC '-//W3C//DTD SVG 1.1//EN' 'http://www.w3.org/Graphics/SVG/1.1/DTD/svg11.dtd'>
<!-- Uploaded to: SVG Repo, www.svgrepo.com, Generator: SVG Repo Mixer Tools -->
<svg fill="#000000" height="800px" width="800px" version="1.1" xmlns="http://www.w3.org/2000/svg" viewBox="0 0 512 512" xmlns:xlink="http://www.w3.org/1999/xlink" enable-background="new 0 0 512 512">
  <g>
    <g>
      <path d="m394.2,287.2c-8.6,0-17,1-25.1,3-18.8-49.8-66.8-84-121.7-84-70.8,0-128.6,57-130.1,127.5-6.9-1.8-14.1-2.7-21.3-2.7-46.9,0-85,38.1-85,85 0,46.9 38.1,85 84.9,85h298.3c58.9,0 106.8-48 106.8-106.9-5.68434e-14-59-47.9-106.9-106.8-106.9zm0,172.8h-298.3c-24.2,0-44-19.7-44-44 0-24.3 19.7-44 44-44 12.5,0 24.4,5.3 32.7,14.6 6.5,7.3 17.3,8.9 25.7,3.9 8.4-5 12.1-15.2 8.9-24.4-3.4-9.5-5-19.5-5-29.7 0-49.2 40-89.3 89.2-89.3 43.2,0 80.2,30.9 87.8,73.4 1.1,6.4 5.2,11.8 11,14.7 5.8,2.9 12.6,2.9 18.4-0.1 9.3-4.7 19.2-7.1 29.7-7.1 36.3,0 65.9,29.6 65.9,65.9-0.2,36.5-29.7,66.1-66,66.1z"/>
      <path d="m190.4,152.7c8.1,4.7 18.4,3.3 24.9-3.4 26.4-26.8 83.6-29.2 136.2-5.5 52.5,23.7 88.7,68.1 86,105.6-0.6,8.6 4.2,16.6 12,20.1 0.6,0.3 1.3,0.5 2,0.8 8.9,3 18.7-0.5 23.7-8.4 4.3-6.7 8.1-13.8 11.4-21 37-81.9 0.4-178.5-81.6-215.5s-178.8-0.4-215.8,81.5c-3.3,7.2-6,14.8-8.2,22.4-2.6,9 1.3,18.6 9.4,23.4zm197.7-90c48.2,21.7 75.4,70.9 71.5,120.7-3-4.9-6.3-9.7-9.9-14.4-20-25.9-48.1-47.6-81.4-62.5s-68.1-21.8-100.8-19.5c-6,0.4-11.8,1.1-17.4,2.1 34.9-35.9 89.9-48.1 138-26.4z"/>
    </g>
  </g>
</svg>