<?xml version='1.0' encoding='utf-8'?>
<!DOCTYPE svg PUBLIC '-//W3C//DTD SVG 1.1//EN' 'http://www.w3.org/Graphics/SVG/1.1/DTD/svg11.dtd'>
<!-- Uploaded to: SVG Repo, www.svgrepo.com, Generator: SVG Repo Mixer Tools -->
<svg fill="#000000" height="800px" width="800px" version="1.1" xmlns="http://www.w3.org/2000/svg" viewBox="0 0 512 512" xmlns:xlink="http://www.w3.org/1999/xlink" enable-background="new 0 0 512 512">
  <g>
    <g>
      <path d="m255.9,88.2c-84.7,0-119.8,69.4-127.5,96.7-3.1,10.9 3.3,22.2 14.2,25.3 10.9,3.1 22.2-3.3 25.3-14.2 11-39.3 47.3-66.8 88.1-66.8 40.8,0 77,27.5 88.1,66.8 3.1,10.9 14.4,17.3 25.3,14.2 10.9-3.1 17.2-14.4 14.2-25.3-7.9-27.3-44.9-96.7-127.7-96.7z"/>
      <path d="m66,210.8c11.2,1.8 21.7-5.8 23.5-17 13.2-82.1 83.2-141.7 166.4-141.7s153.1,59.6 166.3,141.7c1.8,11.2 12.3,18.8 23.5,17 11.2-1.8 18.8-12.3 16.9-23.5-7.8-48.7-57.1-174.3-206.7-176.3-149-1.9-198.9,127.6-206.8,176.2-1.8,11.2 5.8,21.8 16.9,23.6z"/>
      <path d="m394.2,286.9c-8.6,0-17,1-25.1,3-18.8-49.9-66.8-84.1-121.7-84.1-70.8,0-128.6,57-130.1,127.7-6.9-1.8-14.1-2.7-21.3-2.7-46.8,0-84.9,38.2-84.9,85.1 0,46.9 38.1,85.1 84.9,85.1h298.3c58.9,0 106.8-48 106.8-107s-48-107.1-106.9-107.1zm0,173.1h-298.3c-24.2,0-44-19.8-44-44.1 0-24.3 19.7-44.1 44-44.1 12.5,0 24.4,5.3 32.7,14.7 6.5,7.3 17.3,8.9 25.7,4 8.4-5 12.1-15.2 8.9-24.5-3.4-9.5-5-19.5-5-29.7 0-49.3 40-89.4 89.2-89.4 43.2,0 80.2,30.9 87.8,73.5 1.1,6.4 5.2,11.9 11,14.7 5.8,2.9 12.6,2.9 18.4-0.1 9.3-4.7 19.2-7.1 29.7-7.1 36.3,0 65.9,29.6 65.9,66s-29.7,66.1-66,66.1z"/>
    </g>
  </g>
</svg>