<?xml version='1.0' encoding='utf-8'?>
<!DOCTYPE svg PUBLIC '-//W3C//DTD SVG 1.1//EN' 'http://www.w3.org/Graphics/SVG/1.1/DTD/svg11.dtd'>
<!-- Uploaded to: SVG Repo, www.svgrepo.com, Generator: SVG Repo Mixer Tools -->
<svg fill="#000000" height="800px" width="800px" version="1.1" xmlns="http://www.w3.org/2000/svg" viewBox="0 0 512 512" xmlns:xlink="http://www.w3.org/1999/xlink" enable-background="new 0 0 512 512">
  <g>
    <g>
      <path d="m201.7,263c6.9,3.6 15.2,3.1 21.5-1.5 6.3-4.6 9.5-12.3 8.2-20l-11.3-66.8 48-47.3c5.5-5.4 7.5-13.5 5.1-20.9-2.4-7.4-8.8-12.7-16.4-13.9l-66.2-9.7-29.6-60.6c-3.4-7-10.5-11.5-18.3-11.5-7.8,0-14.9,4.4-18.3,11.5l-29.8,60.8-66.2,9.7c-7.7,1.1-14,6.5-16.4,13.9-2.4,7.4-0.4,15.5 5.1,20.9l48,47.3-11.3,66.8c-1.3,7.7 1.9,15.4 8.2,20 3.5,2.6 7.7,3.9 12,3.9 3.3,0 6.6-0.8 9.6-2.4l59.1-31.4 59,31.2zm-68.7-72.5l-32.1,17 6.2-36.4c1.1-6.6-1-13.3-5.8-18l-26.3-25.9 36.2-5.3c6.7-1 12.4-5.2 15.4-11.2l16-32.8 16,32.8c3,6.1 8.7,10.3 15.4,11.2l36.2,5.3-26.3,25.9c-4.8,4.7-6.9,11.4-5.8,18l6.2,36.4-32.1-17c-6-3.2-13.2-3.2-19.2,0z"/>
      <path d="m500,212c-2.4-7.4-8.8-12.7-16.4-13.9l-54.2-8-24.4-49.6c-3.4-7-10.5-11.5-18.3-11.5-7.8,0-14.9,4.4-18.3,11.5l-24.3,49.7-54.2,8c-7.7,1.1-14,6.5-16.4,13.9-2.4,7.4-0.4,15.5 5.1,20.9l39.4,38.8-9.3,54.8c-1.3,7.7 1.9,15.4 8.2,20 6.3,4.6 14.7,5.1 21.5,1.5l48.4-25.7 48.4,25.7c3,1.6 6.3,2.4 9.6,2.4 4.2,0 8.4-1.3 12-3.9 6.3-4.6 9.5-12.3 8.2-20l-9.3-54.8 39.4-38.8c5.3-5.5 7.3-13.6 4.9-21zm-80.7,38.1c-4.8,4.7-6.9,11.4-5.8,18l4.1,24.3-21.3-11.4c-6-3.2-13.2-3.2-19.2,0l-21.4,11.4 4.1-24.3c1.1-6.6-1-13.3-5.8-18l-17.7-17.4 24.3-3.6c6.7-1 12.4-5.2 15.4-11.2l10.7-21.8 10.7,21.8c3,6.1 8.7,10.3 15.4,11.2l24.3,3.6-17.8,17.4z"/>
      <path d="m278.5,374.5l-39.3-5.8-17.6-36.1c-3.4-7-10.5-11.5-18.3-11.5-7.8,0-14.9,4.4-18.3,11.5l-17.6,36.1-39.3,5.8c-7.7,1.1-14,6.5-16.4,13.9-2.4,7.4-0.4,15.5 5.1,20.9l28.6,28.1-6.7,39.8c-1.3,7.7 1.9,15.4 8.2,20 6.3,4.6 14.7,5.1 21.5,1.5l35.1-18.7 35.1,18.7c3,1.6 6.3,2.4 9.6,2.4 4.2,0 8.4-1.3 12-3.9 6.3-4.5 9.5-12.3 8.2-20l-6.7-39.8 28.6-28.1c5.5-5.4 7.5-13.5 5.1-20.9-2.8-7.4-9.2-12.8-16.9-13.9zm-53.4,41.3c-4.8,4.7-6.9,11.4-5.8,18l1.6,9.4-8-4.3c-3-1.6-6.3-2.4-9.6-2.4-3.3,0-6.6,0.8-9.6,2.4l-8,4.3 1.6-9.3c1.1-6.6-1-13.3-5.8-18l-6.9-6.8 9.4-1.4c6.7-1 12.4-5.2 15.4-11.2l4-8.2 4,8.2c3,6.1 8.7,10.3 15.4,11.2l9.4,1.4-7.1,6.7z"/>
    </g>
  </g>
</svg>