<?xml version="1.0" ?>
<!-- Uploaded to: SVG Repo, www.svgrepo.com, Generator: SVG Repo Mixer Tools -->
<svg fill="#000000" width="800px" height="800px" viewBox="0 0 32 32" xmlns="http://www.w3.org/2000/svg">
<g data-name="people" id="people-14">
<path d="M10.61,8.65A3.1,3.1,0,1,0,7.52,5.56,3.1,3.1,0,0,0,10.61,8.65Zm0-4.19a1.1,1.1,0,1,1-1.09,1.1A1.1,1.1,0,0,1,10.61,4.46Z"/>
<path d="M12.61,9.54h-4a3.78,3.78,0,0,0-4,3.49v5a2.7,2.7,0,0,0,2,2.5v6.82a2.11,2.11,0,0,0,2,2.19h4a2.1,2.1,0,0,0,2-2.19V20.53a2.69,2.69,0,0,0,2-2.5V13A3.77,3.77,0,0,0,12.61,9.54Zm2,8.49c0,.31-.42.67-1,.67h-1v8.65c0,.11,0,.18,0,.19H8.68a.3.3,0,0,1-.07-.2V18.7h-1c-.57,0-1-.36-1-.67V13c0-.82.9-1.49,2-1.49h4c1.11,0,2,.67,2,1.49Z"/>
<path d="M27.09,14.62,24.58,12.1a1,1,0,0,0-1.42,0l-2.51,2.52A1,1,0,1,0,22.06,16l.81-.81v4a1,1,0,0,0,2,0v-4l.81.81a1,1,0,0,0,1.41,0A1,1,0,0,0,27.09,14.62Z"/>
</g>
</svg>