<?xml version="1.0" ?>
<!-- Uploaded to: SVG Repo, www.svgrepo.com, Generator: SVG Repo Mixer Tools -->
<svg fill="#000000" width="800px" height="800px" viewBox="0 0 32 32" xmlns="http://www.w3.org/2000/svg">
<g data-name="people" id="people-22">
<path d="M7.33,9.32A2.52,2.52,0,1,0,4.82,6.8,2.52,2.52,0,0,0,7.33,9.32Zm0-3a.52.52,0,1,1-.51.52A.52.52,0,0,1,7.33,6.28Z"/>
<path d="M16,9.32A2.52,2.52,0,1,0,13.48,6.8,2.52,2.52,0,0,0,16,9.32Zm0-3a.52.52,0,1,1-.52.52A.53.53,0,0,1,16,6.28Z"/>
<path d="M24.67,9.32A2.52,2.52,0,1,0,22.15,6.8,2.52,2.52,0,0,0,24.67,9.32Zm0-3a.52.52,0,1,1-.52.52A.52.52,0,0,1,24.67,6.28Z"/>
<path d="M26.4,10.12H22.93a3.86,3.86,0,0,0-2.6,1,3.83,3.83,0,0,0-2.6-1H14.27a3.83,3.83,0,0,0-2.6,1,3.86,3.86,0,0,0-2.6-1H5.6A3.41,3.41,0,0,0,2,13.28v4.33a2.47,2.47,0,0,0,1.73,2.27v5.81a2,2,0,0,0,1.87,2H9.07a2,2,0,0,0,1.86-2V19.88a2.75,2.75,0,0,0,.74-.39,2.69,2.69,0,0,0,.73.39v5.81a2,2,0,0,0,1.87,2h3.46a2,2,0,0,0,1.87-2V19.88a2.69,2.69,0,0,0,.73-.39,2.75,2.75,0,0,0,.74.39v5.81a2,2,0,0,0,1.86,2H26.4a2,2,0,0,0,1.87-2V19.88A2.47,2.47,0,0,0,30,17.61V13.28A3.41,3.41,0,0,0,26.4,10.12ZM5.73,25.72V18.06h-1c-.44,0-.73-.27-.73-.45V13.28c0-.63.73-1.16,1.6-1.16H9.07c.86,0,1.6.53,1.6,1.16v4.33c0,.18-.29.45-.74.45h-1v1l0,6.66Zm8.67,0V18.06h-1c-.45,0-.73-.27-.73-.45V13.28c0-.63.73-1.16,1.6-1.16h3.46c.87,0,1.6.53,1.6,1.16v4.33c0,.18-.28.45-.73.45h-1v1l0,6.66Zm8.66,0a0,0,0,0,0,0,0V18.06h-1c-.45,0-.74-.27-.74-.45V13.28c0-.63.74-1.16,1.6-1.16H26.4c.87,0,1.6.53,1.6,1.16v4.33c0,.18-.29.45-.73.45h-1v1l0,6.66Z"/>
</g>
</svg>