<?xml version="1.0" ?>
<!-- Uploaded to: SVG Repo, www.svgrepo.com, Generator: SVG Repo Mixer Tools -->
<svg fill="#000000" width="800px" height="800px" viewBox="0 0 32 32" xmlns="http://www.w3.org/2000/svg">
<g data-name="people" id="people-3">
<path d="M21,2a1,1,0,0,0-1.42,0L16,5.59,14.45,4A1,1,0,1,0,13,5.45l2.26,2.26a1,1,0,0,0,1.42,0L21,3.45A1,1,0,0,0,21,2Z"/>
<path d="M23.53,13.09a2.63,2.63,0,1,0-2.66-2.63A2.65,2.65,0,0,0,23.53,13.09Zm0-3.26a.63.63,0,1,1-.66.63A.64.64,0,0,1,23.53,9.83Z"/>
<path d="M29.86,22.7l-2.05-3.05V16.83a3,3,0,0,0-3-3.12H22.22a3.06,3.06,0,0,0-3,3.12v2.82L17.3,22.53l-.09.17a2.53,2.53,0,0,0,.21,2.4,2.59,2.59,0,0,0,2.17,1.17h.56v2A1.87,1.87,0,0,0,22,30.17h3.17a1.87,1.87,0,0,0,1.79-1.93v-2h.57a2.59,2.59,0,0,0,2.16-1.17A2.51,2.51,0,0,0,29.86,22.7Zm-4.95,5.47H22.15v-1.9h2.76ZM28,24a.57.57,0,0,1-.49.27H19.59a.61.61,0,0,1-.5-.27.53.53,0,0,1-.07-.44l2.06-3s0-.06,0-.09a1.08,1.08,0,0,0,.08-.19,1.06,1.06,0,0,0,0-.19s0-.06,0-.09V16.83a1.06,1.06,0,0,1,1-1.12h2.62a1,1,0,0,1,1,1.12V20s0,.06,0,.09a1.06,1.06,0,0,0,0,.19.64.64,0,0,0,.08.19l0,.09,2.06,3A.5.5,0,0,1,28,24Z"/>
<path d="M8.84,13.09a2.63,2.63,0,1,0-2.63-2.63A2.63,2.63,0,0,0,8.84,13.09Zm0-3.26a.63.63,0,1,1,0,1.26.63.63,0,0,1,0-1.26Z"/>
<path d="M10.4,13.71H7.28a3.21,3.21,0,0,0-3.34,3.06V20.9A2.37,2.37,0,0,0,5.5,23.08v5.16a1.85,1.85,0,0,0,1.78,1.93H10.4a1.86,1.86,0,0,0,1.78-1.93V23.08a2.38,2.38,0,0,0,1.56-2.18V16.77A3.21,3.21,0,0,0,10.4,13.71ZM7.5,28.17v-6.9h-1c-.33,0-.56-.19-.56-.37V16.77a1.23,1.23,0,0,1,1.34-1.06H10.4a1.24,1.24,0,0,1,1.34,1.06V20.9c0,.18-.24.37-.56.37h-1v6.9Z"/>
</g>
</svg>