<?xml version='1.0' encoding='utf-8'?>
<!DOCTYPE svg PUBLIC '-//W3C//DTD SVG 1.1//EN' 'http://www.w3.org/Graphics/SVG/1.1/DTD/svg11.dtd'>
<!-- Uploaded to: SVG Repo, www.svgrepo.com, Generator: SVG Repo Mixer Tools -->
<svg fill="#000000" height="800px" width="800px" version="1.1" xmlns="http://www.w3.org/2000/svg" viewBox="0 0 512 512" xmlns:xlink="http://www.w3.org/1999/xlink" enable-background="new 0 0 512 512">
  <g>
    <g>
      <path d="m93.4,12.6c-10.4-4.4-22.4,0.6-26.7,11l-25.3,61.1c-4.3,10.4 0.6,22.4 11,26.7 10.4,4.3 22.4-0.6 26.7-11l25.3-61.1c4.3-10.5-0.6-22.4-11-26.7z"/>
      <path d="m225,12.6c-10.4-4.3-22.4,0.6-26.7,11l-25.3,61.1c-4.3,10.4 0.6,22.4 11,26.7 10.4,4.3 22.4-0.6 26.7-11l25.3-61.1c4.4-10.5-0.5-22.4-11-26.7z"/>
      <path d="m356.7,12.6c-10.4-4.3-22.4,0.6-26.7,11l-25.3,61.1c-4.3,10.4 0.6,22.4 11,26.7 10.4,4.3 22.4-0.6 26.7-11l25.3-61.1c4.4-10.5-0.6-22.4-11-26.7z"/>
      <path d="m488.4,12.6c-10.4-4.3-22.4,0.6-26.7,11l-25.3,61.1c-4.3,10.4 0.6,22.4 11,26.7 10.4,4.3 22.4-0.6 26.7-11l25.3-61.1c4.4-10.5-0.6-22.4-11-26.7z"/>
      <path d="m143.1,218c-10.4-4.3-22.4,0.6-26.7,11l-25.3,61.1c-4.3,10.4 0.6,22.4 11,26.7 10.4,4.3 22.4-0.6 26.7-11l25.3-61.1c4.3-10.4-0.6-22.4-11-26.7z"/>
      <path d="m274.7,218c-10.4-4.3-22.4,0.6-26.7,11l-25.3,61.1c-4.3,10.4 0.6,22.4 11,26.7 10.4,4.3 22.4-0.6 26.7-11l25.3-61.1c4.4-10.4-0.5-22.4-11-26.7z"/>
      <path d="m406.4,218c-10.4-4.3-22.4,0.6-26.7,11l-25.3,61.1c-4.3,10.4 0.6,22.4 11,26.7 10.4,4.3 22.4-0.6 26.7-11l25.3-61.1c4.4-10.4-0.6-22.4-11-26.7z"/>
      <path d="m64.6,400.6c-10.4-4.3-22.4,0.6-26.7,11l-25.3,61.1c-4.3,10.4 0.6,22.4 11,26.7 10.4,4.3 22.4-0.6 26.7-11l25.3-61.1c4.3-10.4-0.6-22.4-11-26.7z"/>
      <path d="m196.2,400.6c-10.4-4.3-22.4,0.6-26.7,11l-25.3,61.1c-4.3,10.4 0.6,22.4 11,26.7 10.4,4.3 22.4-0.6 26.7-11l25.3-61.1c4.4-10.4-0.5-22.4-11-26.7z"/>
      <path d="m327.9,400.6c-10.4-4.3-22.4,0.6-26.7,11l-25.3,61.1c-4.3,10.4 0.6,22.4 11,26.7 10.4,4.3 22.4-0.6 26.7-11l25.3-61.1c4.4-10.4-0.6-22.4-11-26.7z"/>
      <path d="m459.6,400.6c-10.4-4.3-22.4,0.6-26.7,11l-25.3,61.1c-4.3,10.4 0.6,22.4 11,26.7 10.4,4.3 22.4-0.6 26.7-11l25.3-61.1c4.4-10.4-0.6-22.4-11-26.7z"/>
    </g>
  </g>
</svg>