<?xml version='1.0' encoding='utf-8'?>
<!DOCTYPE svg PUBLIC '-//W3C//DTD SVG 1.1//EN' 'http://www.w3.org/Graphics/SVG/1.1/DTD/svg11.dtd'>
<!-- Uploaded to: SVG Repo, www.svgrepo.com, Generator: SVG Repo Mixer Tools -->
<svg fill="#000000" height="800px" width="800px" version="1.1" xmlns="http://www.w3.org/2000/svg" viewBox="0 0 512 512" xmlns:xlink="http://www.w3.org/1999/xlink" enable-background="new 0 0 512 512">
  <g>
    <g>
      <path d="m466.7,145.5c-7-54.4-60.3-95.6-126-95.6-13.6,0-27,1.8-39.8,5.4-23.6-27.6-61.4-44.3-102.6-44.3-70,0-126.9,48.3-126.9,107.7 0,2.8 0.1,5.6 0.4,8.4-37.5,19.3-60.9,54-60.9,92 0,59.4 56.9,107.7 126.9,107.7 23.1,0 45.3-5.2 64.9-15.2 19.6,9.9 41.8,15.2 64.9,15.2 18.4,0 36.6-3.4 53.2-10 16.7,6.5 34.9,10 53.2,10 70,0 126.9-48.3 126.9-107.7 0.1-27.3-12.3-53.7-34.2-73.6zm-92.6,140.5c-15.6,0-31-3.4-44.5-9.8-2.8-1.3-9-3.7-17.5,0-13.7,5.9-28.9,9.8-44.5,9.8-19.8,0-38.4-5.2-54-15-6.7-4.2-15.2-4.2-21.8,0-15.6,9.8-34.2,15-54,15-47.4,0-86-30-86-66.9 0-25.8 19.7-49.7 50.1-60.7 10.1-3.7 15.7-14.6 12.6-25-1.5-5.2-2.3-10-2.3-14.8 0-36.9 38.6-66.9 86-66.9 32.8,0 63.3,15.1 77.6,38.4 5.2,8.5 15.8,12 25.1,8.2 12.5-5.1 25.8-7.7 39.6-7.7 46.4,0 85,29.4 85.9,65.5 0.2,6.1 3.1,11.9 7.9,15.6 16.5,12.7 25.6,29.6 25.6,47.3 0.3,37-38.3,67-85.8,67z"/>
      <path d="m207.6,386.9l-32.3-9.3 6.8-13c5.2-10 1.4-22.3-8.6-27.5-10-5.2-22.3-1.3-27.5,8.6l-18.4,35.1c-2.8,5.4-3.1,11.8-0.7,17.5 2.4,5.6 7.2,9.9 13.1,11.6l27.7,8-38.3,50.4c-6.8,9-5.4,22.2 3.9,28.6 13.1,9 24.6,1.4 28.6-3.9l56.3-74.1c4.1-5.4 5.2-12.4 3.1-18.8-2.1-6.4-7.2-11.4-13.7-13.2z"/>
      <path d="m388.6,386.9l-32.3-9.3 6.8-13c5.2-10 1.4-22.3-8.6-27.5-10-5.2-22.3-1.3-27.5,8.6l-18.4,35.1c-2.8,5.4-3.1,11.8-0.7,17.5 2.4,5.6 7.2,9.9 13.1,11.6l27.7,8-38.3,50.4c-6.8,9-5.4,22.2 3.9,28.6 13.1,9 24.6,1.4 28.6-3.9l56.3-74.1c4.1-5.4 5.2-12.4 3.1-18.8-2.1-6.4-7.2-11.4-13.7-13.2z"/>
    </g>
  </g>
</svg>