<svg width="50" height="51" viewBox="0 0 50 51" fill="none" xmlns="http://www.w3.org/2000/svg">
<circle cx="25" cy="25.7461" r="25" fill="#FFBC99"/>
<path opacity="0.3" fill-rule="evenodd" clip-rule="evenodd" d="M22.9574 30.3994C22.6486 30.5626 22.6318 30.623 22.6043 31.665C22.5772 32.693 22.5483 32.822 22.2826 33.1021C22.1028 33.2916 21.7466 33.4619 21.5287 33.4625C21.1795 33.4634 20.8642 33.7068 20.8052 34.0211C20.7621 34.2509 20.8899 34.5492 21.0896 34.6849C21.3837 34.8848 22.0656 34.8094 22.6289 34.5147C22.9569 34.3431 23.4298 33.8804 23.62 33.5452C23.8721 33.1007 23.9385 32.7242 23.9385 31.7385C23.9385 30.9541 23.9298 30.8538 23.847 30.6829C23.7806 30.5457 23.7038 30.4689 23.5666 30.4025C23.3344 30.2901 23.1659 30.2892 22.9574 30.3994ZM25.0307 30.4116C24.6919 30.6058 24.6931 30.5984 24.6932 32.5522C24.6933 34.4836 24.6942 34.4901 24.9994 34.6939C25.3155 34.9051 25.775 34.7814 25.9471 34.4387C26.0171 34.2995 26.0248 34.1125 26.0248 32.5522C26.0249 30.9507 26.0187 30.8085 25.9426 30.6655C25.8426 30.4775 25.5698 30.3125 25.359 30.3125C25.2736 30.3125 25.1258 30.3571 25.0307 30.4116ZM27.1481 30.4034C27.015 30.4693 26.9356 30.5494 26.8706 30.6837C26.7884 30.8536 26.7796 30.9553 26.7796 31.7385C26.7796 32.7242 26.846 33.1007 27.0981 33.5452C27.2882 33.8804 27.7612 34.3431 28.0892 34.5147C28.6525 34.8094 29.3343 34.8848 29.6285 34.6849C29.8281 34.5492 29.9559 34.2509 29.9128 34.0211C29.8539 33.7068 29.5386 33.4634 29.1893 33.4625C28.9715 33.4619 28.6153 33.2916 28.4355 33.1021C28.1697 32.822 28.1408 32.693 28.1138 31.665C28.0862 30.6176 28.0695 30.5597 27.7512 30.3972C27.5347 30.2868 27.3804 30.2884 27.1481 30.4034Z" fill="#2C2B46"/>
<path fill-rule="evenodd" clip-rule="evenodd" d="M16.1783 17.5464C16.0483 17.5779 15.7709 17.6883 15.5618 17.792C14.8984 18.1207 14.3962 18.7092 14.1218 19.4793L14.0189 19.7678L14.0054 23.3916C13.9902 27.4698 13.9843 27.3792 14.312 28.047C14.6566 28.749 15.3515 29.3205 16.1262 29.5388C16.2708 29.5795 16.6463 29.6176 17.0473 29.6323L17.7243 29.6571L17.725 28.6856C17.7257 27.5791 17.7649 27.3329 18.0248 26.804C18.2644 26.3166 18.7741 25.8133 19.278 25.5666C19.9495 25.2379 19.6802 25.2519 25.3598 25.2519C31.0394 25.2519 30.7702 25.2379 31.4416 25.5666C31.9455 25.8133 32.4553 26.3166 32.6948 26.804C32.9547 27.3329 32.9939 27.5791 32.9947 28.6856L32.9953 29.6571L33.6723 29.6323C34.0734 29.6176 34.4488 29.5795 34.5935 29.5388C35.3681 29.3205 36.0631 28.749 36.4076 28.047C36.7354 27.3792 36.7294 27.4698 36.7142 23.3916L36.7007 19.7678L36.5979 19.4793C36.3154 18.6866 35.8153 18.1109 35.1188 17.7767C34.8909 17.6674 34.5986 17.5562 34.4692 17.5297C34.0997 17.4541 16.4933 17.4702 16.1783 17.5464ZM30.1817 20.1257C30.4987 20.3627 30.5871 20.7047 30.4106 21.0108C30.24 21.3068 30.1023 21.349 29.3551 21.3343C28.7923 21.3232 28.6967 21.3104 28.5936 21.2328C28.2784 20.9952 28.227 20.5716 28.4753 20.2561C28.6413 20.045 28.784 20.0109 29.452 20.0231C29.9859 20.0329 30.0741 20.0452 30.1817 20.1257ZM33.3496 20.0898C33.4346 20.1324 33.5512 20.2373 33.6088 20.3227C33.7516 20.5346 33.7317 20.9297 33.5696 21.1032C33.3687 21.3183 33.2667 21.3438 32.6046 21.3438C32.0369 21.3438 31.9754 21.3357 31.8366 21.243C31.4108 20.9586 31.4483 20.3274 31.9043 20.1016C32.1542 19.9779 33.1114 19.9701 33.3496 20.0898ZM20.2596 26.6301C19.8257 26.7153 19.3644 27.0821 19.1806 27.488C19.0856 27.6979 19.0773 27.7833 19.0641 28.6796L19.0499 29.6452H25.3598H31.6698L31.6556 28.6796C31.6424 27.7833 31.634 27.6979 31.539 27.488C31.422 27.2295 31.1029 26.8984 30.8412 26.7641C30.743 26.7137 30.5555 26.652 30.4246 26.6272C30.13 26.5714 20.5449 26.574 20.2596 26.6301Z" fill="#2C2B46"/>
</svg>
