<svg xmlns="http://www.w3.org/2000/svg" width="32" height="32"><path fill-rule="evenodd" d="M16 0A16 16 0 0 0 0 16a16 16 0 0 0 16 16 16 16 0 0 0 16-16A16 16 0 0 0 16 0zm0 8.5c4.136 0 7.5 3.364 7.5 7.5s-3.364 7.5-7.5 7.5-7.5-3.364-7.5-7.5 3.364-7.5 7.5-7.5zm0 1A6.492 6.492 0 0 0 9.5 16c0 3.596 2.904 6.5 6.5 6.5s6.5-2.904 6.5-6.5-2.904-6.5-6.5-6.5zm-.035 2.443a.5.5 0 0 1 .035 0 .5.5 0 0 1 .5.5.5.5 0 0 1-.5.5.5.5 0 0 1-.5-.5.5.5 0 0 1 .465-.5zm.027 1.873a.5.5 0 0 1 .508.506v5.229a.5.5 0 1 1-1 0v-5.229a.5.5 0 0 1 .492-.506z"/></svg>