<svg width="14" height="16" viewBox="0 0 14 16" fill="none" xmlns="http://www.w3.org/2000/svg">
<path id="39-Notification" d="M13.7843 11.0458C13.6333 10.7763 13.4501 10.5068 13.2452 10.221C12.7578 9.61233 12.4199 8.89778 12.2587 8.13479L12.0323 4.95419C11.8975 2.49057 10.4581 0 7.5956 0H6.39883C3.53629 0 2.08615 2.49057 1.9406 4.9488L1.71419 8.13479C1.5537 8.90454 1.21591 9.62626 0.72766 10.2426C0.544372 10.5229 0.361083 10.7817 0.237093 11.0243C0.104024 11.2029 0.0234327 11.4151 0.00438522 11.637C-0.0146623 11.8589 0.0285901 12.0817 0.129276 12.2803C0.246749 12.489 0.419809 12.6609 0.629195 12.777C0.838582 12.8931 1.07608 12.9489 1.31526 12.938H5.477C5.38834 13.1823 5.35985 13.4444 5.39394 13.702C5.42803 13.9596 5.52371 14.2052 5.67285 14.418C5.822 14.6308 6.02024 14.8045 6.25077 14.9245C6.4813 15.0444 6.73735 15.107 6.99721 15.107C7.25708 15.107 7.51312 15.0444 7.74366 14.9245C7.97419 14.8045 8.17242 14.6308 8.32157 14.418C8.47072 14.2052 8.5664 13.9596 8.60049 13.702C8.63458 13.4444 8.60609 13.1823 8.51743 12.938H12.6792C12.9205 12.9468 13.1596 12.8878 13.3692 12.7678C13.5788 12.6477 13.7506 12.4714 13.8652 12.2588C13.9659 12.0691 14.0117 11.8551 13.9974 11.6408C13.9832 11.4265 13.9093 11.2205 13.7843 11.0458ZM7.5363 13.4771C7.5363 13.5837 7.50468 13.688 7.44545 13.7766C7.38621 13.8653 7.30202 13.9344 7.20351 13.9752C7.10501 14.016 6.99662 14.0266 6.89204 14.0058C6.78747 13.985 6.69142 13.9337 6.61602 13.8583C6.54063 13.7829 6.48929 13.6869 6.46849 13.5823C6.44769 13.4777 6.45836 13.3693 6.49917 13.2708C6.53997 13.1723 6.60906 13.0881 6.69771 13.0289C6.78637 12.9696 6.89059 12.938 6.99721 12.938C7.14019 12.938 7.27731 12.9948 7.37841 13.0959C7.4795 13.197 7.5363 13.3341 7.5363 13.4771ZM12.9271 11.7682C12.9271 11.8113 12.8355 11.8599 12.7007 11.8599H1.31526C1.18049 11.8599 1.11041 11.8113 1.08885 11.7682C1.06728 11.7251 1.08885 11.6658 1.14276 11.5795C1.28831 11.3316 1.45542 11.0728 1.62793 10.814C2.16702 10.0378 2.7061 9.15366 2.78696 8.21026L3.01877 5.02427C3.13198 3.20216 4.08616 1.07817 6.39883 1.07817H7.5956C9.90827 1.07817 10.8625 3.20216 10.9757 5.02966L11.2075 8.21026C11.2722 9.16444 11.849 10.0378 12.3881 10.814C12.5606 11.0728 12.7277 11.3531 12.9002 11.6281C12.9174 11.6466 12.929 11.6695 12.9337 11.6943C12.9385 11.7191 12.9362 11.7447 12.9271 11.7682Z" fill="#C832D2"/>
</svg>
