<svg width="12" height="12" viewBox="0 0 12 12" fill="none" xmlns="http://www.w3.org/2000/svg">
<path id="Vector" d="M10.1791 6.47466C11.1813 6.47776 11.9939 7.30472 12 8.32781V10.1412C11.9939 11.1652 11.1822 11.9938 10.1791 12H8.40278C7.40058 11.9938 6.59051 11.1643 6.58747 10.1412V8.32781C6.58747 7.30434 7.40021 6.47466 8.40278 6.47466H10.1791ZM2.55035 6.47467C2.73686 6.45428 2.9184 6.54438 3.01791 6.7067C3.11741 6.86903 3.11741 7.07509 3.01791 7.23742C2.9184 7.39974 2.73686 7.48984 2.55035 7.46945H1.82088C1.35559 7.46944 0.977539 7.85284 0.974478 8.32782V10.1184C0.986309 10.5896 1.35927 10.9678 1.82088 10.9768H3.60835C3.83232 10.9783 4.04762 10.8885 4.20652 10.7274C4.36541 10.5663 4.45476 10.3471 4.45476 10.1184V7.42966L4.44716 7.36278C4.43876 7.18488 4.52408 7.01355 4.67423 6.91636C4.84315 6.80702 5.06022 6.81346 5.22263 6.93264C5.38505 7.05181 5.46021 7.25979 5.41253 7.45809V10.1355C5.41253 11.1621 4.59729 11.9943 3.59165 11.9943H1.82088C0.82393 11.9732 0.0206842 11.1532 0 10.1355V8.32782C0 7.83534 0.192018 7.36312 0.53366 7.01543C0.875303 6.66773 1.33847 6.47316 1.82088 6.47467H2.55035ZM10.1791 7.46945H8.40278C7.9384 7.46945 7.56193 7.85375 7.56193 8.32781V10.1412C7.56045 10.3693 7.64856 10.5885 7.80657 10.7498C7.96459 10.9111 8.17933 11.0011 8.40278 10.9995H10.1791C10.4026 11.0011 10.6173 10.9111 10.7753 10.7498C10.9333 10.5885 11.0214 10.3693 11.02 10.1412V8.32781C11.02 8.10016 10.9314 7.88183 10.7737 7.72085C10.616 7.55988 10.4021 7.46945 10.1791 7.46945ZM10.1791 0C11.1739 0.0241133 11.9739 0.843254 11.9944 1.85883V3.66651C12.0004 4.15801 11.8148 4.63178 11.4785 4.98358C11.1423 5.33539 10.6829 5.5364 10.2014 5.5424H9.46636C9.21734 5.51518 9.0285 5.30066 9.0285 5.045C9.0285 4.78934 9.21734 4.57482 9.46636 4.54761H10.1791C10.4046 4.54611 10.6201 4.45286 10.778 4.28851C10.9358 4.12417 11.0229 3.90233 11.02 3.67219V1.85883C11.014 1.38734 10.641 1.0066 10.1791 1.00047H8.40278C7.9384 1.00047 7.56195 1.38478 7.56195 1.85883V4.57035L7.55614 4.6327C7.51836 4.8774 7.30953 5.06221 7.06079 5.05921C6.9313 5.05625 6.80836 5.00048 6.71943 4.90436C6.6305 4.80823 6.58297 4.67975 6.58747 4.54761V1.85883C6.58599 1.36636 6.77659 0.893547 7.11719 0.544783C7.45779 0.19602 7.92037 0 8.40278 0H10.1791ZM3.59722 0C4.60159 0.00312121 5.41504 0.833524 5.4181 1.85883V3.67219C5.4181 4.16467 5.22608 4.63689 4.88444 4.98458C4.5428 5.33228 4.07963 5.52685 3.59722 5.52535H1.82088C0.818667 5.52224 0.00610652 4.69528 3.06264e-08 3.67219V1.85883C0.00607969 0.83481 0.817766 0.00620638 1.82088 0H3.59722ZM3.59722 1.00047H1.82088C1.595 0.995892 1.37681 1.0843 1.21549 1.24577C1.05417 1.40725 0.963297 1.6282 0.963341 1.85883V3.67219C0.958748 3.90577 1.04762 4.13117 1.20945 4.29637C1.37127 4.46157 1.59207 4.5523 1.82088 4.54761H3.59722C3.82267 4.54611 4.03823 4.45286 4.19608 4.28851C4.35393 4.12417 4.44102 3.90233 4.43805 3.67219V1.85883C4.43501 1.38607 4.06033 1.00357 3.59722 1.00047Z" fill="#C832D2"/>
</svg>
