<svg xmlns="http://www.w3.org/2000/svg" width="32" height="32">
    <path style="stroke:none;fill-rule:nonzero;fill:#000;fill-opacity:1" d="M5.332 12H12c0-1.465-1.2-2.668-2.668-2.668h-4A1.34 1.34 0 0 0 4 10.668C4 11.398 4.602 12 5.332 12Zm0 0"/>
    <path style="stroke:none;fill-rule:nonzero;fill:#000;fill-opacity:1" d="M29.332 18.746v-8.078c0-1.469-1.2-2.668-2.664-2.668h-8.387l-1.414-1.414 1.88-1.879-.946-.945-4.707 4.703.945.95 1.883-1.88 1.41 1.41V12c0 1.465-1.2 2.668-2.664 2.668h-2.723a7.683 7.683 0 0 0-.918-.574l-.535 1.187L9.88 15l.535-1.2A6.56 6.56 0 0 0 8 13.333c-.707 0-1.387.148-2.027.348l.453 1.215-.625.238-.469-1.238a6.566 6.566 0 0 0-3.238 3.078l1.187.535L3 18.12l-1.2-.535A6.56 6.56 0 0 0 1.333 20c0 .707.148 1.387.348 2.027l1.215-.453.238.625-1.238.469a6.566 6.566 0 0 0 3.078 3.238l.535-1.187.613.281-.535 1.2A6.56 6.56 0 0 0 8 26.667c.707 0 1.387-.148 2.027-.348l-.453-1.215.625-.238.469 1.238a6.566 6.566 0 0 0 3.238-3.078l-1.187-.535.281-.613 1.2.535a7.34 7.34 0 0 0 .32-1.094h6.878c-.023.227-.066.453-.066.68A4.673 4.673 0 0 0 26 26.668 4.673 4.673 0 0 0 30.668 22a4.618 4.618 0 0 0-1.336-3.254ZM8 24c-2.215 0-4-1.785-4-4s1.785-4 4-4 4 1.785 4 4-1.785 4-4 4Zm6.492-5.332a9.041 9.041 0 0 0-.172-.695l-1.215.453-.238-.625 1.238-.469h.563A5.331 5.331 0 0 0 20 12v-1.332h6.668v6.73c-.215-.023-.441-.066-.668-.066a4.618 4.618 0 0 0-3.254 1.336ZM26 24a1.999 1.999 0 1 1 0-4 1.999 1.999 0 1 1 0 4Zm0 0"/>
</svg>
