<svg width="104" height="41" viewBox="0 0 104 41" fill="none" xmlns="http://www.w3.org/2000/svg">
<path d="M59.0129 6.89749H56.9857V16H54.7001V6.89749H53.4083V5.04916H54.7001V4.27406C54.7001 3.01534 55.0314 2.10111 55.6939 1.53138C56.3696 0.948392 57.4229 0.6569 58.8539 0.6569V2.54498C58.1649 2.54498 57.6813 2.67747 57.4031 2.94247C57.1248 3.19421 56.9857 3.63807 56.9857 4.27406V5.04916H59.0129V6.89749ZM62.6903 6.63912C63.0215 6.08263 63.4588 5.65202 64.002 5.34728C64.5585 5.02929 65.2144 4.87029 65.9696 4.87029V7.21548H65.3932C64.5055 7.21548 63.8298 7.44072 63.366 7.89121C62.9155 8.3417 62.6903 9.12343 62.6903 10.2364V16H60.4246V5.04916H62.6903V6.63912ZM68.6087 3.59832C68.198 3.59832 67.8535 3.4592 67.5752 3.18096C67.297 2.90272 67.1579 2.55823 67.1579 2.14749C67.1579 1.73675 67.297 1.39226 67.5752 1.11401C67.8535 0.83577 68.198 0.696649 68.6087 0.696649C69.0062 0.696649 69.3441 0.83577 69.6223 1.11401C69.9005 1.39226 70.0397 1.73675 70.0397 2.14749C70.0397 2.55823 69.9005 2.90272 69.6223 3.18096C69.3441 3.4592 69.0062 3.59832 68.6087 3.59832ZM69.7217 5.04916V16H67.456V5.04916H69.7217ZM76.075 16.1789C75.2138 16.1789 74.4387 16.0265 73.7497 15.7218C73.0739 15.4038 72.5373 14.9798 72.1398 14.4498C71.7423 13.9066 71.5304 13.3037 71.5039 12.6412H73.849C73.8888 13.105 74.1074 13.4958 74.5049 13.8138C74.9156 14.1185 75.4258 14.2709 76.0352 14.2709C76.6712 14.2709 77.1615 14.1517 77.5059 13.9132C77.8637 13.6614 78.0426 13.3434 78.0426 12.9592C78.0426 12.5485 77.8438 12.2437 77.4463 12.045C77.0621 11.8462 76.446 11.6276 75.598 11.3891C74.7765 11.1639 74.1074 10.9453 73.5907 10.7333C73.0739 10.5213 72.6234 10.1967 72.2392 9.75941C71.8682 9.32217 71.6827 8.74581 71.6827 8.03033C71.6827 7.44735 71.855 6.91736 72.1995 6.44037C72.544 5.95014 73.0342 5.5659 73.6702 5.28765C74.3194 5.00941 75.0614 4.87029 75.8961 4.87029C77.1416 4.87029 78.1419 5.18828 78.8972 5.82427C79.6656 6.447 80.0764 7.3016 80.1294 8.38807H77.8637C77.8239 7.89784 77.6252 7.50697 77.2675 7.21548C76.9097 6.92399 76.4261 6.77824 75.8166 6.77824C75.2204 6.77824 74.7633 6.89086 74.4453 7.11611C74.1273 7.34135 73.9683 7.63947 73.9683 8.01046C73.9683 8.30195 74.0743 8.54707 74.2863 8.74581C74.4983 8.94456 74.7566 9.10355 75.0614 9.2228C75.3661 9.3288 75.8166 9.46792 76.4128 9.64017C77.2078 9.85216 77.8571 10.0708 78.3605 10.296C78.8773 10.508 79.3211 10.826 79.6921 11.25C80.0631 11.674 80.2552 12.2371 80.2685 12.9393C80.2685 13.5621 80.0963 14.1185 79.7518 14.6088C79.4073 15.099 78.917 15.4833 78.2811 15.7615C77.6583 16.0397 76.923 16.1789 76.075 16.1789ZM86.453 10.5345L91.5012 16H88.4405L84.3861 11.2897V16H82.1204V1.29288H84.3861V9.83891L88.361 5.04916H91.5012L86.453 10.5345ZM95.1722 6.89749V12.9592C95.1722 13.3699 95.2649 13.6681 95.4504 13.8536C95.6492 14.0258 95.9804 14.1119 96.4442 14.1119H97.8354V16H96.0467C95.0264 16 94.2447 15.7615 93.7015 15.2845C93.1582 14.8075 92.8866 14.0324 92.8866 12.9592V6.89749H91.5948V5.04916H92.8866V2.32636H95.1722V5.04916H97.8354V6.89749H95.1722ZM56.6876 22.2929V37H54.4219V22.2929H56.6876ZM60.2187 24.5983C59.808 24.5983 59.4635 24.4592 59.1852 24.181C58.907 23.9027 58.7679 23.5582 58.7679 23.1475C58.7679 22.7367 58.907 22.3923 59.1852 22.114C59.4635 21.8358 59.808 21.6966 60.2187 21.6966C60.6162 21.6966 60.9541 21.8358 61.2323 22.114C61.5106 22.3923 61.6497 22.7367 61.6497 23.1475C61.6497 23.5582 61.5106 23.9027 61.2323 24.181C60.9541 24.4592 60.6162 24.5983 60.2187 24.5983ZM61.3317 26.0492V37H59.066V26.0492H61.3317ZM67.9434 34.9728L71.0438 26.0492H73.4486L69.275 37H66.572L62.4183 26.0492H64.843L67.9434 34.9728Z" fill="currentColor"/>
<path d="M7.43365 41C11.4866 41 14.7721 37.7145 14.7721 33.6616C14.7721 29.6087 11.4866 26.3232 7.43365 26.3232C3.38074 26.3232 0.0952148 29.6087 0.0952148 33.6616C0.0952148 37.7145 3.38074 41 7.43365 41Z" fill="currentColor"/>
<path d="M25.1141 30.4502C33.2192 30.4502 39.7897 23.8797 39.7897 15.7746C39.7897 7.66944 33.2192 1.09894 25.1141 1.09894C17.0089 1.09894 10.4384 7.66944 10.4384 15.7746C10.4384 23.8797 17.0089 30.4502 25.1141 30.4502Z" fill="currentColor"/>
</svg>
