<svg width="162" height="88" viewBox="0 0 162 88" fill="none" xmlns="http://www.w3.org/2000/svg">
<path d="M90.7413 9.17818H87.8858V22H84.6664V9.17818H82.8467V6.57463H84.6664V5.48281C84.6664 3.70978 85.133 2.422 86.0661 1.61947C87.018 0.79828 88.5017 0.387684 90.5174 0.387684V3.04723C89.5469 3.04723 88.8657 3.23386 88.4737 3.60714C88.0818 3.96174 87.8858 4.58697 87.8858 5.48281V6.57463H90.7413V9.17818ZM95.9213 8.81425C96.3879 8.03038 97.0038 7.42382 97.769 6.99456C98.5529 6.54663 99.4767 6.32267 100.541 6.32267V9.62611H99.7287C98.4782 9.62611 97.5264 9.94339 96.8732 10.5779C96.2386 11.2125 95.9213 12.3137 95.9213 13.8814V22H92.7299V6.57463H95.9213V8.81425ZM104.258 4.53098C103.679 4.53098 103.194 4.33501 102.802 3.94308C102.41 3.55114 102.214 3.06589 102.214 2.48733C102.214 1.90876 102.41 1.42351 102.802 1.03157C103.194 0.63964 103.679 0.443673 104.258 0.443673C104.818 0.443673 105.294 0.63964 105.686 1.03157C106.078 1.42351 106.274 1.90876 106.274 2.48733C106.274 3.06589 106.078 3.55114 105.686 3.94308C105.294 4.33501 104.818 4.53098 104.258 4.53098ZM105.826 6.57463V22H102.634V6.57463H105.826ZM114.775 22.252C113.562 22.252 112.47 22.0373 111.5 21.6081C110.548 21.1601 109.792 20.5629 109.232 19.8164C108.672 19.0512 108.373 18.202 108.336 17.2688H111.64C111.696 17.922 112.004 18.4726 112.563 18.9205C113.142 19.3498 113.861 19.5644 114.719 19.5644C115.615 19.5644 116.305 19.3964 116.791 19.0605C117.295 18.7059 117.547 18.258 117.547 17.7167C117.547 17.1382 117.267 16.7089 116.707 16.4289C116.165 16.149 115.298 15.841 114.103 15.5051C112.946 15.1878 112.004 14.8799 111.276 14.5813C110.548 14.2826 109.913 13.8254 109.372 13.2095C108.849 12.5936 108.588 11.7817 108.588 10.7739C108.588 9.95272 108.831 9.20618 109.316 8.53429C109.801 7.84375 110.492 7.3025 111.388 6.91057C112.302 6.51864 113.347 6.32267 114.523 6.32267C116.277 6.32267 117.687 6.7706 118.75 7.66644C119.833 8.54363 120.411 9.74742 120.486 11.2778H117.295C117.239 10.5873 116.959 10.0367 116.455 9.62611C115.951 9.21551 115.27 9.01021 114.411 9.01021C113.571 9.01021 112.927 9.16885 112.479 9.48613C112.031 9.80341 111.808 10.2233 111.808 10.7459C111.808 11.1565 111.957 11.5018 112.255 11.7817C112.554 12.0617 112.918 12.2857 113.347 12.4536C113.777 12.6029 114.411 12.7989 115.251 13.0415C116.371 13.3401 117.285 13.6481 117.994 13.9654C118.722 14.264 119.348 14.7119 119.87 15.3091C120.393 15.9064 120.663 16.6996 120.682 17.6887C120.682 18.5659 120.439 19.3498 119.954 20.0403C119.469 20.7309 118.778 21.2721 117.882 21.6641C117.005 22.056 115.969 22.252 114.775 22.252ZM129.394 14.3013L136.504 22H132.193L126.482 15.3651V22H123.291V1.28353H126.482V13.3215L132.081 6.57463H136.504L129.394 14.3013ZM141.675 9.17818V17.7167C141.675 18.2953 141.806 18.7152 142.067 18.9765C142.347 19.2191 142.814 19.3405 143.467 19.3405H145.427V22H142.907C141.47 22 140.369 21.6641 139.604 20.9922C138.839 20.3203 138.456 19.2285 138.456 17.7167V9.17818H136.636V6.57463H138.456V2.73928H141.675V6.57463H145.427V9.17818H141.675ZM87.4659 29.2835V50H84.2744V29.2835H87.4659ZM92.4399 32.531C91.8613 32.531 91.376 32.335 90.9841 31.9431C90.5922 31.5511 90.3962 31.0659 90.3962 30.4873C90.3962 29.9088 90.5922 29.4235 90.9841 29.0316C91.376 28.6396 91.8613 28.4437 92.4399 28.4437C92.9998 28.4437 93.4757 28.6396 93.8676 29.0316C94.2596 29.4235 94.4555 29.9088 94.4555 30.4873C94.4555 31.0659 94.2596 31.5511 93.8676 31.9431C93.4757 32.335 92.9998 32.531 92.4399 32.531ZM94.0076 34.5746V50H90.8161V34.5746H94.0076ZM103.321 47.1445L107.688 34.5746H111.076L105.197 50H101.389L95.5382 34.5746H98.9536L103.321 47.1445Z" fill="#F6F6F6"/>
<path d="M24.7606 50.4772C29.875 50.4772 34.0211 46.3311 34.0211 41.2166C34.0211 36.1022 29.875 31.9561 24.7606 31.9561C19.6461 31.9561 15.5 36.1022 15.5 41.2166C15.5 46.3311 19.6461 50.4772 24.7606 50.4772Z" fill="#F6F6F6"/>
<path d="M47.0723 37.1641C57.3004 37.1641 65.5918 28.8726 65.5918 18.6446C65.5918 8.41649 57.3004 0.125 47.0723 0.125C36.8442 0.125 28.5527 8.41649 28.5527 18.6446C28.5527 28.8726 36.8442 37.1641 47.0723 37.1641Z" fill="#F6F6F6"/>
<path d="M6.846 79.3071H2.59L1.806 81.4771H0.462L3.99 71.7751H5.46L8.974 81.4771H7.63L6.846 79.3071ZM6.482 78.2711L4.718 73.3431L2.954 78.2711H6.482ZM14.2496 73.6651C15.1829 73.6651 15.9389 73.9497 16.5176 74.5191C17.0963 75.0791 17.3856 75.8911 17.3856 76.9551V81.4771H16.1256V77.1371C16.1256 76.3717 15.9343 75.7884 15.5516 75.3871C15.1689 74.9764 14.6463 74.7711 13.9836 74.7711C13.3116 74.7711 12.7749 74.9811 12.3736 75.4011C11.9816 75.8211 11.7856 76.4324 11.7856 77.2351V81.4771H10.5116V73.8051H11.7856V74.8971C12.0376 74.5051 12.3783 74.2017 12.8076 73.9871C13.2463 73.7724 13.7269 73.6651 14.2496 73.6651ZM22.7231 77.6131C22.7231 76.8291 22.8818 76.1431 23.1991 75.5551C23.5164 74.9577 23.9504 74.4957 24.5011 74.1691C25.0611 73.8424 25.6818 73.6791 26.3631 73.6791C27.0351 73.6791 27.6184 73.8237 28.1131 74.1131C28.6078 74.4024 28.9764 74.7664 29.2191 75.2051V73.8051H30.5071V81.4771H29.2191V80.0491C28.9671 80.4971 28.5891 80.8704 28.0851 81.1691C27.5904 81.4584 27.0118 81.6031 26.3491 81.6031C25.6678 81.6031 25.0518 81.4351 24.5011 81.0991C23.9504 80.7631 23.5164 80.2917 23.1991 79.6851C22.8818 79.0784 22.7231 78.3877 22.7231 77.6131ZM29.2191 77.6271C29.2191 77.0484 29.1024 76.5444 28.8691 76.1151C28.6358 75.6857 28.3184 75.3591 27.9171 75.1351C27.5251 74.9017 27.0911 74.7851 26.6151 74.7851C26.1391 74.7851 25.7051 74.8971 25.3131 75.1211C24.9211 75.3451 24.6084 75.6717 24.3751 76.1011C24.1418 76.5304 24.0251 77.0344 24.0251 77.6131C24.0251 78.2011 24.1418 78.7144 24.3751 79.1531C24.6084 79.5824 24.9211 79.9137 25.3131 80.1471C25.7051 80.3711 26.1391 80.4831 26.6151 80.4831C27.0911 80.4831 27.5251 80.3711 27.9171 80.1471C28.3184 79.9137 28.6358 79.5824 28.8691 79.1531C29.1024 78.7144 29.2191 78.2057 29.2191 77.6271ZM33.934 75.2191C34.186 74.7804 34.5594 74.4164 35.054 74.1271C35.558 73.8284 36.1414 73.6791 36.804 73.6791C37.4854 73.6791 38.1014 73.8424 38.652 74.1691C39.212 74.4957 39.6507 74.9577 39.968 75.5551C40.2854 76.1431 40.444 76.8291 40.444 77.6131C40.444 78.3877 40.2854 79.0784 39.968 79.6851C39.6507 80.2917 39.212 80.7631 38.652 81.0991C38.1014 81.4351 37.4854 81.6031 36.804 81.6031C36.1507 81.6031 35.572 81.4584 35.068 81.1691C34.5734 80.8704 34.1954 80.5017 33.934 80.0631V85.1171H32.66V73.8051H33.934V75.2191ZM39.142 77.6131C39.142 77.0344 39.0254 76.5304 38.792 76.1011C38.5587 75.6717 38.2414 75.3451 37.84 75.1211C37.448 74.8971 37.014 74.7851 36.538 74.7851C36.0714 74.7851 35.6374 74.9017 35.236 75.1351C34.844 75.3591 34.5267 75.6904 34.284 76.1291C34.0507 76.5584 33.934 77.0577 33.934 77.6271C33.934 78.2057 34.0507 78.7144 34.284 79.1531C34.5267 79.5824 34.844 79.9137 35.236 80.1471C35.6374 80.3711 36.0714 80.4831 36.538 80.4831C37.014 80.4831 37.448 80.3711 37.84 80.1471C38.2414 79.9137 38.5587 79.5824 38.792 79.1531C39.0254 78.7144 39.142 78.2011 39.142 77.6131ZM43.395 75.2191C43.647 74.7804 44.0203 74.4164 44.515 74.1271C45.019 73.8284 45.6023 73.6791 46.265 73.6791C46.9463 73.6791 47.5623 73.8424 48.113 74.1691C48.673 74.4957 49.1116 74.9577 49.429 75.5551C49.7463 76.1431 49.905 76.8291 49.905 77.6131C49.905 78.3877 49.7463 79.0784 49.429 79.6851C49.1116 80.2917 48.673 80.7631 48.113 81.0991C47.5623 81.4351 46.9463 81.6031 46.265 81.6031C45.6116 81.6031 45.033 81.4584 44.529 81.1691C44.0343 80.8704 43.6563 80.5017 43.395 80.0631V85.1171H42.121V73.8051H43.395V75.2191ZM48.603 77.6131C48.603 77.0344 48.4863 76.5304 48.253 76.1011C48.0196 75.6717 47.7023 75.3451 47.301 75.1211C46.909 74.8971 46.475 74.7851 45.999 74.7851C45.5323 74.7851 45.0983 74.9017 44.697 75.1351C44.305 75.3591 43.9876 75.6904 43.745 76.1291C43.5116 76.5584 43.395 77.0577 43.395 77.6271C43.395 78.2057 43.5116 78.7144 43.745 79.1531C43.9876 79.5824 44.305 79.9137 44.697 80.1471C45.0983 80.3711 45.5323 80.4831 45.999 80.4831C46.475 80.4831 46.909 80.3711 47.301 80.1471C47.7023 79.9137 48.0196 79.5824 48.253 79.1531C48.4863 78.7144 48.603 78.2011 48.603 77.6131ZM56.8683 74.8551V79.3771C56.8683 79.7504 56.9477 80.0164 57.1063 80.1751C57.265 80.3244 57.5403 80.3991 57.9323 80.3991H58.8703V81.4771H57.7223C57.013 81.4771 56.481 81.3137 56.1263 80.9871C55.7717 80.6604 55.5943 80.1237 55.5943 79.3771V74.8551H54.6003V73.8051H55.5943V71.8731H56.8683V73.8051H58.8703V74.8551H56.8683ZM64.2219 73.6651C64.8006 73.6651 65.3233 73.7911 65.7899 74.0431C66.2566 74.2857 66.6206 74.6544 66.8819 75.1491C67.1526 75.6437 67.2879 76.2457 67.2879 76.9551V81.4771H66.0279V77.1371C66.0279 76.3717 65.8366 75.7884 65.4539 75.3871C65.0713 74.9764 64.5486 74.7711 63.8859 74.7711C63.2139 74.7711 62.6773 74.9811 62.2759 75.4011C61.8839 75.8211 61.6879 76.4324 61.6879 77.2351V81.4771H60.4139V71.1171H61.6879V74.8971C61.9399 74.5051 62.2853 74.2017 62.7239 73.9871C63.1719 73.7724 63.6713 73.6651 64.2219 73.6651ZM68.893 77.6131C68.893 76.8291 69.0517 76.1431 69.369 75.5551C69.6863 74.9577 70.1203 74.4957 70.671 74.1691C71.231 73.8424 71.8517 73.6791 72.533 73.6791C73.205 73.6791 73.7883 73.8237 74.283 74.1131C74.7777 74.4024 75.1463 74.7664 75.389 75.2051V73.8051H76.677V81.4771H75.389V80.0491C75.137 80.4971 74.759 80.8704 74.255 81.1691C73.7603 81.4584 73.1817 81.6031 72.519 81.6031C71.8377 81.6031 71.2217 81.4351 70.671 81.0991C70.1203 80.7631 69.6863 80.2917 69.369 79.6851C69.0517 79.0784 68.893 78.3877 68.893 77.6131ZM75.389 77.6271C75.389 77.0484 75.2723 76.5444 75.039 76.1151C74.8057 75.6857 74.4883 75.3591 74.087 75.1351C73.695 74.9017 73.261 74.7851 72.785 74.7851C72.309 74.7851 71.875 74.8971 71.483 75.1211C71.091 75.3451 70.7783 75.6717 70.545 76.1011C70.3117 76.5304 70.195 77.0344 70.195 77.6131C70.195 78.2011 70.3117 78.7144 70.545 79.1531C70.7783 79.5824 71.091 79.9137 71.483 80.1471C71.875 80.3711 72.309 80.4831 72.785 80.4831C73.261 80.4831 73.695 80.3711 74.087 80.1471C74.4883 79.9137 74.8057 79.5824 75.039 79.1531C75.2723 78.7144 75.389 78.2057 75.389 77.6271ZM80.384 74.8551V79.3771C80.384 79.7504 80.4633 80.0164 80.622 80.1751C80.7806 80.3244 81.056 80.3991 81.448 80.3991H82.386V81.4771H81.238C80.5286 81.4771 79.9966 81.3137 79.642 80.9871C79.2873 80.6604 79.11 80.1237 79.11 79.3771V74.8551H78.116V73.8051H79.11V71.8731H80.384V73.8051H82.386V74.8551H80.384ZM90.378 81.6031C89.79 81.6031 89.2627 81.5051 88.796 81.3091C88.3293 81.1037 87.9607 80.8237 87.69 80.4691C87.4193 80.1051 87.27 79.6897 87.242 79.2231H88.558C88.5953 79.6057 88.7727 79.9184 89.09 80.1611C89.4167 80.4037 89.8413 80.5251 90.364 80.5251C90.8493 80.5251 91.232 80.4177 91.512 80.2031C91.792 79.9884 91.932 79.7177 91.932 79.3911C91.932 79.0551 91.7827 78.8077 91.484 78.6491C91.1853 78.4811 90.7233 78.3177 90.098 78.1591C89.5287 78.0097 89.062 77.8604 88.698 77.7111C88.3433 77.5524 88.0353 77.3237 87.774 77.0251C87.522 76.7171 87.396 76.3157 87.396 75.8211C87.396 75.4291 87.5127 75.0697 87.746 74.7431C87.9793 74.4164 88.3107 74.1597 88.74 73.9731C89.1693 73.7771 89.6593 73.6791 90.21 73.6791C91.0593 73.6791 91.7453 73.8937 92.268 74.3231C92.7907 74.7524 93.0707 75.3404 93.108 76.0871H91.834C91.806 75.6857 91.6427 75.3637 91.344 75.1211C91.0547 74.8784 90.6627 74.7571 90.168 74.7571C89.7107 74.7571 89.3467 74.8551 89.076 75.0511C88.8053 75.2471 88.67 75.5037 88.67 75.8211C88.67 76.0731 88.7493 76.2831 88.908 76.4511C89.076 76.6097 89.2813 76.7404 89.524 76.8431C89.776 76.9364 90.1213 77.0437 90.56 77.1651C91.1107 77.3144 91.5587 77.4637 91.904 77.6131C92.2493 77.7531 92.5433 77.9677 92.786 78.2571C93.038 78.5464 93.1687 78.9244 93.178 79.3911C93.178 79.8111 93.0613 80.1891 92.828 80.5251C92.5947 80.8611 92.2633 81.1271 91.834 81.3231C91.414 81.5097 90.9287 81.6031 90.378 81.6031ZM94.5004 77.6131C94.5004 76.8291 94.6591 76.1431 94.9764 75.5551C95.2938 74.9577 95.7278 74.4957 96.2784 74.1691C96.8384 73.8424 97.4591 73.6791 98.1404 73.6791C98.8124 73.6791 99.3958 73.8237 99.8904 74.1131C100.385 74.4024 100.754 74.7664 100.996 75.2051V73.8051H102.284V81.4771H100.996V80.0491C100.744 80.4971 100.366 80.8704 99.8624 81.1691C99.3678 81.4584 98.7891 81.6031 98.1264 81.6031C97.4451 81.6031 96.8291 81.4351 96.2784 81.0991C95.7278 80.7631 95.2938 80.2917 94.9764 79.6851C94.6591 79.0784 94.5004 78.3877 94.5004 77.6131ZM100.996 77.6271C100.996 77.0484 100.88 76.5444 100.646 76.1151C100.413 75.6857 100.096 75.3591 99.6944 75.1351C99.3024 74.9017 98.8684 74.7851 98.3924 74.7851C97.9164 74.7851 97.4824 74.8971 97.0904 75.1211C96.6984 75.3451 96.3858 75.6717 96.1524 76.1011C95.9191 76.5304 95.8024 77.0344 95.8024 77.6131C95.8024 78.2011 95.9191 78.7144 96.1524 79.1531C96.3858 79.5824 96.6984 79.9137 97.0904 80.1471C97.4824 80.3711 97.9164 80.4831 98.3924 80.4831C98.8684 80.4831 99.3024 80.3711 99.6944 80.1471C100.096 79.9137 100.413 79.5824 100.646 79.1531C100.88 78.7144 100.996 78.2057 100.996 77.6271ZM107.293 80.3011L109.673 73.8051H111.031L108.021 81.4771H106.537L103.527 73.8051H104.899L107.293 80.3011ZM119.285 77.3471C119.285 77.5897 119.271 77.8464 119.243 78.1171H113.111C113.158 78.8731 113.414 79.4657 113.881 79.8951C114.357 80.3151 114.931 80.5251 115.603 80.5251C116.154 80.5251 116.611 80.3991 116.975 80.1471C117.348 79.8857 117.61 79.5404 117.759 79.1111H119.131C118.926 79.8484 118.515 80.4504 117.899 80.9171C117.283 81.3744 116.518 81.6031 115.603 81.6031C114.875 81.6031 114.222 81.4397 113.643 81.1131C113.074 80.7864 112.626 80.3244 112.299 79.7271C111.972 79.1204 111.809 78.4204 111.809 77.6271C111.809 76.8337 111.968 76.1384 112.285 75.5411C112.602 74.9437 113.046 74.4864 113.615 74.1691C114.194 73.8424 114.856 73.6791 115.603 73.6791C116.331 73.6791 116.975 73.8377 117.535 74.1551C118.095 74.4724 118.524 74.9111 118.823 75.4711C119.131 76.0217 119.285 76.6471 119.285 77.3471ZM117.969 77.0811C117.969 76.5957 117.862 76.1804 117.647 75.8351C117.432 75.4804 117.138 75.2144 116.765 75.0371C116.401 74.8504 115.995 74.7571 115.547 74.7571C114.903 74.7571 114.352 74.9624 113.895 75.3731C113.447 75.7837 113.19 76.3531 113.125 77.0811H117.969ZM123.683 81.6031C123.095 81.6031 122.567 81.5051 122.101 81.3091C121.634 81.1037 121.265 80.8237 120.995 80.4691C120.724 80.1051 120.575 79.6897 120.547 79.2231H121.863C121.9 79.6057 122.077 79.9184 122.395 80.1611C122.721 80.4037 123.146 80.5251 123.669 80.5251C124.154 80.5251 124.537 80.4177 124.817 80.2031C125.097 79.9884 125.237 79.7177 125.237 79.3911C125.237 79.0551 125.087 78.8077 124.789 78.6491C124.49 78.4811 124.028 78.3177 123.403 78.1591C122.833 78.0097 122.367 77.8604 122.003 77.7111C121.648 77.5524 121.34 77.3237 121.079 77.0251C120.827 76.7171 120.701 76.3157 120.701 75.8211C120.701 75.4291 120.817 75.0697 121.051 74.7431C121.284 74.4164 121.615 74.1597 122.045 73.9731C122.474 73.7771 122.964 73.6791 123.515 73.6791C124.364 73.6791 125.05 73.8937 125.573 74.3231C126.095 74.7524 126.375 75.3404 126.413 76.0871H125.139C125.111 75.6857 124.947 75.3637 124.649 75.1211C124.359 74.8784 123.967 74.7571 123.473 74.7571C123.015 74.7571 122.651 74.8551 122.381 75.0511C122.11 75.2471 121.975 75.5037 121.975 75.8211C121.975 76.0731 122.054 76.2831 122.213 76.4511C122.381 76.6097 122.586 76.7404 122.829 76.8431C123.081 76.9364 123.426 77.0437 123.865 77.1651C124.415 77.3144 124.863 77.4637 125.209 77.6131C125.554 77.7531 125.848 77.9677 126.091 78.2571C126.343 78.5464 126.473 78.9244 126.483 79.3911C126.483 79.8111 126.366 80.1891 126.133 80.5251C125.899 80.8611 125.568 81.1271 125.139 81.3231C124.719 81.5097 124.233 81.6031 123.683 81.6031ZM133.288 71.1171V81.4771H132.014V71.1171H133.288ZM136.117 72.5591C135.874 72.5591 135.669 72.4751 135.501 72.3071C135.333 72.1391 135.249 71.9337 135.249 71.691C135.249 71.4484 135.333 71.2431 135.501 71.0751C135.669 70.9071 135.874 70.8231 136.117 70.8231C136.35 70.8231 136.546 70.9071 136.705 71.0751C136.873 71.2431 136.957 71.4484 136.957 71.691C136.957 71.9337 136.873 72.1391 136.705 72.3071C136.546 72.4751 136.35 72.5591 136.117 72.5591ZM136.733 73.8051V81.4771H135.459V73.8051H136.733ZM141.76 80.3011L144.14 73.8051H145.498L142.488 81.4771H141.004L137.994 73.8051H139.366L141.76 80.3011ZM153.752 77.3471C153.752 77.5897 153.738 77.8464 153.71 78.1171H147.578C147.624 78.8731 147.881 79.4657 148.348 79.8951C148.824 80.3151 149.398 80.5251 150.07 80.5251C150.62 80.5251 151.078 80.3991 151.442 80.1471C151.815 79.8857 152.076 79.5404 152.226 79.1111H153.598C153.392 79.8484 152.982 80.4504 152.366 80.9171C151.75 81.3744 150.984 81.6031 150.07 81.6031C149.342 81.6031 148.688 81.4397 148.11 81.1131C147.54 80.7864 147.092 80.3244 146.766 79.7271C146.439 79.1204 146.276 78.4204 146.276 77.6271C146.276 76.8337 146.434 76.1384 146.752 75.5411C147.069 74.9437 147.512 74.4864 148.082 74.1691C148.66 73.8424 149.323 73.6791 150.07 73.6791C150.798 73.6791 151.442 73.8377 152.002 74.1551C152.562 74.4724 152.991 74.9111 153.29 75.4711C153.598 76.0217 153.752 76.6471 153.752 77.3471ZM152.436 77.0811C152.436 76.5957 152.328 76.1804 152.114 75.8351C151.899 75.4804 151.605 75.2144 151.232 75.0371C150.868 74.8504 150.462 74.7571 150.014 74.7571C149.37 74.7571 148.819 74.9624 148.362 75.3731C147.914 75.7837 147.657 76.3531 147.592 77.0811H152.436ZM158.149 81.6031C157.561 81.6031 157.034 81.5051 156.567 81.3091C156.101 81.1037 155.732 80.8237 155.461 80.4691C155.191 80.1051 155.041 79.6897 155.013 79.2231H156.329C156.367 79.6057 156.544 79.9184 156.861 80.1611C157.188 80.4037 157.613 80.5251 158.135 80.5251C158.621 80.5251 159.003 80.4177 159.283 80.2031C159.563 79.9884 159.703 79.7177 159.703 79.3911C159.703 79.0551 159.554 78.8077 159.255 78.6491C158.957 78.4811 158.495 78.3177 157.869 78.1591C157.3 78.0097 156.833 77.8604 156.469 77.7111C156.115 77.5524 155.807 77.3237 155.545 77.0251C155.293 76.7171 155.167 76.3157 155.167 75.8211C155.167 75.4291 155.284 75.0697 155.517 74.7431C155.751 74.4164 156.082 74.1597 156.511 73.9731C156.941 73.7771 157.431 73.6791 157.981 73.6791C158.831 73.6791 159.517 73.8937 160.039 74.3231C160.562 74.7524 160.842 75.3404 160.879 76.0871H159.605C159.577 75.6857 159.414 75.3637 159.115 75.1211C158.826 74.8784 158.434 74.7571 157.939 74.7571C157.482 74.7571 157.118 74.8551 156.847 75.0511C156.577 75.2471 156.441 75.5037 156.441 75.8211C156.441 76.0731 156.521 76.2831 156.679 76.4511C156.847 76.6097 157.053 76.7404 157.295 76.8431C157.547 76.9364 157.893 77.0437 158.331 77.1651C158.882 77.3144 159.33 77.4637 159.675 77.6131C160.021 77.7531 160.315 77.9677 160.557 78.2571C160.809 78.5464 160.94 78.9244 160.949 79.3911C160.949 79.8111 160.833 80.1891 160.599 80.5251C160.366 80.8611 160.035 81.1271 159.605 81.3231C159.185 81.5097 158.7 81.6031 158.149 81.6031Z" fill="#F6F6F6"/>
</svg>
