<svg width="16" height="16" viewBox="0 0 16 16" fill="none" xmlns="http://www.w3.org/2000/svg">
<path d="M8 2.93333C5.20623 2.93333 2.93333 5.20623 2.93333 8C2.93333 10.7938 5.20623 13.0667 8 13.0667C10.7938 13.0667 13.0667 10.7938 13.0667 8C13.0667 5.20623 10.7938 2.93333 8 2.93333ZM8 12C7.20888 12 6.43552 11.7654 5.77772 11.3259C5.11992 10.8864 4.60723 10.2616 4.30448 9.53073C4.00173 8.79983 3.92252 7.99556 4.07686 7.21964C4.2312 6.44372 4.61216 5.73098 5.17157 5.17157C5.73098 4.61216 6.44372 4.2312 7.21964 4.07686C7.99556 3.92252 8.79983 4.00173 9.53073 4.30448C10.2616 4.60723 10.8864 5.11992 11.3259 5.77772C11.7654 6.43552 12 7.20888 12 8C11.9988 9.0605 11.577 10.0772 10.8271 10.8271C10.0772 11.577 9.0605 11.9988 8 12ZM7.46667 0H8.53333V1.6H7.46667V0ZM7.46667 14.4H8.53333V16H7.46667V14.4ZM14.4 7.46667H16V8.53333H14.4V7.46667ZM0 7.46667H1.6V8.53333H0V7.46667ZM12.4229 13.1771L13.1771 12.4229L14.2438 13.4896L13.4896 14.2438L12.4229 13.1771ZM1.75623 2.51047L2.5105 1.7562L3.57717 2.82287L2.8229 3.57713L1.75623 2.51047ZM1.75617 13.4896L2.82283 12.423L3.5771 13.1772L2.51043 14.2438L1.75617 13.4896ZM12.4229 2.82287L13.4896 1.7562L14.2438 2.51047L13.1772 3.57713L12.4229 2.82287Z" fill="#251F39"/>
</svg>
