<svg width="51" height="44" viewBox="0 0 51 44" fill="none" xmlns="http://www.w3.org/2000/svg">
<path d="M1.73935 22.3264C1.73935 33.2048 10.8972 42.0234 22.1939 42.0234C33.4906 42.0234 42.6484 33.2048 42.6484 22.3264" stroke="white" stroke-width="2.08333" stroke-linecap="round"/>
<path d="M49.7227 24.3516L43.3124 17.3585L42.7782 16.7758L35.8338 24.3516L49.7227 24.3516Z" fill="white" stroke="white" stroke-width="0.694444"/>
<path d="M34.793 5.21611C34.793 5.21611 31.668 2.0911 27.5013 1.74388M11.5291 4.3146C13.6124 2.43832 19.168 1.04943 21.5985 1.04943M2.15408 18.7578C2.15408 18.7578 2.15408 11.8133 7.01519 7.64667" stroke="white" stroke-width="2.08333" stroke-linecap="round"/>
<path d="M25.1333 12.2307L23.9833 13.1474L25.85 15.3807L15.75 15.3807L15.75 17.0307L28.0667 17.0307L28.0667 15.7141L25.1333 12.2307ZM15.55 24.2598C15.55 27.8264 18.9333 29.0598 21.9167 29.0598C24.9 29.0598 28.2833 27.8264 28.2833 24.2598C28.2833 22.5431 27.4667 21.2264 26.2 20.4931C24.9333 19.7764 23.5 19.4431 21.9167 19.4431C20.3333 19.4431 18.9 19.7764 17.6333 20.4931C16.3667 21.2264 15.55 22.5431 15.55 24.2598ZM21.9167 27.3764C20.5 27.3764 19.35 27.1264 18.45 26.6098C17.55 26.0931 17.1 25.3098 17.1 24.2598C17.1 23.2098 17.55 22.4264 18.45 21.9098C19.35 21.3931 20.5 21.1431 21.9167 21.1431C23.3167 21.1431 24.4667 21.3931 25.3667 21.9098C26.2833 22.4264 26.7333 23.2098 26.7333 24.2598C26.7333 25.3098 26.2833 26.0931 25.3667 26.6098C24.4667 27.1264 23.3167 27.3764 21.9167 27.3764Z" fill="white"/>
</svg>
