<svg width="10" height="19" viewBox="0 0 10 19" fill="none" xmlns="http://www.w3.org/2000/svg">
<path d="M7.54009 18.085C7.34712 18.0856 7.15646 18.043 6.98211 17.9603C6.80776 17.8776 6.65416 17.7569 6.53259 17.607L0.293839 9.85703C0.103858 9.62591 0 9.33601 0 9.03683C0 8.73764 0.103858 8.44774 0.293839 8.21662L6.75217 0.466618C6.97142 0.202838 7.28647 0.0369562 7.62802 0.00546569C7.96957 -0.0260248 8.30964 0.0794552 8.57342 0.298701C8.8372 0.517946 9.00308 0.832999 9.03457 1.17455C9.06606 1.5161 8.96058 1.85617 8.74134 2.11995L2.96759 9.04328L8.54759 15.9666C8.70554 16.1562 8.80587 16.3871 8.83671 16.6319C8.86756 16.8768 8.82762 17.1253 8.72163 17.3482C8.61565 17.571 8.44804 17.7588 8.23865 17.8894C8.02925 18.02 7.78684 18.0878 7.54009 18.085Z" fill="white"/>
</svg>
