<svg width="19" height="16" viewBox="0 0 19 16" fill="none" xmlns="http://www.w3.org/2000/svg">
<path d="M10.1611 0.22235C10.3267 0.223331 10.4899 0.261294 10.6389 0.333462C10.8088 0.433572 10.9447 0.582459 11.0289 0.760787C11.1131 0.939116 11.1418 1.13864 11.1111 1.33346L11.1111 5.05568L17.1278 0.455684C17.2875 0.329241 17.4798 0.250648 17.6823 0.229017C17.8849 0.207385 18.0894 0.2436 18.2722 0.333463C18.4582 0.425868 18.6146 0.568539 18.7236 0.745292C18.8325 0.922045 18.8898 1.12581 18.8889 1.33346L18.8889 14.6668C18.8898 14.8745 18.8325 15.0782 18.7236 15.255C18.6146 15.4317 18.4582 15.5744 18.2722 15.6668C18.0896 15.7573 17.8849 15.7939 17.6822 15.7723C17.4795 15.7506 17.2872 15.6716 17.1278 15.5446L11.1111 10.9501L11.1111 14.6668C11.1406 14.8607 11.1114 15.0591 11.0272 15.2363C10.9431 15.4135 10.8078 15.5615 10.6389 15.6612C10.4563 15.7518 10.2516 15.7883 10.0489 15.7667C9.8462 15.7451 9.65387 15.6661 9.49446 15.539L0.983349 8.87235C0.850548 8.76842 0.743146 8.63562 0.669282 8.48401C0.595418 8.33241 0.557032 8.16599 0.557032 7.99735C0.557032 7.82871 0.595418 7.66229 0.669282 7.51068C0.743146 7.35908 0.850549 7.22628 0.98335 7.12235L9.49446 0.455683C9.68539 0.307464 9.91944 0.225545 10.1611 0.22235Z" fill="#454555" fill-opacity="0.7"/>
</svg>
