<svg width="48" height="48" viewBox="0 0 48 48" fill="none" xmlns="http://www.w3.org/2000/svg">
<path d="M24 48C30.3652 48 36.4697 45.4714 40.9706 40.9706C45.4714 36.4697 48 30.3652 48 24C48 17.6348 45.4714 11.5303 40.9706 7.02944C36.4697 2.52856 30.3652 0 24 0C17.6348 0 11.5303 2.52856 7.02944 7.02944C2.52856 11.5303 0 17.6348 0 24C0 30.3652 2.52856 36.4697 7.02944 40.9706C11.5303 45.4714 17.6348 48 24 48Z" fill="#454555"/>
<path d="M18.813 15.1645C19.0584 15.0381 19.3338 14.9819 19.609 15.002C19.8843 15.0222 20.1486 15.1178 20.373 15.2785L30.873 22.7785C31.0674 22.9172 31.2259 23.1004 31.3353 23.3128C31.4447 23.5252 31.5017 23.7606 31.5017 23.9995C31.5017 24.2383 31.4447 24.4738 31.3353 24.6861C31.2259 24.8985 31.0674 25.0817 30.873 25.2205L20.373 32.7205C20.1487 32.881 19.8845 32.9766 19.6094 32.9967C19.3343 33.0168 19.059 32.9607 18.8137 32.8345C18.5684 32.7083 18.3627 32.5169 18.2192 32.2814C18.0756 32.0458 17.9998 31.7753 18 31.4995V16.4995C17.9997 16.2237 18.0754 15.9532 18.2189 15.7177C18.3623 15.4822 18.5679 15.2908 18.813 15.1645Z" fill="white"/>
</svg>
