<svg width="18" height="18" viewBox="0 0 18 18" fill="none" xmlns="http://www.w3.org/2000/svg">
<path d="M2.17444 2.68359H6.39537C7.14168 2.68359 7.85742 2.98006 8.38513 3.50778C8.91285 4.0355 9.20932 4.75124 9.20932 5.49755V15.3464C9.20932 14.7867 8.98697 14.2498 8.59118 13.8541C8.19539 13.4583 7.65859 13.2359 7.09886 13.2359H2.17444V2.68359Z" stroke="white" stroke-width="1.40698" stroke-linecap="round" stroke-linejoin="round"/>
<path d="M16.2441 2.68359H12.0232C11.2769 2.68359 10.5611 2.98006 10.0334 3.50778C9.5057 4.0355 9.20923 4.75124 9.20923 5.49755V15.3464C9.20923 14.7867 9.43158 14.2498 9.82737 13.8541C10.2232 13.4583 10.76 13.2359 11.3197 13.2359H16.2441V2.68359Z" stroke="white" stroke-width="1.40698" stroke-linecap="round" stroke-linejoin="round"/>
</svg>
