<svg width="22" height="22" viewBox="0 0 22 22" fill="none" xmlns="http://www.w3.org/2000/svg">
<path fill-rule="evenodd" clip-rule="evenodd" d="M11 1C5.47715 1 1 5.47716 1 11C1 16.5228 5.47715 21 11 21C16.5228 21 21 16.5228 21 11C21 5.47716 16.5228 1 11 1Z" stroke="#979797" stroke-width="2"/>
<path fill-rule="evenodd" clip-rule="evenodd" d="M17.5568 8.59458C17.6552 8.6713 17.7293 8.77496 17.7701 8.89297C17.8015 9.01095 17.7987 9.13542 17.7622 9.25191C17.7256 9.36839 17.6568 9.47212 17.5636 9.55103L14.8991 12.1317L15.5443 15.7962C15.5673 15.9171 15.5553 16.0422 15.5095 16.1565C15.4638 16.2708 15.3863 16.3696 15.2862 16.4414C15.1755 16.5215 15.0422 16.5644 14.9056 16.5639C14.8016 16.5643 14.6993 16.5376 14.6088 16.4865L11.3185 14.7639L8.02815 16.4865C7.91993 16.5477 7.79634 16.5763 7.67224 16.5689C7.54813 16.5615 7.42881 16.5184 7.32862 16.4448C7.22843 16.3712 7.15165 16.2702 7.1075 16.154C7.06335 16.0378 7.05372 15.9113 7.07976 15.7897L7.72493 12.1252L5.06041 9.54458C4.97748 9.46182 4.91865 9.35804 4.89023 9.24439C4.86182 9.13072 4.86489 9.01147 4.89912 8.89942C4.93651 8.78476 5.0053 8.68287 5.09767 8.60533C5.19004 8.52778 5.3023 8.47768 5.4217 8.46071L9.09267 7.91877L10.7378 4.58975C10.7907 4.48066 10.8731 4.38867 10.9758 4.3243C11.0785 4.25994 11.1973 4.2258 11.3185 4.2258C11.4397 4.2258 11.5584 4.25994 11.6611 4.3243C11.7638 4.38867 11.8463 4.48066 11.8991 4.58975L13.5443 7.92523L17.2152 8.46071C17.3396 8.47136 17.4583 8.51785 17.5568 8.59458Z" stroke="#979797" stroke-width="2"/>
</svg>
