<svg width="22" height="22" viewBox="0 0 22 22" fill="none" xmlns="http://www.w3.org/2000/svg">
<mask id="path-1-outside-1_542_2091" maskUnits="userSpaceOnUse" x="0" y="0" width="22" height="22" fill="black">
<rect fill="white" width="22" height="22"/>
<path fill-rule="evenodd" clip-rule="evenodd" d="M11 1C5.47715 1 1 5.47716 1 11C1 16.5228 5.47715 21 11 21C16.5228 21 21 16.5228 21 11C21 5.47716 16.5228 1 11 1Z"/>
<path fill-rule="evenodd" clip-rule="evenodd" d="M17.5568 8.59458C17.6552 8.6713 17.7293 8.77496 17.7701 8.89297C17.8015 9.01095 17.7987 9.13542 17.7622 9.25191C17.7256 9.36839 17.6568 9.47212 17.5636 9.55103L14.8991 12.1317L15.5443 15.7962C15.5673 15.9171 15.5553 16.0422 15.5095 16.1565C15.4638 16.2708 15.3863 16.3696 15.2862 16.4414C15.1755 16.5215 15.0422 16.5644 14.9056 16.5639C14.8016 16.5643 14.6993 16.5376 14.6088 16.4865L11.3185 14.7639L8.02815 16.4865C7.91993 16.5477 7.79634 16.5763 7.67224 16.5689C7.54813 16.5615 7.42881 16.5184 7.32862 16.4448C7.22843 16.3712 7.15165 16.2702 7.1075 16.154C7.06335 16.0378 7.05372 15.9113 7.07976 15.7897L7.72493 12.1252L5.06041 9.54458C4.97748 9.46182 4.91865 9.35804 4.89023 9.24439C4.86182 9.13072 4.86489 9.01147 4.89912 8.89942C4.93651 8.78476 5.0053 8.68287 5.09767 8.60533C5.19004 8.52778 5.3023 8.47768 5.4217 8.46071L9.09267 7.91877L10.7378 4.58975C10.7907 4.48066 10.8731 4.38867 10.9758 4.3243C11.0785 4.25994 11.1973 4.2258 11.3185 4.2258C11.4397 4.2258 11.5584 4.25994 11.6611 4.3243C11.7638 4.38867 11.8463 4.48066 11.8991 4.58975L13.5443 7.92523L17.2152 8.46071C17.3396 8.47136 17.4583 8.51785 17.5568 8.59458Z"/>
</mask>
<path fill-rule="evenodd" clip-rule="evenodd" d="M11 1C5.47715 1 1 5.47716 1 11C1 16.5228 5.47715 21 11 21C16.5228 21 21 16.5228 21 11C21 5.47716 16.5228 1 11 1Z" fill="#1B3DC6"/>
<path fill-rule="evenodd" clip-rule="evenodd" d="M17.5568 8.59458C17.6552 8.6713 17.7293 8.77496 17.7701 8.89297C17.8015 9.01095 17.7987 9.13542 17.7622 9.25191C17.7256 9.36839 17.6568 9.47212 17.5636 9.55103L14.8991 12.1317L15.5443 15.7962C15.5673 15.9171 15.5553 16.0422 15.5095 16.1565C15.4638 16.2708 15.3863 16.3696 15.2862 16.4414C15.1755 16.5215 15.0422 16.5644 14.9056 16.5639C14.8016 16.5643 14.6993 16.5376 14.6088 16.4865L11.3185 14.7639L8.02815 16.4865C7.91993 16.5477 7.79634 16.5763 7.67224 16.5689C7.54813 16.5615 7.42881 16.5184 7.32862 16.4448C7.22843 16.3712 7.15165 16.2702 7.1075 16.154C7.06335 16.0378 7.05372 15.9113 7.07976 15.7897L7.72493 12.1252L5.06041 9.54458C4.97748 9.46182 4.91865 9.35804 4.89023 9.24439C4.86182 9.13072 4.86489 9.01147 4.89912 8.89942C4.93651 8.78476 5.0053 8.68287 5.09767 8.60533C5.19004 8.52778 5.3023 8.47768 5.4217 8.46071L9.09267 7.91877L10.7378 4.58975C10.7907 4.48066 10.8731 4.38867 10.9758 4.3243C11.0785 4.25994 11.1973 4.2258 11.3185 4.2258C11.4397 4.2258 11.5584 4.25994 11.6611 4.3243C11.7638 4.38867 11.8463 4.48066 11.8991 4.58975L13.5443 7.92523L17.2152 8.46071C17.3396 8.47136 17.4583 8.51785 17.5568 8.59458Z" fill="white"/>
<path d="M17.7701 8.89297L17.9634 8.84157L17.9615 8.83456L17.9591 8.8277L17.7701 8.89297ZM17.7622 9.25191L17.953 9.31178L17.953 9.31177L17.7622 9.25191ZM17.5636 9.55103L17.4341 9.39809L17.4245 9.40736L17.5636 9.55103ZM14.8991 12.1317L14.76 11.988L14.6837 12.0618L14.7021 12.1664L14.8991 12.1317ZM15.5443 15.7962L15.3473 15.8309L15.3478 15.8336L15.5443 15.7962ZM15.5095 16.1565L15.3238 16.0822L15.3238 16.0822L15.5095 16.1565ZM15.2862 16.4414L15.1697 16.2788L15.1689 16.2794L15.2862 16.4414ZM14.9056 16.5639L14.9063 16.3639L14.9049 16.3639L14.9056 16.5639ZM14.6088 16.4865L14.7071 16.3122L14.7016 16.3093L14.6088 16.4865ZM11.3185 14.7639L11.4112 14.5867L11.3185 14.5382L11.2257 14.5867L11.3185 14.7639ZM8.02815 16.4865L7.93534 16.3092L7.92971 16.3124L8.02815 16.4865ZM7.32862 16.4448L7.2102 16.606L7.21021 16.606L7.32862 16.4448ZM7.1075 16.154L7.29446 16.083L7.29446 16.083L7.1075 16.154ZM7.07976 15.7897L7.27546 15.8317L7.27674 15.8244L7.07976 15.7897ZM7.72493 12.1252L7.9219 12.1599L7.9403 12.0554L7.86407 11.9816L7.72493 12.1252ZM5.06041 9.54458L4.91912 9.68616L4.92127 9.68824L5.06041 9.54458ZM4.89023 9.24439L4.69621 9.29289L4.69621 9.2929L4.89023 9.24439ZM4.89912 8.89942L4.70894 8.8374L4.70785 8.84099L4.89912 8.89942ZM5.09767 8.60533L4.96908 8.45215H4.96908L5.09767 8.60533ZM5.4217 8.46071L5.44983 8.65873L5.45091 8.65857L5.4217 8.46071ZM9.09267 7.91877L9.12188 8.11663L9.22554 8.10132L9.27197 8.00738L9.09267 7.91877ZM10.7378 4.58975L10.9171 4.67836L10.9178 4.67692L10.7378 4.58975ZM10.9758 4.3243L10.8696 4.15484L10.8696 4.15484L10.9758 4.3243ZM11.6611 4.3243L11.7673 4.15484L11.7673 4.15484L11.6611 4.3243ZM11.8991 4.58975L11.7191 4.67692L11.7198 4.67822L11.8991 4.58975ZM13.5443 7.92523L13.3649 8.0137L13.4114 8.10796L13.5154 8.12313L13.5443 7.92523ZM17.2152 8.46071L17.1863 8.65897L17.1982 8.65999L17.2152 8.46071ZM1.2 11C1.2 5.58761 5.58761 1.2 11 1.2V0.8C5.3667 0.8 0.8 5.3667 0.8 11H1.2ZM11 20.8C5.58761 20.8 1.2 16.4124 1.2 11H0.8C0.8 16.6333 5.3667 21.2 11 21.2V20.8ZM20.8 11C20.8 16.4124 16.4124 20.8 11 20.8V21.2C16.6333 21.2 21.2 16.6333 21.2 11H20.8ZM11 1.2C16.4124 1.2 20.8 5.58761 20.8 11H21.2C21.2 5.3667 16.6333 0.8 11 0.8V1.2ZM17.9591 8.8277C17.9058 8.6731 17.8087 8.53732 17.6797 8.43681L17.4338 8.75235C17.5018 8.80529 17.5529 8.87681 17.581 8.95824L17.9591 8.8277ZM17.953 9.31177C18.0009 9.15917 18.0045 8.99612 17.9634 8.84157L17.5768 8.94438C17.5985 9.02577 17.5966 9.11166 17.5713 9.19204L17.953 9.31177ZM17.6929 9.70363C17.8149 9.60025 17.9051 9.46436 17.953 9.31178L17.5713 9.19203C17.5461 9.27241 17.4986 9.34398 17.4344 9.39843L17.6929 9.70363ZM15.0383 12.2753L17.7028 9.69469L17.4245 9.40736L14.76 11.988L15.0383 12.2753ZM15.7413 15.7615L15.0961 12.097L14.7021 12.1664L15.3473 15.8309L15.7413 15.7615ZM15.6952 16.2308C15.7551 16.081 15.7709 15.9172 15.7407 15.7588L15.3478 15.8336C15.3637 15.9171 15.3554 16.0033 15.3238 16.0822L15.6952 16.2308ZM15.4027 16.6039C15.5338 16.51 15.6353 16.3805 15.6952 16.2308L15.3238 16.0822C15.2923 16.1611 15.2388 16.2293 15.1697 16.2788L15.4027 16.6039ZM14.9049 16.7639C15.0839 16.7646 15.2585 16.7083 15.4035 16.6034L15.1689 16.2794C15.0925 16.3347 15.0006 16.3643 14.9063 16.3639L14.9049 16.7639ZM14.5105 16.6607C14.6313 16.7288 14.7676 16.7644 14.9062 16.7639L14.9049 16.3639C14.8356 16.3642 14.7674 16.3464 14.7071 16.3123L14.5105 16.6607ZM11.2257 14.9411L14.516 16.6637L14.7016 16.3093L11.4112 14.5867L11.2257 14.9411ZM8.12091 16.6637L11.4112 14.9411L11.2257 14.5867L7.93539 16.3093L8.12091 16.6637ZM7.66034 16.7686C7.82291 16.7783 7.98482 16.7408 8.12659 16.6606L7.92971 16.3124C7.85504 16.3546 7.76976 16.3744 7.68413 16.3693L7.66034 16.7686ZM7.21021 16.606C7.34146 16.7024 7.49777 16.7589 7.66034 16.7686L7.68413 16.3693C7.5985 16.3642 7.51616 16.3344 7.44704 16.2837L7.21021 16.606ZM6.92053 16.225C6.97837 16.3773 7.07896 16.5096 7.2102 16.606L7.44705 16.2837C7.37791 16.2329 7.32492 16.1632 7.29446 16.083L6.92053 16.225ZM6.8842 15.7478C6.85008 15.9071 6.8627 16.0728 6.92053 16.225L7.29446 16.083C7.264 16.0028 7.25735 15.9155 7.27533 15.8316L6.8842 15.7478ZM7.52796 12.0905L6.88279 15.7551L7.27674 15.8244L7.9219 12.1599L7.52796 12.0905ZM4.92127 9.68824L7.58578 12.2689L7.86407 11.9816L5.19955 9.40092L4.92127 9.68824ZM4.69621 9.2929C4.73343 9.44178 4.8105 9.57773 4.91913 9.68615L5.20169 9.40302C5.14446 9.34591 5.10387 9.27429 5.08426 9.19588L4.69621 9.2929ZM4.70785 8.84099C4.66301 8.98777 4.65898 9.14399 4.69621 9.29289L5.08426 9.19588C5.06466 9.11745 5.06678 9.03516 5.09039 8.95785L4.70785 8.84099ZM4.96908 8.45215C4.84807 8.55373 4.75796 8.68721 4.70898 8.83741L5.08926 8.96143C5.11507 8.88231 5.16253 8.81201 5.22626 8.75851L4.96908 8.45215ZM5.39357 8.2627C5.23713 8.28492 5.09007 8.35057 4.96908 8.45215L5.22626 8.75851C5.29 8.705 5.36746 8.67043 5.44983 8.65873L5.39357 8.2627ZM9.06346 7.72092L5.39249 8.26286L5.45091 8.65857L9.12188 8.11663L9.06346 7.72092ZM10.5585 4.50114L8.91337 7.83016L9.27197 8.00738L10.9171 4.67835L10.5585 4.50114ZM10.8696 4.15484C10.7351 4.23917 10.627 4.35967 10.5578 4.50257L10.9178 4.67692C10.9543 4.60165 11.0112 4.53818 11.0821 4.49376L10.8696 4.15484ZM11.3185 4.0258C11.1597 4.0258 11.0041 4.07052 10.8696 4.15484L11.082 4.49377C11.1529 4.44936 11.2348 4.4258 11.3185 4.4258V4.0258ZM11.7673 4.15484C11.6328 4.07052 11.4772 4.0258 11.3185 4.0258V4.4258C11.4021 4.4258 11.484 4.44936 11.5549 4.49377L11.7673 4.15484ZM12.0791 4.50257C12.0099 4.35967 11.9019 4.23917 11.7673 4.15484L11.5549 4.49376C11.6258 4.53818 11.6827 4.60165 11.7191 4.67692L12.0791 4.50257ZM13.7236 7.83676L12.0785 4.50128L11.7198 4.67822L13.3649 8.0137L13.7236 7.83676ZM17.2441 8.26281L13.5731 7.72732L13.5154 8.12313L17.1864 8.65862L17.2441 8.26281ZM17.6797 8.43681C17.5506 8.33629 17.3952 8.27538 17.2323 8.26144L17.1982 8.65999C17.284 8.66733 17.3659 8.69941 17.4338 8.75235L17.6797 8.43681Z" fill="#1B3DC6" mask="url(#path-1-outside-1_542_2091)"/>
</svg>
