<svg width="44" height="40" viewBox="0 0 44 40" fill="none" xmlns="http://www.w3.org/2000/svg">
<path d="M32.125 0.593783C30.5729 0.587874 29.035 0.890674 27.601 1.48457C26.167 2.07846 24.8654 2.95159 23.7719 4.05316L21.8102 6.01488C20.4297 3.86843 18.3912 2.22678 15.9998 1.33563C13.6085 0.444477 10.9928 0.351753 8.54429 1.07134C6.09581 1.79092 3.94621 3.28411 2.41723 5.32742C0.888249 7.37072 0.062124 9.85425 0.0625001 12.4063C0.0625001 18.6078 3.71172 25.0203 10.8836 31.4961C14.1853 34.4404 17.7672 37.0544 21.5781 39.3008C21.7082 39.3692 21.853 39.4049 22 39.4049C22.147 39.4049 22.2918 39.3692 22.4219 39.3008C26.2328 37.0544 29.8147 34.4404 33.1164 31.4961C40.2883 25.0203 43.9375 18.6078 43.9375 12.4063C43.9375 9.27341 42.693 6.26886 40.4777 4.05358C38.2624 1.83831 35.2579 0.593783 32.125 0.593783ZM22 37.5922C19.0891 35.8414 1.75 24.9993 1.75 12.4063C1.74817 10.1863 2.47597 8.02731 3.8214 6.26153C5.16683 4.49575 7.0553 3.22109 9.19613 2.63373C11.337 2.04638 13.6115 2.1789 15.6696 3.01089C17.7278 3.84289 19.4555 5.32823 20.5867 7.23831L17.0219 10.8032C16.9422 10.8817 16.8788 10.9753 16.8356 11.0785C16.7924 11.1817 16.7702 11.2924 16.7702 11.4043C16.7702 11.5162 16.7924 11.627 16.8356 11.7302C16.8788 11.8334 16.9422 11.927 17.0219 12.0055L23.1813 18.1438L20.3969 20.9282C20.3172 21.0067 20.2538 21.1002 20.2106 21.2035C20.1674 21.3067 20.1452 21.4174 20.1452 21.5293C20.1452 21.6412 20.1674 21.752 20.2106 21.8552C20.2538 21.9584 20.3172 22.052 20.3969 22.1305C20.5606 22.2817 20.7752 22.3657 20.998 22.3657C21.2209 22.3657 21.4355 22.2817 21.5992 22.1305L24.9742 18.7555C25.1254 18.5918 25.2094 18.3772 25.2094 18.1543C25.2094 17.9315 25.1254 17.7168 24.9742 17.5532L18.8148 11.3938L22.2109 7.99769H22.232L24.9742 5.2766C25.9067 4.3264 27.0195 3.572 28.2475 3.05764C29.4754 2.54329 30.7937 2.27934 32.125 2.28128C34.8103 2.28128 37.3857 3.34802 39.2845 5.24683C41.1833 7.14563 42.25 9.72097 42.25 12.4063C42.25 24.9993 24.9109 35.8414 22 37.5922Z" fill="#FF385C" fill-opacity="0.3"/>
</svg>
