<svg width="19" height="20" viewBox="0 0 19 20" fill="none" xmlns="http://www.w3.org/2000/svg">
<path fill-rule="evenodd" clip-rule="evenodd" d="M6.03383 4.93591L4.5262 2.88005C4.42367 2.74024 4.22993 2.70461 4.08437 2.79879C2.11195 4.07507 1.56975 6.02467 2.36108 7.46187C3.22651 9.03364 4.56127 10.9612 6.60863 13.0086C8.656 15.056 10.5836 16.3907 12.1554 17.2562C13.5926 18.0475 15.5422 17.5053 16.8184 15.5329C16.9126 15.3873 16.877 15.1936 16.7372 15.091L14.6813 13.5834C14.379 13.3617 13.9781 13.3277 13.6427 13.4954L12.8233 13.9051C12.1263 14.2536 11.1709 14.376 10.2665 13.9107C9.66179 13.5997 8.72984 13.0085 7.66929 11.9479C6.60874 10.8874 6.01758 9.95544 5.7065 9.35078C5.24121 8.44635 5.36364 7.49092 5.71213 6.79394L6.12185 5.97449C6.28952 5.63917 6.25554 5.23823 6.03383 4.93591ZM2.99787 1.11965C0.457357 2.76351 -0.850401 5.77579 0.609098 8.42652C1.56162 10.1565 3.00846 12.2369 5.19442 14.4228C7.38038 16.6088 9.46075 18.0556 11.1907 19.0081C13.8414 20.4676 16.8537 19.1599 18.4976 16.6194C19.1672 15.5845 18.9139 14.2071 17.9199 13.4782L15.8641 11.9706C14.9571 11.3055 13.7543 11.2035 12.7483 11.7065L11.9289 12.1163C11.6916 12.2349 11.4172 12.2536 11.1814 12.1323C10.7517 11.9112 9.9903 11.4405 9.08351 10.5337C8.17671 9.62693 7.70599 8.8655 7.48495 8.43583C7.36362 8.19999 7.38237 7.92559 7.50098 7.68837L7.91071 6.86892C8.41369 5.86295 8.31175 4.66015 7.64664 3.75319L6.13901 1.69732C5.41012 0.703375 4.03269 0.450062 2.99787 1.11965Z" fill="#F0EEFF"/>
</svg>
