<svg  viewBox="0 0 60 60" fill="none" xmlns="http://www.w3.org/2000/svg">
<circle cx="30" cy="30" r="30" fill="#CCF005"/>
<path d="M34.332 31.332C34.332 33.542 32.542 35.332 30.332 35.332C28.122 35.332 26.332 33.542 26.332 31.332C26.332 29.122 28.122 27.332 30.332 27.332C32.542 27.332 34.332 29.122 34.332 31.332Z" fill="black"/>
<path d="M41 20.664H36.773L35.117 18.867C34.8691 18.5942 34.567 18.3762 34.23 18.2269C33.893 18.0776 33.5286 18.0003 33.16 18H27.504C26.758 18 26.039 18.32 25.531 18.867L23.892 20.664H19.664C18.9577 20.6672 18.2814 20.9494 17.7824 21.4492C17.2833 21.949 17.0021 22.6257 17 23.332V39.332C17 40.797 18.2 42 19.664 42H41C41.7063 41.9968 42.3826 41.7146 42.8816 41.2148C43.3807 40.715 43.6619 40.0383 43.664 39.332V23.332C43.664 21.867 42.464 20.664 41 20.664ZM30.332 38C28.5639 37.9989 26.8684 37.2961 25.6182 36.0458C24.3679 34.7956 23.6651 33.1001 23.664 31.332C23.6651 29.5639 24.3679 27.8684 25.6182 26.6182C26.8684 25.3679 28.5639 24.6651 30.332 24.664C32.1001 24.6651 33.7956 25.3679 35.0458 26.6182C36.2961 27.8684 36.9989 29.5639 37 31.332C36.9989 33.1001 36.2961 34.7956 35.0458 36.0458C33.7956 37.2961 32.1001 37.9989 30.332 38Z" fill="black"/>
</svg>
