<svg xmlns="http://www.w3.org/2000/svg" width="32" height="32">
    <path style="stroke:none;fill-rule:nonzero;fill:#000;fill-opacity:1" d="M20 16c0 2.21-1.79 4-4 4s-4-1.79-4-4 1.79-4 4-4 4 1.79 4 4Zm0 0"/>
    <path style="stroke:none;fill-rule:nonzero;fill:#000;fill-opacity:1" d="M26.668 5.332h-4.227l-1.656-1.797a2.647 2.647 0 0 0-1.957-.867h-5.656c-.746 0-1.465.32-1.973.867L9.56 5.332H5.332A2.676 2.676 0 0 0 2.668 8v16c0 1.465 1.2 2.668 2.664 2.668h21.336A2.676 2.676 0 0 0 29.332 24V8c0-1.465-1.2-2.668-2.664-2.668ZM16 22.668A6.672 6.672 0 0 1 9.332 16 6.672 6.672 0 0 1 16 9.332 6.672 6.672 0 0 1 22.668 16 6.672 6.672 0 0 1 16 22.668Zm0 0"/>
</svg>
