<svg viewBox="0 0 52 52" fill="none" xmlns="http://www.w3.org/2000/svg">
<circle cx="26" cy="26" r="26" fill="#CCF005"/>
<path d="M14 18C14 16.3425 15.3425 15 17 15H35C36.6575 15 38 16.3425 38 18V30C38 31.6575 36.6575 33 35 33H31.25C30.7782 33 30.3328 33.2227 30.0485 33.6L27.2015 37.4002C27.0613 37.5862 26.8798 37.7371 26.6712 37.8408C26.4627 37.9446 26.2329 37.9984 26 37.998C25.7671 37.9984 25.5373 37.9446 25.3288 37.8408C25.1202 37.7371 24.9387 37.5862 24.7985 37.4002L21.9515 33.6007C21.8115 33.4143 21.6301 33.263 21.4216 33.1588C21.213 33.0545 20.9831 33.0001 20.75 33H17C15.3425 33 14 31.6575 14 30V18ZM19.25 19.5C18.8375 19.5 18.5 19.8375 18.5 20.25C18.5 20.6625 18.8375 21 19.25 21H32.75C33.1625 21 33.5 20.6625 33.5 20.25C33.5 19.8375 33.1625 19.5 32.75 19.5H19.25ZM19.25 23.25C18.8375 23.25 18.5 23.5875 18.5 24C18.5 24.4125 18.8375 24.75 19.25 24.75H32.75C33.1625 24.75 33.5 24.4125 33.5 24C33.5 23.5875 33.1625 23.25 32.75 23.25H19.25ZM19.25 27C18.8375 27 18.5 27.3375 18.5 27.75C18.5 28.1625 18.8375 28.5 19.25 28.5H26.75C27.1625 28.5 27.5 28.1625 27.5 27.75C27.5 27.3375 27.1625 27 26.75 27H19.25Z" fill="black"/>
</svg>
