<svg xmlns="http://www.w3.org/2000/svg" width="32" height="32">
    <path style="stroke:none;fill-rule:nonzero;fill:#000;fill-opacity:1" d="M16 2.668C8.64 2.668 2.668 8.641 2.668 16c0 7.36 5.973 13.332 13.332 13.332 7.36 0 13.332-5.973 13.332-13.332 0-7.36-5.973-13.332-13.332-13.332Zm0 22c-1.105 0-2-.895-2-2h4c0 1.105-.895 2-2 2Zm6.668-3.336H9.332V20l1.336-1.332v-3.48c0-2.829 1.371-5.227 4-5.856v-.664c0-.762.57-1.336 1.332-1.336.762 0 1.332.574 1.332 1.336v.664c2.629.629 4 3.043 4 5.855v3.481L22.668 20Zm0 0"/>
</svg>
