<svg width="20" height="20" viewBox="0 0 20 20" fill="none" xmlns="http://www.w3.org/2000/svg">
<path d="M9.8389 17.7786C9.67336 17.7776 9.51012 17.7397 9.36113 17.6675C9.19121 17.5674 9.05533 17.4185 8.97112 17.2402C8.88691 17.0619 8.85826 16.8623 8.8889 16.6675V12.9453L2.87224 17.5453C2.71252 17.6717 2.52025 17.7503 2.3177 17.772C2.11514 17.7936 1.91061 17.7574 1.72779 17.6675C1.54183 17.5751 1.38548 17.4324 1.27648 17.2557C1.16748 17.0789 1.1102 16.8752 1.11113 16.6675V3.33418C1.1102 3.12652 1.16748 2.92276 1.27648 2.74601C1.38548 2.56926 1.54183 2.42659 1.72779 2.33418C1.91044 2.24366 2.11511 2.20707 2.3178 2.22872C2.5205 2.25037 2.71283 2.32935 2.87224 2.4564L8.8889 7.05085V3.33418C8.85944 3.14023 8.88866 2.9419 8.97281 2.76468C9.05696 2.58747 9.1922 2.43948 9.36113 2.33974C9.54377 2.24921 9.74844 2.21263 9.95114 2.23428C10.1538 2.25592 10.3462 2.3349 10.5056 2.46196L19.0167 9.12863C19.1495 9.23256 19.2569 9.36536 19.3307 9.51696C19.4046 9.66856 19.443 9.83499 19.443 10.0036C19.443 10.1723 19.4046 10.3387 19.3307 10.4903C19.2569 10.6419 19.1495 10.7747 19.0167 10.8786L10.5056 17.5453C10.3146 17.6935 10.0806 17.7754 9.8389 17.7786Z" fill="#454555" fill-opacity="0.7"/>
</svg>
