<svg width="20" height="20" viewBox="0 0 20 20" fill="none" xmlns="http://www.w3.org/2000/svg">
<path d="M4.44333 9.0009H6.66667V10.9991H4.44333V9.0009ZM20 3.9994V18.0018C20 19.1007 19 20 17.7767 20H2.22333C0.99 20 0 19.0999 0 18.0018L0.0100001 3.9994C0.00901354 3.73711 0.0655168 3.47721 0.176275 3.2346C0.287033 2.99199 0.44987 2.77143 0.655462 2.58554C0.861055 2.39965 1.10536 2.25209 1.3744 2.15131C1.64344 2.05052 1.93192 1.99849 2.22333 1.9982H3.33333V0H5.55667V1.9982H14.4433V0H16.6667V1.9982H17.7767C18.3657 1.99998 18.9301 2.21139 19.3466 2.5863C19.7631 2.96122 19.998 3.4692 20 3.9994ZM2.22333 6.0006H17.7767V3.9994H2.22333V6.0006ZM17.7767 18.0018V7.9988H2.22333V18.0018H17.7767ZM13.3333 10.9991H15.5567V9.0009H13.3333V10.9991ZM8.89 10.9991H11.11V9.0009H8.89V10.9991Z" fill="#BDBDBD"/>
</svg>
