<svg xmlns="http://www.w3.org/2000/svg" width="46" height="46"><path style="line-height:normal;text-indent:0;text-align:start;text-decoration-line:none;text-decoration-style:solid;text-decoration-color:#000;text-transform:none;block-progression:tb;isolation:auto;mix-blend-mode:normal" d="M23 1006.362c12.708 0 23 10.292 23 23 0 12.709-10.292 23-23 23s-23-10.291-23-23c0-12.708 10.292-23 23-23zm6.209 9.58c-.21.01-.423.03-.639.068-.862.153-1.767.556-2.654 1.141-1.668 1.101-3.33 2.887-4.7 5.133-.003 0-.007-.01-.01-.01l-.868-.5-1.006-.582a.5.5 0 0 0-.717.614l.024.061c.04.11.073.222.103.334a3.98 3.98 0 0 1-.402 3.038l-3.475 6.017a.495.495 0 0 0-.027.045l-.498.865a.471.471 0 0 0-.026.043l-.476.824a5 5 0 0 0 1.83 6.83c-.55.953-.22 2.183.732 2.733l.868.5a2.005 2.005 0 0 0 2.755-.777c1.587.632 3.445.034 4.323-1.487a.536.536 0 0 0 .033-.07l.02-.03 3.675-6.368a8.022 8.022 0 0 1 4.227-3.553.5.5 0 0 0 .084-.9l-.864-.51c-.01-.01-.02-.01-.03-.016a8.976 8.976 0 0 0-1.4-.553c.13-.207.265-.407.39-.623 1.414-2.45 2.206-4.955 2.333-7.076.128-2.12-.416-3.942-1.845-4.767a3.273 3.273 0 0 0-1.76-.424zm-.332 1.041-.209.364-.404-.233c.211-.063.415-.104.613-.13zm1.125.06c.164.046.323.108.467.19.144.084.275.19.398.31l-.467.806-.865-.498zm-2.7.673.866.5-.5.865-.865-.5zm4.177.77c.075.185.141.383.193.597l-.404-.232zm-2.444.23.865.5-.5.865-.865-.498zm-3.724.156.126.074-.5.866-.369-.215c.247-.25.493-.51.743-.727zm.992.577.865.5-.5.865-.865-.5zm4.465.267.865.5-.5.867-.865-.5zm-6.905.633.575.332-.5.865-.71-.408c.21-.271.42-.54.635-.79zm4.172.1.865.5-.5.865-.865-.5zm-2.732.732.865.5-.5.866-.865-.5zm4.465.268.865.5-.5.865-.865-.498zm-7.143.496.813.469-.5.865-.856-.494c.177-.288.357-.569.543-.84zm4.41.236.865.5-.5.866-.865-.5zm4.463.268.127.074c-.063.324-.168.666-.26 1.004l-.367-.213zm-11.744.146.084.05.867.5a3.98 3.98 0 0 1 1.463 5.464l-2.496 4.325-.022.03-1.421 2.463a.518.518 0 0 0-.042.078l-.019.031a.505.505 0 0 0-.043.098 4.985 4.985 0 0 0-.215 4.373l-1.742-1.005a3.98 3.98 0 0 1-1.463-5.465l.5-.867.5-.866.004-.012 3.496-6.054c.573-.992.687-2.09.549-3.143zm4.549.319.865.5-.5.865-.865-.5zm4.465.267.865.5-.5.866-.865-.5zm-2.733.733.865.498-.5.867-.865-.5zm4.463.265.574.332c-.107.311-.235.627-.365.944l-.709-.408zm-7.195.465.865.5-.5.867-.018-.01a5.01 5.01 0 0 0-.359-1.338zm4.465.27.865.498-.5.867-.865-.5zm-2.733.73.865.5-.5.867-.865-.5zm4.463.268.813.469c-.143.297-.296.594-.457.892l-.856-.494zm-2.73.732.865.5-.5.867-.865-.5zm-2.733.733.865.5-.5.865-.865-.5zm4.463.267.854.492c-.092.15-.184.299-.278.444a9.165 9.165 0 0 0-.88-.117h-.169zm-2.73.733.32.185c-.156.024-.314.038-.469.07zm-2.733.732.455.264a9.01 9.01 0 0 0-.912.527zm4.32.324c1.24-.016 2.5.258 3.678.848l.11.062c-1.573.763-2.992 1.891-3.934 3.523l-3.676 6.368a.47.47 0 0 0-.045.09l-.008.012a2.483 2.483 0 0 1-3.24.992 3.974 3.974 0 0 1-1.205-5.291l1.528-2.647a8.004 8.004 0 0 1 6.792-3.957zm-10.82 10.934 2.598 1.5a.986.986 0 0 1-1.365.367l-.868-.5a.988.988 0 0 1-.365-1.367z" color="#000" font-family="sans-serif" font-weight="400" overflow="visible" transform="translate(0 -1006.362)"/></svg>