<svg width="24" height="24" viewBox="0 0 24 24" fill="none" xmlns="http://www.w3.org/2000/svg">
<path d="M12 0C18.6303 0 24 5.36977 24 12C24 18.6308 18.6303 24 12 24C5.36974 24 0 18.6308 0 12C0 5.36977 5.36974 0 12 0ZM11.9958 5.20851C11.9616 5.20885 11.9279 5.21595 11.8964 5.2294C11.865 5.24284 11.8365 5.26239 11.8127 5.28688C11.7888 5.31136 11.77 5.34032 11.7574 5.37209C11.7448 5.40386 11.7386 5.4378 11.7391 5.47199V7.13427C11.4937 6.81701 11.1788 6.56026 10.8187 6.38379C10.4585 6.20732 10.0626 6.11585 9.66156 6.11636C9.30835 6.11114 9.30835 6.64332 9.66156 6.6381C10.703 6.6381 11.5523 7.37373 11.7094 8.33582H10.6607C10.3143 8.33582 9.98504 8.46784 9.74243 8.69114C9.50087 8.91444 9.34435 9.24889 9.39965 9.60941L10.7384 18.36C10.9294 19.6111 13.1113 19.6315 13.2626 18.3506L14.6003 9.60832C14.6557 9.24728 14.4997 8.91339 14.257 8.69009C14.0062 8.46086 13.6786 8.33391 13.3388 8.33426H12.2953C12.4539 7.368 13.3064 6.6381 14.3426 6.6381C14.6953 6.64332 14.6953 6.11114 14.3426 6.11636C13.9414 6.11492 13.5451 6.20538 13.1843 6.38083C12.8234 6.55628 12.5075 6.81207 12.2609 7.12853V5.47199C12.2613 5.43711 12.2547 5.40253 12.2415 5.37024C12.2284 5.33795 12.2088 5.30862 12.1841 5.28401C12.1594 5.2594 12.13 5.24 12.0977 5.22694C12.0653 5.21389 12.0307 5.20744 11.9958 5.208V5.20851ZM10.6612 8.85756H13.3388C13.5485 8.85756 13.7624 8.94523 13.9033 9.07566C14.0447 9.2061 14.1115 9.35844 14.0849 9.53113L13.9482 10.4259H12V10.9476H13.8678L13.6283 12.5129H12V13.0346H13.549L13.309 14.5998H12V15.1215H13.2287L12.9892 16.6868H12V17.2085H12.9099L12.7461 18.2802L12.745 18.2885C12.6668 18.9579 11.3499 18.9079 11.2539 18.2802L9.91513 9.53062C9.88904 9.35845 9.9553 9.20557 10.0967 9.07566C10.2376 8.94523 10.4515 8.85756 10.6612 8.85756Z" fill="#CCCCCC"/>
</svg>
