<svg width="8" height="8" viewBox="0 0 8 8" fill="none" xmlns="http://www.w3.org/2000/svg">
<path d="M0.975487 0.167367C0.752331 -0.0557891 0.390524 -0.0557892 0.167367 0.167367C-0.055789 0.390524 -0.0557891 0.752332 0.167367 0.975489L3.19188 4.00001L0.167384 7.02451C-0.0557725 7.24766 -0.0557725 7.60947 0.167384 7.83263C0.39054 8.05578 0.752348 8.05578 0.975504 7.83263L4 4.80813L7.0245 7.83263C7.24765 8.05579 7.60946 8.05579 7.83262 7.83263C8.05577 7.60948 8.05577 7.24767 7.83262 7.02451L4.80812 4.00001L7.83263 0.97549C8.05579 0.752333 8.05579 0.390525 7.83263 0.167368C7.60948 -0.0557884 7.24767 -0.0557882 7.02451 0.167368L4 3.19189L0.975487 0.167367Z" fill="white"/>
</svg>
