<svg width="24" height="24" viewBox="0 0 24 24" fill="none" xmlns="http://www.w3.org/2000/svg">
<path d="M12 0C18.6303 0 24 5.36977 24 12C24 18.6308 18.6303 24 12 24C5.36974 24 0 18.6308 0 12C0 5.36977 5.36974 0 12 0ZM15.2395 4.99827C15.1299 5.00349 15.0188 5.01392 14.9061 5.03374C14.4563 5.11357 13.9842 5.32383 13.5214 5.62904C12.6511 6.20348 11.784 7.1353 11.0692 8.30713C11.0677 8.30713 11.0656 8.30191 11.064 8.30191L10.6111 8.04104L10.0863 7.7374C10.0395 7.71022 9.98541 7.69825 9.93153 7.70317C9.87765 7.70808 9.82663 7.72963 9.78553 7.76482C9.74444 7.80001 9.71531 7.8471 9.70216 7.89958C9.68902 7.95207 9.69252 8.00735 9.71217 8.05776L9.7247 8.08957C9.74557 8.14696 9.76278 8.20539 9.77843 8.26382C9.84995 8.52877 9.86823 8.80529 9.83223 9.07735C9.79623 9.34941 9.70666 9.61164 9.5687 9.84888L7.75565 12.9882C7.75054 12.9957 7.74584 13.0036 7.74157 13.0117L7.48174 13.463C7.47682 13.4702 7.47229 13.4777 7.46817 13.4854L7.21983 13.9153C6.87391 14.5144 6.78016 15.2265 6.95922 15.8948C7.13828 16.5631 7.57546 17.1329 8.17461 17.4788C7.88765 17.976 8.05983 18.6177 8.55652 18.9047L9.00939 19.1655C9.13006 19.2346 9.2633 19.279 9.40132 19.296C9.53933 19.313 9.67935 19.3023 9.81318 19.2646C9.94702 19.2268 10.072 19.1628 10.1808 19.0762C10.2896 18.9896 10.38 18.8821 10.4468 18.7602C11.2748 19.0899 12.2442 18.7779 12.7023 17.9844C12.7089 17.9726 12.7146 17.9604 12.7195 17.9478L12.7299 17.9322L14.6473 14.6097C15.1399 13.7503 15.9214 13.0935 16.8527 12.756C16.8991 12.7391 16.9398 12.7094 16.97 12.6703C17.0002 12.6312 17.0187 12.5843 17.0233 12.5351C17.0278 12.4859 17.0184 12.4364 16.9959 12.3924C16.9735 12.3484 16.939 12.3116 16.8965 12.2864L16.4457 12.0203C16.4405 12.0151 16.4353 12.0151 16.4301 12.012C16.1951 11.8955 15.9508 11.799 15.6997 11.7235C15.7675 11.6155 15.8379 11.5111 15.9031 11.3984C16.6409 10.1202 17.0541 8.81322 17.1203 7.70661C17.1871 6.60052 16.9033 5.64993 16.1577 5.21949C15.8785 5.06089 15.5603 4.98421 15.2395 4.99827ZM15.0663 5.54138L14.9572 5.7313L14.7464 5.60975C14.8565 5.57688 14.963 5.55548 15.0663 5.54192V5.54138ZM15.6532 5.57271C15.7388 5.59671 15.8217 5.62903 15.8969 5.67181C15.972 5.71564 16.0403 5.77097 16.1045 5.83358L15.8609 6.25409L15.4096 5.99427L15.6532 5.57271ZM14.2445 5.92383L14.6963 6.1847L14.4355 6.636L13.9842 6.37513L14.2445 5.92383ZM16.4238 6.32558C16.463 6.4221 16.4974 6.5254 16.5245 6.63705L16.3137 6.51601L16.4238 6.32558ZM15.1487 6.44557L15.6 6.70644L15.3391 7.15774L14.8878 6.89792L15.1487 6.44557ZM13.2057 6.52696L13.2715 6.56556L13.0106 7.0174L12.8181 6.90521C12.947 6.77478 13.0753 6.63913 13.2057 6.52591V6.52696ZM13.7233 6.82799L14.1746 7.08886L13.9137 7.54019L13.4624 7.27932L13.7233 6.82799ZM16.0529 6.96731L16.5042 7.22818L16.2433 7.68053L15.792 7.41966L16.0529 6.96731ZM12.4503 7.29756L12.7503 7.4708L12.4894 7.9221L12.119 7.70922C12.2285 7.56783 12.3381 7.42749 12.4503 7.29706V7.29756ZM14.627 7.34973L15.0783 7.6106L14.8174 8.06193L14.3661 7.80106L14.627 7.34973ZM13.2016 7.73167L13.6529 7.99254L13.392 8.44435L12.9407 8.18348L13.2016 7.73167ZM15.5311 7.87147L15.9824 8.13233L15.7216 8.58367L15.2703 8.32382L15.5311 7.87147ZM11.8043 8.13027L12.2285 8.37496L11.9677 8.82626L11.521 8.56851C11.6134 8.41825 11.7073 8.27166 11.8043 8.13027ZM14.1052 8.25341L14.5565 8.51428L14.2957 8.96609L13.8443 8.70522L14.1052 8.25341ZM16.4337 8.3932L16.5 8.43183C16.4671 8.60087 16.4123 8.77929 16.3643 8.95564L16.1729 8.84454L16.4337 8.3932ZM10.3064 8.46938L10.3503 8.49549L10.8026 8.75636C11.0409 8.89243 11.2499 9.07439 11.4175 9.29173C11.585 9.50906 11.7079 9.75747 11.7788 10.0226C11.8498 10.2876 11.8675 10.5641 11.831 10.8361C11.7944 11.1081 11.7044 11.3702 11.5659 11.6071L10.2637 13.8636L10.2522 13.8793L9.51078 15.1643C9.50233 15.1773 9.495 15.1909 9.48887 15.205L9.47896 15.2212C9.46969 15.2374 9.46217 15.2546 9.45652 15.2724C9.26542 15.6191 9.15599 16.0048 9.13655 16.4002C9.11711 16.7956 9.18818 17.1901 9.34435 17.5539L8.43548 17.0295C8.19709 16.8935 7.98805 16.7115 7.82044 16.4941C7.65283 16.2767 7.52998 16.0283 7.459 15.7632C7.38802 15.498 7.37031 15.2214 7.4069 14.9493C7.44349 14.6773 7.53365 14.4152 7.67217 14.1783L7.93304 13.7259L8.19391 13.2741L8.196 13.2678L10.02 10.1092C10.319 9.59167 10.3784 9.01877 10.3064 8.46938ZM12.6798 8.63583L13.1311 8.8967L12.8703 9.34803L12.419 9.08713L12.6798 8.63583ZM15.0094 8.77515L15.4607 9.03602L15.1998 9.48782L14.7485 9.22696L15.0094 8.77515ZM13.5835 9.15757L14.0348 9.41739L13.7739 9.86977L13.3226 9.6089L13.5835 9.15757ZM15.912 9.2958L16.2115 9.46904C16.1557 9.6313 16.0889 9.79615 16.021 9.96154L15.6511 9.74869L15.912 9.2958ZM12.1581 9.53846L12.6094 9.79933L12.3485 10.2516L12.3391 10.2464C12.3093 10.0062 12.2463 9.77123 12.1518 9.54833L12.1581 9.53846ZM14.4877 9.67927L14.939 9.93912L14.6781 10.3915L14.2268 10.1306L14.4877 9.67927ZM13.0617 10.0602L13.513 10.3211L13.2522 10.7734L12.8009 10.5125L13.0617 10.0602ZM15.3903 10.2L15.8144 10.4447C15.7398 10.5996 15.66 10.7546 15.576 10.9101L15.1294 10.6524L15.3903 10.2ZM13.9659 10.5819L14.4172 10.8428L14.1563 11.2951L13.705 11.0343L13.9659 10.5819ZM12.54 10.9643L12.9913 11.2252L12.7304 11.6765L12.2791 11.4156L12.54 10.9643ZM14.8685 11.1037L15.3141 11.3603C15.2661 11.4386 15.2181 11.5163 15.169 11.592C15.0171 11.5642 14.8639 11.5439 14.7099 11.531H14.6217L14.8685 11.1037ZM13.4442 11.4861L13.6111 11.5826C13.5297 11.5951 13.4473 11.6024 13.3664 11.6191L13.4442 11.4861ZM12.0183 11.868L12.2557 12.0058C12.0918 12.0881 11.9329 12.1799 11.7798 12.2807L12.0183 11.868ZM14.2722 12.037C14.9191 12.0287 15.5765 12.1717 16.1911 12.4795L16.2485 12.5118C15.4278 12.9099 14.6875 13.4984 14.196 14.3499L12.2781 17.6724C12.2686 17.6871 12.2607 17.7028 12.2546 17.7193L12.2504 17.7256C12.0866 18.0099 11.821 18.2215 11.5072 18.3175C11.1935 18.4136 10.8549 18.387 10.56 18.2431C10.1248 17.9484 9.81785 17.4993 9.70113 16.9869C9.58442 16.4744 9.66669 15.9367 9.9313 15.4826L10.7285 14.1016C11.0917 13.4817 11.6087 12.966 12.2295 12.6043C12.8502 12.2427 13.5538 12.0473 14.2722 12.037ZM8.62696 17.7417L9.98243 18.5243C9.94893 18.5844 9.90374 18.6371 9.84952 18.6793C9.79531 18.7216 9.73317 18.7526 9.66678 18.7705C9.60039 18.7883 9.53109 18.7927 9.46299 18.7833C9.39488 18.7739 9.32935 18.751 9.27026 18.7158L8.81739 18.455C8.75741 18.4213 8.70478 18.3759 8.6626 18.3215C8.62042 18.2672 8.58955 18.205 8.5718 18.1385C8.55405 18.072 8.54979 18.0027 8.55926 17.9346C8.56874 17.8664 8.59175 17.8008 8.62696 17.7417Z" fill="#CCCCCC"/>
</svg>
