<svg width="24" height="25" viewBox="0 0 24 25" xmlns="http://www.w3.org/2000/svg">
<path fill-rule="evenodd" clip-rule="evenodd" d="M5 22.126C3.34315 22.126 2 20.7829 2 19.126V11.4621C2 10.6116 2.36096 9.80115 2.99311 9.23223L9.9931 2.93223C11.134 1.9054 12.866 1.9054 14.0069 2.93223L21.0069 9.23223C21.639 9.80115 22 10.6116 22 11.4621V19.126C22 20.7829 20.6569 22.126 19 22.126H5ZM20 11.4621V19.126C20 19.6783 19.5523 20.126 19 20.126H16V15.126C16 13.4692 14.6569 12.126 13 12.126H11C9.34315 12.126 8 13.4692 8 15.126V20.126H5C4.44772 20.126 4 19.6783 4 19.126V11.4621C4 11.1786 4.12032 10.9085 4.33104 10.7188L11.331 4.41882C11.7113 4.07654 12.2887 4.07654 12.669 4.41881L19.669 10.7188C19.8797 10.9085 20 11.1786 20 11.4621ZM10 20.126V15.126C10 14.5737 10.4477 14.126 11 14.126H13C13.5523 14.126 14 14.5737 14 15.126V20.126H10Z" />
</svg>
