<svg width="17" height="18" viewBox="0 0 17 18" fill="none" xmlns="http://www.w3.org/2000/svg">
<path d="M14.4691 6.81055C14.4691 6.81055 13.9995 12.6356 13.727 15.0894C13.5973 16.2613 12.8734 16.948 11.6876 16.9697C9.43107 17.0103 7.17195 17.0129 4.91629 16.9653C3.77548 16.942 3.06367 16.2466 2.93653 15.0954C2.66236 12.6201 2.19531 6.81055 2.19531 6.81055" stroke="#DE3151" stroke-width="1.5" stroke-linecap="round" stroke-linejoin="round"/>
<path d="M15.667 4.01839H1" stroke="#DE3151" stroke-width="1.5" stroke-linecap="round" stroke-linejoin="round"/>
<path d="M12.8391 4.01764C12.1601 4.01764 11.5755 3.53762 11.4423 2.87251L11.2321 1.82079C11.1023 1.33558 10.663 1 10.1622 1H6.50108C6.00031 1 5.56094 1.33558 5.4312 1.82079L5.22103 2.87251C5.08784 3.53762 4.50317 4.01764 3.82422 4.01764" stroke="#DE3151" stroke-width="1.5" stroke-linecap="round" stroke-linejoin="round"/>
</svg>
