<svg width="67" height="67" viewBox="0 0 67 67" fill="none" xmlns="http://www.w3.org/2000/svg">
<g filter="url(#filter0_d_1260_6143)">
<circle cx="33.5" cy="30.5" r="28.5" fill="white"/>
<circle cx="33.5" cy="30.5" r="28.25" stroke="#EBEBEB" stroke-opacity="0.2" stroke-width="0.5"/>
</g>
<path d="M20.7144 28.5999L25.8144 38.4999L35.3144 34.5999L39.7144 21.8999L24.9144 22.6999L20.7144 28.5999Z" fill="#E69329"/>
<path d="M24.0144 50.7999C28.3222 50.7999 31.8144 47.3078 31.8144 43C31.8144 38.6921 28.3222 35.2 24.0144 35.2C19.7065 35.2 16.2144 38.6921 16.2144 43C16.2144 47.3078 19.7065 50.7999 24.0144 50.7999Z" fill="#546E7A"/>
<path d="M24.0144 34C19.0144 34 15.0144 38 15.0144 43C15.0144 48 19.0144 52 24.0144 52C29.0144 52 33.0144 48 33.0144 43C33.0144 38 29.0144 34 24.0144 34ZM24.0144 50C20.1144 50 17.0144 46.9 17.0144 43C17.0144 39.1 20.1144 36 24.0144 36C27.9144 36 31.0144 39.1 31.0144 43C31.0144 46.9 27.9144 50 24.0144 50Z" fill="#90A4AE"/>
<path d="M23.0144 40H25.0144V48H23.0144V40Z" fill="#90A4AE"/>
<path d="M21.9144 43C22.9144 44.9 25.1144 45.7 27.0144 44.7L43.5144 36.2C44.5144 35.7 45.2144 35 45.7144 34.3C47.4144 31.1 51.3144 23.6 53.9144 17.1L35.7144 25.8L30.9144 33L24.1144 36.6C21.5144 37.9 20.7144 40.8 21.9144 43Z" fill="#FFB74D"/>
<path d="M39.2144 10L22.7144 16.3C22.0144 16.5 21.2144 17.3 20.5144 18L14.9144 25.5C13.9144 27 13.7144 28.9 14.4144 30.6C14.8144 31.6 16.1144 34 17.5144 36.7C19.1144 35 21.4144 34 24.0144 34C24.4144 34 24.9144 34 25.3144 34.1L23.2144 29.9L27.8144 25.8H35.8144C35.8144 25.8 51.3144 23.6 54.0144 17.1L39.2144 10Z" fill="#FFB74D"/>
<path d="M27.2144 43C25.9144 43.6 24.4144 43 23.9144 41.7C23.3144 40.4 23.9144 38.9 25.2144 38.4C26.4144 37.8 28.4144 42.4 27.2144 43Z" fill="#FFCDD2"/>
<defs>
<filter id="filter0_d_1260_6143" x="0" y="0" width="67" height="67" filterUnits="userSpaceOnUse" color-interpolation-filters="sRGB">
<feFlood flood-opacity="0" result="BackgroundImageFix"/>
<feColorMatrix in="SourceAlpha" type="matrix" values="0 0 0 0 0 0 0 0 0 0 0 0 0 0 0 0 0 0 127 0" result="hardAlpha"/>
<feOffset dy="3"/>
<feGaussianBlur stdDeviation="2.5"/>
<feComposite in2="hardAlpha" operator="out"/>
<feColorMatrix type="matrix" values="0 0 0 0 1 0 0 0 0 0.219608 0 0 0 0 0.360784 0 0 0 0.12 0"/>
<feBlend mode="normal" in2="BackgroundImageFix" result="effect1_dropShadow_1260_6143"/>
<feBlend mode="normal" in="SourceGraphic" in2="effect1_dropShadow_1260_6143" result="shape"/>
</filter>
</defs>
</svg>
