<svg xmlns="http://www.w3.org/2000/svg" width="32" height="32">
    <path style="stroke:none;fill-rule:nonzero;fill:#000;fill-opacity:1" d="M8 25.332C8 26.801 9.2 28 10.668 28h10.664C22.801 28 24 26.8 24 25.332V12c0-1.465-1.2-2.668-2.668-2.668H10.668A2.677 2.677 0 0 0 8 12Zm16-20h-3.332l-.95-.945A1.348 1.348 0 0 0 18.786 4h-5.57c-.348 0-.695.148-.934.387l-.949.945H8c-.734 0-1.332.602-1.332 1.336C6.668 7.398 7.266 8 8 8h16c.734 0 1.332-.602 1.332-1.332 0-.734-.598-1.336-1.332-1.336Zm0 0"/>
</svg>
