<svg  viewBox="0 0 41 41" fill="none" xmlns="http://www.w3.org/2000/svg">
<path d="M20.3955 5.91602C12.1262 5.91602 5.39551 12.6467 5.39551 20.916C5.39551 29.1853 12.1262 35.916 20.3955 35.916C28.6648 35.916 35.3955 29.1853 35.3955 20.916C35.3955 12.6467 28.6648 5.91602 20.3955 5.91602ZM20.3955 8.41602C27.3137 8.41602 32.8955 13.9978 32.8955 20.916C32.8955 27.8342 27.3137 33.416 20.3955 33.416C13.4773 33.416 7.89551 27.8342 7.89551 20.916C7.89551 13.9978 13.4773 8.41602 20.3955 8.41602ZM12.4048 17.4224L10.8862 19.4097C10.8862 19.4097 12.789 20.916 15.3955 20.916C18.0021 20.916 19.9048 19.4097 19.9048 19.4097L18.3862 17.4224C18.3862 17.4224 17.0165 18.416 15.3955 18.416C13.7746 18.416 12.4048 17.4224 12.4048 17.4224ZM22.4048 17.4224L20.8862 19.4097C20.8862 19.4097 22.789 20.916 25.3955 20.916C28.0021 20.916 29.9048 19.4097 29.9048 19.4097L28.3862 17.4224C28.3862 17.4224 27.0165 18.416 25.3955 18.416C23.7746 18.416 22.4048 17.4224 22.4048 17.4224ZM20.3955 24.666C17.789 24.666 15.8862 26.1724 15.8862 26.1724L17.4048 28.1597C17.4048 28.1597 18.7746 27.166 20.3955 27.166C22.0165 27.166 23.3862 28.1597 23.3862 28.1597L24.9048 26.1724C24.9048 26.1724 23.0021 24.666 20.3955 24.666Z" fill="#E0CFBA"/>
</svg>
