<svg width="12" height="7" viewBox="0 0 12 7" fill="none" xmlns="http://www.w3.org/2000/svg">
<path d="M10.6488 3.10874L9.08314 1.54306C9.08314 1.54306 9.04951 1.50831 9.02765 1.47355C8.90628 1.28044 8.99485 0.986134 9.21179 0.896443C9.34157 0.842347 9.49993 0.86449 9.61064 0.95278C9.62606 0.964832 9.62942 0.968757 9.64372 0.982491L11.886 3.22478C11.8913 3.2301 11.8961 3.23543 11.9014 3.24076C11.9143 3.25589 11.9177 3.25925 11.9289 3.27551C12.0275 3.41397 12.0239 3.61662 11.9157 3.75228C11.9034 3.76741 11.8997 3.77106 11.886 3.78535L9.64372 6.02764C9.45312 6.20758 9.1022 6.15265 8.9971 5.89899C8.94356 5.76922 8.96542 5.61057 9.05343 5.50014C9.06605 5.48473 9.06941 5.48136 9.08314 5.46707L10.6488 3.90139L0.393713 3.90139C0.364563 3.89803 0.334292 3.89803 0.305703 3.8913C0.0769896 3.83917 -0.0729635 3.56084 0.0366284 3.33297C0.0884813 3.22562 0.189384 3.1449 0.305423 3.11855C0.334573 3.11182 0.364283 3.11182 0.393993 3.10846L10.6488 3.10874Z" fill="white"/>
</svg>
