<svg width="19" height="20" viewBox="0 0 14 15" fill="none" xmlns="http://www.w3.org/2000/svg">
<path d="M13.4368 13.5595H10.5626C10.5675 13.4128 10.5736 13.267 10.5736 13.119C10.5736 10.0144 9.50189 7.10138 7.53287 4.76763L8.30814 5.01343C8.35924 5.02973 8.41386 5.02708 8.46232 5.0055L8.89136 4.82005L9.04113 5.16672C9.06668 5.22531 9.11601 5.2698 9.1768 5.28918L11.1304 5.90896C11.1524 5.91601 11.1749 5.91909 11.1969 5.91909C11.2471 5.91909 11.2974 5.90147 11.337 5.86887C11.3947 5.8213 11.4242 5.74774 11.4158 5.67373C11.2577 4.30819 9.96529 3.27655 8.39977 3.25364L8.9266 2.9682C8.98122 2.93869 9.02087 2.88759 9.0354 2.82724L9.09531 2.58541L9.38251 2.65633C9.43581 2.66955 9.49176 2.6625 9.53977 2.63607L10.9392 1.87797C11.0049 1.84229 11.048 1.77622 11.0538 1.70133C11.0599 1.62689 11.0273 1.55465 10.9683 1.50928C9.85913 0.663965 8.19053 0.891701 7.08533 2.03831C6.71443 2.42331 6.4444 2.87834 6.28803 3.36157C5.76163 2.34842 4.61722 1.64231 3.33274 1.64231C2.48742 1.64231 1.68616 1.93392 1.07607 2.46295C1.01572 2.51493 0.988853 2.5951 1.00427 2.67263C1.01969 2.75016 1.07607 2.81359 1.15096 2.83826L3.00721 3.45143C3.05919 3.46905 3.11293 3.4664 3.1627 3.44526L3.72081 3.20871L3.91771 3.673C3.94238 3.73158 3.99084 3.77651 4.05119 3.79634L5.32466 4.21701C4.85113 4.42581 4.40843 4.70156 4.02299 5.05395C2.90854 6.07326 2.33721 7.57888 2.49491 9.08141C2.50416 9.17216 2.56847 9.24748 2.65613 9.27127C2.67507 9.27655 2.69446 9.2792 2.71384 9.2792C2.78255 9.2792 2.84907 9.24704 2.89092 9.18978L4.24456 7.3507C4.27231 7.31326 4.28773 7.26745 4.28773 7.22032V6.64018H4.65687C4.72691 6.64018 4.79298 6.6067 4.83395 6.55032L5.34713 5.8539C5.4806 6.17061 5.79467 6.3935 6.15896 6.3935C6.4607 6.3935 6.7272 6.24065 6.88622 6.00851C7.57736 8.03215 7.92755 10.1483 7.92976 12.3239C7.79981 12.2481 7.65092 12.2015 7.4897 12.2015C7.00383 12.2015 6.60871 12.5966 6.60871 13.0824C6.60871 13.2586 6.66201 13.4216 6.75099 13.5595H1.54344C1.42186 13.5595 1.32319 13.6582 1.32319 13.7798C1.32319 13.9013 1.42186 14 1.54344 14H13.4368C13.5584 14 13.6571 13.9013 13.6571 13.7798C13.6571 13.6582 13.5589 13.5595 13.4368 13.5595ZM10.1225 13.5595H8.33237C8.3381 13.4661 8.34294 13.3727 8.34735 13.2789C8.35924 13.2274 8.36541 13.1736 8.36761 13.119H9.03188C9.15346 13.119 9.25213 13.0203 9.25213 12.8988C9.25213 12.7772 9.15346 12.6785 9.03188 12.6785H8.36541C8.36717 12.5679 8.37113 12.4569 8.37113 12.3468C8.37113 12.3103 8.36849 12.2746 8.36849 12.238H9.09399C9.21557 12.238 9.31424 12.1393 9.31424 12.0178C9.31424 11.8962 9.21557 11.7975 9.09399 11.7975H8.35792C8.35395 11.6508 8.35439 11.5033 8.34735 11.357H9.03188C9.15346 11.357 9.25213 11.2583 9.25213 11.1368C9.25213 11.0152 9.15346 10.9165 9.03188 10.9165H8.31563C8.3055 10.7694 8.29713 10.6223 8.28348 10.476H8.80458C8.92616 10.476 9.02483 10.3774 9.02483 10.2558C9.02483 10.1342 8.92616 10.0355 8.80458 10.0355H8.23546C8.21872 9.8884 8.20154 9.74128 8.18172 9.59503H8.59182C8.7134 9.59503 8.81207 9.49636 8.81207 9.37479C8.81207 9.25321 8.7134 9.15454 8.59182 9.15454H8.15133C8.13943 9.15454 8.1293 9.15938 8.11785 9.16114C8.09406 9.01182 8.06763 8.86249 8.04032 8.71404H8.31783C8.43941 8.71404 8.53808 8.61537 8.53808 8.49379C8.53808 8.37222 8.43941 8.27354 8.31783 8.27354H7.95707C7.92667 8.12598 7.89187 7.97973 7.85796 7.83305H8.15089C8.27246 7.83305 8.37113 7.73438 8.37113 7.6128C8.37113 7.49122 8.27246 7.39255 8.15089 7.39255H7.7562C7.71876 7.24498 7.67471 7.09874 7.63418 6.95205H7.71083C7.83241 6.95205 7.93108 6.85338 7.93108 6.73181C7.93108 6.61023 7.83241 6.51156 7.71083 6.51156H7.51217C7.32055 5.88077 7.09722 5.2579 6.84173 4.64429C8.97109 6.96174 10.1336 9.93774 10.1336 13.119C10.1331 13.2666 10.1274 13.4133 10.1225 13.5595ZM8.34735 3.69194C9.54946 3.69194 10.6014 4.40731 10.9035 5.37508L9.40542 4.89978L9.20808 4.44343C9.15962 4.33198 9.02968 4.28088 8.91867 4.3289L8.36321 4.56897L6.95406 4.12186C6.936 4.10336 6.91662 4.0853 6.89855 4.0668L6.9545 4.03641C7.36989 3.81528 7.84738 3.69194 8.34735 3.69194ZM7.40204 2.34402C7.96588 1.7586 8.71736 1.44893 9.42612 1.44893C9.76839 1.44893 10.101 1.52117 10.3974 1.67006L9.40454 2.20791L8.98607 2.10483C8.92968 2.09073 8.86978 2.09998 8.81956 2.13038C8.76978 2.16033 8.73366 2.20923 8.71957 2.26605L8.63059 2.62726L6.74923 3.64657C6.71443 3.66507 6.67963 3.68225 6.64571 3.70207C6.7642 3.20607 7.02498 2.73518 7.40204 2.34402ZM4.28289 3.40958L4.03885 2.83429C4.01639 2.78055 3.97322 2.73782 3.91904 2.7158C3.86486 2.69421 3.80451 2.69465 3.75033 2.71712L3.06579 3.00741L1.6888 2.55237C2.16542 2.24755 2.73542 2.0828 3.33141 2.0828C4.61502 2.0828 5.73476 2.88231 6.05809 3.9624C6.03959 3.96725 6.02065 3.97253 6.00214 3.97738L4.28289 3.40958ZM4.54542 6.19969H4.06748C3.94591 6.19969 3.84723 6.29836 3.84723 6.41993V7.14763L2.91162 8.41671C2.95743 7.26745 3.46048 6.16401 4.31945 5.3786C4.75157 4.98303 5.25815 4.68085 5.807 4.48747L4.54542 6.19969ZM6.1594 5.95301C5.91625 5.95301 5.7189 5.75522 5.7189 5.51251C5.7189 5.2698 5.91625 5.07201 6.1594 5.07201C6.40256 5.07201 6.5999 5.2698 6.5999 5.51251C6.5999 5.75522 6.40212 5.95301 6.1594 5.95301ZM6.24221 4.63989L6.31269 4.5443C6.32899 4.58218 6.34617 4.61962 6.36247 4.65751C6.32327 4.64782 6.28274 4.64385 6.24221 4.63989ZM7.49014 12.6419C7.71171 12.6419 7.88791 12.8089 7.9183 13.0221C7.91654 13.0741 7.91346 13.1256 7.91126 13.1776C7.86633 13.3736 7.69938 13.5229 7.49014 13.5229C7.24699 13.5229 7.04964 13.3256 7.04964 13.0824C7.04964 12.8393 7.24699 12.6419 7.49014 12.6419Z" fill="#5F5B6D" stroke="#5F5B6D" stroke-width="0.2"/>
</svg>
