<svg width="16" height="18" viewBox="0 0 16 18" fill="none" xmlns="http://www.w3.org/2000/svg">
<path d="M14.597 1.10941C14.7403 1.07478 14.8642 0.985293 14.9422 0.860194C15.0202 0.735094 15.046 0.584379 15.014 0.440474C14.982 0.296568 14.8948 0.170972 14.7712 0.0907042C14.6475 0.0104367 14.4973 -0.0180871 14.3528 0.011269L9.28969 1.13641C9.18759 1.15901 9.09382 1.20963 9.01889 1.28257C8.94397 1.35551 8.89085 1.44789 8.86551 1.54933L8.55047 2.81062H1.53523C1.38602 2.81062 1.24293 2.86989 1.13743 2.97539C1.03193 3.08089 0.972656 3.22398 0.972656 3.37319V7.31117C0.972656 8.05719 1.26901 8.77265 1.79652 9.30016C2.32403 9.82767 3.03949 10.124 3.78551 10.124H4.34807V10.6866C4.34782 11.4845 4.6302 12.2566 5.14513 12.8661C5.66005 13.4755 6.37422 13.8829 7.16092 14.0159V16.8749H4.91064C4.76144 16.8749 4.61835 16.9341 4.51285 17.0396C4.40735 17.1451 4.34807 17.2882 4.34807 17.4374C4.34807 17.5866 4.40735 17.7297 4.51285 17.8352C4.61835 17.9407 4.76144 18 4.91064 18H10.5363C10.6855 18 10.8286 17.9407 10.9341 17.8352C11.0396 17.7297 11.0989 17.5866 11.0989 17.4374C11.0989 17.2882 11.0396 17.1451 10.9341 17.0396C10.8286 16.9341 10.6855 16.8749 10.5363 16.8749H8.28606V14.017C9.07296 13.884 9.78728 13.4765 10.3022 12.8668C10.8172 12.2571 11.0994 11.4847 11.0989 10.6866V10.124H11.6615C12.4075 10.124 13.123 9.82767 13.6505 9.30016C14.178 8.77265 14.4743 8.05719 14.4743 7.31117V3.37319C14.4743 3.22398 14.4151 3.08089 14.3096 2.97539C14.2041 2.86989 14.061 2.81062 13.9118 2.81062H9.70937L9.87251 2.15916L14.597 1.10941V1.10941ZM8.26919 3.93576L7.84726 5.62347H2.0978V3.93576H8.26919ZM2.0978 6.7486H7.56597L6.61523 10.5505C6.58297 10.6938 6.60808 10.8441 6.6852 10.9692C6.76232 11.0943 6.88532 11.1842 7.0279 11.2198C7.17048 11.2554 7.32131 11.2337 7.44815 11.1595C7.57499 11.0853 7.66775 10.9645 7.70662 10.8227L8.72487 6.74973H13.3492V7.3123C13.3492 7.75991 13.1714 8.18918 12.8549 8.50569C12.5384 8.8222 12.1091 9.00001 11.6615 9.00001H10.5363C10.3871 9.00001 10.244 9.05928 10.1385 9.16478C10.033 9.27028 9.97377 9.41338 9.97377 9.56258V10.6877C9.97377 11.2845 9.73669 11.8569 9.31468 12.2789C8.89267 12.7009 8.3203 12.938 7.72349 12.938C7.12668 12.938 6.55432 12.7009 6.13231 12.2789C5.7103 11.8569 5.47321 11.2845 5.47321 10.6877V9.56258C5.47321 9.41338 5.41394 9.27028 5.30844 9.16478C5.20294 9.05928 5.05985 9.00001 4.91064 9.00001H3.78551C3.56378 9.00001 3.34422 8.95632 3.13939 8.87143C2.93455 8.78655 2.74845 8.66213 2.59172 8.50529C2.43498 8.34846 2.31069 8.16227 2.22594 7.95738C2.14119 7.75249 2.09765 7.5329 2.0978 7.31117V6.7486ZM13.3492 5.62347H9.00615L9.42808 3.93576H13.3492V5.62347Z" fill="#454555"/>
</svg>
