<svg width="19" height="22" viewBox="0 0 12 15" fill="none" xmlns="http://www.w3.org/2000/svg">
<path d="M9.70506 14.1984L6.22462 12.9351V10.017C7.55859 9.9825 8.71376 9.57776 9.56528 8.84686C10.5388 8.01064 11.0536 6.79288 11.0536 5.32492C11.0536 4.08413 10.3102 2.02769 9.67095 1.08668C9.65282 1.05996 9.62842 1.03809 9.59988 1.02298C9.57135 1.00786 9.53954 0.999976 9.50725 1H2.57099C2.50558 1 2.44404 1.03253 2.4073 1.08668C1.75657 2.04457 1 4.1047 1 5.32492C1 6.79218 1.51851 8.01011 2.49925 8.84738C3.34989 9.57354 4.4996 9.97653 5.82901 10.0156V12.9204L2.44668 14.1993C2.41772 14.1993 2.38911 14.2057 2.36288 14.218C2.33666 14.2303 2.31345 14.2482 2.29491 14.2705C2.27637 14.2927 2.26293 14.3188 2.25556 14.3468C2.2482 14.3748 2.24707 14.4041 2.25226 14.4326C2.25746 14.4611 2.26884 14.4881 2.28562 14.5117C2.3024 14.5353 2.32416 14.5549 2.34936 14.5692C2.37457 14.5835 2.4026 14.592 2.43148 14.5943C2.46035 14.5966 2.48937 14.5924 2.51648 14.5822H9.63736C9.68394 14.5823 9.72907 14.566 9.76478 14.5361C9.8005 14.5062 9.82452 14.4647 9.83261 14.4188C9.8407 14.3729 9.83234 14.3257 9.80901 14.2854C9.78567 14.245 9.74886 14.2143 9.70506 14.1984ZM2.67736 1.39543H9.4007C9.76536 1.9658 10.1557 2.88906 10.4031 3.77996C10.0365 4.09327 8.23604 5.43798 5.45732 4.32677C3.57424 3.57354 2.02927 4.06215 1.53591 4.26171C1.76536 3.24527 2.23921 2.07851 2.67736 1.39543ZM1.3956 5.32492C1.3956 5.13732 1.416 4.92686 1.45064 4.70479C1.48422 4.70673 1.51833 4.70338 1.55033 4.68721C1.56703 4.67894 3.23683 3.86488 5.31033 4.69424C6.14497 5.02778 6.89996 5.15332 7.56369 5.15332C9.04308 5.15314 10.0674 4.53073 10.5086 4.1993C10.6012 4.60826 10.6578 4.99719 10.6578 5.32475C10.6578 6.67385 10.1909 7.78804 9.30716 8.54655C8.52598 9.21732 7.45697 9.58901 6.21547 9.62119H5.86031C4.61618 9.58936 3.54259 9.21767 2.75596 8.54637C1.86611 7.78681 1.3956 6.67279 1.3956 5.32492ZM3.59903 14.1866L6.00571 13.2766L8.51297 14.1866H3.59903Z" fill="#5F5B6D"/>
<path d="M5.43305 8.5782C4.89925 8.49908 4.13002 8.20545 3.75341 7.93714C3.06382 7.44448 2.71429 6.57468 2.71429 5.35183C2.71429 5.29937 2.69345 5.24905 2.65635 5.21196C2.61926 5.17486 2.56894 5.15402 2.51648 5.15402C2.46402 5.15402 2.41371 5.17486 2.37662 5.21196C2.33952 5.24905 2.31868 5.29937 2.31868 5.35183C2.31868 6.70989 2.72413 7.68782 3.52378 8.25908C3.95684 8.56782 4.77002 8.87974 5.37503 8.96958C5.40072 8.97342 5.42692 8.97215 5.45212 8.96584C5.47732 8.95954 5.50103 8.94832 5.52189 8.93284C5.54274 8.91735 5.56034 8.89791 5.57367 8.87561C5.587 8.85331 5.5958 8.8286 5.59956 8.8029C5.60342 8.77721 5.60218 8.75101 5.59589 8.7258C5.58961 8.70059 5.57842 8.67686 5.56295 8.65599C5.54748 8.63511 5.52804 8.6175 5.50575 8.60415C5.48346 8.5908 5.45876 8.58198 5.43305 8.5782ZM6.20826 9.04782C6.26084 9.04782 6.312 9.02673 6.34875 8.9898C6.38575 8.95269 6.40652 8.90243 6.40652 8.85002C6.40652 8.79762 6.38575 8.74735 6.34875 8.71024C6.27683 8.6364 6.14127 8.6364 6.06919 8.71024C6.03244 8.74717 6.01116 8.79815 6.01116 8.84914C6.01116 8.90156 6.03188 8.95186 6.0688 8.98908C6.10572 9.02629 6.15585 9.04741 6.20826 9.04782Z" fill="#5F5B6D"/>
<path d="M9.70506 14.1984L6.22462 12.9351V10.017C7.55859 9.9825 8.71376 9.57776 9.56528 8.84686C10.5388 8.01064 11.0536 6.79288 11.0536 5.32492C11.0536 4.08413 10.3102 2.02769 9.67095 1.08668C9.65282 1.05996 9.62842 1.03809 9.59988 1.02298C9.57135 1.00786 9.53954 0.999976 9.50725 1H2.57099C2.50558 1 2.44404 1.03253 2.4073 1.08668C1.75657 2.04457 1 4.1047 1 5.32492C1 6.79218 1.51851 8.01011 2.49925 8.84738C3.34989 9.57354 4.4996 9.97653 5.82901 10.0156V12.9204L2.44668 14.1993C2.41772 14.1993 2.38911 14.2057 2.36288 14.218C2.33666 14.2303 2.31345 14.2482 2.29491 14.2705C2.27637 14.2927 2.26293 14.3188 2.25556 14.3468C2.2482 14.3748 2.24707 14.4041 2.25226 14.4326C2.25746 14.4611 2.26884 14.4881 2.28562 14.5117C2.3024 14.5353 2.32416 14.5549 2.34936 14.5692C2.37457 14.5835 2.4026 14.592 2.43148 14.5943C2.46035 14.5966 2.48937 14.5924 2.51648 14.5822H9.63736C9.68394 14.5823 9.72907 14.566 9.76478 14.5361C9.8005 14.5062 9.82452 14.4647 9.83261 14.4188C9.8407 14.3729 9.83234 14.3257 9.80901 14.2854C9.78567 14.245 9.74886 14.2143 9.70506 14.1984ZM2.67736 1.39543H9.4007C9.76536 1.9658 10.1557 2.88906 10.4031 3.77996C10.0365 4.09327 8.23604 5.43798 5.45732 4.32677C3.57424 3.57354 2.02927 4.06215 1.53591 4.26171C1.76536 3.24527 2.23921 2.07851 2.67736 1.39543ZM1.3956 5.32492C1.3956 5.13732 1.416 4.92686 1.45064 4.70479C1.48422 4.70673 1.51833 4.70338 1.55033 4.68721C1.56703 4.67894 3.23683 3.86488 5.31033 4.69424C6.14497 5.02778 6.89996 5.15332 7.56369 5.15332C9.04308 5.15314 10.0674 4.53073 10.5086 4.1993C10.6012 4.60826 10.6578 4.99719 10.6578 5.32475C10.6578 6.67385 10.1909 7.78804 9.30716 8.54655C8.52598 9.21732 7.45697 9.58901 6.21547 9.62119H5.86031C4.61618 9.58936 3.54259 9.21767 2.75596 8.54637C1.86611 7.78681 1.3956 6.67279 1.3956 5.32492ZM3.59903 14.1866L6.00571 13.2766L8.51297 14.1866H3.59903Z" stroke="#5F5B6D" stroke-width="0.2"/>
<path d="M5.43305 8.5782C4.89925 8.49908 4.13002 8.20545 3.75341 7.93714C3.06382 7.44448 2.71429 6.57468 2.71429 5.35183C2.71429 5.29937 2.69345 5.24905 2.65635 5.21196C2.61926 5.17486 2.56894 5.15402 2.51648 5.15402C2.46402 5.15402 2.41371 5.17486 2.37662 5.21196C2.33952 5.24905 2.31868 5.29937 2.31868 5.35183C2.31868 6.70989 2.72413 7.68782 3.52378 8.25908C3.95684 8.56782 4.77002 8.87974 5.37503 8.96958C5.40072 8.97342 5.42692 8.97215 5.45212 8.96584C5.47732 8.95954 5.50103 8.94832 5.52189 8.93284C5.54274 8.91735 5.56034 8.89791 5.57367 8.87561C5.587 8.85331 5.5958 8.8286 5.59956 8.8029C5.60342 8.77721 5.60218 8.75101 5.59589 8.7258C5.58961 8.70059 5.57842 8.67686 5.56295 8.65599C5.54748 8.63511 5.52804 8.6175 5.50575 8.60415C5.48346 8.5908 5.45876 8.58198 5.43305 8.5782ZM6.20826 9.04782C6.26084 9.04782 6.312 9.02673 6.34875 8.9898C6.38575 8.95269 6.40652 8.90243 6.40652 8.85002C6.40652 8.79762 6.38575 8.74735 6.34875 8.71024C6.27683 8.6364 6.14127 8.6364 6.06919 8.71024C6.03244 8.74717 6.01116 8.79815 6.01116 8.84914C6.01116 8.90156 6.03188 8.95186 6.0688 8.98908C6.10572 9.02629 6.15585 9.04741 6.20826 9.04782Z" stroke="#5F5B6D" stroke-width="0.2"/>
</svg>
