<svg viewBox="0 0 24 24" fill="none" xmlns="http://www.w3.org/2000/svg">
<path d="M22 8V16C22 17.65 20.65 19 19 19H17C16.45 19 16 18.55 16 18V15H8V18C8 18.55 7.55 19 7 19H5C3.35 19 2 17.65 2 16V8C2 6.35 3.35 5 5 5H7C7.55 5 8 5.45 8 6V9H16V6C16 5.45 16.45 5 17 5H19C20.65 5 22 6.35 22 8Z" fill="black"/>
<path d="M8 6V18C8 18.55 7.55 19 7 19H5C3.35 19 2 17.65 2 16V8C2 6.35 3.35 5 5 5H7C7.55 5 8 5.45 8 6Z" fill="#FED198"/>
<path d="M22 8V16C22 17.65 20.65 19 19 19H17C16.45 19 16 18.55 16 18V6C16 5.45 16.45 5 17 5H19C20.65 5 22 6.35 22 8Z" fill="#FED198"/>
</svg>
