<svg width="12" height="16" viewBox="0 0 12 16" fill="none" xmlns="http://www.w3.org/2000/svg">
<path d="M0.856408 13.7154C0.856408 14.6599 1.62795 15.4308 2.5718 15.4308H9.4282C10.3727 15.4308 11.1436 14.6592 11.1436 13.7154V5.14359C11.1436 4.20167 10.3721 3.4282 9.4282 3.4282H2.5718C2.11732 3.42973 1.68189 3.61095 1.36052 3.93231C1.03915 4.25368 0.857933 4.68911 0.856408 5.14359V13.7154ZM11.1436 0.856408H9.00128L8.39048 0.248821C8.23049 0.0914224 8.01568 0.0022248 7.79125 0H4.21003C3.98628 0 3.76318 0.0951565 3.60951 0.248821L2.99936 0.856408H0.856408C0.384483 0.856408 0 1.24346 0 1.71539C0 2.18474 0.384483 2.5718 0.856408 2.5718H11.1436C11.6155 2.5718 12 2.18474 12 1.71539C12 1.24346 11.6155 0.856408 11.1436 0.856408Z" fill="#CCF005"/>
</svg>
