<svg width="12" height="11" viewBox="0 0 12 11" fill="none" xmlns="http://www.w3.org/2000/svg">
<path fill-rule="evenodd" clip-rule="evenodd" d="M7.47719 0.721548C8.16061 0.0381301 9.26865 0.0381299 9.95207 0.721547L10.777 1.54651C11.4604 2.22992 11.4604 3.33796 10.777 4.02138L4.71473 10.0837C4.6333 10.1651 4.52958 10.2206 4.41665 10.2432L1.32306 10.8619C0.914888 10.9436 0.555018 10.5837 0.636652 10.1755L1.25537 7.08192C1.27796 6.96899 1.33346 6.86528 1.4149 6.78384L7.47719 0.721548ZM9.12711 1.54651L9.95207 2.37146C10.1799 2.59927 10.1799 2.96862 9.95207 3.19642L9.12711 4.02138L7.47719 2.37147L8.30215 1.54651C8.52996 1.3187 8.8993 1.3187 9.12711 1.54651ZM6.65223 3.19642L2.36474 7.48391L1.95226 9.54631L4.01466 9.13383L8.30215 4.84634L6.65223 3.19642Z" fill="#C832D2"/>
</svg>
