<svg width="58" height="58" viewBox="0 0 58 58" fill="none" xmlns="http://www.w3.org/2000/svg">
<g clip-path="url(#clip0_4961_3254)">
<mask id="mask0_4961_3254" style="mask-type:luminance" maskUnits="userSpaceOnUse" x="0" y="0" width="58" height="58">
<path d="M58 0H0V58H58V0Z" fill="white"/>
</mask>
<g mask="url(#mask0_4961_3254)">
<path d="M29.003 0C12.9874 0 0.00390625 12.9845 0.00390625 28.9994C0.00390625 45.0142 12.9874 58 29.003 58C45.0186 58 58.0036 45.015 58.0036 28.9994C58.0036 12.9837 45.0186 0 29.003 0ZM42.7887 20.8694L40.0344 23.6238L34.4275 18.0173L32.3004 20.1444L37.9073 25.7512L24.1551 39.5023L18.5486 33.8964L16.4216 36.0234L22.0281 41.6297L20.6577 43L20.6316 42.9741C20.4797 43.2243 20.2326 43.4068 19.9391 43.4718L14.7108 44.6376C14.6325 44.6554 14.5528 44.6639 14.4741 44.6639C14.1888 44.6639 13.9115 44.5517 13.706 44.3456C13.4423 44.0827 13.3325 43.7034 13.4137 43.3395L14.5789 38.1128C14.6447 37.8195 14.8276 37.5718 15.0773 37.4202L15.0509 37.3938L37.1817 15.2619C37.5061 14.9381 38.0332 14.9381 38.3576 15.2629L42.7891 19.6935C43.1135 20.0179 43.1135 20.545 42.7887 20.8694Z" fill="#C832D2"/>
</g>
</g>
<defs>
<clipPath id="clip0_4961_3254">
<rect width="58" height="58" fill="white"/>
</clipPath>
</defs>
</svg>
