<svg width="19" height="15" viewBox="0 0 15 11" fill="none" xmlns="http://www.w3.org/2000/svg">
<path d="M8.76481 3.28602H9.86314C9.92158 3.28602 9.97762 3.2628 10.0189 3.22148C10.0603 3.18016 10.0835 3.12412 10.0835 3.06568C10.0835 3.00724 10.0603 2.9512 10.0189 2.90987C9.97762 2.86855 9.92158 2.84534 9.86314 2.84534H8.76481C8.70637 2.84534 8.65032 2.86855 8.609 2.90987C8.56768 2.9512 8.54447 3.00724 8.54447 3.06568C8.54447 3.12412 8.56768 3.18016 8.609 3.22148C8.65032 3.2628 8.70637 3.28602 8.76481 3.28602ZM8.76481 4.63559H11.3657C11.4241 4.63559 11.4802 4.61238 11.5215 4.57106C11.5628 4.52974 11.586 4.47369 11.586 4.41525C11.586 4.35682 11.5628 4.30077 11.5215 4.25945C11.4802 4.21813 11.4241 4.19492 11.3657 4.19492H8.76481C8.70637 4.19492 8.65032 4.21813 8.609 4.25945C8.56768 4.30077 8.54447 4.35682 8.54447 4.41525C8.54447 4.47369 8.56768 4.52974 8.609 4.57106C8.65032 4.61238 8.70637 4.63559 8.76481 4.63559ZM8.76481 5.98517H11.3657C11.4241 5.98517 11.4802 5.96196 11.5215 5.92063C11.5628 5.87931 11.586 5.82327 11.586 5.76483C11.586 5.70639 11.5628 5.65035 11.5215 5.60903C11.4802 5.56771 11.4241 5.54449 11.3657 5.54449H8.76481C8.70637 5.54449 8.65032 5.56771 8.609 5.60903C8.56768 5.65035 8.54447 5.70639 8.54447 5.76483C8.54447 5.82327 8.56768 5.87931 8.609 5.92063C8.65032 5.96196 8.70637 5.98517 8.76481 5.98517ZM8.76481 7.33475H11.3657C11.4241 7.33475 11.4802 7.31153 11.5215 7.27021C11.5628 7.22889 11.586 7.17284 11.586 7.11441C11.586 7.05597 11.5628 6.99993 11.5215 6.9586C11.4802 6.91728 11.4241 6.89407 11.3657 6.89407H8.76481C8.70637 6.89407 8.65032 6.91728 8.609 6.9586C8.56768 6.99993 8.54447 7.05597 8.54447 7.11441C8.54447 7.17284 8.56768 7.22889 8.609 7.27021C8.65032 7.31153 8.70637 7.33475 8.76481 7.33475ZM3.63432 3.28602H4.73257C4.79101 3.28602 4.84705 3.2628 4.88837 3.22148C4.9297 3.18016 4.95291 3.12412 4.95291 3.06568C4.95291 3.00724 4.9297 2.9512 4.88837 2.90987C4.84705 2.86855 4.79101 2.84534 4.73257 2.84534H3.63432C3.57588 2.84534 3.51984 2.86855 3.47851 2.90987C3.43719 2.9512 3.41398 3.00724 3.41398 3.06568C3.41398 3.12412 3.43719 3.18016 3.47851 3.22148C3.51984 3.2628 3.57588 3.28602 3.63432 3.28602ZM3.63432 4.63559H6.2352C6.29364 4.63559 6.34968 4.61238 6.391 4.57106C6.43233 4.52974 6.45554 4.47369 6.45554 4.41525C6.45554 4.35682 6.43233 4.30077 6.391 4.25945C6.34968 4.21813 6.29364 4.19492 6.2352 4.19492H3.63432C3.57588 4.19492 3.51984 4.21813 3.47851 4.25945C3.43719 4.30077 3.41398 4.35682 3.41398 4.41525C3.41398 4.47369 3.43719 4.52974 3.47851 4.57106C3.51984 4.61238 3.57588 4.63559 3.63432 4.63559ZM3.63432 5.98517H6.2352C6.29364 5.98517 6.34968 5.96196 6.391 5.92063C6.43233 5.87931 6.45554 5.82327 6.45554 5.76483C6.45554 5.70639 6.43233 5.65035 6.391 5.60903C6.34968 5.56771 6.29364 5.54449 6.2352 5.54449H3.63432C3.57588 5.54449 3.51984 5.56771 3.47851 5.60903C3.43719 5.65035 3.41398 5.70639 3.41398 5.76483C3.41398 5.82327 3.43719 5.87931 3.47851 5.92063C3.51984 5.96196 3.57588 5.98517 3.63432 5.98517ZM3.63432 7.33475H6.2352C6.29364 7.33475 6.34968 7.31153 6.391 7.27021C6.43233 7.22889 6.45554 7.17284 6.45554 7.11441C6.45554 7.05597 6.43233 6.99993 6.391 6.9586C6.34968 6.91728 6.29364 6.89407 6.2352 6.89407H3.63432C3.57588 6.89407 3.51984 6.91728 3.47851 6.9586C3.43719 6.99993 3.41398 7.05597 3.41398 7.11441C3.41398 7.17284 3.43719 7.22889 3.47851 7.27021C3.51984 7.31153 3.57588 7.33475 3.63432 7.33475Z" fill="#5F5B6D"/>
<path d="M13.7668 2.29449H12.8708V2.08476C12.8712 1.79833 12.7581 1.52339 12.5564 1.3201C12.3546 1.11681 12.0805 1.00172 11.7941 1H9.00078C8.87484 1.00091 8.75002 1.02387 8.63199 1.06784L7.71814 1.40162C7.57729 1.45299 7.42288 1.45324 7.28186 1.40234L6.36801 1.06748C6.24996 1.02362 6.12514 1.00078 5.99922 1H3.20592C2.9195 1.00172 2.64542 1.11681 2.44364 1.3201C2.24186 1.52339 2.12882 1.79833 2.12924 2.08476V2.29449H1.2332C1.17277 2.29541 1.11498 2.31937 1.07163 2.36149C1.02828 2.4036 1.00266 2.46068 1 2.52106V10.3036C1.00269 10.3639 1.02833 10.4209 1.07169 10.4629C1.11504 10.505 1.17282 10.5288 1.2332 10.5297H13.7668C13.8272 10.5288 13.885 10.505 13.9283 10.4629C13.9717 10.4209 13.9973 10.3639 14 10.3036V2.52106C13.9973 2.46068 13.9717 2.4036 13.9284 2.36149C13.885 2.31937 13.8272 2.29541 13.7668 2.29449ZM8.78262 1.48199C8.85238 1.45561 8.92621 1.44163 9.00078 1.44068H11.7941C11.9637 1.44226 12.1257 1.51089 12.2449 1.63156C12.3641 1.75224 12.4306 1.91516 12.4301 2.08476V8.05972C12.4301 8.41165 12.1461 8.68432 11.7941 8.68432H9.00078C8.87463 8.68661 8.74984 8.71092 8.63205 8.75615L7.72034 9.0947V1.85932C7.77078 1.84839 7.82038 1.83389 7.86876 1.81592L8.78262 1.48199ZM2.56992 2.08476C2.56936 1.91516 2.63594 1.75224 2.7551 1.63156C2.87426 1.51089 3.03634 1.44226 3.20592 1.44068H5.99922C6.07378 1.44162 6.14761 1.4556 6.21735 1.48199L7.13124 1.81578C7.17961 1.8338 7.22921 1.84835 7.27966 1.85932V9.0947L6.36801 8.75629C6.25021 8.711 6.1254 8.68664 5.99922 8.68432H3.20592C2.85393 8.68432 2.56992 8.41165 2.56992 8.05972V2.08476ZM13.5593 10.089H1.44068V2.73517H2.12924V8.05972C2.12941 8.20053 2.15745 8.33991 2.21176 8.46982C2.26607 8.59974 2.34557 8.71761 2.44566 8.81665C2.54576 8.91569 2.66448 8.99392 2.79496 9.04685C2.92545 9.09977 3.06512 9.12633 3.20592 9.125H5.99922C6.074 9.12732 6.14782 9.14264 6.21735 9.17028L7.13126 9.50608C7.36909 9.59392 7.63033 9.59483 7.86876 9.50864L8.78262 9.16987C8.85218 9.14235 8.92601 9.12717 9.00078 9.125H11.7941C11.9349 9.12633 12.0746 9.09977 12.205 9.04685C12.3355 8.99392 12.4542 8.91569 12.5543 8.81665C12.6544 8.71761 12.7339 8.59974 12.7882 8.46982C12.8425 8.33991 12.8706 8.20053 12.8708 8.05972V2.73517H13.5593V10.089Z" fill="#5F5B6D"/>
<path d="M8.76481 3.28602H9.86314C9.92158 3.28602 9.97762 3.2628 10.0189 3.22148C10.0603 3.18016 10.0835 3.12412 10.0835 3.06568C10.0835 3.00724 10.0603 2.9512 10.0189 2.90987C9.97762 2.86855 9.92158 2.84534 9.86314 2.84534H8.76481C8.70637 2.84534 8.65032 2.86855 8.609 2.90987C8.56768 2.9512 8.54447 3.00724 8.54447 3.06568C8.54447 3.12412 8.56768 3.18016 8.609 3.22148C8.65032 3.2628 8.70637 3.28602 8.76481 3.28602ZM8.76481 4.63559H11.3657C11.4241 4.63559 11.4802 4.61238 11.5215 4.57106C11.5628 4.52974 11.586 4.47369 11.586 4.41525C11.586 4.35682 11.5628 4.30077 11.5215 4.25945C11.4802 4.21813 11.4241 4.19492 11.3657 4.19492H8.76481C8.70637 4.19492 8.65032 4.21813 8.609 4.25945C8.56768 4.30077 8.54447 4.35682 8.54447 4.41525C8.54447 4.47369 8.56768 4.52974 8.609 4.57106C8.65032 4.61238 8.70637 4.63559 8.76481 4.63559ZM8.76481 5.98517H11.3657C11.4241 5.98517 11.4802 5.96196 11.5215 5.92063C11.5628 5.87931 11.586 5.82327 11.586 5.76483C11.586 5.70639 11.5628 5.65035 11.5215 5.60903C11.4802 5.56771 11.4241 5.54449 11.3657 5.54449H8.76481C8.70637 5.54449 8.65032 5.56771 8.609 5.60903C8.56768 5.65035 8.54447 5.70639 8.54447 5.76483C8.54447 5.82327 8.56768 5.87931 8.609 5.92063C8.65032 5.96196 8.70637 5.98517 8.76481 5.98517ZM8.76481 7.33475H11.3657C11.4241 7.33475 11.4802 7.31153 11.5215 7.27021C11.5628 7.22889 11.586 7.17284 11.586 7.11441C11.586 7.05597 11.5628 6.99993 11.5215 6.9586C11.4802 6.91728 11.4241 6.89407 11.3657 6.89407H8.76481C8.70637 6.89407 8.65032 6.91728 8.609 6.9586C8.56768 6.99993 8.54447 7.05597 8.54447 7.11441C8.54447 7.17284 8.56768 7.22889 8.609 7.27021C8.65032 7.31153 8.70637 7.33475 8.76481 7.33475ZM3.63432 3.28602H4.73257C4.79101 3.28602 4.84705 3.2628 4.88837 3.22148C4.9297 3.18016 4.95291 3.12412 4.95291 3.06568C4.95291 3.00724 4.9297 2.9512 4.88837 2.90987C4.84705 2.86855 4.79101 2.84534 4.73257 2.84534H3.63432C3.57588 2.84534 3.51984 2.86855 3.47851 2.90987C3.43719 2.9512 3.41398 3.00724 3.41398 3.06568C3.41398 3.12412 3.43719 3.18016 3.47851 3.22148C3.51984 3.2628 3.57588 3.28602 3.63432 3.28602ZM3.63432 4.63559H6.2352C6.29364 4.63559 6.34968 4.61238 6.391 4.57106C6.43233 4.52974 6.45554 4.47369 6.45554 4.41525C6.45554 4.35682 6.43233 4.30077 6.391 4.25945C6.34968 4.21813 6.29364 4.19492 6.2352 4.19492H3.63432C3.57588 4.19492 3.51984 4.21813 3.47851 4.25945C3.43719 4.30077 3.41398 4.35682 3.41398 4.41525C3.41398 4.47369 3.43719 4.52974 3.47851 4.57106C3.51984 4.61238 3.57588 4.63559 3.63432 4.63559ZM3.63432 5.98517H6.2352C6.29364 5.98517 6.34968 5.96196 6.391 5.92063C6.43233 5.87931 6.45554 5.82327 6.45554 5.76483C6.45554 5.70639 6.43233 5.65035 6.391 5.60903C6.34968 5.56771 6.29364 5.54449 6.2352 5.54449H3.63432C3.57588 5.54449 3.51984 5.56771 3.47851 5.60903C3.43719 5.65035 3.41398 5.70639 3.41398 5.76483C3.41398 5.82327 3.43719 5.87931 3.47851 5.92063C3.51984 5.96196 3.57588 5.98517 3.63432 5.98517ZM3.63432 7.33475H6.2352C6.29364 7.33475 6.34968 7.31153 6.391 7.27021C6.43233 7.22889 6.45554 7.17284 6.45554 7.11441C6.45554 7.05597 6.43233 6.99993 6.391 6.9586C6.34968 6.91728 6.29364 6.89407 6.2352 6.89407H3.63432C3.57588 6.89407 3.51984 6.91728 3.47851 6.9586C3.43719 6.99993 3.41398 7.05597 3.41398 7.11441C3.41398 7.17284 3.43719 7.22889 3.47851 7.27021C3.51984 7.31153 3.57588 7.33475 3.63432 7.33475Z" stroke="#5F5B6D" stroke-width="0.2"/>
<path d="M13.7668 2.29449H12.8708V2.08476C12.8712 1.79833 12.7581 1.52339 12.5564 1.3201C12.3546 1.11681 12.0805 1.00172 11.7941 1H9.00078C8.87484 1.00091 8.75002 1.02387 8.63199 1.06784L7.71814 1.40162C7.57729 1.45299 7.42288 1.45324 7.28186 1.40234L6.36801 1.06748C6.24996 1.02362 6.12514 1.00078 5.99922 1H3.20592C2.9195 1.00172 2.64542 1.11681 2.44364 1.3201C2.24186 1.52339 2.12882 1.79833 2.12924 2.08476V2.29449H1.2332C1.17277 2.29541 1.11498 2.31937 1.07163 2.36149C1.02828 2.4036 1.00266 2.46068 1 2.52106V10.3036C1.00269 10.3639 1.02833 10.4209 1.07169 10.4629C1.11504 10.505 1.17282 10.5288 1.2332 10.5297H13.7668C13.8272 10.5288 13.885 10.505 13.9283 10.4629C13.9717 10.4209 13.9973 10.3639 14 10.3036V2.52106C13.9973 2.46068 13.9717 2.4036 13.9284 2.36149C13.885 2.31937 13.8272 2.29541 13.7668 2.29449ZM8.78262 1.48199C8.85238 1.45561 8.92621 1.44163 9.00078 1.44068H11.7941C11.9637 1.44226 12.1257 1.51089 12.2449 1.63156C12.3641 1.75224 12.4306 1.91516 12.4301 2.08476V8.05972C12.4301 8.41165 12.1461 8.68432 11.7941 8.68432H9.00078C8.87463 8.68661 8.74984 8.71092 8.63205 8.75615L7.72034 9.0947V1.85932C7.77078 1.84839 7.82038 1.83389 7.86876 1.81592L8.78262 1.48199ZM2.56992 2.08476C2.56936 1.91516 2.63594 1.75224 2.7551 1.63156C2.87426 1.51089 3.03634 1.44226 3.20592 1.44068H5.99922C6.07378 1.44162 6.14761 1.4556 6.21735 1.48199L7.13124 1.81578C7.17961 1.8338 7.22921 1.84835 7.27966 1.85932V9.0947L6.36801 8.75629C6.25021 8.711 6.1254 8.68664 5.99922 8.68432H3.20592C2.85393 8.68432 2.56992 8.41165 2.56992 8.05972V2.08476ZM13.5593 10.089H1.44068V2.73517H2.12924V8.05972C2.12941 8.20053 2.15745 8.33991 2.21176 8.46982C2.26607 8.59974 2.34557 8.71761 2.44566 8.81665C2.54576 8.91569 2.66448 8.99392 2.79496 9.04685C2.92545 9.09977 3.06512 9.12633 3.20592 9.125H5.99922C6.074 9.12732 6.14782 9.14264 6.21735 9.17028L7.13126 9.50608C7.36909 9.59392 7.63033 9.59483 7.86876 9.50864L8.78262 9.16987C8.85218 9.14235 8.92601 9.12717 9.00078 9.125H11.7941C11.9349 9.12633 12.0746 9.09977 12.205 9.04685C12.3355 8.99392 12.4542 8.91569 12.5543 8.81665C12.6544 8.71761 12.7339 8.59974 12.7882 8.46982C12.8425 8.33991 12.8706 8.20053 12.8708 8.05972V2.73517H13.5593V10.089Z" stroke="#5F5B6D" stroke-width="0.2"/>
</svg>
