<svg width="17" height="18" viewBox="0 0 17 18" fill="none" xmlns="http://www.w3.org/2000/svg">
<path d="M3.45076 10.4646H2.63384C2.20052 10.4646 1.78494 10.6368 1.47854 10.9432C1.17214 11.2496 1 11.6652 1 12.0985V12.0985C1 12.5318 1.17214 12.9474 1.47854 13.2538C1.78494 13.5602 2.20052 13.7323 2.63384 13.7323H14.0707C14.504 13.7323 14.9196 13.9045 15.226 14.2109C15.5324 14.5173 15.7045 14.9328 15.7045 15.3662C15.7045 15.7995 15.5324 16.2151 15.226 16.5215C14.9196 16.8279 14.504 17 14.0707 17H10.803M11.6199 3.11238L13.4931 1.23918C13.6463 1.08603 13.8541 1 14.0707 1C14.2873 1 14.4951 1.08603 14.6483 1.23918L15.9439 2.53482C16.097 2.68801 16.1831 2.89576 16.1831 3.11238C16.1831 3.329 16.097 3.53674 15.9439 3.68994L14.0707 5.56313L11.6199 3.11238ZM11.6199 3.11238L6.95779 7.77453C6.80458 7.9277 6.71848 8.13545 6.71843 8.3521V9.64773C6.71843 9.86439 6.8045 10.0722 6.9577 10.2254C7.1109 10.3786 7.31869 10.4646 7.53535 10.4646H8.83099C9.04763 10.4646 9.25538 10.3785 9.40855 10.2253L14.0707 5.56313L11.6199 3.11238ZM11.6199 3.11238L14.0707 5.56313L11.6199 3.11238Z" stroke="#FF385C" stroke-width="1.5" stroke-linecap="round" stroke-linejoin="round"/>
</svg>
