<svg width="16" height="16" viewBox="0 0 16 16" fill="none" xmlns="http://www.w3.org/2000/svg">
<path d="M3.33325 12.0006H6.15992C6.24766 12.0011 6.33463 11.9843 6.41586 11.9511C6.49708 11.9179 6.57096 11.8691 6.63325 11.8073L11.2466 7.18728L13.1399 5.33394C13.2024 5.27197 13.252 5.19823 13.2858 5.11699C13.3197 5.03576 13.3371 4.94862 13.3371 4.86061C13.3371 4.7726 13.3197 4.68547 13.2858 4.60423C13.252 4.52299 13.2024 4.44925 13.1399 4.38728L10.3133 1.52728C10.2513 1.46479 10.1775 1.4152 10.0963 1.38135C10.0151 1.3475 9.92793 1.33008 9.83992 1.33008C9.75191 1.33008 9.66477 1.3475 9.58353 1.38135C9.50229 1.4152 9.42856 1.46479 9.36659 1.52728L7.48659 3.41394L2.85992 8.03394C2.79813 8.09624 2.74925 8.17011 2.71607 8.25134C2.68289 8.33256 2.66608 8.41954 2.66659 8.50728V11.3339C2.66659 11.5108 2.73682 11.6803 2.86185 11.8053C2.98687 11.9304 3.15644 12.0006 3.33325 12.0006ZM9.83992 2.94061L11.7266 4.82728L10.7799 5.77394L8.89325 3.88728L9.83992 2.94061ZM3.99992 8.78061L7.95325 4.82728L9.83992 6.71394L5.88659 10.6673H3.99992V8.78061ZM13.9999 13.3339H1.99992C1.82311 13.3339 1.65354 13.4042 1.52851 13.5292C1.40349 13.6542 1.33325 13.8238 1.33325 14.0006C1.33325 14.1774 1.40349 14.347 1.52851 14.472C1.65354 14.597 1.82311 14.6673 1.99992 14.6673H13.9999C14.1767 14.6673 14.3463 14.597 14.4713 14.472C14.5963 14.347 14.6666 14.1774 14.6666 14.0006C14.6666 13.8238 14.5963 13.6542 14.4713 13.5292C14.3463 13.4042 14.1767 13.3339 13.9999 13.3339Z" fill="#1B3DC6"/>
</svg>
