<svg width="18" height="15" viewBox="0 0 18 15" fill="none" xmlns="http://www.w3.org/2000/svg">
<path d="M16.178 14.2549H1.822C0.8174 14.2549 0 13.4375 0 12.4329V2.56809C0 1.56349 0.8174 0.746094 1.822 0.746094H16.178C17.1826 0.746094 18 1.56349 18 2.56809V12.4329C18 13.4377 17.1826 14.2549 16.178 14.2549ZM1.822 1.94609C1.479 1.94609 1.2 2.22529 1.2 2.56809V12.4329C1.2 12.7759 1.479 13.0549 1.822 13.0549H16.178C16.521 13.0549 16.8 12.7757 16.8 12.4329V2.56809C16.8 2.22509 16.5208 1.94609 16.178 1.94609H1.822Z" fill="#F0EEFF"/>
<path d="M9.0014 9.58521C7.9198 9.58521 6.8816 9.12681 6.153 8.32761L0.5 2.12481L1.387 1.31641L7.04 7.51901C7.549 8.07741 8.2456 8.38521 9.0014 8.38521C9.7572 8.38521 10.4538 8.07761 10.963 7.51901L16.6162 1.31641L17.503 2.12481L11.8496 8.32741C11.1212 9.12681 10.083 9.58521 9.0014 9.58521Z" fill="#F0EEFF"/>
<path d="M6.02977 7.34646L0.53125 12.873L1.38193 13.7194L6.88045 8.19282L6.02977 7.34646Z" fill="#F0EEFF"/>
<path d="M11.9719 7.34505L11.1211 8.19141L16.6196 13.7188L17.4704 12.8724L11.9719 7.34505Z" fill="#F0EEFF"/>
</svg>
