<svg width="20" height="20" viewBox="0 0 20 20" fill="none" xmlns="http://www.w3.org/2000/svg">
<path d="M7.14286 9.28571C7.52174 9.28571 7.8851 9.1352 8.15301 8.8673C8.42092 8.59939 8.57143 8.23602 8.57143 7.85714C8.57143 7.47826 8.42092 7.1149 8.15301 6.84699C7.8851 6.57908 7.52174 6.42857 7.14286 6.42857C6.76398 6.42857 6.40061 6.57908 6.13271 6.84699C5.8648 7.1149 5.71429 7.47826 5.71429 7.85714C5.71429 8.23602 5.8648 8.59939 6.13271 8.8673C6.40061 9.1352 6.76398 9.28571 7.14286 9.28571ZM14.2857 7.85714C14.2857 8.23602 14.1352 8.59939 13.8673 8.8673C13.5994 9.1352 13.236 9.28571 12.8571 9.28571C12.4783 9.28571 12.1149 9.1352 11.847 8.8673C11.5791 8.59939 11.4286 8.23602 11.4286 7.85714C11.4286 7.47826 11.5791 7.1149 11.847 6.84699C12.1149 6.57908 12.4783 6.42857 12.8571 6.42857C13.236 6.42857 13.5994 6.57908 13.8673 6.84699C14.1352 7.1149 14.2857 7.47826 14.2857 7.85714ZM5.395 12.2186C5.56355 12.1343 5.75857 12.12 5.93758 12.1789C6.11659 12.2378 6.26508 12.365 6.35071 12.5329L6.35286 12.5371L6.37714 12.5786C6.40214 12.6193 6.44357 12.6829 6.50357 12.7636C6.62429 12.9243 6.81786 13.1464 7.09786 13.3707C7.65 13.8121 8.56643 14.2857 10 14.2857C11.4336 14.2857 12.35 13.8121 12.9021 13.3714C13.1829 13.1464 13.3764 12.9243 13.4964 12.7636C13.5511 12.6911 13.6014 12.6155 13.6471 12.5371L13.65 12.5321C13.7362 12.3643 13.8852 12.2374 14.0646 12.1791C14.244 12.1208 14.4392 12.1359 14.6075 12.2209C14.7759 12.306 14.9038 12.4542 14.9632 12.6332C15.0227 12.8123 15.009 13.0075 14.925 13.1764V13.1771L14.9236 13.1786V13.18L14.9207 13.1843L14.915 13.195C14.8928 13.2376 14.869 13.2793 14.8436 13.32C14.7809 13.4234 14.7129 13.5235 14.64 13.62C14.3956 13.9432 14.1114 14.2342 13.7943 14.4864C13.0071 15.1164 11.7807 15.7143 10 15.7143C8.21929 15.7143 6.99286 15.1164 6.20571 14.4857C5.88891 14.2339 5.60502 13.9433 5.36071 13.6207C5.25929 13.4852 5.16717 13.343 5.085 13.195L5.07929 13.1843L5.07714 13.18L5.07643 13.1779L5.07571 13.1764C4.99113 13.0071 4.97724 12.811 5.03711 12.6314C5.09698 12.4518 5.22571 12.3033 5.395 12.2186ZM10 0C4.47714 0 0 4.47714 0 10C0 15.5229 4.47714 20 10 20C15.5229 20 20 15.5229 20 10C20 4.47714 15.5229 0 10 0ZM1.42857 10C1.42857 5.26643 5.26643 1.42857 10 1.42857C14.7336 1.42857 18.5714 5.26643 18.5714 10C18.5714 14.7336 14.7336 18.5714 10 18.5714C5.26643 18.5714 1.42857 14.7336 1.42857 10Z" fill="white"/>
</svg>
