<svg width="40" height="40" viewBox="0 0 40 40" fill="none" xmlns="http://www.w3.org/2000/svg">
<circle cx="20" cy="20" r="19.5" stroke="#C832D2"/>
<path d="M27.178 26.5088H12.822C11.8174 26.5088 11 25.6914 11 24.6868V14.822C11 13.8174 11.8174 13 12.822 13H27.178C28.1826 13 29 13.8174 29 14.822V24.6868C29 25.6916 28.1826 26.5088 27.178 26.5088ZM12.822 14.2C12.479 14.2 12.2 14.4792 12.2 14.822V24.6868C12.2 25.0298 12.479 25.3088 12.822 25.3088H27.178C27.521 25.3088 27.8 25.0296 27.8 24.6868V14.822C27.8 14.479 27.5208 14.2 27.178 14.2H12.822Z" fill="#E88A23"/>
<path d="M20.0014 21.8391C18.9198 21.8391 17.8816 21.3807 17.153 20.5815L11.5 14.3787L12.387 13.5703L18.04 19.7729C18.549 20.3313 19.2456 20.6391 20.0014 20.6391C20.7572 20.6391 21.4538 20.3315 21.963 19.7729L27.6162 13.5703L28.503 14.3787L22.8496 20.5813C22.1212 21.3807 21.083 21.8391 20.0014 21.8391Z" fill="#E88A23"/>
<path d="M17.0298 19.6004L11.5312 25.127L12.3819 25.9733L17.8804 20.4467L17.0298 19.6004Z" fill="#E88A23"/>
<path d="M22.9719 19.599L22.1211 20.4453L27.6196 25.9727L28.4704 25.1263L22.9719 19.599Z" fill="#E88A23"/>
</svg>
