<svg width="20" height="20" viewBox="0 0 20 20" fill="none" xmlns="http://www.w3.org/2000/svg">
<path d="M15.0286 8.71429H8.4C7.76914 8.71429 7.71429 9.22514 7.71429 9.85714C7.71429 10.4891 7.76914 11 8.4 11H15.0286C15.6594 11 15.7143 10.4891 15.7143 9.85714C15.7143 9.22514 15.6594 8.71429 15.0286 8.71429ZM17.3143 14.4286H8.4C7.76914 14.4286 7.71429 14.9394 7.71429 15.5714C7.71429 16.2034 7.76914 16.7143 8.4 16.7143H17.3143C17.9451 16.7143 18 16.2034 18 15.5714C18 14.9394 17.9451 14.4286 17.3143 14.4286ZM8.4 5.28571H17.3143C17.9451 5.28571 18 4.77486 18 4.14286C18 3.51086 17.9451 3 17.3143 3H8.4C7.76914 3 7.71429 3.51086 7.71429 4.14286C7.71429 4.77486 7.76914 5.28571 8.4 5.28571ZM4.74286 8.71429H2.68571C2.05486 8.71429 2 9.22514 2 9.85714C2 10.4891 2.05486 11 2.68571 11H4.74286C5.37371 11 5.42857 10.4891 5.42857 9.85714C5.42857 9.22514 5.37371 8.71429 4.74286 8.71429ZM4.74286 14.4286H2.68571C2.05486 14.4286 2 14.9394 2 15.5714C2 16.2034 2.05486 16.7143 2.68571 16.7143H4.74286C5.37371 16.7143 5.42857 16.2034 5.42857 15.5714C5.42857 14.9394 5.37371 14.4286 4.74286 14.4286ZM4.74286 3H2.68571C2.05486 3 2 3.51086 2 4.14286C2 4.77486 2.05486 5.28571 2.68571 5.28571H4.74286C5.37371 5.28571 5.42857 4.77486 5.42857 4.14286C5.42857 3.51086 5.37371 3 4.74286 3Z" fill="#454555" fill-opacity="0.7"/>
</svg>
