<svg xmlns="http://www.w3.org/2000/svg" width="46" height="46"><path style="line-height:normal;text-indent:0;text-align:start;text-decoration-line:none;text-decoration-style:solid;text-decoration-color:#000;text-transform:none;block-progression:tb;isolation:auto;mix-blend-mode:normal" d="M23 1006.362c12.708 0 23 10.292 23 23 0 12.709-10.292 23-23 23s-23-10.291-23-23c0-12.708 10.292-23 23-23zm-6.494 10.012c-.835 0-1.495.713-1.498 1.549-.012.219.002.4.012.597-3.371.546-6.014 2.9-6.014 5.856 0 .771.45 1.436 1.094 1.77-.38 2.989.612 6.004 2.671 7.78.584.5 1.246.847 1.936 1.09.285.772.953 1.356 1.799 1.356.844 0 1.508-.583 1.795-1.352a5.971 5.971 0 0 0 1.783-.964c2.156-1.748 3.222-4.836 2.832-7.912a1.998 1.998 0 0 0 1.09-1.768c0-2.952-2.647-5.267-6.014-5.818.006-.2.014-.406.014-.627 0-.695-.725-1.372-1.358-1.561zm-.002 1.006h.002c.27 0 .5.225.5.555 0 .312-.022.53-.022 1.005a.5.5 0 0 0 .446.496c3.208.354 5.576 2.483 5.576 4.944 0 .562-.437 1-1 1h-11c-.563 0-1-.438-1-1 0-2.393 2.234-4.47 5.31-4.91h.004c.086-.013.173-.024.26-.033a.5.5 0 0 0 .447-.51c-.009-.34-.04-.69-.023-.961a.522.522 0 0 0 .002-.033c0-.328.228-.551.498-.553zm16.476 7.224a1.582 1.582 0 0 0-1.207.782c-.12.183-.197.346-.287.521-3.192-1.212-6.656-.497-8.134 2.063-.386.668-.33 1.47.062 2.08-1.823 2.4-2.474 5.507-1.578 8.076a6.02 6.02 0 0 0 1.13 1.912c-.138.812.149 1.651.882 2.075.732.422 1.599.25 2.232-.274.656.123 1.335.161 2.023.055h.002c2.742-.436 5.21-2.577 6.41-5.437a1.997 1.997 0 0 0 1.827-.987c1.476-2.556.34-5.881-2.299-8.043.106-.17.215-.346.326-.539.347-.6.166-1.293-.285-1.773-.025-.109-.174-.203-.297-.275-.261-.13-.573-.257-.807-.235zm.807.235c.065.032.143.06.197.092l-.287-.149c.024.014.06.04.09.057zm-.629.758c.065.01.127.027.186.06h.002c.234.135.32.443.156.728-.156.27-.284.45-.522.861a.5.5 0 0 0 .137.653c2.602 1.91 3.59 4.937 2.36 7.068a.989.989 0 0 1-1.368.367l-9.525-5.5a.989.989 0 0 1-.367-1.367c1.196-2.072 4.17-2.753 7.054-1.596h.004c.08.031.16.065.243.102a.5.5 0 0 0 .64-.219c.162-.298.31-.617.461-.843l.018-.026a.54.54 0 0 1 .521-.289zm-22.08.783h10.858c.309 2.725-.677 5.439-2.481 6.902a4.962 4.962 0 0 1-1.623.881l-.29.092-.052.299a.994.994 0 0 1-.984.824.994.994 0 0 1-.985-.824l-.052-.299-.29-.092a5.006 5.006 0 0 1-1.755-.99c-1.73-1.493-2.646-4.147-2.346-6.793zm1.399 1a.5.5 0 0 0-.471.572c.25 1.877 1.09 3.606 2.43 4.76.505.436 1.159-.322.654-.758-1.12-.964-1.871-2.471-2.092-4.135a.5.5 0 0 0-.521-.44zm11.671 3.36 9.4 5.427c-1.094 2.515-3.305 4.375-5.599 4.74a4.974 4.974 0 0 1-1.846-.049l-.296-.065-.196.233a.993.993 0 0 1-1.263.222.995.995 0 0 1-.442-1.207l.106-.287-.207-.223a5.012 5.012 0 0 1-1.024-1.734c-.752-2.158-.218-4.915 1.367-7.059zm.47 1.509c-.201 0-.38.128-.454.314-.722 1.75-.858 3.672-.275 5.34.204.66 1.195.314.943-.33-.487-1.394-.384-3.076.256-4.627a.5.5 0 0 0-.47-.697z" color="#000" font-family="sans-serif" font-weight="400" overflow="visible" transform="translate(0 -1006.362)"/></svg>