<svg width="10" height="16" viewBox="0 0 10 16" fill="none" xmlns="http://www.w3.org/2000/svg">
<path fill-rule="evenodd" clip-rule="evenodd" d="M5 0.99994C3.93913 0.99994 2.92172 1.42137 2.17157 2.17151C1.42143 2.92166 1 3.93907 1 4.99994C1 6.06081 1.42143 7.07822 2.17157 7.82837C2.92172 8.57851 3.93913 8.99994 5 8.99994C6.06087 8.99994 7.07828 8.57851 7.82843 7.82837C8.57857 7.07822 9 6.06081 9 4.99994C9 3.93907 8.57857 2.92166 7.82843 2.17151C7.07828 1.42137 6.06087 0.99994 5 0.99994ZM3.95006e-10 4.99994C1.21561e-05 4.03235 0.280771 3.08556 0.808227 2.27438C1.33568 1.4632 2.08717 0.822483 2.97156 0.429945C3.85594 0.0374067 4.83523 -0.0900927 5.79064 0.0629099C6.74605 0.215912 7.63655 0.642844 8.35413 1.29192C9.0717 1.94101 9.58553 2.78435 9.8333 3.71968C10.0811 4.655 10.0521 5.64213 9.74997 6.56133C9.44783 7.48053 8.88547 8.29232 8.13109 8.89824C7.37672 9.50416 6.46274 9.87818 5.5 9.97494V11.9999H7.5C7.63261 11.9999 7.75979 12.0526 7.85355 12.1464C7.94732 12.2402 8 12.3673 8 12.4999C8 12.6325 7.94732 12.7597 7.85355 12.8535C7.75979 12.9473 7.63261 12.9999 7.5 12.9999H5.5V15.4999C5.5 15.6325 5.44732 15.7597 5.35355 15.8535C5.25979 15.9473 5.13261 15.9999 5 15.9999C4.86739 15.9999 4.74021 15.9473 4.64645 15.8535C4.55268 15.7597 4.5 15.6325 4.5 15.4999V12.9999H2.5C2.36739 12.9999 2.24021 12.9473 2.14645 12.8535C2.05268 12.7597 2 12.6325 2 12.4999C2 12.3673 2.05268 12.2402 2.14645 12.1464C2.24021 12.0526 2.36739 11.9999 2.5 11.9999H4.5V9.97494C3.26668 9.85099 2.12337 9.27335 1.29188 8.35408C0.460384 7.43482 -1.55717e-05 6.23947 3.95006e-10 4.99994Z" fill="white"/>
</svg>
