<svg viewBox="0 0 24 24" fill="none" xmlns="http://www.w3.org/2000/svg">
<g clip-path="url(#clip0_1432_19756)">
<path d="M11.9994 23C13.9885 23 15.8961 22.2098 17.3027 20.8033C18.7092 19.3968 19.4994 17.4891 19.4994 15.5C19.4994 14.634 19.2694 13.803 18.9994 13.03C17.3324 14.677 16.0664 15.5 15.1994 15.5C19.1944 8.5 16.9994 5.5 10.9994 1.5C11.4994 6.5 8.20336 8.774 6.86136 10.037C5.76669 11.0667 5.0066 12.4015 4.67964 13.8683C4.35269 15.3352 4.47395 16.8664 5.02771 18.2635C5.58146 19.6606 6.54217 20.8592 7.78527 21.7037C9.02836 22.5483 10.4965 22.9999 11.9994 23ZM12.7094 5.235C15.9504 7.985 15.9664 10.122 13.4624 14.509C12.7014 15.842 13.6644 17.5 15.1994 17.5C15.8874 17.5 16.5834 17.3 17.3184 16.905C17.1005 17.728 16.6946 18.4892 16.1325 19.1286C15.5705 19.768 14.8677 20.2682 14.0794 20.5899C13.2912 20.9115 12.4391 21.0458 11.5901 20.9821C10.7412 20.9184 9.9186 20.6585 9.18717 20.2229C8.45573 19.7873 7.83541 19.1878 7.37505 18.4717C6.91468 17.7556 6.62683 16.9424 6.53418 16.0961C6.44152 15.2498 6.54659 14.3936 6.8411 13.5948C7.1356 12.7961 7.61152 12.0766 8.23136 11.493C8.35736 11.375 8.99636 10.808 9.02436 10.783C9.44836 10.403 9.79736 10.066 10.1424 9.697C11.3724 8.379 12.2564 6.917 12.7084 5.235H12.7094Z" fill="black"/>
</g>
<defs>
<clipPath id="clip0_1432_19756">
<rect width="24" height="24" fill="white"/>
</clipPath>
</defs>
</svg>
