<svg width="16" height="18" viewBox="0 0 16 18" fill="none" xmlns="http://www.w3.org/2000/svg">
<path d="M4.00615 8.06698C4.24411 8.06698 4.47233 7.97245 4.6406 7.80418C4.80886 7.63592 4.90339 7.4077 4.90339 7.16973C4.90339 6.93177 4.80886 6.70355 4.6406 6.53528C4.47233 6.36702 4.24411 6.27249 4.00615 6.27249C3.76818 6.27249 3.53997 6.36702 3.3717 6.53528C3.20343 6.70355 3.1089 6.93177 3.1089 7.16973C3.1089 7.4077 3.20343 7.63592 3.3717 7.80418C3.53997 7.97245 3.76818 8.06698 4.00615 8.06698ZM8.49238 9.85968C8.49238 10.0976 8.39785 10.3259 8.22958 10.4941C8.06131 10.6624 7.8331 10.7569 7.59513 10.7569C7.35717 10.7569 7.12895 10.6624 6.96068 10.4941C6.79242 10.3259 6.69789 10.0976 6.69789 9.85968C6.69789 9.62171 6.79242 9.39349 6.96068 9.22523C7.12895 9.05696 7.35717 8.96243 7.59513 8.96243C7.8331 8.96243 8.06131 9.05696 8.22958 9.22523C8.39785 9.39349 8.49238 9.62171 8.49238 9.85968ZM4.00615 13.4469C4.24411 13.4469 4.47233 13.3523 4.6406 13.1841C4.80886 13.0158 4.90339 12.7876 4.90339 12.5496C4.90339 12.3117 4.80886 12.0834 4.6406 11.9152C4.47233 11.7469 4.24411 11.6524 4.00615 11.6524C3.76818 11.6524 3.53997 11.7469 3.3717 11.9152C3.20343 12.0834 3.1089 12.3117 3.1089 12.5496C3.1089 12.7876 3.20343 13.0158 3.3717 13.1841C3.53997 13.3523 3.76818 13.4469 4.00615 13.4469ZM0.417164 2.38741C0.417164 1.04423 1.52078 -0.129363 2.9474 0.0115049C7.59279 0.471937 11.8965 2.65806 15.0082 6.1379C15.9682 7.20832 15.6694 8.79734 14.5784 9.58781C13.159 10.6179 11.0432 12.1512 9.83825 13.027C9.83645 13.4191 9.83645 13.6739 9.83735 14.0067V14.5702C9.83747 14.7997 9.78728 15.0265 9.6903 15.2345C9.59333 15.4425 9.45193 15.6268 9.27605 15.7743C9.10018 15.9217 8.89412 16.0288 8.67237 16.0881C8.45063 16.1473 8.21859 16.1572 7.99261 16.1171C7.80957 16.8582 7.15638 17.4872 6.24836 17.4872C5.62029 17.4872 5.11604 17.1866 4.8047 16.7559L3.61585 17.6146C2.28074 18.5782 0.412677 17.6244 0.413575 15.9762L0.417164 2.38831V2.38741ZM2.8155 1.35109C2.26908 1.29726 1.76214 1.74857 1.76214 2.38741V2.85398C6.47627 3.05227 10.6547 5.32051 13.4129 8.77042L13.7888 8.49766C14.3074 8.12081 14.3738 7.44519 14.006 7.03515C11.1187 3.80682 7.12552 1.77887 2.8155 1.35199V1.35109ZM1.75944 15.9762C1.75944 16.5253 2.38213 16.8438 2.82717 16.5217L4.73651 15.1454C4.8371 15.073 4.95573 15.0298 5.07932 15.0205C5.2029 15.0113 5.32663 15.0364 5.43688 15.093C5.54712 15.1496 5.63959 15.2355 5.7041 15.3414C5.7686 15.4472 5.80263 15.5687 5.80243 15.6927C5.80243 15.9349 5.98996 16.1413 6.24836 16.1413C6.30753 16.1419 6.36622 16.1307 6.42102 16.1084C6.47582 16.0861 6.52563 16.0531 6.56755 16.0113C6.60947 15.9696 6.64266 15.9199 6.66519 15.8652C6.68773 15.8105 6.69914 15.7518 6.69878 15.6927V14.5693C6.69878 14.3908 6.76968 14.2197 6.89588 14.0935C7.02208 13.9673 7.19324 13.8964 7.37172 13.8964C7.55019 13.8964 7.72135 13.9673 7.84755 14.0935C7.97375 14.2197 8.04465 14.3908 8.04465 14.5693C8.04465 14.6949 8.14425 14.7936 8.26717 14.7936C8.32666 14.7936 8.38371 14.77 8.42578 14.7279C8.46785 14.6859 8.49148 14.6288 8.49148 14.5693V14.0112C8.49058 13.5895 8.48969 13.2863 8.49597 12.6752C8.4968 12.5702 8.52223 12.4667 8.57022 12.3732C8.6182 12.2798 8.68742 12.1988 8.77232 12.1369C9.58163 11.5483 11.0118 10.5111 12.3218 9.56179C11.0425 7.97031 9.43924 6.66926 7.61844 5.7451C5.79764 4.82093 3.80102 4.29479 1.76124 4.20164L1.75944 15.9762Z" fill="#454555"/>
</svg>
