<svg width="51" height="44" viewBox="0 0 51 44" fill="none" xmlns="http://www.w3.org/2000/svg">
<path d="M1.73935 20.8688C1.73935 9.99051 10.8972 1.17187 22.1939 1.17187C33.4906 1.17187 42.6484 9.99051 42.6484 20.8688" stroke="white" stroke-width="2.08333" stroke-linecap="round"/>
<path d="M49.7227 18.8438L43.3124 25.8368L42.7782 26.4195L35.8338 18.8437L49.7227 18.8438Z" fill="white" stroke="white" stroke-width="0.694444"/>
<path d="M34.793 37.9792C34.793 37.9792 31.668 41.1042 27.5013 41.4514M11.5291 38.8807C13.6124 40.7569 19.168 42.1458 21.5985 42.1458M2.15408 24.4375C2.15408 24.4375 2.15408 31.3819 7.01519 35.5486" stroke="white" stroke-width="2.08333" stroke-linecap="round"/>
<path d="M24.438 13.7385L23.288 14.6552L25.1547 16.8885L15.0547 16.8885L15.0547 18.5385L27.3714 18.5385L27.3714 17.2219L24.438 13.7385ZM14.8547 25.7676C14.8547 29.3342 18.238 30.5676 21.2214 30.5676C24.2047 30.5676 27.588 29.3342 27.588 25.7676C27.588 24.0509 26.7714 22.7342 25.5047 22.0009C24.238 21.2842 22.8047 20.9509 21.2214 20.9509C19.638 20.9509 18.2047 21.2842 16.938 22.0009C15.6714 22.7342 14.8547 24.0509 14.8547 25.7676ZM21.2214 28.8842C19.8047 28.8842 18.6547 28.6342 17.7547 28.1176C16.8547 27.6009 16.4047 26.8176 16.4047 25.7676C16.4047 24.7176 16.8547 23.9342 17.7547 23.4176C18.6547 22.9009 19.8047 22.6509 21.2214 22.6509C22.6214 22.6509 23.7714 22.9009 24.6714 23.4176C25.588 23.9342 26.038 24.7176 26.038 25.7676C26.038 26.8176 25.588 27.6009 24.6714 28.1176C23.7714 28.6342 22.6214 28.8842 21.2214 28.8842Z" fill="white"/>
</svg>
