<svg width="19" height="16" viewBox="0 0 19 16" fill="none" xmlns="http://www.w3.org/2000/svg">
<path d="M8.83887 15.7776C8.67332 15.7767 8.51009 15.7387 8.3611 15.6665C8.19118 15.5664 8.0553 15.4175 7.97109 15.2392C7.88688 15.0609 7.85823 14.8614 7.88887 14.6665V10.9443L1.87221 15.5443C1.71249 15.6708 1.52022 15.7494 1.31766 15.771C1.11511 15.7926 0.910575 15.7564 0.727762 15.6665C0.541796 15.5741 0.385447 15.4315 0.27645 15.2547C0.167452 15.078 0.110168 14.8742 0.111095 14.6665V1.3332C0.110168 1.12555 0.167452 0.921787 0.27645 0.745034C0.385447 0.568281 0.541796 0.42561 0.727762 0.333204C0.910408 0.242679 1.11508 0.206096 1.31777 0.227743C1.52047 0.24939 1.7128 0.328371 1.87221 0.455426L7.88887 5.04987V1.3332C7.85941 1.13925 7.88863 0.940919 7.97278 0.763706C8.05693 0.586494 8.19217 0.438502 8.3611 0.33876C8.54374 0.248235 8.74841 0.211652 8.95111 0.233299C9.1538 0.254946 9.34613 0.333926 9.50554 0.460982L18.0167 7.12765C18.1495 7.23158 18.2569 7.36438 18.3307 7.51598C18.4046 7.66759 18.443 7.83401 18.443 8.00265C18.443 8.17129 18.4046 8.33771 18.3307 8.48931C18.2569 8.64091 18.1495 8.77372 18.0167 8.87765L9.50554 15.5443C9.31461 15.6925 9.08056 15.7745 8.83887 15.7776Z" fill="#454555" fill-opacity="0.7"/>
</svg>
