<svg width="46" height="48" viewBox="0 0 46 48" fill="none" xmlns="http://www.w3.org/2000/svg">
<path d="M6.43389 0H38.9648C42.5071 0 45.3987 2.94986 45.3987 6.56343V40.708C45.3987 44.3216 42.5071 47.2715 38.9648 47.2715H6.43389C2.89164 47.2715 0 44.3216 0 40.708V6.48968C0 2.94986 2.89164 0 6.43389 0Z" fill="#4A566E"/>
<path d="M21.0367 30.9L11.4943 21.1655L0 32.8912V35.3248V40.6345C0 44.2481 2.89164 47.198 6.43389 47.198H38.9648C42.5071 47.198 45.3987 44.2481 45.3987 40.6345V35.3248V28.0239L34.6273 16.9619L21.0367 30.9Z" fill="#77BAFF"/>
<path d="M20.7475 19.7635C22.9833 19.7635 24.7958 17.9145 24.7958 15.6337C24.7958 13.3529 22.9833 11.5039 20.7475 11.5039C18.5117 11.5039 16.6992 13.3529 16.6992 15.6337C16.6992 17.9145 18.5117 19.7635 20.7475 19.7635Z" fill="#FFD270"/>
</svg>
