<svg viewBox="0 0 21 21" fill="none" xmlns="http://www.w3.org/2000/svg">
<path fill-rule="evenodd" clip-rule="evenodd" d="M14.553 1H5.901C2.889 1 1 3.134 1 6.154V14.3C1 17.32 2.881 19.454 5.901 19.454H14.548C17.573 19.454 19.453 17.32 19.453 14.3V6.154C19.457 3.134 17.576 1 14.553 1Z" stroke="#093731" stroke-width="1.5" stroke-linecap="round" stroke-linejoin="round"/>
<path fill-rule="evenodd" clip-rule="evenodd" d="M8.95372 7.0352C8.95372 8.0552 8.12772 8.8812 7.10772 8.8812C6.08872 8.8812 5.26172 8.0552 5.26172 7.0352C5.26172 6.0152 6.08872 5.1892 7.10772 5.1892C8.12672 5.1902 8.95272 6.0162 8.95372 7.0352Z" stroke="#093731" stroke-width="1.5" stroke-linecap="round" stroke-linejoin="round"/>
<path d="M19.457 13.2012C18.534 12.2512 16.759 10.3322 14.829 10.3322C12.898 10.3322 11.785 14.5652 9.928 14.5652C8.071 14.5652 6.384 12.6512 4.896 13.8782C3.408 15.1042 2 17.6112 2 17.6112" stroke="#093731" stroke-width="1.5" stroke-linecap="round" stroke-linejoin="round"/>
</svg>
