<svg xmlns="http://www.w3.org/2000/svg" xmlns:xlink="http://www.w3.org/1999/xlink" width="16" height="13.333" viewBox="0 0 16 13.333">
  <defs>
    <filter id="Icon_material-perm-media" x="0" y="0" width="16" height="13.333" filterUnits="userSpaceOnUse">
      <feOffset dy="3" input="SourceAlpha"/>
      <feGaussianBlur stdDeviation="3" result="blur"/>
      <feFlood flood-opacity="0.161" result="color"/>
      <feComposite operator="out" in="SourceGraphic" in2="blur"/>
      <feComposite operator="in" in="color"/>
      <feComposite operator="in" in2="SourceGraphic"/>
    </filter>
  </defs>
  <g data-type="innerShadowGroup">
    <path id="Icon_material-perm-media-2" data-name="Icon material-perm-media" d="M1.333,5.667H0V9H.007L0,15a1.337,1.337,0,0,0,1.333,1.333h12V15h-12ZM14.667,4.333H9.333L8,3H4A1.332,1.332,0,0,0,2.673,4.333l-.007,8A1.337,1.337,0,0,0,4,13.667H14.667A1.337,1.337,0,0,0,16,12.333V5.667A1.337,1.337,0,0,0,14.667,4.333Zm-10,7.333,3-4L10,10.673l1.667-2.007,2.333,3Z" transform="translate(0 -3)" fill="#3b4fff"/>
    <g transform="matrix(1, 0, 0, 1, 0, 0)" filter="url(#Icon_material-perm-media)">
      <path id="Icon_material-perm-media-3" data-name="Icon material-perm-media" d="M1.333,5.667H0V9H.007L0,15a1.337,1.337,0,0,0,1.333,1.333h12V15h-12ZM14.667,4.333H9.333L8,3H4A1.332,1.332,0,0,0,2.673,4.333l-.007,8A1.337,1.337,0,0,0,4,13.667H14.667A1.337,1.337,0,0,0,16,12.333V5.667A1.337,1.337,0,0,0,14.667,4.333Zm-10,7.333,3-4L10,10.673l1.667-2.007,2.333,3Z" transform="translate(0 -3)" fill="#3b4fff"/>
    </g>
  </g>
</svg>
