<svg width="18" height="18" viewBox="0 0 18 18" fill="none" xmlns="http://www.w3.org/2000/svg">
<path d="M17 13.8V4.2C17 3.35131 16.6629 2.53737 16.0627 1.93726C15.4626 1.33714 14.6487 1 13.8 1H4.2C3.35131 1 2.53737 1.33714 1.93726 1.93726C1.33714 2.53737 1 3.35131 1 4.2V13.8C1 14.6487 1.33714 15.4626 1.93726 16.0627C2.53737 16.6629 3.35131 17 4.2 17M17 13.8C17 14.6487 16.6629 15.4626 16.0627 16.0627C15.4626 16.6629 14.6487 17 13.8 17H4.2M17 13.8V13.9064C17 14.7269 16.6741 15.5137 16.0939 16.0939C15.5137 16.6741 14.7269 17 13.9064 17H4.2M17 13.8C17 13.4272 16.86 13.284 16.608 13.008L13.384 9.492C13.2337 9.32809 13.051 9.1973 12.8473 9.10798C12.6437 9.01865 12.4237 8.97275 12.2013 8.9732C11.979 8.97366 11.7592 9.02045 11.5559 9.1106C11.3526 9.20075 11.1704 9.33228 11.0208 9.4968L4.2 17M8.2 6.2C8.2 7.30457 7.30457 8.2 6.2 8.2C5.09543 8.2 4.2 7.30457 4.2 6.2C4.2 5.09543 5.09543 4.2 6.2 4.2C7.30457 4.2 8.2 5.09543 8.2 6.2Z" stroke="white" stroke-width="1.5" stroke-linecap="round" stroke-linejoin="round"/>
</svg>
