<svg width="14" height="19" viewBox="0 0 14 19" fill="none" xmlns="http://www.w3.org/2000/svg">
<path fill-rule="evenodd" clip-rule="evenodd" d="M8.74951 1.1875C8.59479 1.1875 8.4464 1.12494 8.33699 1.01359C8.22759 0.902245 8.16612 0.751222 8.16612 0.59375C8.16612 0.436278 8.22759 0.285255 8.33699 0.173905C8.4464 0.0625556 8.59479 0 8.74951 0L13.4166 0C13.5713 0 13.7197 0.0625556 13.8291 0.173905C13.9385 0.285255 14 0.436278 14 0.59375V5.34375C14 5.50122 13.9385 5.65225 13.8291 5.76359C13.7197 5.87494 13.5713 5.9375 13.4166 5.9375C13.2619 5.9375 13.1135 5.87494 13.0041 5.76359C12.8947 5.65225 12.8332 5.50122 12.8332 5.34375V2.02706L8.80785 6.12394C9.15469 6.8033 9.33504 7.55793 9.33354 8.32353C9.33204 9.08913 9.14873 9.84302 8.79922 10.521C8.44972 11.1989 7.94438 11.7808 7.32626 12.2172C6.70813 12.6535 5.99554 12.9313 5.24919 13.0269V15.4375H6.99935C7.15407 15.4375 7.30246 15.5001 7.41187 15.6114C7.52127 15.7228 7.58274 15.8738 7.58274 16.0312C7.58274 16.1887 7.52127 16.3397 7.41187 16.4511C7.30246 16.5624 7.15407 16.625 6.99935 16.625H5.24919V18.4062C5.24919 18.5637 5.18772 18.7147 5.07832 18.8261C4.96891 18.9374 4.82052 19 4.6658 19C4.51107 19 4.36269 18.9374 4.25328 18.8261C4.14387 18.7147 4.08241 18.5637 4.08241 18.4062V16.625H2.33225C2.17752 16.625 2.02914 16.5624 1.91973 16.4511C1.81032 16.3397 1.74886 16.1887 1.74886 16.0312C1.74886 15.8738 1.81032 15.7228 1.91973 15.6114C2.02914 15.5001 2.17752 15.4375 2.33225 15.4375H4.08241V13.0269C3.33549 12.9309 2.62247 12.6524 2.00419 12.2152C1.38591 11.778 0.880721 11.1951 0.531732 10.5162C0.182743 9.83726 0.000310246 9.08248 3.95358e-07 8.31625C-0.000309455 7.55003 0.181513 6.7951 0.529953 6.11588C0.878393 5.43665 1.38311 4.85331 2.00103 4.4156C2.61896 3.9779 3.33175 3.69883 4.0786 3.60221C4.82544 3.50559 5.58417 3.59429 6.29004 3.86074C6.99591 4.12719 7.62797 4.56347 8.13229 5.13238L12.0083 1.1875H8.74951ZM7.58624 6.34838C7.07425 5.56007 6.27555 5.01105 5.36584 4.82209C4.45613 4.63313 3.50992 4.81971 2.73537 5.34078C1.96082 5.86186 1.42138 6.67474 1.23572 7.60062C1.05005 8.52649 1.23338 9.48951 1.74536 10.2778C2.2575 11.0661 3.05634 11.6151 3.96617 11.8039C4.87599 11.9928 5.82226 11.806 6.59681 11.2848C7.37136 10.7636 7.91074 9.95054 8.09629 9.02456C8.28185 8.09857 8.09837 7.13549 7.58624 6.34719V6.34838Z" fill="#251F39" fill-opacity="0.5"/>
</svg>
