<svg  viewBox="0 0 120 116" fill="none" xmlns="http://www.w3.org/2000/svg">
<ellipse cx="60" cy="58" rx="60" ry="58" fill="#1B433B"/>
<path fill-rule="evenodd" clip-rule="evenodd" d="M37.9823 89.4854C41.2865 89.4854 43.9645 86.8073 43.9645 83.5031C43.9645 78.7931 43.9645 72.2604 43.9645 67.5504C43.9645 64.2462 41.2865 61.5681 37.9823 61.5681C34.6801 61.5681 32 64.2462 32 67.5504V83.5031C32 86.8073 34.6801 89.4854 37.9823 89.4854Z" fill="#CCF005"/>
<path fill-rule="evenodd" clip-rule="evenodd" d="M51.9413 63.5623C49.7398 63.5623 47.9531 65.347 47.9531 67.5505C47.9531 71.9056 47.9531 79.1481 47.9531 83.5032C47.9531 84.56 48.3739 85.575 49.1217 86.3228C49.8694 87.0726 50.8844 87.4914 51.9413 87.4914C57.6723 87.4914 66.0056 87.4914 70.1214 87.4914C71.8044 87.4914 73.4097 86.7815 74.5443 85.5372L83.7829 75.3912C87.7053 71.4509 88.2217 67.9134 87.4321 65.6102C86.0701 61.626 80.5325 60.0686 76.4546 64.1466C76.4546 64.1466 69.8402 71.2794 67.0844 74.2506C66.3306 75.0642 65.2698 75.5268 64.1611 75.5268C61.814 75.5268 57.9236 75.5268 57.9236 75.5268C56.8228 75.5268 55.9295 74.6335 55.9295 73.5327C55.9295 72.432 56.8228 71.5386 57.9236 71.5386H61.9117C68.8731 71.5386 68.8751 63.5623 61.9137 63.5623H51.9413Z" fill="#CCF005"/>
<path fill-rule="evenodd" clip-rule="evenodd" d="M70.0191 63.5803V55.3826H66.0309V60.2841C67.8834 61.0019 69.1935 62.2003 70.0191 63.5803ZM83.9777 57.939C80.821 57.2331 77.1758 58.0088 74.0072 60.966V55.3826H83.9777V57.939ZM62.0427 59.5761V55.3826H52.0723V59.5741L62.0427 59.5761Z" fill="#CCF005"/>
<path fill-rule="evenodd" clip-rule="evenodd" d="M52.0715 51.3944H62.0419V43.418H66.0301V51.3944H70.0183V43.418H74.0064V51.3944H84.0108C85.0676 51.3944 86.0826 50.9736 86.8304 50.2258C87.5782 49.4781 87.999 48.4631 87.999 47.4062V43.418C87.999 42.3612 87.5782 41.3462 86.8304 40.5984C86.0826 39.8506 85.0676 39.4299 84.0108 39.4299H77.8391C77.8989 39.3481 77.9547 39.2683 78.0026 39.1906C79.4782 36.8296 78.5011 33.4516 75.4143 31.8065C72.471 30.2371 68.9893 31.0726 67.5835 33.3239C67.5376 33.3977 67.4898 33.4755 67.4439 33.5613C67.3981 33.4755 67.3522 33.3977 67.3063 33.3239C65.8985 31.0726 62.4168 30.2371 59.4755 31.8065C56.3887 33.4516 55.4096 36.8296 56.8852 39.1906C56.9351 39.2683 56.9889 39.3481 57.0507 39.4299H52.1054C51.0465 39.4299 50.0335 39.8506 49.2837 40.5984C48.5359 41.3462 48.1172 42.3612 48.1172 43.418V47.4062C48.1172 48.4631 48.5359 49.4781 49.2837 50.2258C50.0255 50.9657 51.0266 51.3864 52.0715 51.3944ZM70.5268 39.4299H70.2815C70.2456 39.2843 70.1659 38.9513 70.1599 38.7239C70.132 37.5295 70.5487 36.1037 70.9655 35.4377C71.133 35.1665 71.46 35.0509 71.803 34.997C72.3513 34.9113 72.9715 35.0229 73.5379 35.324C74.0523 35.5992 74.4432 35.9861 74.6206 36.4248C74.7084 36.6441 74.7443 36.8794 74.6206 37.0768C74.2059 37.7409 72.8698 38.6322 71.5956 39.1328C71.2785 39.2564 70.9615 39.3541 70.6603 39.4019C70.6145 39.4099 70.5706 39.4199 70.5268 39.4299ZM64.6063 39.4299H64.361C64.3191 39.4199 64.2733 39.4099 64.2274 39.4019C63.9263 39.3541 63.6112 39.2564 63.2942 39.1328C62.02 38.6322 60.6839 37.7409 60.2671 37.0768C60.1455 36.8794 60.1814 36.6441 60.2692 36.4248C60.4446 35.9861 60.8355 35.5992 61.3519 35.324C61.9163 35.0229 62.5365 34.9113 63.0848 34.997C63.4278 35.0509 63.7548 35.1665 63.9243 35.4377C64.3411 36.1037 64.7578 37.5295 64.7279 38.7239C64.7219 38.9513 64.6442 39.2843 64.6063 39.4299Z" fill="#CCF005"/>
</svg>
