<svg width="50" height="50" viewBox="0 0 50 50" fill="none" xmlns="http://www.w3.org/2000/svg">
<rect x="0.4" y="0.4" width="49.2" height="49.2" rx="13.6" stroke="#454555" stroke-opacity="0.2" stroke-width="0.8"/>
<path d="M33.1712 23.3682H32.5V23.3337H25V26.667H29.7095C29.0225 28.6074 27.1762 30.0003 25 30.0003C22.2387 30.0003 20 27.7616 20 25.0003C20 22.2391 22.2387 20.0003 25 20.0003C26.2745 20.0003 27.4341 20.4812 28.317 21.2666L30.6741 18.9095C29.1858 17.5224 27.195 16.667 25 16.667C20.3979 16.667 16.6666 20.3982 16.6666 25.0003C16.6666 29.6024 20.3979 33.3337 25 33.3337C29.602 33.3337 33.3333 29.6024 33.3333 25.0003C33.3333 24.4416 33.2758 23.8962 33.1712 23.3682Z" fill="#FFC107"/>
<path d="M17.6274 21.1216L20.3654 23.1295C21.1062 21.2953 22.9004 20.0003 24.9999 20.0003C26.2745 20.0003 27.4341 20.4812 28.317 21.2666L30.6741 18.9095C29.1858 17.5224 27.1949 16.667 24.9999 16.667C21.7991 16.667 19.0233 18.4741 17.6274 21.1216Z" fill="#FF3D00"/>
<path d="M25 33.3336C27.1525 33.3336 29.1084 32.5099 30.5871 31.1703L28.008 28.9878C27.1432 29.6454 26.0865 30.0011 25 30.0003C22.8325 30.0003 20.9921 28.6182 20.2988 26.6895L17.5813 28.7832C18.9605 31.482 21.7613 33.3336 25 33.3336Z" fill="#4CAF50"/>
<path d="M33.1713 23.3676H32.5V23.333H25V26.6663H29.7096C29.3809 27.5898 28.7889 28.3968 28.0067 28.9876L28.0079 28.9868L30.5871 31.1693C30.4046 31.3351 33.3333 29.1663 33.3333 24.9997C33.3333 24.4409 33.2758 23.8955 33.1713 23.3676Z" fill="#1976D2"/>
</svg>
