<svg width="16" height="11" viewBox="0 0 16 11" fill="none" xmlns="http://www.w3.org/2000/svg">
<path d="M15.962 0.309C15.9242 0.217564 15.8602 0.139396 15.7779 0.0843906C15.6957 0.0293855 15.599 1.60608e-05 15.5 0H9.50002C9.36741 0 9.24024 0.0526785 9.14647 0.146447C9.0527 0.240215 9.00002 0.367392 9.00002 0.5C9.00002 0.632608 9.0527 0.759785 9.14647 0.853553C9.24024 0.947321 9.36741 1 9.50002 1H14.293L8.50002 6.793L6.35402 4.646C6.30758 4.59944 6.2524 4.56249 6.19165 4.53729C6.13091 4.51208 6.06579 4.49911 6.00002 4.49911C5.93425 4.49911 5.86913 4.51208 5.80839 4.53729C5.74764 4.56249 5.69247 4.59944 5.64602 4.646L0.146021 10.146C0.0521345 10.2399 -0.000610355 10.3672 -0.000610352 10.5C-0.000610348 10.6328 0.0521345 10.7601 0.146021 10.854C0.239908 10.9479 0.367245 11.0006 0.500021 11.0006C0.632797 11.0006 0.760135 10.9479 0.854021 10.854L6.00002 5.707L8.14602 7.854C8.19247 7.90056 8.24764 7.93751 8.30839 7.96271C8.36913 7.98792 8.43425 8.00089 8.50002 8.00089C8.56579 8.00089 8.63091 7.98792 8.69165 7.96271C8.7524 7.93751 8.80758 7.90056 8.85402 7.854L15 1.707V6.5C15 6.63261 15.0527 6.75979 15.1465 6.85355C15.2402 6.94732 15.3674 7 15.5 7C15.6326 7 15.7598 6.94732 15.8536 6.85355C15.9473 6.75979 16 6.63261 16 6.5V0.5C16 0.434458 15.9871 0.369561 15.962 0.309Z" fill="#888787"/>
</svg>
