<svg viewBox="0 0 360 52" fill="none" xmlns="http://www.w3.org/2000/svg">
<path d="M45.266 9.555C46.274 9.555 47.037 9.772 47.555 10.206C48.087 10.64 48.451 11.221 48.647 11.949C48.843 12.663 48.941 13.461 48.941 14.343V19.719C48.941 20.083 48.822 20.391 48.584 20.643C48.346 20.881 48.045 21 47.681 21C47.317 21 47.016 20.881 46.778 20.643C46.54 20.391 46.421 20.083 46.421 19.719V14.343C46.421 13.881 46.365 13.468 46.253 13.104C46.141 12.726 45.938 12.425 45.644 12.201C45.35 11.977 44.93 11.865 44.384 11.865C43.852 11.865 43.397 11.977 43.019 12.201C42.641 12.425 42.354 12.726 42.158 13.104C41.976 13.468 41.885 13.881 41.885 14.343V19.719C41.885 20.083 41.766 20.391 41.528 20.643C41.29 20.881 40.989 21 40.625 21C40.261 21 39.96 20.881 39.722 20.643C39.484 20.391 39.365 20.083 39.365 19.719V6.741C39.365 6.377 39.484 6.076 39.722 5.838C39.96 5.586 40.261 5.46 40.625 5.46C40.989 5.46 41.29 5.586 41.528 5.838C41.766 6.076 41.885 6.377 41.885 6.741V11.949L41.57 11.886C41.696 11.648 41.871 11.396 42.095 11.13C42.319 10.85 42.592 10.591 42.914 10.353C43.236 10.115 43.593 9.926 43.985 9.786C44.377 9.632 44.804 9.555 45.266 9.555ZM60.8677 9.555C61.2317 9.555 61.5327 9.674 61.7707 9.912C62.0087 10.15 62.1277 10.458 62.1277 10.836V19.719C62.1277 20.083 62.0087 20.391 61.7707 20.643C61.5327 20.881 61.2317 21 60.8677 21C60.5037 21 60.2027 20.881 59.9647 20.643C59.7267 20.391 59.6077 20.083 59.6077 19.719V18.69L60.0697 18.879C60.0697 19.061 59.9717 19.285 59.7757 19.551C59.5797 19.803 59.3137 20.055 58.9777 20.307C58.6417 20.559 58.2427 20.776 57.7807 20.958C57.3327 21.126 56.8427 21.21 56.3107 21.21C55.3447 21.21 54.4697 20.965 53.6857 20.475C52.9017 19.971 52.2787 19.285 51.8167 18.417C51.3687 17.535 51.1447 16.527 51.1447 15.393C51.1447 14.245 51.3687 13.237 51.8167 12.369C52.2787 11.487 52.8947 10.801 53.6647 10.311C54.4347 9.807 55.2887 9.555 56.2267 9.555C56.8287 9.555 57.3817 9.646 57.8857 9.828C58.3897 10.01 58.8237 10.241 59.1877 10.521C59.5657 10.801 59.8527 11.088 60.0487 11.382C60.2587 11.662 60.3637 11.9 60.3637 12.096L59.6077 12.369V10.836C59.6077 10.472 59.7267 10.171 59.9647 9.933C60.2027 9.681 60.5037 9.555 60.8677 9.555ZM56.6257 18.9C57.2417 18.9 57.7807 18.746 58.2427 18.438C58.7047 18.13 59.0617 17.71 59.3137 17.178C59.5797 16.646 59.7127 16.051 59.7127 15.393C59.7127 14.721 59.5797 14.119 59.3137 13.587C59.0617 13.055 58.7047 12.635 58.2427 12.327C57.7807 12.019 57.2417 11.865 56.6257 11.865C56.0237 11.865 55.4917 12.019 55.0297 12.327C54.5677 12.635 54.2037 13.055 53.9377 13.587C53.6857 14.119 53.5597 14.721 53.5597 15.393C53.5597 16.051 53.6857 16.646 53.9377 17.178C54.2037 17.71 54.5677 18.13 55.0297 18.438C55.4917 18.746 56.0237 18.9 56.6257 18.9ZM70.8622 9.555C71.8982 9.555 72.6822 9.772 73.2142 10.206C73.7602 10.64 74.1312 11.221 74.3272 11.949C74.5372 12.663 74.6422 13.461 74.6422 14.343V19.719C74.6422 20.083 74.5232 20.391 74.2852 20.643C74.0472 20.881 73.7462 21 73.3822 21C73.0182 21 72.7172 20.881 72.4792 20.643C72.2412 20.391 72.1222 20.083 72.1222 19.719V14.343C72.1222 13.881 72.0592 13.468 71.9332 13.104C71.8212 12.726 71.6112 12.425 71.3032 12.201C70.9952 11.977 70.5542 11.865 69.9802 11.865C69.4202 11.865 68.9442 11.977 68.5522 12.201C68.1742 12.425 67.8802 12.726 67.6702 13.104C67.4742 13.468 67.3762 13.881 67.3762 14.343V19.719C67.3762 20.083 67.2572 20.391 67.0192 20.643C66.7812 20.881 66.4802 21 66.1162 21C65.7522 21 65.4512 20.881 65.2132 20.643C64.9752 20.391 64.8562 20.083 64.8562 19.719V11.046C64.8562 10.682 64.9752 10.381 65.2132 10.143C65.4512 9.891 65.7522 9.765 66.1162 9.765C66.4802 9.765 66.7812 9.891 67.0192 10.143C67.2572 10.381 67.3762 10.682 67.3762 11.046V11.949L67.0612 11.886C67.1872 11.648 67.3692 11.396 67.6072 11.13C67.8452 10.85 68.1252 10.591 68.4472 10.353C68.7692 10.115 69.1332 9.926 69.5392 9.786C69.9452 9.632 70.3862 9.555 70.8622 9.555ZM86.564 5.46C86.928 5.46 87.229 5.579 87.467 5.817C87.705 6.055 87.824 6.363 87.824 6.741V19.719C87.824 20.083 87.705 20.391 87.467 20.643C87.229 20.881 86.928 21 86.564 21C86.2 21 85.899 20.881 85.661 20.643C85.423 20.391 85.304 20.083 85.304 19.719V18.69L85.766 18.879C85.766 19.061 85.668 19.285 85.472 19.551C85.276 19.803 85.01 20.055 84.674 20.307C84.338 20.559 83.939 20.776 83.477 20.958C83.029 21.126 82.539 21.21 82.007 21.21C81.041 21.21 80.166 20.965 79.382 20.475C78.598 19.971 77.975 19.285 77.513 18.417C77.065 17.535 76.841 16.527 76.841 15.393C76.841 14.245 77.065 13.237 77.513 12.369C77.975 11.487 78.591 10.801 79.361 10.311C80.131 9.807 80.985 9.555 81.923 9.555C82.525 9.555 83.078 9.646 83.582 9.828C84.086 10.01 84.52 10.241 84.884 10.521C85.262 10.801 85.549 11.088 85.745 11.382C85.955 11.662 86.06 11.9 86.06 12.096L85.304 12.369V6.741C85.304 6.377 85.423 6.076 85.661 5.838C85.899 5.586 86.2 5.46 86.564 5.46ZM82.322 18.9C82.938 18.9 83.477 18.746 83.939 18.438C84.401 18.13 84.758 17.71 85.01 17.178C85.276 16.646 85.409 16.051 85.409 15.393C85.409 14.721 85.276 14.119 85.01 13.587C84.758 13.055 84.401 12.635 83.939 12.327C83.477 12.019 82.938 11.865 82.322 11.865C81.72 11.865 81.188 12.019 80.726 12.327C80.264 12.635 79.9 13.055 79.634 13.587C79.382 14.119 79.256 14.721 79.256 15.393C79.256 16.051 79.382 16.646 79.634 17.178C79.9 17.71 80.264 18.13 80.726 18.438C81.188 18.746 81.72 18.9 82.322 18.9ZM95.5505 9.555C96.3485 9.555 97.0415 9.639 97.6295 9.807C98.2315 9.975 98.6935 10.213 99.0155 10.521C99.3515 10.815 99.5195 11.172 99.5195 11.592C99.5195 11.872 99.4355 12.138 99.2675 12.39C99.0995 12.628 98.8545 12.747 98.5325 12.747C98.3085 12.747 98.1195 12.719 97.9655 12.663C97.8255 12.593 97.6995 12.509 97.5875 12.411C97.4755 12.313 97.3425 12.222 97.1885 12.138C97.0485 12.054 96.8315 11.991 96.5375 11.949C96.2575 11.893 96.0475 11.865 95.9075 11.865C95.1935 11.865 94.5845 12.019 94.0805 12.327C93.5905 12.635 93.2125 13.055 92.9465 13.587C92.6805 14.105 92.5475 14.707 92.5475 15.393C92.5475 16.065 92.6805 16.667 92.9465 17.199C93.2265 17.717 93.6045 18.13 94.0805 18.438C94.5705 18.746 95.1305 18.9 95.7605 18.9C96.1105 18.9 96.4115 18.879 96.6635 18.837C96.9155 18.795 97.1255 18.732 97.2935 18.648C97.4895 18.536 97.6645 18.417 97.8185 18.291C97.9725 18.165 98.2035 18.102 98.5115 18.102C98.8755 18.102 99.1555 18.221 99.3515 18.459C99.5475 18.683 99.6455 18.963 99.6455 19.299C99.6455 19.649 99.4495 19.971 99.0575 20.265C98.6655 20.545 98.1475 20.776 97.5035 20.958C96.8735 21.126 96.1875 21.21 95.4455 21.21C94.3395 21.21 93.3805 20.958 92.5685 20.454C91.7565 19.936 91.1265 19.236 90.6785 18.354C90.2445 17.472 90.0275 16.485 90.0275 15.393C90.0275 14.245 90.2585 13.237 90.7205 12.369C91.1965 11.487 91.8475 10.801 92.6735 10.311C93.5135 9.807 94.4725 9.555 95.5505 9.555ZM102.723 21C102.359 21 102.058 20.881 101.82 20.643C101.582 20.391 101.463 20.083 101.463 19.719V11.046C101.463 10.682 101.582 10.381 101.82 10.143C102.058 9.891 102.359 9.765 102.723 9.765C103.087 9.765 103.388 9.891 103.626 10.143C103.864 10.381 103.983 10.682 103.983 11.046V13.02L103.836 11.613C103.99 11.277 104.186 10.983 104.424 10.731C104.676 10.465 104.956 10.248 105.264 10.08C105.572 9.898 105.901 9.765 106.251 9.681C106.601 9.597 106.951 9.555 107.301 9.555C107.721 9.555 108.071 9.674 108.351 9.912C108.645 10.15 108.792 10.43 108.792 10.752C108.792 11.214 108.673 11.55 108.435 11.76C108.197 11.956 107.938 12.054 107.658 12.054C107.392 12.054 107.147 12.005 106.923 11.907C106.713 11.809 106.468 11.76 106.188 11.76C105.936 11.76 105.677 11.823 105.411 11.949C105.159 12.061 104.921 12.243 104.697 12.495C104.487 12.747 104.312 13.062 104.172 13.44C104.046 13.804 103.983 14.238 103.983 14.742V19.719C103.983 20.083 103.864 20.391 103.626 20.643C103.388 20.881 103.087 21 102.723 21ZM119.52 9.555C119.884 9.555 120.185 9.674 120.423 9.912C120.661 10.15 120.78 10.458 120.78 10.836V19.719C120.78 20.083 120.661 20.391 120.423 20.643C120.185 20.881 119.884 21 119.52 21C119.156 21 118.855 20.881 118.617 20.643C118.379 20.391 118.26 20.083 118.26 19.719V18.69L118.722 18.879C118.722 19.061 118.624 19.285 118.428 19.551C118.232 19.803 117.966 20.055 117.63 20.307C117.294 20.559 116.895 20.776 116.433 20.958C115.985 21.126 115.495 21.21 114.963 21.21C113.997 21.21 113.122 20.965 112.338 20.475C111.554 19.971 110.931 19.285 110.469 18.417C110.021 17.535 109.797 16.527 109.797 15.393C109.797 14.245 110.021 13.237 110.469 12.369C110.931 11.487 111.547 10.801 112.317 10.311C113.087 9.807 113.941 9.555 114.879 9.555C115.481 9.555 116.034 9.646 116.538 9.828C117.042 10.01 117.476 10.241 117.84 10.521C118.218 10.801 118.505 11.088 118.701 11.382C118.911 11.662 119.016 11.9 119.016 12.096L118.26 12.369V10.836C118.26 10.472 118.379 10.171 118.617 9.933C118.855 9.681 119.156 9.555 119.52 9.555ZM115.278 18.9C115.894 18.9 116.433 18.746 116.895 18.438C117.357 18.13 117.714 17.71 117.966 17.178C118.232 16.646 118.365 16.051 118.365 15.393C118.365 14.721 118.232 14.119 117.966 13.587C117.714 13.055 117.357 12.635 116.895 12.327C116.433 12.019 115.894 11.865 115.278 11.865C114.676 11.865 114.144 12.019 113.682 12.327C113.22 12.635 112.856 13.055 112.59 13.587C112.338 14.119 112.212 14.721 112.212 15.393C112.212 16.051 112.338 16.646 112.59 17.178C112.856 17.71 113.22 18.13 113.682 18.438C114.144 18.746 114.676 18.9 115.278 18.9ZM129.284 5.46C129.592 5.46 129.893 5.502 130.187 5.586C130.481 5.67 130.726 5.81 130.922 6.006C131.118 6.188 131.216 6.433 131.216 6.741C131.216 7.091 131.111 7.371 130.901 7.581C130.705 7.777 130.474 7.875 130.208 7.875C130.082 7.875 129.893 7.847 129.641 7.791C129.389 7.721 129.144 7.686 128.906 7.686C128.556 7.686 128.283 7.763 128.087 7.917C127.905 8.071 127.779 8.253 127.709 8.463C127.639 8.659 127.604 8.834 127.604 8.988V19.719C127.604 20.083 127.485 20.391 127.247 20.643C127.009 20.881 126.708 21 126.344 21C125.98 21 125.679 20.881 125.441 20.643C125.203 20.391 125.084 20.083 125.084 19.719V9.009C125.084 8.015 125.434 7.175 126.134 6.489C126.834 5.803 127.884 5.46 129.284 5.46ZM129.515 9.975C129.851 9.975 130.131 10.087 130.355 10.311C130.579 10.521 130.691 10.794 130.691 11.13C130.691 11.466 130.579 11.746 130.355 11.97C130.131 12.18 129.851 12.285 129.515 12.285H123.95C123.614 12.285 123.334 12.18 123.11 11.97C122.886 11.746 122.774 11.466 122.774 11.13C122.774 10.794 122.886 10.521 123.11 10.311C123.334 10.087 123.614 9.975 123.95 9.975H129.515ZM132.863 9.975H137.84C138.176 9.975 138.456 10.087 138.68 10.311C138.904 10.535 139.016 10.815 139.016 11.151C139.016 11.473 138.904 11.746 138.68 11.97C138.456 12.18 138.176 12.285 137.84 12.285H132.863C132.527 12.285 132.247 12.173 132.023 11.949C131.799 11.725 131.687 11.445 131.687 11.109C131.687 10.787 131.799 10.521 132.023 10.311C132.247 10.087 132.527 9.975 132.863 9.975ZM135.11 7.35C135.474 7.35 135.768 7.476 135.992 7.728C136.23 7.966 136.349 8.267 136.349 8.631V17.976C136.349 18.172 136.384 18.333 136.454 18.459C136.538 18.585 136.643 18.676 136.769 18.732C136.909 18.788 137.056 18.816 137.21 18.816C137.378 18.816 137.532 18.788 137.672 18.732C137.812 18.662 137.973 18.627 138.155 18.627C138.351 18.627 138.526 18.718 138.68 18.9C138.848 19.082 138.932 19.334 138.932 19.656C138.932 20.048 138.715 20.37 138.281 20.622C137.861 20.874 137.406 21 136.916 21C136.622 21 136.293 20.979 135.929 20.937C135.579 20.881 135.243 20.762 134.921 20.58C134.613 20.384 134.354 20.09 134.144 19.698C133.934 19.306 133.829 18.767 133.829 18.081V8.631C133.829 8.267 133.948 7.966 134.186 7.728C134.438 7.476 134.746 7.35 135.11 7.35ZM146.519 21.21C145.329 21.21 144.293 20.965 143.411 20.475C142.543 19.971 141.871 19.292 141.395 18.438C140.933 17.584 140.702 16.618 140.702 15.54C140.702 14.28 140.954 13.209 141.458 12.327C141.976 11.431 142.648 10.745 143.474 10.269C144.3 9.793 145.175 9.555 146.099 9.555C146.813 9.555 147.485 9.702 148.115 9.996C148.759 10.29 149.326 10.696 149.816 11.214C150.306 11.718 150.691 12.306 150.971 12.978C151.265 13.65 151.412 14.364 151.412 15.12C151.398 15.456 151.265 15.729 151.013 15.939C150.761 16.149 150.467 16.254 150.131 16.254H142.109L141.479 14.154H149.186L148.724 14.574V14.007C148.696 13.601 148.549 13.237 148.283 12.915C148.031 12.593 147.709 12.341 147.317 12.159C146.939 11.963 146.533 11.865 146.099 11.865C145.679 11.865 145.287 11.921 144.923 12.033C144.559 12.145 144.244 12.334 143.978 12.6C143.712 12.866 143.502 13.223 143.348 13.671C143.194 14.119 143.117 14.686 143.117 15.372C143.117 16.128 143.271 16.772 143.579 17.304C143.901 17.822 144.307 18.221 144.797 18.501C145.301 18.767 145.833 18.9 146.393 18.9C146.911 18.9 147.324 18.858 147.632 18.774C147.94 18.69 148.185 18.592 148.367 18.48C148.563 18.354 148.738 18.249 148.892 18.165C149.144 18.039 149.382 17.976 149.606 17.976C149.914 17.976 150.166 18.081 150.362 18.291C150.572 18.501 150.677 18.746 150.677 19.026C150.677 19.404 150.481 19.747 150.089 20.055C149.725 20.363 149.214 20.636 148.556 20.874C147.898 21.098 147.219 21.21 146.519 21.21ZM162.812 5.46C163.176 5.46 163.477 5.579 163.715 5.817C163.953 6.055 164.072 6.363 164.072 6.741V19.719C164.072 20.083 163.953 20.391 163.715 20.643C163.477 20.881 163.176 21 162.812 21C162.448 21 162.147 20.881 161.909 20.643C161.671 20.391 161.552 20.083 161.552 19.719V18.69L162.014 18.879C162.014 19.061 161.916 19.285 161.72 19.551C161.524 19.803 161.258 20.055 160.922 20.307C160.586 20.559 160.187 20.776 159.725 20.958C159.277 21.126 158.787 21.21 158.255 21.21C157.289 21.21 156.414 20.965 155.63 20.475C154.846 19.971 154.223 19.285 153.761 18.417C153.313 17.535 153.089 16.527 153.089 15.393C153.089 14.245 153.313 13.237 153.761 12.369C154.223 11.487 154.839 10.801 155.609 10.311C156.379 9.807 157.233 9.555 158.171 9.555C158.773 9.555 159.326 9.646 159.83 9.828C160.334 10.01 160.768 10.241 161.132 10.521C161.51 10.801 161.797 11.088 161.993 11.382C162.203 11.662 162.308 11.9 162.308 12.096L161.552 12.369V6.741C161.552 6.377 161.671 6.076 161.909 5.838C162.147 5.586 162.448 5.46 162.812 5.46ZM158.57 18.9C159.186 18.9 159.725 18.746 160.187 18.438C160.649 18.13 161.006 17.71 161.258 17.178C161.524 16.646 161.657 16.051 161.657 15.393C161.657 14.721 161.524 14.119 161.258 13.587C161.006 13.055 160.649 12.635 160.187 12.327C159.725 12.019 159.186 11.865 158.57 11.865C157.968 11.865 157.436 12.019 156.974 12.327C156.512 12.635 156.148 13.055 155.882 13.587C155.63 14.119 155.504 14.721 155.504 15.393C155.504 16.051 155.63 16.646 155.882 17.178C156.148 17.71 156.512 18.13 156.974 18.438C157.436 18.746 157.968 18.9 158.57 18.9ZM41.738 45.719C41.738 46.083 41.619 46.391 41.381 46.643C41.143 46.881 40.842 47 40.478 47C40.114 47 39.813 46.881 39.575 46.643C39.337 46.391 39.218 46.083 39.218 45.719V37.046C39.218 36.682 39.337 36.381 39.575 36.143C39.813 35.891 40.114 35.765 40.478 35.765C40.842 35.765 41.143 35.891 41.381 36.143C41.619 36.381 41.738 36.682 41.738 37.046V45.719ZM40.457 34.4C39.981 34.4 39.645 34.323 39.449 34.169C39.253 34.015 39.155 33.742 39.155 33.35V32.951C39.155 32.545 39.26 32.272 39.47 32.132C39.694 31.978 40.03 31.901 40.478 31.901C40.968 31.901 41.311 31.978 41.507 32.132C41.703 32.286 41.801 32.559 41.801 32.951V33.35C41.801 33.756 41.696 34.036 41.486 34.19C41.276 34.33 40.933 34.4 40.457 34.4ZM50.3339 35.555C51.3699 35.555 52.1539 35.772 52.6859 36.206C53.2319 36.64 53.6029 37.221 53.7989 37.949C54.0089 38.663 54.1139 39.461 54.1139 40.343V45.719C54.1139 46.083 53.9949 46.391 53.7569 46.643C53.5189 46.881 53.2179 47 52.8539 47C52.4899 47 52.1889 46.881 51.9509 46.643C51.7129 46.391 51.5939 46.083 51.5939 45.719V40.343C51.5939 39.881 51.5309 39.468 51.4049 39.104C51.2929 38.726 51.0829 38.425 50.7749 38.201C50.4669 37.977 50.0259 37.865 49.4519 37.865C48.8919 37.865 48.4159 37.977 48.0239 38.201C47.6459 38.425 47.3519 38.726 47.1419 39.104C46.9459 39.468 46.8479 39.881 46.8479 40.343V45.719C46.8479 46.083 46.7289 46.391 46.4909 46.643C46.2529 46.881 45.9519 47 45.5879 47C45.2239 47 44.9229 46.881 44.6849 46.643C44.4469 46.391 44.3279 46.083 44.3279 45.719V37.046C44.3279 36.682 44.4469 36.381 44.6849 36.143C44.9229 35.891 45.2239 35.765 45.5879 35.765C45.9519 35.765 46.2529 35.891 46.4909 36.143C46.7289 36.381 46.8479 36.682 46.8479 37.046V37.949L46.5329 37.886C46.6589 37.648 46.8409 37.396 47.0789 37.13C47.3169 36.85 47.5969 36.591 47.9189 36.353C48.2409 36.115 48.6049 35.926 49.0109 35.786C49.4169 35.632 49.8579 35.555 50.3339 35.555ZM65.5584 45.719C65.5584 46.083 65.4254 46.391 65.1594 46.643C64.8934 46.881 64.5854 47 64.2354 47C63.8434 47 63.5284 46.881 63.2904 46.643C63.0524 46.391 62.9334 46.083 62.9334 45.719V33.581C62.9334 33.217 63.0594 32.916 63.3114 32.678C63.5634 32.426 63.8854 32.3 64.2774 32.3C64.6134 32.3 64.9074 32.426 65.1594 32.678C65.4254 32.916 65.5584 33.217 65.5584 33.581V45.719ZM79.8676 32.3C80.2036 32.3 80.4766 32.412 80.6866 32.636C80.8966 32.86 81.0016 33.14 81.0016 33.476V45.719C81.0016 46.083 80.8756 46.391 80.6236 46.643C80.3856 46.881 80.0846 47 79.7206 47C79.5386 47 79.3496 46.972 79.1536 46.916C78.9716 46.846 78.8316 46.755 78.7336 46.643L70.4806 36.164L71.0266 35.828V45.824C71.0266 46.16 70.9146 46.44 70.6906 46.664C70.4806 46.888 70.2006 47 69.8506 47C69.5146 47 69.2416 46.888 69.0316 46.664C68.8216 46.44 68.7166 46.16 68.7166 45.824V33.581C68.7166 33.217 68.8356 32.916 69.0736 32.678C69.3256 32.426 69.6336 32.3 69.9976 32.3C70.1936 32.3 70.3966 32.342 70.6066 32.426C70.8166 32.496 70.9706 32.608 71.0686 32.762L79.0696 42.968L78.7126 43.22V33.476C78.7126 33.14 78.8176 32.86 79.0276 32.636C79.2376 32.412 79.5176 32.3 79.8676 32.3ZM90.459 32.3C91.467 32.3 92.363 32.489 93.147 32.867C93.931 33.245 94.589 33.777 95.121 34.463C95.667 35.135 96.073 35.919 96.339 36.815C96.619 37.697 96.759 38.642 96.759 39.65C96.759 41.008 96.514 42.247 96.024 43.367C95.534 44.473 94.82 45.355 93.882 46.013C92.958 46.671 91.817 47 90.459 47H85.44C85.076 47 84.768 46.881 84.516 46.643C84.278 46.391 84.159 46.083 84.159 45.719V33.581C84.159 33.217 84.278 32.916 84.516 32.678C84.768 32.426 85.076 32.3 85.44 32.3H90.459ZM90.249 44.585C91.131 44.585 91.852 44.361 92.412 43.913C92.972 43.451 93.378 42.849 93.63 42.107C93.896 41.351 94.029 40.532 94.029 39.65C94.029 38.992 93.952 38.369 93.798 37.781C93.658 37.179 93.434 36.654 93.126 36.206C92.818 35.744 92.426 35.38 91.95 35.114C91.474 34.848 90.907 34.715 90.249 34.715H86.574L86.784 34.526V44.816L86.658 44.585H90.249ZM101.796 45.719C101.796 46.083 101.663 46.391 101.397 46.643C101.131 46.881 100.823 47 100.473 47C100.081 47 99.7657 46.881 99.5277 46.643C99.2897 46.391 99.1707 46.083 99.1707 45.719V33.581C99.1707 33.217 99.2967 32.916 99.5487 32.678C99.8007 32.426 100.123 32.3 100.515 32.3C100.851 32.3 101.145 32.426 101.397 32.678C101.663 32.916 101.796 33.217 101.796 33.581V45.719ZM110.351 35.597L105.815 46.265C105.717 46.531 105.563 46.741 105.353 46.895C105.157 47.035 104.94 47.105 104.702 47.105C104.324 47.105 104.044 47 103.862 46.79C103.68 46.58 103.589 46.321 103.589 46.013C103.589 45.887 103.61 45.754 103.652 45.614L108.881 33.056C108.993 32.776 109.161 32.559 109.385 32.405C109.623 32.251 109.875 32.188 110.141 32.216C110.393 32.216 110.624 32.293 110.834 32.447C111.058 32.587 111.219 32.79 111.317 33.056L116.483 45.362C116.553 45.544 116.588 45.712 116.588 45.866C116.588 46.244 116.462 46.545 116.21 46.769C115.972 46.993 115.706 47.105 115.412 47.105C115.16 47.105 114.929 47.028 114.719 46.874C114.523 46.72 114.369 46.51 114.257 46.244L109.742 35.723L110.351 35.597ZM106.466 43.703L107.621 41.288H113.291L113.69 43.703H106.466Z" fill="#251F39" fill-opacity="0.08"/>
<line x1="-0.5" y1="5.5" x2="40.5" y2="5.5" stroke="#251F39" stroke-opacity="0.08" stroke-linecap="round"/>
<line x1="115.5" y1="47.5" x2="359.5" y2="47.5" stroke="#251F39" stroke-opacity="0.08" stroke-linecap="round"/>
</svg>
