<svg  viewBox="0 0 41 41" fill="none" xmlns="http://www.w3.org/2000/svg">
<path d="M20.3955 5.91602C12.124 5.91602 5.39551 12.6445 5.39551 20.916C5.39551 29.1875 12.124 35.916 20.3955 35.916C28.667 35.916 35.3955 29.1875 35.3955 20.916C35.3955 12.6445 28.667 5.91602 20.3955 5.91602ZM20.3955 8.41602C27.3145 8.41602 32.8955 13.9971 32.8955 20.916C32.8955 27.835 27.3145 33.416 20.3955 33.416C13.4766 33.416 7.89551 27.835 7.89551 20.916C7.89551 13.9971 13.4766 8.41602 20.3955 8.41602ZM14.7705 15.916C13.7354 15.916 12.8955 16.7559 12.8955 17.791C12.8955 18.8262 13.7354 19.666 14.7705 19.666C15.8057 19.666 16.6455 18.8262 16.6455 17.791C16.6455 16.7559 15.8057 15.916 14.7705 15.916ZM26.0205 15.916C24.9854 15.916 24.1455 16.7559 24.1455 17.791C24.1455 18.8262 24.9854 19.666 26.0205 19.666C27.0557 19.666 27.8955 18.8262 27.8955 17.791C27.8955 16.7559 27.0557 15.916 26.0205 15.916ZM13.9111 24.666L11.7627 25.916C13.4912 28.8994 16.7041 30.916 20.3955 30.916C24.0869 30.916 27.2998 28.8994 29.0283 25.916L26.8799 24.666C25.5811 26.9072 23.1787 28.416 20.3955 28.416C17.6123 28.416 15.21 26.9072 13.9111 24.666Z" fill="#E0CFBA"/>
</svg>
