<svg width="18" height="18" viewBox="0 0 18 18" fill="none" xmlns="http://www.w3.org/2000/svg">
<path d="M14.65 7.80002C14.65 8.21424 14.9858 8.55002 15.4 8.55002C15.8142 8.55002 16.15 8.21424 16.15 7.80002H14.65ZM9 1.40002V0.650024V1.40002ZM1.85 7.80002C1.85 8.21424 2.18579 8.55002 2.6 8.55002C3.01421 8.55002 3.35 8.21424 3.35 7.80002H1.85ZM1 9.84962L0.25 9.84951V9.84962H1ZM2.212 8.29762L2.39388 9.02524L2.3943 9.02513L2.212 8.29762ZM3.604 7.94882L3.42275 7.22105L3.42171 7.22131L3.604 7.94882ZM4.2 8.41442H4.95V8.41415L4.2 8.41442ZM4.2 12.7848H3.45L3.45 12.7861L4.2 12.7848ZM3.6032 13.2512L3.7857 12.5238L3.7851 12.5236L3.6032 13.2512ZM2.2112 12.9032L2.02895 13.6307L2.0293 13.6308L2.2112 12.9032ZM1 11.3512H0.25V11.3512L1 11.3512ZM17 9.84962H17.75V9.84951L17 9.84962ZM15.788 8.29762L15.6057 9.02513L15.6061 9.02524L15.788 8.29762ZM14.396 7.94882L14.5783 7.22131L14.5773 7.22105L14.396 7.94882ZM13.8 8.41442L13.05 8.41415V8.41442H13.8ZM13.8 12.7848L14.55 12.7858V12.7848H13.8ZM14.396 13.2512L14.5773 13.979L14.5779 13.9788L14.396 13.2512ZM15.788 12.9032L15.6061 12.1756L15.6061 12.1756L15.788 12.9032ZM17 11.3512L17.75 11.3513V11.3512H17ZM6.6 15.4H5.85H6.6ZM11.4 15.4H12.15H11.4ZM16.15 7.80002C16.15 5.90373 15.3967 4.0851 14.0558 2.74421L12.9952 3.80487C14.0547 4.86445 14.65 6.30155 14.65 7.80002H16.15ZM14.0558 2.74421C12.7149 1.40333 10.8963 0.650024 9 0.650024V2.15002C10.4985 2.15002 11.9356 2.74529 12.9952 3.80487L14.0558 2.74421ZM9 0.650024C7.1037 0.650024 5.28507 1.40333 3.94419 2.74421L5.00485 3.80487C6.06443 2.74529 7.50153 2.15002 9 2.15002V0.650024ZM3.94419 2.74421C2.6033 4.0851 1.85 5.90373 1.85 7.80002H3.35C3.35 6.30155 3.94527 4.86445 5.00485 3.80487L3.94419 2.74421ZM1.75 9.84974C1.75003 9.66019 1.81341 9.47609 1.93007 9.3267L0.747853 8.40347C0.425314 8.81649 0.250079 9.32547 0.25 9.84951L1.75 9.84974ZM1.93007 9.3267C2.04674 9.17731 2.20999 9.0712 2.39388 9.02524L2.03013 7.57001C1.52173 7.69709 1.07039 7.99045 0.747853 8.40347L1.93007 9.3267ZM2.3943 9.02513L3.7863 8.67633L3.42171 7.22131L2.0297 7.57011L2.3943 9.02513ZM3.78525 8.67659C3.74546 8.6865 3.70394 8.68722 3.66384 8.67869L3.97586 7.2115C3.79316 7.17265 3.604 7.17591 3.42275 7.22105L3.78525 8.67659ZM3.66384 8.67869C3.62373 8.67016 3.58609 8.65261 3.55378 8.62737L4.47722 7.4453C4.33002 7.33031 4.15856 7.25036 3.97586 7.2115L3.66384 8.67869ZM3.55378 8.62737C3.52147 8.60212 3.49533 8.56985 3.47735 8.533L4.82541 7.87517C4.74349 7.70731 4.62442 7.5603 4.47722 7.4453L3.55378 8.62737ZM3.47735 8.533C3.45937 8.49616 3.45001 8.45569 3.45 8.41469L4.95 8.41415C4.94993 8.22736 4.90732 8.04304 4.82541 7.87517L3.47735 8.533ZM3.45 8.41442V12.7848H4.95V8.41442H3.45ZM3.45 12.7861C3.44993 12.745 3.45924 12.7045 3.47722 12.6675L4.82602 13.3238C4.90792 13.1555 4.95032 12.9707 4.95 12.7835L3.45 12.7861ZM3.47722 12.6675C3.49519 12.6306 3.52137 12.5982 3.55374 12.5729L4.47739 13.7548C4.62488 13.6395 4.74412 13.4921 4.82602 13.3238L3.47722 12.6675ZM3.55374 12.5729C3.58612 12.5476 3.62384 12.53 3.66404 12.5215L3.97494 13.9889C4.15806 13.9501 4.32991 13.8701 4.47739 13.7548L3.55374 12.5729ZM3.66404 12.5215C3.70424 12.513 3.74585 12.5138 3.7857 12.5238L3.4207 13.9787C3.60225 14.0242 3.79181 14.0277 3.97494 13.9889L3.66404 12.5215ZM3.7851 12.5236L2.3931 12.1756L2.0293 13.6308L3.4213 13.9788L3.7851 12.5236ZM2.39345 12.1757C2.20964 12.1297 2.04649 12.0235 1.92991 11.8741L0.74739 12.797C1.0697 13.21 1.52077 13.5034 2.02895 13.6307L2.39345 12.1757ZM1.92991 11.8741C1.81333 11.7247 1.75001 11.5407 1.75 11.3512L0.25 11.3512C0.250014 11.8751 0.42508 12.384 0.74739 12.797L1.92991 11.8741ZM17.75 9.84951C17.7499 9.32547 17.5747 8.81649 17.2521 8.40347L16.0699 9.3267C16.1866 9.47609 16.25 9.66019 16.25 9.84974L17.75 9.84951ZM17.2521 8.40347C16.9296 7.99045 16.4783 7.69709 15.9699 7.57001L15.6061 9.02524C15.79 9.0712 15.9533 9.17731 16.0699 9.3267L17.2521 8.40347ZM15.9703 7.57011L14.5783 7.22131L14.2137 8.67633L15.6057 9.02513L15.9703 7.57011ZM14.5773 7.22105C14.396 7.17591 14.2068 7.17265 14.0241 7.2115L14.3362 8.67869C14.2961 8.68722 14.2545 8.6865 14.2148 8.67659L14.5773 7.22105ZM14.0241 7.2115C13.8414 7.25036 13.67 7.33031 13.5228 7.4453L14.4462 8.62737C14.4139 8.65261 14.3763 8.67016 14.3362 8.67869L14.0241 7.2115ZM13.5228 7.4453C13.3756 7.5603 13.2565 7.70731 13.1746 7.87517L14.5227 8.533C14.5047 8.56985 14.4785 8.60212 14.4462 8.62737L13.5228 7.4453ZM13.1746 7.87517C13.0927 8.04304 13.0501 8.22736 13.05 8.41415L14.55 8.41469C14.55 8.4557 14.5406 8.49616 14.5227 8.533L13.1746 7.87517ZM13.05 8.41442V12.7848H14.55V8.41442H13.05ZM13.05 12.7838C13.0498 12.9708 13.0921 13.1554 13.1739 13.3235L14.5228 12.6673C14.5408 12.7043 14.5501 12.7448 14.55 12.7858L13.05 12.7838ZM13.1739 13.3235C13.2557 13.4916 13.3747 13.6389 13.522 13.7541L14.4464 12.5728C14.4787 12.5981 14.5048 12.6304 14.5228 12.6673L13.1739 13.3235ZM13.522 13.7541C13.6692 13.8693 13.8408 13.9495 14.0236 13.9884L14.3363 12.5214C14.3764 12.5299 14.4141 12.5475 14.4464 12.5728L13.522 13.7541ZM14.0236 13.9884C14.2065 14.0274 14.3958 14.0242 14.5773 13.979L14.2148 12.5235C14.2546 12.5135 14.2961 12.5128 14.3363 12.5214L14.0236 13.9884ZM14.5779 13.9788L15.9699 13.6308L15.6061 12.1756L14.2141 12.5236L14.5779 13.9788ZM15.9699 13.6308C16.4783 13.5038 16.9296 13.2104 17.2521 12.7974L16.0699 11.8741C15.9533 12.0235 15.79 12.1296 15.6061 12.1756L15.9699 13.6308ZM17.2521 12.7974C17.5747 12.3844 17.7499 11.8754 17.75 11.3513L16.25 11.3511C16.25 11.5407 16.1866 11.7248 16.0699 11.8741L17.2521 12.7974ZM14.65 13.4V13.8H16.15V13.4H14.65ZM14.65 13.8C14.65 14.0255 14.5604 14.2417 14.401 14.4011L15.4617 15.4617C15.9024 15.021 16.15 14.4233 16.15 13.8H14.65ZM14.401 14.4011C14.2416 14.5605 14.0254 14.65 13.8 14.65V16.15C14.4233 16.15 15.021 15.9024 15.4617 15.4617L14.401 14.4011ZM13.8 14.65H11V16.15H13.8V14.65ZM10.2 15.85H7.8V17.35H10.2V15.85ZM7.8 15.85C7.68065 15.85 7.56619 15.8026 7.4818 15.7182L6.42114 16.7789C6.78684 17.1446 7.28283 17.35 7.8 17.35V15.85ZM7.4818 15.7182C7.39741 15.6338 7.35 15.5194 7.35 15.4H5.85C5.85 15.9172 6.05545 16.4132 6.42114 16.7789L7.4818 15.7182ZM7.35 15.4C7.35 15.2807 7.39741 15.1662 7.4818 15.0818L6.42114 14.0212C6.05545 14.3869 5.85 14.8829 5.85 15.4H7.35ZM7.4818 15.0818C7.56619 14.9974 7.68065 14.95 7.8 14.95V13.45C7.28283 13.45 6.78684 13.6555 6.42114 14.0212L7.4818 15.0818ZM7.8 14.95H10.2V13.45H7.8V14.95ZM10.2 14.95C10.3193 14.95 10.4338 14.9974 10.5182 15.0818L11.5789 14.0212C11.2132 13.6555 10.7172 13.45 10.2 13.45V14.95ZM10.5182 15.0818C10.6026 15.1662 10.65 15.2807 10.65 15.4H12.15C12.15 14.8829 11.9446 14.3869 11.5789 14.0212L10.5182 15.0818ZM10.65 15.4C10.65 15.5194 10.6026 15.6338 10.5182 15.7182L11.5789 16.7789C11.9446 16.4132 12.15 15.9172 12.15 15.4H10.65ZM10.5182 15.7182C10.4338 15.8026 10.3193 15.85 10.2 15.85V17.35C10.7172 17.35 11.2132 17.1446 11.5789 16.7789L10.5182 15.7182ZM1.75 11.3512V9.84962H0.25V11.3512H1.75ZM17.75 11.3512V9.84962H16.25V11.3512H17.75Z" fill="#FFAD0D"/>
</svg>
