<svg width="18" height="18" viewBox="0 0 18 18" fill="none" xmlns="http://www.w3.org/2000/svg">
<path d="M7.3207 10.7757C6.88945 10.3452 6.62695 9.76024 6.62695 9.10399C6.62695 7.78924 7.68595 6.72949 8.99995 6.72949C9.6502 6.72949 10.2487 6.99274 10.6725 7.42324" stroke="#ADA4A5" stroke-width="1.2" stroke-linecap="round" stroke-linejoin="round"/>
<path d="M11.3285 9.52441C11.1545 10.4919 10.3925 11.2554 9.42578 11.4309" stroke="#ADA4A5" stroke-width="1.2" stroke-linecap="round" stroke-linejoin="round"/>
<path d="M4.99125 13.1045C3.801 12.17 2.793 10.805 2.0625 9.10323C2.8005 7.39398 3.81525 6.02148 5.013 5.07948C6.20325 4.13748 7.5765 3.62598 9 3.62598C10.4318 3.62598 11.8043 4.14498 13.002 5.09373" stroke="#ADA4A5" stroke-width="1.2" stroke-linecap="round" stroke-linejoin="round"/>
<path d="M14.5866 6.74316C15.1026 7.42866 15.5563 8.21991 15.9381 9.10266C14.4628 12.5204 11.8558 14.5792 9.00056 14.5792C8.35331 14.5792 7.71506 14.4742 7.10156 14.2694" stroke="#ADA4A5" stroke-width="1.2" stroke-linecap="round" stroke-linejoin="round"/>
<path d="M14.9164 3.1875L3.08594 15.018" stroke="#ADA4A5" stroke-width="1.2" stroke-linecap="round" stroke-linejoin="round"/>
</svg>
