<svg xmlns="http://www.w3.org/2000/svg" width="32" height="32">
    <path style="stroke:none;fill-rule:nonzero;fill:#000;fill-opacity:1" d="m30.266 19.066-1.332 1.332-2.668-2.664 1.336-1.336c.132-.132.265-.265.53-.265.134 0 .403.133.536.265l1.73 1.735c.137.265.137.668-.132.933m-12.934 7.47v2.796h2.8l8.134-8.133-2.664-2.664-8.27 8m-2.387-5.43-2.613-3.144-3.664 4.707h8.824l3.387-3.27-2.266-3.011-3.668 4.718m-.277 5.43v-1.137l.066-.066H6.668V6.668h18.664v8.41L28 12.508v-5.84A2.667 2.667 0 0 0 25.332 4H6.668A2.674 2.674 0 0 0 4 6.668v18.664C4 26.812 5.2 28 6.668 28h8Zm0 0"/>
</svg>
