<svg width="25" height="25" viewBox="0 0 25 25" fill="none" xmlns="http://www.w3.org/2000/svg">
<path fill-rule="evenodd" clip-rule="evenodd" d="M12.5 0C9.18479 0 6.00537 1.31696 3.66116 3.66116C1.31696 6.00537 0 9.18479 0 12.5C0 15.8152 1.31696 18.9946 3.66116 21.3388C6.00537 23.683 9.18479 25 12.5 25C15.8152 25 18.9946 23.683 21.3388 21.3388C23.683 18.9946 25 15.8152 25 12.5C25 9.18479 23.683 6.00537 21.3388 3.66116C18.9946 1.31696 15.8152 0 12.5 0V0ZM12.2396 5.46667C12.5078 5.46667 12.7714 5.4849 13.0318 5.51458L13.0484 5.49531V5.50052C13.0573 5.50729 13.0651 5.51615 13.074 5.52344C16.5604 5.9375 19.2708 8.9026 19.2708 12.5C19.2708 16.0979 16.5604 19.0651 13.0729 19.4781C13.0698 19.4823 13.0667 19.4833 13.0635 19.4885L13.0552 19.4802C12.787 19.5115 12.5161 19.5312 12.2396 19.5312C8.35938 19.5312 5.20833 16.3802 5.20833 12.5C5.20833 8.61979 8.35938 5.46875 12.2396 5.46875V5.46667ZM11.9792 6.00312C11.8635 6.00781 11.7474 6.0099 11.6333 6.02031C10.851 6.70365 10.1964 7.58177 9.71875 8.59375H11.9792V6.0026V6.00312ZM12.5 6.00312V8.59375H14.7656C14.287 7.58021 13.6302 6.70417 12.8469 6.02031C12.7323 6.00937 12.6161 6.00781 12.5 6.0026V6.00312ZM10.7167 6.17552C9.24662 6.52912 7.9459 7.3843 7.03854 8.59375H9.13906C9.52516 7.70455 10.0587 6.88696 10.7172 6.17552H10.7167ZM13.7615 6.17552C14.4213 6.88665 14.9561 7.70425 15.3432 8.59375H17.4406C16.533 7.38407 15.2319 6.52886 13.7615 6.17552ZM6.68542 9.11458C6.10913 10.0585 5.78455 11.1344 5.74271 12.2396H8.34062C8.36875 11.1333 8.575 10.0792 8.93021 9.11458H6.68542ZM9.49896 9.11458C9.10579 10.1111 8.89004 11.1687 8.86146 12.2396H11.9792V9.11458H9.49896ZM12.5 9.11458V12.2396H15.6219C15.5934 11.1687 15.3776 10.1111 14.9844 9.11458H12.5ZM15.5521 9.11458C15.9185 10.117 16.118 11.1726 16.1427 12.2396H18.7365C18.6946 11.1344 18.37 10.0585 17.7938 9.11458H15.5521ZM5.74219 12.7604C5.7875 13.9036 6.12448 14.9687 6.68437 15.8854H8.93021C8.56416 14.883 8.36499 13.8273 8.34062 12.7604H5.74219ZM8.86146 12.7604C8.89167 13.8771 9.12187 14.9297 9.49896 15.8854H11.9792V12.7604H8.86146ZM12.5 12.7604V15.8854H14.8182C15.2859 14.8193 15.5536 13.7411 15.6089 12.7604H12.5ZM16.1302 12.7604C16.0797 13.7583 15.8229 14.8281 15.3839 15.8854H17.7948C18.3708 14.9414 18.6952 13.8655 18.737 12.7604H16.1302ZM7.03854 16.4062C7.94578 17.6158 9.24655 18.471 10.7167 18.8245C10.0582 18.113 9.52464 17.2954 9.13854 16.4062H7.03854ZM9.71875 16.4062C10.1969 17.4193 10.851 18.2958 11.6344 18.9797C11.7479 18.9901 11.8635 18.9922 11.9792 18.9974V16.4062H9.71875ZM12.5 16.4062V18.9974C12.6042 18.9927 12.7094 18.9911 12.8125 18.9818C13.5102 18.2065 14.0994 17.3401 14.5641 16.4062H12.5ZM15.15 16.4062C14.7334 17.2859 14.2123 18.1122 13.5979 18.8672C15.1343 18.5385 16.4994 17.6642 17.4406 16.4062H15.15Z" fill="#093731"/>
</svg>
