<svg width="18" height="18" viewBox="0 0 18 18" fill="none" xmlns="http://www.w3.org/2000/svg">
<path d="M16.4667 15.9333H15.9333V5.26667C15.9333 4.84232 15.7648 4.43535 15.4647 4.1353C15.1646 3.83524 14.7577 3.66667 14.3333 3.66667H12.2C12.0181 3.66811 11.8377 3.70057 11.6667 3.76267V2.6C11.6667 2.17565 11.4981 1.76869 11.198 1.46863C10.898 1.16857 10.491 1 10.0667 1H7.93333C7.50899 1 7.10202 1.16857 6.80196 1.46863C6.5019 1.76869 6.33333 2.17565 6.33333 2.6V6.42933C6.16231 6.36724 5.98194 6.33478 5.8 6.33333H3.66667C3.24232 6.33333 2.83535 6.5019 2.5353 6.80196C2.23524 7.10202 2.06667 7.50899 2.06667 7.93333V15.9333H1.53333C1.39188 15.9333 1.25623 15.9895 1.15621 16.0895C1.05619 16.1896 1 16.3252 1 16.4667C1 16.6081 1.05619 16.7438 1.15621 16.8438C1.25623 16.9438 1.39188 17 1.53333 17H16.4667C16.6081 17 16.7438 16.9438 16.8438 16.8438C16.9438 16.7438 17 16.6081 17 16.4667C17 16.3252 16.9438 16.1896 16.8438 16.0895C16.7438 15.9895 16.6081 15.9333 16.4667 15.9333ZM3.13333 7.93333C3.13333 7.79188 3.18952 7.65623 3.28954 7.55621C3.38956 7.45619 3.52522 7.4 3.66667 7.4H5.8C5.94145 7.4 6.0771 7.45619 6.17712 7.55621C6.27714 7.65623 6.33333 7.79188 6.33333 7.93333V15.9333H3.13333V7.93333ZM7.4 2.6C7.4 2.45855 7.45619 2.3229 7.55621 2.22288C7.65623 2.12286 7.79188 2.06667 7.93333 2.06667H10.0667C10.2081 2.06667 10.3438 2.12286 10.4438 2.22288C10.5438 2.3229 10.6 2.45855 10.6 2.6V15.9333H7.4V2.6ZM11.6667 15.9333V5.26667C11.6667 5.12522 11.7229 4.98956 11.8229 4.88954C11.9229 4.78952 12.0586 4.73333 12.2 4.73333H14.3333C14.4748 4.73333 14.6104 4.78952 14.7105 4.88954C14.8105 4.98956 14.8667 5.12522 14.8667 5.26667V15.9333H11.6667Z" fill="#FF385C" stroke="#FF385C" stroke-width="0.3"/>
</svg>
