<svg width="22" height="20" viewBox="0 0 22 20" fill="none" xmlns="http://www.w3.org/2000/svg">
<path d="M11 1.0543C8.32131 1.0543 5.75234 2.1184 3.85822 4.01252C1.9641 5.90664 0.9 8.47561 0.9 11.1543V14.2312C0.9 14.4618 0.991579 14.6828 1.15459 14.8459C1.3176 15.0089 1.5387 15.1005 1.76923 15.1005H3.20769V17.3081C3.20769 17.7427 3.38032 18.1594 3.68759 18.4667C3.99486 18.774 4.41161 18.9466 4.84615 18.9466H6.38462C6.81916 18.9466 7.23591 18.774 7.54318 18.4667C7.85045 18.1594 8.02308 17.7427 8.02308 17.3081V12.6928C8.02308 12.2582 7.85045 11.8415 7.54318 11.5342C7.23591 11.2269 6.81916 11.0543 6.38462 11.0543H4.84615C4.41161 11.0543 3.99486 11.2269 3.68759 11.5342C3.38032 11.8415 3.20769 12.2582 3.20769 12.6928V13.362H2.63846V11.1543C2.63846 8.93668 3.51941 6.80989 5.0875 5.2418C6.65559 3.6737 8.78238 2.79276 11 2.79276C13.2176 2.79276 15.3444 3.6737 16.9125 5.2418C18.4806 6.80989 19.3615 8.93668 19.3615 11.1543V13.362H18.7923V12.6928C18.7923 12.2582 18.6197 11.8415 18.3124 11.5342C18.0051 11.2269 17.5884 11.0543 17.1538 11.0543H15.6154C15.1808 11.0543 14.7641 11.2269 14.4568 11.5342C14.1495 11.8415 13.9769 12.2582 13.9769 12.6928V17.3081C13.9769 17.7427 14.1495 18.1594 14.4568 18.4667C14.7641 18.774 15.1808 18.9466 15.6154 18.9466H17.1538C17.5884 18.9466 18.0051 18.774 18.3124 18.4667C18.6197 18.1594 18.7923 17.7427 18.7923 17.3081V15.1005H20.2308C20.4613 15.1005 20.6824 15.0089 20.8454 14.8459C21.0084 14.6828 21.1 14.4618 21.1 14.2312V11.1543C21.1 8.47561 20.0359 5.90664 18.1418 4.01252C16.2477 2.1184 13.6787 1.0543 11 1.0543ZM6.28462 17.2081H4.94615V12.7928H6.28462V17.2081ZM17.0538 17.2081H15.7154V12.7928H17.0538V17.2081Z" fill="#1B3DC6" stroke="#1B3DC6" stroke-width="0.2"/>
</svg>
