<svg width="20" height="19" viewBox="0 0 20 19" fill="none" xmlns="http://www.w3.org/2000/svg">
<path d="M3.63785 7.27298V18.1811H0V7.27298H3.63785ZM7.27298 18.1811C6.79062 18.1809 6.32808 17.9892 5.987 17.6481C5.64593 17.307 5.45423 16.8445 5.45405 16.3622V7.27298C5.45405 6.77257 5.6538 6.31988 5.99264 5.99196L11.9737 0L12.9377 0.964003C13.1824 1.20944 13.3372 1.54759 13.3372 1.91983L13.3079 2.21025L12.4448 6.36488H18.1811C19.1901 6.36488 20 7.18298 20 8.18108V10C20 10.2373 19.955 10.4554 19.8718 10.6633L17.1264 17.0732C16.9882 17.4024 16.7557 17.6833 16.458 17.8805C16.1604 18.0776 15.8111 18.1822 15.4541 18.1811H7.27298ZM7.27298 16.3622H15.4813L18.1811 10V8.18108H10.1916L11.2169 3.3447L7.27298 7.30025V16.3622Z" fill="#093731"/>
</svg>
