<svg width="20" height="19" viewBox="0 0 20 19" fill="none" xmlns="http://www.w3.org/2000/svg">
<path d="M20 8.18108C19.9998 7.94239 19.9526 7.70608 19.8611 7.48563C19.7696 7.26518 19.6356 7.06491 19.4667 6.89626C19.2978 6.72761 19.0973 6.59388 18.8767 6.50271C18.6561 6.41153 18.4198 6.3647 18.1811 6.36488H12.4366L13.3079 2.21025C13.3556 1.98687 13.3468 1.7551 13.2821 1.53602C13.2175 1.31694 13.0991 1.11749 12.9377 0.955822L11.9737 0L5.99196 5.98105C5.8211 6.14996 5.68555 6.35117 5.5932 6.57297C5.50086 6.79477 5.45355 7.03272 5.45405 7.27298V16.3622C5.45423 16.8445 5.64593 17.307 5.987 17.6481C6.32808 17.9892 6.79062 18.1809 7.27298 18.1811H15.4541C15.8111 18.1822 16.1604 18.0776 16.458 17.8805C16.7557 17.6833 16.9882 17.4024 17.1264 17.0732L19.8718 10.6633C19.955 10.4554 20 10.2373 20 10V8.18108ZM0 18.1811H3.63785V7.27298H0V18.1811Z" fill="#093731"/>
</svg>
