<svg width="20" height="20" viewBox="0 0 20 20" fill="none" xmlns="http://www.w3.org/2000/svg">
<path d="M9.76 0C6.615 0 3.703 1.395 1.772 3.744C1.71699 3.81059 1.67593 3.88756 1.65127 3.97033C1.62662 4.05311 1.61886 4.14 1.62847 4.22583C1.63808 4.31167 1.66486 4.39469 1.70721 4.46997C1.74957 4.54524 1.80663 4.61123 1.875 4.664C2.01419 4.7731 2.19041 4.82368 2.36628 4.80501C2.54214 4.78634 2.70382 4.69989 2.817 4.564C3.66136 3.54122 4.72223 2.71863 5.92306 2.15557C7.12389 1.59251 8.43473 1.30302 9.761 1.308C14.676 1.308 18.661 5.2 18.661 10C18.661 14.8 14.676 18.692 9.761 18.692C8.41562 18.6971 7.08634 18.3993 5.87177 17.8206C4.65721 17.2419 3.58853 16.3971 2.745 15.349C2.63372 15.2117 2.47336 15.1231 2.2979 15.102C2.12243 15.0809 1.94565 15.129 1.805 15.236C1.73603 15.2879 1.67818 15.3531 1.6349 15.4277C1.59163 15.5024 1.5638 15.585 1.55307 15.6706C1.54234 15.7563 1.54893 15.8432 1.57246 15.9262C1.59598 16.0093 1.63595 16.0867 1.69 16.154C3.618 18.564 6.569 20 9.76 20C15.417 20 20 15.523 20 10C20 4.477 15.416 0 9.76 0ZM2.902 7.16L0.195999 9.867C-0.066 10.128 -0.0709991 10.547 0.184 10.803L2.828 13.446C2.95346 13.5688 3.12255 13.6367 3.29807 13.6348C3.4736 13.6329 3.64119 13.5614 3.764 13.436C3.82632 13.3752 3.87604 13.3028 3.91033 13.2228C3.94461 13.1428 3.96279 13.0568 3.96381 12.9698C3.96483 12.8827 3.94868 12.7964 3.91628 12.7156C3.88388 12.6348 3.83587 12.5612 3.775 12.499L2.228 10.952H12.538C12.6249 10.9531 12.7112 10.937 12.792 10.9047C12.8727 10.8724 12.9462 10.8245 13.0085 10.7638C13.0707 10.703 13.1203 10.6307 13.1546 10.5507C13.1888 10.4708 13.207 10.3849 13.208 10.298C13.208 9.936 12.908 9.643 12.538 9.643H2.269L3.827 8.085C3.95255 7.96232 4.02425 7.7948 4.02631 7.61928C4.02837 7.44375 3.96064 7.27459 3.838 7.149C3.71241 7.02636 3.54325 6.95863 3.36772 6.96069C3.1922 6.96275 3.02468 7.03444 2.902 7.16Z" fill="#FF385C"/>
</svg>
