<svg width="45" height="45" viewBox="0 0 45 45" fill="none" xmlns="http://www.w3.org/2000/svg">
<circle cx="22.5" cy="22.5" r="22.5" fill="#3EB778"/>
<path d="M30 22H16C14.8954 22 14 22.8954 14 24V31C14 32.1046 14.8954 33 16 33H30C31.1046 33 32 32.1046 32 31V24C32 22.8954 31.1046 22 30 22Z" stroke="white" stroke-width="2" stroke-linecap="round" stroke-linejoin="round"/>
<path d="M18 22V18C18 16.6739 18.5268 15.4021 19.4645 14.4645C20.4021 13.5268 21.6739 13 23 13C24.3261 13 25.5979 13.5268 26.5355 14.4645C27.4732 15.4021 28 16.6739 28 18V22" stroke="white" stroke-width="2" stroke-linecap="round" stroke-linejoin="round"/>
</svg>
