<svg width="12" height="12" viewBox="0 0 12 12" fill="none" xmlns="http://www.w3.org/2000/svg">
<path d="M11.9369 0.792614L6.48308 11.7017C6.3865 11.9006 6.22459 12 5.99735 12C5.96895 12 5.92634 11.9943 5.86953 11.983C5.74454 11.9545 5.64371 11.8906 5.56701 11.7912C5.49032 11.6918 5.45197 11.5795 5.45197 11.4545V6.54545H0.543554C0.418571 6.54545 0.30637 6.5071 0.206952 6.4304C0.107534 6.35369 0.0436223 6.25284 0.0152171 6.12784C-0.0131881 6.00284 -0.00182605 5.88352 0.0493033 5.76989C0.100433 5.65625 0.182808 5.57102 0.296429 5.5142L11.204 0.0596591C11.2779 0.0198864 11.3603 0 11.4511 0C11.6045 0 11.7324 0.0539773 11.8346 0.161932C11.9198 0.241477 11.9724 0.339489 11.9923 0.455966C12.0122 0.572443 11.9937 0.684659 11.9369 0.792614Z" fill="#DE3151"/>
</svg>
