<svg width="22" height="20" viewBox="0 0 22 20" fill="none" xmlns="http://www.w3.org/2000/svg">
<path d="M7.545 15.976L7.625 15.916L7.545 15.976L9.92 19.1423C10.0457 19.3099 10.2088 19.446 10.3963 19.5397C10.5837 19.6335 10.7904 19.6823 11 19.6823C11.2096 19.6823 11.4163 19.6335 11.6037 19.5397C11.7912 19.446 11.9543 19.3099 12.08 19.1423L14.455 15.976L14.375 15.916L14.455 15.976C14.5621 15.8332 14.701 15.7173 14.8607 15.6374C15.0204 15.5576 15.1965 15.516 15.375 15.516H18.5C19.1896 15.516 19.8509 15.2421 20.3385 14.7545C20.8261 14.2669 21.1 13.6056 21.1 12.916V2.91602C21.1 2.22645 20.8261 1.56513 20.3385 1.07754C19.8509 0.589943 19.1896 0.316016 18.5 0.316016H3.5C2.81044 0.316016 2.14912 0.589943 1.66152 1.07754C1.17393 1.56513 0.9 2.22645 0.9 2.91602V12.916C0.9 13.6056 1.17393 14.2669 1.66152 14.7545C2.14912 15.2421 2.81044 15.516 3.5 15.516H6.625C6.80353 15.516 6.97961 15.5576 7.1393 15.6374C7.29898 15.7173 7.43788 15.8332 7.545 15.976Z" fill="#1B3DC6" stroke="#1B3DC6" stroke-width="0.2"/>
</svg>
