<svg xmlns="http://www.w3.org/2000/svg" width="32" height="32">
    <path style="stroke:none;fill-rule:nonzero;fill:#fff;fill-opacity:1" d="M12.137 14.266a3.229 3.229 0 0 0-.325-4.555C10.47 8.543 4.824 7.918 4.824 7.918s1.133 5.254 2.758 6.668a3.232 3.232 0 0 0 4.555-.32ZM17.336 16.098c0-.43.137-.926.379-1.434a4.685 4.685 0 0 0 5.91-.664c1.805-1.855 3.184-9.992 3.184-9.992s-7.723 1.21-9.907 3.449a4.692 4.692 0 0 0-.988 5.012c-.84 1.226-1.246 2.527-1.246 3.629v3.906h2.668ZM23.566 21.336H8.438c-.418 0-.813.2-1.063.531a1.32 1.32 0 0 0-.219 1.168l1.907 6.668c.164.57.683.965 1.28.965h11.321c.598 0 1.117-.395 1.281-.965l1.907-6.668a1.336 1.336 0 0 0-1.285-1.7Zm0 0"/>
</svg>
