<svg  viewBox="0 0 44 51" fill="none" xmlns="http://www.w3.org/2000/svg">
<path d="M22.5765 49.0116C33.4548 49.0116 42.2735 39.8538 42.2735 28.557C42.2735 17.2603 33.4548 8.10248 22.5765 8.10248" stroke="white" stroke-width="2.08333" stroke-linecap="round"/>
<path d="M24.6016 1.02777L17.6086 7.43802L17.0258 7.97221L24.6016 14.9167L24.6016 1.02777Z" fill="white" stroke="white" stroke-width="0.694444"/>
<path d="M5.46615 15.9584C5.46615 15.9584 2.34114 19.0834 1.99392 23.2501M4.56465 39.2223C2.68837 37.139 1.29947 31.5834 1.29947 29.1529M19.0079 48.5973C19.0079 48.5973 12.0634 48.5973 7.89671 43.7362" stroke="white" stroke-width="2.08333" stroke-linecap="round"/>
<path d="M12.4808 25.6166L13.3974 26.7666L15.6308 24.8999L15.6308 34.9999L17.2808 34.9999L17.2808 22.6833L15.9641 22.6833L12.4808 25.6166ZM24.5098 35.1999C28.0765 35.1999 29.3098 31.8166 29.3098 28.8333C29.3098 25.8499 28.0765 22.4666 24.5098 22.4666C22.7931 22.4666 21.4765 23.2833 20.7431 24.5499C20.0265 25.8166 19.6931 27.2499 19.6931 28.8333C19.6931 30.4166 20.0265 31.8499 20.7431 33.1166C21.4765 34.3833 22.7931 35.1999 24.5098 35.1999ZM27.6265 28.8333C27.6265 30.2499 27.3765 31.3999 26.8598 32.2999C26.3431 33.1999 25.5598 33.6499 24.5098 33.6499C23.4598 33.6499 22.6765 33.1999 22.1598 32.2999C21.6431 31.3999 21.3931 30.2499 21.3931 28.8333C21.3931 27.4333 21.6431 26.2833 22.1598 25.3833C22.6765 24.4666 23.4598 24.0166 24.5098 24.0166C25.5598 24.0166 26.3431 24.4666 26.8598 25.3833C27.3765 26.2833 27.6265 27.4333 27.6265 28.8333Z" fill="white"/>
</svg>
