<svg  viewBox="0 0 14 16" fill="none" xmlns="http://www.w3.org/2000/svg">
<path d="M12.7431 15.3899L1.64761 15.3899C1.46136 15.3899 1.28274 15.3297 1.15104 15.2225C1.01934 15.1153 0.945358 14.9699 0.945358 14.8184L0.945358 6.38494C0.945358 6.23336 1.01934 6.08799 1.15104 5.98081C1.28274 5.87363 1.46136 5.81342 1.64761 5.81342L12.7431 5.81342C12.9294 5.81342 13.108 5.87363 13.2397 5.98081C13.3714 6.08799 13.4454 6.23336 13.4454 6.38494L13.4454 14.8184C13.4454 14.9699 13.3714 15.1153 13.2397 15.2225C13.108 15.3297 12.9294 15.3899 12.7431 15.3899ZM2.34985 14.2468L12.0409 14.2468L12.0409 6.95647L2.34985 6.95647L2.34985 14.2468Z" fill="white"/>
<path d="M11.4144 6.95603L2.97573 6.95603C2.78948 6.95603 2.61086 6.89581 2.47917 6.78863C2.34747 6.68145 2.27348 6.53608 2.27348 6.3845C2.27348 6.23293 2.34747 6.08756 2.47917 5.98037C2.61086 5.87319 2.78948 5.81298 2.97573 5.81298L10.7122 5.81298L10.7122 4.07783C10.7015 3.3244 10.3262 2.60477 9.6678 2.07506C9.00938 1.54535 8.12089 1.24828 7.19506 1.24828C6.26924 1.24828 5.38075 1.54535 4.72233 2.07506C4.06391 2.60477 3.68866 3.3244 3.67798 4.07783C3.67798 4.22941 3.60399 4.37478 3.47229 4.48196C3.3406 4.58914 3.16198 4.64935 2.97573 4.64935C2.78948 4.64935 2.61086 4.58914 2.47917 4.48196C2.34747 4.37478 2.27348 4.22941 2.27348 4.07783C2.28613 3.02229 2.81023 2.01348 3.73183 1.27071C4.65343 0.527943 5.89803 0.111267 7.19506 0.111267C8.4921 0.111267 9.7367 0.527943 10.6583 1.27071C11.5799 2.01348 12.104 3.02229 12.1166 4.07783L12.1166 6.3845C12.1166 6.53608 12.0427 6.68145 11.911 6.78863C11.7793 6.89581 11.6006 6.95603 11.4144 6.95603Z" fill="white"/>
<path d="M7.49733 12.3842C7.06676 12.3842 6.64587 12.2803 6.28787 12.0856C5.92987 11.8909 5.65084 11.6142 5.48607 11.2905C5.3213 10.9668 5.27819 10.6105 5.36219 10.2668C5.44619 9.92316 5.65352 9.60747 5.95798 9.35969C6.26243 9.11191 6.65033 8.94317 7.07262 8.8748C7.49491 8.80644 7.93263 8.84153 8.33041 8.97563C8.7282 9.10972 9.0682 9.33681 9.30741 9.62817C9.54661 9.91953 9.67429 10.2621 9.67429 10.6125C9.67367 11.0822 9.44411 11.5326 9.03599 11.8647C8.62786 12.1969 8.0745 12.3837 7.49733 12.3842ZM7.49733 9.98381C7.34454 9.98381 7.19519 10.0207 7.06816 10.0898C6.94113 10.1588 6.84212 10.257 6.78365 10.3719C6.72519 10.4868 6.70989 10.6132 6.7397 10.7351C6.7695 10.8571 6.84307 10.9691 6.95111 11.057C7.05914 11.145 7.19678 11.2048 7.34662 11.2291C7.49647 11.2533 7.65179 11.2409 7.79294 11.1933C7.93409 11.1457 8.05473 11.0651 8.13961 10.9618C8.22449 10.8584 8.2698 10.7368 8.2698 10.6125C8.26955 10.4458 8.18808 10.286 8.04327 10.1682C7.89846 10.0503 7.70212 9.98401 7.49733 9.98381Z" fill="white"/>
</svg>
