<svg  viewBox="0 0 17 16" fill="none" xmlns="http://www.w3.org/2000/svg">
<path d="M15.2639 0.361359L1.51387 0.361359C1.0924 0.361359 0.749985 0.703772 0.749985 1.12525L0.749984 11.0558C0.749984 11.4773 1.0924 11.8197 1.51387 11.8197L9.15276 11.8197L13.7361 15.6391L12.9722 11.8197L15.2639 11.8197C15.6853 11.8197 16.0278 11.4773 16.0278 11.0558L16.0278 1.12525C16.0278 0.703772 15.6853 0.361359 15.2639 0.361359ZM3.04165 7.23636L7.62498 7.23636L7.62498 8.00025L3.04165 8.00025L3.04165 7.23636ZM6.09721 9.52802L3.04165 9.52802L3.04165 8.76414L6.09721 8.76414L6.09721 9.52802ZM9.91665 9.52802L6.86109 9.52802L6.86109 8.76414L9.91665 8.76414L9.91665 9.52802ZM9.91665 8.00025L8.38887 8.00025L8.38887 7.23636L9.91665 7.23636L9.91665 8.00025ZM13.7361 9.52802L10.6805 9.52802L10.6805 8.76414L13.7361 8.76414L13.7361 9.52802ZM13.7361 8.00025L12.2083 8.00025L12.2083 7.23636L13.7361 7.23636L13.7361 8.00025Z" fill="white"/>
</svg>
