<svg xmlns="http://www.w3.org/2000/svg" width="60.543" height="60.543" viewBox="0 0 60.543 60.543">
  <path id="Icon_open-magnifying-glass" data-name="Icon open-magnifying-glass" d="M26.25,0A26.242,26.242,0,0,0,10.72,47.4a25.912,25.912,0,0,0,15.53,5.1A25.945,25.945,0,0,0,38.7,49.425a7.5,7.5,0,0,0,.975.975l7.5,7.5a7.65,7.65,0,1,0,10.8-10.8l-7.5-7.5a7.5,7.5,0,0,0-1.2-.975,25.9,25.9,0,0,0,3.3-12.45A26.279,26.279,0,0,0,26.325-.075Zm0,7.5A18.662,18.662,0,0,1,45,26.25a18.807,18.807,0,0,1-4.95,12.9l-.225.225a7.5,7.5,0,0,0-.975.975,18.767,18.767,0,0,1-12.675,4.725,18.75,18.75,0,0,1,0-37.5Z" transform="translate(0 0.075)" fill="#d1f7ff"/>
</svg>
