<svg width="47" height="65" viewBox="0 0 47 65" fill="none" xmlns="http://www.w3.org/2000/svg">
<path d="M22.0536 6.96429H15.0893C14.3929 6.96429 13.9286 6.5 13.9286 5.80357C13.9286 5.10714 14.3929 4.64286 15.0893 4.64286H22.0536C22.75 4.64286 23.2143 5.10714 23.2143 5.80357C23.2143 6.5 22.75 6.96429 22.0536 6.96429ZM22.0536 39.4643H15.0893C14.3929 39.4643 13.9286 39 13.9286 38.3036C13.9286 37.6071 14.3929 37.1429 15.0893 37.1429H22.0536C22.75 37.1429 23.2143 37.6071 23.2143 38.3036C23.2143 39 22.75 39.4643 22.0536 39.4643Z" fill="url(#paint0_linear_415_4765)"/>
<path d="M15.0893 39.4643H10.4464C9.75 39.4643 9.28571 39 9.28571 38.3036C9.28571 37.6071 9.75 37.1429 10.4464 37.1429H15.0893C15.7857 37.1429 16.25 37.6071 16.25 38.3036C16.25 39 15.7857 39.4643 15.0893 39.4643ZM10.4464 34.8214H8.125C7.42857 34.8214 6.96429 34.3571 6.96429 33.6607C6.96429 32.9643 7.42857 32.5 8.125 32.5H10.4464C11.1429 32.5 11.6071 32.9643 11.6071 33.6607C11.6071 34.3571 11.1429 34.8214 10.4464 34.8214ZM15.0893 30.1786H10.4464C9.75 30.1786 9.28571 29.7143 9.28571 29.0179C9.28571 28.3214 9.75 27.8571 10.4464 27.8571H15.0893C15.7857 27.8571 16.25 28.3214 16.25 29.0179C16.25 29.7143 15.7857 30.1786 15.0893 30.1786ZM5.33929 6.96429C5.10714 6.96429 5.10714 6.73214 4.875 6.73214C4.64286 6.5 4.64286 6.03571 4.64286 5.80357C4.64286 5.57143 4.64286 5.10714 4.875 4.875C4.875 4.875 5.10714 4.64286 5.33929 4.64286H6.26786C6.5 4.64286 6.5 4.875 6.73214 4.875C6.73214 5.10714 6.96429 5.57143 6.96429 5.80357V6.26786C6.96429 6.5 6.73214 6.5 6.73214 6.73214C6.73214 6.73214 6.5 6.96429 6.26786 6.96429H5.33929ZM5.33929 39.4643C5.10714 39.4643 5.10714 39.2321 4.875 39.2321C4.64286 39.2321 4.64286 39 4.64286 38.7679V38.3036C4.64286 38.0714 4.64286 37.6071 4.875 37.375C5.33929 36.9107 6.03571 36.9107 6.5 37.375C6.73214 37.6071 6.96429 38.0714 6.96429 38.3036V38.7679C6.96429 39 6.73214 39 6.73214 39.2321C6.73214 39.2321 6.5 39.4643 6.26786 39.4643H5.33929ZM14.625 34.8214C14.3929 34.8214 14.3929 34.5893 14.1607 34.5893C13.9286 34.5893 13.9286 34.3571 13.9286 34.125V33.6607C13.9286 33.4286 13.9286 32.9643 14.1607 32.7321C14.625 32.2679 15.3214 32.2679 15.7857 32.7321C16.0179 32.9643 16.25 33.1964 16.25 33.6607V34.125C16.25 34.3571 16.0179 34.3571 16.0179 34.5893C16.0179 34.5893 15.7857 34.8214 15.5536 34.8214H14.625ZM5.33929 30.1786C5.10714 30.1786 5.10714 29.9464 4.875 29.9464C4.64286 29.9464 4.64286 29.7143 4.64286 29.4821V28.5536C4.64286 28.3214 4.875 28.3214 4.875 28.0893C5.33929 27.625 6.03571 27.625 6.5 28.0893C6.73214 28.0893 6.73214 28.3214 6.73214 28.5536V29.4821C6.73214 29.7143 6.5 29.7143 6.5 29.9464C6.5 29.9464 6.26786 30.1786 6.03572 30.1786H5.33929ZM34.8214 11.6071H2.32143C1.625 11.6071 1.16071 11.1429 1.16071 10.4464C1.16071 9.75 1.625 9.28572 2.32143 9.28572H34.8214C35.5179 9.28572 35.9821 9.75 35.9821 10.4464C35.9821 11.1429 35.5179 11.6071 34.8214 11.6071ZM34.8214 53.3929H2.32143C1.625 53.3929 1.16071 52.9286 1.16071 52.2321C1.16071 51.5357 1.625 51.0714 2.32143 51.0714H34.8214C35.5179 51.0714 35.9821 51.5357 35.9821 52.2321C35.9821 52.9286 35.5179 53.3929 34.8214 53.3929Z" fill="url(#paint1_linear_415_4765)"/>
<path d="M31.3393 65H5.80357C2.55357 65 0 62.4464 0 59.1964V5.80357C0 2.55357 2.55357 0 5.80357 0H31.3393C34.5893 0 37.1429 2.55357 37.1429 5.80357V22.0536C37.1429 22.75 36.6786 23.2143 35.9821 23.2143C35.2857 23.2143 34.8214 22.75 34.8214 22.0536V5.80357C34.8214 3.94643 33.1964 2.32143 31.3393 2.32143H5.80357C3.94643 2.32143 2.32143 3.94643 2.32143 5.80357V59.1964C2.32143 61.0536 3.94643 62.6786 5.80357 62.6786H31.3393C33.1964 62.6786 34.8214 61.0536 34.8214 59.1964V38.3036C34.8214 37.6071 35.2857 37.1429 35.9821 37.1429C36.6786 37.1429 37.1429 37.6071 37.1429 38.3036V59.1964C37.1429 62.4464 34.5893 65 31.3393 65Z" fill="url(#paint2_linear_415_4765)"/>
<path d="M22.0536 60.3571H15.0893C14.3929 60.3571 13.9286 59.8929 13.9286 59.1964V56.875C13.9286 56.1786 14.3929 55.7143 15.0893 55.7143H22.0536C22.75 55.7143 23.2143 56.1786 23.2143 56.875V59.1964C23.2143 59.8929 22.75 60.3571 22.0536 60.3571ZM42.9464 39.4643L22.0536 39.4643C20.1964 39.4643 18.5714 37.8393 18.5714 35.9821V24.375C18.5714 22.5179 20.1964 20.8929 22.0536 20.8929H42.9464C44.8036 20.8929 46.4286 22.5179 46.4286 24.375V35.9821C46.4286 37.8393 44.8036 39.4643 42.9464 39.4643ZM22.0536 23.2143C21.3571 23.2143 20.8929 23.6786 20.8929 24.375V35.9821C20.8929 36.6786 21.3571 37.1429 22.0536 37.1429L42.9464 37.1429C43.6429 37.1429 44.1071 36.6786 44.1071 35.9821V24.375C44.1071 23.6786 43.6429 23.2143 42.9464 23.2143H22.0536Z" fill="url(#paint3_linear_415_4765)"/>
<path d="M32.4998 30.1783C32.2677 30.1783 32.0355 30.1783 32.0355 29.9461L20.1963 23.4461C19.732 23.214 19.4998 22.5176 19.732 21.8211C19.9641 21.3569 20.6605 21.1247 21.357 21.3569L32.732 27.3926L44.107 21.3569C44.5713 21.1247 45.2677 21.3569 45.732 21.8211C45.9641 22.2854 45.732 22.9819 45.2677 23.4461L33.4284 29.9461C32.9641 30.1783 32.732 30.1783 32.4998 30.1783Z" fill="url(#paint4_linear_415_4765)"/>
<defs>
<linearGradient id="paint0_linear_415_4765" x1="-4.25595" y1="-8.66667" x2="113.716" y2="93.5447" gradientUnits="userSpaceOnUse">
<stop stop-color="#1B3DC6"/>
<stop offset="1" stop-color="#71DC69"/>
</linearGradient>
<linearGradient id="paint1_linear_415_4765" x1="-4.25595" y1="-8.66667" x2="113.716" y2="93.5447" gradientUnits="userSpaceOnUse">
<stop stop-color="#1B3DC6"/>
<stop offset="1" stop-color="#71DC69"/>
</linearGradient>
<linearGradient id="paint2_linear_415_4765" x1="-4.25595" y1="-8.66667" x2="113.716" y2="93.5447" gradientUnits="userSpaceOnUse">
<stop stop-color="#1B3DC6"/>
<stop offset="1" stop-color="#71DC69"/>
</linearGradient>
<linearGradient id="paint3_linear_415_4765" x1="-4.25595" y1="-8.66667" x2="113.716" y2="93.5447" gradientUnits="userSpaceOnUse">
<stop stop-color="#1B3DC6"/>
<stop offset="1" stop-color="#71DC69"/>
</linearGradient>
<linearGradient id="paint4_linear_415_4765" x1="-4.25595" y1="-8.66667" x2="113.716" y2="93.5447" gradientUnits="userSpaceOnUse">
<stop stop-color="#1B3DC6"/>
<stop offset="1" stop-color="#71DC69"/>
</linearGradient>
</defs>
</svg>
