<svg viewBox="0 0 24 24" fill="none" xmlns="http://www.w3.org/2000/svg">
<g clip-path="url(#clip0_1432_13754)">
<path d="M24 12C24 13.0397 23.1023 13.9476 22.846 14.9066C22.5808 15.8988 22.8964 17.1325 22.3938 18.0013C21.8839 18.8824 20.6529 19.2228 19.9377 19.938C19.2226 20.6531 18.8822 21.8841 18.0011 22.3939C17.1324 22.8965 15.8988 22.5808 14.9066 22.846C13.9477 23.1023 13.0398 24 12 24C10.9603 24 10.0524 23.1023 9.09339 22.846C8.10116 22.5808 6.86748 22.8964 5.99874 22.3938C5.11756 21.8839 4.77716 20.6529 4.06205 19.9377C3.34694 19.2226 2.11592 18.8822 1.60611 18.0011C1.10352 17.1324 1.41924 15.8988 1.15403 14.9066C0.897726 13.9477 0 13.0398 0 12C0 10.9603 0.897726 10.0524 1.15403 9.09339C1.41924 8.10116 1.10356 6.86748 1.60621 5.99874C2.11606 5.11756 3.34713 4.77716 4.06229 4.06205C4.7774 3.34694 5.11776 2.11592 5.99889 1.60611C6.86758 1.10352 8.10121 1.41924 9.09339 1.15403C10.0523 0.897726 10.9602 0 12 0C13.0397 0 13.9476 0.897726 14.9066 1.15403C15.8988 1.41924 17.1325 1.10356 18.0013 1.60621C18.8824 2.11606 19.2228 3.34713 19.938 4.06229C20.6531 4.7774 21.8841 5.11776 22.3939 5.99889C22.8965 6.86758 22.5808 8.10121 22.846 9.09339C23.1023 10.0523 24 10.9602 24 12Z" fill="#FFD100"/>
<path d="M4.06215 4.0625C3.34698 4.77756 2.11602 5.11797 1.60616 5.9991C1.10352 6.86784 1.41924 8.10152 1.15403 9.09374C0.897726 10.0527 0 10.9606 0 12.0004C0 13.0401 0.897726 13.948 1.15403 14.907C1.41924 15.8991 1.10352 17.1328 1.60611 18.0015C2.11592 18.8826 3.34698 19.223 4.06205 19.9381C4.77716 20.6532 5.11756 21.8843 5.99874 22.3941C6.86748 22.8968 8.10116 22.5811 9.09339 22.8463C10.0524 23.1026 10.9603 24.0004 12 24.0004C13.0398 24.0004 13.9477 23.1026 14.9066 22.8463C15.8988 22.5811 17.1324 22.8968 18.0011 22.3942C18.8822 21.8844 19.2226 20.6534 19.9377 19.9383L19.9378 19.9382L4.06215 4.0625Z" fill="#FF9500"/>
<path d="M12.0005 20.5166C16.7038 20.5166 20.5166 16.7038 20.5166 12.0005C20.5166 7.29718 16.7038 3.48438 12.0005 3.48438C7.29718 3.48438 3.48438 7.29718 3.48438 12.0005C3.48438 16.7038 7.29718 20.5166 12.0005 20.5166Z" fill="white"/>
<path d="M12.0005 20.5165C14.3522 20.5165 16.4812 19.5632 18.0223 18.0222L5.97868 5.97852C4.4376 7.51964 3.48438 9.64868 3.48438 12.0003C3.48438 16.7037 7.29718 20.5165 12.0005 20.5165Z" fill="#FFD100"/>
<path d="M11.9994 19.3542C16.0613 19.3542 19.3542 16.0613 19.3542 11.9994C19.3542 7.9374 16.0613 4.64453 11.9994 4.64453C7.9374 4.64453 4.64453 7.9374 4.64453 11.9994C4.64453 16.0613 7.9374 19.3542 11.9994 19.3542Z" fill="#FF4F19"/>
<path d="M6.79873 6.79883C5.46779 8.12976 4.64453 9.96847 4.64453 11.9995C4.64453 16.0614 7.93742 19.3543 11.9994 19.3543C14.0304 19.3543 15.8691 18.5311 17.2 17.2001L6.79873 6.79883Z" fill="#E7001E"/>
<path d="M8.51619 16.0646C8.36764 16.0646 8.21905 16.0079 8.10568 15.8945C7.87884 15.6679 7.87884 15.3001 8.10568 15.0734L15.0734 8.10568C15.3003 7.87884 15.6677 7.87884 15.8945 8.10568C16.1213 8.33232 16.1213 8.70011 15.8945 8.92676L8.92676 15.8945C8.81334 16.0079 8.66474 16.0646 8.51619 16.0646Z" fill="white"/>
<path d="M9.67786 11.8069C8.50409 11.8069 7.54883 10.8518 7.54883 9.67786C7.54883 8.50389 8.50409 7.54883 9.67786 7.54883C10.8516 7.54883 11.8069 8.50389 11.8069 9.67786C11.8069 10.8518 10.8516 11.8069 9.67786 11.8069ZM9.67786 8.71012C9.1441 8.71012 8.71012 9.1443 8.71012 9.67786C8.71012 10.2114 9.1441 10.6456 9.67786 10.6456C10.2116 10.6456 10.6456 10.2114 10.6456 9.67786C10.6456 9.1443 10.2116 8.71012 9.67786 8.71012Z" fill="white"/>
<path d="M14.3224 16.4514C13.1486 16.4514 12.1934 15.4964 12.1934 14.3224C12.1934 13.1484 13.1486 12.1934 14.3224 12.1934C15.4962 12.1934 16.4514 13.1484 16.4514 14.3224C16.4514 15.4964 15.4962 16.4514 14.3224 16.4514ZM14.3224 13.3546C13.7886 13.3546 13.3546 13.7888 13.3546 14.3224C13.3546 14.856 13.7886 15.2901 14.3224 15.2901C14.8561 15.2901 15.2901 14.856 15.2901 14.3224C15.2901 13.7888 14.8561 13.3546 14.3224 13.3546Z" fill="white"/>
</g>
<defs>
<clipPath id="clip0_1432_13754">
<rect width="24" height="24" fill="white"/>
</clipPath>
</defs>
</svg>
