<svg width="16" height="16" viewBox="0 0 16 16" fill="none" xmlns="http://www.w3.org/2000/svg">
<path d="M7.99995 10.9875C11.5839 10.9875 14.019 11.6159 14.2097 14.6097C14.2234 14.8241 14.396 15 14.6109 15C14.8258 15 15.0012 14.8244 14.9901 14.6098C14.833 11.5985 12.834 10.5929 10.3026 10.2928C11.5132 9.49552 12.3191 8.09163 12.3191 6.49375C12.3191 4.01578 10.3812 2 8.00008 2C5.61847 2 3.68108 4.01578 3.68108 6.49375C3.68108 8.09547 4.49128 9.50329 5.70683 10.2993C3.23736 10.6057 1.17359 11.6147 1.01039 14.6098C0.998702 14.8244 1.17421 15 1.3891 15C1.60399 15 1.77661 14.8241 1.79027 14.6097C1.98094 11.6159 4.41582 10.9875 7.99995 10.9875ZM4.45854 6.49308C4.45854 4.46176 6.04693 2.80905 7.99995 2.80905C9.95228 2.80905 11.5414 4.46171 11.5414 6.49308C11.5414 8.52445 9.95297 10.1771 7.99995 10.1771C6.04762 10.1778 4.45854 8.52511 4.45854 6.49308Z" fill="#454555" stroke="#454555" stroke-width="0.2"/>
</svg>
