<svg width="13" height="14" viewBox="0 0 13 14" fill="none" xmlns="http://www.w3.org/2000/svg">
<path d="M12.49 11.4251C12.1639 10.6392 11.6906 9.92541 11.0966 9.32337C10.5044 8.71959 9.80293 8.2382 9.03083 7.90578C9.02392 7.90226 9.017 7.9005 9.01009 7.89698C10.0871 7.10553 10.7872 5.81633 10.7872 4.36181C10.7872 1.95226 8.86833 0 6.5 0C4.13166 0 2.21279 1.95226 2.21279 4.36181C2.21279 5.81633 2.91292 7.10553 3.98991 7.89874C3.983 7.90226 3.97608 7.90402 3.96917 7.90754C3.1947 8.23995 2.49976 8.71658 1.90336 9.32513C1.3099 9.92763 0.836747 10.6414 0.510013 11.4269C0.18903 12.1959 0.0159161 13.0204 4.32282e-05 13.8558C-0.000418174 13.8745 0.00281802 13.8932 0.00956122 13.9107C0.0163044 13.9282 0.0264181 13.9441 0.0393064 13.9576C0.0521947 13.971 0.0675968 13.9817 0.0846052 13.989C0.101614 13.9963 0.119884 14 0.13834 14H1.17557C1.25163 14 1.31214 13.9384 1.31386 13.8628C1.34844 12.505 1.88434 11.2334 2.83167 10.2696C3.81185 9.27236 5.11357 8.72362 6.5 8.72362C7.88643 8.72362 9.18815 9.27236 10.1683 10.2696C11.1157 11.2334 11.6516 12.505 11.6861 13.8628C11.6879 13.9402 11.7484 14 11.8244 14H12.8617C12.8801 14 12.8984 13.9963 12.9154 13.989C12.9324 13.9817 12.9478 13.971 12.9607 13.9576C12.9736 13.9441 12.9837 13.9282 12.9904 13.9107C12.9972 13.8932 13.0004 13.8745 13 13.8558C12.9827 13.0151 12.8115 12.1972 12.49 11.4251ZM6.5 7.38693C5.70652 7.38693 4.95972 7.07211 4.39789 6.5005C3.83605 5.92889 3.52662 5.1691 3.52662 4.36181C3.52662 3.55452 3.83605 2.79472 4.39789 2.22312C4.95972 1.65151 5.70652 1.33668 6.5 1.33668C7.29348 1.33668 8.04028 1.65151 8.60211 2.22312C9.16394 2.79472 9.47338 3.55452 9.47338 4.36181C9.47338 5.1691 9.16394 5.92889 8.60211 6.5005C8.04028 7.07211 7.29348 7.38693 6.5 7.38693Z" fill="#656565"/>
</svg>
