<svg width="40" height="40" viewBox="0 0 40 40" fill="none" xmlns="http://www.w3.org/2000/svg">
<circle cx="20" cy="20" r="19.5" stroke="#C832D2"/>
<path fill-rule="evenodd" clip-rule="evenodd" d="M17.1158 15.5524L15.8376 13.8093C15.7506 13.6907 15.5864 13.6605 15.463 13.7404C13.7906 14.8225 13.3309 16.4755 14.0019 17.694C14.7356 19.0266 15.8673 20.661 17.6032 22.3968C19.339 24.1327 20.9734 25.2644 22.306 25.9981C23.5245 26.6691 25.1775 26.2094 26.2596 24.537C26.3395 24.4136 26.3092 24.2494 26.1907 24.1624L24.4476 22.8842C24.1913 22.6962 23.8514 22.6674 23.5671 22.8096L22.8723 23.1569C22.2814 23.4524 21.4713 23.5562 20.7045 23.1617C20.1918 22.898 19.4016 22.3967 18.5025 21.4975C17.6033 20.5984 17.102 19.8082 16.8383 19.2955C16.4438 18.5287 16.5476 17.7186 16.8431 17.1277L17.1904 16.4329C17.3326 16.1486 17.3038 15.8087 17.1158 15.5524ZM14.5418 12.3167C12.3878 13.7105 11.279 16.2645 12.5164 18.5119C13.324 19.9787 14.5507 21.7425 16.4041 23.5959C18.2575 25.4493 20.0213 26.676 21.4881 27.4836C23.7355 28.721 26.2895 27.6122 27.6833 25.4582C28.251 24.5809 28.0362 23.413 27.1935 22.795L25.4504 21.5168C24.6814 20.9528 23.6616 20.8664 22.8087 21.2929L22.114 21.6403C21.9128 21.7408 21.6802 21.7567 21.4802 21.6538C21.1159 21.4664 20.4703 21.0673 19.7015 20.2985C18.9327 19.5297 18.5336 18.8841 18.3462 18.5198C18.2433 18.3198 18.2592 18.0872 18.3597 17.886L18.7071 17.1913C19.1336 16.3384 19.0472 15.3186 18.4832 14.5496L17.205 12.8065C16.587 11.9638 15.4191 11.749 14.5418 12.3167Z" fill="#E88A23"/>
</svg>
