<svg  viewBox="0 0 64 64" fill="none" xmlns="http://www.w3.org/2000/svg">
<path d="M28.0339 8.38237C24.4235 8.60161 20.9082 9.62774 17.7468 11.3852C14.5854 13.1427 11.8583 15.5868 9.76643 18.5376C7.67451 21.4884 6.27098 24.8707 5.65913 28.4357C5.04728 32.0006 5.24271 35.6574 6.23101 39.1369C7.21932 42.6163 8.97535 45.8298 11.3698 48.5408C13.7643 51.2519 16.7363 53.3914 20.067 54.8019C23.3977 56.2125 27.0024 56.8581 30.6156 56.6913C34.2288 56.5245 37.7587 55.5495 40.9453 53.8381L29.5001 32.5275L28.0339 8.38237Z" fill="#FC3C2F"/>
<path d="M52.4393 24.7769C51.1291 19.9887 48.2683 15.7625 44.3263 12.7912C40.3842 9.81997 35.5948 8.28 30.7434 8.42387L31.8082 30.226L52.4393 24.7769Z" fill="#FC3C2F"/>
<path d="M42.3814 52.9256C47.1971 50.7821 51.0085 46.9896 53.1523 42.208C55.2961 37.4265 55.6365 31.9588 54.1142 26.7566L32.0004 32L42.3814 52.9256Z" fill="#FC3C2F"/>
</svg>
