<svg xmlns="http://www.w3.org/2000/svg" width="28" height="28"><path fill-rule="evenodd" d="M14 0A14 14 0 0 0 0 14a14 14 0 0 0 14 14 14 14 0 0 0 14-14A14 14 0 0 0 14 0zm-1.508 5.03a.875.875 0 0 1 .371.093l.022.012.02.011c.866.542 1.672 1.337 2.015 2.481.344 1.146.113 2.278-.332 3.168a.923.923 0 0 1-.553.463.92.92 0 0 1-.719-.04l-.021-.011-.02-.012c-.866-.541-1.67-1.337-2.013-2.48-.332-1.107-.223-2.251.345-3.18a.926.926 0 0 1 .538-.451c.108-.036.226-.058.347-.055zm-.037 1.032c-.404.663-.498 1.494-.236 2.366.245.817.81 1.395 1.498 1.845.332-.697.492-1.533.244-2.359-.246-.82-.814-1.4-1.506-1.851zm4.984 4.108c.317 0 .577.143.768.334.191.191.334.45.334.767 0 1.134-.464 2.17-1.248 2.954-.576.576-1.27.99-2.053 1.166v.554c.886-.661 1.922-.974 3-.974.261 0 .529.094.717.283.189.188.283.456.283.717 0 1.22-.442 2.548-1.447 3.552a4.85 4.85 0 0 1-2.553 1.362v.586c0 .41-.146.802-.422 1.078a1.516 1.516 0 0 1-1.078.422c-.41 0-.802-.146-1.078-.422a1.516 1.516 0 0 1-.422-1.078v-.55a4.842 4.842 0 0 1-2.754-1.398c-1.004-1.004-1.445-2.331-1.445-3.552 0-.261.095-.529.283-.717.189-.189.456-.283.717-.283 1.16 0 2.272.358 3.2 1.127v-.707c-.784-.177-1.477-.59-2.053-1.166-.785-.785-1.249-1.806-1.249-2.854 0-.325.14-.632.356-.824.216-.192.485-.276.746-.276 1.048 0 2.152.446 2.953 1.247.302.302.53.633.717.978.194-.382.444-.746.775-1.078.801-.801 1.905-1.248 2.953-1.248zm0 1c-.751 0-1.647.356-2.246.955a3.24 3.24 0 0 0-.69 1.041c.115.063.223.134.315.227.254.253.39.606.412.98.491-.151.94-.44 1.356-.855.616-.616.955-1.38.955-2.247 0 .017-.007-.026-.041-.06s-.077-.041-.06-.041zm-7.398.101a.145.145 0 0 0-.082.024c-.01.008-.02.001-.02.076 0 .752.34 1.53.956 2.147.416.416.864.704 1.355.855.022-.374.158-.727.412-.98.083-.084.18-.15.281-.21a3.218 3.218 0 0 0-.656-.958c-.599-.6-1.494-.954-2.246-.954zm3.7 2.7-.28.07c-.032.019-.068.035-.092.059a.4.4 0 0 0-.092.142.632.632 0 0 0-.037.229v7c0 .189.055.297.13.37.073.075.181.13.37.13.19 0 .297-.055.371-.13.074-.073.13-.181.13-.37v-7c0-.19-.056-.297-.13-.371-.074-.074-.182-.13-.37-.13zm-4.7 2c0 .978.357 2.05 1.152 2.845.63.63 1.298.956 2.047 1.094v-2.44a.5.5 0 0 1-.053-.046l-.3-.299c-.809-.808-1.757-1.154-2.846-1.154zm9.2 0c-1.09 0-2.038.346-2.846 1.154l-.155.152v2.596c.67-.159 1.273-.484 1.846-1.057.795-.795 1.154-1.867 1.154-2.845z"/></svg>