<svg width="38" height="38" viewBox="0 0 38 38" fill="none" xmlns="http://www.w3.org/2000/svg">
<g filter="url(#filter0_d_2818_23977)">
<path d="M31.2716 21.8189H12.1811V2.72839H31.2716M31.2716 0H12.1811C11.823 0.000268488 11.4686 0.0710533 11.1379 0.208313C10.8072 0.345573 10.5068 0.546619 10.2539 0.799973C10.0009 1.05333 9.80029 1.35403 9.66353 1.68491C9.52676 2.01578 9.45651 2.37036 9.45678 2.72839V21.8189C9.45651 22.1768 9.52679 22.5311 9.6636 22.8618C9.80042 23.1924 10.0011 23.4929 10.2541 23.7459C10.5071 23.9989 10.8076 24.1996 11.1382 24.3364C11.4689 24.4732 11.8232 24.5435 12.1811 24.5432H31.2716C31.6296 24.5435 31.9842 24.4732 32.3151 24.3365C32.646 24.1997 32.9467 23.9991 33.2 23.7461C33.4534 23.4932 33.6544 23.1928 33.7917 22.8621C33.9289 22.5314 33.9997 22.177 34 21.8189V2.72839C33.9997 2.00486 33.7122 1.31104 33.2006 0.799426C32.689 0.287813 31.9951 0.000271036 31.2716 0ZM6.72839 5.45678H4V27.2716C4.00027 27.9951 4.28781 28.689 4.79943 29.2006C5.31104 29.7122 6.00486 29.9997 6.72839 30H28.5432V27.2716H6.72839M24.4005 12.6674L20.6495 17.4963L17.9774 14.277L14.2263 19.0905H29.2263L24.4005 12.6674Z" fill="#BDBDBD"/>
</g>
<defs>
<filter id="filter0_d_2818_23977" x="0" y="0" width="38" height="38" filterUnits="userSpaceOnUse" color-interpolation-filters="sRGB">
<feFlood flood-opacity="0" result="BackgroundImageFix"/>
<feColorMatrix in="SourceAlpha" type="matrix" values="0 0 0 0 0 0 0 0 0 0 0 0 0 0 0 0 0 0 127 0" result="hardAlpha"/>
<feOffset dy="4"/>
<feGaussianBlur stdDeviation="2"/>
<feComposite in2="hardAlpha" operator="out"/>
<feColorMatrix type="matrix" values="0 0 0 0 0 0 0 0 0 0 0 0 0 0 0 0 0 0 0.25 0"/>
<feBlend mode="normal" in2="BackgroundImageFix" result="effect1_dropShadow_2818_23977"/>
<feBlend mode="normal" in="SourceGraphic" in2="effect1_dropShadow_2818_23977" result="shape"/>
</filter>
</defs>
</svg>
