<svg width="19" height="19" viewBox="0 0 16 16" fill="none" xmlns="http://www.w3.org/2000/svg">
<g clip-path="url(#clip0_2_79)">
<path d="M7.99996 12.375C7.82687 12.3749 7.65763 12.4261 7.51365 12.5221C7.36967 12.6182 7.25741 12.7548 7.19108 12.9147C7.12475 13.0746 7.10733 13.2505 7.14101 13.4203C7.1747 13.5901 7.25798 13.746 7.38033 13.8685C7.50267 13.9909 7.65858 14.0743 7.82833 14.1081C7.99808 14.142 8.17405 14.1247 8.33397 14.0585C8.4939 13.9923 8.63059 13.8801 8.72677 13.7362C8.82295 13.5923 8.87428 13.4231 8.87428 13.25C8.87411 13.0181 8.78196 12.7957 8.61805 12.6317C8.45414 12.4677 8.23185 12.3753 7.99996 12.375ZM7.99996 13.625C7.92578 13.6251 7.85325 13.6031 7.79154 13.5619C7.72983 13.5208 7.68172 13.4622 7.6533 13.3937C7.62487 13.3252 7.6174 13.2498 7.63184 13.177C7.64627 13.1043 7.68197 13.0374 7.7344 12.9849C7.78683 12.9325 7.85365 12.8967 7.9264 12.8822C7.99915 12.8677 8.07457 12.8751 8.14311 12.9035C8.21165 12.9319 8.27023 12.98 8.31145 13.0416C8.35267 13.1033 8.37467 13.1758 8.37467 13.25C8.3746 13.3494 8.33511 13.4447 8.26486 13.515C8.19461 13.5853 8.09934 13.6249 7.99996 13.625Z" fill="#251F39" fill-opacity="0.7"/>
<path d="M12.3719 10.4999H4.37805C4.27955 10.4985 4.1819 10.5183 4.09168 10.5578C4.00146 10.5973 3.92076 10.6558 3.85503 10.7291C3.78931 10.8025 3.74007 10.8891 3.71065 10.9831C3.68124 11.0772 3.67232 11.1764 3.68449 11.2741L4.12306 15.2801C4.14861 15.4762 4.24361 15.6567 4.39082 15.7887C4.53803 15.9208 4.7277 15.9957 4.92542 15.9999H11.8245C12.0222 15.9957 12.2119 15.9208 12.3591 15.7887C12.5063 15.6567 12.6013 15.4762 12.6269 15.2801L13.0654 11.2741C13.0776 11.1764 13.0687 11.0772 13.0393 10.9831C13.0098 10.8891 12.9606 10.8025 12.8949 10.7291C12.8292 10.6558 12.7485 10.5973 12.6582 10.5578C12.568 10.5183 12.4704 10.4985 12.3719 10.4999ZM12.5687 11.2197L12.1302 15.2257C12.1189 15.2997 12.0822 15.3675 12.0265 15.4175C11.9707 15.4675 11.8993 15.4967 11.8245 15.4999H4.92542C4.85059 15.4967 4.77922 15.4675 4.72347 15.4175C4.66772 15.3675 4.63106 15.2997 4.61974 15.2257L4.18118 11.2197C4.17732 11.1919 4.17956 11.1635 4.18776 11.1367C4.19596 11.1098 4.20992 11.0851 4.22865 11.0642C4.24739 11.0432 4.27046 11.0266 4.29627 11.0155C4.32207 11.0045 4.34997 10.9991 4.37805 10.9999H12.3719C12.3999 10.9992 12.4278 11.0046 12.4536 11.0157C12.4793 11.0268 12.5024 11.0434 12.5211 11.0643C12.5398 11.0852 12.5538 11.1099 12.562 11.1368C12.5702 11.1636 12.5725 11.1919 12.5687 11.2197Z" fill="#5F5B6D"/>
<path d="M14.4952 10.2499C14.3492 7.97549 11.3492 7.49419 11.3492 7.49419C11.188 7.46586 11.0322 7.4124 10.8875 7.33575C11.1969 7.16457 11.4919 6.96867 11.7698 6.74997C11.8143 6.71508 11.8458 6.66618 11.8591 6.6112C12.044 5.84851 13.2446 0.206286 8.35303 0.00161859C8.25953 -0.00166646 8.16592 4.97391e-05 8.0726 0.00675984C7.05437 0.0726011 3.67104 0.732842 4.88875 6.67897C4.90076 6.73815 4.93365 6.79103 4.98143 6.82796C5.24801 7.02747 5.53151 7.2033 5.8287 7.35347C5.69337 7.42061 5.54911 7.468 5.40032 7.49419C5.40032 7.49419 2.4007 7.97549 2.25469 10.2499C2.25469 10.2499 1.99505 12.9731 2.00007 14.128C2.00063 14.2601 2.05354 14.3865 2.14719 14.4797C2.24084 14.5728 2.3676 14.625 2.49969 14.6249H3.54873L3.49409 14.1257L2.49968 14.1258C2.49483 13.0116 2.749 10.3266 2.75157 10.3021L2.75263 10.2921L2.75327 10.282C2.87168 8.4376 5.45428 7.99202 5.47943 7.98789L5.48372 7.98719L5.488 7.98643C5.66022 7.95624 5.82797 7.90454 5.98731 7.83254L4.78342 9.49778C4.55168 9.81846 4.58568 9.9999 4.84014 9.9999C4.94416 9.99607 5.0471 9.97734 5.14581 9.94429C5.55165 9.81529 5.96746 9.72008 6.389 9.65963C6.41034 9.657 6.43067 9.65363 6.45127 9.65045C6.56177 9.76065 6.66561 9.87734 6.76223 9.9999H7.3865C7.25717 9.80758 7.11392 9.62499 6.95792 9.4536C7.11007 9.32347 7.16738 9.13152 7.09403 8.86114L6.67341 7.31016C6.75586 7.2123 6.82951 7.10735 6.89352 6.99654C7.07783 7.20559 7.30486 7.37265 7.55928 7.48644C7.81369 7.60023 8.08956 7.65809 8.36825 7.65612C8.38525 7.65612 8.40218 7.65593 8.41941 7.65554L8.42398 7.65558C8.4853 7.65558 9.15349 7.63703 9.80847 6.90975C9.88285 7.05273 9.97271 7.18711 10.0764 7.31046L9.6559 8.86114C9.58255 9.13151 9.63986 9.32348 9.79202 9.4536C9.63601 9.62499 9.49277 9.80758 9.36344 9.9999H9.99116C10.0873 9.87757 10.1906 9.76097 10.3004 9.65071C10.3205 9.65378 10.3402 9.65707 10.3609 9.65963C10.7825 9.72008 11.1983 9.81529 11.6041 9.94429C11.7028 9.97734 11.8058 9.99607 11.9098 9.9999C12.1642 9.9999 12.1982 9.81846 11.9665 9.49778L10.7628 7.83276C10.922 7.90464 11.0895 7.95626 11.2615 7.98643L11.2658 7.98719L11.2701 7.98788C11.2962 7.99206 13.8776 8.42744 13.9967 10.282L13.9973 10.2925L13.9984 10.303C14.001 10.3271 14.2558 12.9808 14.2503 14.1249L13.2559 14.125L13.2012 14.6249H14.2503C14.3824 14.6249 14.5092 14.5726 14.6028 14.4793C14.6965 14.3861 14.7493 14.2596 14.7499 14.1274C14.7557 12.9416 14.4952 10.2499 14.4952 10.2499ZM8.42602 7.15554L8.4205 7.15539L8.40818 7.15567C8.39882 7.15588 8.38963 7.15592 8.38039 7.15598L8.36825 7.15609C8.36514 7.15609 8.36218 7.15578 8.35908 7.15577C7.68066 7.15206 7.16172 6.74274 6.7731 5.90405C6.52613 5.33436 6.36257 4.73205 6.28746 4.11569C7.16105 3.76273 7.89857 3.13916 8.39188 2.33642C8.99167 3.21331 9.91381 3.79171 10.45 4.07497C9.95125 7.06804 8.51242 7.15325 8.42602 7.15554ZM6.38102 8.14093L6.61187 8.99214C6.62045 9.02059 6.62531 9.05003 6.62632 9.07973C6.53418 9.12929 6.43223 9.15786 6.32775 9.1634C6.05896 9.19875 5.79256 9.25038 5.53003 9.31802L6.38102 8.14093ZM6.27258 7.01194C5.95243 6.86568 5.64674 6.68964 5.35955 6.48614C4.91294 4.23632 5.10494 2.58231 5.93066 1.56941C6.58108 0.771553 7.49713 0.568107 7.98183 0.517114C8.06517 0.715844 8.19094 1.1532 8.08283 1.83578C8.08152 1.84647 8.0809 1.85724 8.081 1.86801C7.77587 2.46323 7.15768 3.24844 5.92518 3.72324C5.87426 3.7433 5.83136 3.77955 5.80309 3.82641C5.77482 3.87326 5.76275 3.92812 5.76875 3.98251C5.81692 4.44828 5.99104 5.64964 6.5559 6.5527C6.48681 6.72004 6.39114 6.87512 6.27258 7.01194ZM10.9723 3.96986C10.9799 3.91783 10.9709 3.86471 10.9464 3.81816C10.9219 3.77161 10.8833 3.73403 10.8361 3.71084C10.3946 3.49342 9.16535 2.81094 8.60244 1.71558C8.65392 1.31228 8.6224 0.902712 8.50982 0.512039C9.57618 0.591354 10.3755 0.974495 10.8864 1.65339C12.0347 3.17931 11.5233 5.83031 11.3931 6.40937C11.1014 6.63305 10.7893 6.82879 10.4609 6.99399C10.3264 6.83276 10.2224 6.64835 10.1541 6.44982C10.4963 5.90559 10.8022 5.11628 10.9723 3.96986ZM10.4221 9.1634C10.3177 9.15786 10.2157 9.12929 10.1236 9.07973C10.1246 9.05002 10.1295 9.02056 10.1381 8.9921L10.3689 8.14093L11.2199 9.31802C10.9574 9.25039 10.6909 9.19875 10.4221 9.1634Z" fill="#5F5B6D"/>
<path d="M12.3719 10.4999H4.37805C4.27955 10.4985 4.1819 10.5183 4.09168 10.5578C4.00146 10.5973 3.92076 10.6558 3.85503 10.7291C3.78931 10.8025 3.74007 10.8891 3.71065 10.9831C3.68124 11.0772 3.67232 11.1764 3.68449 11.2741L4.12306 15.2801C4.14861 15.4762 4.24361 15.6567 4.39082 15.7887C4.53803 15.9208 4.7277 15.9957 4.92542 15.9999H11.8245C12.0222 15.9957 12.2119 15.9208 12.3591 15.7887C12.5063 15.6567 12.6013 15.4762 12.6269 15.2801L13.0654 11.2741C13.0776 11.1764 13.0687 11.0772 13.0393 10.9831C13.0098 10.8891 12.9606 10.8025 12.8949 10.7291C12.8292 10.6558 12.7485 10.5973 12.6582 10.5578C12.568 10.5183 12.4704 10.4985 12.3719 10.4999ZM12.5687 11.2197L12.1302 15.2257C12.1189 15.2997 12.0822 15.3675 12.0265 15.4175C11.9707 15.4675 11.8993 15.4967 11.8245 15.4999H4.92542C4.85059 15.4967 4.77922 15.4675 4.72347 15.4175C4.66772 15.3675 4.63106 15.2997 4.61974 15.2257L4.18118 11.2197C4.17732 11.1919 4.17956 11.1635 4.18776 11.1367C4.19596 11.1098 4.20992 11.0851 4.22865 11.0642C4.24739 11.0432 4.27046 11.0266 4.29627 11.0155C4.32207 11.0045 4.34997 10.9991 4.37805 10.9999H12.3719C12.3999 10.9992 12.4278 11.0046 12.4536 11.0157C12.4793 11.0268 12.5024 11.0434 12.5211 11.0643C12.5398 11.0852 12.5538 11.1099 12.562 11.1368C12.5702 11.1636 12.5725 11.1919 12.5687 11.2197Z" stroke="#5F5B6D" stroke-width="0.2"/>
<path d="M14.4952 10.2499C14.3492 7.97549 11.3492 7.49419 11.3492 7.49419C11.188 7.46586 11.0322 7.4124 10.8875 7.33575C11.1969 7.16457 11.4919 6.96867 11.7698 6.74997C11.8143 6.71508 11.8458 6.66618 11.8591 6.6112C12.044 5.84851 13.2446 0.206286 8.35303 0.00161859C8.25953 -0.00166646 8.16592 4.97391e-05 8.0726 0.00675984C7.05437 0.0726011 3.67104 0.732842 4.88875 6.67897C4.90076 6.73815 4.93365 6.79103 4.98143 6.82796C5.24801 7.02747 5.53151 7.2033 5.8287 7.35347C5.69337 7.42061 5.54911 7.468 5.40032 7.49419C5.40032 7.49419 2.4007 7.97549 2.25469 10.2499C2.25469 10.2499 1.99505 12.9731 2.00007 14.128C2.00063 14.2601 2.05354 14.3865 2.14719 14.4797C2.24084 14.5728 2.3676 14.625 2.49969 14.6249H3.54873L3.49409 14.1257L2.49968 14.1258C2.49483 13.0116 2.749 10.3266 2.75157 10.3021L2.75263 10.2921L2.75327 10.282C2.87168 8.4376 5.45428 7.99202 5.47943 7.98789L5.48372 7.98719L5.488 7.98643C5.66022 7.95624 5.82797 7.90454 5.98731 7.83254L4.78342 9.49778C4.55168 9.81846 4.58568 9.9999 4.84014 9.9999C4.94416 9.99607 5.0471 9.97734 5.14581 9.94429C5.55165 9.81529 5.96746 9.72008 6.389 9.65963C6.41034 9.657 6.43067 9.65363 6.45127 9.65045C6.56177 9.76065 6.66561 9.87734 6.76223 9.9999H7.3865C7.25717 9.80758 7.11392 9.62499 6.95792 9.4536C7.11007 9.32347 7.16738 9.13152 7.09403 8.86114L6.67341 7.31016C6.75586 7.2123 6.82951 7.10735 6.89352 6.99654C7.07783 7.20559 7.30486 7.37265 7.55928 7.48644C7.81369 7.60023 8.08956 7.65809 8.36825 7.65612C8.38525 7.65612 8.40218 7.65593 8.41941 7.65554L8.42398 7.65558C8.4853 7.65558 9.15349 7.63703 9.80847 6.90975C9.88285 7.05273 9.97271 7.18711 10.0764 7.31046L9.6559 8.86114C9.58255 9.13151 9.63986 9.32348 9.79202 9.4536C9.63601 9.62499 9.49277 9.80758 9.36344 9.9999H9.99116C10.0873 9.87757 10.1906 9.76097 10.3004 9.65071C10.3205 9.65378 10.3402 9.65707 10.3609 9.65963C10.7825 9.72008 11.1983 9.81529 11.6041 9.94429C11.7028 9.97734 11.8058 9.99607 11.9098 9.9999C12.1642 9.9999 12.1982 9.81846 11.9665 9.49778L10.7628 7.83276C10.922 7.90464 11.0895 7.95626 11.2615 7.98643L11.2658 7.98719L11.2701 7.98788C11.2962 7.99206 13.8776 8.42744 13.9967 10.282L13.9973 10.2925L13.9984 10.303C14.001 10.3271 14.2558 12.9808 14.2503 14.1249L13.2559 14.125L13.2012 14.6249H14.2503C14.3824 14.6249 14.5092 14.5726 14.6028 14.4793C14.6965 14.3861 14.7493 14.2596 14.7499 14.1274C14.7557 12.9416 14.4952 10.2499 14.4952 10.2499ZM8.42602 7.15554L8.4205 7.15539L8.40818 7.15567C8.39882 7.15588 8.38963 7.15592 8.38039 7.15598L8.36825 7.15609C8.36514 7.15609 8.36218 7.15578 8.35908 7.15577C7.68066 7.15206 7.16172 6.74274 6.7731 5.90405C6.52613 5.33436 6.36257 4.73205 6.28746 4.11569C7.16105 3.76273 7.89857 3.13916 8.39188 2.33642C8.99167 3.21331 9.91381 3.79171 10.45 4.07497C9.95125 7.06804 8.51242 7.15325 8.42602 7.15554ZM6.38102 8.14093L6.61187 8.99214C6.62045 9.02059 6.62531 9.05003 6.62632 9.07973C6.53418 9.12929 6.43223 9.15786 6.32775 9.1634C6.05896 9.19875 5.79256 9.25038 5.53003 9.31802L6.38102 8.14093ZM6.27258 7.01194C5.95243 6.86568 5.64674 6.68964 5.35955 6.48614C4.91294 4.23632 5.10494 2.58231 5.93066 1.56941C6.58108 0.771553 7.49713 0.568107 7.98183 0.517114C8.06517 0.715844 8.19094 1.1532 8.08283 1.83578C8.08152 1.84647 8.0809 1.85724 8.081 1.86801C7.77587 2.46323 7.15768 3.24844 5.92518 3.72324C5.87426 3.7433 5.83136 3.77955 5.80309 3.82641C5.77482 3.87326 5.76275 3.92812 5.76875 3.98251C5.81692 4.44828 5.99104 5.64964 6.5559 6.5527C6.48681 6.72004 6.39114 6.87512 6.27258 7.01194ZM10.9723 3.96986C10.9799 3.91783 10.9709 3.86471 10.9464 3.81816C10.9219 3.77161 10.8833 3.73403 10.8361 3.71084C10.3946 3.49342 9.16535 2.81094 8.60244 1.71558C8.65392 1.31228 8.6224 0.902712 8.50982 0.512039C9.57618 0.591354 10.3755 0.974495 10.8864 1.65339C12.0347 3.17931 11.5233 5.83031 11.3931 6.40937C11.1014 6.63305 10.7893 6.82879 10.4609 6.99399C10.3264 6.83276 10.2224 6.64835 10.1541 6.44982C10.4963 5.90559 10.8022 5.11628 10.9723 3.96986ZM10.4221 9.1634C10.3177 9.15786 10.2157 9.12929 10.1236 9.07973C10.1246 9.05002 10.1295 9.02056 10.1381 8.9921L10.3689 8.14093L11.2199 9.31802C10.9574 9.25039 10.6909 9.19875 10.4221 9.1634Z" stroke="#5F5B6D" stroke-width="0.2"/>
</g>
<defs>
<clipPath id="clip0_2_79">
<rect width="16" height="16" fill="white"/>
</clipPath>
</defs>
</svg>
