<svg width="20" height="20" viewBox="0 0 17 16" fill="none" xmlns="http://www.w3.org/2000/svg">
<path d="M4.65423 5.33268C4.9694 5.33268 5.28149 5.27061 5.57267 5.15C5.86385 5.02938 6.12843 4.8526 6.35129 4.62974C6.57415 4.40688 6.75093 4.14231 6.87154 3.85112C6.99215 3.55994 7.05423 3.24786 7.05423 2.93268C7.05423 2.61751 6.99215 2.30543 6.87154 2.01424C6.75093 1.72306 6.57415 1.45849 6.35129 1.23563C6.12843 1.01277 5.86385 0.835985 5.57267 0.715374C5.28149 0.594762 4.9694 0.532684 4.65423 0.532684C4.01771 0.532684 3.40726 0.785541 2.95718 1.23563C2.50709 1.68572 2.25423 2.29616 2.25423 2.93268C2.25423 3.5692 2.50709 4.17965 2.95718 4.62974C3.40726 5.07983 4.01771 5.33268 4.65423 5.33268ZM4.65423 4.26602C4.30061 4.26602 3.96147 4.12554 3.71142 3.87549C3.46137 3.62544 3.3209 3.28631 3.3209 2.93268C3.3209 2.57906 3.46137 2.23992 3.71142 1.98988C3.96147 1.73983 4.30061 1.59935 4.65423 1.59935C5.00785 1.59935 5.34699 1.73983 5.59704 1.98988C5.84709 2.23992 5.98757 2.57906 5.98757 2.93268C5.98757 3.28631 5.84709 3.62544 5.59704 3.87549C5.34699 4.12554 5.00785 4.26602 4.65423 4.26602ZM0.920898 6.93268C0.920898 6.64979 1.03328 6.37848 1.23332 6.17844C1.43336 5.9784 1.70467 5.86602 1.98757 5.86602H7.3209C7.6038 5.86602 7.87511 5.9784 8.07515 6.17844C8.27518 6.37848 8.38757 6.64979 8.38757 6.93268V11.7327C8.38757 12.223 8.291 12.7084 8.10338 13.1614C7.91576 13.6143 7.64077 14.0259 7.2941 14.3726C6.94743 14.7192 6.53587 14.9942 6.08292 15.1818C5.62997 15.3695 5.1445 15.466 4.65423 15.466C4.16396 15.466 3.6785 15.3695 3.22555 15.1818C2.7726 14.9942 2.36104 14.7192 2.01437 14.3726C1.66769 14.0259 1.3927 13.6143 1.20508 13.1614C1.01746 12.7084 0.920898 12.223 0.920898 11.7327V6.93268ZM1.98757 6.93268V11.7327C1.98757 12.4399 2.26852 13.1182 2.76861 13.6183C3.26871 14.1184 3.94699 14.3994 4.65423 14.3994C5.36148 14.3994 6.03975 14.1184 6.53985 13.6183C7.03995 13.1182 7.3209 12.4399 7.3209 11.7327V6.93268H1.98757ZM7.98863 3.88522C7.89458 4.21377 7.75222 4.52652 7.56623 4.81322C8.00676 4.86442 8.4057 5.04788 8.7225 5.32522C9.10773 5.35706 9.49495 5.29538 9.85122 5.14543C10.2075 4.99547 10.5223 4.76169 10.7688 4.46395C11.0153 4.16622 11.1863 3.81334 11.2671 3.43535C11.3479 3.05736 11.3363 2.66543 11.2331 2.2929C11.13 1.92038 10.9384 1.57828 10.6746 1.29571C10.4109 1.01314 10.0828 0.798463 9.71821 0.669934C9.35366 0.541404 8.96346 0.502829 8.5808 0.55749C8.19814 0.612151 7.83435 0.75843 7.52037 0.983884C7.72623 1.28468 7.88517 1.62068 7.98863 1.98015C8.17624 1.7966 8.41385 1.6725 8.67169 1.62341C8.92952 1.57432 9.19611 1.60242 9.43805 1.70419C9.67998 1.80595 9.8865 1.97686 10.0317 2.19549C10.1769 2.41412 10.2544 2.67075 10.2544 2.93322C10.2544 3.19568 10.1769 3.45231 10.0317 3.67094C9.8865 3.88957 9.67998 4.06048 9.43805 4.16225C9.19611 4.26401 8.92952 4.29211 8.67169 4.24302C8.41385 4.19393 8.17624 4.06983 7.98863 3.88628V3.88522ZM7.85317 15.3114C8.41053 15.4777 8.99906 15.5115 9.57181 15.4101C10.1446 15.3087 10.6857 15.0749 11.1521 14.7272C11.6184 14.3796 11.9971 13.9278 12.2579 13.4079C12.5187 12.888 12.6544 12.3143 12.6542 11.7327V6.93268C12.6542 6.64979 12.5419 6.37848 12.3418 6.17844C12.1418 5.9784 11.8705 5.86602 11.5876 5.86602H9.16943C9.35077 6.17962 9.4553 6.54442 9.4553 6.93268H11.5886V11.7327C11.5887 12.1054 11.5107 12.474 11.3595 12.8147C11.2083 13.1554 10.9874 13.4607 10.711 13.7107C10.4346 13.9608 10.1089 14.1501 9.7548 14.2665C9.40071 14.3829 9.02616 14.4238 8.6553 14.3866C8.4281 14.7279 8.1593 15.0383 7.8553 15.3114H7.85317ZM12.2553 3.88522C12.1612 4.21376 12.0189 4.5265 11.8329 4.81322C12.2734 4.86442 12.6724 5.04788 12.9892 5.32522C13.3744 5.35706 13.7616 5.29538 14.1179 5.14543C14.4742 4.99547 14.7889 4.76169 15.0355 4.46395C15.282 4.16622 15.4529 3.81334 15.5338 3.43535C15.6146 3.05736 15.603 2.66543 15.4998 2.2929C15.3967 1.92038 15.2051 1.57828 14.9413 1.29571C14.6775 1.01314 14.3494 0.798463 13.9849 0.669934C13.6203 0.541404 13.2301 0.502829 12.8475 0.55749C12.4648 0.612151 12.101 0.75843 11.787 0.983884C11.9929 1.28468 12.1518 1.62068 12.2553 1.98015C12.4429 1.7966 12.6805 1.6725 12.9384 1.62341C13.1962 1.57432 13.4628 1.60242 13.7047 1.70419C13.9466 1.80595 14.1532 1.97686 14.2984 2.19549C14.4436 2.41412 14.5211 2.67075 14.5211 2.93322C14.5211 3.19568 14.4436 3.45231 14.2984 3.67094C14.1532 3.88957 13.9466 4.06048 13.7047 4.16225C13.4628 4.26401 13.1962 4.29211 12.9384 4.24302C12.6805 4.19393 12.4429 4.06983 12.2553 3.88628V3.88522ZM12.1198 15.3114C12.6772 15.4777 13.2657 15.5115 13.8385 15.4101C14.4112 15.3087 14.9524 15.0749 15.4187 14.7272C15.8851 14.3796 16.2638 13.9278 16.5246 13.4079C16.7854 12.888 16.9211 12.3143 16.9209 11.7327V6.93268C16.9209 6.64979 16.8085 6.37848 16.6085 6.17844C16.4084 5.9784 16.1371 5.86602 15.8542 5.86602H13.4361C13.6174 6.17962 13.722 6.54442 13.722 6.93268H15.8553V11.7327C15.8554 12.1054 15.7773 12.474 15.6262 12.8147C15.475 13.1554 15.2541 13.4607 14.9777 13.7107C14.7013 13.9608 14.3756 14.1501 14.0215 14.2665C13.6674 14.3829 13.2928 14.4238 12.922 14.3866C12.6948 14.7279 12.426 15.0383 12.122 15.3114H12.1198Z" fill="#FF385C"/>
</svg>
