<svg xmlns="http://www.w3.org/2000/svg" width="9.94" height="16" viewBox="0 0 9.94 16">
  <path id="Icon_open-question-mark" data-name="Icon open-question-mark" d="M4.94,0A5.168,5.168,0,0,0,1.18,1.32,4.364,4.364,0,0,0,0,3.88l2,.26a2.424,2.424,0,0,1,.62-1.38A2.97,2.97,0,0,1,4.94,2a3.529,3.529,0,0,1,2.44.68A1.672,1.672,0,0,1,7.94,4c0,1.66-.68,2.12-1.68,3a5.7,5.7,0,0,0-2.32,4.5V12h2v-.5c0-1.66.62-2.12,1.62-3A5.735,5.735,0,0,0,9.94,4,3.842,3.842,0,0,0,8.76,1.18,5.528,5.528,0,0,0,4.94,0Zm-1,14v2h2V14Z" fill="rgba(151,151,151,0.62)"/>
</svg>
