<svg width="19" height="24" viewBox="0 0 10 15" fill="none" xmlns="http://www.w3.org/2000/svg">
<path d="M6.01858 14H4.58715C4.42483 13.9996 4.26929 13.9349 4.1546 13.8201C4.03992 13.7052 3.97545 13.5496 3.97533 13.3873V6.87059H1.5896C1.43326 6.87023 1.28344 6.80793 1.17293 6.69733C1.06243 6.58674 1.00024 6.43687 1 6.28053V4.80466C1.00037 4.64812 1.06278 4.49811 1.17356 4.3875C1.28434 4.2769 1.43445 4.21472 1.59099 4.2146H3.97672V1.61182C3.97684 1.44959 4.04134 1.29404 4.15605 1.17933C4.27076 1.06462 4.42631 1.00012 4.58853 1H6.01997C6.18224 1.00012 6.33783 1.06461 6.45262 1.1793C6.5674 1.294 6.632 1.44955 6.63225 1.61182V4.2146H9.01751C9.17397 4.21484 9.32396 4.27707 9.43464 4.38767C9.54532 4.49826 9.60767 4.6482 9.60804 4.80466V6.28053C9.60792 6.35814 9.59251 6.43496 9.5627 6.50662C9.53289 6.57828 9.48925 6.64336 9.43429 6.69815C9.37932 6.75294 9.3141 6.79637 9.24235 6.82596C9.1706 6.85555 9.09373 6.87072 9.01612 6.87059H6.63086V13.3873C6.63074 13.5496 6.56621 13.7054 6.45142 13.8202C6.33663 13.9351 6.18097 13.9998 6.01858 14ZM1.5896 4.69544C1.56043 4.69544 1.53243 4.70697 1.51172 4.72751C1.491 4.74806 1.47924 4.77595 1.479 4.80513V6.28099C1.47924 6.31012 1.49102 6.33797 1.51175 6.35844C1.53248 6.37891 1.56047 6.39033 1.5896 6.39021H4.21552C4.27918 6.39033 4.34021 6.41568 4.38523 6.4607C4.43024 6.50571 4.45559 6.56674 4.45571 6.6304V13.3873C4.45565 13.4046 4.459 13.4217 4.46557 13.4378C4.47215 13.4538 4.48181 13.4684 4.49402 13.4807C4.50622 13.4929 4.52073 13.5027 4.53671 13.5094C4.55268 13.5161 4.56982 13.5196 4.58715 13.5196H6.01858C6.0536 13.5195 6.08715 13.5055 6.11187 13.4807C6.1366 13.4559 6.15048 13.4223 6.15048 13.3873V6.6304C6.15048 6.5667 6.17578 6.50561 6.22083 6.46056C6.26587 6.41552 6.32697 6.39021 6.39067 6.39021H9.01612C9.04525 6.39033 9.07325 6.37891 9.09398 6.35844C9.11471 6.33797 9.12648 6.31012 9.12673 6.28099V4.80466C9.12648 4.77549 9.11472 4.74759 9.09401 4.72705C9.07329 4.70651 9.0453 4.69498 9.01612 4.69498H6.39067C6.32697 4.69498 6.26587 4.66967 6.22083 4.62463C6.17578 4.57958 6.15048 4.51849 6.15048 4.45479V1.61182C6.15035 1.57692 6.1364 1.54349 6.11168 1.51885C6.08696 1.49422 6.05348 1.48038 6.01858 1.48038H4.58715C4.55229 1.48038 4.51886 1.49423 4.49421 1.51888C4.46956 1.54353 4.45571 1.57696 4.45571 1.61182V4.45479C4.45571 4.51849 4.43041 4.57958 4.38536 4.62463C4.34032 4.66967 4.27922 4.69498 4.21552 4.69498L1.5896 4.69544Z" fill="#5F5B6D" stroke="#5F5B6D" stroke-width="0.2"/>
</svg>
