<svg width="18" height="18" viewBox="0 0 18 18" fill="none" xmlns="http://www.w3.org/2000/svg">
<path opacity="0.9" d="M8.30763 0.000130012C7.16879 0.000130012 6.23072 0.9382 6.23072 2.07704L6.2418 1.9635L5.55988 6.05501L4.25143 9.6356C4.22651 9.66814 4.19674 9.69237 4.15382 9.69237H3.46151V9.00006H0V18H3.46151V15.9231H6.17949C7.31764 15.9231 8.34294 15.3713 8.99994 14.5143C9.65762 15.3713 10.6822 15.9231 11.8204 15.9231H14.5384V18H17.9999V9.00006H14.5384V9.69237H13.8461C13.8024 9.69237 13.7734 9.66814 13.7491 9.6356L12.44 6.05501L11.7581 1.9635L11.7691 2.07704C11.7691 0.9382 10.8311 0.000130012 9.69224 0.000130012C9.45685 0.000130012 9.21593 0.045822 8.99994 0.157283C8.78486 0.0508483 8.54759 -0.00301234 8.30763 0.000130012ZM8.2834 1.39581C8.29725 1.4955 8.30763 1.72258 8.30763 2.07704V12.7648C8.21694 13.263 7.95419 13.7134 7.56523 14.0376C7.17628 14.3618 6.68583 14.539 6.17949 14.5385H3.46151V11.077H4.15382C4.69727 11.077 5.20335 10.7821 5.47058 10.3085L5.49827 10.2573L6.90157 6.4067L7.61533 2.13381V2.07704C7.61533 1.69627 7.90748 1.40897 8.2834 1.39581ZM9.71647 1.39581C10.0924 1.40966 10.3845 1.69558 10.3845 2.07704V2.13381L11.0983 6.4067L12.5023 10.2573L12.5293 10.3092C12.6615 10.542 12.853 10.7357 13.0842 10.8705C13.3155 11.0053 13.5783 11.0766 13.8461 11.077H14.5384V14.5385H11.8204C11.3139 14.539 10.8234 14.3616 10.4344 14.0373C10.0455 13.713 9.78278 13.2624 9.69224 12.7641V2.07704C9.69224 1.72258 9.70331 1.4955 9.71647 1.39581ZM1.38461 10.3847H2.07691V16.6154H1.38461V10.3847ZM15.923 10.3847H16.6153V16.6154H15.923V10.3847Z" fill="#454555"/>
</svg>
