<svg width="44" height="51" viewBox="0 0 44 51" fill="none" xmlns="http://www.w3.org/2000/svg">
<path d="M20.9313 49.6513C10.053 49.6513 1.23438 40.4935 1.23438 29.1967C1.23438 17.9 10.053 8.74219 20.9313 8.74219" stroke="white" stroke-width="2.08333" stroke-linecap="round"/>
<path d="M18.9062 1.66406L25.8993 8.07432L26.482 8.60851L18.9062 15.5529V1.66406Z" fill="white" stroke="white" stroke-width="0.694444"/>
<path d="M38.0417 16.5938C38.0417 16.5938 41.1667 19.7187 41.5139 23.8854M38.9432 39.8576C40.8194 37.7743 42.2083 32.2187 42.2083 29.7882M24.5 49.2326C24.5 49.2326 31.4444 49.2326 35.6111 44.3715" stroke="white" stroke-width="2.08333" stroke-linecap="round"/>
<path d="M13.801 26.9448L14.7177 28.0948L16.951 26.2281V36.3281H18.601V24.0115H17.2844L13.801 26.9448ZM25.8301 36.5281C29.3967 36.5281 30.6301 33.1448 30.6301 30.1615C30.6301 27.1781 29.3967 23.7948 25.8301 23.7948C24.1134 23.7948 22.7967 24.6115 22.0634 25.8781C21.3467 27.1448 21.0134 28.5781 21.0134 30.1615C21.0134 31.7448 21.3467 33.1781 22.0634 34.4448C22.7967 35.7115 24.1134 36.5281 25.8301 36.5281ZM28.9467 30.1615C28.9467 31.5781 28.6967 32.7281 28.1801 33.6281C27.6634 34.5281 26.8801 34.9781 25.8301 34.9781C24.7801 34.9781 23.9967 34.5281 23.4801 33.6281C22.9634 32.7281 22.7134 31.5781 22.7134 30.1615C22.7134 28.7615 22.9634 27.6115 23.4801 26.7115C23.9967 25.7948 24.7801 25.3448 25.8301 25.3448C26.8801 25.3448 27.6634 25.7948 28.1801 26.7115C28.6967 27.6115 28.9467 28.7615 28.9467 30.1615Z" fill="white"/>
</svg>
