<svg  viewBox="0 0 25 25" fill="none" xmlns="http://www.w3.org/2000/svg">
<g clip-path="url(#clip0_174_1805)">
<path d="M20.2392 13.5182C20.2809 13.1849 20.3121 12.8464 20.3121 12.5026C20.3121 12.1589 20.2809 11.8203 20.2392 11.487L22.4423 9.76302C22.6402 9.60677 22.6975 9.32552 22.5673 9.09635L20.484 5.48698C20.3538 5.26302 20.0829 5.16927 19.8486 5.26302L17.2548 6.3099C16.7184 5.89844 16.1298 5.54948 15.4944 5.28385L15.1038 2.52344C15.0569 2.27865 14.8434 2.08594 14.5829 2.08594H10.4163C10.1559 2.08594 9.94231 2.27865 9.90065 2.52344L9.51002 5.28385C8.87461 5.54948 8.28606 5.89323 7.74961 6.3099L5.15586 5.26302C4.92148 5.17448 4.65065 5.26302 4.52044 5.48698L2.43711 9.09635C2.3069 9.32031 2.36419 9.60156 2.56211 9.76302L4.76002 11.487C4.71836 11.8203 4.68711 12.1589 4.68711 12.5026C4.68711 12.8464 4.71836 13.1849 4.76002 13.5182L2.56211 15.2422C2.36419 15.3984 2.3069 15.6797 2.43711 15.9089L4.52044 19.5182C4.65065 19.7422 4.92148 19.8359 5.15586 19.7422L7.74961 18.6953C8.28606 19.1068 8.87461 19.4557 9.51002 19.7214L9.90065 22.4818C9.94231 22.7266 10.1559 22.9193 10.4163 22.9193H14.5829C14.8434 22.9193 15.0569 22.7266 15.0986 22.4818L15.4892 19.7214C16.1246 19.4557 16.7131 19.112 17.2496 18.6953L19.8434 19.7422C20.0777 19.8307 20.3486 19.7422 20.4788 19.5182L22.5621 15.9089C22.6923 15.6849 22.635 15.4036 22.4371 15.2422L20.2392 13.5182ZM12.4996 16.1484C10.484 16.1484 8.85377 14.5182 8.85377 12.5026C8.85377 10.487 10.484 8.85677 12.4996 8.85677C14.5152 8.85677 16.1454 10.487 16.1454 12.5026C16.1454 14.5182 14.5152 16.1484 12.4996 16.1484Z" fill="white"/>
</g>
<defs>
<clipPath id="clip0_174_1805">
<rect width="25" height="25" fill="white"/>
</clipPath>
</defs>
</svg>
