<svg width="20" height="20" viewBox="0 0 16 16" fill="none" xmlns="http://www.w3.org/2000/svg">
<path d="M15.5541 2.46679C15.4355 2.40437 15.3032 2.37277 15.1693 2.37487C15.0354 2.37697 14.9041 2.41271 14.7875 2.47882C14.2408 2.7906 13.7045 2.94128 13.1465 2.94128C11.5199 2.94128 9.98761 1.63565 8.57281 0.224218C8.27306 -0.0747392 7.72313 -0.0747392 7.42338 0.224218C6.08532 1.56111 4.49147 2.92685 2.82248 2.92685C2.27095 2.92685 1.7426 2.77938 1.20945 2.47721C0.971252 2.34417 0.683496 2.34016 0.4421 2.4676C0.200705 2.59503 0.0416397 2.83708 0.020058 3.10959C0.0112654 3.21298 -0.734502 13.4264 7.7599 15.9663C7.83405 15.9887 7.91107 16.0001 7.9885 16H8.01009C8.08762 16 8.16355 15.9888 8.23789 15.9671C16.7563 13.4264 15.9873 3.21058 15.9785 3.10799C15.9671 2.97399 15.9223 2.84502 15.8481 2.73297C15.7739 2.62092 15.6728 2.52938 15.5541 2.46679ZM7.99889 14.3625C2.42042 12.5552 1.65707 6.8189 1.59312 4.36232C1.99678 4.47453 2.40763 4.52984 2.82168 4.52984C4.81359 4.52984 6.53853 3.2739 7.99809 1.89854C9.51121 3.33161 11.1818 4.54426 13.1473 4.54426C13.571 4.54426 13.9922 4.48495 14.4063 4.36794C14.3471 6.82451 13.5902 12.5568 7.99889 14.3625Z" fill="#251F39"/>
</svg>
