<svg width="23" height="23" viewBox="0 0 23 23" fill="none" xmlns="http://www.w3.org/2000/svg">
<path d="M19.4413 18.2411L22.7614 21.5595C22.9162 21.7198 23.0019 21.9345 23 22.1574C22.998 22.3803 22.9086 22.5934 22.751 22.751C22.5934 22.9086 22.3803 22.998 22.1574 23C21.9345 23.0019 21.7198 22.9162 21.5595 22.7614L18.2394 19.4413C16.0698 21.3001 13.2646 22.2464 10.4123 22.0815C7.56006 21.9167 4.88252 20.6535 2.94156 18.557C1.00059 16.4606 -0.0529362 13.6938 0.00204894 10.8373C0.057034 7.98084 1.21626 5.25668 3.23647 3.23647C5.25668 1.21626 7.98084 0.057034 10.8373 0.00204894C13.6938 -0.0529362 16.4606 1.00059 18.557 2.94156C20.6535 4.88252 21.9167 7.56006 22.0815 10.4123C22.2464 13.2646 21.3001 16.0698 19.4413 18.2394V18.2411ZM11.0501 20.4001C13.5299 20.4001 15.9081 19.415 17.6616 17.6616C19.415 15.9081 20.4001 13.5299 20.4001 11.0501C20.4001 8.57035 19.415 6.19214 17.6616 4.43868C15.9081 2.68522 13.5299 1.70013 11.0501 1.70013C8.57035 1.70013 6.19214 2.68522 4.43868 4.43868C2.68522 6.19214 1.70013 8.57035 1.70013 11.0501C1.70013 13.5299 2.68522 15.9081 4.43868 17.6616C6.19214 19.415 8.57035 20.4001 11.0501 20.4001Z" fill="#6C6C6C"/>
</svg>
