<svg width="33" height="32" viewBox="0 0 33 32" fill="none" xmlns="http://www.w3.org/2000/svg">
<rect x="0.5" width="32" height="32" rx="8" fill="#C832D2"/>
<path fill-rule="evenodd" clip-rule="evenodd" d="M11 15.4389C11 12.7112 13.2112 10.5 15.9389 10.5C18.6666 10.5 20.8778 12.7112 20.8778 15.4389C20.8778 16.7681 20.3527 17.9746 19.4987 18.8624C19.4735 18.8819 19.4493 18.9031 19.4262 18.9262C19.4031 18.9493 19.3819 18.9735 19.3624 18.9987C18.4746 19.8527 17.2681 20.3778 15.9389 20.3778C13.2112 20.3778 11 18.1666 11 15.4389ZM19.9307 20.4914C18.8335 21.3595 17.4467 21.8778 15.9389 21.8778C12.3828 21.8778 9.5 18.995 9.5 15.4389C9.5 11.8828 12.3828 9 15.9389 9C19.495 9 22.3778 11.8828 22.3778 15.4389C22.3778 16.9467 21.8595 18.3335 20.9914 19.4307L23.5802 22.0195C23.8731 22.3124 23.8731 22.7873 23.5802 23.0802C23.2873 23.3731 22.8124 23.3731 22.5195 23.0802L19.9307 20.4914Z" fill="white"/>
</svg>
