<svg width="24" height="24" viewBox="0 0 24 24" fill="none" xmlns="http://www.w3.org/2000/svg">
<path d="M8.6854 3.9994L11.2924 1.3924C11.4799 1.20492 11.7342 1.09961 11.9994 1.09961C12.2646 1.09961 12.5189 1.20492 12.7064 1.3924L15.3134 3.9994H18.9994C19.2646 3.9994 19.519 4.10475 19.7065 4.29229C19.894 4.47983 19.9994 4.73418 19.9994 4.9994V8.6854L22.6064 11.2924C22.7939 11.4799 22.8992 11.7342 22.8992 11.9994C22.8992 12.2646 22.7939 12.5189 22.6064 12.7064L19.9994 15.3134V18.9994C19.9994 19.2646 19.894 19.519 19.7065 19.7065C19.519 19.894 19.2646 19.9994 18.9994 19.9994H15.3134L12.7064 22.6064C12.5189 22.7939 12.2646 22.8992 11.9994 22.8992C11.7342 22.8992 11.4799 22.7939 11.2924 22.6064L8.6854 19.9994H4.9994C4.73418 19.9994 4.47983 19.894 4.29229 19.7065C4.10475 19.519 3.9994 19.2646 3.9994 18.9994V15.3134L1.3924 12.7064C1.20492 12.5189 1.09961 12.2646 1.09961 11.9994C1.09961 11.7342 1.20492 11.4799 1.3924 11.2924L3.9994 8.6854V4.9994C3.9994 4.73418 4.10475 4.47983 4.29229 4.29229C4.47983 4.10475 4.73418 3.9994 4.9994 3.9994H8.6854ZM5.9994 5.9994V9.5144L3.5144 11.9994L5.9994 14.4844V17.9994H9.5144L11.9994 20.4844L14.4844 17.9994H17.9994V14.4844L20.4844 11.9994L17.9994 9.5144V5.9994H14.4844L11.9994 3.5144L9.5144 5.9994H5.9994ZM11.9994 15.9994C10.9385 15.9994 9.92111 15.578 9.17097 14.8278C8.42082 14.0777 7.9994 13.0603 7.9994 11.9994C7.9994 10.9385 8.42082 9.92111 9.17097 9.17097C9.92111 8.42082 10.9385 7.9994 11.9994 7.9994C13.0603 7.9994 14.0777 8.42082 14.8278 9.17097C15.578 9.92111 15.9994 10.9385 15.9994 11.9994C15.9994 13.0603 15.578 14.0777 14.8278 14.8278C14.0777 15.578 13.0603 15.9994 11.9994 15.9994ZM11.9994 13.9994C12.5298 13.9994 13.0385 13.7887 13.4136 13.4136C13.7887 13.0385 13.9994 12.5298 13.9994 11.9994C13.9994 11.469 13.7887 10.9603 13.4136 10.5852C13.0385 10.2101 12.5298 9.9994 11.9994 9.9994C11.469 9.9994 10.9603 10.2101 10.5852 10.5852C10.2101 10.9603 9.9994 11.469 9.9994 11.9994C9.9994 12.5298 10.2101 13.0385 10.5852 13.4136C10.9603 13.7887 11.469 13.9994 11.9994 13.9994Z" fill="#A29D9D"/>
</svg>
