<svg width="17" height="18" viewBox="0 0 17 18" fill="none" xmlns="http://www.w3.org/2000/svg">
<path d="M12.6628 6.19945C13.8284 6.19945 14.7733 5.25456 14.7733 4.08898C14.7733 2.9234 13.8284 1.97852 12.6628 1.97852C11.4973 1.97852 10.5524 2.9234 10.5524 4.08898C10.5524 5.25456 11.4973 6.19945 12.6628 6.19945Z" stroke="white" stroke-width="1.40698" stroke-linecap="round" stroke-linejoin="round"/>
<path d="M4.22094 11.1252C5.38652 11.1252 6.3314 10.1803 6.3314 9.01476C6.3314 7.84918 5.38652 6.9043 4.22094 6.9043C3.05536 6.9043 2.11047 7.84918 2.11047 9.01476C2.11047 10.1803 3.05536 11.1252 4.22094 11.1252Z" stroke="white" stroke-width="1.40698" stroke-linecap="round" stroke-linejoin="round"/>
<path d="M12.6628 16.0491C13.8284 16.0491 14.7733 15.1042 14.7733 13.9386C14.7733 12.773 13.8284 11.8281 12.6628 11.8281C11.4973 11.8281 10.5524 12.773 10.5524 13.9386C10.5524 15.1042 11.4973 16.0491 12.6628 16.0491Z" stroke="white" stroke-width="1.40698" stroke-linecap="round" stroke-linejoin="round"/>
<path d="M6.04297 10.0762L10.8478 12.8761" stroke="white" stroke-width="1.40698" stroke-linecap="round" stroke-linejoin="round"/>
<path d="M10.8408 5.15234L6.04297 7.95223" stroke="white" stroke-width="1.40698" stroke-linecap="round" stroke-linejoin="round"/>
</svg>
