<svg width="24" height="16" viewBox="0 0 24 16" fill="none" xmlns="http://www.w3.org/2000/svg">
<path d="M12.0018 0.585938C5.87354 0.585938 0.890625 4.91944 0.890625 10.2491C0.890625 12.3396 1.66159 14.2814 2.96318 15.8637L4.04826 15.1183C2.93602 13.7432 2.27946 12.061 2.27946 10.2489C2.27946 5.57203 6.6241 1.79357 12.0017 1.79357C17.3794 1.79357 21.724 5.57203 21.724 10.2489C21.724 12.0612 21.0674 13.7434 19.9555 15.1183L21.0405 15.8637C22.3419 14.2811 23.1128 12.3391 23.1128 10.2491C23.1128 4.91949 18.13 0.585938 12.0017 0.585938H12.0018ZM18.1434 7.02178L10.776 11.2967C10.0978 11.8863 10.0978 12.8397 10.776 13.4295C11.454 14.0191 12.5504 14.0191 13.2284 13.4295L18.1436 7.02221L18.1434 7.02178Z" fill="white"/>
</svg>
