<svg width="12" height="12" viewBox="0 0 12 12" fill="none" xmlns="http://www.w3.org/2000/svg">
<path d="M9.43178 11.9999C9.56333 12.0023 9.6893 11.9416 9.77346 11.8351C9.85762 11.7286 9.89106 11.5884 9.86431 11.4531L9.11852 7.64723L11.8575 5.02715C11.984 4.90682 12.0314 4.72032 11.979 4.55006C11.926 4.37919 11.7833 4.25708 11.6133 4.23722L7.92793 3.80526L6.39629 0.267722C6.32606 0.104683 6.17111 0 6 0C5.82888 0 5.67392 0.104681 5.6037 0.267722L4.07207 3.80526L0.386669 4.23722C0.216668 4.25708 0.0739775 4.37921 0.0210252 4.55006C-0.0313692 4.72032 0.0160087 4.90682 0.142534 5.02715L2.88147 7.64723L2.13569 11.4531C2.10169 11.6275 2.16802 11.8074 2.30569 11.9127C2.44392 12.0174 2.6273 12.0282 2.77557 11.9404L6.00008 10.0206L9.22459 11.9404C9.28757 11.9777 9.35877 11.9987 9.43178 11.9999Z" fill="#EECC17"/>
</svg>
