<svg  viewBox="0 0 24 24" fill="none" xmlns="http://www.w3.org/2000/svg">
<g clip-path="url(#clip0_1432_14013)">
<path d="M4 17.9996H9.5V19.2496C9.5 19.9789 9.21027 20.6784 8.69454 21.1941C8.17882 21.7099 7.47935 21.9996 6.75 21.9996C6.02065 21.9996 5.32118 21.7099 4.80546 21.1941C4.28973 20.6784 4 19.9789 4 19.2496V17.9996ZM8 6.11959C10 6.11959 11 8.99959 11 10.9996C11 11.9996 10.5 12.9996 10 14.4996L9.5 15.9996H4C4 14.9996 3.5 13.4996 3.5 10.9996C3.5 8.49959 5.498 6.11959 8 6.11959ZM20.054 14.0976L19.837 15.3286C19.7104 16.0469 19.3035 16.6855 18.7061 17.1039C18.1086 17.5223 17.3693 17.6862 16.651 17.5596C15.9327 17.4329 15.2941 17.0261 14.8757 16.4286C14.4573 15.8312 14.2934 15.0919 14.42 14.3736L14.638 13.1436L20.054 14.0976ZM18.178 1.70459C20.642 2.13859 22.196 4.82859 21.762 7.29059C21.328 9.75359 20.575 11.1436 20.402 12.1286L14.985 11.1736L14.753 9.60959C14.521 8.04559 14.203 6.97359 14.376 5.98959C14.723 4.01959 16.208 1.35759 18.178 1.70459Z" fill="#CE9C9C"/>
</g>
<defs>
<clipPath id="clip0_1432_14013">
<rect width="24" height="24" fill="white"/>
</clipPath>
</defs>
</svg>
