<svg width="208" height="213" viewBox="0 0 208 213" fill="none" xmlns="http://www.w3.org/2000/svg">
<g clip-path="url(#clip0_2818_23833)">
<path d="M89.3687 69.0837L87.5156 69.0024C87.626 66.4746 88.7359 44.1884 93.6139 40.123C93.9237 39.8461 94.2891 39.6387 94.6854 39.5146C95.0818 39.3904 95.5001 39.3524 95.9123 39.4031C98.8164 39.8076 101.987 44.4157 105.607 53.4907C108.184 59.952 110.042 66.3946 110.061 66.459L108.278 66.9713C108.26 66.9078 106.424 60.5431 103.88 54.167C99.388 42.9093 96.6329 41.3776 95.6569 41.2418C95.5002 41.2248 95.3418 41.2437 95.1935 41.297C95.0452 41.3503 94.911 41.4366 94.8009 41.5493C91.2015 44.5488 89.6593 62.442 89.3687 69.0837Z" fill="#444444"/>
<path d="M72.9967 57.0587L71.1416 103.609L132.349 97.0114L124.783 52.0684L72.9967 57.0587Z" fill="#093731"/>
<path d="M124.783 52.0684L120.28 52.5021L126.273 91.9126L71.356 98.2358L71.1416 103.609L132.349 97.0114L124.783 52.0684Z" fill="#093731"/>
<path d="M157.85 132.113L155.304 131.831C155.326 131.63 157.44 111.717 150.585 104.27C149.779 103.364 148.779 102.653 147.66 102.189C146.54 101.725 145.331 101.52 144.121 101.591C129.189 102.015 122.168 127.658 122.099 127.917L119.625 127.255C121.004 122.466 122.92 117.849 125.335 113.491C130.537 104.23 137.008 99.2289 144.048 99.0288C145.624 98.9479 147.199 99.2208 148.656 99.8275C150.113 100.434 151.416 101.359 152.47 102.535C160.113 110.841 157.946 131.249 157.85 132.113Z" fill="#444444"/>
<path d="M112.428 113.851L166.458 120.263L165.62 205.997L93.4971 197.401L112.428 113.851Z" fill="#093731"/>
<path d="M166.458 120.263L161.107 119.627L158.501 198.955L94.5129 192.918L93.4971 197.401L165.62 205.997L166.458 120.263Z" fill="#093731"/>
<path d="M179.999 147.509C182.46 148.025 184.804 146.057 185.235 143.109C185.694 143.893 186.153 144.678 186.612 145.464C186.182 148.411 183.836 150.38 181.378 149.864C180.919 149.078 180.459 148.294 179.999 147.509Z" fill="#FFBA49"/>
<path d="M107.332 210.563C109.793 211.079 112.137 209.11 112.568 206.163C113.027 206.946 113.486 207.731 113.945 208.517C113.515 211.464 111.169 213.434 108.711 212.918C108.252 212.132 107.792 211.347 107.332 210.563Z" fill="#9B9B9B"/>
<path d="M185.494 98.1689C186.526 100.893 189.205 102.103 191.481 100.867C191.199 101.765 190.917 102.662 190.634 103.559C188.358 104.793 185.679 103.584 184.648 100.859C184.932 99.9635 185.214 99.0667 185.494 98.1689Z" fill="#FF5C00"/>
<path d="M169.571 78.8196C169.986 75.8685 168.327 73.0744 165.863 72.5772C166.515 72.0212 167.167 71.4652 167.819 70.9094C170.281 71.4065 171.941 74.2019 171.527 77.1517C170.876 77.708 170.224 78.2639 169.571 78.8196Z" fill="#093731"/>
<path d="M21.7077 66.9101C22.123 63.9591 20.4636 61.1648 18 60.6677C18.6515 60.1116 19.3035 59.5557 19.9563 59C22.418 59.497 24.0783 62.2923 23.664 65.2423C23.0125 65.7984 22.3604 66.3543 21.7077 66.9101Z" fill="#FF5C00"/>
<path d="M72.0943 171.475C72.5097 168.523 70.8503 165.729 68.3867 165.232C69.0382 164.676 69.6902 164.12 70.3429 163.564C72.8046 164.061 74.4649 166.857 74.0506 169.807C73.3992 170.363 72.7471 170.919 72.0943 171.475Z" fill="#FF5C00"/>
<path d="M201.332 60.8891C203.777 61.506 206.174 59.6326 206.689 56.7031C207.126 57.5057 207.563 58.309 208 59.1128C207.486 62.0394 205.087 63.914 202.644 63.2988C202.206 62.4962 201.769 61.6929 201.332 60.8891Z" fill="#FFBA49"/>
<path d="M5.82079 97.1413C4.94465 94.3385 2.33935 92.9172 0 93.9681C0.330918 93.0967 0.662322 92.2242 0.994215 91.3505C3.33162 90.3008 5.93838 91.7209 6.815 94.5226C6.4841 95.3951 6.15269 96.268 5.82079 97.1413Z" fill="#FFBA49"/>
<path d="M66.5339 131.28C66.7066 134.264 68.8667 136.516 71.3577 136.308C70.8324 137.033 70.3061 137.754 69.7818 138.479C67.2898 138.685 65.1306 136.432 64.958 133.447C65.4833 132.726 66.0086 132.003 66.5339 131.28Z" fill="#DB3022"/>
<path d="M48.9287 77.0532C51.4027 76.6419 53.1295 73.905 52.7852 70.9409C53.4244 71.5197 54.0625 72.0978 54.6998 72.6752C55.043 75.6404 53.3173 78.3756 50.8432 78.7886C50.206 78.2097 49.5678 77.6312 48.9287 77.0532Z" fill="#093731"/>
<path d="M149.812 40.7055C146.604 40.8117 148.91 46.4644 145.701 46.573C145.088 45.9566 144.476 45.3403 143.862 44.7239C147.071 44.6171 144.765 38.9644 147.973 38.856C148.586 39.4723 149.199 40.0888 149.812 40.7055Z" fill="#FF5C00"/>
<path d="M155.641 189.278C152.519 188.392 153.531 194.565 150.407 193.68C149.947 192.895 149.488 192.11 149.028 191.325C152.152 192.211 151.139 186.038 154.264 186.924C154.722 187.709 155.182 188.493 155.641 189.278Z" fill="#FFBA49"/>
<path d="M62.7809 197.315C60.5753 200.11 65.5422 202.157 63.3366 204.949C62.54 205.031 61.7426 205.116 60.946 205.197C63.1517 202.404 58.1847 200.359 60.3903 197.565C61.1878 197.483 61.9847 197.4 62.7809 197.315Z" fill="#093731"/>
<path d="M134.225 4.35469C131.085 5.15391 134.201 10.2188 131.063 11.0163C130.369 10.5414 129.671 10.0682 128.977 9.59218C132.116 8.79516 128.997 3.73212 132.138 2.93286C132.834 3.4089 133.53 3.88284 134.225 4.35469Z" fill="#DB3022"/>
<path d="M33.4435 21.0039C34.9882 24.3758 38.1368 19.3395 39.6791 22.7103C39.5 23.6436 39.323 24.5804 39.1429 25.5142C37.6006 22.1423 34.4539 27.1802 32.9092 23.8083C33.0888 22.8722 33.2669 21.9374 33.4435 21.0039Z" fill="#9B9B9B"/>
<path d="M6.81543 153.583C7.22976 153.508 7.6046 153.29 7.87453 152.966C8.14446 152.643 8.29233 152.235 8.29233 151.813C8.29233 151.392 8.14446 150.984 7.87453 150.661C7.6046 150.337 7.22976 150.119 6.81543 150.044" fill="#CCF005"/>
<path d="M174.448 16.8655C173.098 16.8655 172 15.5499 172 13.9326C172 12.3153 173.098 10.9998 174.448 10.9998C175.798 10.9998 176.896 12.3154 176.896 13.9326C176.896 15.5499 175.798 16.8655 174.448 16.8655ZM174.448 12.1631C174.019 12.2055 173.624 12.4147 173.348 12.7456C173.072 13.0766 172.936 13.5028 172.971 13.9326C172.932 14.149 172.941 14.3714 172.997 14.584C173.053 14.7966 173.155 14.9942 173.296 15.163C173.437 15.3318 173.613 15.4676 173.812 15.5607C174.011 15.6539 174.228 15.7022 174.448 15.7022C174.668 15.7022 174.885 15.6539 175.084 15.5607C175.283 15.4676 175.459 15.3318 175.6 15.163C175.741 14.9942 175.843 14.7966 175.899 14.584C175.955 14.3714 175.964 14.149 175.925 13.9326C175.959 13.5028 175.824 13.0766 175.548 12.7457C175.272 12.4147 174.877 12.2056 174.448 12.1631Z" fill="#CCF005"/>
<path d="M31.9469 127.983C30.5971 127.983 29.499 126.668 29.499 125.05C29.499 123.433 30.5971 122.117 31.9469 122.117C33.2967 122.117 34.3948 123.433 34.3948 125.05C34.3948 126.668 33.2967 127.983 31.9469 127.983ZM31.9469 123.281C31.5326 123.356 31.1577 123.574 30.8878 123.897C30.6179 124.221 30.47 124.629 30.47 125.05C30.47 125.472 30.6179 125.88 30.8878 126.203C31.1577 126.526 31.5326 126.745 31.9469 126.82C32.3612 126.745 32.7361 126.526 33.006 126.203C33.2759 125.88 33.4238 125.472 33.4238 125.05C33.4238 124.629 33.2759 124.221 33.006 123.897C32.7361 123.574 32.3612 123.356 31.9469 123.281Z" fill="#CCF005"/>
</g>
<defs>
<clipPath id="clip0_2818_23833">
<rect width="208" height="213" fill="white"/>
</clipPath>
</defs>
</svg>
