<svg width="16" height="17" viewBox="0 0 16 17" fill="none" xmlns="http://www.w3.org/2000/svg">
<path d="M14.8733 0.75H1.12326C0.701788 0.75 0.359375 1.09241 0.359375 1.51389V11.4444C0.359375 11.8659 0.701788 12.2083 1.12326 12.2083H8.76215L13.3455 16.0278L12.5816 12.2083H14.8733C15.2947 12.2083 15.6372 11.8659 15.6372 11.4444V1.51389C15.6372 1.09241 15.2947 0.75 14.8733 0.75ZM2.65104 7.625H7.23437V8.38889H2.65104V7.625ZM5.7066 9.91667H2.65104V9.15278H5.7066V9.91667ZM9.52604 9.91667H6.47049V9.15278H9.52604V9.91667ZM9.52604 8.38889H7.99826V7.625H9.52604V8.38889ZM13.3455 9.91667H10.2899V9.15278H13.3455V9.91667ZM13.3455 8.38889H11.8177V7.625H13.3455V8.38889Z" fill="white"/>
</svg>
