<svg viewBox="0 0 65 65" fill="none" xmlns="http://www.w3.org/2000/svg">
<path d="M14.2188 48.75H6.09375C5.55503 48.75 5.03837 48.964 4.65744 49.3449C4.27651 49.7259 4.0625 50.2425 4.0625 50.7812V58.9062C4.0625 59.445 4.27651 59.9616 4.65744 60.3426C5.03837 60.7235 5.55503 60.9375 6.09375 60.9375H14.2188C14.7575 60.9375 15.2741 60.7235 15.6551 60.3426C16.036 59.9616 16.25 59.445 16.25 58.9062V50.7812C16.25 50.2425 16.036 49.7259 15.6551 49.3449C15.2741 48.964 14.7575 48.75 14.2188 48.75Z" fill="#0A5078"/>
<path d="M26.4062 40.625H18.2812C17.7425 40.625 17.2259 40.839 16.8449 41.2199C16.464 41.6009 16.25 42.1175 16.25 42.6562V58.9062C16.25 59.445 16.464 59.9616 16.8449 60.3426C17.2259 60.7235 17.7425 60.9375 18.2812 60.9375H26.4062C26.945 60.9375 27.4616 60.7235 27.8426 60.3426C28.2235 59.9616 28.4375 59.445 28.4375 58.9062V42.6562C28.4375 42.1175 28.2235 41.6009 27.8426 41.2199C27.4616 40.839 26.945 40.625 26.4062 40.625Z" fill="#00A0C8"/>
<path d="M15.2344 49.0215V58.9055C15.2344 59.4205 15.4263 59.8907 15.7422 60.2482C16.058 59.8907 16.25 59.4205 16.25 58.9055V50.7805C16.25 50.029 15.8417 49.3729 15.2344 49.0215Z" fill="#00325A"/>
<path d="M38.5938 32.5H30.4688C29.93 32.5 29.4134 32.714 29.0324 33.0949C28.6515 33.4759 28.4375 33.9925 28.4375 34.5312V58.9062C28.4375 59.445 28.6515 59.9616 29.0324 60.3426C29.4134 60.7235 29.93 60.9375 30.4688 60.9375H38.5938C39.1325 60.9375 39.6491 60.7235 40.0301 60.3426C40.411 59.9616 40.625 59.445 40.625 58.9062V34.5312C40.625 33.9925 40.411 33.4759 40.0301 33.0949C39.6491 32.714 39.1325 32.5 38.5938 32.5Z" fill="#C80A50"/>
<path d="M27.4219 40.8965V58.9055C27.4219 59.4205 27.6138 59.8907 27.9297 60.2482C28.2455 59.8907 28.4375 59.4205 28.4375 58.9055V42.6555C28.4375 41.904 28.0292 41.2479 27.4219 40.8965Z" fill="#0082AA"/>
<path d="M50.7812 22.3438H42.6562C42.1175 22.3438 41.6009 22.5578 41.2199 22.9387C40.839 23.3196 40.625 23.8363 40.625 24.375V58.9062C40.625 59.445 40.839 59.9616 41.2199 60.3426C41.6009 60.7235 42.1175 60.9375 42.6562 60.9375H50.7812C51.32 60.9375 51.8366 60.7235 52.2176 60.3426C52.5985 59.9616 52.8125 59.445 52.8125 58.9062V24.375C52.8125 23.8363 52.5985 23.3196 52.2176 22.9387C51.8366 22.5578 51.32 22.3438 50.7812 22.3438Z" fill="#FAB400"/>
<path d="M50.7812 22.3438H42.6562C42.1175 22.3438 41.6009 22.5578 41.2199 22.9387C40.839 23.3196 40.625 23.8363 40.625 24.375V32.1466C42.4724 33.0241 44.5382 33.5156 46.7188 33.5156C48.8993 33.5156 50.9651 33.0241 52.8125 32.1466V24.375C52.8125 23.8363 52.5985 23.3196 52.2176 22.9387C51.8366 22.5578 51.32 22.3438 50.7812 22.3438Z" fill="#DC9600"/>
<path d="M39.6094 32.7715V58.9055C39.6094 59.4205 39.8013 59.8907 40.1172 60.2482C40.433 59.8907 40.625 59.4205 40.625 58.9055V34.5305C40.625 33.779 40.2167 33.1229 39.6094 32.7715Z" fill="#A00028"/>
<path d="M46.7188 32.5C54.5715 32.5 60.9375 26.134 60.9375 18.2812C60.9375 10.4285 54.5715 4.0625 46.7188 4.0625C38.866 4.0625 32.5 10.4285 32.5 18.2812C32.5 26.134 38.866 32.5 46.7188 32.5Z" fill="#C80A50"/>
<path d="M46.7188 20.3125C46.9881 20.3125 47.2464 20.2055 47.4369 20.015C47.6274 19.8246 47.7344 19.5662 47.7344 19.2969C47.7344 19.0275 47.6274 18.7692 47.4369 18.5787C47.2464 18.3883 46.9881 18.2812 46.7188 18.2812H32.5C32.5 18.9709 32.5498 19.6493 32.6442 20.3125H46.7188Z" fill="#A00028"/>
<path d="M46.7188 8.125C41.1095 8.125 36.5625 12.672 36.5625 18.2812C36.5625 23.8905 41.1095 28.4375 46.7188 28.4375C52.328 28.4375 56.875 23.8905 56.875 18.2812C56.875 12.672 52.328 8.125 46.7188 8.125ZM46.7188 24.375C45.1026 24.375 43.5526 23.733 42.4098 22.5902C41.267 21.4474 40.625 19.8974 40.625 18.2812C40.625 16.6651 41.267 15.1151 42.4098 13.9723C43.5526 12.8295 45.1026 12.1875 46.7188 12.1875C48.3349 12.1875 49.8849 12.8295 51.0277 13.9723C52.1705 15.1151 52.8125 16.6651 52.8125 18.2812C52.8125 19.8974 52.1705 21.4474 51.0277 22.5902C49.8849 23.733 48.3349 24.375 46.7188 24.375Z" fill="#F0F0F0"/>
<path d="M46.7188 20.3125C47.8406 20.3125 48.75 19.4031 48.75 18.2812C48.75 17.1594 47.8406 16.25 46.7188 16.25C45.5969 16.25 44.6875 17.1594 44.6875 18.2812C44.6875 19.4031 45.5969 20.3125 46.7188 20.3125Z" fill="#F0F0F0"/>
<path d="M47.7344 19.2969C47.7344 19.0275 47.6274 18.7692 47.4369 18.5787C47.2464 18.3883 46.9881 18.2812 46.7188 18.2812H44.6875C44.6875 18.82 44.9015 19.3366 45.2824 19.7176C45.6634 20.0985 46.18 20.3125 46.7188 20.3125L46.7716 20.3115C47.0315 20.298 47.2763 20.1851 47.4555 19.9963C47.6346 19.8075 47.7345 19.5572 47.7344 19.2969ZM40.9723 20.3125C40.742 19.6601 40.6245 18.9731 40.625 18.2812H36.5625C36.5625 18.977 36.6326 19.6564 36.7656 20.3125H40.9723Z" fill="#D2D2D2"/>
<path d="M30.171 16.5476L26.1085 12.4851C26.0143 12.3906 25.9023 12.3157 25.7791 12.2646C25.6559 12.2136 25.5238 12.1874 25.3904 12.1875H17.2654C17.0646 12.1875 16.8682 12.2471 16.7013 12.3587C16.5343 12.4703 16.4042 12.6289 16.3273 12.8145C16.2504 13 16.2303 13.2042 16.2695 13.4012C16.3087 13.5982 16.4054 13.7791 16.5474 13.9212L20.6099 17.9837C20.704 18.0781 20.816 18.153 20.9392 18.2041C21.0624 18.2552 21.1945 18.2814 21.3279 18.2813H29.4529C29.6537 18.2812 29.8501 18.2216 30.017 18.11C30.184 17.9984 30.3142 17.8398 30.391 17.6543C30.4679 17.4687 30.488 17.2645 30.4488 17.0675C30.4096 16.8706 30.3129 16.6896 30.171 16.5476Z" fill="#0A5078"/>
<path d="M30.171 20.0149L26.1085 24.0774C26.0143 24.1719 25.9023 24.2468 25.7791 24.2979C25.6559 24.3489 25.5238 24.3751 25.3904 24.375H17.2654C17.0646 24.375 16.8682 24.3154 16.7013 24.2038C16.5343 24.0922 16.4042 23.9336 16.3273 23.748C16.2504 23.5625 16.2303 23.3583 16.2695 23.1613C16.3087 22.9643 16.4054 22.7834 16.5474 22.6413L20.6099 18.5788C20.704 18.4844 20.816 18.4095 20.9392 18.3584C21.0624 18.3073 21.1945 18.2811 21.3279 18.2813H29.4529C29.6537 18.2813 29.8501 18.3409 30.017 18.4525C30.184 18.5641 30.3142 18.7227 30.391 18.9082C30.4679 19.0938 30.488 19.298 30.4488 19.495C30.4096 19.6919 30.3129 19.8729 30.171 20.0149Z" fill="#0A5078"/>
<path d="M19.8926 19.2969L18.877 20.3125H29.8741L30.1717 20.0149C30.2662 19.9207 30.3411 19.8088 30.3921 19.6856C30.4432 19.5624 30.4694 19.4303 30.4693 19.2969H19.8926Z" fill="#00325A"/>
<path d="M46.7188 19.2969H18.2812C18.0119 19.2969 17.7536 19.1899 17.5631 18.9994C17.3726 18.8089 17.2656 18.5506 17.2656 18.2812C17.2656 18.0119 17.3726 17.7536 17.5631 17.5631C17.7536 17.3726 18.0119 17.2656 18.2812 17.2656H46.7188C46.9881 17.2656 47.2464 17.3726 47.4369 17.5631C47.6274 17.7536 47.7344 18.0119 47.7344 18.2812C47.7344 18.5506 47.6274 18.8089 47.4369 18.9994C47.2464 19.1899 46.9881 19.2969 46.7188 19.2969Z" fill="#FAB400"/>
</svg>
