<svg width="41" height="41" viewBox="0 0 41 41" fill="none" xmlns="http://www.w3.org/2000/svg">
<circle cx="20.6034" cy="20.0878" r="20.08" fill="white"/>
<g clip-path="url(#clip0_174_1215)">
<path d="M30.8394 13.7357C30.0856 14.0698 29.2763 14.2955 28.4268 14.397C29.2937 13.8774 29.9608 13.0538 30.2738 12.0727C29.4623 12.5548 28.5626 12.9042 27.6059 13.0924C26.8399 12.2763 25.7483 11.7656 24.5404 11.7656C22.2204 11.7656 20.3396 13.6469 20.3396 15.9665C20.3396 16.2958 20.3766 16.6161 20.449 16.9243C16.957 16.7488 13.862 15.0763 11.7898 12.5347C11.4282 13.1548 11.221 13.8769 11.221 14.6465C11.221 16.1039 11.8157 17.39 12.9432 18.1433C12.2544 18.1211 11.4235 17.9323 10.8949 17.6173V17.6702C10.8949 19.7058 12.4886 21.4032 14.4101 21.7891C14.057 21.8853 13.7589 21.9371 13.3762 21.9371C13.1055 21.9371 12.8787 21.9106 12.6224 21.8615C13.1578 23.5298 14.7278 24.745 16.5653 24.7789C15.128 25.9053 13.3254 26.5772 11.3579 26.5772C11.018 26.5772 10.6887 26.5571 10.3594 26.5185C12.2185 27.7105 14.4286 28.4056 16.801 28.4056C24.5283 28.4056 28.7545 22.0047 28.7545 16.4538C28.7545 16.2715 28.7503 16.0902 28.7429 15.9104C29.5638 15.3184 30.2769 14.5778 30.8394 13.7357Z" fill="#1DA1F2"/>
</g>
<defs>
<clipPath id="clip0_174_1215">
<rect width="20.48" height="20.48" fill="white" transform="translate(10.3594 9.84375)"/>
</clipPath>
</defs>
</svg>
