<svg xmlns="http://www.w3.org/2000/svg" width="15" height="14.578" viewBox="0 0 15 14.578">
  <path id="Icon_ionic-ios-heart" data-name="Icon ionic-ios-heart" d="M13.606,3.938h-.034a3.829,3.829,0,0,0-3.2,1.75,3.829,3.829,0,0,0-3.2-1.75H7.144a3.8,3.8,0,0,0-3.769,3.8,8.192,8.192,0,0,0,1.609,4.466A28.191,28.191,0,0,0,10.375,17.4a28.191,28.191,0,0,0,5.391-5.193A8.192,8.192,0,0,0,17.375,7.74,3.8,3.8,0,0,0,13.606,3.938Z" transform="translate(-2.875 -3.438)" fill="none" stroke="#979797" stroke-width="1"/>
</svg>
