<svg xmlns="http://www.w3.org/2000/svg" width="46" height="46"><path style="line-height:normal;text-indent:0;text-align:start;text-decoration-line:none;text-decoration-style:solid;text-decoration-color:#000;text-transform:none;block-progression:tb;isolation:auto;mix-blend-mode:normal" d="M23 1006.362c12.708 0 23 10.292 23 23 0 12.709-10.292 23-23 23s-23-10.291-23-23c0-12.708 10.292-23 23-23zm-.008 9.983a.497.497 0 0 0-.492.505v3.186a5.026 5.026 0 0 0-3.982-1.951c-.677-.01-.677 1.01 0 1 1.996 0 3.624 1.41 3.925 3.254h-2.01c-.664 0-1.295.253-1.76.681-.463.428-.763 1.069-.657 1.76l2.566 16.772c.366 2.398 4.548 2.437 4.838-.018l2.564-16.756c.106-.692-.193-1.332-.658-1.76a2.605 2.605 0 0 0-1.76-.682h-2c.304-1.852 1.938-3.251 3.924-3.251.676.01.676-1.01 0-1a5.036 5.036 0 0 0-3.99 1.94v-3.175a.5.5 0 0 0-.508-.506zm-2.558 6.994h5.132c.402 0 .812.168 1.082.418.271.25.399.542.348.873l-.262 1.715H23v1h3.58l-.459 3H23v1h2.969l-.46 3H23v1h2.355l-.459 3H23v1h1.744l-.314 2.054-.002.016c-.15 1.283-2.674 1.187-2.858-.016l-2.566-16.77c-.05-.33.077-.623.348-.872.27-.25.68-.418 1.082-.418z" color="#000" font-family="sans-serif" font-weight="400" overflow="visible" transform="translate(0 -1006.362)"/></svg>