<svg width="18" height="19" viewBox="0 0 18 19" fill="none" xmlns="http://www.w3.org/2000/svg">
<g clip-path="url(#clip0_1473_8145)">
<path d="M1.58203 0.62207H16.418C17.0104 0.62207 17.5 1.10985 17.5 1.71682V16.672C17.5 17.279 17.0104 17.7668 16.418 17.7668H1.58203C0.989626 17.7668 0.5 17.279 0.5 16.672V1.71682C0.5 1.10985 0.989626 0.62207 1.58203 0.62207ZM16.418 17.7036C16.9886 17.7036 17.4453 17.2374 17.4453 16.672V1.71682C17.4453 1.1514 16.9886 0.685236 16.418 0.685236H1.58203C1.0114 0.685236 0.554688 1.1514 0.554688 1.71682V16.672C0.554688 17.2374 1.0114 17.7036 1.58203 17.7036H16.418Z" stroke="#7B6F72"/>
<path d="M11.9669 8.54754L11.9671 8.54765C11.9775 8.55554 11.9927 8.55469 12.0024 8.54166L12.0025 8.54161L14.7863 4.80835L14.7864 4.80823C14.7913 4.80158 14.7939 4.79246 14.7926 4.78293L14.7925 4.78252C14.7912 4.77341 14.7864 4.76577 14.7803 4.76113L15.082 4.36247L14.7805 4.76132C13.0991 3.4902 11.1017 2.81934 9.00001 2.81934C6.89839 2.81934 4.9011 3.49014 3.21975 4.76113C3.21356 4.76583 3.20867 4.77347 3.20733 4.78293L2.71226 4.71284M11.9669 8.54754L5.99735 8.54153L3.21376 4.80854C3.21375 4.80853 3.21374 4.80852 3.21373 4.80851C3.2087 4.80173 3.20601 4.79231 3.20739 4.78246L2.71226 4.71284M11.9669 8.54754C11.1056 7.89639 10.078 7.55102 9.00001 7.55102C7.92189 7.55102 6.89451 7.89638 6.03315 8.54749L11.9669 8.54754ZM2.71226 4.71284C2.69262 4.85252 2.72874 4.99442 2.81279 5.10724L9.00001 2.31934C6.78915 2.31934 4.68596 3.0259 2.91798 4.36247C2.80606 4.44719 2.73204 4.57316 2.71226 4.71284ZM6.00715 8.55008C6.01055 8.55176 6.01457 8.55272 6.0186 8.55272C6.02117 8.55272 6.02351 8.55232 6.02559 8.55163L6.00715 8.55008ZM6.00715 8.55008C6.00428 8.54868 6.001 8.5464 5.99742 8.54161L6.00715 8.55008ZM11.5994 8.22267L11.9891 8.46305L12.2628 8.09602L14.4187 5.2047L14.7331 4.78314L14.2962 4.49044C12.7239 3.43696 10.9029 2.8825 9.00001 2.8825C7.09708 2.8825 5.27616 3.43696 3.70383 4.49044L3.26697 4.78314L3.58131 5.2047L5.73724 8.09602L6.01092 8.46305L6.40059 8.22267C7.0467 7.8241 7.76577 7.58298 8.52012 7.51107L8.97267 7.46792V7.01332V5.3931C8.97267 5.37185 8.98865 5.36152 9.00001 5.36152C9.01138 5.36152 9.02736 5.37185 9.02736 5.3931V7.01332V7.46792L9.4799 7.51107C10.2343 7.58298 10.9533 7.8241 11.5994 8.22267Z" stroke="#7B6F72"/>
</g>
<defs>
<clipPath id="clip0_1473_8145">
<rect width="18" height="18.1447" fill="white" transform="translate(0 0.12207)"/>
</clipPath>
</defs>
</svg>
