<svg width="40" height="40" viewBox="0 0 40 40" fill="none" xmlns="http://www.w3.org/2000/svg">
<circle cx="20" cy="20" r="19.5" stroke="#C832D2"/>
<path d="M10.943 20.2386C11.3914 20.6383 11.8395 21.0163 12.2884 21.3721C12.8809 20.4723 13.5264 19.6473 14.228 18.9017C14.0955 18.6522 14.0207 18.3672 14.0207 18.0653C14.0207 17.9162 14.0387 17.7715 14.0734 17.6326C13.3403 17.1577 12.5859 16.6281 11.8005 16.0379C11.2196 17.2358 10.8944 18.5798 10.8944 19.9997H10.8963V20.0002H10.8942C10.8942 20.0965 10.8962 20.1925 10.8991 20.2881L10.943 20.2386ZM12.234 15.2459C13.0203 15.839 13.7728 16.3706 14.5026 16.846C14.8281 16.4987 15.2913 16.2817 15.8045 16.2817C16.2116 16.2817 16.5866 16.4183 16.8869 16.6479C17.1017 16.5055 17.321 16.3682 17.5439 16.2371C18.473 15.6909 19.4699 15.2454 20.5404 14.9062C20.5326 14.8353 20.529 14.7633 20.529 14.6911C20.529 14.4186 20.5835 14.1589 20.6828 13.9227C19.5954 13.0013 18.3076 12.1854 16.8254 11.4645C15.5885 11.9251 14.479 12.6468 13.563 13.5628C13.0571 14.0682 12.6105 14.6333 12.234 15.2459ZM18.0736 11.0991C19.2458 11.73 20.2915 12.4256 21.2069 13.1934C21.5129 12.9251 21.9019 12.7487 22.3299 12.708C22.4259 12.2378 22.5166 11.7598 22.6027 11.2726C21.7778 11.0267 20.9045 10.8939 20.0003 10.8939V10.8958H19.9995V10.8939C19.3387 10.8939 18.6947 10.9652 18.0736 11.0991ZM23.457 11.5754C23.3813 11.9984 23.3021 12.415 23.2191 12.825C23.8159 13.049 24.2769 13.5509 24.444 14.1733C25.252 14.1139 26.0923 14.1024 26.9674 14.1408C26.7988 13.9408 26.6224 13.7474 26.4375 13.5623C25.5915 12.7168 24.5806 12.0371 23.457 11.5754ZM27.6603 15.0788C26.542 14.995 25.4814 14.9928 24.4764 15.0685C24.394 15.4985 24.173 15.8794 23.8623 16.1629C24.1266 16.5703 24.3662 16.9925 24.5802 17.43C24.8921 18.0682 25.1489 18.7384 25.3516 19.4408C25.4132 19.4344 25.4759 19.4308 25.5397 19.4308C26.3403 19.4308 27.0179 19.9582 27.2435 20.6854C27.8337 20.7061 28.4438 20.717 29.0773 20.7209C29.096 20.4827 29.1061 20.2427 29.1061 20.0003H29.1042V19.9998V19.9995H29.1061C29.1056 18.1872 28.5749 16.4982 27.6603 15.0788ZM28.9629 21.6121C28.3859 21.6081 27.8278 21.598 27.286 21.5801C27.1413 22.2751 26.5916 22.8221 25.8949 22.9631C25.9255 23.7959 25.8968 24.6667 25.8066 25.5758C26.3175 25.522 26.8356 25.4478 27.3628 25.3545C28.1576 24.2643 28.7158 22.992 28.9629 21.6121ZM27.877 26.1595L27.8789 26.1688L27.8682 26.1707C27.6206 26.4867 27.3545 26.7871 27.0706 27.071C25.2625 28.8791 22.7625 29.9977 20.0007 29.998V30H20.0003H19.9998V29.998C17.238 29.998 14.7381 28.8791 12.9292 27.0705C11.1209 25.262 10.0021 22.762 10.0018 20.0002H10V19.9997H10.0018C10.0018 17.2375 11.1209 14.7376 12.9295 12.929C14.7381 11.1204 17.2375 10.0018 19.9995 10.0018V10H20.0003V10.0018C22.7625 10.0018 25.2624 11.1206 27.0708 12.9295C28.8794 14.7376 29.998 17.2375 29.998 19.9995H30V19.9998V20.0003H29.998C29.998 22.3244 29.2057 24.4624 27.877 26.1595ZM26.4777 26.3957C26.216 26.4305 25.9565 26.4606 25.6989 26.4855C25.6668 26.7158 25.6307 26.9484 25.5915 27.1838C25.8887 26.9523 26.1714 26.7033 26.4375 26.4372L26.4777 26.3957ZM24.554 27.8844C24.6452 27.4312 24.7227 26.9875 24.7866 26.5531C23.1556 26.6379 21.5968 26.5202 20.0884 26.2017C19.7935 26.5514 19.3525 26.7746 18.8594 26.7746C18.8228 26.7746 18.7866 26.7731 18.7511 26.771C18.4665 27.4971 18.1909 28.2035 17.9383 28.8706C18.6007 29.0241 19.2912 29.1058 19.9997 29.1058V29.1038H20.0002H20.0005V29.1058C21.6589 29.1058 23.2142 28.661 24.554 27.8844ZM17.0773 28.6257C17.3538 27.8906 17.6299 27.181 17.9103 26.4645C17.5571 26.2059 17.3135 25.8062 17.2622 25.3481C15.6442 24.707 14.0755 23.8175 12.5246 22.6782C12.2759 23.0972 12.0378 23.5314 11.8096 23.9811C12.2554 24.8957 12.8507 25.7254 13.5628 26.4375C14.5409 27.4152 15.7394 28.1719 17.0773 28.6257ZM11.3682 22.9049C11.5117 22.6429 11.659 22.3861 11.8099 22.1343C11.5446 21.9255 11.2795 21.7091 11.0148 21.4858C11.0951 21.9727 11.2139 22.4474 11.3682 22.9049ZM17.4398 17.3524C17.5353 17.5708 17.5885 17.8118 17.5885 18.0654C17.5885 18.236 17.5643 18.4012 17.5195 18.5575C18.4995 19.0262 19.4627 19.3983 20.439 19.6921C20.7938 18.6297 21.1348 17.5265 21.4523 16.3724C21.2028 16.2135 20.9912 16.001 20.8337 15.7508C19.8172 16.0705 18.873 16.4909 17.9953 17.0068C17.8075 17.1172 17.6217 17.2327 17.4398 17.3524ZM17.0622 19.3302C16.7397 19.6514 16.2952 19.8496 15.8044 19.8496C15.446 19.8496 15.112 19.7437 14.832 19.562C14.1696 20.2715 13.5599 21.0579 12.9984 21.916C14.4526 22.9909 15.9175 23.835 17.4207 24.4494C17.6847 23.9227 18.2298 23.5609 18.859 23.5609C18.9196 23.5609 18.979 23.5643 19.0381 23.571C19.4119 22.5941 19.7866 21.5869 20.1502 20.5389C19.1162 20.2264 18.0975 19.8301 17.0622 19.3302ZM23.0806 16.6035C22.903 16.6551 22.7152 16.6828 22.5207 16.6828C22.4455 16.6828 22.3709 16.679 22.2979 16.6706C21.9849 17.8037 21.6504 18.8874 21.3024 19.9307C22.1569 20.1466 23.0286 20.3083 23.9383 20.4272C24.0706 20.1589 24.2682 19.9289 24.5109 19.7577C24.3197 19.0793 24.0742 18.4344 23.7752 17.8224C23.5692 17.401 23.3374 16.9953 23.0806 16.6035ZM24.9977 22.9146C24.3049 22.694 23.7956 22.0617 23.758 21.305C22.8127 21.1792 21.9048 21.0086 21.0138 20.7804C20.638 21.8647 20.2508 22.9061 19.8644 23.9147C20.231 24.2093 20.4657 24.6615 20.4657 25.1678C20.4657 25.2345 20.4613 25.3001 20.4535 25.3649C21.8786 25.6483 23.354 25.744 24.9006 25.6509C25.0024 24.6927 25.0342 23.7811 24.9977 22.9146Z" fill="#E88A23"/>
</svg>
