<svg width="10" height="11" viewBox="0 0 10 11" fill="none" xmlns="http://www.w3.org/2000/svg">
<path d="M9.67679 4.13518L6.67898 3.71404L5.33889 1.08792C5.30228 1.01602 5.24207 0.957813 5.16768 0.922433C4.98113 0.833412 4.75444 0.907596 4.66116 1.08792L3.32106 3.71404L0.323258 4.13518C0.240609 4.1466 0.165044 4.18426 0.107189 4.24132C0.0372466 4.31081 -0.00129512 4.4043 3.3232e-05 4.50124C0.00136159 4.59819 0.0424513 4.69066 0.114274 4.75833L2.28323 6.80239L1.7708 9.68873C1.75878 9.75587 1.76647 9.82493 1.79299 9.88806C1.81951 9.9512 1.86379 10.0059 1.92083 10.0459C1.97787 10.086 2.04537 10.1098 2.11568 10.1146C2.186 10.1195 2.25631 10.1052 2.31865 10.0733L5.00002 8.71064L7.6814 10.0733C7.7546 10.111 7.83962 10.1236 7.92108 10.1099C8.12653 10.0756 8.26467 9.88732 8.22925 9.68873L7.71682 6.80239L9.88577 4.75833C9.94481 4.70241 9.98377 4.62936 9.99558 4.54947C10.0275 4.34975 9.88341 4.16486 9.67679 4.13518Z" fill="white"/>
</svg>
