<svg width="19" height="21" viewBox="0 0 14 16" fill="none" xmlns="http://www.w3.org/2000/svg">
<path d="M6.29231 15.3846H10.8769C11.6769 15.3846 12.3231 14.7385 12.3231 13.9385V10.7692C12.7231 9.66154 13 9.32308 13 8.61538V5.01538C13 4.98461 13 2.21538 13 2.30769C13 1.63077 12.4462 1.04615 11.7385 1.04615H11.2462C10.9385 1.04615 10.6615 1.16923 10.4154 1.35385C10.2 0.923077 9.70769 0.615385 9.15385 0.615385C8.78462 0.615385 8.44615 0.769231 8.2 0.984615C7.95385 0.4 7.43077 0 6.78462 0C6.2 0 5.70769 0.338462 5.46154 0.830769C5.18462 0.584615 4.81538 0.4 4.41538 0.4C3.58462 0.4 2.93846 1.07692 2.93846 1.87692V2.03077H2.66154C1.73846 2.06154 1 2.76923 1 3.69231V6.89231C1 7.96923 1.52308 8.98462 2.41538 9.6C3.12308 10.2462 4.84615 10.7385 4.84615 12.6154V13.9692C4.84615 14.7385 5.49231 15.3846 6.29231 15.3846ZM11.2769 1.69231H11.7692C12.1077 1.69231 12.4154 1.96923 12.4154 2.33846C12.4154 2.36923 12.4154 5.16923 12.4154 5.04615C12.4154 5.38461 12.1385 5.69231 11.7692 5.69231H11.2769C10.9385 5.69231 10.6615 5.41538 10.6615 5.07692V2.30769C10.6308 1.96923 10.9077 1.69231 11.2769 1.69231ZM9.15385 1.23077C9.64615 1.23077 10.0154 1.63077 10.0154 2.09231V2.30769C10.0154 2.33846 10.0154 5.35385 10.0154 5.23077C10.0154 5.72308 9.61539 6.09231 9.15385 6.09231C8.69231 6.09231 8.29231 5.69231 8.29231 5.23077V4.4C8.41539 4.18462 8.47692 3.90769 8.47692 3.66154C8.47692 3.41538 8.41539 3.16923 8.29231 2.92308V2.09231C8.26154 1.63077 8.66154 1.23077 9.15385 1.23077ZM5.30769 5.35385C5.30769 5.84615 4.90769 6.21538 4.44615 6.21538C3.95385 6.21538 3.58462 5.81538 3.58462 5.35385V5.32308H5.33846V5.35385H5.30769ZM5.92308 5.35385V5.32308H6.81538C6.87692 5.32308 6.96923 5.32308 7.03077 5.32308C7.24615 5.29231 7.46154 5.2 7.64615 5.10769V5.29231V5.78462C7.64615 6.27692 7.24615 6.64615 6.78462 6.64615C6.29231 6.64615 5.92308 6.24615 5.92308 5.78462V5.35385ZM5.92308 1.47692C5.92308 0.984615 6.32308 0.615385 6.78462 0.615385C7.27692 0.615385 7.64615 1.01538 7.64615 1.47692C7.64615 1.6 7.64615 2.30769 7.64615 2.27692C7.4 2.12308 7.09231 2.03077 6.81538 2.03077H5.92308C5.92308 2 5.92308 1.44615 5.92308 1.47692ZM3.55385 1.87692C3.55385 1.38462 3.95385 1.01538 4.41538 1.01538C4.87692 1.01538 5.27692 1.41538 5.27692 1.87692V2.03077H3.52308V1.87692H3.55385ZM2.75385 9.07692C2.04615 8.58461 1.61538 7.75385 1.61538 6.89231V3.69231C1.61538 3.13846 2.07692 2.67692 2.63077 2.67692H6.81538C7.4 2.67692 7.83077 3.16923 7.83077 3.69231C7.83077 4.21538 7.4 4.70769 6.81538 4.70769C3.64615 4.70769 5.21538 4.70769 3.24615 4.70769C3.06154 4.70769 2.93846 4.83077 2.93846 5.01538V5.35385C2.93846 6.18462 3.61538 6.83077 4.41538 6.83077C4.81538 6.83077 5.18462 6.67692 5.46154 6.4C5.70769 6.89231 6.2 7.23077 6.78462 7.23077C7.36923 7.23077 7.89231 6.89231 8.13846 6.33846C8.41539 6.58462 8.75385 6.73846 9.12308 6.73846C9.67692 6.73846 10.1692 6.43077 10.4154 5.96923C10.6308 6.15385 10.9077 6.27692 11.2462 6.27692H11.7385C11.9846 6.27692 12.1692 6.21538 12.3846 6.09231V8.61538C12.3846 9.13846 12.1692 9.38461 11.7077 10.5846C11.7077 10.6154 11.6769 10.6462 11.6769 10.7077V13.9385C11.6769 14.4 11.3077 14.7692 10.8462 14.7692H6.29231C5.83077 14.7692 5.46154 14.4 5.46154 13.9385V12.5846C5.46154 10.3385 3.4 9.63077 2.75385 9.07692Z" fill="#5F5B6D" stroke="#5F5B6D" stroke-width="0.2"/>
</svg>
