<svg xmlns="http://www.w3.org/2000/svg" xmlns:xlink="http://www.w3.org/1999/xlink" width="437" height="158" viewBox="0 0 437 158">
  <defs>
    <filter id="Rectangle_20" x="0" y="0" width="437" height="158" filterUnits="userSpaceOnUse">
      <feOffset dy="5" input="SourceAlpha"/>
      <feGaussianBlur stdDeviation="10" result="blur"/>
      <feFlood flood-color="#6d7177" flood-opacity="0.251"/>
      <feComposite operator="in" in2="blur"/>
      <feComposite in="SourceGraphic"/>
    </filter>
  </defs>
  <g id="Wrong_answer" data-name="Wrong answer" transform="translate(30 25)">
    <g transform="matrix(1, 0, 0, 1, -30, -25)" filter="url(#Rectangle_20)">
      <rect id="Rectangle_20-2" data-name="Rectangle 20" width="377" height="98" rx="8" transform="translate(30 25)" fill="#ff5151" opacity="0.1"/>
    </g>
    <text id="Oops_Wrong_Answer." data-name="Oops! Wrong Answer." transform="translate(84 38)" fill="#ff5151" font-size="17" font-family="Helvetica"><tspan x="0" y="13">Oops! Wrong Answer.</tspan></text>
    <g id="Group_15" data-name="Group 15" transform="translate(24.5 29)">
      <circle id="Ellipse_26" data-name="Ellipse 26" cx="19.5" cy="19.5" r="19.5" fill="#ff5151"/>
      <path id="Icon_ionic-ios-close" data-name="Icon ionic-ios-close" d="M20.63,18.844l5.4-5.4a1.265,1.265,0,0,0-1.788-1.789l-5.4,5.4-5.4-5.4a1.265,1.265,0,1,0-1.788,1.789l5.4,5.4-5.4,5.4a1.265,1.265,0,0,0,1.788,1.789l5.4-5.4,5.4,5.4a1.265,1.265,0,0,0,1.788-1.789Z" transform="translate(0.66 0.656)" fill="#fff"/>
    </g>
  </g>
</svg>
