<svg width="19" height="19" viewBox="0 0 13 13" fill="none" xmlns="http://www.w3.org/2000/svg">
<path d="M0.42623 0L0 0.745902C0.241683 0.885449 0.656772 1.07717 0.985656 1.33197C1.31454 1.58677 1.4918 1.86475 1.4918 2.07787V8.89754H2.34426V2.07787C2.59023 1.77061 2.80886 1.42113 3.03689 1.17213C3.19005 1.00488 3.34051 0.892184 3.43648 0.852459C3.53244 0.812393 3.56901 0.817721 3.67623 0.879098L3.78279 0.932377C4.02223 1.07065 4.32433 1.21667 4.55533 1.41189C4.78632 1.60718 4.90164 1.80593 4.90164 2.07787V8.89754H5.7541V2.07787C5.7541 2.06836 5.75427 2.06066 5.7541 2.05123C5.99495 1.7481 6.22268 1.41677 6.44672 1.17213C6.59989 1.00488 6.75035 0.892184 6.84631 0.852459C6.94227 0.812393 6.97885 0.817721 7.08607 0.879098L7.19262 0.932377C7.43207 1.07065 7.73417 1.21667 7.96516 1.41189C8.19616 1.60718 8.31148 1.80593 8.31148 2.07787V8.79098V8.89754C8.33685 9.58186 8.60501 10.1367 9.0041 10.4693C9.42397 10.8192 9.94536 10.9221 10.4426 10.9221H11.4283L10.8955 11.4549L11.5082 12.0676L12.707 10.8422L13 10.5492L12.707 10.2561L11.5082 9.03074L10.8955 9.64344L11.3217 10.0697H10.4426C10.0874 10.0697 9.783 9.98613 9.56352 9.80328C9.35965 9.63342 9.18705 9.36991 9.16393 8.89754C9.16214 8.86141 9.16393 8.82969 9.16393 8.79098V2.07787C9.16393 1.49734 8.83637 1.05863 8.49795 0.772541C7.76611 0.173741 7.35168 -0.141151 6.52664 0.079918C6.23962 0.198666 6.02954 0.399164 5.83402 0.612705C5.6776 0.783469 5.54501 0.969075 5.40779 1.14549C5.30728 1.01243 5.20382 0.870351 5.08811 0.772541C4.35627 0.173741 3.91212 -0.133185 3.1168 0.079918C2.82978 0.198666 2.6197 0.399164 2.42418 0.612705C2.26777 0.783469 2.13517 0.969075 1.99795 1.14549C1.84991 0.960451 1.66699 0.801705 1.4918 0.665984C1.07479 0.342987 0.610776 0.106557 0.42623 0Z" fill="#251F39" fill-opacity="0.7"/>
</svg>
